M48
;GenerationSoftware,Autodesk,EAGLE,9.6.1*%
;CreationDate,2024-12-11T13:28:15Z*%
FMAT,2
ICI,OFF
METRIC,TZ,000.000
T4C0.250
T3C0.300
T2C0.350
T1C1.016
%
G90
M71
T1
X-8573Y2540
X-8573Y0
X8731Y2699
X-8573Y5080
T2
X-1905Y12541
X1746Y12541
X11271Y5556
X12224Y1587
X8890Y-8731
X5398Y-11271
X5824Y-84
X4921Y1429
X-1086Y6652
X1616Y6081
X-635Y11271
X-2064Y3016
X-2540Y-2857
X-4286Y-794
X4719Y3162
X-8890Y-9208
X-10319Y3969
X-10636Y2699
X1429Y-7302
X-6032Y-9208
X-7302Y-8255
X6350Y-10160
X7302Y-9525
X6985Y-6191
X11112Y3969
X10954Y1905
X794Y11112
X-4227Y-5544
X-4946Y1255
X-3651Y6970
X-5715Y-11112
X-12541Y2381
X-11271Y5715
X2540Y-2857
T3
X476Y7461
T4
X-6176Y6574
X-1746Y-9208
X-8314Y-5041
X8759Y-5874
X7910Y6596
X-4604Y-7446
X-4458Y5865
X-6032Y5239
X-5211Y4060
X3254Y-1295
X-5080Y4763
X5727Y5865
X6586Y-4834
X6350Y4286
X-1425Y721
X6926Y4704
X-1415Y18
X6568Y5339
X-318Y794
X318Y794
X318Y0
X318Y-794
X7302Y2525
X-4136Y-4022
X3729Y-1840
X-318Y-794
X-6547Y-1944
X-3617Y2220
X-3018Y-234
X-2127Y730
X4754Y6486
X3969Y-6985
X-3515Y263
X-2624Y1227
X-4012Y759
X-3120Y1724
X-318Y0
X7302Y1429
X3492Y-610
X-3779Y3162
M30