M48
;GenerationSoftware,Autodesk,EAGLE,9.3.0*%
;CreationDate,2019-06-05T08:17:11Z*%
FMAT,2
ICI,OFF
METRIC,TZ,000.000
T1C0.350
%
G90
M71
T1
X33909Y34671
X35052Y34671
X41529Y33274
X42291Y28956
X25146Y35687
X40386Y38227
X30734Y38100
X29464Y32131
X25400Y28321
X26924Y40640
X28702Y36830
X39014Y32791
X38100Y43561
X36322Y42037
X36322Y44244
X42819Y35580
X40262Y32933
X42545Y30655
X35687Y26035
X30861Y42418
X33528Y44958
X28829Y33020
X34163Y30226
X35179Y29718
X29655Y33687
M30