G04 EAGLE Gerber RS-274X export*
G75*
%MOMM*%
%FSLAX34Y34*%
%LPD*%
%INBottom Copper*%
%IPPOS*%
%AMOC8*
5,1,8,0,0,1.08239X$1,22.5*%
G01*
%ADD10R,1.000000X1.100000*%
%ADD11C,0.124994*%
%ADD12R,5.699988X5.699988*%
%ADD13R,1.399997X0.400000*%
%ADD14R,1.100000X1.000000*%
%ADD15R,1.500000X1.300000*%
%ADD16C,0.499997*%
%ADD17C,0.800000*%
%ADD18C,0.756400*%
%ADD19C,1.016000*%
%ADD20C,0.304800*%
%ADD21C,0.254000*%
%ADD22C,0.177800*%
%ADD23C,0.406400*%

G36*
X278630Y226508D02*
X278630Y226508D01*
X278658Y226506D01*
X278726Y226528D01*
X278797Y226542D01*
X278820Y226558D01*
X278847Y226567D01*
X278901Y226614D01*
X278961Y226655D01*
X278976Y226679D01*
X278997Y226697D01*
X279029Y226762D01*
X279068Y226822D01*
X279073Y226850D01*
X279085Y226875D01*
X279094Y226978D01*
X279101Y227019D01*
X279099Y227029D01*
X279100Y227041D01*
X278984Y228519D01*
X316815Y228519D01*
X316900Y228536D01*
X316985Y228548D01*
X316997Y228556D01*
X317011Y228558D01*
X317083Y228607D01*
X317157Y228652D01*
X317165Y228663D01*
X317177Y228671D01*
X317224Y228743D01*
X317275Y228814D01*
X317279Y228828D01*
X317286Y228839D01*
X317296Y228894D01*
X317320Y228988D01*
X317422Y230347D01*
X317413Y230417D01*
X317413Y230487D01*
X317401Y230518D01*
X317397Y230546D01*
X317372Y230590D01*
X317346Y230654D01*
X317343Y230659D01*
X317487Y231292D01*
X317488Y231326D01*
X317499Y231367D01*
X317547Y232014D01*
X317551Y232017D01*
X317595Y232073D01*
X317644Y232123D01*
X317657Y232153D01*
X317674Y232176D01*
X317688Y232225D01*
X317715Y232289D01*
X318242Y234599D01*
X318244Y234669D01*
X318254Y234739D01*
X318247Y234771D01*
X318247Y234799D01*
X318229Y234847D01*
X318213Y234914D01*
X318210Y234919D01*
X318447Y235523D01*
X318454Y235558D01*
X318470Y235596D01*
X318614Y236229D01*
X318619Y236232D01*
X318670Y236280D01*
X318727Y236322D01*
X318744Y236350D01*
X318764Y236370D01*
X318785Y236417D01*
X318821Y236476D01*
X319687Y238681D01*
X319699Y238751D01*
X319719Y238818D01*
X319717Y238851D01*
X319722Y238878D01*
X319710Y238929D01*
X319704Y238998D01*
X319703Y239003D01*
X320027Y239565D01*
X320039Y239598D01*
X320060Y239633D01*
X320297Y240237D01*
X320303Y240239D01*
X320360Y240280D01*
X320423Y240313D01*
X320444Y240338D01*
X320467Y240354D01*
X320494Y240398D01*
X320539Y240451D01*
X321724Y242502D01*
X321733Y242530D01*
X321736Y242535D01*
X321738Y242545D01*
X321746Y242569D01*
X321776Y242633D01*
X321779Y242666D01*
X321787Y242692D01*
X321784Y242744D01*
X321788Y242813D01*
X321788Y242818D01*
X322192Y243326D01*
X322208Y243357D01*
X322235Y243388D01*
X322559Y243950D01*
X322565Y243952D01*
X322628Y243983D01*
X322694Y244007D01*
X322719Y244028D01*
X322744Y244041D01*
X322778Y244080D01*
X322830Y244125D01*
X324307Y245978D01*
X324339Y246040D01*
X324379Y246099D01*
X324386Y246131D01*
X324399Y246156D01*
X324403Y246207D01*
X324417Y246275D01*
X324418Y246280D01*
X324893Y246722D01*
X324914Y246750D01*
X324945Y246777D01*
X325349Y247285D01*
X325355Y247285D01*
X325422Y247307D01*
X325491Y247320D01*
X325519Y247338D01*
X325546Y247347D01*
X325585Y247380D01*
X325643Y247418D01*
X327380Y249029D01*
X327421Y249086D01*
X327469Y249138D01*
X327481Y249169D01*
X327497Y249192D01*
X327509Y249242D01*
X327533Y249307D01*
X327534Y249312D01*
X328070Y249677D01*
X328095Y249702D01*
X328130Y249725D01*
X328605Y250166D01*
X328611Y250166D01*
X328680Y250177D01*
X328751Y250180D01*
X328781Y250194D01*
X328809Y250198D01*
X328852Y250225D01*
X328916Y250254D01*
X330873Y251588D01*
X330922Y251639D01*
X330977Y251683D01*
X330994Y251712D01*
X331013Y251732D01*
X331032Y251780D01*
X331066Y251840D01*
X331068Y251845D01*
X331653Y252127D01*
X331680Y252148D01*
X331718Y252165D01*
X332254Y252530D01*
X332260Y252529D01*
X332330Y252530D01*
X332401Y252522D01*
X332432Y252531D01*
X332460Y252531D01*
X332507Y252552D01*
X332574Y252570D01*
X334709Y253598D01*
X334765Y253641D01*
X334826Y253677D01*
X334846Y253702D01*
X334868Y253719D01*
X334894Y253764D01*
X334937Y253818D01*
X334940Y253823D01*
X335560Y254014D01*
X335590Y254031D01*
X335630Y254042D01*
X336215Y254324D01*
X336220Y254322D01*
X336290Y254312D01*
X336358Y254294D01*
X336391Y254298D01*
X336419Y254294D01*
X336469Y254308D01*
X336537Y254316D01*
X338801Y255014D01*
X338863Y255048D01*
X338929Y255074D01*
X338952Y255097D01*
X338977Y255110D01*
X339009Y255150D01*
X339060Y255198D01*
X339063Y255202D01*
X339704Y255299D01*
X339737Y255311D01*
X339778Y255316D01*
X340399Y255507D01*
X340403Y255504D01*
X340471Y255484D01*
X340536Y255457D01*
X340569Y255456D01*
X340596Y255448D01*
X340647Y255453D01*
X340716Y255451D01*
X343059Y255804D01*
X343125Y255829D01*
X343194Y255845D01*
X343221Y255863D01*
X343247Y255873D01*
X343285Y255908D01*
X343342Y255947D01*
X343459Y256064D01*
X343516Y256103D01*
X343519Y256108D01*
X343523Y256111D01*
X343574Y256192D01*
X343626Y256272D01*
X343626Y256277D01*
X343629Y256281D01*
X343661Y256458D01*
X343661Y265423D01*
X360505Y282266D01*
X360509Y282273D01*
X360515Y282277D01*
X360564Y282356D01*
X360616Y282433D01*
X360617Y282441D01*
X360621Y282448D01*
X360653Y282625D01*
X360653Y312965D01*
X360779Y313090D01*
X360783Y313097D01*
X360790Y313101D01*
X360838Y313180D01*
X360890Y313257D01*
X360891Y313265D01*
X360895Y313272D01*
X360927Y313449D01*
X360927Y315467D01*
X362187Y316727D01*
X365217Y316727D01*
X365843Y316101D01*
X365848Y316098D01*
X365851Y316094D01*
X365931Y316042D01*
X366010Y315990D01*
X366015Y315989D01*
X366020Y315986D01*
X366114Y315970D01*
X366207Y315952D01*
X366212Y315953D01*
X366218Y315952D01*
X366310Y315974D01*
X366403Y315994D01*
X366408Y315997D01*
X366413Y315998D01*
X366561Y316101D01*
X367187Y316727D01*
X370217Y316727D01*
X370843Y316101D01*
X370848Y316098D01*
X370851Y316094D01*
X370931Y316042D01*
X371010Y315990D01*
X371015Y315989D01*
X371020Y315986D01*
X371114Y315970D01*
X371207Y315952D01*
X371212Y315953D01*
X371218Y315952D01*
X371310Y315974D01*
X371403Y315994D01*
X371408Y315997D01*
X371413Y315998D01*
X371561Y316101D01*
X372187Y316727D01*
X375170Y316727D01*
X375175Y316728D01*
X375180Y316727D01*
X375273Y316748D01*
X375367Y316766D01*
X375371Y316769D01*
X375376Y316770D01*
X375454Y316826D01*
X375532Y316879D01*
X375535Y316883D01*
X375540Y316886D01*
X375590Y316968D01*
X375642Y317047D01*
X375643Y317052D01*
X375645Y317057D01*
X375677Y317234D01*
X375677Y320217D01*
X376303Y320843D01*
X376306Y320848D01*
X376310Y320851D01*
X376362Y320931D01*
X376414Y321010D01*
X376415Y321015D01*
X376418Y321020D01*
X376434Y321114D01*
X376452Y321207D01*
X376451Y321212D01*
X376452Y321218D01*
X376430Y321310D01*
X376410Y321403D01*
X376407Y321408D01*
X376406Y321413D01*
X376303Y321561D01*
X375677Y322187D01*
X375677Y325217D01*
X376303Y325843D01*
X376306Y325848D01*
X376310Y325851D01*
X376362Y325931D01*
X376414Y326010D01*
X376415Y326015D01*
X376418Y326020D01*
X376434Y326114D01*
X376452Y326207D01*
X376451Y326212D01*
X376452Y326218D01*
X376430Y326310D01*
X376410Y326403D01*
X376407Y326408D01*
X376406Y326413D01*
X376303Y326561D01*
X375677Y327187D01*
X375677Y330217D01*
X376303Y330843D01*
X376306Y330848D01*
X376310Y330851D01*
X376361Y330931D01*
X376414Y331010D01*
X376415Y331015D01*
X376418Y331020D01*
X376434Y331114D01*
X376452Y331207D01*
X376451Y331212D01*
X376452Y331218D01*
X376430Y331310D01*
X376410Y331403D01*
X376407Y331408D01*
X376406Y331413D01*
X376303Y331561D01*
X375677Y332187D01*
X375677Y335217D01*
X376303Y335843D01*
X376306Y335848D01*
X376310Y335851D01*
X376362Y335931D01*
X376414Y336010D01*
X376415Y336015D01*
X376418Y336020D01*
X376434Y336113D01*
X376452Y336207D01*
X376451Y336212D01*
X376452Y336218D01*
X376430Y336310D01*
X376410Y336403D01*
X376407Y336408D01*
X376406Y336413D01*
X376303Y336561D01*
X375677Y337187D01*
X375677Y340217D01*
X376303Y340843D01*
X376306Y340848D01*
X376310Y340851D01*
X376362Y340931D01*
X376414Y341010D01*
X376415Y341015D01*
X376418Y341020D01*
X376434Y341114D01*
X376452Y341207D01*
X376451Y341212D01*
X376452Y341218D01*
X376430Y341310D01*
X376410Y341403D01*
X376407Y341408D01*
X376406Y341413D01*
X376303Y341561D01*
X375677Y342187D01*
X375677Y345217D01*
X376303Y345843D01*
X376304Y345845D01*
X376306Y345846D01*
X376307Y345849D01*
X376310Y345851D01*
X376362Y345931D01*
X376414Y346010D01*
X376415Y346015D01*
X376418Y346020D01*
X376434Y346114D01*
X376452Y346207D01*
X376451Y346212D01*
X376452Y346218D01*
X376430Y346310D01*
X376410Y346403D01*
X376407Y346408D01*
X376406Y346413D01*
X376303Y346561D01*
X375677Y347187D01*
X375677Y350217D01*
X376303Y350843D01*
X376306Y350848D01*
X376310Y350851D01*
X376362Y350931D01*
X376414Y351010D01*
X376415Y351015D01*
X376418Y351020D01*
X376434Y351114D01*
X376452Y351207D01*
X376451Y351212D01*
X376452Y351218D01*
X376430Y351310D01*
X376410Y351403D01*
X376407Y351408D01*
X376406Y351413D01*
X376303Y351561D01*
X375677Y352187D01*
X375677Y355217D01*
X376303Y355843D01*
X376306Y355848D01*
X376310Y355851D01*
X376362Y355931D01*
X376414Y356010D01*
X376415Y356015D01*
X376418Y356020D01*
X376434Y356114D01*
X376452Y356207D01*
X376451Y356212D01*
X376452Y356218D01*
X376430Y356310D01*
X376410Y356403D01*
X376407Y356408D01*
X376406Y356413D01*
X376303Y356561D01*
X375677Y357187D01*
X375677Y360217D01*
X376303Y360843D01*
X376306Y360848D01*
X376310Y360851D01*
X376362Y360931D01*
X376414Y361010D01*
X376415Y361015D01*
X376418Y361020D01*
X376434Y361114D01*
X376452Y361207D01*
X376451Y361212D01*
X376452Y361218D01*
X376430Y361310D01*
X376410Y361403D01*
X376407Y361408D01*
X376406Y361413D01*
X376303Y361561D01*
X375677Y362187D01*
X375677Y365217D01*
X376303Y365843D01*
X376306Y365848D01*
X376310Y365851D01*
X376362Y365931D01*
X376414Y366010D01*
X376415Y366015D01*
X376418Y366020D01*
X376434Y366114D01*
X376452Y366207D01*
X376451Y366212D01*
X376452Y366218D01*
X376430Y366310D01*
X376410Y366403D01*
X376407Y366408D01*
X376406Y366413D01*
X376303Y366561D01*
X375677Y367187D01*
X375677Y370217D01*
X376303Y370843D01*
X376306Y370848D01*
X376310Y370851D01*
X376362Y370931D01*
X376414Y371010D01*
X376415Y371015D01*
X376418Y371020D01*
X376434Y371114D01*
X376452Y371207D01*
X376451Y371212D01*
X376452Y371218D01*
X376430Y371310D01*
X376410Y371403D01*
X376407Y371408D01*
X376406Y371413D01*
X376303Y371561D01*
X375677Y372187D01*
X375677Y374205D01*
X375676Y374213D01*
X375677Y374221D01*
X375656Y374310D01*
X375638Y374402D01*
X375633Y374408D01*
X375632Y374416D01*
X375529Y374564D01*
X374564Y375529D01*
X374557Y375533D01*
X374553Y375540D01*
X374474Y375588D01*
X374397Y375640D01*
X374389Y375641D01*
X374382Y375645D01*
X374205Y375677D01*
X372187Y375677D01*
X370927Y376937D01*
X370927Y378955D01*
X370926Y378963D01*
X370927Y378971D01*
X370906Y379060D01*
X370888Y379152D01*
X370883Y379158D01*
X370882Y379166D01*
X370779Y379314D01*
X370653Y379439D01*
X370653Y387592D01*
X370652Y387597D01*
X370653Y387602D01*
X370632Y387695D01*
X370614Y387788D01*
X370611Y387793D01*
X370610Y387798D01*
X370554Y387876D01*
X370501Y387954D01*
X370497Y387957D01*
X370494Y387961D01*
X370412Y388012D01*
X370333Y388063D01*
X370328Y388064D01*
X370323Y388067D01*
X370146Y388099D01*
X368251Y388099D01*
X367358Y388992D01*
X367358Y401255D01*
X368251Y402149D01*
X379514Y402149D01*
X380408Y401255D01*
X380408Y388992D01*
X379514Y388099D01*
X377258Y388099D01*
X377253Y388098D01*
X377248Y388099D01*
X377155Y388078D01*
X377061Y388059D01*
X377057Y388057D01*
X377052Y388055D01*
X376974Y388000D01*
X376896Y387947D01*
X376893Y387942D01*
X376889Y387939D01*
X376838Y387858D01*
X376786Y387779D01*
X376786Y387774D01*
X376783Y387769D01*
X376751Y387592D01*
X376751Y382175D01*
X376752Y382167D01*
X376751Y382160D01*
X376772Y382070D01*
X376790Y381978D01*
X376795Y381972D01*
X376797Y381964D01*
X376899Y381816D01*
X380343Y378372D01*
X380348Y378369D01*
X380351Y378365D01*
X380431Y378314D01*
X380510Y378261D01*
X380515Y378260D01*
X380520Y378257D01*
X380614Y378242D01*
X380707Y378224D01*
X380712Y378225D01*
X380718Y378224D01*
X380810Y378246D01*
X380903Y378265D01*
X380908Y378268D01*
X380913Y378269D01*
X381061Y378372D01*
X388156Y385467D01*
X388814Y385467D01*
X388819Y385468D01*
X388825Y385468D01*
X388918Y385488D01*
X389011Y385507D01*
X389015Y385510D01*
X389020Y385511D01*
X389098Y385566D01*
X389177Y385620D01*
X389179Y385624D01*
X389184Y385627D01*
X389234Y385709D01*
X389286Y385788D01*
X389287Y385793D01*
X389290Y385797D01*
X389322Y385975D01*
X389322Y388550D01*
X390215Y389443D01*
X401478Y389443D01*
X401898Y389023D01*
X401905Y389019D01*
X401909Y389013D01*
X401988Y388964D01*
X402065Y388912D01*
X402073Y388911D01*
X402079Y388907D01*
X402257Y388875D01*
X405311Y388875D01*
X405316Y388876D01*
X405321Y388875D01*
X405414Y388896D01*
X405508Y388914D01*
X405512Y388917D01*
X405517Y388918D01*
X405595Y388974D01*
X405673Y389027D01*
X405676Y389031D01*
X405681Y389034D01*
X405731Y389116D01*
X405783Y389195D01*
X405784Y389200D01*
X405786Y389205D01*
X405818Y389382D01*
X405818Y392210D01*
X406711Y393103D01*
X422975Y393103D01*
X423868Y392210D01*
X423868Y377947D01*
X422975Y377054D01*
X416369Y377054D01*
X416361Y377052D01*
X416353Y377054D01*
X416264Y377033D01*
X416172Y377014D01*
X416166Y377010D01*
X416158Y377008D01*
X416010Y376905D01*
X415776Y376671D01*
X415596Y376596D01*
X414371Y376089D01*
X413348Y375665D01*
X401959Y375665D01*
X401951Y375664D01*
X401944Y375665D01*
X401854Y375644D01*
X401763Y375626D01*
X401756Y375621D01*
X401749Y375619D01*
X401601Y375517D01*
X401478Y375394D01*
X390215Y375394D01*
X389322Y376287D01*
X389322Y376785D01*
X389321Y376788D01*
X389322Y376790D01*
X389301Y376885D01*
X389282Y376982D01*
X389280Y376984D01*
X389280Y376987D01*
X389224Y377067D01*
X389169Y377148D01*
X389167Y377149D01*
X389166Y377151D01*
X389082Y377204D01*
X389001Y377257D01*
X388999Y377257D01*
X388996Y377259D01*
X388900Y377275D01*
X388804Y377292D01*
X388801Y377292D01*
X388799Y377292D01*
X388705Y377270D01*
X388608Y377249D01*
X388606Y377247D01*
X388604Y377247D01*
X388456Y377144D01*
X385875Y374564D01*
X385871Y374557D01*
X385865Y374553D01*
X385816Y374474D01*
X385764Y374397D01*
X385763Y374389D01*
X385759Y374382D01*
X385727Y374205D01*
X385727Y372187D01*
X385101Y371561D01*
X385098Y371556D01*
X385094Y371553D01*
X385043Y371473D01*
X384990Y371394D01*
X384989Y371389D01*
X384986Y371384D01*
X384970Y371290D01*
X384952Y371197D01*
X384953Y371192D01*
X384953Y371187D01*
X384974Y371094D01*
X384994Y371001D01*
X384997Y370996D01*
X384998Y370991D01*
X385101Y370843D01*
X385727Y370217D01*
X385727Y367187D01*
X385101Y366561D01*
X385098Y366556D01*
X385094Y366553D01*
X385043Y366473D01*
X384990Y366394D01*
X384989Y366389D01*
X384986Y366384D01*
X384970Y366290D01*
X384952Y366197D01*
X384953Y366192D01*
X384953Y366187D01*
X384974Y366094D01*
X384994Y366001D01*
X384997Y365996D01*
X384998Y365991D01*
X385101Y365843D01*
X385727Y365217D01*
X385727Y362187D01*
X385101Y361561D01*
X385098Y361556D01*
X385094Y361553D01*
X385043Y361473D01*
X384990Y361394D01*
X384989Y361389D01*
X384986Y361384D01*
X384970Y361290D01*
X384952Y361197D01*
X384953Y361192D01*
X384953Y361187D01*
X384974Y361094D01*
X384994Y361001D01*
X384997Y360996D01*
X384998Y360991D01*
X385101Y360843D01*
X385727Y360217D01*
X385727Y358243D01*
X385727Y358240D01*
X385727Y358238D01*
X385747Y358142D01*
X385766Y358046D01*
X385768Y358044D01*
X385768Y358042D01*
X385824Y357961D01*
X385879Y357881D01*
X385881Y357879D01*
X385883Y357877D01*
X385966Y357824D01*
X386047Y357771D01*
X386050Y357771D01*
X386052Y357770D01*
X386148Y357753D01*
X386244Y357736D01*
X386247Y357736D01*
X386250Y357736D01*
X386343Y357758D01*
X386440Y357779D01*
X386442Y357781D01*
X386445Y357782D01*
X386593Y357884D01*
X395662Y366954D01*
X395666Y366960D01*
X395673Y366965D01*
X395722Y367043D01*
X395773Y367121D01*
X395774Y367128D01*
X395779Y367135D01*
X395811Y367312D01*
X395811Y371992D01*
X396704Y372885D01*
X411967Y372885D01*
X412860Y371992D01*
X412860Y366729D01*
X411967Y365835D01*
X403377Y365835D01*
X403369Y365834D01*
X403362Y365835D01*
X403272Y365814D01*
X403181Y365796D01*
X403174Y365791D01*
X403166Y365790D01*
X403018Y365687D01*
X389948Y352617D01*
X389947Y352614D01*
X389945Y352613D01*
X389892Y352532D01*
X389837Y352450D01*
X389837Y352447D01*
X389835Y352445D01*
X389818Y352349D01*
X389800Y352253D01*
X389800Y352250D01*
X389800Y352248D01*
X389821Y352151D01*
X389841Y352057D01*
X389843Y352055D01*
X389843Y352052D01*
X389900Y351972D01*
X389956Y351892D01*
X389958Y351891D01*
X389959Y351889D01*
X390042Y351837D01*
X390125Y351785D01*
X390127Y351784D01*
X390130Y351783D01*
X390307Y351751D01*
X396781Y351751D01*
X399498Y349034D01*
X399505Y349029D01*
X399509Y349023D01*
X399588Y348974D01*
X399665Y348923D01*
X399673Y348921D01*
X399679Y348917D01*
X399857Y348885D01*
X411967Y348885D01*
X412860Y347992D01*
X412860Y346006D01*
X412860Y346004D01*
X412860Y346001D01*
X412880Y345906D01*
X412900Y345810D01*
X412901Y345807D01*
X412902Y345805D01*
X412958Y345724D01*
X413012Y345644D01*
X413014Y345642D01*
X413016Y345640D01*
X413100Y345587D01*
X413180Y345535D01*
X413183Y345534D01*
X413185Y345533D01*
X413282Y345516D01*
X413378Y345499D01*
X413380Y345500D01*
X413383Y345499D01*
X413476Y345521D01*
X413573Y345543D01*
X413575Y345544D01*
X413578Y345545D01*
X413726Y345647D01*
X422738Y354659D01*
X422742Y354666D01*
X422749Y354671D01*
X422798Y354749D01*
X422849Y354826D01*
X422850Y354834D01*
X422854Y354841D01*
X422886Y355018D01*
X422886Y358001D01*
X425995Y361110D01*
X428978Y361110D01*
X428986Y361111D01*
X428994Y361110D01*
X429084Y361131D01*
X429175Y361150D01*
X429181Y361154D01*
X429189Y361156D01*
X429337Y361258D01*
X431428Y363350D01*
X431433Y363356D01*
X431439Y363361D01*
X431488Y363440D01*
X431539Y363517D01*
X431541Y363524D01*
X431545Y363531D01*
X431577Y363708D01*
X431577Y366320D01*
X433934Y368678D01*
X437424Y368678D01*
X437429Y368679D01*
X437434Y368678D01*
X437528Y368699D01*
X437621Y368717D01*
X437625Y368720D01*
X437630Y368722D01*
X437708Y368777D01*
X437786Y368830D01*
X437789Y368835D01*
X437794Y368838D01*
X437844Y368919D01*
X437896Y368998D01*
X437897Y369003D01*
X437899Y369008D01*
X437931Y369185D01*
X437931Y370879D01*
X437930Y370884D01*
X437931Y370889D01*
X437911Y370982D01*
X437892Y371075D01*
X437889Y371079D01*
X437888Y371085D01*
X437832Y371162D01*
X437779Y371241D01*
X437775Y371244D01*
X437772Y371248D01*
X437690Y371299D01*
X437611Y371350D01*
X437606Y371351D01*
X437601Y371354D01*
X437424Y371386D01*
X435349Y371386D01*
X434455Y372279D01*
X434455Y384542D01*
X435349Y385435D01*
X446612Y385435D01*
X447505Y384542D01*
X447505Y372279D01*
X446612Y371386D01*
X444536Y371386D01*
X444531Y371385D01*
X444526Y371386D01*
X444433Y371365D01*
X444340Y371346D01*
X444335Y371343D01*
X444330Y371342D01*
X444252Y371287D01*
X444174Y371234D01*
X444171Y371229D01*
X444167Y371226D01*
X444116Y371145D01*
X444065Y371066D01*
X444064Y371060D01*
X444061Y371056D01*
X444029Y370879D01*
X444029Y369185D01*
X444030Y369180D01*
X444029Y369175D01*
X444050Y369082D01*
X444068Y368989D01*
X444071Y368984D01*
X444073Y368979D01*
X444128Y368901D01*
X444181Y368823D01*
X444185Y368820D01*
X444189Y368816D01*
X444270Y368765D01*
X444349Y368714D01*
X444354Y368713D01*
X444359Y368710D01*
X444536Y368678D01*
X448269Y368678D01*
X450626Y366320D01*
X450626Y357986D01*
X448269Y355628D01*
X434007Y355628D01*
X434002Y355627D01*
X433997Y355628D01*
X433904Y355608D01*
X433811Y355589D01*
X433806Y355586D01*
X433801Y355585D01*
X433723Y355530D01*
X433645Y355476D01*
X433642Y355472D01*
X433638Y355469D01*
X433587Y355387D01*
X433536Y355308D01*
X433535Y355303D01*
X433532Y355299D01*
X433500Y355121D01*
X433500Y353605D01*
X430391Y350496D01*
X427408Y350496D01*
X427400Y350495D01*
X427393Y350496D01*
X427303Y350475D01*
X427212Y350457D01*
X427205Y350452D01*
X427197Y350451D01*
X427049Y350348D01*
X411473Y334771D01*
X405916Y334771D01*
X405913Y334771D01*
X405911Y334771D01*
X405816Y334751D01*
X405719Y334732D01*
X405717Y334730D01*
X405715Y334730D01*
X405634Y334674D01*
X405553Y334619D01*
X405552Y334617D01*
X405550Y334615D01*
X405497Y334532D01*
X405444Y334451D01*
X405444Y334448D01*
X405442Y334446D01*
X405426Y334350D01*
X405409Y334254D01*
X405409Y334251D01*
X405409Y334249D01*
X405431Y334155D01*
X405452Y334058D01*
X405454Y334056D01*
X405454Y334053D01*
X405557Y333905D01*
X407930Y331532D01*
X407930Y328549D01*
X407932Y328541D01*
X407931Y328533D01*
X407952Y328444D01*
X407970Y328352D01*
X407974Y328346D01*
X407976Y328338D01*
X408079Y328190D01*
X410422Y325847D01*
X410429Y325843D01*
X410433Y325836D01*
X410512Y325788D01*
X410589Y325736D01*
X410597Y325735D01*
X410603Y325731D01*
X410781Y325699D01*
X416375Y325699D01*
X417268Y324805D01*
X417268Y324793D01*
X417269Y324791D01*
X417268Y324788D01*
X417289Y324693D01*
X417308Y324597D01*
X417310Y324595D01*
X417310Y324592D01*
X417366Y324511D01*
X417421Y324431D01*
X417423Y324430D01*
X417424Y324427D01*
X417508Y324374D01*
X417589Y324322D01*
X417591Y324321D01*
X417594Y324320D01*
X417690Y324303D01*
X417786Y324286D01*
X417789Y324287D01*
X417791Y324286D01*
X417885Y324308D01*
X417982Y324330D01*
X417984Y324331D01*
X417986Y324332D01*
X418134Y324435D01*
X420349Y326650D01*
X420352Y326654D01*
X420357Y326657D01*
X420408Y326737D01*
X420460Y326817D01*
X420461Y326822D01*
X420464Y326826D01*
X420480Y326920D01*
X420498Y327014D01*
X420497Y327019D01*
X420498Y327024D01*
X420476Y327117D01*
X420456Y327210D01*
X420453Y327214D01*
X420452Y327219D01*
X420349Y327367D01*
X418887Y328829D01*
X418887Y330092D01*
X426852Y338056D01*
X428115Y338056D01*
X436786Y329385D01*
X436786Y328817D01*
X436796Y328769D01*
X436795Y328721D01*
X436815Y328672D01*
X436826Y328621D01*
X436853Y328580D01*
X436872Y328535D01*
X436909Y328498D01*
X436938Y328455D01*
X436979Y328429D01*
X437014Y328394D01*
X437063Y328374D01*
X437106Y328346D01*
X437154Y328337D01*
X437200Y328319D01*
X437258Y328318D01*
X437304Y328310D01*
X437338Y328318D01*
X437380Y328318D01*
X437559Y328349D01*
X437625Y328374D01*
X437693Y328392D01*
X437720Y328411D01*
X437746Y328421D01*
X437783Y328457D01*
X437839Y328498D01*
X439475Y330206D01*
X439512Y330266D01*
X439557Y330321D01*
X439567Y330352D01*
X439582Y330376D01*
X439590Y330427D01*
X439611Y330493D01*
X439612Y330498D01*
X440126Y330895D01*
X440148Y330921D01*
X440182Y330945D01*
X440631Y331414D01*
X440636Y331414D01*
X440705Y331430D01*
X440775Y331437D01*
X440804Y331452D01*
X440832Y331458D01*
X440874Y331488D01*
X440935Y331520D01*
X442807Y332966D01*
X442853Y333019D01*
X442906Y333067D01*
X442920Y333096D01*
X442938Y333117D01*
X442954Y333166D01*
X442985Y333228D01*
X442986Y333234D01*
X443553Y333549D01*
X443580Y333572D01*
X443617Y333591D01*
X444130Y333988D01*
X444136Y333987D01*
X444206Y333992D01*
X444277Y333989D01*
X444308Y333999D01*
X444336Y334001D01*
X444382Y334025D01*
X444447Y334047D01*
X446514Y335198D01*
X446567Y335244D01*
X446626Y335283D01*
X446645Y335310D01*
X446666Y335328D01*
X446689Y335374D01*
X446729Y335431D01*
X446731Y335436D01*
X447338Y335664D01*
X447368Y335682D01*
X447407Y335695D01*
X447974Y336011D01*
X447980Y336010D01*
X448050Y336004D01*
X448119Y335990D01*
X448151Y335996D01*
X448179Y335994D01*
X448228Y336010D01*
X448296Y336023D01*
X450511Y336852D01*
X450571Y336890D01*
X450635Y336920D01*
X450658Y336944D01*
X450681Y336958D01*
X450711Y337001D01*
X450759Y337051D01*
X450762Y337056D01*
X451396Y337190D01*
X451428Y337204D01*
X451469Y337211D01*
X452077Y337439D01*
X452082Y337437D01*
X452151Y337421D01*
X452217Y337397D01*
X452250Y337398D01*
X452277Y337391D01*
X452328Y337400D01*
X452397Y337402D01*
X454711Y337893D01*
X454776Y337921D01*
X454844Y337941D01*
X454869Y337961D01*
X454895Y337972D01*
X454931Y338009D01*
X454985Y338052D01*
X454989Y338056D01*
X455637Y338095D01*
X455670Y338104D01*
X455712Y338105D01*
X456347Y338239D01*
X456351Y338236D01*
X456417Y338210D01*
X456479Y338177D01*
X456511Y338173D01*
X456537Y338163D01*
X456589Y338164D01*
X456658Y338155D01*
X459019Y338295D01*
X459087Y338313D01*
X459157Y338323D01*
X459186Y338339D01*
X459213Y338347D01*
X459254Y338378D01*
X459314Y338412D01*
X459318Y338416D01*
X459964Y338357D01*
X459999Y338361D01*
X460040Y338356D01*
X460688Y338395D01*
X460692Y338391D01*
X460753Y338355D01*
X460809Y338313D01*
X460841Y338304D01*
X460865Y338290D01*
X460916Y338283D01*
X460983Y338265D01*
X463339Y338052D01*
X463409Y338059D01*
X463479Y338059D01*
X463510Y338070D01*
X463538Y338073D01*
X463583Y338098D01*
X463648Y338123D01*
X463652Y338126D01*
X464283Y337972D01*
X464317Y337970D01*
X464357Y337959D01*
X465004Y337901D01*
X465007Y337897D01*
X465062Y337852D01*
X465112Y337802D01*
X465142Y337789D01*
X465163Y337771D01*
X465213Y337757D01*
X465276Y337729D01*
X466578Y337410D01*
X466664Y337407D01*
X466751Y337399D01*
X466764Y337403D01*
X466778Y337402D01*
X466859Y337432D01*
X466942Y337458D01*
X466953Y337467D01*
X466966Y337472D01*
X467029Y337532D01*
X467095Y337588D01*
X467102Y337601D01*
X467112Y337609D01*
X467134Y337660D01*
X467181Y337746D01*
X478900Y373825D01*
X480311Y373241D01*
X480339Y373235D01*
X480365Y373222D01*
X480436Y373216D01*
X480506Y373203D01*
X480534Y373209D01*
X480563Y373206D01*
X480631Y373229D01*
X480701Y373244D01*
X480724Y373260D01*
X480752Y373270D01*
X480805Y373317D01*
X480864Y373358D01*
X480879Y373382D01*
X480901Y373401D01*
X480947Y373491D01*
X480969Y373527D01*
X480971Y373537D01*
X480977Y373549D01*
X486777Y391549D01*
X486780Y391577D01*
X486792Y391604D01*
X486791Y391675D01*
X486799Y391747D01*
X486791Y391774D01*
X486791Y391803D01*
X486763Y391869D01*
X486742Y391937D01*
X486724Y391959D01*
X486713Y391986D01*
X486643Y392058D01*
X486616Y392090D01*
X486606Y392095D01*
X486597Y392105D01*
X471297Y403305D01*
X471270Y403317D01*
X471248Y403336D01*
X471181Y403358D01*
X471116Y403388D01*
X471087Y403389D01*
X471059Y403398D01*
X470989Y403392D01*
X470918Y403394D01*
X470890Y403384D01*
X470861Y403381D01*
X470798Y403348D01*
X470732Y403322D01*
X470711Y403302D01*
X470686Y403288D01*
X470620Y403213D01*
X470590Y403183D01*
X470585Y403173D01*
X470576Y403163D01*
X469767Y401842D01*
X439103Y424123D01*
X439024Y424159D01*
X438947Y424200D01*
X438933Y424201D01*
X438921Y424207D01*
X438834Y424209D01*
X438747Y424217D01*
X438734Y424213D01*
X438720Y424213D01*
X438639Y424182D01*
X438556Y424155D01*
X438545Y424146D01*
X438533Y424141D01*
X438493Y424103D01*
X438417Y424041D01*
X437579Y423050D01*
X437545Y422989D01*
X437504Y422931D01*
X437496Y422899D01*
X437483Y422875D01*
X437477Y422824D01*
X437460Y422756D01*
X437460Y422751D01*
X436972Y422324D01*
X436951Y422296D01*
X436919Y422270D01*
X436499Y421774D01*
X436494Y421774D01*
X436426Y421754D01*
X436356Y421743D01*
X436328Y421726D01*
X436301Y421718D01*
X436261Y421686D01*
X436202Y421650D01*
X434420Y420091D01*
X434377Y420035D01*
X434328Y419984D01*
X434315Y419954D01*
X434298Y419931D01*
X434285Y419882D01*
X434258Y419818D01*
X434257Y419812D01*
X433711Y419463D01*
X433686Y419438D01*
X433650Y419417D01*
X433162Y418990D01*
X433156Y418990D01*
X433086Y418981D01*
X433015Y418980D01*
X432985Y418967D01*
X432957Y418964D01*
X432913Y418938D01*
X432849Y418911D01*
X430854Y417635D01*
X430811Y417593D01*
X430778Y417571D01*
X430773Y417562D01*
X430747Y417543D01*
X430730Y417515D01*
X430710Y417496D01*
X430690Y417448D01*
X430654Y417389D01*
X430652Y417384D01*
X430059Y417120D01*
X430031Y417099D01*
X429993Y417084D01*
X429446Y416734D01*
X429441Y416735D01*
X429370Y416736D01*
X429300Y416746D01*
X429268Y416738D01*
X429240Y416738D01*
X429192Y416719D01*
X429125Y416703D01*
X426962Y415738D01*
X426905Y415697D01*
X426843Y415663D01*
X426822Y415638D01*
X426799Y415622D01*
X426772Y415578D01*
X426728Y415525D01*
X426725Y415520D01*
X426100Y415347D01*
X426069Y415331D01*
X426028Y415321D01*
X425436Y415057D01*
X425431Y415059D01*
X425361Y415070D01*
X425293Y415090D01*
X425261Y415087D01*
X425233Y415092D01*
X425183Y415080D01*
X425114Y415074D01*
X422832Y414442D01*
X422769Y414410D01*
X422702Y414386D01*
X422678Y414364D01*
X422653Y414352D01*
X422619Y414312D01*
X422568Y414266D01*
X422564Y414262D01*
X421920Y414184D01*
X421887Y414173D01*
X421846Y414169D01*
X421220Y413996D01*
X421215Y413999D01*
X421149Y414021D01*
X421084Y414051D01*
X421052Y414053D01*
X421025Y414061D01*
X420974Y414057D01*
X420905Y414061D01*
X418554Y413777D01*
X418487Y413755D01*
X418417Y413740D01*
X418390Y413723D01*
X418363Y413714D01*
X418324Y413680D01*
X418266Y413642D01*
X418262Y413638D01*
X417614Y413657D01*
X417579Y413651D01*
X417538Y413654D01*
X416894Y413576D01*
X416890Y413579D01*
X416827Y413611D01*
X416768Y413650D01*
X416736Y413657D01*
X416711Y413669D01*
X416659Y413673D01*
X416591Y413687D01*
X414224Y413756D01*
X414155Y413744D01*
X414084Y413741D01*
X414054Y413727D01*
X414027Y413722D01*
X413983Y413695D01*
X413920Y413666D01*
X413916Y413663D01*
X413277Y413778D01*
X413242Y413777D01*
X413202Y413786D01*
X412553Y413805D01*
X412549Y413809D01*
X412492Y413850D01*
X412439Y413897D01*
X412409Y413908D01*
X412386Y413925D01*
X412335Y413936D01*
X412271Y413960D01*
X409940Y414381D01*
X409870Y414380D01*
X409799Y414387D01*
X409768Y414378D01*
X409740Y414377D01*
X409693Y414356D01*
X409626Y414337D01*
X409621Y414335D01*
X409007Y414544D01*
X408972Y414549D01*
X408934Y414563D01*
X408295Y414678D01*
X408292Y414683D01*
X408241Y414732D01*
X408196Y414786D01*
X408168Y414802D01*
X408147Y414822D01*
X408099Y414840D01*
X408039Y414874D01*
X405797Y415638D01*
X405727Y415647D01*
X405659Y415664D01*
X405626Y415660D01*
X405598Y415664D01*
X405549Y415650D01*
X405480Y415641D01*
X405475Y415639D01*
X404899Y415938D01*
X404865Y415947D01*
X404829Y415968D01*
X404215Y416177D01*
X404212Y416182D01*
X404169Y416238D01*
X404133Y416298D01*
X404107Y416318D01*
X404090Y416341D01*
X404045Y416366D01*
X403990Y416408D01*
X401888Y417498D01*
X401820Y417517D01*
X401755Y417544D01*
X401722Y417545D01*
X401695Y417553D01*
X401644Y417547D01*
X401575Y417548D01*
X401569Y417547D01*
X401044Y417928D01*
X401012Y417943D01*
X400979Y417968D01*
X400403Y418267D01*
X400402Y418272D01*
X400367Y418333D01*
X400341Y418399D01*
X400318Y418423D01*
X400304Y418447D01*
X400264Y418479D01*
X400216Y418529D01*
X398299Y419919D01*
X398235Y419949D01*
X398175Y419986D01*
X398142Y419991D01*
X398117Y420003D01*
X398065Y420004D01*
X397997Y420016D01*
X397991Y420016D01*
X397529Y420471D01*
X397500Y420490D01*
X397471Y420520D01*
X396946Y420901D01*
X396945Y420906D01*
X396920Y420973D01*
X396904Y421041D01*
X396885Y421068D01*
X396875Y421094D01*
X396840Y421132D01*
X396800Y421188D01*
X395111Y422849D01*
X395052Y422888D01*
X394998Y422933D01*
X394967Y422943D01*
X394944Y422959D01*
X394893Y422968D01*
X394827Y422990D01*
X394822Y422990D01*
X394432Y423509D01*
X394406Y423532D01*
X394382Y423566D01*
X393920Y424022D01*
X393919Y424027D01*
X393905Y424096D01*
X393899Y424166D01*
X393884Y424196D01*
X393878Y424223D01*
X393849Y424265D01*
X393818Y424327D01*
X393509Y424739D01*
X393476Y424768D01*
X393451Y424803D01*
X393402Y424834D01*
X393360Y424872D01*
X393318Y424886D01*
X393281Y424909D01*
X393217Y424921D01*
X393170Y424937D01*
X393139Y424935D01*
X393104Y424941D01*
X367378Y424941D01*
X367376Y424941D01*
X367373Y424941D01*
X367278Y424921D01*
X367182Y424902D01*
X367179Y424900D01*
X367177Y424900D01*
X367096Y424844D01*
X367016Y424789D01*
X367014Y424787D01*
X367012Y424785D01*
X366959Y424702D01*
X366907Y424621D01*
X366906Y424618D01*
X366905Y424616D01*
X366888Y424520D01*
X366871Y424424D01*
X366872Y424421D01*
X366871Y424419D01*
X366893Y424324D01*
X366915Y424228D01*
X366916Y424226D01*
X366917Y424223D01*
X367019Y424075D01*
X368527Y422568D01*
X368527Y418172D01*
X366417Y416062D01*
X366413Y416056D01*
X366407Y416051D01*
X366358Y415973D01*
X366306Y415895D01*
X366305Y415888D01*
X366301Y415881D01*
X366269Y415704D01*
X366269Y404829D01*
X359273Y397833D01*
X359269Y397827D01*
X359262Y397822D01*
X359214Y397743D01*
X359162Y397666D01*
X359161Y397659D01*
X359157Y397652D01*
X359125Y397475D01*
X359125Y389340D01*
X358231Y388447D01*
X357258Y388447D01*
X357253Y388446D01*
X357248Y388447D01*
X357155Y388426D01*
X357061Y388407D01*
X357057Y388404D01*
X357052Y388403D01*
X356974Y388348D01*
X356896Y388295D01*
X356893Y388290D01*
X356889Y388287D01*
X356838Y388206D01*
X356786Y388126D01*
X356786Y388121D01*
X356783Y388117D01*
X356751Y387940D01*
X356751Y386234D01*
X356752Y386229D01*
X356751Y386224D01*
X356772Y386131D01*
X356790Y386038D01*
X356793Y386033D01*
X356794Y386028D01*
X356850Y385950D01*
X356903Y385872D01*
X356907Y385869D01*
X356910Y385865D01*
X356992Y385814D01*
X357071Y385763D01*
X357076Y385762D01*
X357081Y385759D01*
X357258Y385727D01*
X360217Y385727D01*
X360843Y385101D01*
X360848Y385098D01*
X360851Y385094D01*
X360931Y385043D01*
X361010Y384990D01*
X361015Y384989D01*
X361020Y384986D01*
X361114Y384970D01*
X361207Y384952D01*
X361212Y384953D01*
X361217Y384953D01*
X361310Y384974D01*
X361403Y384994D01*
X361408Y384997D01*
X361413Y384998D01*
X361561Y385101D01*
X362187Y385727D01*
X365217Y385727D01*
X366477Y384468D01*
X366477Y376937D01*
X365217Y375677D01*
X362187Y375677D01*
X361561Y376303D01*
X361556Y376306D01*
X361553Y376310D01*
X361473Y376362D01*
X361394Y376414D01*
X361389Y376415D01*
X361384Y376418D01*
X361290Y376434D01*
X361197Y376452D01*
X361192Y376451D01*
X361186Y376452D01*
X361094Y376430D01*
X361001Y376410D01*
X360996Y376407D01*
X360991Y376406D01*
X360843Y376303D01*
X360217Y375677D01*
X357187Y375677D01*
X356561Y376303D01*
X356556Y376306D01*
X356553Y376310D01*
X356473Y376361D01*
X356394Y376414D01*
X356389Y376415D01*
X356384Y376418D01*
X356290Y376434D01*
X356197Y376452D01*
X356192Y376451D01*
X356187Y376452D01*
X356094Y376430D01*
X356001Y376410D01*
X355996Y376407D01*
X355991Y376406D01*
X355843Y376303D01*
X355217Y375677D01*
X352187Y375677D01*
X350927Y376937D01*
X350927Y378955D01*
X350926Y378963D01*
X350927Y378971D01*
X350906Y379060D01*
X350888Y379152D01*
X350883Y379158D01*
X350882Y379166D01*
X350779Y379314D01*
X350653Y379439D01*
X350653Y387940D01*
X350652Y387945D01*
X350653Y387950D01*
X350632Y388043D01*
X350614Y388136D01*
X350611Y388140D01*
X350610Y388145D01*
X350554Y388223D01*
X350501Y388302D01*
X350497Y388305D01*
X350494Y388309D01*
X350412Y388360D01*
X350333Y388411D01*
X350328Y388412D01*
X350323Y388415D01*
X350146Y388447D01*
X345968Y388447D01*
X345075Y389340D01*
X345075Y400603D01*
X345968Y401496D01*
X354103Y401496D01*
X354111Y401498D01*
X354118Y401496D01*
X354208Y401517D01*
X354299Y401536D01*
X354306Y401540D01*
X354314Y401542D01*
X354462Y401645D01*
X360023Y407206D01*
X360027Y407212D01*
X360033Y407217D01*
X360082Y407296D01*
X360134Y407373D01*
X360135Y407381D01*
X360139Y407387D01*
X360171Y407565D01*
X360171Y415704D01*
X360170Y415712D01*
X360171Y415719D01*
X360150Y415809D01*
X360132Y415900D01*
X360127Y415907D01*
X360125Y415914D01*
X360023Y416062D01*
X357913Y418172D01*
X357913Y422568D01*
X359421Y424075D01*
X359422Y424078D01*
X359424Y424079D01*
X359477Y424160D01*
X359531Y424242D01*
X359532Y424245D01*
X359533Y424247D01*
X359551Y424343D01*
X359569Y424439D01*
X359569Y424442D01*
X359569Y424444D01*
X359548Y424541D01*
X359527Y424635D01*
X359526Y424637D01*
X359525Y424640D01*
X359469Y424720D01*
X359413Y424800D01*
X359411Y424801D01*
X359409Y424803D01*
X359325Y424856D01*
X359244Y424907D01*
X359241Y424908D01*
X359239Y424909D01*
X359062Y424941D01*
X354533Y424941D01*
X354525Y424940D01*
X354517Y424941D01*
X354428Y424920D01*
X354336Y424902D01*
X354330Y424897D01*
X354322Y424895D01*
X354174Y424793D01*
X336899Y407518D01*
X336895Y407511D01*
X336889Y407507D01*
X336840Y407428D01*
X336788Y407351D01*
X336787Y407343D01*
X336783Y407336D01*
X336751Y407159D01*
X336751Y379439D01*
X336625Y379314D01*
X336621Y379307D01*
X336614Y379303D01*
X336565Y379224D01*
X336514Y379147D01*
X336513Y379139D01*
X336509Y379132D01*
X336477Y378955D01*
X336477Y376937D01*
X335217Y375677D01*
X332187Y375677D01*
X331561Y376303D01*
X331556Y376306D01*
X331553Y376310D01*
X331473Y376362D01*
X331394Y376414D01*
X331389Y376415D01*
X331384Y376418D01*
X331290Y376434D01*
X331197Y376452D01*
X331192Y376451D01*
X331186Y376452D01*
X331094Y376430D01*
X331001Y376410D01*
X330996Y376407D01*
X330991Y376406D01*
X330843Y376303D01*
X330217Y375677D01*
X327187Y375677D01*
X326561Y376303D01*
X326556Y376306D01*
X326553Y376310D01*
X326473Y376362D01*
X326394Y376414D01*
X326389Y376415D01*
X326384Y376418D01*
X326290Y376434D01*
X326197Y376452D01*
X326192Y376451D01*
X326186Y376452D01*
X326094Y376430D01*
X326001Y376410D01*
X325996Y376407D01*
X325991Y376406D01*
X325843Y376303D01*
X325217Y375677D01*
X322187Y375677D01*
X321561Y376303D01*
X321556Y376306D01*
X321553Y376310D01*
X321473Y376362D01*
X321394Y376414D01*
X321389Y376415D01*
X321384Y376418D01*
X321290Y376434D01*
X321197Y376452D01*
X321192Y376451D01*
X321186Y376452D01*
X321094Y376430D01*
X321001Y376410D01*
X320996Y376407D01*
X320991Y376406D01*
X320843Y376303D01*
X320217Y375677D01*
X317234Y375677D01*
X317229Y375676D01*
X317224Y375677D01*
X317131Y375656D01*
X317037Y375638D01*
X317033Y375635D01*
X317028Y375634D01*
X316950Y375578D01*
X316872Y375525D01*
X316869Y375521D01*
X316864Y375518D01*
X316814Y375436D01*
X316762Y375357D01*
X316761Y375352D01*
X316759Y375347D01*
X316727Y375170D01*
X316727Y372187D01*
X315467Y370927D01*
X313449Y370927D01*
X313441Y370926D01*
X313433Y370927D01*
X313344Y370906D01*
X313252Y370888D01*
X313246Y370883D01*
X313238Y370881D01*
X313090Y370779D01*
X312965Y370653D01*
X310439Y370653D01*
X310314Y370779D01*
X310307Y370783D01*
X310303Y370790D01*
X310223Y370839D01*
X310147Y370890D01*
X310139Y370891D01*
X310132Y370895D01*
X309955Y370927D01*
X307936Y370927D01*
X306677Y372187D01*
X306677Y375186D01*
X306676Y375191D01*
X306677Y375196D01*
X306656Y375289D01*
X306638Y375383D01*
X306635Y375387D01*
X306634Y375392D01*
X306578Y375470D01*
X306525Y375548D01*
X306521Y375551D01*
X306518Y375555D01*
X306436Y375606D01*
X306357Y375658D01*
X306352Y375658D01*
X306347Y375661D01*
X306170Y375693D01*
X305142Y375693D01*
X302033Y378802D01*
X302033Y381013D01*
X302032Y381018D01*
X302033Y381023D01*
X302012Y381117D01*
X301994Y381210D01*
X301991Y381214D01*
X301990Y381219D01*
X301934Y381297D01*
X301881Y381375D01*
X301877Y381378D01*
X301874Y381383D01*
X301792Y381433D01*
X301713Y381485D01*
X301708Y381486D01*
X301703Y381488D01*
X301526Y381520D01*
X301274Y381520D01*
X300381Y382414D01*
X300381Y394677D01*
X301274Y395570D01*
X312537Y395570D01*
X313430Y394677D01*
X313430Y382414D01*
X312795Y381779D01*
X312791Y381772D01*
X312785Y381767D01*
X312736Y381689D01*
X312684Y381612D01*
X312683Y381604D01*
X312679Y381597D01*
X312647Y381420D01*
X312647Y380215D01*
X312648Y380207D01*
X312647Y380199D01*
X312668Y380110D01*
X312686Y380018D01*
X312691Y380012D01*
X312693Y380004D01*
X312795Y379856D01*
X314751Y377901D01*
X314751Y376984D01*
X314752Y376979D01*
X314751Y376974D01*
X314772Y376881D01*
X314790Y376787D01*
X314793Y376783D01*
X314794Y376778D01*
X314850Y376700D01*
X314903Y376622D01*
X314907Y376619D01*
X314910Y376614D01*
X314992Y376564D01*
X315071Y376512D01*
X315076Y376511D01*
X315081Y376509D01*
X315258Y376477D01*
X315420Y376477D01*
X315425Y376478D01*
X315430Y376477D01*
X315523Y376498D01*
X315617Y376516D01*
X315621Y376519D01*
X315626Y376520D01*
X315704Y376576D01*
X315782Y376629D01*
X315785Y376633D01*
X315790Y376636D01*
X315840Y376718D01*
X315892Y376797D01*
X315893Y376802D01*
X315895Y376807D01*
X315927Y376984D01*
X315927Y379314D01*
X315926Y379322D01*
X315927Y379330D01*
X315907Y379415D01*
X315907Y410030D01*
X336147Y430269D01*
X336151Y430276D01*
X336157Y430280D01*
X336206Y430359D01*
X336258Y430436D01*
X336259Y430444D01*
X336263Y430450D01*
X336295Y430628D01*
X336295Y443766D01*
X336294Y443771D01*
X336295Y443776D01*
X336274Y443869D01*
X336256Y443963D01*
X336253Y443967D01*
X336252Y443972D01*
X336196Y444050D01*
X336143Y444128D01*
X336139Y444131D01*
X336136Y444135D01*
X336054Y444186D01*
X335975Y444238D01*
X335970Y444238D01*
X335965Y444241D01*
X335788Y444273D01*
X333082Y444273D01*
X329973Y447382D01*
X329973Y449647D01*
X329972Y449654D01*
X329973Y449662D01*
X329952Y449752D01*
X329934Y449843D01*
X329929Y449850D01*
X329927Y449857D01*
X329825Y450005D01*
X327525Y452305D01*
X327519Y452309D01*
X327514Y452316D01*
X327436Y452364D01*
X327358Y452416D01*
X327351Y452417D01*
X327344Y452421D01*
X327167Y452453D01*
X314905Y452453D01*
X312547Y454811D01*
X312547Y463145D01*
X314905Y465503D01*
X329239Y465503D01*
X331597Y463145D01*
X331597Y458503D01*
X331598Y458496D01*
X331597Y458488D01*
X331618Y458398D01*
X331636Y458307D01*
X331641Y458300D01*
X331643Y458293D01*
X331745Y458145D01*
X334855Y455035D01*
X334861Y455031D01*
X334866Y455025D01*
X334944Y454976D01*
X335022Y454924D01*
X335029Y454923D01*
X335036Y454919D01*
X335213Y454887D01*
X337478Y454887D01*
X340587Y451778D01*
X340587Y448436D01*
X340588Y448428D01*
X340587Y448420D01*
X340608Y448330D01*
X340626Y448239D01*
X340631Y448233D01*
X340633Y448225D01*
X340735Y448077D01*
X341885Y446928D01*
X341885Y430087D01*
X341885Y430084D01*
X341885Y430082D01*
X341905Y429987D01*
X341924Y429890D01*
X341926Y429888D01*
X341926Y429885D01*
X341982Y429805D01*
X342037Y429724D01*
X342039Y429723D01*
X342041Y429721D01*
X342124Y429668D01*
X342205Y429615D01*
X342208Y429615D01*
X342210Y429613D01*
X342306Y429597D01*
X342402Y429580D01*
X342405Y429580D01*
X342407Y429580D01*
X342501Y429602D01*
X342598Y429623D01*
X342600Y429625D01*
X342603Y429625D01*
X342751Y429728D01*
X351681Y438659D01*
X358272Y438659D01*
X358274Y438659D01*
X358277Y438659D01*
X358372Y438679D01*
X358468Y438698D01*
X358471Y438700D01*
X358473Y438700D01*
X358554Y438756D01*
X358634Y438811D01*
X358636Y438813D01*
X358638Y438815D01*
X358691Y438898D01*
X358743Y438979D01*
X358744Y438982D01*
X358745Y438984D01*
X358762Y439080D01*
X358779Y439176D01*
X358778Y439179D01*
X358779Y439181D01*
X358757Y439276D01*
X358735Y439372D01*
X358734Y439374D01*
X358733Y439377D01*
X358631Y439525D01*
X357913Y440242D01*
X357913Y444638D01*
X358246Y444971D01*
X358249Y444975D01*
X358253Y444978D01*
X358304Y445059D01*
X358357Y445138D01*
X358358Y445143D01*
X358361Y445147D01*
X358377Y445241D01*
X358395Y445335D01*
X358393Y445340D01*
X358394Y445345D01*
X358373Y445438D01*
X358353Y445531D01*
X358350Y445535D01*
X358349Y445540D01*
X358246Y445688D01*
X355981Y447953D01*
X355981Y456287D01*
X358339Y458645D01*
X372673Y458645D01*
X375031Y456287D01*
X375031Y447953D01*
X372673Y445595D01*
X368794Y445595D01*
X368792Y445595D01*
X368789Y445595D01*
X368695Y445575D01*
X368598Y445556D01*
X368595Y445554D01*
X368593Y445554D01*
X368513Y445498D01*
X368432Y445443D01*
X368430Y445441D01*
X368428Y445439D01*
X368375Y445355D01*
X368323Y445275D01*
X368322Y445272D01*
X368321Y445270D01*
X368304Y445174D01*
X368287Y445078D01*
X368288Y445075D01*
X368287Y445073D01*
X368309Y444980D01*
X368331Y444882D01*
X368332Y444880D01*
X368333Y444877D01*
X368435Y444729D01*
X368527Y444638D01*
X368527Y440242D01*
X367809Y439525D01*
X367808Y439522D01*
X367806Y439521D01*
X367754Y439441D01*
X367699Y439358D01*
X367698Y439355D01*
X367697Y439353D01*
X367679Y439257D01*
X367661Y439161D01*
X367661Y439158D01*
X367661Y439156D01*
X367682Y439059D01*
X367703Y438965D01*
X367704Y438963D01*
X367705Y438960D01*
X367761Y438880D01*
X367817Y438800D01*
X367819Y438799D01*
X367821Y438797D01*
X367904Y438745D01*
X367986Y438693D01*
X367989Y438692D01*
X367991Y438691D01*
X368168Y438659D01*
X376334Y438659D01*
X376342Y438660D01*
X376349Y438659D01*
X376439Y438680D01*
X376530Y438698D01*
X376537Y438703D01*
X376544Y438705D01*
X376692Y438807D01*
X378802Y440917D01*
X383198Y440917D01*
X386307Y437808D01*
X386307Y433412D01*
X384799Y431905D01*
X384798Y431902D01*
X384796Y431901D01*
X384743Y431820D01*
X384689Y431738D01*
X384688Y431735D01*
X384687Y431733D01*
X384669Y431636D01*
X384651Y431541D01*
X384651Y431538D01*
X384651Y431536D01*
X384672Y431439D01*
X384693Y431345D01*
X384694Y431343D01*
X384695Y431340D01*
X384751Y431260D01*
X384807Y431180D01*
X384809Y431179D01*
X384811Y431177D01*
X384895Y431124D01*
X384976Y431073D01*
X384979Y431072D01*
X384981Y431071D01*
X385158Y431039D01*
X388925Y431039D01*
X388957Y431045D01*
X388989Y431043D01*
X389054Y431065D01*
X389121Y431078D01*
X389148Y431097D01*
X389179Y431107D01*
X389230Y431152D01*
X389287Y431191D01*
X389305Y431218D01*
X389329Y431240D01*
X389366Y431313D01*
X389397Y431359D01*
X389400Y431379D01*
X389401Y431380D01*
X389401Y431382D01*
X389411Y431400D01*
X389422Y431437D01*
X389428Y431507D01*
X389443Y431576D01*
X389438Y431609D01*
X389440Y431636D01*
X389425Y431686D01*
X389413Y431754D01*
X388613Y433983D01*
X388576Y434043D01*
X388547Y434107D01*
X388524Y434130D01*
X388509Y434154D01*
X388467Y434185D01*
X388418Y434233D01*
X388413Y434236D01*
X388287Y434872D01*
X388274Y434905D01*
X388267Y434946D01*
X388048Y435556D01*
X388050Y435561D01*
X388067Y435630D01*
X388092Y435696D01*
X388091Y435729D01*
X388098Y435756D01*
X388090Y435807D01*
X388089Y435876D01*
X387629Y438199D01*
X387602Y438264D01*
X387583Y438332D01*
X387563Y438358D01*
X387553Y438384D01*
X387516Y438420D01*
X387474Y438475D01*
X387470Y438479D01*
X387440Y439127D01*
X387432Y439161D01*
X387431Y439203D01*
X387305Y439839D01*
X387308Y439844D01*
X387335Y439909D01*
X387370Y439970D01*
X387374Y440003D01*
X387385Y440029D01*
X387384Y440080D01*
X387393Y440149D01*
X387285Y442515D01*
X387268Y442583D01*
X387260Y442653D01*
X387244Y442682D01*
X387237Y442709D01*
X387206Y442750D01*
X387173Y442811D01*
X387169Y442815D01*
X387237Y443461D01*
X387233Y443495D01*
X387239Y443536D01*
X387209Y444185D01*
X387213Y444189D01*
X387249Y444249D01*
X387293Y444305D01*
X387302Y444337D01*
X387316Y444361D01*
X387323Y444412D01*
X387343Y444478D01*
X387589Y446833D01*
X387582Y446904D01*
X387584Y446974D01*
X387572Y447005D01*
X387570Y447033D01*
X387545Y447078D01*
X387521Y447143D01*
X387518Y447148D01*
X387681Y447776D01*
X387683Y447811D01*
X387695Y447851D01*
X387762Y448496D01*
X387766Y448500D01*
X387811Y448554D01*
X387862Y448603D01*
X387876Y448633D01*
X387894Y448654D01*
X387909Y448704D01*
X387938Y448766D01*
X388532Y451059D01*
X388536Y451129D01*
X388548Y451199D01*
X388541Y451231D01*
X388543Y451259D01*
X388525Y451308D01*
X388511Y451375D01*
X388509Y451380D01*
X388764Y451977D01*
X388771Y452011D01*
X388779Y452029D01*
X388789Y452049D01*
X388951Y452677D01*
X388956Y452680D01*
X389009Y452727D01*
X389066Y452768D01*
X389084Y452795D01*
X389105Y452814D01*
X389127Y452860D01*
X389165Y452918D01*
X390094Y455096D01*
X390109Y455166D01*
X390131Y455233D01*
X390129Y455265D01*
X390135Y455293D01*
X390125Y455343D01*
X390121Y455412D01*
X390120Y455418D01*
X390461Y455970D01*
X390473Y456002D01*
X390496Y456037D01*
X390750Y456634D01*
X390755Y456636D01*
X390815Y456675D01*
X390878Y456706D01*
X390900Y456731D01*
X390923Y456746D01*
X390952Y456789D01*
X390998Y456841D01*
X391704Y457985D01*
X391734Y458066D01*
X391768Y458145D01*
X391768Y458159D01*
X391773Y458173D01*
X391770Y458259D01*
X391771Y458346D01*
X391765Y458359D01*
X391765Y458373D01*
X391728Y458451D01*
X391695Y458531D01*
X391685Y458542D01*
X391679Y458554D01*
X391637Y458591D01*
X391570Y458661D01*
X360972Y480895D01*
X361982Y482078D01*
X361996Y482103D01*
X362016Y482124D01*
X362044Y482189D01*
X362078Y482252D01*
X362081Y482281D01*
X362092Y482307D01*
X362092Y482379D01*
X362099Y482449D01*
X362091Y482477D01*
X362090Y482506D01*
X362062Y482572D01*
X362041Y482640D01*
X362022Y482662D01*
X362011Y482689D01*
X361941Y482760D01*
X361914Y482792D01*
X361904Y482797D01*
X361894Y482807D01*
X346494Y493907D01*
X346468Y493919D01*
X346447Y493937D01*
X346378Y493959D01*
X346313Y493989D01*
X346284Y493989D01*
X346257Y493998D01*
X346186Y493992D01*
X346114Y493993D01*
X346088Y493983D01*
X346059Y493980D01*
X345968Y493936D01*
X345929Y493920D01*
X345922Y493913D01*
X345910Y493907D01*
X330510Y482807D01*
X330490Y482786D01*
X330465Y482771D01*
X330423Y482713D01*
X330375Y482661D01*
X330365Y482634D01*
X330348Y482610D01*
X330332Y482541D01*
X330308Y482474D01*
X330310Y482445D01*
X330303Y482416D01*
X330315Y482346D01*
X330319Y482275D01*
X330332Y482249D01*
X330337Y482221D01*
X330388Y482135D01*
X330407Y482097D01*
X330415Y482090D01*
X330422Y482078D01*
X331432Y480895D01*
X300834Y458661D01*
X300775Y458598D01*
X300713Y458537D01*
X300708Y458524D01*
X300698Y458514D01*
X300669Y458433D01*
X300635Y458353D01*
X300635Y458339D01*
X300630Y458325D01*
X300635Y458239D01*
X300634Y458152D01*
X300640Y458138D01*
X300640Y458125D01*
X300665Y458075D01*
X300700Y457985D01*
X301406Y456841D01*
X301454Y456789D01*
X301496Y456732D01*
X301524Y456715D01*
X301543Y456694D01*
X301590Y456673D01*
X301649Y456636D01*
X301654Y456634D01*
X301908Y456037D01*
X301928Y456008D01*
X301943Y455970D01*
X302284Y455418D01*
X302283Y455412D01*
X302280Y455342D01*
X302269Y455272D01*
X302277Y455240D01*
X302276Y455212D01*
X302294Y455164D01*
X302310Y455096D01*
X303239Y452918D01*
X303279Y452860D01*
X303311Y452797D01*
X303336Y452776D01*
X303352Y452753D01*
X303396Y452725D01*
X303448Y452680D01*
X303453Y452677D01*
X303615Y452049D01*
X303631Y452018D01*
X303640Y451977D01*
X303895Y451380D01*
X303893Y451375D01*
X303880Y451306D01*
X303859Y451238D01*
X303861Y451206D01*
X303856Y451178D01*
X303867Y451128D01*
X303872Y451059D01*
X304466Y448766D01*
X304497Y448703D01*
X304520Y448636D01*
X304542Y448611D01*
X304554Y448586D01*
X304593Y448552D01*
X304638Y448500D01*
X304642Y448496D01*
X304709Y447851D01*
X304720Y447818D01*
X304723Y447776D01*
X304886Y447148D01*
X304883Y447143D01*
X304860Y447077D01*
X304829Y447013D01*
X304826Y446980D01*
X304817Y446954D01*
X304821Y446902D01*
X304815Y446833D01*
X305061Y444478D01*
X305082Y444411D01*
X305095Y444341D01*
X305113Y444314D01*
X305121Y444287D01*
X305154Y444247D01*
X305191Y444189D01*
X305195Y444185D01*
X305165Y443536D01*
X305171Y443502D01*
X305167Y443461D01*
X305235Y442815D01*
X305231Y442811D01*
X305199Y442749D01*
X305159Y442690D01*
X305151Y442658D01*
X305138Y442634D01*
X305134Y442582D01*
X305119Y442515D01*
X305011Y440149D01*
X305021Y440079D01*
X305024Y440009D01*
X305037Y439979D01*
X305041Y439951D01*
X305068Y439907D01*
X305096Y439844D01*
X305099Y439839D01*
X304973Y439203D01*
X304973Y439168D01*
X304964Y439127D01*
X304934Y438479D01*
X304930Y438475D01*
X304889Y438418D01*
X304840Y438367D01*
X304828Y438336D01*
X304812Y438313D01*
X304800Y438263D01*
X304775Y438199D01*
X304315Y435876D01*
X304315Y435805D01*
X304307Y435735D01*
X304316Y435704D01*
X304316Y435675D01*
X304336Y435628D01*
X304354Y435561D01*
X304356Y435556D01*
X304137Y434946D01*
X304132Y434911D01*
X304117Y434872D01*
X303991Y434236D01*
X303986Y434233D01*
X303937Y434183D01*
X303881Y434139D01*
X303865Y434110D01*
X303845Y434090D01*
X303826Y434043D01*
X303791Y433983D01*
X302991Y431754D01*
X302980Y431684D01*
X302962Y431616D01*
X302966Y431583D01*
X302962Y431556D01*
X302974Y431506D01*
X302982Y431437D01*
X302984Y431432D01*
X302676Y430861D01*
X302666Y430827D01*
X302645Y430791D01*
X302426Y430181D01*
X302421Y430178D01*
X302364Y430136D01*
X302303Y430101D01*
X302282Y430075D01*
X302260Y430059D01*
X302233Y430014D01*
X302190Y429960D01*
X301067Y427876D01*
X301046Y427808D01*
X301018Y427744D01*
X301016Y427711D01*
X301008Y427684D01*
X301014Y427633D01*
X301011Y427563D01*
X301012Y427558D01*
X300622Y427039D01*
X300607Y427008D01*
X300581Y426975D01*
X300273Y426404D01*
X300268Y426402D01*
X300206Y426369D01*
X300140Y426344D01*
X300116Y426321D01*
X300091Y426308D01*
X300059Y426268D01*
X300008Y426221D01*
X298586Y424327D01*
X298556Y424264D01*
X298518Y424204D01*
X298512Y424172D01*
X298500Y424146D01*
X298497Y424095D01*
X298484Y424027D01*
X298484Y424021D01*
X298022Y423566D01*
X298002Y423538D01*
X297972Y423509D01*
X297582Y422990D01*
X297577Y422990D01*
X297510Y422966D01*
X297441Y422951D01*
X297414Y422932D01*
X297388Y422923D01*
X297350Y422888D01*
X297293Y422849D01*
X295604Y421188D01*
X295565Y421130D01*
X295519Y421077D01*
X295508Y421046D01*
X295492Y421022D01*
X295482Y420972D01*
X295459Y420906D01*
X295458Y420901D01*
X294933Y420520D01*
X294909Y420494D01*
X294875Y420471D01*
X294413Y420016D01*
X294407Y420016D01*
X294338Y420003D01*
X294267Y419998D01*
X294238Y419983D01*
X294210Y419978D01*
X294167Y419949D01*
X294105Y419919D01*
X292188Y418529D01*
X292140Y418477D01*
X292087Y418431D01*
X292071Y418402D01*
X292052Y418381D01*
X292035Y418333D01*
X292002Y418272D01*
X292001Y418267D01*
X291425Y417968D01*
X291398Y417946D01*
X291360Y417928D01*
X290835Y417547D01*
X290829Y417548D01*
X290759Y417545D01*
X290688Y417551D01*
X290657Y417541D01*
X290629Y417540D01*
X290582Y417518D01*
X290516Y417498D01*
X288414Y416408D01*
X288359Y416364D01*
X288299Y416327D01*
X288279Y416300D01*
X288257Y416283D01*
X288233Y416237D01*
X288192Y416182D01*
X288189Y416177D01*
X287575Y415968D01*
X287545Y415950D01*
X287505Y415938D01*
X286929Y415639D01*
X286924Y415641D01*
X286854Y415649D01*
X286785Y415665D01*
X286753Y415660D01*
X286725Y415663D01*
X286675Y415648D01*
X286607Y415638D01*
X284365Y414874D01*
X284304Y414838D01*
X284239Y414810D01*
X284216Y414787D01*
X284192Y414773D01*
X284161Y414732D01*
X284112Y414683D01*
X284109Y414678D01*
X283470Y414563D01*
X283438Y414550D01*
X283397Y414544D01*
X282792Y414338D01*
X282772Y414326D01*
X282750Y414321D01*
X282686Y414276D01*
X282619Y414237D01*
X282605Y414219D01*
X282587Y414205D01*
X282545Y414139D01*
X282499Y414077D01*
X282493Y414055D01*
X282481Y414035D01*
X282463Y413936D01*
X282449Y413883D01*
X282451Y413871D01*
X282449Y413858D01*
X282449Y372458D01*
X282449Y372456D01*
X282449Y372453D01*
X282469Y372358D01*
X282488Y372262D01*
X282490Y372259D01*
X282490Y372257D01*
X282546Y372176D01*
X282601Y372096D01*
X282603Y372094D01*
X282605Y372092D01*
X282688Y372039D01*
X282769Y371987D01*
X282772Y371986D01*
X282774Y371985D01*
X282870Y371968D01*
X282966Y371951D01*
X282969Y371952D01*
X282971Y371951D01*
X283066Y371973D01*
X283162Y371995D01*
X283164Y371996D01*
X283167Y371997D01*
X283315Y372099D01*
X284822Y373607D01*
X289218Y373607D01*
X292327Y370498D01*
X292327Y367156D01*
X292328Y367148D01*
X292327Y367140D01*
X292348Y367050D01*
X292366Y366959D01*
X292371Y366953D01*
X292373Y366945D01*
X292475Y366797D01*
X302627Y356645D01*
X302634Y356641D01*
X302638Y356635D01*
X302717Y356586D01*
X302794Y356534D01*
X302802Y356533D01*
X302808Y356529D01*
X302986Y356497D01*
X312979Y356497D01*
X313090Y356477D01*
X315467Y356477D01*
X316727Y355217D01*
X316727Y352187D01*
X316101Y351561D01*
X316098Y351556D01*
X316094Y351553D01*
X316042Y351473D01*
X315990Y351394D01*
X315989Y351389D01*
X315986Y351384D01*
X315970Y351290D01*
X315952Y351197D01*
X315953Y351192D01*
X315952Y351186D01*
X315974Y351094D01*
X315994Y351001D01*
X315997Y350996D01*
X315998Y350991D01*
X316101Y350843D01*
X316727Y350217D01*
X316727Y347187D01*
X316101Y346561D01*
X316098Y346556D01*
X316094Y346553D01*
X316042Y346473D01*
X315990Y346394D01*
X315989Y346389D01*
X315986Y346384D01*
X315970Y346290D01*
X315952Y346197D01*
X315953Y346192D01*
X315952Y346186D01*
X315974Y346094D01*
X315994Y346001D01*
X315997Y345996D01*
X315997Y345995D01*
X315998Y345991D01*
X316101Y345843D01*
X316727Y345217D01*
X316727Y342187D01*
X316101Y341561D01*
X316098Y341556D01*
X316094Y341553D01*
X316042Y341473D01*
X315990Y341394D01*
X315989Y341389D01*
X315986Y341384D01*
X315970Y341290D01*
X315952Y341197D01*
X315953Y341192D01*
X315952Y341186D01*
X315974Y341094D01*
X315994Y341001D01*
X315997Y340996D01*
X315998Y340991D01*
X316101Y340843D01*
X316727Y340217D01*
X316727Y337187D01*
X316101Y336561D01*
X316098Y336556D01*
X316094Y336553D01*
X316042Y336473D01*
X315990Y336394D01*
X315989Y336389D01*
X315986Y336384D01*
X315970Y336290D01*
X315952Y336197D01*
X315953Y336192D01*
X315952Y336186D01*
X315974Y336094D01*
X315994Y336001D01*
X315997Y335996D01*
X315998Y335991D01*
X316101Y335843D01*
X316727Y335217D01*
X316727Y332187D01*
X316101Y331561D01*
X316098Y331556D01*
X316094Y331553D01*
X316042Y331473D01*
X315990Y331394D01*
X315989Y331389D01*
X315986Y331384D01*
X315970Y331290D01*
X315952Y331197D01*
X315953Y331192D01*
X315952Y331186D01*
X315974Y331094D01*
X315994Y331001D01*
X315997Y330996D01*
X315998Y330991D01*
X316101Y330843D01*
X316727Y330217D01*
X316727Y327187D01*
X316101Y326561D01*
X316098Y326556D01*
X316094Y326553D01*
X316042Y326473D01*
X315990Y326394D01*
X315989Y326389D01*
X315986Y326384D01*
X315970Y326290D01*
X315952Y326197D01*
X315953Y326192D01*
X315952Y326186D01*
X315974Y326094D01*
X315994Y326001D01*
X315997Y325996D01*
X315998Y325991D01*
X316101Y325843D01*
X316727Y325217D01*
X316727Y322187D01*
X316101Y321561D01*
X316098Y321556D01*
X316094Y321553D01*
X316042Y321473D01*
X315990Y321394D01*
X315989Y321389D01*
X315986Y321384D01*
X315970Y321290D01*
X315952Y321197D01*
X315953Y321192D01*
X315952Y321186D01*
X315974Y321094D01*
X315994Y321001D01*
X315997Y320996D01*
X315998Y320991D01*
X316101Y320843D01*
X316727Y320217D01*
X316727Y317234D01*
X316728Y317229D01*
X316727Y317224D01*
X316748Y317131D01*
X316766Y317037D01*
X316769Y317033D01*
X316770Y317028D01*
X316826Y316950D01*
X316879Y316872D01*
X316883Y316869D01*
X316886Y316864D01*
X316968Y316814D01*
X317047Y316762D01*
X317052Y316761D01*
X317057Y316759D01*
X317234Y316727D01*
X320217Y316727D01*
X321477Y315467D01*
X321477Y313449D01*
X321478Y313441D01*
X321477Y313433D01*
X321498Y313344D01*
X321516Y313252D01*
X321521Y313246D01*
X321522Y313238D01*
X321625Y313090D01*
X321751Y312965D01*
X321751Y310439D01*
X321625Y310314D01*
X321621Y310307D01*
X321614Y310302D01*
X321566Y310224D01*
X321514Y310147D01*
X321513Y310139D01*
X321509Y310132D01*
X321477Y309955D01*
X321477Y307936D01*
X320217Y306677D01*
X317187Y306677D01*
X315927Y307936D01*
X315927Y308146D01*
X315926Y308151D01*
X315927Y308156D01*
X315906Y308249D01*
X315888Y308342D01*
X315885Y308347D01*
X315884Y308352D01*
X315828Y308430D01*
X315775Y308508D01*
X315771Y308511D01*
X315768Y308515D01*
X315686Y308566D01*
X315607Y308617D01*
X315602Y308618D01*
X315597Y308621D01*
X315420Y308653D01*
X305338Y308653D01*
X305333Y308652D01*
X305328Y308653D01*
X305235Y308632D01*
X305142Y308614D01*
X305138Y308611D01*
X305133Y308610D01*
X305055Y308554D01*
X304976Y308501D01*
X304973Y308497D01*
X304969Y308494D01*
X304918Y308412D01*
X304867Y308333D01*
X304866Y308328D01*
X304863Y308323D01*
X304831Y308146D01*
X304831Y306510D01*
X304790Y306410D01*
X304788Y306401D01*
X304783Y306393D01*
X304751Y306216D01*
X304751Y301692D01*
X303858Y300799D01*
X292595Y300799D01*
X291702Y301692D01*
X291702Y304798D01*
X291700Y304806D01*
X291702Y304813D01*
X291681Y304903D01*
X291662Y304994D01*
X291658Y305001D01*
X291656Y305009D01*
X291553Y305157D01*
X290724Y305986D01*
X290721Y305988D01*
X290719Y305990D01*
X290716Y305992D01*
X290712Y305997D01*
X290634Y306046D01*
X290557Y306097D01*
X290549Y306099D01*
X290542Y306103D01*
X290365Y306135D01*
X288859Y306135D01*
X288854Y306134D01*
X288849Y306135D01*
X288746Y306114D01*
X287482Y306134D01*
X287473Y306133D01*
X287464Y306134D01*
X287375Y306114D01*
X287285Y306098D01*
X287277Y306093D01*
X287268Y306091D01*
X287194Y306038D01*
X287118Y305988D01*
X287112Y305980D01*
X287105Y305975D01*
X287056Y305897D01*
X287006Y305822D01*
X287004Y305812D01*
X286999Y305804D01*
X286996Y305791D01*
X286074Y304868D01*
X269811Y304868D01*
X268917Y305761D01*
X268917Y320024D01*
X269811Y320918D01*
X286074Y320918D01*
X286967Y320024D01*
X286967Y319853D01*
X286967Y319852D01*
X286967Y319851D01*
X286987Y319754D01*
X287006Y319656D01*
X287007Y319655D01*
X287007Y319654D01*
X287063Y319573D01*
X287119Y319491D01*
X287120Y319490D01*
X287121Y319489D01*
X287205Y319435D01*
X287287Y319381D01*
X287288Y319381D01*
X287289Y319380D01*
X287466Y319346D01*
X287520Y319345D01*
X287529Y319347D01*
X287538Y319345D01*
X287628Y319365D01*
X287717Y319381D01*
X287725Y319386D01*
X287734Y319388D01*
X287809Y319441D01*
X287885Y319491D01*
X287890Y319499D01*
X287897Y319504D01*
X287946Y319582D01*
X287997Y319658D01*
X287998Y319667D01*
X288003Y319675D01*
X288035Y319852D01*
X288035Y322624D01*
X288685Y324192D01*
X288686Y324196D01*
X288688Y324199D01*
X288705Y324294D01*
X288723Y324389D01*
X288723Y324392D01*
X288723Y324396D01*
X288702Y324491D01*
X288683Y324585D01*
X288681Y324588D01*
X288680Y324592D01*
X288624Y324671D01*
X288569Y324750D01*
X288566Y324752D01*
X288564Y324755D01*
X288482Y324806D01*
X288401Y324859D01*
X288397Y324859D01*
X288393Y324861D01*
X288216Y324893D01*
X286092Y324893D01*
X282983Y328002D01*
X282983Y332398D01*
X286092Y335507D01*
X290556Y335507D01*
X290641Y335491D01*
X290737Y335473D01*
X290740Y335474D01*
X290742Y335473D01*
X290838Y335495D01*
X290933Y335515D01*
X290935Y335516D01*
X290938Y335517D01*
X291018Y335573D01*
X291098Y335629D01*
X291099Y335631D01*
X291101Y335633D01*
X291153Y335716D01*
X291205Y335798D01*
X291206Y335801D01*
X291207Y335803D01*
X291239Y335980D01*
X291239Y339070D01*
X291956Y339787D01*
X291958Y339790D01*
X291960Y339791D01*
X292012Y339871D01*
X292067Y339954D01*
X292068Y339957D01*
X292069Y339959D01*
X292087Y340055D01*
X292105Y340151D01*
X292104Y340154D01*
X292105Y340156D01*
X292084Y340252D01*
X292063Y340347D01*
X292062Y340349D01*
X292061Y340352D01*
X292005Y340432D01*
X291949Y340512D01*
X291947Y340513D01*
X291945Y340515D01*
X291862Y340567D01*
X291780Y340619D01*
X291777Y340620D01*
X291775Y340621D01*
X291598Y340653D01*
X290035Y340653D01*
X266191Y364497D01*
X266191Y401734D01*
X266190Y401742D01*
X266191Y401749D01*
X266170Y401839D01*
X266152Y401930D01*
X266147Y401937D01*
X266145Y401944D01*
X266043Y402092D01*
X263933Y404202D01*
X263933Y408598D01*
X267042Y411707D01*
X271438Y411707D01*
X274547Y408598D01*
X274547Y404202D01*
X272437Y402092D01*
X272433Y402086D01*
X272427Y402081D01*
X272378Y402003D01*
X272326Y401925D01*
X272325Y401918D01*
X272321Y401911D01*
X272289Y401734D01*
X272289Y367233D01*
X272290Y367225D01*
X272289Y367217D01*
X272310Y367128D01*
X272328Y367036D01*
X272333Y367030D01*
X272335Y367022D01*
X272437Y366874D01*
X292412Y346899D01*
X292419Y346895D01*
X292423Y346889D01*
X292502Y346840D01*
X292579Y346788D01*
X292587Y346787D01*
X292594Y346783D01*
X292771Y346751D01*
X292873Y346751D01*
X292876Y346751D01*
X292878Y346751D01*
X292973Y346771D01*
X293070Y346790D01*
X293072Y346792D01*
X293074Y346792D01*
X293155Y346848D01*
X293235Y346903D01*
X293237Y346905D01*
X293239Y346907D01*
X293292Y346990D01*
X293345Y347071D01*
X293345Y347074D01*
X293347Y347076D01*
X293363Y347172D01*
X293380Y347268D01*
X293380Y347271D01*
X293380Y347273D01*
X293358Y347367D01*
X293337Y347464D01*
X293335Y347466D01*
X293335Y347469D01*
X293232Y347617D01*
X278286Y362563D01*
X276351Y364497D01*
X276351Y413181D01*
X276349Y413193D01*
X276351Y413206D01*
X276329Y413291D01*
X276312Y413377D01*
X276304Y413388D01*
X276301Y413400D01*
X276248Y413470D01*
X276199Y413543D01*
X276188Y413550D01*
X276180Y413560D01*
X276104Y413604D01*
X276031Y413652D01*
X276018Y413654D01*
X276007Y413661D01*
X275902Y413677D01*
X275873Y413685D01*
X275857Y413684D01*
X275834Y413688D01*
X275831Y413687D01*
X275829Y413688D01*
X275812Y413687D01*
X275744Y413671D01*
X275674Y413663D01*
X275644Y413648D01*
X275617Y413642D01*
X275575Y413611D01*
X275514Y413579D01*
X275510Y413576D01*
X274866Y413654D01*
X274831Y413651D01*
X274790Y413657D01*
X274142Y413638D01*
X274138Y413642D01*
X274078Y413679D01*
X274023Y413724D01*
X273991Y413733D01*
X273967Y413748D01*
X273916Y413756D01*
X273850Y413777D01*
X271499Y414061D01*
X271429Y414056D01*
X271359Y414059D01*
X271328Y414048D01*
X271300Y414045D01*
X271254Y414022D01*
X271188Y413999D01*
X271184Y413996D01*
X270558Y414169D01*
X270523Y414172D01*
X270484Y414184D01*
X269840Y414262D01*
X269836Y414266D01*
X269783Y414312D01*
X269735Y414364D01*
X269705Y414378D01*
X269684Y414397D01*
X269635Y414412D01*
X269572Y414442D01*
X267290Y415074D01*
X267220Y415079D01*
X267150Y415092D01*
X267118Y415086D01*
X267090Y415088D01*
X267041Y415072D01*
X266973Y415059D01*
X266968Y415057D01*
X266376Y415321D01*
X266342Y415329D01*
X266304Y415347D01*
X265679Y415520D01*
X265676Y415525D01*
X265630Y415578D01*
X265590Y415636D01*
X265563Y415655D01*
X265545Y415676D01*
X265499Y415699D01*
X265442Y415738D01*
X263279Y416703D01*
X263210Y416718D01*
X263143Y416742D01*
X263111Y416740D01*
X263083Y416747D01*
X263032Y416738D01*
X262963Y416735D01*
X262958Y416734D01*
X262411Y417084D01*
X262379Y417096D01*
X262345Y417120D01*
X261752Y417384D01*
X261750Y417389D01*
X261712Y417449D01*
X261682Y417512D01*
X261658Y417535D01*
X261643Y417558D01*
X261618Y417576D01*
X261611Y417585D01*
X261587Y417600D01*
X261550Y417635D01*
X259555Y418911D01*
X259489Y418937D01*
X259427Y418970D01*
X259394Y418974D01*
X259368Y418984D01*
X259317Y418982D01*
X259248Y418990D01*
X259242Y418990D01*
X258754Y419417D01*
X258724Y419434D01*
X258693Y419463D01*
X258147Y419812D01*
X258146Y419818D01*
X258117Y419882D01*
X258097Y419950D01*
X258076Y419975D01*
X258065Y420001D01*
X258027Y420037D01*
X257984Y420091D01*
X256202Y421650D01*
X256141Y421685D01*
X256084Y421727D01*
X256053Y421736D01*
X256028Y421750D01*
X255977Y421756D01*
X255910Y421774D01*
X255905Y421774D01*
X255485Y422270D01*
X255458Y422291D01*
X255432Y422324D01*
X254944Y422751D01*
X254944Y422756D01*
X254925Y422825D01*
X254915Y422894D01*
X254898Y422923D01*
X254891Y422950D01*
X254859Y422991D01*
X254825Y423050D01*
X253987Y424041D01*
X253919Y424094D01*
X253853Y424152D01*
X253840Y424156D01*
X253829Y424165D01*
X253746Y424188D01*
X253663Y424216D01*
X253650Y424215D01*
X253636Y424219D01*
X253550Y424208D01*
X253463Y424202D01*
X253450Y424195D01*
X253437Y424194D01*
X253389Y424166D01*
X253301Y424123D01*
X222637Y401842D01*
X221828Y403163D01*
X221808Y403184D01*
X221795Y403210D01*
X221741Y403256D01*
X221692Y403308D01*
X221666Y403320D01*
X221643Y403339D01*
X221576Y403360D01*
X221511Y403389D01*
X221482Y403390D01*
X221454Y403399D01*
X221383Y403392D01*
X221312Y403393D01*
X221285Y403382D01*
X221256Y403379D01*
X221167Y403335D01*
X221127Y403319D01*
X221119Y403311D01*
X221107Y403305D01*
X205807Y392105D01*
X205788Y392084D01*
X205763Y392069D01*
X205722Y392011D01*
X205673Y391958D01*
X205664Y391931D01*
X205647Y391907D01*
X205631Y391838D01*
X205607Y391770D01*
X205609Y391742D01*
X205603Y391714D01*
X205617Y391614D01*
X205620Y391572D01*
X205625Y391562D01*
X205627Y391549D01*
X211427Y373549D01*
X211441Y373524D01*
X211447Y373496D01*
X211489Y373438D01*
X211524Y373376D01*
X211547Y373358D01*
X211564Y373335D01*
X211625Y373298D01*
X211682Y373254D01*
X211709Y373247D01*
X211734Y373232D01*
X211805Y373222D01*
X211874Y373204D01*
X211902Y373208D01*
X211931Y373204D01*
X212029Y373226D01*
X212071Y373232D01*
X212080Y373238D01*
X212093Y373241D01*
X213504Y373825D01*
X225223Y337746D01*
X225266Y337671D01*
X225304Y337593D01*
X225315Y337584D01*
X225322Y337572D01*
X225390Y337518D01*
X225456Y337462D01*
X225469Y337457D01*
X225480Y337449D01*
X225564Y337426D01*
X225646Y337399D01*
X225661Y337400D01*
X225674Y337397D01*
X225729Y337404D01*
X225826Y337410D01*
X227128Y337729D01*
X227192Y337759D01*
X227259Y337781D01*
X227284Y337802D01*
X227309Y337814D01*
X227344Y337852D01*
X227397Y337897D01*
X227400Y337901D01*
X228047Y337959D01*
X228080Y337969D01*
X228121Y337972D01*
X228752Y338126D01*
X228756Y338123D01*
X228823Y338099D01*
X228886Y338067D01*
X228919Y338065D01*
X228945Y338055D01*
X228996Y338058D01*
X229065Y338052D01*
X231421Y338265D01*
X231489Y338285D01*
X231558Y338297D01*
X231586Y338314D01*
X231613Y338322D01*
X231653Y338355D01*
X231712Y338391D01*
X231716Y338395D01*
X232364Y338356D01*
X232398Y338361D01*
X232440Y338357D01*
X233086Y338416D01*
X233090Y338412D01*
X233152Y338379D01*
X233210Y338338D01*
X233242Y338330D01*
X233267Y338317D01*
X233318Y338312D01*
X233385Y338295D01*
X235746Y338155D01*
X235816Y338165D01*
X235887Y338167D01*
X235917Y338179D01*
X235945Y338183D01*
X235989Y338210D01*
X236053Y338236D01*
X236057Y338239D01*
X236692Y338105D01*
X236727Y338104D01*
X236767Y338095D01*
X237415Y338056D01*
X237419Y338052D01*
X237475Y338010D01*
X237526Y337961D01*
X237557Y337948D01*
X237579Y337932D01*
X237629Y337919D01*
X237693Y337893D01*
X240007Y337402D01*
X240077Y337402D01*
X240147Y337392D01*
X240179Y337401D01*
X240207Y337400D01*
X240255Y337420D01*
X240322Y337437D01*
X240327Y337439D01*
X240935Y337211D01*
X240969Y337206D01*
X241008Y337190D01*
X241642Y337056D01*
X241645Y337051D01*
X241695Y337001D01*
X241738Y336945D01*
X241766Y336928D01*
X241786Y336908D01*
X241833Y336888D01*
X241893Y336852D01*
X244108Y336023D01*
X244177Y336011D01*
X244245Y335992D01*
X244278Y335995D01*
X244305Y335991D01*
X244356Y336003D01*
X244424Y336010D01*
X244430Y336011D01*
X244997Y335695D01*
X245030Y335685D01*
X245066Y335664D01*
X245673Y335436D01*
X245675Y335431D01*
X245717Y335374D01*
X245751Y335312D01*
X245776Y335291D01*
X245793Y335269D01*
X245837Y335242D01*
X245890Y335198D01*
X247957Y334047D01*
X248024Y334026D01*
X248088Y333996D01*
X248121Y333995D01*
X248148Y333986D01*
X248199Y333991D01*
X248268Y333987D01*
X248274Y333988D01*
X248787Y333591D01*
X248819Y333576D01*
X248851Y333549D01*
X249418Y333234D01*
X249419Y333229D01*
X249451Y333166D01*
X249476Y333100D01*
X249498Y333075D01*
X249511Y333050D01*
X249551Y333017D01*
X249597Y332966D01*
X251469Y331520D01*
X251532Y331489D01*
X251591Y331450D01*
X251623Y331444D01*
X251649Y331431D01*
X251700Y331428D01*
X251768Y331414D01*
X251773Y331414D01*
X252222Y330945D01*
X252251Y330925D01*
X252278Y330895D01*
X252792Y330498D01*
X252793Y330493D01*
X252815Y330426D01*
X252830Y330357D01*
X252848Y330329D01*
X252857Y330303D01*
X252891Y330264D01*
X252929Y330206D01*
X254565Y328498D01*
X254623Y328457D01*
X254676Y328410D01*
X254706Y328399D01*
X254729Y328383D01*
X254780Y328372D01*
X254845Y328349D01*
X254850Y328348D01*
X255224Y327817D01*
X255249Y327793D01*
X255272Y327759D01*
X255721Y327290D01*
X255721Y327284D01*
X255733Y327215D01*
X255737Y327145D01*
X255751Y327115D01*
X255756Y327087D01*
X255784Y327044D01*
X255813Y326981D01*
X257176Y325048D01*
X257227Y324999D01*
X257272Y324945D01*
X257301Y324929D01*
X257321Y324910D01*
X257370Y324892D01*
X257430Y324859D01*
X257436Y324857D01*
X257726Y324277D01*
X257748Y324249D01*
X257765Y324212D01*
X258139Y323681D01*
X258138Y323676D01*
X258140Y323605D01*
X258134Y323535D01*
X258143Y323503D01*
X258144Y323475D01*
X258165Y323428D01*
X258184Y323362D01*
X259244Y321247D01*
X259287Y321192D01*
X259324Y321131D01*
X259350Y321111D01*
X259367Y321089D01*
X259412Y321064D01*
X259467Y321022D01*
X259472Y321020D01*
X259673Y320403D01*
X259690Y320372D01*
X259702Y320332D01*
X259992Y319752D01*
X259990Y319747D01*
X259982Y319677D01*
X259965Y319608D01*
X259969Y319576D01*
X259966Y319548D01*
X259980Y319498D01*
X259989Y319430D01*
X260722Y317181D01*
X260756Y317119D01*
X260783Y317054D01*
X260806Y317031D01*
X260820Y317006D01*
X260861Y316975D01*
X260909Y316925D01*
X260914Y316922D01*
X261020Y316282D01*
X261033Y316249D01*
X261038Y316208D01*
X261239Y315591D01*
X261237Y315586D01*
X261218Y315518D01*
X261191Y315453D01*
X261190Y315420D01*
X261183Y315393D01*
X261189Y315342D01*
X261188Y315273D01*
X261577Y312940D01*
X261602Y312874D01*
X261619Y312805D01*
X261639Y312779D01*
X261649Y312752D01*
X261684Y312715D01*
X261724Y312659D01*
X261728Y312655D01*
X261738Y312006D01*
X261746Y311972D01*
X261745Y311931D01*
X261852Y311291D01*
X261849Y311286D01*
X261820Y311222D01*
X261784Y311161D01*
X261778Y311129D01*
X261767Y311103D01*
X261766Y311052D01*
X261754Y310983D01*
X261791Y308618D01*
X261806Y308549D01*
X261813Y308479D01*
X261828Y308450D01*
X261834Y308422D01*
X261863Y308380D01*
X261895Y308319D01*
X261898Y308314D01*
X261811Y307671D01*
X261813Y307641D01*
X261813Y307639D01*
X261814Y307638D01*
X261814Y307637D01*
X261807Y307596D01*
X261817Y306947D01*
X261813Y306943D01*
X261775Y306883D01*
X261730Y306829D01*
X261720Y306798D01*
X261705Y306774D01*
X261696Y306723D01*
X261675Y306657D01*
X261359Y304313D01*
X261363Y304243D01*
X261359Y304172D01*
X261370Y304141D01*
X261371Y304113D01*
X261395Y304067D01*
X261416Y304002D01*
X261419Y303997D01*
X261238Y303374D01*
X261235Y303339D01*
X261222Y303300D01*
X261135Y302657D01*
X261131Y302653D01*
X261084Y302600D01*
X261032Y302553D01*
X261017Y302524D01*
X260998Y302503D01*
X260982Y302454D01*
X260951Y302392D01*
X260289Y300121D01*
X260283Y300051D01*
X260269Y299981D01*
X260275Y299949D01*
X260272Y299921D01*
X260288Y299872D01*
X260300Y299804D01*
X260302Y299799D01*
X260029Y299210D01*
X260021Y299176D01*
X260003Y299139D01*
X259821Y298516D01*
X259816Y298513D01*
X259763Y298468D01*
X259703Y298429D01*
X259685Y298402D01*
X259663Y298384D01*
X259640Y298338D01*
X259600Y298282D01*
X258607Y296135D01*
X258590Y296066D01*
X258566Y296000D01*
X258567Y295967D01*
X258560Y295940D01*
X258569Y295889D01*
X258570Y295820D01*
X258571Y295814D01*
X258453Y295635D01*
X258433Y295584D01*
X258403Y295538D01*
X258396Y295492D01*
X258378Y295449D01*
X258379Y295395D01*
X258370Y295341D01*
X258380Y295295D01*
X258381Y295249D01*
X258403Y295199D01*
X258415Y295145D01*
X258445Y295103D01*
X258461Y295065D01*
X258490Y295038D01*
X258518Y294997D01*
X269648Y283867D01*
X269655Y283863D01*
X269659Y283857D01*
X269738Y283808D01*
X269815Y283756D01*
X269823Y283755D01*
X269830Y283751D01*
X270007Y283719D01*
X305867Y283719D01*
X305875Y283720D01*
X305883Y283719D01*
X305972Y283740D01*
X306064Y283758D01*
X306070Y283763D01*
X306078Y283765D01*
X306226Y283867D01*
X325505Y303146D01*
X325509Y303153D01*
X325515Y303157D01*
X325564Y303236D01*
X325616Y303313D01*
X325617Y303321D01*
X325621Y303328D01*
X325653Y303505D01*
X325653Y312965D01*
X325779Y313090D01*
X325783Y313097D01*
X325790Y313101D01*
X325838Y313180D01*
X325890Y313257D01*
X325891Y313265D01*
X325895Y313272D01*
X325927Y313449D01*
X325927Y315467D01*
X327187Y316727D01*
X330217Y316727D01*
X330843Y316101D01*
X330848Y316098D01*
X330851Y316094D01*
X330931Y316042D01*
X331010Y315990D01*
X331015Y315989D01*
X331020Y315986D01*
X331114Y315970D01*
X331207Y315952D01*
X331212Y315953D01*
X331218Y315952D01*
X331310Y315974D01*
X331403Y315994D01*
X331408Y315997D01*
X331413Y315998D01*
X331561Y316101D01*
X332187Y316727D01*
X335217Y316727D01*
X335843Y316101D01*
X335848Y316098D01*
X335851Y316094D01*
X335931Y316042D01*
X336010Y315990D01*
X336015Y315989D01*
X336020Y315986D01*
X336114Y315970D01*
X336207Y315952D01*
X336212Y315953D01*
X336218Y315952D01*
X336310Y315974D01*
X336403Y315994D01*
X336408Y315997D01*
X336413Y315998D01*
X336561Y316101D01*
X337187Y316727D01*
X340217Y316727D01*
X340843Y316101D01*
X340848Y316098D01*
X340851Y316094D01*
X340931Y316042D01*
X341010Y315990D01*
X341015Y315989D01*
X341020Y315986D01*
X341114Y315970D01*
X341207Y315952D01*
X341212Y315953D01*
X341218Y315952D01*
X341310Y315974D01*
X341403Y315994D01*
X341408Y315997D01*
X341413Y315998D01*
X341561Y316101D01*
X342187Y316727D01*
X345217Y316727D01*
X345843Y316101D01*
X345848Y316098D01*
X345851Y316094D01*
X345931Y316042D01*
X346010Y315990D01*
X346015Y315989D01*
X346020Y315986D01*
X346114Y315970D01*
X346207Y315952D01*
X346212Y315953D01*
X346218Y315952D01*
X346310Y315974D01*
X346403Y315994D01*
X346408Y315997D01*
X346413Y315998D01*
X346561Y316101D01*
X347187Y316727D01*
X350217Y316727D01*
X351477Y315467D01*
X351477Y313090D01*
X351478Y313082D01*
X351477Y313074D01*
X351497Y312989D01*
X351497Y302994D01*
X351498Y302989D01*
X351497Y302984D01*
X351518Y302891D01*
X351536Y302797D01*
X351539Y302793D01*
X351540Y302788D01*
X351596Y302710D01*
X351649Y302632D01*
X351653Y302629D01*
X351656Y302625D01*
X351738Y302574D01*
X351817Y302522D01*
X351822Y302522D01*
X351827Y302519D01*
X352004Y302487D01*
X353988Y302487D01*
X357097Y299378D01*
X357097Y294982D01*
X353988Y291873D01*
X349592Y291873D01*
X346483Y294982D01*
X346483Y298324D01*
X346482Y298332D01*
X346483Y298340D01*
X346462Y298429D01*
X346444Y298521D01*
X346439Y298527D01*
X346437Y298535D01*
X346335Y298683D01*
X346305Y298713D01*
X346301Y298716D01*
X346298Y298720D01*
X346217Y298771D01*
X346138Y298824D01*
X346133Y298825D01*
X346128Y298827D01*
X346035Y298843D01*
X345941Y298861D01*
X345936Y298860D01*
X345931Y298861D01*
X345838Y298839D01*
X345745Y298820D01*
X345741Y298817D01*
X345736Y298815D01*
X345588Y298713D01*
X343828Y296953D01*
X339432Y296953D01*
X337617Y298769D01*
X337614Y298770D01*
X337613Y298772D01*
X337532Y298825D01*
X337450Y298879D01*
X337447Y298880D01*
X337445Y298881D01*
X337349Y298899D01*
X337253Y298917D01*
X337250Y298917D01*
X337248Y298917D01*
X337151Y298896D01*
X337057Y298875D01*
X337055Y298874D01*
X337052Y298873D01*
X336972Y298817D01*
X336892Y298761D01*
X336891Y298759D01*
X336889Y298757D01*
X336837Y298674D01*
X336785Y298592D01*
X336784Y298589D01*
X336783Y298587D01*
X336751Y298410D01*
X336751Y296879D01*
X311143Y271271D01*
X261627Y271271D01*
X255144Y277755D01*
X255137Y277759D01*
X255133Y277765D01*
X255054Y277814D01*
X254977Y277866D01*
X254969Y277867D01*
X254962Y277871D01*
X254785Y277903D01*
X251802Y277903D01*
X248693Y281012D01*
X248693Y284229D01*
X248685Y284270D01*
X248687Y284311D01*
X248666Y284367D01*
X248654Y284426D01*
X248630Y284460D01*
X248616Y284499D01*
X248575Y284542D01*
X248541Y284592D01*
X248506Y284614D01*
X248478Y284644D01*
X248423Y284668D01*
X248373Y284701D01*
X248332Y284708D01*
X248295Y284725D01*
X248235Y284726D01*
X248176Y284737D01*
X248135Y284728D01*
X248094Y284728D01*
X248030Y284704D01*
X247980Y284693D01*
X247957Y284676D01*
X247926Y284665D01*
X246686Y283923D01*
X246634Y283876D01*
X246576Y283835D01*
X246559Y283807D01*
X246538Y283788D01*
X246516Y283741D01*
X246478Y283683D01*
X246476Y283678D01*
X245876Y283432D01*
X245847Y283413D01*
X245808Y283398D01*
X245251Y283065D01*
X245246Y283066D01*
X245176Y283070D01*
X245106Y283081D01*
X245074Y283074D01*
X245046Y283076D01*
X244997Y283058D01*
X244930Y283044D01*
X243656Y282521D01*
X243584Y282473D01*
X243509Y282429D01*
X243501Y282417D01*
X243489Y282409D01*
X243441Y282337D01*
X243390Y282268D01*
X243386Y282254D01*
X243378Y282242D01*
X243362Y282157D01*
X243341Y282073D01*
X243344Y282058D01*
X243341Y282045D01*
X243353Y281991D01*
X243366Y281895D01*
X255046Y245938D01*
X253586Y245587D01*
X253560Y245575D01*
X253532Y245571D01*
X253470Y245534D01*
X253405Y245504D01*
X253386Y245482D01*
X253362Y245468D01*
X253320Y245409D01*
X253272Y245356D01*
X253263Y245329D01*
X253246Y245306D01*
X253231Y245236D01*
X253207Y245168D01*
X253209Y245140D01*
X253203Y245112D01*
X253218Y245012D01*
X253221Y244970D01*
X253225Y244960D01*
X253227Y244947D01*
X259127Y226847D01*
X259142Y226821D01*
X259149Y226792D01*
X259191Y226735D01*
X259225Y226674D01*
X259249Y226656D01*
X259267Y226632D01*
X259327Y226596D01*
X259383Y226553D01*
X259412Y226546D01*
X259438Y226530D01*
X259534Y226514D01*
X259576Y226503D01*
X259588Y226505D01*
X259602Y226503D01*
X278602Y226503D01*
X278630Y226508D01*
G37*
G36*
X432831Y226509D02*
X432831Y226509D01*
X432861Y226506D01*
X432928Y226528D01*
X432997Y226542D01*
X433022Y226559D01*
X433050Y226569D01*
X433103Y226615D01*
X433161Y226655D01*
X433177Y226680D01*
X433199Y226700D01*
X433245Y226786D01*
X433268Y226822D01*
X433270Y226834D01*
X433277Y226847D01*
X439177Y244947D01*
X439180Y244976D01*
X439191Y245002D01*
X439191Y245074D01*
X439199Y245145D01*
X439191Y245172D01*
X439191Y245201D01*
X439164Y245267D01*
X439143Y245336D01*
X439125Y245358D01*
X439114Y245384D01*
X439063Y245434D01*
X439017Y245489D01*
X438992Y245502D01*
X438972Y245522D01*
X438878Y245562D01*
X438841Y245582D01*
X438830Y245582D01*
X438818Y245587D01*
X437358Y245938D01*
X449038Y281895D01*
X449048Y281981D01*
X449063Y282066D01*
X449060Y282080D01*
X449061Y282094D01*
X449037Y282177D01*
X449018Y282261D01*
X449009Y282273D01*
X449005Y282286D01*
X448951Y282354D01*
X448900Y282424D01*
X448888Y282432D01*
X448879Y282442D01*
X448830Y282468D01*
X448748Y282521D01*
X447474Y283044D01*
X447405Y283057D01*
X447338Y283078D01*
X447305Y283076D01*
X447277Y283082D01*
X447227Y283071D01*
X447158Y283066D01*
X447153Y283065D01*
X446596Y283398D01*
X446563Y283410D01*
X446528Y283432D01*
X445928Y283678D01*
X445926Y283683D01*
X445886Y283742D01*
X445854Y283805D01*
X445829Y283826D01*
X445813Y283849D01*
X445770Y283878D01*
X445718Y283923D01*
X443688Y285137D01*
X443622Y285161D01*
X443558Y285192D01*
X443525Y285195D01*
X443499Y285204D01*
X443448Y285201D01*
X443379Y285207D01*
X443373Y285207D01*
X442872Y285619D01*
X442842Y285635D01*
X442810Y285663D01*
X442253Y285996D01*
X442252Y286001D01*
X442235Y286036D01*
X442234Y286044D01*
X442227Y286053D01*
X442222Y286065D01*
X442199Y286132D01*
X442178Y286157D01*
X442166Y286182D01*
X442127Y286216D01*
X442082Y286269D01*
X440256Y287772D01*
X440194Y287806D01*
X440136Y287846D01*
X440104Y287853D01*
X440079Y287867D01*
X440028Y287871D01*
X439961Y287887D01*
X439955Y287888D01*
X439521Y288370D01*
X439493Y288391D01*
X439467Y288422D01*
X438965Y288835D01*
X438965Y288840D01*
X438944Y288908D01*
X438932Y288977D01*
X438915Y289005D01*
X438907Y289032D01*
X438874Y289072D01*
X438837Y289131D01*
X437255Y290889D01*
X437199Y290931D01*
X437148Y290980D01*
X437117Y290992D01*
X437095Y291009D01*
X437045Y291021D01*
X436980Y291047D01*
X436975Y291048D01*
X436618Y291590D01*
X436593Y291614D01*
X436571Y291650D01*
X436137Y292132D01*
X436138Y292138D01*
X436128Y292208D01*
X436126Y292278D01*
X436113Y292308D01*
X436109Y292336D01*
X436082Y292380D01*
X436055Y292444D01*
X434753Y294419D01*
X434703Y294469D01*
X434660Y294524D01*
X434631Y294541D01*
X434612Y294561D01*
X434564Y294581D01*
X434504Y294616D01*
X434499Y294617D01*
X434227Y295206D01*
X434206Y295234D01*
X434190Y295273D01*
X433833Y295814D01*
X433834Y295820D01*
X433834Y295890D01*
X433843Y295960D01*
X433834Y295992D01*
X433834Y296020D01*
X433815Y296068D01*
X433797Y296135D01*
X433685Y296377D01*
X433628Y296455D01*
X433572Y296533D01*
X433569Y296536D01*
X433567Y296539D01*
X433485Y296588D01*
X433402Y296639D01*
X433398Y296640D01*
X433395Y296642D01*
X433359Y296647D01*
X433225Y296671D01*
X378467Y296671D01*
X376533Y298606D01*
X372617Y302522D01*
X372614Y302523D01*
X372613Y302525D01*
X372532Y302578D01*
X372450Y302633D01*
X372447Y302633D01*
X372445Y302635D01*
X372349Y302652D01*
X372253Y302670D01*
X372250Y302670D01*
X372248Y302670D01*
X372151Y302649D01*
X372057Y302629D01*
X372055Y302627D01*
X372052Y302627D01*
X371972Y302570D01*
X371892Y302514D01*
X371891Y302512D01*
X371889Y302511D01*
X371837Y302428D01*
X371785Y302345D01*
X371784Y302343D01*
X371783Y302340D01*
X371751Y302163D01*
X371751Y270919D01*
X362325Y261494D01*
X362321Y261487D01*
X362315Y261483D01*
X362266Y261404D01*
X362214Y261327D01*
X362213Y261319D01*
X362209Y261312D01*
X362177Y261135D01*
X362177Y258152D01*
X359068Y255043D01*
X356917Y255043D01*
X356831Y255026D01*
X356745Y255013D01*
X356734Y255006D01*
X356721Y255004D01*
X356648Y254954D01*
X356574Y254909D01*
X356566Y254898D01*
X356555Y254891D01*
X356507Y254818D01*
X356456Y254747D01*
X356453Y254734D01*
X356446Y254723D01*
X356430Y254637D01*
X356410Y254552D01*
X356412Y254539D01*
X356410Y254526D01*
X356429Y254440D01*
X356444Y254354D01*
X356451Y254343D01*
X356454Y254330D01*
X356504Y254259D01*
X356551Y254185D01*
X356563Y254177D01*
X356570Y254167D01*
X356617Y254137D01*
X356697Y254079D01*
X356774Y254042D01*
X356807Y254034D01*
X356844Y254014D01*
X357464Y253823D01*
X357467Y253818D01*
X357512Y253764D01*
X357550Y253704D01*
X357576Y253685D01*
X357594Y253663D01*
X357639Y253639D01*
X357695Y253598D01*
X359830Y252570D01*
X359898Y252553D01*
X359964Y252527D01*
X359997Y252528D01*
X360024Y252521D01*
X360075Y252528D01*
X360144Y252529D01*
X360150Y252530D01*
X360686Y252165D01*
X360718Y252151D01*
X360751Y252127D01*
X361336Y251845D01*
X361338Y251840D01*
X361374Y251779D01*
X361402Y251715D01*
X361426Y251692D01*
X361440Y251667D01*
X361482Y251637D01*
X361531Y251588D01*
X363488Y250254D01*
X363553Y250226D01*
X363615Y250191D01*
X363647Y250187D01*
X363673Y250176D01*
X363724Y250176D01*
X363793Y250166D01*
X363799Y250166D01*
X364274Y249725D01*
X364304Y249707D01*
X364334Y249677D01*
X364870Y249312D01*
X364871Y249307D01*
X364897Y249241D01*
X364916Y249173D01*
X364936Y249147D01*
X364946Y249121D01*
X364983Y249084D01*
X365024Y249029D01*
X366761Y247418D01*
X366821Y247381D01*
X366876Y247337D01*
X366908Y247328D01*
X366932Y247313D01*
X366983Y247305D01*
X367049Y247285D01*
X367055Y247285D01*
X367459Y246777D01*
X367486Y246755D01*
X367511Y246722D01*
X367986Y246280D01*
X367987Y246275D01*
X368003Y246206D01*
X368011Y246136D01*
X368027Y246107D01*
X368033Y246080D01*
X368064Y246039D01*
X368097Y245978D01*
X369574Y244125D01*
X369628Y244080D01*
X369676Y244029D01*
X369706Y244015D01*
X369727Y243997D01*
X369777Y243981D01*
X369839Y243952D01*
X369845Y243950D01*
X370169Y243388D01*
X370192Y243362D01*
X370212Y243326D01*
X370616Y242818D01*
X370616Y242813D01*
X370622Y242742D01*
X370620Y242672D01*
X370631Y242641D01*
X370633Y242613D01*
X370657Y242567D01*
X370680Y242502D01*
X371865Y240451D01*
X371912Y240398D01*
X371952Y240340D01*
X371979Y240321D01*
X371998Y240300D01*
X372044Y240278D01*
X372101Y240239D01*
X372107Y240237D01*
X372344Y239633D01*
X372362Y239604D01*
X372377Y239565D01*
X372701Y239003D01*
X372700Y238998D01*
X372695Y238927D01*
X372682Y238858D01*
X372689Y238826D01*
X372687Y238798D01*
X372704Y238749D01*
X372717Y238681D01*
X373583Y236476D01*
X373621Y236416D01*
X373652Y236353D01*
X373676Y236331D01*
X373691Y236307D01*
X373734Y236278D01*
X373785Y236231D01*
X373790Y236229D01*
X373934Y235596D01*
X373948Y235564D01*
X373957Y235523D01*
X374194Y234919D01*
X374191Y234914D01*
X374177Y234845D01*
X374154Y234779D01*
X374155Y234746D01*
X374149Y234718D01*
X374159Y234668D01*
X374162Y234599D01*
X374689Y232289D01*
X374718Y232225D01*
X374739Y232157D01*
X374760Y232132D01*
X374771Y232106D01*
X374809Y232071D01*
X374853Y232017D01*
X374857Y232014D01*
X374905Y231367D01*
X374915Y231333D01*
X374917Y231292D01*
X375061Y230659D01*
X375058Y230654D01*
X375033Y230588D01*
X375000Y230526D01*
X374997Y230493D01*
X374987Y230467D01*
X374989Y230415D01*
X374982Y230347D01*
X375084Y228988D01*
X375107Y228905D01*
X375126Y228820D01*
X375134Y228809D01*
X375138Y228795D01*
X375191Y228727D01*
X375242Y228657D01*
X375254Y228649D01*
X375262Y228638D01*
X375338Y228597D01*
X375412Y228551D01*
X375427Y228548D01*
X375438Y228542D01*
X375494Y228536D01*
X375589Y228519D01*
X413420Y228519D01*
X413304Y227041D01*
X413308Y227013D01*
X413303Y226985D01*
X413320Y226915D01*
X413329Y226844D01*
X413343Y226819D01*
X413349Y226792D01*
X413392Y226734D01*
X413428Y226671D01*
X413450Y226655D01*
X413467Y226632D01*
X413529Y226595D01*
X413587Y226552D01*
X413614Y226545D01*
X413638Y226530D01*
X413739Y226513D01*
X413779Y226503D01*
X413790Y226505D01*
X413802Y226503D01*
X432802Y226503D01*
X432831Y226509D01*
G37*
G36*
X373229Y226508D02*
X373229Y226508D01*
X373256Y226506D01*
X373325Y226528D01*
X373397Y226542D01*
X373419Y226558D01*
X373445Y226566D01*
X373501Y226614D01*
X373561Y226655D01*
X373575Y226678D01*
X373596Y226696D01*
X373629Y226761D01*
X373668Y226822D01*
X373672Y226849D01*
X373684Y226874D01*
X373694Y226978D01*
X373701Y227019D01*
X373699Y227028D01*
X373700Y227039D01*
X373398Y231063D01*
X373390Y231094D01*
X373387Y231137D01*
X372489Y235071D01*
X372476Y235100D01*
X372467Y235143D01*
X370993Y238899D01*
X370976Y238926D01*
X370961Y238967D01*
X368943Y242461D01*
X368922Y242485D01*
X368901Y242523D01*
X366385Y245678D01*
X366360Y245698D01*
X366334Y245733D01*
X363376Y248477D01*
X363349Y248494D01*
X363317Y248524D01*
X359983Y250797D01*
X359954Y250810D01*
X359919Y250835D01*
X356283Y252585D01*
X356252Y252593D01*
X356213Y252613D01*
X352357Y253802D01*
X352326Y253805D01*
X352284Y253819D01*
X348294Y254420D01*
X348262Y254419D01*
X348220Y254426D01*
X344184Y254426D01*
X344153Y254419D01*
X344110Y254420D01*
X340120Y253819D01*
X340090Y253808D01*
X340047Y253802D01*
X336191Y252613D01*
X336163Y252597D01*
X336121Y252585D01*
X332485Y250835D01*
X332460Y250815D01*
X332421Y250797D01*
X329087Y248524D01*
X329064Y248501D01*
X329028Y248477D01*
X326070Y245733D01*
X326052Y245707D01*
X326019Y245678D01*
X323503Y242523D01*
X323489Y242495D01*
X323461Y242461D01*
X321443Y238967D01*
X321433Y238936D01*
X321411Y238899D01*
X319937Y235143D01*
X319931Y235111D01*
X319915Y235071D01*
X319017Y231137D01*
X319016Y231105D01*
X319006Y231063D01*
X318704Y227039D01*
X318708Y227012D01*
X318703Y226985D01*
X318720Y226915D01*
X318729Y226842D01*
X318743Y226818D01*
X318749Y226792D01*
X318792Y226733D01*
X318829Y226670D01*
X318851Y226654D01*
X318867Y226632D01*
X318930Y226595D01*
X318988Y226551D01*
X319015Y226544D01*
X319038Y226530D01*
X319142Y226513D01*
X319181Y226503D01*
X319191Y226505D01*
X319202Y226503D01*
X373202Y226503D01*
X373229Y226508D01*
G37*
G36*
X417500Y415193D02*
X417500Y415193D01*
X417543Y415191D01*
X421548Y415676D01*
X421579Y415686D01*
X421622Y415690D01*
X425510Y416766D01*
X425538Y416781D01*
X425580Y416792D01*
X429265Y418435D01*
X429290Y418454D01*
X429330Y418471D01*
X432729Y420645D01*
X432751Y420667D01*
X432788Y420690D01*
X435824Y423347D01*
X435844Y423372D01*
X435877Y423400D01*
X438483Y426479D01*
X438496Y426503D01*
X438516Y426522D01*
X438544Y426590D01*
X438579Y426654D01*
X438582Y426681D01*
X438592Y426706D01*
X438591Y426779D01*
X438599Y426852D01*
X438591Y426878D01*
X438591Y426905D01*
X438562Y426972D01*
X438540Y427042D01*
X438522Y427062D01*
X438512Y427087D01*
X438438Y427163D01*
X438412Y427194D01*
X438403Y427198D01*
X438395Y427206D01*
X394695Y458906D01*
X394670Y458917D01*
X394650Y458935D01*
X394581Y458958D01*
X394514Y458989D01*
X394487Y458989D01*
X394461Y458998D01*
X394388Y458992D01*
X394315Y458994D01*
X394290Y458984D01*
X394263Y458982D01*
X394198Y458948D01*
X394130Y458921D01*
X394111Y458902D01*
X394087Y458889D01*
X394017Y458810D01*
X393988Y458782D01*
X393985Y458773D01*
X393977Y458764D01*
X391859Y455331D01*
X391848Y455301D01*
X391825Y455264D01*
X390242Y451553D01*
X390235Y451522D01*
X390218Y451483D01*
X389206Y447577D01*
X389204Y447545D01*
X389192Y447504D01*
X388774Y443491D01*
X388777Y443459D01*
X388771Y443417D01*
X388955Y439386D01*
X388963Y439356D01*
X388964Y439312D01*
X389747Y435354D01*
X389759Y435325D01*
X389767Y435283D01*
X391131Y431486D01*
X391141Y431469D01*
X391145Y431453D01*
X391153Y431441D01*
X391161Y431417D01*
X393075Y427866D01*
X393096Y427842D01*
X393116Y427803D01*
X395538Y424577D01*
X395562Y424556D01*
X395587Y424521D01*
X398463Y421692D01*
X398490Y421674D01*
X398520Y421643D01*
X401786Y419275D01*
X401815Y419261D01*
X401850Y419235D01*
X405432Y417380D01*
X405463Y417371D01*
X405500Y417350D01*
X409319Y416049D01*
X409351Y416045D01*
X409392Y416030D01*
X413362Y415313D01*
X413394Y415314D01*
X413436Y415305D01*
X417469Y415188D01*
X417500Y415193D01*
G37*
G36*
X278968Y415305D02*
X278968Y415305D01*
X278999Y415313D01*
X279042Y415313D01*
X283012Y416030D01*
X283042Y416042D01*
X283085Y416049D01*
X286904Y417350D01*
X286931Y417366D01*
X286972Y417380D01*
X290554Y419235D01*
X290579Y419255D01*
X290618Y419275D01*
X293884Y421643D01*
X293905Y421667D01*
X293941Y421692D01*
X296817Y424521D01*
X296835Y424547D01*
X296866Y424577D01*
X299288Y427803D01*
X299302Y427832D01*
X299329Y427866D01*
X301243Y431417D01*
X301252Y431448D01*
X301269Y431479D01*
X301272Y431483D01*
X301272Y431484D01*
X301273Y431486D01*
X302637Y435283D01*
X302642Y435314D01*
X302657Y435354D01*
X303440Y439312D01*
X303440Y439344D01*
X303449Y439386D01*
X303633Y443417D01*
X303628Y443448D01*
X303631Y443491D01*
X303212Y447504D01*
X303202Y447534D01*
X303199Y447577D01*
X302186Y451483D01*
X302172Y451511D01*
X302162Y451553D01*
X300580Y455264D01*
X300561Y455290D01*
X300545Y455331D01*
X298427Y458764D01*
X298408Y458784D01*
X298396Y458808D01*
X298341Y458856D01*
X298291Y458909D01*
X298266Y458920D01*
X298245Y458938D01*
X298176Y458960D01*
X298109Y458990D01*
X298082Y458990D01*
X298056Y458998D01*
X297983Y458992D01*
X297910Y458993D01*
X297885Y458983D01*
X297858Y458980D01*
X297764Y458933D01*
X297726Y458918D01*
X297719Y458911D01*
X297709Y458906D01*
X254009Y427206D01*
X253990Y427186D01*
X253967Y427172D01*
X253924Y427113D01*
X253874Y427060D01*
X253865Y427034D01*
X253849Y427012D01*
X253832Y426941D01*
X253808Y426872D01*
X253809Y426845D01*
X253803Y426819D01*
X253815Y426747D01*
X253820Y426674D01*
X253832Y426650D01*
X253836Y426623D01*
X253890Y426532D01*
X253908Y426496D01*
X253915Y426490D01*
X253921Y426479D01*
X256527Y423400D01*
X256552Y423380D01*
X256580Y423347D01*
X259616Y420690D01*
X259643Y420674D01*
X259676Y420645D01*
X263074Y418471D01*
X263104Y418459D01*
X263139Y418435D01*
X266824Y416792D01*
X266855Y416785D01*
X266894Y416766D01*
X270782Y415690D01*
X270814Y415688D01*
X270856Y415676D01*
X274861Y415191D01*
X274893Y415194D01*
X274935Y415188D01*
X278968Y415305D01*
G37*
G36*
X241202Y283207D02*
X241202Y283207D01*
X241229Y283204D01*
X241332Y283227D01*
X241372Y283233D01*
X241380Y283238D01*
X241392Y283240D01*
X245121Y284771D01*
X245148Y284789D01*
X245188Y284805D01*
X248648Y286874D01*
X248671Y286896D01*
X248709Y286917D01*
X251822Y289480D01*
X251842Y289504D01*
X251875Y289531D01*
X254571Y292529D01*
X254588Y292556D01*
X254617Y292588D01*
X256836Y295954D01*
X256848Y295983D01*
X256873Y296019D01*
X258565Y299678D01*
X258573Y299709D01*
X258591Y299748D01*
X259720Y303619D01*
X259722Y303650D01*
X259735Y303692D01*
X260274Y307687D01*
X260272Y307719D01*
X260279Y307762D01*
X260216Y311793D01*
X260209Y311824D01*
X260209Y311867D01*
X259547Y315844D01*
X259535Y315874D01*
X259529Y315916D01*
X258281Y319750D01*
X258265Y319778D01*
X258253Y319819D01*
X256447Y323424D01*
X256428Y323449D01*
X256409Y323488D01*
X254086Y326783D01*
X254063Y326805D01*
X254039Y326841D01*
X251251Y329754D01*
X251225Y329772D01*
X251196Y329803D01*
X248005Y332268D01*
X247976Y332282D01*
X247943Y332309D01*
X244420Y334270D01*
X244390Y334280D01*
X244353Y334302D01*
X240577Y335716D01*
X240546Y335721D01*
X240506Y335737D01*
X236562Y336573D01*
X236530Y336573D01*
X236488Y336583D01*
X232463Y336822D01*
X232432Y336818D01*
X232388Y336821D01*
X228373Y336457D01*
X228343Y336448D01*
X228300Y336445D01*
X224383Y335487D01*
X224359Y335475D01*
X224332Y335471D01*
X224270Y335433D01*
X224204Y335402D01*
X224185Y335382D01*
X224162Y335368D01*
X224120Y335308D01*
X224071Y335254D01*
X224062Y335228D01*
X224046Y335206D01*
X224030Y335135D01*
X224007Y335066D01*
X224009Y335039D01*
X224003Y335012D01*
X224018Y334908D01*
X224021Y334867D01*
X224026Y334859D01*
X224027Y334847D01*
X240727Y283547D01*
X240741Y283524D01*
X240747Y283497D01*
X240789Y283438D01*
X240825Y283374D01*
X240847Y283358D01*
X240863Y283336D01*
X240925Y283298D01*
X240983Y283253D01*
X241009Y283247D01*
X241033Y283232D01*
X241105Y283222D01*
X241175Y283203D01*
X241202Y283207D01*
G37*
G36*
X451234Y283209D02*
X451234Y283209D01*
X451261Y283206D01*
X451331Y283229D01*
X451402Y283245D01*
X451424Y283260D01*
X451450Y283269D01*
X451505Y283317D01*
X451565Y283359D01*
X451579Y283382D01*
X451600Y283400D01*
X451648Y283493D01*
X451670Y283528D01*
X451671Y283537D01*
X451677Y283547D01*
X468377Y334847D01*
X468380Y334874D01*
X468391Y334899D01*
X468391Y334973D01*
X468399Y335045D01*
X468392Y335071D01*
X468392Y335098D01*
X468364Y335166D01*
X468343Y335236D01*
X468326Y335257D01*
X468315Y335282D01*
X468263Y335333D01*
X468217Y335389D01*
X468193Y335402D01*
X468173Y335421D01*
X468077Y335463D01*
X468041Y335482D01*
X468031Y335482D01*
X468021Y335487D01*
X464104Y336445D01*
X464073Y336446D01*
X464031Y336457D01*
X460016Y336821D01*
X459984Y336817D01*
X459941Y336822D01*
X455916Y336583D01*
X455886Y336575D01*
X455842Y336573D01*
X451898Y335737D01*
X451869Y335724D01*
X451827Y335716D01*
X448051Y334302D01*
X448024Y334285D01*
X447984Y334270D01*
X444461Y332309D01*
X444437Y332288D01*
X444399Y332268D01*
X441208Y329803D01*
X441187Y329779D01*
X441153Y329754D01*
X438365Y326841D01*
X438348Y326814D01*
X438318Y326783D01*
X435995Y323488D01*
X435982Y323459D01*
X435957Y323424D01*
X434151Y319819D01*
X434143Y319788D01*
X434123Y319750D01*
X432875Y315916D01*
X432871Y315885D01*
X432857Y315844D01*
X432195Y311867D01*
X432196Y311835D01*
X432188Y311793D01*
X432125Y307762D01*
X432131Y307730D01*
X432130Y307687D01*
X432669Y303692D01*
X432679Y303661D01*
X432684Y303619D01*
X433813Y299748D01*
X433827Y299720D01*
X433839Y299678D01*
X435531Y296019D01*
X435550Y295993D01*
X435568Y295954D01*
X437787Y292588D01*
X437809Y292565D01*
X437833Y292529D01*
X440529Y289531D01*
X440554Y289512D01*
X440583Y289480D01*
X443695Y286917D01*
X443723Y286902D01*
X443756Y286874D01*
X447216Y284805D01*
X447246Y284794D01*
X447283Y284771D01*
X451012Y283240D01*
X451039Y283235D01*
X451063Y283222D01*
X451136Y283217D01*
X451208Y283203D01*
X451234Y283209D01*
G37*
%LPC*%
G36*
X305700Y360907D02*
X305700Y360907D01*
X291845Y374762D01*
X291845Y411368D01*
X303155Y422677D01*
X303159Y422684D01*
X303165Y422688D01*
X303214Y422767D01*
X303266Y422844D01*
X303267Y422852D01*
X303271Y422858D01*
X303303Y423036D01*
X303303Y426378D01*
X306412Y429487D01*
X308677Y429487D01*
X308684Y429488D01*
X308692Y429487D01*
X308782Y429508D01*
X308873Y429526D01*
X308880Y429531D01*
X308887Y429533D01*
X309035Y429635D01*
X312399Y432999D01*
X312403Y433005D01*
X312410Y433010D01*
X312458Y433088D01*
X312510Y433166D01*
X312511Y433173D01*
X312515Y433180D01*
X312547Y433357D01*
X312547Y437745D01*
X314905Y440103D01*
X329239Y440103D01*
X331597Y437745D01*
X331597Y429411D01*
X329239Y427053D01*
X316723Y427053D01*
X316716Y427052D01*
X316708Y427053D01*
X316618Y427032D01*
X316527Y427014D01*
X316520Y427009D01*
X316513Y427007D01*
X316365Y426905D01*
X314065Y424605D01*
X314061Y424599D01*
X314055Y424594D01*
X314006Y424516D01*
X313954Y424438D01*
X313953Y424431D01*
X313949Y424424D01*
X313917Y424247D01*
X313917Y421982D01*
X310808Y418873D01*
X307466Y418873D01*
X307458Y418872D01*
X307450Y418873D01*
X307360Y418852D01*
X307269Y418834D01*
X307263Y418829D01*
X307255Y418827D01*
X307107Y418725D01*
X297583Y409201D01*
X297579Y409194D01*
X297573Y409190D01*
X297524Y409111D01*
X297472Y409034D01*
X297471Y409026D01*
X297467Y409020D01*
X297435Y408842D01*
X297435Y377288D01*
X297436Y377280D01*
X297435Y377272D01*
X297456Y377182D01*
X297474Y377091D01*
X297479Y377085D01*
X297481Y377077D01*
X297583Y376929D01*
X307867Y366645D01*
X307874Y366641D01*
X307878Y366635D01*
X307957Y366586D01*
X308034Y366534D01*
X308042Y366533D01*
X308048Y366529D01*
X308226Y366497D01*
X312979Y366497D01*
X313090Y366477D01*
X315467Y366477D01*
X316727Y365217D01*
X316727Y362187D01*
X315467Y360927D01*
X313090Y360927D01*
X313082Y360926D01*
X313074Y360927D01*
X312989Y360907D01*
X305700Y360907D01*
G37*
%LPD*%
D10*
X440980Y378411D03*
X440980Y395411D03*
D11*
X377827Y374327D02*
X377827Y373077D01*
X377827Y374327D02*
X383577Y374327D01*
X383577Y373077D01*
X377827Y373077D01*
X377827Y374264D02*
X383577Y374264D01*
X377827Y369327D02*
X377827Y368077D01*
X377827Y369327D02*
X383577Y369327D01*
X383577Y368077D01*
X377827Y368077D01*
X377827Y369264D02*
X383577Y369264D01*
X377827Y364327D02*
X377827Y363077D01*
X377827Y364327D02*
X383577Y364327D01*
X383577Y363077D01*
X377827Y363077D01*
X377827Y364264D02*
X383577Y364264D01*
X377827Y359327D02*
X377827Y358077D01*
X377827Y359327D02*
X383577Y359327D01*
X383577Y358077D01*
X377827Y358077D01*
X377827Y359264D02*
X383577Y359264D01*
X377827Y354327D02*
X377827Y353077D01*
X377827Y354327D02*
X383577Y354327D01*
X383577Y353077D01*
X377827Y353077D01*
X377827Y354264D02*
X383577Y354264D01*
X377827Y349327D02*
X377827Y348077D01*
X377827Y349327D02*
X383577Y349327D01*
X383577Y348077D01*
X377827Y348077D01*
X377827Y349264D02*
X383577Y349264D01*
X377827Y344327D02*
X377827Y343077D01*
X377827Y344327D02*
X383577Y344327D01*
X383577Y343077D01*
X377827Y343077D01*
X377827Y344264D02*
X383577Y344264D01*
X377827Y339327D02*
X377827Y338077D01*
X377827Y339327D02*
X383577Y339327D01*
X383577Y338077D01*
X377827Y338077D01*
X377827Y339264D02*
X383577Y339264D01*
X377827Y334327D02*
X377827Y333077D01*
X377827Y334327D02*
X383577Y334327D01*
X383577Y333077D01*
X377827Y333077D01*
X377827Y334264D02*
X383577Y334264D01*
X377827Y329327D02*
X377827Y328077D01*
X377827Y329327D02*
X383577Y329327D01*
X383577Y328077D01*
X377827Y328077D01*
X377827Y329264D02*
X383577Y329264D01*
X377827Y324327D02*
X377827Y323077D01*
X377827Y324327D02*
X383577Y324327D01*
X383577Y323077D01*
X377827Y323077D01*
X377827Y324264D02*
X383577Y324264D01*
X377827Y319327D02*
X377827Y318077D01*
X377827Y319327D02*
X383577Y319327D01*
X383577Y318077D01*
X377827Y318077D01*
X377827Y319264D02*
X383577Y319264D01*
X374327Y314577D02*
X373077Y314577D01*
X374327Y314577D02*
X374327Y308827D01*
X373077Y308827D01*
X373077Y314577D01*
X373077Y310014D02*
X374327Y310014D01*
X374327Y311201D02*
X373077Y311201D01*
X373077Y312388D02*
X374327Y312388D01*
X374327Y313575D02*
X373077Y313575D01*
X369327Y314577D02*
X368077Y314577D01*
X369327Y314577D02*
X369327Y308827D01*
X368077Y308827D01*
X368077Y314577D01*
X368077Y310014D02*
X369327Y310014D01*
X369327Y311201D02*
X368077Y311201D01*
X368077Y312388D02*
X369327Y312388D01*
X369327Y313575D02*
X368077Y313575D01*
X364327Y314577D02*
X363077Y314577D01*
X364327Y314577D02*
X364327Y308827D01*
X363077Y308827D01*
X363077Y314577D01*
X363077Y310014D02*
X364327Y310014D01*
X364327Y311201D02*
X363077Y311201D01*
X363077Y312388D02*
X364327Y312388D01*
X364327Y313575D02*
X363077Y313575D01*
X359327Y314577D02*
X358077Y314577D01*
X359327Y314577D02*
X359327Y308827D01*
X358077Y308827D01*
X358077Y314577D01*
X358077Y310014D02*
X359327Y310014D01*
X359327Y311201D02*
X358077Y311201D01*
X358077Y312388D02*
X359327Y312388D01*
X359327Y313575D02*
X358077Y313575D01*
X354327Y314577D02*
X353077Y314577D01*
X354327Y314577D02*
X354327Y308827D01*
X353077Y308827D01*
X353077Y314577D01*
X353077Y310014D02*
X354327Y310014D01*
X354327Y311201D02*
X353077Y311201D01*
X353077Y312388D02*
X354327Y312388D01*
X354327Y313575D02*
X353077Y313575D01*
X349327Y314577D02*
X348077Y314577D01*
X349327Y314577D02*
X349327Y308827D01*
X348077Y308827D01*
X348077Y314577D01*
X348077Y310014D02*
X349327Y310014D01*
X349327Y311201D02*
X348077Y311201D01*
X348077Y312388D02*
X349327Y312388D01*
X349327Y313575D02*
X348077Y313575D01*
X344327Y314577D02*
X343077Y314577D01*
X344327Y314577D02*
X344327Y308827D01*
X343077Y308827D01*
X343077Y314577D01*
X343077Y310014D02*
X344327Y310014D01*
X344327Y311201D02*
X343077Y311201D01*
X343077Y312388D02*
X344327Y312388D01*
X344327Y313575D02*
X343077Y313575D01*
X339327Y314577D02*
X338077Y314577D01*
X339327Y314577D02*
X339327Y308827D01*
X338077Y308827D01*
X338077Y314577D01*
X338077Y310014D02*
X339327Y310014D01*
X339327Y311201D02*
X338077Y311201D01*
X338077Y312388D02*
X339327Y312388D01*
X339327Y313575D02*
X338077Y313575D01*
X334327Y314577D02*
X333077Y314577D01*
X334327Y314577D02*
X334327Y308827D01*
X333077Y308827D01*
X333077Y314577D01*
X333077Y310014D02*
X334327Y310014D01*
X334327Y311201D02*
X333077Y311201D01*
X333077Y312388D02*
X334327Y312388D01*
X334327Y313575D02*
X333077Y313575D01*
X329327Y314577D02*
X328077Y314577D01*
X329327Y314577D02*
X329327Y308827D01*
X328077Y308827D01*
X328077Y314577D01*
X328077Y310014D02*
X329327Y310014D01*
X329327Y311201D02*
X328077Y311201D01*
X328077Y312388D02*
X329327Y312388D01*
X329327Y313575D02*
X328077Y313575D01*
X324327Y314577D02*
X323077Y314577D01*
X324327Y314577D02*
X324327Y308827D01*
X323077Y308827D01*
X323077Y314577D01*
X323077Y310014D02*
X324327Y310014D01*
X324327Y311201D02*
X323077Y311201D01*
X323077Y312388D02*
X324327Y312388D01*
X324327Y313575D02*
X323077Y313575D01*
X319327Y314577D02*
X318077Y314577D01*
X319327Y314577D02*
X319327Y308827D01*
X318077Y308827D01*
X318077Y314577D01*
X318077Y310014D02*
X319327Y310014D01*
X319327Y311201D02*
X318077Y311201D01*
X318077Y312388D02*
X319327Y312388D01*
X319327Y313575D02*
X318077Y313575D01*
X314577Y318077D02*
X314577Y319327D01*
X314577Y318077D02*
X308827Y318077D01*
X308827Y319327D01*
X314577Y319327D01*
X314577Y319264D02*
X308827Y319264D01*
X314577Y323077D02*
X314577Y324327D01*
X314577Y323077D02*
X308827Y323077D01*
X308827Y324327D01*
X314577Y324327D01*
X314577Y324264D02*
X308827Y324264D01*
X314577Y328077D02*
X314577Y329327D01*
X314577Y328077D02*
X308827Y328077D01*
X308827Y329327D01*
X314577Y329327D01*
X314577Y329264D02*
X308827Y329264D01*
X314577Y333077D02*
X314577Y334327D01*
X314577Y333077D02*
X308827Y333077D01*
X308827Y334327D01*
X314577Y334327D01*
X314577Y334264D02*
X308827Y334264D01*
X314577Y338077D02*
X314577Y339327D01*
X314577Y338077D02*
X308827Y338077D01*
X308827Y339327D01*
X314577Y339327D01*
X314577Y339264D02*
X308827Y339264D01*
X314577Y343077D02*
X314577Y344327D01*
X314577Y343077D02*
X308827Y343077D01*
X308827Y344327D01*
X314577Y344327D01*
X314577Y344264D02*
X308827Y344264D01*
X314577Y348077D02*
X314577Y349327D01*
X314577Y348077D02*
X308827Y348077D01*
X308827Y349327D01*
X314577Y349327D01*
X314577Y349264D02*
X308827Y349264D01*
X314577Y353077D02*
X314577Y354327D01*
X314577Y353077D02*
X308827Y353077D01*
X308827Y354327D01*
X314577Y354327D01*
X314577Y354264D02*
X308827Y354264D01*
X314577Y358077D02*
X314577Y359327D01*
X314577Y358077D02*
X308827Y358077D01*
X308827Y359327D01*
X314577Y359327D01*
X314577Y359264D02*
X308827Y359264D01*
X314577Y363077D02*
X314577Y364327D01*
X314577Y363077D02*
X308827Y363077D01*
X308827Y364327D01*
X314577Y364327D01*
X314577Y364264D02*
X308827Y364264D01*
X314577Y368077D02*
X314577Y369327D01*
X314577Y368077D02*
X308827Y368077D01*
X308827Y369327D01*
X314577Y369327D01*
X314577Y369264D02*
X308827Y369264D01*
X314577Y373077D02*
X314577Y374327D01*
X314577Y373077D02*
X308827Y373077D01*
X308827Y374327D01*
X314577Y374327D01*
X314577Y374264D02*
X308827Y374264D01*
X318077Y377827D02*
X319327Y377827D01*
X318077Y377827D02*
X318077Y383577D01*
X319327Y383577D01*
X319327Y377827D01*
X319327Y379014D02*
X318077Y379014D01*
X318077Y380201D02*
X319327Y380201D01*
X319327Y381388D02*
X318077Y381388D01*
X318077Y382575D02*
X319327Y382575D01*
X323077Y377827D02*
X324327Y377827D01*
X323077Y377827D02*
X323077Y383577D01*
X324327Y383577D01*
X324327Y377827D01*
X324327Y379014D02*
X323077Y379014D01*
X323077Y380201D02*
X324327Y380201D01*
X324327Y381388D02*
X323077Y381388D01*
X323077Y382575D02*
X324327Y382575D01*
X328077Y377827D02*
X329327Y377827D01*
X328077Y377827D02*
X328077Y383577D01*
X329327Y383577D01*
X329327Y377827D01*
X329327Y379014D02*
X328077Y379014D01*
X328077Y380201D02*
X329327Y380201D01*
X329327Y381388D02*
X328077Y381388D01*
X328077Y382575D02*
X329327Y382575D01*
X333077Y377827D02*
X334327Y377827D01*
X333077Y377827D02*
X333077Y383577D01*
X334327Y383577D01*
X334327Y377827D01*
X334327Y379014D02*
X333077Y379014D01*
X333077Y380201D02*
X334327Y380201D01*
X334327Y381388D02*
X333077Y381388D01*
X333077Y382575D02*
X334327Y382575D01*
X338077Y377827D02*
X339327Y377827D01*
X338077Y377827D02*
X338077Y383577D01*
X339327Y383577D01*
X339327Y377827D01*
X339327Y379014D02*
X338077Y379014D01*
X338077Y380201D02*
X339327Y380201D01*
X339327Y381388D02*
X338077Y381388D01*
X338077Y382575D02*
X339327Y382575D01*
X343077Y377827D02*
X344327Y377827D01*
X343077Y377827D02*
X343077Y383577D01*
X344327Y383577D01*
X344327Y377827D01*
X344327Y379014D02*
X343077Y379014D01*
X343077Y380201D02*
X344327Y380201D01*
X344327Y381388D02*
X343077Y381388D01*
X343077Y382575D02*
X344327Y382575D01*
X348077Y377827D02*
X349327Y377827D01*
X348077Y377827D02*
X348077Y383577D01*
X349327Y383577D01*
X349327Y377827D01*
X349327Y379014D02*
X348077Y379014D01*
X348077Y380201D02*
X349327Y380201D01*
X349327Y381388D02*
X348077Y381388D01*
X348077Y382575D02*
X349327Y382575D01*
X353077Y377827D02*
X354327Y377827D01*
X353077Y377827D02*
X353077Y383577D01*
X354327Y383577D01*
X354327Y377827D01*
X354327Y379014D02*
X353077Y379014D01*
X353077Y380201D02*
X354327Y380201D01*
X354327Y381388D02*
X353077Y381388D01*
X353077Y382575D02*
X354327Y382575D01*
X358077Y377827D02*
X359327Y377827D01*
X358077Y377827D02*
X358077Y383577D01*
X359327Y383577D01*
X359327Y377827D01*
X359327Y379014D02*
X358077Y379014D01*
X358077Y380201D02*
X359327Y380201D01*
X359327Y381388D02*
X358077Y381388D01*
X358077Y382575D02*
X359327Y382575D01*
X363077Y377827D02*
X364327Y377827D01*
X363077Y377827D02*
X363077Y383577D01*
X364327Y383577D01*
X364327Y377827D01*
X364327Y379014D02*
X363077Y379014D01*
X363077Y380201D02*
X364327Y380201D01*
X364327Y381388D02*
X363077Y381388D01*
X363077Y382575D02*
X364327Y382575D01*
X368077Y377827D02*
X369327Y377827D01*
X368077Y377827D02*
X368077Y383577D01*
X369327Y383577D01*
X369327Y377827D01*
X369327Y379014D02*
X368077Y379014D01*
X368077Y380201D02*
X369327Y380201D01*
X369327Y381388D02*
X368077Y381388D01*
X368077Y382575D02*
X369327Y382575D01*
X373077Y377827D02*
X374327Y377827D01*
X373077Y377827D02*
X373077Y383577D01*
X374327Y383577D01*
X374327Y377827D01*
X374327Y379014D02*
X373077Y379014D01*
X373077Y380201D02*
X374327Y380201D01*
X374327Y381388D02*
X373077Y381388D01*
X373077Y382575D02*
X374327Y382575D01*
D12*
X346202Y346202D03*
D13*
X404335Y369360D03*
X404335Y357360D03*
X404335Y345360D03*
D14*
X352100Y411972D03*
X352100Y394972D03*
D15*
X277942Y312893D03*
X277942Y293893D03*
X414843Y385079D03*
X414843Y404079D03*
D14*
X393244Y319174D03*
X410244Y319174D03*
D10*
X373883Y395124D03*
X373883Y412124D03*
X306906Y388545D03*
X306906Y405545D03*
X298227Y307824D03*
X298227Y290824D03*
X395846Y382419D03*
X395846Y399419D03*
G36*
X432434Y341481D02*
X439505Y348552D01*
X447282Y340775D01*
X440211Y333704D01*
X432434Y341481D01*
G37*
G36*
X420413Y329460D02*
X427484Y336531D01*
X435261Y328754D01*
X428190Y321683D01*
X420413Y329460D01*
G37*
D16*
X327572Y431078D02*
X316572Y431078D01*
X316572Y436078D01*
X327572Y436078D01*
X327572Y431078D01*
X327572Y435828D02*
X316572Y435828D01*
X316572Y461478D02*
X327572Y461478D01*
X327572Y456478D01*
X316572Y456478D01*
X316572Y461478D01*
X316572Y461228D02*
X327572Y461228D01*
X360006Y454620D02*
X371006Y454620D01*
X371006Y449620D01*
X360006Y449620D01*
X360006Y454620D01*
X360006Y454370D02*
X371006Y454370D01*
X435602Y364653D02*
X446602Y364653D01*
X446602Y359653D01*
X435602Y359653D01*
X435602Y364653D01*
X435602Y364403D02*
X446602Y364403D01*
D17*
X346202Y486702D03*
X479802Y389602D03*
X428802Y232502D03*
X263602Y232502D03*
X212602Y389602D03*
X413002Y438202D03*
X454302Y311102D03*
X346202Y232502D03*
X238102Y311102D03*
X279402Y438202D03*
D18*
X339090Y346710D03*
X350520Y346710D03*
X415290Y332740D03*
X422910Y289560D03*
X251460Y356870D03*
D19*
X277942Y312893D02*
X287504Y312740D01*
D20*
X295676Y311702D02*
X318702Y311702D01*
X373702Y380702D02*
X373702Y394943D01*
X373883Y395124D01*
X389419Y382419D02*
X380702Y373702D01*
X389419Y382419D02*
X395846Y382419D01*
D19*
X412183Y382419D02*
X414843Y385079D01*
D18*
X403860Y382270D03*
D20*
X380702Y373702D02*
X373702Y380702D01*
D18*
X307340Y381000D03*
X294640Y321310D03*
D19*
X412035Y382270D02*
X414843Y385079D01*
X412035Y382270D02*
X403860Y382270D01*
X395995Y382270D01*
X395846Y382419D01*
X293311Y312740D02*
X287504Y312740D01*
X293311Y312740D02*
X298227Y307824D01*
X294640Y314069D02*
X294640Y321310D01*
X294640Y314069D02*
X293311Y312740D01*
X298227Y309151D02*
X298227Y307824D01*
X298227Y309151D02*
X295676Y311702D01*
D20*
X311702Y373702D02*
X311702Y376638D01*
X307340Y381000D01*
X307340Y388111D01*
X306906Y388545D01*
X333702Y311702D02*
X333702Y298142D01*
X309880Y274320D01*
X262890Y274320D01*
X254000Y283210D01*
D18*
X254000Y283210D03*
D20*
X291298Y343702D02*
X311702Y343702D01*
X291298Y343702D02*
X269240Y365760D01*
X269240Y406400D01*
D18*
X269240Y406400D03*
D20*
X328702Y311702D02*
X328702Y302032D01*
X307340Y280670D01*
X268534Y280670D01*
X238102Y311102D01*
X296458Y348702D02*
X311702Y348702D01*
X296458Y348702D02*
X279400Y365760D01*
X279400Y438200D01*
X279402Y438202D01*
D21*
X301618Y353702D02*
X311702Y353702D01*
X301618Y353702D02*
X287020Y368300D01*
D18*
X287020Y368300D03*
X390140Y327910D03*
D20*
X387250Y330801D02*
X387250Y330848D01*
X387250Y330801D02*
X390140Y327910D01*
X393244Y324807D01*
X393244Y319174D01*
X384396Y333702D02*
X380702Y333702D01*
X384396Y333702D02*
X387250Y330848D01*
X328702Y380702D02*
X328702Y411368D01*
X352944Y435610D02*
X381000Y435610D01*
D18*
X381000Y435610D03*
D20*
X352944Y435610D02*
X328702Y411368D01*
X333702Y408632D02*
X333702Y380702D01*
X402790Y427990D02*
X413002Y438202D01*
X353060Y427990D02*
X333702Y408632D01*
X353060Y427990D02*
X402790Y427990D01*
X386722Y353702D02*
X380702Y353702D01*
D22*
X402380Y369360D02*
X404335Y369360D01*
D20*
X402380Y369360D02*
X386722Y353702D01*
X380702Y348702D02*
X395518Y348702D01*
X398860Y345360D02*
X404335Y345360D01*
X398860Y345360D02*
X395518Y348702D01*
X353702Y380702D02*
X353702Y393369D01*
X352100Y394972D01*
X363220Y406092D01*
X363220Y420370D01*
D18*
X363220Y420370D03*
D20*
X363220Y449834D02*
X365506Y452120D01*
X363220Y449834D02*
X363220Y442440D01*
D18*
X363220Y442440D03*
D20*
X380702Y343702D02*
X392898Y343702D01*
X394287Y342313D01*
X394287Y342098D01*
X396073Y340312D01*
X396288Y340312D01*
X398780Y337820D02*
X410210Y337820D01*
X428193Y355803D01*
X398780Y337820D02*
X396288Y340312D01*
X434543Y362153D02*
X441102Y362153D01*
X434543Y362153D02*
X428193Y355803D01*
X440980Y362275D02*
X440980Y378411D01*
X440980Y362275D02*
X441102Y362153D01*
D18*
X428193Y355803D03*
D20*
X389008Y338702D02*
X380702Y338702D01*
X410244Y321714D02*
X410244Y319174D01*
X410244Y321714D02*
X402624Y329334D01*
X398376Y329334D01*
X389008Y338702D01*
D18*
X402624Y329334D03*
D23*
X410244Y319174D02*
X417904Y319174D01*
X427837Y329107D01*
D20*
X380702Y318702D02*
X380702Y308908D01*
X383540Y306070D01*
X424970Y306070D01*
X425450Y306550D01*
D18*
X425450Y306550D03*
D20*
X368702Y311702D02*
X368702Y272182D01*
X356870Y260350D01*
D18*
X356870Y260350D03*
D20*
X373702Y305748D02*
X373702Y311702D01*
X373702Y305748D02*
X379730Y299720D01*
X442920Y299720D01*
X454302Y311102D01*
X363702Y311702D02*
X363702Y281152D01*
X346710Y264160D01*
X346710Y233010D01*
X346202Y232502D01*
D21*
X311702Y363702D02*
X306858Y363702D01*
X294640Y375920D01*
X294640Y410210D01*
X308610Y424180D01*
D18*
X308610Y424180D03*
D23*
X318008Y433578D01*
X322072Y433578D01*
D21*
X318702Y408872D02*
X318702Y380702D01*
X318702Y408872D02*
X339090Y429260D01*
D18*
X335280Y449580D03*
D21*
X339090Y445770D01*
X339090Y429260D01*
D23*
X335280Y449580D02*
X325882Y458978D01*
X322072Y458978D01*
D21*
X311702Y323702D02*
X304948Y323702D01*
X298450Y330200D01*
X288290Y330200D01*
D18*
X288290Y330200D03*
D21*
X338702Y311702D02*
X338702Y305188D01*
X341630Y302260D01*
D18*
X341630Y302260D03*
D21*
X348702Y300268D02*
X348702Y311702D01*
X348702Y300268D02*
X351790Y297180D01*
D18*
X351790Y297180D03*
D21*
X311702Y328702D02*
X307568Y328702D01*
X299398Y336872D02*
X296546Y336872D01*
D18*
X296546Y336872D03*
D21*
X299398Y336872D02*
X307568Y328702D01*
M02*
