G04 EAGLE Gerber RS-274X export*
G75*
%MOMM*%
%FSLAX34Y34*%
%LPD*%
%INBottom Copper*%
%IPPOS*%
%AMOC8*
5,1,8,0,0,1.08239X$1,22.5*%
G01*
%ADD10R,1.100000X1.000000*%
%ADD11R,0.700000X0.900000*%
%ADD12P,1.649562X8X22.500000*%
%ADD13C,1.524000*%
%ADD14R,0.900000X0.700000*%
%ADD15R,0.550000X0.254000*%
%ADD16R,0.254000X0.550000*%
%ADD17R,5.600000X5.600000*%
%ADD18R,1.399997X0.400000*%
%ADD19R,0.350000X0.600000*%
%ADD20R,0.600000X0.350000*%
%ADD21R,2.100000X2.100000*%
%ADD22R,0.800000X0.500000*%
%ADD23C,0.800000*%
%ADD24C,0.750000*%
%ADD25C,0.812800*%
%ADD26C,0.254000*%
%ADD27C,0.406400*%
%ADD28C,0.550000*%
%ADD29C,0.152400*%
%ADD30C,0.508000*%
%ADD31C,0.609600*%
%ADD32C,0.600000*%
%ADD33C,0.304800*%

G36*
X-49841Y54951D02*
X-49841Y54951D01*
X-49822Y54949D01*
X-49720Y54971D01*
X-49618Y54987D01*
X-49601Y54997D01*
X-49581Y55001D01*
X-49492Y55054D01*
X-49401Y55103D01*
X-49387Y55117D01*
X-49370Y55127D01*
X-49303Y55206D01*
X-49231Y55281D01*
X-49223Y55299D01*
X-49210Y55314D01*
X-49171Y55410D01*
X-49128Y55504D01*
X-49126Y55524D01*
X-49118Y55542D01*
X-49100Y55709D01*
X-49100Y60007D01*
X-49073Y60034D01*
X-49020Y60108D01*
X-48960Y60177D01*
X-48948Y60207D01*
X-48929Y60233D01*
X-48902Y60320D01*
X-48871Y60399D01*
X-46346Y62924D01*
X-42804Y62924D01*
X-40649Y60769D01*
X-40591Y60727D01*
X-40539Y60677D01*
X-40492Y60655D01*
X-40450Y60625D01*
X-40381Y60604D01*
X-40316Y60574D01*
X-40264Y60568D01*
X-40214Y60553D01*
X-40143Y60555D01*
X-40072Y60547D01*
X-40021Y60558D01*
X-39969Y60559D01*
X-39901Y60584D01*
X-39831Y60599D01*
X-39786Y60626D01*
X-39738Y60644D01*
X-39682Y60688D01*
X-39620Y60725D01*
X-39586Y60765D01*
X-39546Y60797D01*
X-39507Y60858D01*
X-39460Y60912D01*
X-39441Y60960D01*
X-39413Y61004D01*
X-39395Y61074D01*
X-39368Y61140D01*
X-39360Y61212D01*
X-39352Y61243D01*
X-39354Y61266D01*
X-39350Y61307D01*
X-39350Y63914D01*
X-39353Y63934D01*
X-39351Y63953D01*
X-39373Y64055D01*
X-39389Y64157D01*
X-39399Y64174D01*
X-39403Y64194D01*
X-39456Y64283D01*
X-39505Y64374D01*
X-39519Y64388D01*
X-39529Y64405D01*
X-39608Y64472D01*
X-39683Y64544D01*
X-39701Y64552D01*
X-39716Y64565D01*
X-39812Y64604D01*
X-39906Y64647D01*
X-39926Y64649D01*
X-39944Y64657D01*
X-40111Y64675D01*
X-41644Y64675D01*
X-42537Y65568D01*
X-42537Y73832D01*
X-41644Y74725D01*
X-39263Y74725D01*
X-39173Y74739D01*
X-39082Y74747D01*
X-39052Y74759D01*
X-39020Y74764D01*
X-38939Y74807D01*
X-38855Y74843D01*
X-38823Y74869D01*
X-38803Y74880D01*
X-38780Y74903D01*
X-38724Y74948D01*
X-38697Y74975D01*
X-34328Y74975D01*
X-34301Y74948D01*
X-34227Y74895D01*
X-34157Y74835D01*
X-34127Y74823D01*
X-34101Y74804D01*
X-34014Y74777D01*
X-33929Y74743D01*
X-33888Y74739D01*
X-33866Y74732D01*
X-33834Y74733D01*
X-33762Y74725D01*
X-31381Y74725D01*
X-30488Y73832D01*
X-30488Y65568D01*
X-31381Y64675D01*
X-32039Y64675D01*
X-32059Y64672D01*
X-32078Y64674D01*
X-32180Y64652D01*
X-32282Y64636D01*
X-32299Y64626D01*
X-32319Y64622D01*
X-32408Y64569D01*
X-32499Y64520D01*
X-32513Y64506D01*
X-32530Y64496D01*
X-32597Y64417D01*
X-32669Y64342D01*
X-32677Y64324D01*
X-32690Y64309D01*
X-32729Y64213D01*
X-32772Y64119D01*
X-32774Y64099D01*
X-32782Y64081D01*
X-32800Y63914D01*
X-32800Y60411D01*
X-32797Y60391D01*
X-32799Y60372D01*
X-32777Y60270D01*
X-32761Y60168D01*
X-32751Y60151D01*
X-32747Y60131D01*
X-32694Y60042D01*
X-32645Y59951D01*
X-32631Y59937D01*
X-32621Y59920D01*
X-32542Y59853D01*
X-32467Y59781D01*
X-32449Y59773D01*
X-32434Y59760D01*
X-32338Y59721D01*
X-32244Y59678D01*
X-32224Y59676D01*
X-32206Y59668D01*
X-32039Y59650D01*
X-25111Y59650D01*
X-25091Y59653D01*
X-25072Y59651D01*
X-24970Y59673D01*
X-24868Y59689D01*
X-24851Y59699D01*
X-24831Y59703D01*
X-24742Y59756D01*
X-24651Y59805D01*
X-24637Y59819D01*
X-24620Y59829D01*
X-24553Y59908D01*
X-24481Y59983D01*
X-24473Y60001D01*
X-24460Y60016D01*
X-24421Y60112D01*
X-24378Y60206D01*
X-24376Y60226D01*
X-24368Y60244D01*
X-24350Y60411D01*
X-24350Y63914D01*
X-24353Y63934D01*
X-24351Y63953D01*
X-24373Y64055D01*
X-24389Y64157D01*
X-24399Y64174D01*
X-24403Y64194D01*
X-24456Y64283D01*
X-24505Y64374D01*
X-24519Y64388D01*
X-24529Y64405D01*
X-24608Y64472D01*
X-24683Y64544D01*
X-24701Y64552D01*
X-24716Y64565D01*
X-24812Y64604D01*
X-24906Y64647D01*
X-24926Y64649D01*
X-24944Y64657D01*
X-25111Y64675D01*
X-25769Y64675D01*
X-26662Y65568D01*
X-26662Y73832D01*
X-25769Y74725D01*
X-15506Y74725D01*
X-14613Y73832D01*
X-14613Y72073D01*
X-14601Y72002D01*
X-14599Y71931D01*
X-14581Y71882D01*
X-14573Y71830D01*
X-14539Y71767D01*
X-14515Y71700D01*
X-14482Y71659D01*
X-14458Y71613D01*
X-14406Y71564D01*
X-14361Y71508D01*
X-14317Y71480D01*
X-14280Y71444D01*
X-14214Y71413D01*
X-14154Y71375D01*
X-14104Y71362D01*
X-14057Y71340D01*
X-13985Y71332D01*
X-13916Y71315D01*
X-13864Y71319D01*
X-13812Y71313D01*
X-13742Y71328D01*
X-13670Y71334D01*
X-13623Y71354D01*
X-13572Y71365D01*
X-13510Y71402D01*
X-13444Y71430D01*
X-13388Y71475D01*
X-13361Y71491D01*
X-13345Y71509D01*
X-13313Y71535D01*
X-13048Y71800D01*
X-8679Y71800D01*
X-5589Y68710D01*
X-5589Y64340D01*
X-8448Y61481D01*
X-8460Y61465D01*
X-8475Y61452D01*
X-8531Y61365D01*
X-8592Y61281D01*
X-8597Y61262D01*
X-8608Y61245D01*
X-8633Y61145D01*
X-8664Y61046D01*
X-8663Y61026D01*
X-8668Y61007D01*
X-8660Y60904D01*
X-8660Y60898D01*
X-8661Y60894D01*
X-8660Y60890D01*
X-8658Y60800D01*
X-8651Y60781D01*
X-8649Y60762D01*
X-8614Y60679D01*
X-8608Y60653D01*
X-8597Y60634D01*
X-8573Y60569D01*
X-8561Y60554D01*
X-8553Y60535D01*
X-8493Y60461D01*
X-8482Y60442D01*
X-8470Y60432D01*
X-8448Y60404D01*
X-8178Y60135D01*
X-8104Y60082D01*
X-8035Y60022D01*
X-8005Y60010D01*
X-7979Y59991D01*
X-7892Y59964D01*
X-7807Y59930D01*
X-7766Y59926D01*
X-7744Y59919D01*
X-7711Y59920D01*
X-7640Y59912D01*
X472Y59912D01*
X2035Y58349D01*
X3194Y57190D01*
X3253Y57148D01*
X3305Y57098D01*
X3352Y57076D01*
X3394Y57046D01*
X3463Y57025D01*
X3528Y56995D01*
X3579Y56989D01*
X3629Y56974D01*
X3701Y56976D01*
X3772Y56968D01*
X3823Y56979D01*
X3875Y56980D01*
X3942Y57005D01*
X4012Y57020D01*
X4057Y57047D01*
X4106Y57064D01*
X4162Y57109D01*
X4224Y57146D01*
X4257Y57186D01*
X4298Y57218D01*
X4337Y57278D01*
X4383Y57333D01*
X4403Y57381D01*
X4431Y57425D01*
X4449Y57495D01*
X4475Y57561D01*
X4483Y57632D01*
X4491Y57664D01*
X4489Y57687D01*
X4494Y57728D01*
X4494Y69327D01*
X4492Y69338D01*
X4493Y69346D01*
X4491Y69353D01*
X4493Y69366D01*
X4471Y69467D01*
X4454Y69569D01*
X4445Y69587D01*
X4441Y69606D01*
X4387Y69695D01*
X4339Y69787D01*
X4325Y69800D01*
X4314Y69817D01*
X4236Y69885D01*
X4161Y69956D01*
X4143Y69964D01*
X4128Y69977D01*
X4031Y70016D01*
X3938Y70060D01*
X3918Y70062D01*
X3899Y70069D01*
X3733Y70088D01*
X2888Y70088D01*
X238Y72738D01*
X238Y76487D01*
X2888Y79137D01*
X6637Y79137D01*
X9287Y76487D01*
X9287Y74355D01*
X9302Y74265D01*
X9309Y74174D01*
X9322Y74145D01*
X9327Y74113D01*
X9370Y74032D01*
X9405Y73948D01*
X9431Y73916D01*
X9442Y73895D01*
X9465Y73873D01*
X9510Y73817D01*
X10083Y73244D01*
X10083Y72727D01*
X10095Y72657D01*
X10097Y72585D01*
X10115Y72536D01*
X10123Y72485D01*
X10157Y72421D01*
X10181Y72354D01*
X10214Y72313D01*
X10238Y72267D01*
X10290Y72218D01*
X10335Y72162D01*
X10379Y72134D01*
X10417Y72098D01*
X10482Y72068D01*
X10542Y72029D01*
X10592Y72016D01*
X10640Y71994D01*
X10711Y71986D01*
X10780Y71969D01*
X10832Y71973D01*
X10884Y71967D01*
X10954Y71982D01*
X11026Y71988D01*
X11073Y72008D01*
X11124Y72019D01*
X11186Y72056D01*
X11252Y72084D01*
X11308Y72129D01*
X11336Y72146D01*
X11351Y72163D01*
X11383Y72189D01*
X12331Y73137D01*
X22594Y73137D01*
X23487Y72244D01*
X23487Y71321D01*
X23502Y71230D01*
X23509Y71140D01*
X23522Y71110D01*
X23527Y71078D01*
X23570Y70997D01*
X23605Y70913D01*
X23631Y70881D01*
X23642Y70860D01*
X23665Y70838D01*
X23710Y70782D01*
X27088Y67405D01*
X27162Y67352D01*
X27231Y67292D01*
X27261Y67280D01*
X27288Y67261D01*
X27374Y67234D01*
X27459Y67200D01*
X27500Y67196D01*
X27523Y67189D01*
X27555Y67190D01*
X27626Y67182D01*
X30110Y67182D01*
X30200Y67196D01*
X30291Y67204D01*
X30321Y67216D01*
X30353Y67221D01*
X30434Y67264D01*
X30517Y67300D01*
X30550Y67326D01*
X30570Y67337D01*
X30592Y67360D01*
X30648Y67405D01*
X31393Y68150D01*
X36157Y68150D01*
X37050Y67257D01*
X37050Y65696D01*
X37064Y65605D01*
X37072Y65515D01*
X37084Y65485D01*
X37089Y65453D01*
X37132Y65372D01*
X37168Y65288D01*
X37194Y65256D01*
X37205Y65235D01*
X37228Y65213D01*
X37273Y65157D01*
X37332Y65098D01*
X37332Y62152D01*
X37273Y62093D01*
X37220Y62019D01*
X37160Y61949D01*
X37148Y61919D01*
X37129Y61893D01*
X37102Y61806D01*
X37068Y61721D01*
X37064Y61680D01*
X37057Y61658D01*
X37058Y61626D01*
X37050Y61554D01*
X37050Y60411D01*
X37053Y60391D01*
X37051Y60372D01*
X37073Y60270D01*
X37089Y60168D01*
X37099Y60151D01*
X37103Y60131D01*
X37156Y60042D01*
X37205Y59951D01*
X37219Y59937D01*
X37229Y59920D01*
X37308Y59853D01*
X37383Y59781D01*
X37401Y59773D01*
X37416Y59760D01*
X37512Y59721D01*
X37606Y59678D01*
X37626Y59676D01*
X37644Y59668D01*
X37811Y59650D01*
X43009Y59650D01*
X43080Y59661D01*
X43151Y59663D01*
X43200Y59681D01*
X43252Y59689D01*
X43315Y59723D01*
X43382Y59748D01*
X43423Y59780D01*
X43469Y59805D01*
X43518Y59857D01*
X43574Y59901D01*
X43602Y59945D01*
X43638Y59983D01*
X43669Y60048D01*
X43707Y60108D01*
X43720Y60159D01*
X43742Y60206D01*
X43750Y60277D01*
X43767Y60347D01*
X43763Y60399D01*
X43769Y60450D01*
X43754Y60521D01*
X43748Y60592D01*
X43728Y60640D01*
X43717Y60691D01*
X43680Y60752D01*
X43652Y60818D01*
X43607Y60874D01*
X43591Y60902D01*
X43573Y60917D01*
X43547Y60949D01*
X42806Y61690D01*
X41955Y63745D01*
X41955Y65302D01*
X41936Y65420D01*
X41916Y65541D01*
X41916Y65543D01*
X41915Y65544D01*
X41912Y65551D01*
X41847Y65693D01*
X40332Y68218D01*
X40292Y68265D01*
X40286Y68275D01*
X40286Y68276D01*
X40261Y68317D01*
X40213Y68358D01*
X40173Y68406D01*
X40120Y68437D01*
X40074Y68477D01*
X40016Y68501D01*
X39962Y68533D01*
X39902Y68546D01*
X39846Y68569D01*
X39754Y68579D01*
X39722Y68587D01*
X39706Y68585D01*
X39679Y68588D01*
X38881Y68588D01*
X37988Y69481D01*
X37988Y71914D01*
X37968Y72032D01*
X37949Y72153D01*
X37948Y72155D01*
X37948Y72156D01*
X37945Y72163D01*
X37879Y72305D01*
X37648Y72690D01*
X37321Y74890D01*
X37863Y77058D01*
X37877Y77075D01*
X37910Y77157D01*
X37951Y77235D01*
X37956Y77270D01*
X37969Y77303D01*
X37988Y77470D01*
X37988Y79744D01*
X38881Y80637D01*
X44419Y80637D01*
X44502Y80651D01*
X44586Y80656D01*
X44623Y80671D01*
X44662Y80677D01*
X44736Y80716D01*
X44814Y80748D01*
X44844Y80774D01*
X44879Y80792D01*
X44937Y80853D01*
X45001Y80908D01*
X45021Y80942D01*
X45048Y80970D01*
X45084Y81047D01*
X45127Y81119D01*
X45135Y81158D01*
X45152Y81193D01*
X45161Y81277D01*
X45179Y81360D01*
X45175Y81399D01*
X45179Y81438D01*
X45161Y81520D01*
X45152Y81604D01*
X45133Y81652D01*
X45127Y81678D01*
X45111Y81704D01*
X45089Y81760D01*
X44051Y83685D01*
X44030Y83712D01*
X44016Y83744D01*
X43955Y83809D01*
X43901Y83879D01*
X43872Y83899D01*
X43849Y83924D01*
X43781Y83966D01*
X43564Y84571D01*
X43548Y84600D01*
X43517Y84675D01*
X43213Y85239D01*
X43216Y85311D01*
X43227Y85399D01*
X43221Y85433D01*
X43222Y85468D01*
X43183Y85631D01*
X42439Y87702D01*
X42422Y87732D01*
X42413Y87766D01*
X42363Y87839D01*
X42320Y87917D01*
X42294Y87941D01*
X42274Y87969D01*
X42214Y88020D01*
X42089Y88652D01*
X42077Y88682D01*
X42059Y88761D01*
X41842Y89364D01*
X41856Y89435D01*
X41880Y89520D01*
X41878Y89555D01*
X41885Y89589D01*
X41871Y89756D01*
X41444Y91915D01*
X41432Y91947D01*
X41427Y91982D01*
X41389Y92062D01*
X41358Y92145D01*
X41336Y92172D01*
X41321Y92204D01*
X41268Y92263D01*
X41239Y92906D01*
X41232Y92939D01*
X41232Y92943D01*
X41232Y92945D01*
X41231Y92948D01*
X41225Y93019D01*
X41101Y93647D01*
X41125Y93715D01*
X41162Y93796D01*
X41165Y93830D01*
X41177Y93863D01*
X41188Y94031D01*
X41087Y96229D01*
X41080Y96263D01*
X41081Y96298D01*
X41055Y96383D01*
X41036Y96470D01*
X41019Y96500D01*
X41009Y96533D01*
X40966Y96600D01*
X41033Y97240D01*
X41031Y97273D01*
X41036Y97353D01*
X41007Y97993D01*
X41040Y98057D01*
X41089Y98131D01*
X41098Y98165D01*
X41114Y98195D01*
X41149Y98359D01*
X41378Y100548D01*
X41376Y100583D01*
X41382Y100617D01*
X41369Y100705D01*
X41364Y100794D01*
X41351Y100826D01*
X41345Y100860D01*
X41313Y100933D01*
X41474Y101556D01*
X41477Y101589D01*
X41495Y101668D01*
X41561Y102305D01*
X41604Y102362D01*
X41663Y102429D01*
X41676Y102461D01*
X41697Y102489D01*
X41757Y102645D01*
X42309Y104776D01*
X42312Y104810D01*
X42323Y104843D01*
X42323Y104932D01*
X42331Y105021D01*
X42323Y105055D01*
X42323Y105089D01*
X42302Y105166D01*
X42555Y105758D01*
X42563Y105790D01*
X42591Y105866D01*
X42752Y106485D01*
X42803Y106536D01*
X42871Y106593D01*
X42889Y106622D01*
X42914Y106647D01*
X42996Y106793D01*
X43860Y108818D01*
X43868Y108851D01*
X43884Y108882D01*
X43897Y108970D01*
X43918Y109056D01*
X43915Y109091D01*
X43921Y109125D01*
X43911Y109204D01*
X44249Y109752D01*
X44262Y109782D01*
X44301Y109853D01*
X44552Y110442D01*
X44610Y110484D01*
X44686Y110530D01*
X44709Y110557D01*
X44737Y110578D01*
X44840Y110710D01*
X45123Y111169D01*
X45167Y111274D01*
X45213Y111379D01*
X45214Y111388D01*
X45217Y111397D01*
X45224Y111510D01*
X45235Y111624D01*
X45233Y111633D01*
X45233Y111642D01*
X45204Y111752D01*
X45178Y111863D01*
X45173Y111871D01*
X45170Y111880D01*
X45108Y111975D01*
X45047Y112072D01*
X45039Y112079D01*
X45035Y112085D01*
X45016Y112100D01*
X44923Y112185D01*
X23946Y127427D01*
X23935Y127433D01*
X23927Y127441D01*
X23825Y127488D01*
X23726Y127538D01*
X23714Y127539D01*
X23703Y127544D01*
X23593Y127557D01*
X23483Y127572D01*
X23471Y127570D01*
X23459Y127572D01*
X23351Y127548D01*
X23241Y127528D01*
X23230Y127522D01*
X23219Y127519D01*
X23124Y127462D01*
X23026Y127408D01*
X23018Y127399D01*
X23008Y127393D01*
X22936Y127309D01*
X22860Y127226D01*
X22855Y127215D01*
X22848Y127206D01*
X22806Y127103D01*
X22761Y127001D01*
X22760Y126989D01*
X22756Y126978D01*
X22737Y126811D01*
X22737Y123228D01*
X19647Y120138D01*
X15278Y120138D01*
X12188Y123228D01*
X12188Y127597D01*
X15278Y130687D01*
X17117Y130687D01*
X17125Y130689D01*
X17132Y130687D01*
X17246Y130708D01*
X17359Y130727D01*
X17366Y130731D01*
X17374Y130732D01*
X17476Y130789D01*
X17577Y130842D01*
X17582Y130848D01*
X17589Y130852D01*
X17668Y130938D01*
X17746Y131020D01*
X17750Y131028D01*
X17755Y131034D01*
X17801Y131139D01*
X17850Y131243D01*
X17851Y131251D01*
X17854Y131259D01*
X17864Y131374D01*
X17877Y131488D01*
X17875Y131496D01*
X17876Y131504D01*
X17849Y131616D01*
X17825Y131728D01*
X17821Y131735D01*
X17819Y131743D01*
X17757Y131841D01*
X17698Y131939D01*
X17692Y131945D01*
X17688Y131951D01*
X17564Y132064D01*
X14454Y134324D01*
X15780Y135876D01*
X15794Y135901D01*
X15814Y135922D01*
X15842Y135987D01*
X15876Y136050D01*
X15879Y136079D01*
X15890Y136105D01*
X15890Y136177D01*
X15897Y136247D01*
X15889Y136275D01*
X15888Y136304D01*
X15860Y136370D01*
X15839Y136438D01*
X15820Y136460D01*
X15809Y136487D01*
X15739Y136558D01*
X15712Y136590D01*
X15702Y136595D01*
X15692Y136605D01*
X292Y147705D01*
X266Y147717D01*
X245Y147735D01*
X176Y147757D01*
X111Y147787D01*
X82Y147787D01*
X55Y147796D01*
X-16Y147790D01*
X-88Y147791D01*
X-114Y147781D01*
X-143Y147778D01*
X-234Y147734D01*
X-273Y147718D01*
X-280Y147711D01*
X-292Y147705D01*
X-15692Y136605D01*
X-15712Y136584D01*
X-15737Y136569D01*
X-15779Y136511D01*
X-15827Y136459D01*
X-15837Y136432D01*
X-15854Y136408D01*
X-15870Y136339D01*
X-15894Y136272D01*
X-15892Y136243D01*
X-15899Y136214D01*
X-15887Y136144D01*
X-15883Y136073D01*
X-15870Y136047D01*
X-15865Y136019D01*
X-15814Y135933D01*
X-15795Y135895D01*
X-15787Y135888D01*
X-15780Y135876D01*
X-14454Y134324D01*
X-17564Y132064D01*
X-17570Y132059D01*
X-17577Y132055D01*
X-17656Y131972D01*
X-17737Y131889D01*
X-17741Y131882D01*
X-17746Y131877D01*
X-17795Y131772D01*
X-17845Y131669D01*
X-17846Y131661D01*
X-17850Y131653D01*
X-17862Y131539D01*
X-17878Y131425D01*
X-17876Y131417D01*
X-17877Y131409D01*
X-17852Y131296D01*
X-17830Y131183D01*
X-17826Y131177D01*
X-17825Y131169D01*
X-17765Y131070D01*
X-17708Y130970D01*
X-17703Y130964D01*
X-17698Y130958D01*
X-17611Y130883D01*
X-17525Y130806D01*
X-17518Y130803D01*
X-17512Y130798D01*
X-17404Y130754D01*
X-17299Y130709D01*
X-17291Y130709D01*
X-17283Y130706D01*
X-17117Y130687D01*
X-16865Y130687D01*
X-13775Y127597D01*
X-13775Y123228D01*
X-16865Y120138D01*
X-21235Y120138D01*
X-24325Y123228D01*
X-24325Y125658D01*
X-24327Y125670D01*
X-24325Y125682D01*
X-24346Y125791D01*
X-24364Y125901D01*
X-24370Y125911D01*
X-24372Y125923D01*
X-24428Y126020D01*
X-24480Y126118D01*
X-24488Y126126D01*
X-24494Y126137D01*
X-24577Y126211D01*
X-24658Y126287D01*
X-24669Y126292D01*
X-24678Y126300D01*
X-24780Y126344D01*
X-24881Y126391D01*
X-24893Y126392D01*
X-24904Y126397D01*
X-25015Y126406D01*
X-25125Y126418D01*
X-25137Y126415D01*
X-25149Y126416D01*
X-25257Y126389D01*
X-25366Y126366D01*
X-25376Y126360D01*
X-25388Y126357D01*
X-25533Y126274D01*
X-44923Y112185D01*
X-45003Y112104D01*
X-45085Y112025D01*
X-45090Y112016D01*
X-45096Y112010D01*
X-45146Y111908D01*
X-45199Y111806D01*
X-45200Y111797D01*
X-45204Y111789D01*
X-45219Y111676D01*
X-45237Y111563D01*
X-45235Y111554D01*
X-45236Y111545D01*
X-45214Y111433D01*
X-45195Y111321D01*
X-45190Y111311D01*
X-45189Y111304D01*
X-45177Y111283D01*
X-45123Y111169D01*
X-44840Y110710D01*
X-44817Y110684D01*
X-44801Y110653D01*
X-44737Y110591D01*
X-44679Y110524D01*
X-44649Y110506D01*
X-44624Y110482D01*
X-44554Y110445D01*
X-44301Y109853D01*
X-44284Y109825D01*
X-44249Y109752D01*
X-43913Y109207D01*
X-43911Y109135D01*
X-43917Y109046D01*
X-43909Y109013D01*
X-43908Y108978D01*
X-43860Y108818D01*
X-42996Y106793D01*
X-42978Y106764D01*
X-42966Y106731D01*
X-42912Y106660D01*
X-42864Y106585D01*
X-42837Y106564D01*
X-42816Y106536D01*
X-42753Y106489D01*
X-42591Y105866D01*
X-42578Y105835D01*
X-42555Y105758D01*
X-42303Y105169D01*
X-42313Y105098D01*
X-42332Y105011D01*
X-42328Y104976D01*
X-42333Y104942D01*
X-42309Y104776D01*
X-41757Y102645D01*
X-41743Y102614D01*
X-41737Y102580D01*
X-41693Y102502D01*
X-41657Y102420D01*
X-41634Y102395D01*
X-41617Y102364D01*
X-41561Y102308D01*
X-41495Y101668D01*
X-41486Y101636D01*
X-41474Y101556D01*
X-41314Y100936D01*
X-41334Y100867D01*
X-41366Y100784D01*
X-41367Y100749D01*
X-41377Y100716D01*
X-41378Y100548D01*
X-41149Y98359D01*
X-41140Y98326D01*
X-41139Y98291D01*
X-41108Y98208D01*
X-41085Y98122D01*
X-41065Y98093D01*
X-41053Y98061D01*
X-41007Y97996D01*
X-41036Y97353D01*
X-41032Y97320D01*
X-41033Y97240D01*
X-40966Y96603D01*
X-40996Y96538D01*
X-41040Y96461D01*
X-41047Y96427D01*
X-41061Y96395D01*
X-41087Y96229D01*
X-41188Y94031D01*
X-41184Y93996D01*
X-41188Y93962D01*
X-41169Y93875D01*
X-41159Y93786D01*
X-41144Y93755D01*
X-41137Y93721D01*
X-41100Y93651D01*
X-41225Y93019D01*
X-41226Y92986D01*
X-41239Y92906D01*
X-41268Y92266D01*
X-41307Y92206D01*
X-41363Y92137D01*
X-41374Y92104D01*
X-41393Y92075D01*
X-41444Y91915D01*
X-41871Y89756D01*
X-41872Y89721D01*
X-41881Y89688D01*
X-41876Y89599D01*
X-41879Y89510D01*
X-41869Y89477D01*
X-41867Y89442D01*
X-41841Y89367D01*
X-42059Y88761D01*
X-42065Y88729D01*
X-42089Y88652D01*
X-42213Y88024D01*
X-42261Y87970D01*
X-42326Y87909D01*
X-42342Y87879D01*
X-42365Y87853D01*
X-42439Y87702D01*
X-43183Y85631D01*
X-43189Y85597D01*
X-43203Y85565D01*
X-43212Y85476D01*
X-43228Y85389D01*
X-43223Y85355D01*
X-43226Y85320D01*
X-43212Y85242D01*
X-43517Y84675D01*
X-43528Y84644D01*
X-43564Y84571D01*
X-43780Y83969D01*
X-43835Y83923D01*
X-43908Y83872D01*
X-43929Y83845D01*
X-43956Y83823D01*
X-44051Y83685D01*
X-45096Y81747D01*
X-45107Y81714D01*
X-45126Y81685D01*
X-45147Y81599D01*
X-45176Y81515D01*
X-45176Y81480D01*
X-45184Y81446D01*
X-45182Y81367D01*
X-45568Y80852D01*
X-45584Y80823D01*
X-45630Y80756D01*
X-45934Y80193D01*
X-45995Y80156D01*
X-46075Y80117D01*
X-46100Y80092D01*
X-46129Y80074D01*
X-46244Y79952D01*
X-47566Y78192D01*
X-47582Y78161D01*
X-47605Y78135D01*
X-47639Y78053D01*
X-47680Y77974D01*
X-47685Y77940D01*
X-47698Y77908D01*
X-47708Y77829D01*
X-48167Y77378D01*
X-48186Y77351D01*
X-48242Y77292D01*
X-48626Y76780D01*
X-48692Y76753D01*
X-48777Y76726D01*
X-48805Y76706D01*
X-48837Y76692D01*
X-48969Y76588D01*
X-50538Y75045D01*
X-50559Y75017D01*
X-50585Y74995D01*
X-50631Y74918D01*
X-50683Y74846D01*
X-50694Y74813D01*
X-50712Y74784D01*
X-50733Y74707D01*
X-51254Y74329D01*
X-51277Y74306D01*
X-51340Y74256D01*
X-51797Y73807D01*
X-51867Y73789D01*
X-51954Y73776D01*
X-51985Y73760D01*
X-52019Y73751D01*
X-52165Y73668D01*
X-53946Y72376D01*
X-53971Y72351D01*
X-54000Y72333D01*
X-54057Y72265D01*
X-54119Y72201D01*
X-54135Y72170D01*
X-54157Y72143D01*
X-54189Y72071D01*
X-54761Y71775D01*
X-54787Y71755D01*
X-54857Y71715D01*
X-55376Y71339D01*
X-55447Y71332D01*
X-55536Y71332D01*
X-55569Y71321D01*
X-55603Y71317D01*
X-55760Y71257D01*
X-57714Y70245D01*
X-57742Y70224D01*
X-57774Y70210D01*
X-57840Y70151D01*
X-57911Y70098D01*
X-57931Y70069D01*
X-57957Y70046D01*
X-58000Y69979D01*
X-58301Y69876D01*
X-58363Y69843D01*
X-58429Y69819D01*
X-58471Y69786D01*
X-58518Y69761D01*
X-58566Y69709D01*
X-58621Y69666D01*
X-58650Y69620D01*
X-58687Y69582D01*
X-58716Y69518D01*
X-58754Y69459D01*
X-58767Y69407D01*
X-58790Y69358D01*
X-58797Y69288D01*
X-58814Y69220D01*
X-58810Y69167D01*
X-58816Y69114D01*
X-58801Y69045D01*
X-58795Y68975D01*
X-58774Y68926D01*
X-58763Y68873D01*
X-58726Y68813D01*
X-58699Y68749D01*
X-58653Y68691D01*
X-58636Y68663D01*
X-58619Y68648D01*
X-58594Y68618D01*
X-57489Y67513D01*
X-57489Y63971D01*
X-59993Y61467D01*
X-62490Y61467D01*
X-62580Y61453D01*
X-62671Y61446D01*
X-62700Y61433D01*
X-62732Y61428D01*
X-62813Y61385D01*
X-62897Y61349D01*
X-62929Y61324D01*
X-62950Y61313D01*
X-62972Y61289D01*
X-63028Y61244D01*
X-64165Y60107D01*
X-64218Y60033D01*
X-64278Y59964D01*
X-64290Y59933D01*
X-64309Y59907D01*
X-64336Y59820D01*
X-64370Y59735D01*
X-64374Y59694D01*
X-64381Y59672D01*
X-64380Y59640D01*
X-64388Y59569D01*
X-64388Y56207D01*
X-64377Y56137D01*
X-64375Y56065D01*
X-64357Y56016D01*
X-64349Y55965D01*
X-64315Y55901D01*
X-64290Y55834D01*
X-64258Y55793D01*
X-64233Y55747D01*
X-64181Y55698D01*
X-64137Y55642D01*
X-64093Y55614D01*
X-64055Y55578D01*
X-63990Y55548D01*
X-63930Y55509D01*
X-63879Y55496D01*
X-63832Y55474D01*
X-63761Y55466D01*
X-63691Y55449D01*
X-63639Y55453D01*
X-63588Y55447D01*
X-63517Y55462D01*
X-63446Y55468D01*
X-63398Y55488D01*
X-63347Y55499D01*
X-63286Y55536D01*
X-63220Y55564D01*
X-63164Y55609D01*
X-63136Y55626D01*
X-63121Y55643D01*
X-63089Y55669D01*
X-62096Y56662D01*
X-58554Y56662D01*
X-57063Y55171D01*
X-56989Y55118D01*
X-56919Y55058D01*
X-56889Y55046D01*
X-56863Y55027D01*
X-56776Y55000D01*
X-56691Y54966D01*
X-56650Y54962D01*
X-56628Y54955D01*
X-56596Y54956D01*
X-56525Y54948D01*
X-49861Y54948D01*
X-49841Y54951D01*
G37*
G36*
X-45215Y-44175D02*
X-45215Y-44175D01*
X-45143Y-44173D01*
X-45094Y-44155D01*
X-45043Y-44147D01*
X-44980Y-44113D01*
X-44912Y-44088D01*
X-44872Y-44056D01*
X-44826Y-44031D01*
X-44776Y-43979D01*
X-44720Y-43935D01*
X-44692Y-43891D01*
X-44656Y-43853D01*
X-44626Y-43788D01*
X-44587Y-43728D01*
X-44575Y-43677D01*
X-44553Y-43630D01*
X-44545Y-43559D01*
X-44527Y-43489D01*
X-44531Y-43437D01*
X-44526Y-43386D01*
X-44541Y-43315D01*
X-44546Y-43244D01*
X-44567Y-43196D01*
X-44578Y-43145D01*
X-44615Y-43084D01*
X-44643Y-43018D01*
X-44688Y-42962D01*
X-44704Y-42934D01*
X-44722Y-42919D01*
X-44748Y-42887D01*
X-45639Y-41995D01*
X-45639Y-38454D01*
X-44068Y-36882D01*
X-44026Y-36824D01*
X-43977Y-36772D01*
X-43955Y-36725D01*
X-43924Y-36683D01*
X-43903Y-36614D01*
X-43873Y-36549D01*
X-43867Y-36497D01*
X-43852Y-36447D01*
X-43854Y-36376D01*
X-43846Y-36305D01*
X-43857Y-36254D01*
X-43858Y-36202D01*
X-43883Y-36134D01*
X-43898Y-36064D01*
X-43925Y-36019D01*
X-43943Y-35971D01*
X-43988Y-35915D01*
X-44024Y-35853D01*
X-44064Y-35819D01*
X-44097Y-35779D01*
X-44157Y-35740D01*
X-44211Y-35693D01*
X-44260Y-35674D01*
X-44303Y-35646D01*
X-44373Y-35628D01*
X-44440Y-35601D01*
X-44511Y-35593D01*
X-44542Y-35585D01*
X-44565Y-35587D01*
X-44606Y-35583D01*
X-52561Y-35583D01*
X-64210Y-23934D01*
X-64284Y-23881D01*
X-64353Y-23821D01*
X-64383Y-23809D01*
X-64409Y-23790D01*
X-64496Y-23763D01*
X-64581Y-23729D01*
X-64622Y-23725D01*
X-64645Y-23718D01*
X-64677Y-23719D01*
X-64748Y-23711D01*
X-67244Y-23711D01*
X-69748Y-21207D01*
X-69748Y-17665D01*
X-67090Y-15008D01*
X-67079Y-14991D01*
X-67063Y-14979D01*
X-67007Y-14892D01*
X-66947Y-14808D01*
X-66941Y-14789D01*
X-66930Y-14772D01*
X-66905Y-14672D01*
X-66875Y-14573D01*
X-66875Y-14553D01*
X-66870Y-14533D01*
X-66878Y-14431D01*
X-66881Y-14327D01*
X-66888Y-14308D01*
X-66889Y-14288D01*
X-66930Y-14193D01*
X-66965Y-14096D01*
X-66978Y-14080D01*
X-66986Y-14062D01*
X-67090Y-13931D01*
X-76543Y-4479D01*
X-76580Y-4452D01*
X-76611Y-4418D01*
X-76679Y-4381D01*
X-76742Y-4335D01*
X-76786Y-4322D01*
X-76826Y-4300D01*
X-76903Y-4286D01*
X-76977Y-4263D01*
X-77023Y-4264D01*
X-77069Y-4256D01*
X-77146Y-4267D01*
X-77223Y-4269D01*
X-77267Y-4285D01*
X-77312Y-4292D01*
X-77381Y-4327D01*
X-77454Y-4354D01*
X-77490Y-4382D01*
X-77531Y-4403D01*
X-77586Y-4459D01*
X-77646Y-4507D01*
X-77671Y-4546D01*
X-77703Y-4579D01*
X-77769Y-4699D01*
X-77779Y-4714D01*
X-77781Y-4719D01*
X-77784Y-4726D01*
X-77972Y-5180D01*
X-80545Y-7753D01*
X-83906Y-9145D01*
X-87544Y-9145D01*
X-90905Y-7753D01*
X-93478Y-5180D01*
X-94870Y-1819D01*
X-94870Y1819D01*
X-93478Y5180D01*
X-90905Y7753D01*
X-87544Y9145D01*
X-83906Y9145D01*
X-83499Y8976D01*
X-83404Y8954D01*
X-83311Y8925D01*
X-83285Y8926D01*
X-83260Y8920D01*
X-83163Y8929D01*
X-83065Y8932D01*
X-83041Y8941D01*
X-83015Y8943D01*
X-82926Y8983D01*
X-82834Y9016D01*
X-82814Y9032D01*
X-82790Y9043D01*
X-82718Y9109D01*
X-82642Y9170D01*
X-82628Y9192D01*
X-82609Y9210D01*
X-82562Y9295D01*
X-82509Y9377D01*
X-82503Y9402D01*
X-82490Y9425D01*
X-82473Y9521D01*
X-82449Y9615D01*
X-82451Y9641D01*
X-82447Y9667D01*
X-82461Y9764D01*
X-82468Y9860D01*
X-82479Y9884D01*
X-82482Y9910D01*
X-82527Y9997D01*
X-82565Y10087D01*
X-82585Y10112D01*
X-82594Y10130D01*
X-82618Y10153D01*
X-82669Y10218D01*
X-86660Y14208D01*
X-88520Y16068D01*
X-88520Y16151D01*
X-88539Y16266D01*
X-88556Y16382D01*
X-88558Y16387D01*
X-88559Y16394D01*
X-88614Y16496D01*
X-88667Y16601D01*
X-88672Y16605D01*
X-88675Y16611D01*
X-88759Y16691D01*
X-88843Y16773D01*
X-88849Y16777D01*
X-88853Y16780D01*
X-88870Y16788D01*
X-88990Y16854D01*
X-90905Y17647D01*
X-93478Y20220D01*
X-94870Y23581D01*
X-94870Y27219D01*
X-93478Y30580D01*
X-90905Y33153D01*
X-88990Y33946D01*
X-88890Y34008D01*
X-88790Y34067D01*
X-88786Y34072D01*
X-88781Y34075D01*
X-88706Y34166D01*
X-88630Y34254D01*
X-88628Y34260D01*
X-88624Y34265D01*
X-88582Y34373D01*
X-88538Y34482D01*
X-88537Y34490D01*
X-88536Y34495D01*
X-88535Y34513D01*
X-88520Y34649D01*
X-88520Y41551D01*
X-88539Y41666D01*
X-88556Y41782D01*
X-88558Y41787D01*
X-88559Y41794D01*
X-88614Y41896D01*
X-88667Y42001D01*
X-88672Y42005D01*
X-88675Y42011D01*
X-88759Y42091D01*
X-88843Y42173D01*
X-88849Y42177D01*
X-88853Y42180D01*
X-88870Y42188D01*
X-88990Y42254D01*
X-90905Y43047D01*
X-93478Y45620D01*
X-94870Y48981D01*
X-94870Y52619D01*
X-93478Y55980D01*
X-90905Y58553D01*
X-87544Y59945D01*
X-83906Y59945D01*
X-80545Y58553D01*
X-77972Y55980D01*
X-76580Y52619D01*
X-76580Y48981D01*
X-77972Y45620D01*
X-80545Y43047D01*
X-82460Y42254D01*
X-82560Y42192D01*
X-82660Y42133D01*
X-82664Y42128D01*
X-82669Y42125D01*
X-82744Y42034D01*
X-82820Y41946D01*
X-82822Y41940D01*
X-82826Y41935D01*
X-82868Y41827D01*
X-82912Y41718D01*
X-82913Y41710D01*
X-82914Y41705D01*
X-82915Y41687D01*
X-82930Y41551D01*
X-82930Y34649D01*
X-82911Y34534D01*
X-82894Y34418D01*
X-82892Y34413D01*
X-82891Y34406D01*
X-82836Y34304D01*
X-82783Y34199D01*
X-82778Y34195D01*
X-82775Y34189D01*
X-82691Y34109D01*
X-82607Y34027D01*
X-82601Y34023D01*
X-82597Y34020D01*
X-82580Y34012D01*
X-82460Y33946D01*
X-80545Y33153D01*
X-77972Y30580D01*
X-76580Y27219D01*
X-76580Y23581D01*
X-77972Y20220D01*
X-80545Y17647D01*
X-80659Y17600D01*
X-80698Y17576D01*
X-80741Y17560D01*
X-80802Y17512D01*
X-80868Y17471D01*
X-80897Y17435D01*
X-80933Y17407D01*
X-80975Y17341D01*
X-81025Y17281D01*
X-81041Y17238D01*
X-81066Y17200D01*
X-81085Y17124D01*
X-81113Y17052D01*
X-81115Y17006D01*
X-81126Y16961D01*
X-81120Y16884D01*
X-81123Y16806D01*
X-81110Y16762D01*
X-81107Y16716D01*
X-81076Y16645D01*
X-81055Y16570D01*
X-81028Y16532D01*
X-81011Y16490D01*
X-80925Y16383D01*
X-80914Y16368D01*
X-80910Y16365D01*
X-80906Y16359D01*
X-54822Y-9725D01*
X-54764Y-9767D01*
X-54712Y-9816D01*
X-54665Y-9838D01*
X-54623Y-9868D01*
X-54554Y-9889D01*
X-54489Y-9920D01*
X-54437Y-9925D01*
X-54387Y-9941D01*
X-54316Y-9939D01*
X-54245Y-9947D01*
X-54194Y-9936D01*
X-54142Y-9934D01*
X-54074Y-9910D01*
X-54004Y-9894D01*
X-53960Y-9868D01*
X-53911Y-9850D01*
X-53855Y-9805D01*
X-53793Y-9768D01*
X-53759Y-9729D01*
X-53719Y-9696D01*
X-53680Y-9636D01*
X-53633Y-9581D01*
X-53614Y-9533D01*
X-53586Y-9489D01*
X-53568Y-9420D01*
X-53541Y-9353D01*
X-53533Y-9282D01*
X-53525Y-9251D01*
X-53527Y-9227D01*
X-53523Y-9186D01*
X-53523Y962D01*
X-48509Y5976D01*
X-48467Y6034D01*
X-48417Y6086D01*
X-48395Y6133D01*
X-48365Y6175D01*
X-48344Y6244D01*
X-48314Y6309D01*
X-48308Y6361D01*
X-48293Y6411D01*
X-48295Y6482D01*
X-48287Y6553D01*
X-48298Y6604D01*
X-48299Y6656D01*
X-48324Y6724D01*
X-48339Y6794D01*
X-48366Y6839D01*
X-48384Y6887D01*
X-48428Y6943D01*
X-48465Y7005D01*
X-48505Y7039D01*
X-48537Y7079D01*
X-48598Y7118D01*
X-48652Y7165D01*
X-48700Y7184D01*
X-48744Y7212D01*
X-48814Y7230D01*
X-48880Y7257D01*
X-48952Y7265D01*
X-48983Y7273D01*
X-49006Y7271D01*
X-49047Y7275D01*
X-51646Y7275D01*
X-54736Y10365D01*
X-54736Y14735D01*
X-51646Y17825D01*
X-48296Y17825D01*
X-48226Y17836D01*
X-48154Y17838D01*
X-48105Y17856D01*
X-48054Y17864D01*
X-47990Y17898D01*
X-47923Y17923D01*
X-47882Y17955D01*
X-47836Y17980D01*
X-47787Y18032D01*
X-47731Y18076D01*
X-47703Y18120D01*
X-47667Y18158D01*
X-47637Y18223D01*
X-47598Y18283D01*
X-47585Y18334D01*
X-47563Y18381D01*
X-47555Y18452D01*
X-47538Y18522D01*
X-47542Y18574D01*
X-47536Y18625D01*
X-47551Y18696D01*
X-47557Y18767D01*
X-47577Y18815D01*
X-47588Y18866D01*
X-47625Y18927D01*
X-47653Y18993D01*
X-47698Y19049D01*
X-47715Y19077D01*
X-47732Y19092D01*
X-47758Y19124D01*
X-72262Y43628D01*
X-72262Y66889D01*
X-72277Y66985D01*
X-72287Y67082D01*
X-72297Y67106D01*
X-72301Y67132D01*
X-72347Y67218D01*
X-72386Y67307D01*
X-72404Y67326D01*
X-72417Y67349D01*
X-72487Y67416D01*
X-72553Y67488D01*
X-72576Y67501D01*
X-72595Y67519D01*
X-72683Y67560D01*
X-72768Y67607D01*
X-72800Y67614D01*
X-72818Y67622D01*
X-72851Y67626D01*
X-72932Y67645D01*
X-74620Y67849D01*
X-74654Y67848D01*
X-74688Y67854D01*
X-74776Y67843D01*
X-74865Y67839D01*
X-74898Y67826D01*
X-74932Y67822D01*
X-75005Y67791D01*
X-75625Y67962D01*
X-75658Y67966D01*
X-75737Y67984D01*
X-76373Y68061D01*
X-76429Y68105D01*
X-76495Y68165D01*
X-76527Y68179D01*
X-76554Y68200D01*
X-76710Y68263D01*
X-78831Y68850D01*
X-78866Y68853D01*
X-78898Y68865D01*
X-78987Y68867D01*
X-79076Y68876D01*
X-79110Y68869D01*
X-79144Y68869D01*
X-79221Y68849D01*
X-79809Y69111D01*
X-79841Y69120D01*
X-79916Y69150D01*
X-80533Y69321D01*
X-80583Y69372D01*
X-80639Y69442D01*
X-80668Y69460D01*
X-80692Y69485D01*
X-80837Y69570D01*
X-82847Y70467D01*
X-82880Y70476D01*
X-82911Y70492D01*
X-82999Y70507D01*
X-83085Y70529D01*
X-83119Y70527D01*
X-83153Y70533D01*
X-83232Y70524D01*
X-83775Y70871D01*
X-83805Y70884D01*
X-83875Y70925D01*
X-84460Y71186D01*
X-84501Y71245D01*
X-84546Y71321D01*
X-84572Y71344D01*
X-84592Y71372D01*
X-84723Y71478D01*
X-86577Y72664D01*
X-86608Y72678D01*
X-86636Y72699D01*
X-86721Y72726D01*
X-86802Y72762D01*
X-86837Y72764D01*
X-86870Y72775D01*
X-86949Y72779D01*
X-87434Y73202D01*
X-87461Y73220D01*
X-87524Y73271D01*
X-88064Y73616D01*
X-88096Y73680D01*
X-88129Y73763D01*
X-88152Y73789D01*
X-88167Y73820D01*
X-88281Y73944D01*
X-89937Y75393D01*
X-89966Y75411D01*
X-89991Y75436D01*
X-90070Y75476D01*
X-90146Y75523D01*
X-90180Y75531D01*
X-90211Y75547D01*
X-90288Y75562D01*
X-90704Y76053D01*
X-90729Y76075D01*
X-90784Y76134D01*
X-91266Y76556D01*
X-91289Y76624D01*
X-91309Y76711D01*
X-91327Y76740D01*
X-91338Y76773D01*
X-91431Y76912D01*
X-91749Y77288D01*
X-91836Y77362D01*
X-91922Y77439D01*
X-91930Y77442D01*
X-91937Y77448D01*
X-92043Y77490D01*
X-92148Y77535D01*
X-92157Y77536D01*
X-92165Y77539D01*
X-92280Y77546D01*
X-92394Y77555D01*
X-92402Y77553D01*
X-92410Y77553D01*
X-92521Y77523D01*
X-92632Y77495D01*
X-92641Y77490D01*
X-92648Y77488D01*
X-92666Y77476D01*
X-92778Y77412D01*
X-111509Y63802D01*
X-111515Y63796D01*
X-111522Y63792D01*
X-111601Y63709D01*
X-111682Y63627D01*
X-111685Y63620D01*
X-111691Y63614D01*
X-111740Y63509D01*
X-111790Y63406D01*
X-111791Y63398D01*
X-111795Y63391D01*
X-111807Y63276D01*
X-111822Y63162D01*
X-111821Y63154D01*
X-111822Y63147D01*
X-111797Y63034D01*
X-111775Y62921D01*
X-111771Y62914D01*
X-111769Y62906D01*
X-111710Y62807D01*
X-111653Y62707D01*
X-111647Y62702D01*
X-111643Y62695D01*
X-111556Y62620D01*
X-111470Y62543D01*
X-111462Y62540D01*
X-111456Y62535D01*
X-111349Y62492D01*
X-111243Y62447D01*
X-111236Y62446D01*
X-111228Y62443D01*
X-111061Y62425D01*
X-110528Y62425D01*
X-107438Y59335D01*
X-107438Y54965D01*
X-110528Y51875D01*
X-114897Y51875D01*
X-117987Y54965D01*
X-117987Y57600D01*
X-117989Y57612D01*
X-117988Y57624D01*
X-118009Y57733D01*
X-118027Y57843D01*
X-118033Y57854D01*
X-118035Y57865D01*
X-118090Y57962D01*
X-118142Y58061D01*
X-118151Y58069D01*
X-118157Y58079D01*
X-118240Y58153D01*
X-118320Y58230D01*
X-118331Y58235D01*
X-118340Y58243D01*
X-118443Y58287D01*
X-118543Y58334D01*
X-118555Y58335D01*
X-118566Y58340D01*
X-118677Y58348D01*
X-118788Y58361D01*
X-118800Y58358D01*
X-118812Y58359D01*
X-118920Y58332D01*
X-119028Y58308D01*
X-119039Y58302D01*
X-119050Y58299D01*
X-119196Y58216D01*
X-123312Y55226D01*
X-124374Y56961D01*
X-124394Y56982D01*
X-124407Y57008D01*
X-124461Y57054D01*
X-124510Y57106D01*
X-124536Y57118D01*
X-124559Y57137D01*
X-124626Y57158D01*
X-124691Y57187D01*
X-124720Y57188D01*
X-124748Y57197D01*
X-124819Y57190D01*
X-124890Y57191D01*
X-124917Y57180D01*
X-124946Y57177D01*
X-125035Y57133D01*
X-125075Y57117D01*
X-125083Y57109D01*
X-125095Y57103D01*
X-140395Y45903D01*
X-140414Y45882D01*
X-140439Y45867D01*
X-140481Y45809D01*
X-140529Y45756D01*
X-140538Y45729D01*
X-140555Y45705D01*
X-140571Y45636D01*
X-140595Y45568D01*
X-140593Y45540D01*
X-140599Y45512D01*
X-140585Y45412D01*
X-140582Y45370D01*
X-140577Y45360D01*
X-140575Y45347D01*
X-134775Y27347D01*
X-134761Y27322D01*
X-134755Y27294D01*
X-134713Y27236D01*
X-134678Y27174D01*
X-134655Y27156D01*
X-134638Y27133D01*
X-134577Y27096D01*
X-134520Y27052D01*
X-134493Y27045D01*
X-134468Y27030D01*
X-134397Y27020D01*
X-134328Y27002D01*
X-134300Y27006D01*
X-134271Y27002D01*
X-134173Y27024D01*
X-134131Y27030D01*
X-134122Y27036D01*
X-134109Y27039D01*
X-132249Y27808D01*
X-131806Y26444D01*
X-131772Y26377D01*
X-131746Y26305D01*
X-131716Y26268D01*
X-131693Y26225D01*
X-131639Y26172D01*
X-131592Y26113D01*
X-131551Y26087D01*
X-131517Y26054D01*
X-131449Y26021D01*
X-131385Y25980D01*
X-131338Y25969D01*
X-131295Y25948D01*
X-131220Y25939D01*
X-131146Y25920D01*
X-131098Y25924D01*
X-131051Y25918D01*
X-130977Y25934D01*
X-130901Y25940D01*
X-130857Y25958D01*
X-130810Y25968D01*
X-130744Y26006D01*
X-130675Y26036D01*
X-130624Y26076D01*
X-130597Y26092D01*
X-130580Y26111D01*
X-130544Y26141D01*
X-127597Y29087D01*
X-123228Y29087D01*
X-120138Y25997D01*
X-120138Y21628D01*
X-123228Y18538D01*
X-127597Y18538D01*
X-127786Y18726D01*
X-127841Y18766D01*
X-127889Y18813D01*
X-127940Y18837D01*
X-127986Y18870D01*
X-128050Y18890D01*
X-128111Y18919D01*
X-128167Y18926D01*
X-128221Y18942D01*
X-128288Y18940D01*
X-128356Y18949D01*
X-128410Y18937D01*
X-128467Y18936D01*
X-128530Y18912D01*
X-128597Y18899D01*
X-128645Y18871D01*
X-128698Y18851D01*
X-128751Y18809D01*
X-128809Y18775D01*
X-128846Y18733D01*
X-128890Y18698D01*
X-128926Y18641D01*
X-128971Y18590D01*
X-128992Y18538D01*
X-129023Y18491D01*
X-129039Y18425D01*
X-129065Y18362D01*
X-129069Y18306D01*
X-129083Y18252D01*
X-129077Y18185D01*
X-129082Y18117D01*
X-129066Y18040D01*
X-129064Y18007D01*
X-129055Y17988D01*
X-129048Y17953D01*
X-120580Y-8116D01*
X-120528Y-8218D01*
X-120477Y-8321D01*
X-120471Y-8327D01*
X-120467Y-8335D01*
X-120385Y-8415D01*
X-120305Y-8496D01*
X-120297Y-8500D01*
X-120291Y-8506D01*
X-120188Y-8555D01*
X-120085Y-8607D01*
X-120076Y-8608D01*
X-120069Y-8612D01*
X-119956Y-8625D01*
X-119842Y-8642D01*
X-119831Y-8641D01*
X-119825Y-8641D01*
X-119803Y-8637D01*
X-119675Y-8620D01*
X-119155Y-8493D01*
X-119124Y-8480D01*
X-119089Y-8474D01*
X-119011Y-8432D01*
X-118929Y-8397D01*
X-118903Y-8374D01*
X-118873Y-8357D01*
X-118815Y-8302D01*
X-118174Y-8244D01*
X-118142Y-8236D01*
X-118062Y-8226D01*
X-117440Y-8073D01*
X-117371Y-8094D01*
X-117289Y-8127D01*
X-117254Y-8129D01*
X-117221Y-8139D01*
X-117053Y-8143D01*
X-114864Y-7945D01*
X-114831Y-7936D01*
X-114796Y-7935D01*
X-114712Y-7905D01*
X-114626Y-7883D01*
X-114597Y-7864D01*
X-114564Y-7852D01*
X-114500Y-7807D01*
X-113857Y-7845D01*
X-113824Y-7841D01*
X-113743Y-7843D01*
X-113105Y-7785D01*
X-113041Y-7816D01*
X-112964Y-7861D01*
X-112930Y-7868D01*
X-112899Y-7883D01*
X-112733Y-7911D01*
X-110539Y-8042D01*
X-110505Y-8038D01*
X-110470Y-8043D01*
X-110383Y-8026D01*
X-110295Y-8016D01*
X-110263Y-8002D01*
X-110229Y-7995D01*
X-110158Y-7960D01*
X-109528Y-8093D01*
X-109495Y-8095D01*
X-109415Y-8108D01*
X-108776Y-8146D01*
X-108721Y-8183D01*
X-108667Y-8230D01*
X-108659Y-8233D01*
X-108648Y-8242D01*
X-108615Y-8255D01*
X-108587Y-8274D01*
X-108427Y-8327D01*
X-106277Y-8782D01*
X-106242Y-8784D01*
X-106209Y-8794D01*
X-106120Y-8790D01*
X-106031Y-8794D01*
X-105998Y-8784D01*
X-105963Y-8783D01*
X-105888Y-8758D01*
X-105285Y-8984D01*
X-105253Y-8990D01*
X-105176Y-9016D01*
X-104549Y-9149D01*
X-104497Y-9197D01*
X-104437Y-9263D01*
X-104406Y-9280D01*
X-104381Y-9303D01*
X-104231Y-9379D01*
X-102173Y-10150D01*
X-102139Y-10157D01*
X-102107Y-10171D01*
X-102019Y-10181D01*
X-101931Y-10198D01*
X-101897Y-10194D01*
X-101863Y-10197D01*
X-101784Y-10184D01*
X-101222Y-10497D01*
X-101191Y-10508D01*
X-101119Y-10545D01*
X-100519Y-10770D01*
X-100474Y-10825D01*
X-100425Y-10899D01*
X-100397Y-10921D01*
X-100375Y-10948D01*
X-100239Y-11045D01*
X-98318Y-12114D01*
X-98285Y-12126D01*
X-98256Y-12145D01*
X-98170Y-12167D01*
X-98087Y-12198D01*
X-98052Y-12198D01*
X-98018Y-12207D01*
X-97939Y-12206D01*
X-97430Y-12599D01*
X-97401Y-12615D01*
X-97335Y-12662D01*
X-96775Y-12973D01*
X-96739Y-13035D01*
X-96701Y-13116D01*
X-96677Y-13141D01*
X-96660Y-13171D01*
X-96539Y-13287D01*
X-94799Y-14631D01*
X-94769Y-14647D01*
X-94743Y-14670D01*
X-94661Y-14705D01*
X-94583Y-14748D01*
X-94549Y-14754D01*
X-94517Y-14767D01*
X-94438Y-14778D01*
X-93993Y-15243D01*
X-93967Y-15263D01*
X-93908Y-15319D01*
X-93402Y-15710D01*
X-93375Y-15777D01*
X-93350Y-15862D01*
X-93330Y-15890D01*
X-93317Y-15923D01*
X-93215Y-16056D01*
X-91695Y-17644D01*
X-91667Y-17665D01*
X-91645Y-17691D01*
X-91569Y-17738D01*
X-91498Y-17792D01*
X-91465Y-17803D01*
X-91436Y-17821D01*
X-91360Y-17843D01*
X-90989Y-18369D01*
X-90966Y-18393D01*
X-90917Y-18457D01*
X-90474Y-18920D01*
X-90457Y-18989D01*
X-90445Y-19077D01*
X-90429Y-19108D01*
X-90422Y-19142D01*
X-90341Y-19289D01*
X-89074Y-21086D01*
X-89050Y-21111D01*
X-89032Y-21140D01*
X-88964Y-21198D01*
X-88902Y-21261D01*
X-88871Y-21277D01*
X-88845Y-21300D01*
X-88772Y-21333D01*
X-88484Y-21908D01*
X-88465Y-21935D01*
X-88426Y-22006D01*
X-88057Y-22529D01*
X-88051Y-22601D01*
X-88052Y-22690D01*
X-88041Y-22723D01*
X-88038Y-22757D01*
X-87980Y-22915D01*
X-86996Y-24880D01*
X-86976Y-24908D01*
X-86962Y-24940D01*
X-86904Y-25007D01*
X-86852Y-25079D01*
X-86823Y-25100D01*
X-86801Y-25126D01*
X-86734Y-25169D01*
X-86535Y-25781D01*
X-86520Y-25811D01*
X-86492Y-25886D01*
X-86205Y-26459D01*
X-86210Y-26531D01*
X-86224Y-26619D01*
X-86220Y-26641D01*
X-86221Y-26650D01*
X-86219Y-26661D01*
X-86221Y-26687D01*
X-86187Y-26852D01*
X-85506Y-28942D01*
X-85490Y-28972D01*
X-85482Y-29006D01*
X-85434Y-29081D01*
X-85393Y-29160D01*
X-85368Y-29184D01*
X-85350Y-29214D01*
X-85291Y-29267D01*
X-85185Y-29901D01*
X-85174Y-29933D01*
X-85158Y-30012D01*
X-84960Y-30621D01*
X-84975Y-30691D01*
X-85002Y-30776D01*
X-85002Y-30810D01*
X-85009Y-30844D01*
X-85000Y-31012D01*
X-84639Y-33180D01*
X-84627Y-33213D01*
X-84624Y-33247D01*
X-84588Y-33329D01*
X-84559Y-33413D01*
X-84538Y-33440D01*
X-84524Y-33472D01*
X-84474Y-33533D01*
X-84464Y-34177D01*
X-84458Y-34209D01*
X-84454Y-34290D01*
X-84442Y-34361D01*
X-84432Y-34389D01*
X-84430Y-34417D01*
X-84408Y-34468D01*
X-84401Y-34503D01*
X-84384Y-34531D01*
X-84363Y-34594D01*
X-84345Y-34617D01*
X-84334Y-34644D01*
X-84229Y-34774D01*
X-75040Y-43963D01*
X-74966Y-44016D01*
X-74897Y-44076D01*
X-74867Y-44088D01*
X-74841Y-44107D01*
X-74754Y-44134D01*
X-74669Y-44168D01*
X-74628Y-44172D01*
X-74605Y-44179D01*
X-74573Y-44178D01*
X-74502Y-44186D01*
X-45286Y-44186D01*
X-45215Y-44175D01*
G37*
G36*
X-67572Y-119694D02*
X-67572Y-119694D01*
X-67545Y-119696D01*
X-67476Y-119674D01*
X-67405Y-119660D01*
X-67382Y-119644D01*
X-67355Y-119635D01*
X-67301Y-119588D01*
X-67241Y-119547D01*
X-67226Y-119523D01*
X-67205Y-119505D01*
X-67173Y-119440D01*
X-67134Y-119380D01*
X-67129Y-119352D01*
X-67117Y-119327D01*
X-67108Y-119225D01*
X-67101Y-119183D01*
X-67103Y-119174D01*
X-67102Y-119161D01*
X-67256Y-117199D01*
X-60373Y-117199D01*
X-60302Y-117188D01*
X-60231Y-117186D01*
X-60182Y-117168D01*
X-60130Y-117160D01*
X-60067Y-117126D01*
X-60000Y-117101D01*
X-59959Y-117069D01*
X-59913Y-117044D01*
X-59864Y-116992D01*
X-59808Y-116948D01*
X-59779Y-116904D01*
X-59744Y-116866D01*
X-59713Y-116801D01*
X-59675Y-116741D01*
X-59662Y-116690D01*
X-59640Y-116643D01*
X-59632Y-116572D01*
X-59615Y-116502D01*
X-59619Y-116450D01*
X-59613Y-116399D01*
X-59628Y-116328D01*
X-59634Y-116257D01*
X-59654Y-116209D01*
X-59665Y-116158D01*
X-59702Y-116097D01*
X-59730Y-116031D01*
X-59775Y-115975D01*
X-59791Y-115947D01*
X-59809Y-115932D01*
X-59835Y-115900D01*
X-62425Y-113310D01*
X-62425Y-108940D01*
X-59335Y-105850D01*
X-54965Y-105850D01*
X-51875Y-108940D01*
X-51875Y-113310D01*
X-54465Y-115900D01*
X-54507Y-115958D01*
X-54556Y-116010D01*
X-54578Y-116057D01*
X-54609Y-116099D01*
X-54630Y-116168D01*
X-54660Y-116233D01*
X-54666Y-116285D01*
X-54681Y-116335D01*
X-54679Y-116406D01*
X-54687Y-116477D01*
X-54676Y-116528D01*
X-54675Y-116580D01*
X-54650Y-116648D01*
X-54635Y-116718D01*
X-54608Y-116763D01*
X-54590Y-116811D01*
X-54545Y-116867D01*
X-54509Y-116929D01*
X-54469Y-116963D01*
X-54437Y-117003D01*
X-54376Y-117042D01*
X-54322Y-117089D01*
X-54273Y-117108D01*
X-54230Y-117136D01*
X-54160Y-117154D01*
X-54094Y-117181D01*
X-54022Y-117189D01*
X-53991Y-117197D01*
X-53968Y-117195D01*
X-53927Y-117199D01*
X-29587Y-117199D01*
X-29475Y-117181D01*
X-29361Y-117165D01*
X-29353Y-117161D01*
X-29344Y-117160D01*
X-29244Y-117106D01*
X-29141Y-117055D01*
X-29134Y-117049D01*
X-29127Y-117044D01*
X-29048Y-116962D01*
X-28967Y-116880D01*
X-28963Y-116872D01*
X-28957Y-116866D01*
X-28909Y-116762D01*
X-28859Y-116660D01*
X-28857Y-116649D01*
X-28854Y-116643D01*
X-28851Y-116620D01*
X-28828Y-116495D01*
X-28786Y-115939D01*
X-28789Y-115904D01*
X-28784Y-115870D01*
X-28800Y-115782D01*
X-28807Y-115694D01*
X-28821Y-115662D01*
X-28828Y-115628D01*
X-28862Y-115556D01*
X-28719Y-114929D01*
X-28717Y-114896D01*
X-28702Y-114816D01*
X-28654Y-114178D01*
X-28613Y-114119D01*
X-28556Y-114051D01*
X-28543Y-114018D01*
X-28524Y-113990D01*
X-28468Y-113832D01*
X-27978Y-111685D01*
X-27976Y-111650D01*
X-27966Y-111617D01*
X-27969Y-111528D01*
X-27963Y-111439D01*
X-27972Y-111406D01*
X-27973Y-111371D01*
X-27997Y-111295D01*
X-27762Y-110696D01*
X-27755Y-110664D01*
X-27728Y-110588D01*
X-27586Y-109963D01*
X-27536Y-109911D01*
X-27470Y-109852D01*
X-27452Y-109822D01*
X-27428Y-109797D01*
X-27350Y-109649D01*
X-26546Y-107599D01*
X-26539Y-107565D01*
X-26524Y-107534D01*
X-26513Y-107445D01*
X-26494Y-107358D01*
X-26498Y-107324D01*
X-26494Y-107290D01*
X-26506Y-107211D01*
X-26184Y-106654D01*
X-26172Y-106623D01*
X-26135Y-106551D01*
X-25901Y-105955D01*
X-25844Y-105911D01*
X-25770Y-105863D01*
X-25748Y-105835D01*
X-25721Y-105814D01*
X-25621Y-105679D01*
X-24520Y-103772D01*
X-24508Y-103740D01*
X-24489Y-103711D01*
X-24465Y-103625D01*
X-24433Y-103542D01*
X-24432Y-103507D01*
X-24423Y-103474D01*
X-24423Y-103394D01*
X-24022Y-102891D01*
X-24005Y-102862D01*
X-23957Y-102797D01*
X-23637Y-102243D01*
X-23575Y-102207D01*
X-23494Y-102171D01*
X-23469Y-102147D01*
X-23438Y-102130D01*
X-23320Y-102011D01*
X-22398Y-100855D01*
X-22349Y-100767D01*
X-22294Y-100683D01*
X-22289Y-100660D01*
X-22277Y-100640D01*
X-22259Y-100542D01*
X-22234Y-100444D01*
X-22236Y-100421D01*
X-22232Y-100399D01*
X-22246Y-100299D01*
X-22253Y-100199D01*
X-22262Y-100178D01*
X-22266Y-100155D01*
X-22311Y-100065D01*
X-22350Y-99973D01*
X-22368Y-99951D01*
X-22375Y-99935D01*
X-22399Y-99911D01*
X-22455Y-99842D01*
X-24793Y-97504D01*
X-24793Y-91223D01*
X-24796Y-91204D01*
X-24794Y-91184D01*
X-24816Y-91083D01*
X-24832Y-90981D01*
X-24842Y-90963D01*
X-24846Y-90944D01*
X-24899Y-90855D01*
X-24948Y-90763D01*
X-24962Y-90750D01*
X-24972Y-90733D01*
X-25051Y-90665D01*
X-25126Y-90594D01*
X-25144Y-90586D01*
X-25159Y-90573D01*
X-25255Y-90534D01*
X-25349Y-90490D01*
X-25369Y-90488D01*
X-25387Y-90481D01*
X-25554Y-90462D01*
X-29409Y-90462D01*
X-30336Y-89535D01*
X-30341Y-89501D01*
X-30351Y-89483D01*
X-30355Y-89464D01*
X-30408Y-89375D01*
X-30457Y-89283D01*
X-30471Y-89270D01*
X-30481Y-89253D01*
X-30560Y-89185D01*
X-30635Y-89114D01*
X-30653Y-89106D01*
X-30668Y-89093D01*
X-30764Y-89054D01*
X-30858Y-89010D01*
X-30878Y-89008D01*
X-30896Y-89001D01*
X-31063Y-88982D01*
X-39252Y-88982D01*
X-39271Y-88985D01*
X-39291Y-88983D01*
X-39392Y-89005D01*
X-39494Y-89022D01*
X-39512Y-89031D01*
X-39531Y-89036D01*
X-39620Y-89089D01*
X-39712Y-89137D01*
X-39725Y-89151D01*
X-39742Y-89162D01*
X-39810Y-89240D01*
X-39881Y-89315D01*
X-39889Y-89333D01*
X-39902Y-89349D01*
X-39941Y-89445D01*
X-39985Y-89538D01*
X-39987Y-89558D01*
X-39994Y-89577D01*
X-40013Y-89743D01*
X-40013Y-91594D01*
X-40906Y-92487D01*
X-51169Y-92487D01*
X-52062Y-91594D01*
X-52062Y-83331D01*
X-51169Y-82438D01*
X-40906Y-82438D01*
X-40174Y-83170D01*
X-40100Y-83223D01*
X-40031Y-83282D01*
X-40000Y-83294D01*
X-39974Y-83313D01*
X-39887Y-83340D01*
X-39802Y-83374D01*
X-39761Y-83379D01*
X-39739Y-83386D01*
X-39707Y-83385D01*
X-39636Y-83393D01*
X-38316Y-83393D01*
X-38245Y-83381D01*
X-38173Y-83379D01*
X-38124Y-83361D01*
X-38073Y-83353D01*
X-38010Y-83320D01*
X-37942Y-83295D01*
X-37902Y-83262D01*
X-37856Y-83238D01*
X-37806Y-83186D01*
X-37750Y-83141D01*
X-37722Y-83097D01*
X-37686Y-83060D01*
X-37656Y-82994D01*
X-37617Y-82934D01*
X-37605Y-82884D01*
X-37583Y-82837D01*
X-37575Y-82765D01*
X-37557Y-82696D01*
X-37561Y-82644D01*
X-37556Y-82592D01*
X-37571Y-82522D01*
X-37576Y-82450D01*
X-37597Y-82403D01*
X-37608Y-82352D01*
X-37645Y-82290D01*
X-37673Y-82224D01*
X-37718Y-82168D01*
X-37734Y-82141D01*
X-37752Y-82125D01*
X-37778Y-82093D01*
X-38075Y-81796D01*
X-38075Y-77993D01*
X-38014Y-77932D01*
X-38002Y-77916D01*
X-37987Y-77904D01*
X-37931Y-77817D01*
X-37871Y-77733D01*
X-37865Y-77714D01*
X-37854Y-77697D01*
X-37829Y-77596D01*
X-37798Y-77498D01*
X-37799Y-77478D01*
X-37794Y-77458D01*
X-37802Y-77355D01*
X-37805Y-77252D01*
X-37811Y-77233D01*
X-37813Y-77213D01*
X-37853Y-77118D01*
X-37889Y-77021D01*
X-37901Y-77005D01*
X-37909Y-76987D01*
X-38014Y-76856D01*
X-38075Y-76795D01*
X-38075Y-72992D01*
X-38014Y-72931D01*
X-38002Y-72915D01*
X-37986Y-72902D01*
X-37930Y-72815D01*
X-37870Y-72731D01*
X-37864Y-72712D01*
X-37853Y-72695D01*
X-37828Y-72595D01*
X-37798Y-72496D01*
X-37798Y-72476D01*
X-37793Y-72457D01*
X-37801Y-72354D01*
X-37804Y-72250D01*
X-37811Y-72231D01*
X-37812Y-72212D01*
X-37853Y-72116D01*
X-37888Y-72019D01*
X-37901Y-72003D01*
X-37909Y-71985D01*
X-38014Y-71854D01*
X-38075Y-71793D01*
X-38075Y-67990D01*
X-38014Y-67929D01*
X-38002Y-67913D01*
X-37987Y-67901D01*
X-37931Y-67814D01*
X-37871Y-67730D01*
X-37865Y-67711D01*
X-37854Y-67694D01*
X-37829Y-67593D01*
X-37798Y-67495D01*
X-37799Y-67475D01*
X-37794Y-67455D01*
X-37802Y-67352D01*
X-37805Y-67249D01*
X-37811Y-67230D01*
X-37813Y-67210D01*
X-37853Y-67115D01*
X-37889Y-67018D01*
X-37901Y-67002D01*
X-37909Y-66984D01*
X-38014Y-66853D01*
X-38075Y-66792D01*
X-38075Y-66061D01*
X-38086Y-65990D01*
X-38088Y-65918D01*
X-38106Y-65870D01*
X-38114Y-65818D01*
X-38148Y-65755D01*
X-38173Y-65687D01*
X-38205Y-65647D01*
X-38230Y-65601D01*
X-38282Y-65551D01*
X-38327Y-65495D01*
X-38370Y-65467D01*
X-38408Y-65431D01*
X-38473Y-65401D01*
X-38533Y-65362D01*
X-38584Y-65350D01*
X-38631Y-65328D01*
X-38702Y-65320D01*
X-38772Y-65302D01*
X-38824Y-65306D01*
X-38875Y-65301D01*
X-38946Y-65316D01*
X-39017Y-65322D01*
X-39065Y-65342D01*
X-39108Y-65351D01*
X-46030Y-65351D01*
X-58461Y-52920D01*
X-58535Y-52866D01*
X-58605Y-52807D01*
X-58635Y-52795D01*
X-58661Y-52776D01*
X-58748Y-52749D01*
X-58833Y-52715D01*
X-58874Y-52711D01*
X-58896Y-52704D01*
X-58928Y-52704D01*
X-59000Y-52697D01*
X-79063Y-52697D01*
X-79153Y-52711D01*
X-79244Y-52718D01*
X-79274Y-52731D01*
X-79306Y-52736D01*
X-79386Y-52779D01*
X-79470Y-52815D01*
X-79502Y-52840D01*
X-79523Y-52851D01*
X-79545Y-52875D01*
X-79601Y-52920D01*
X-81366Y-54685D01*
X-84908Y-54685D01*
X-87596Y-51996D01*
X-87674Y-51940D01*
X-87749Y-51878D01*
X-87774Y-51868D01*
X-87796Y-51853D01*
X-87888Y-51824D01*
X-87978Y-51789D01*
X-88005Y-51788D01*
X-88031Y-51780D01*
X-88127Y-51783D01*
X-88224Y-51779D01*
X-88250Y-51786D01*
X-88277Y-51787D01*
X-88368Y-51820D01*
X-88460Y-51847D01*
X-88482Y-51862D01*
X-88508Y-51871D01*
X-88583Y-51932D01*
X-88663Y-51987D01*
X-88684Y-52012D01*
X-88700Y-52025D01*
X-88718Y-52053D01*
X-88770Y-52116D01*
X-89807Y-53688D01*
X-89821Y-53720D01*
X-89842Y-53748D01*
X-89871Y-53831D01*
X-89907Y-53913D01*
X-89911Y-53947D01*
X-89922Y-53980D01*
X-89926Y-54060D01*
X-90357Y-54538D01*
X-90375Y-54566D01*
X-90426Y-54628D01*
X-90779Y-55163D01*
X-90843Y-55194D01*
X-90926Y-55226D01*
X-90953Y-55248D01*
X-90984Y-55263D01*
X-91109Y-55375D01*
X-92579Y-57009D01*
X-92598Y-57038D01*
X-92623Y-57062D01*
X-92664Y-57141D01*
X-92712Y-57216D01*
X-92721Y-57250D01*
X-92736Y-57281D01*
X-92753Y-57358D01*
X-93250Y-57767D01*
X-93272Y-57792D01*
X-93332Y-57846D01*
X-93760Y-58322D01*
X-93829Y-58344D01*
X-93916Y-58363D01*
X-93945Y-58381D01*
X-93978Y-58391D01*
X-94119Y-58483D01*
X-95816Y-59880D01*
X-95839Y-59906D01*
X-95867Y-59926D01*
X-95919Y-59998D01*
X-95978Y-60065D01*
X-95991Y-60097D01*
X-96012Y-60125D01*
X-96040Y-60199D01*
X-96592Y-60530D01*
X-96617Y-60551D01*
X-96685Y-60595D01*
X-97179Y-61002D01*
X-97250Y-61013D01*
X-97339Y-61019D01*
X-97371Y-61032D01*
X-97405Y-61038D01*
X-97558Y-61107D01*
X-99444Y-62236D01*
X-99471Y-62258D01*
X-99502Y-62274D01*
X-99564Y-62337D01*
X-99632Y-62395D01*
X-99650Y-62424D01*
X-99674Y-62449D01*
X-99713Y-62518D01*
X-100308Y-62763D01*
X-100336Y-62780D01*
X-100410Y-62814D01*
X-100960Y-63143D01*
X-101031Y-63143D01*
X-101120Y-63136D01*
X-101154Y-63144D01*
X-101188Y-63144D01*
X-101350Y-63190D01*
X-101879Y-63408D01*
X-101977Y-63468D01*
X-102075Y-63525D01*
X-102081Y-63532D01*
X-102089Y-63537D01*
X-102162Y-63625D01*
X-102237Y-63710D01*
X-102240Y-63719D01*
X-102246Y-63726D01*
X-102288Y-63832D01*
X-102331Y-63937D01*
X-102332Y-63947D01*
X-102335Y-63955D01*
X-102340Y-64069D01*
X-102348Y-64183D01*
X-102346Y-64194D01*
X-102346Y-64201D01*
X-102340Y-64223D01*
X-102314Y-64347D01*
X-94440Y-88590D01*
X-94405Y-88657D01*
X-94379Y-88728D01*
X-94349Y-88765D01*
X-94327Y-88808D01*
X-94273Y-88861D01*
X-94225Y-88920D01*
X-94185Y-88946D01*
X-94150Y-88979D01*
X-94082Y-89012D01*
X-94018Y-89053D01*
X-93972Y-89065D01*
X-93928Y-89085D01*
X-93853Y-89095D01*
X-93780Y-89113D01*
X-93732Y-89109D01*
X-93684Y-89115D01*
X-93610Y-89100D01*
X-93535Y-89094D01*
X-93490Y-89075D01*
X-93443Y-89065D01*
X-93378Y-89027D01*
X-93308Y-88998D01*
X-93258Y-88957D01*
X-93231Y-88941D01*
X-93214Y-88922D01*
X-93177Y-88893D01*
X-91085Y-86800D01*
X-86715Y-86800D01*
X-83625Y-89890D01*
X-83625Y-94260D01*
X-86715Y-97350D01*
X-90546Y-97350D01*
X-90562Y-97352D01*
X-90578Y-97350D01*
X-90683Y-97372D01*
X-90789Y-97389D01*
X-90803Y-97397D01*
X-90819Y-97400D01*
X-90912Y-97454D01*
X-91006Y-97505D01*
X-91017Y-97516D01*
X-91031Y-97524D01*
X-91102Y-97605D01*
X-91176Y-97683D01*
X-91183Y-97697D01*
X-91193Y-97709D01*
X-91234Y-97809D01*
X-91279Y-97906D01*
X-91281Y-97922D01*
X-91287Y-97937D01*
X-91295Y-98044D01*
X-91307Y-98150D01*
X-91303Y-98166D01*
X-91304Y-98182D01*
X-91270Y-98346D01*
X-90684Y-100151D01*
X-92616Y-100615D01*
X-92642Y-100627D01*
X-92670Y-100631D01*
X-92732Y-100668D01*
X-92797Y-100698D01*
X-92816Y-100720D01*
X-92840Y-100734D01*
X-92882Y-100793D01*
X-92930Y-100846D01*
X-92939Y-100873D01*
X-92956Y-100896D01*
X-92971Y-100966D01*
X-92995Y-101034D01*
X-92993Y-101062D01*
X-92999Y-101090D01*
X-92984Y-101190D01*
X-92981Y-101232D01*
X-92977Y-101242D01*
X-92975Y-101255D01*
X-87075Y-119355D01*
X-87060Y-119381D01*
X-87053Y-119410D01*
X-87011Y-119467D01*
X-86977Y-119528D01*
X-86953Y-119546D01*
X-86935Y-119570D01*
X-86875Y-119606D01*
X-86819Y-119649D01*
X-86790Y-119656D01*
X-86764Y-119672D01*
X-86668Y-119688D01*
X-86626Y-119699D01*
X-86615Y-119697D01*
X-86600Y-119699D01*
X-67600Y-119699D01*
X-67572Y-119694D01*
G37*
G36*
X20044Y-82186D02*
X20044Y-82186D01*
X20147Y-82183D01*
X20166Y-82177D01*
X20186Y-82175D01*
X20281Y-82135D01*
X20378Y-82099D01*
X20394Y-82087D01*
X20412Y-82079D01*
X20471Y-82032D01*
X20480Y-82027D01*
X20490Y-82016D01*
X20543Y-81974D01*
X20604Y-81913D01*
X24408Y-81913D01*
X24468Y-81973D01*
X24484Y-81985D01*
X24497Y-82001D01*
X24567Y-82046D01*
X24597Y-82071D01*
X24614Y-82078D01*
X24668Y-82117D01*
X24687Y-82123D01*
X24704Y-82134D01*
X24804Y-82159D01*
X24903Y-82189D01*
X24923Y-82189D01*
X24942Y-82194D01*
X25045Y-82186D01*
X25149Y-82183D01*
X25168Y-82176D01*
X25188Y-82175D01*
X25283Y-82134D01*
X25380Y-82099D01*
X25396Y-82086D01*
X25414Y-82078D01*
X25471Y-82032D01*
X25481Y-82027D01*
X25492Y-82016D01*
X25545Y-81973D01*
X25605Y-81913D01*
X28764Y-81913D01*
X28784Y-81910D01*
X28803Y-81912D01*
X28905Y-81890D01*
X29007Y-81873D01*
X29024Y-81864D01*
X29044Y-81859D01*
X29133Y-81806D01*
X29224Y-81758D01*
X29238Y-81744D01*
X29255Y-81733D01*
X29322Y-81655D01*
X29394Y-81580D01*
X29402Y-81562D01*
X29415Y-81546D01*
X29454Y-81450D01*
X29497Y-81357D01*
X29499Y-81337D01*
X29507Y-81318D01*
X29525Y-81152D01*
X29525Y-77993D01*
X29586Y-77932D01*
X29598Y-77916D01*
X29613Y-77904D01*
X29669Y-77816D01*
X29729Y-77733D01*
X29735Y-77714D01*
X29746Y-77697D01*
X29771Y-77596D01*
X29802Y-77497D01*
X29801Y-77477D01*
X29806Y-77458D01*
X29798Y-77355D01*
X29795Y-77252D01*
X29789Y-77233D01*
X29787Y-77213D01*
X29747Y-77118D01*
X29711Y-77021D01*
X29699Y-77005D01*
X29691Y-76987D01*
X29586Y-76856D01*
X29525Y-76795D01*
X29525Y-72992D01*
X29586Y-72931D01*
X29598Y-72915D01*
X29614Y-72902D01*
X29670Y-72815D01*
X29730Y-72731D01*
X29736Y-72712D01*
X29747Y-72695D01*
X29772Y-72595D01*
X29802Y-72496D01*
X29802Y-72476D01*
X29807Y-72457D01*
X29799Y-72354D01*
X29796Y-72250D01*
X29789Y-72231D01*
X29788Y-72211D01*
X29747Y-72116D01*
X29712Y-72019D01*
X29699Y-72003D01*
X29691Y-71985D01*
X29586Y-71854D01*
X29525Y-71793D01*
X29525Y-67990D01*
X29586Y-67929D01*
X29598Y-67913D01*
X29613Y-67901D01*
X29669Y-67813D01*
X29729Y-67730D01*
X29735Y-67711D01*
X29746Y-67694D01*
X29771Y-67593D01*
X29802Y-67494D01*
X29801Y-67474D01*
X29806Y-67455D01*
X29798Y-67352D01*
X29795Y-67249D01*
X29789Y-67230D01*
X29787Y-67210D01*
X29747Y-67115D01*
X29711Y-67018D01*
X29699Y-67002D01*
X29691Y-66984D01*
X29586Y-66853D01*
X29525Y-66792D01*
X29525Y-62989D01*
X29586Y-62928D01*
X29598Y-62912D01*
X29613Y-62900D01*
X29644Y-62851D01*
X29676Y-62817D01*
X29696Y-62775D01*
X29729Y-62729D01*
X29735Y-62710D01*
X29746Y-62693D01*
X29760Y-62637D01*
X29780Y-62594D01*
X29785Y-62547D01*
X29802Y-62493D01*
X29801Y-62473D01*
X29806Y-62454D01*
X29802Y-62398D01*
X29807Y-62350D01*
X29797Y-62303D01*
X29795Y-62248D01*
X29789Y-62229D01*
X29787Y-62209D01*
X29765Y-62158D01*
X29755Y-62109D01*
X29729Y-62067D01*
X29711Y-62017D01*
X29699Y-62001D01*
X29691Y-61983D01*
X29645Y-61925D01*
X29629Y-61898D01*
X29611Y-61884D01*
X29586Y-61852D01*
X29525Y-61791D01*
X29525Y-57988D01*
X29586Y-57927D01*
X29598Y-57911D01*
X29613Y-57899D01*
X29669Y-57811D01*
X29729Y-57728D01*
X29735Y-57709D01*
X29746Y-57692D01*
X29771Y-57591D01*
X29802Y-57492D01*
X29801Y-57472D01*
X29806Y-57453D01*
X29798Y-57350D01*
X29795Y-57247D01*
X29789Y-57228D01*
X29787Y-57208D01*
X29747Y-57113D01*
X29711Y-57016D01*
X29699Y-57000D01*
X29691Y-56982D01*
X29586Y-56851D01*
X29525Y-56790D01*
X29525Y-52987D01*
X29586Y-52926D01*
X29598Y-52910D01*
X29614Y-52897D01*
X29670Y-52810D01*
X29730Y-52726D01*
X29736Y-52707D01*
X29747Y-52690D01*
X29772Y-52590D01*
X29802Y-52491D01*
X29802Y-52471D01*
X29807Y-52452D01*
X29799Y-52349D01*
X29796Y-52245D01*
X29789Y-52226D01*
X29788Y-52206D01*
X29747Y-52111D01*
X29712Y-52014D01*
X29699Y-51998D01*
X29691Y-51980D01*
X29586Y-51849D01*
X29525Y-51788D01*
X29525Y-47985D01*
X29586Y-47924D01*
X29598Y-47908D01*
X29613Y-47896D01*
X29669Y-47808D01*
X29729Y-47725D01*
X29735Y-47706D01*
X29746Y-47689D01*
X29771Y-47588D01*
X29802Y-47489D01*
X29801Y-47469D01*
X29806Y-47450D01*
X29798Y-47347D01*
X29795Y-47244D01*
X29789Y-47225D01*
X29787Y-47205D01*
X29747Y-47110D01*
X29711Y-47013D01*
X29699Y-46997D01*
X29691Y-46979D01*
X29586Y-46848D01*
X29525Y-46787D01*
X29525Y-42984D01*
X29586Y-42923D01*
X29598Y-42907D01*
X29613Y-42895D01*
X29669Y-42807D01*
X29729Y-42724D01*
X29735Y-42705D01*
X29746Y-42688D01*
X29771Y-42587D01*
X29802Y-42488D01*
X29801Y-42468D01*
X29806Y-42449D01*
X29798Y-42346D01*
X29795Y-42243D01*
X29789Y-42224D01*
X29787Y-42204D01*
X29747Y-42109D01*
X29711Y-42012D01*
X29699Y-41996D01*
X29691Y-41978D01*
X29586Y-41847D01*
X29525Y-41786D01*
X29525Y-37983D01*
X29586Y-37922D01*
X29598Y-37906D01*
X29613Y-37894D01*
X29669Y-37806D01*
X29729Y-37723D01*
X29735Y-37704D01*
X29746Y-37687D01*
X29771Y-37586D01*
X29802Y-37487D01*
X29801Y-37467D01*
X29806Y-37448D01*
X29798Y-37345D01*
X29795Y-37242D01*
X29789Y-37223D01*
X29787Y-37203D01*
X29747Y-37108D01*
X29711Y-37011D01*
X29699Y-36995D01*
X29691Y-36977D01*
X29586Y-36846D01*
X29525Y-36785D01*
X29525Y-32982D01*
X29586Y-32921D01*
X29598Y-32905D01*
X29614Y-32892D01*
X29670Y-32805D01*
X29730Y-32721D01*
X29736Y-32702D01*
X29747Y-32685D01*
X29772Y-32585D01*
X29802Y-32486D01*
X29802Y-32466D01*
X29807Y-32447D01*
X29799Y-32344D01*
X29796Y-32240D01*
X29789Y-32221D01*
X29788Y-32201D01*
X29747Y-32106D01*
X29712Y-32009D01*
X29699Y-31993D01*
X29691Y-31975D01*
X29586Y-31844D01*
X29525Y-31783D01*
X29525Y-27980D01*
X29586Y-27919D01*
X29598Y-27903D01*
X29613Y-27891D01*
X29669Y-27803D01*
X29729Y-27720D01*
X29735Y-27701D01*
X29746Y-27684D01*
X29771Y-27583D01*
X29802Y-27484D01*
X29801Y-27464D01*
X29806Y-27445D01*
X29798Y-27342D01*
X29798Y-27338D01*
X29799Y-27332D01*
X29798Y-27329D01*
X29795Y-27239D01*
X29789Y-27220D01*
X29787Y-27200D01*
X29752Y-27117D01*
X29746Y-27092D01*
X29735Y-27073D01*
X29711Y-27008D01*
X29699Y-26992D01*
X29691Y-26974D01*
X29631Y-26899D01*
X29620Y-26881D01*
X29608Y-26871D01*
X29586Y-26843D01*
X29525Y-26782D01*
X29525Y-23623D01*
X29522Y-23604D01*
X29524Y-23584D01*
X29502Y-23483D01*
X29486Y-23381D01*
X29476Y-23363D01*
X29472Y-23344D01*
X29419Y-23255D01*
X29370Y-23163D01*
X29356Y-23150D01*
X29346Y-23133D01*
X29267Y-23065D01*
X29192Y-22994D01*
X29174Y-22986D01*
X29159Y-22973D01*
X29063Y-22934D01*
X28969Y-22890D01*
X28949Y-22888D01*
X28931Y-22881D01*
X28764Y-22862D01*
X25605Y-22862D01*
X25545Y-22802D01*
X25529Y-22790D01*
X25516Y-22774D01*
X25429Y-22718D01*
X25345Y-22658D01*
X25326Y-22652D01*
X25309Y-22641D01*
X25209Y-22616D01*
X25110Y-22586D01*
X25090Y-22586D01*
X25071Y-22581D01*
X24968Y-22589D01*
X24864Y-22592D01*
X24845Y-22599D01*
X24825Y-22600D01*
X24730Y-22641D01*
X24633Y-22676D01*
X24617Y-22689D01*
X24599Y-22697D01*
X24468Y-22802D01*
X24408Y-22862D01*
X20604Y-22862D01*
X20543Y-22801D01*
X20527Y-22789D01*
X20515Y-22774D01*
X20427Y-22718D01*
X20344Y-22658D01*
X20325Y-22652D01*
X20308Y-22641D01*
X20207Y-22616D01*
X20108Y-22585D01*
X20088Y-22586D01*
X20069Y-22581D01*
X19966Y-22589D01*
X19863Y-22592D01*
X19844Y-22598D01*
X19824Y-22600D01*
X19729Y-22640D01*
X19632Y-22676D01*
X19616Y-22688D01*
X19598Y-22696D01*
X19467Y-22801D01*
X19406Y-22862D01*
X15602Y-22862D01*
X15542Y-22802D01*
X15526Y-22790D01*
X15513Y-22774D01*
X15426Y-22718D01*
X15342Y-22658D01*
X15323Y-22652D01*
X15306Y-22641D01*
X15206Y-22616D01*
X15107Y-22586D01*
X15087Y-22586D01*
X15068Y-22581D01*
X14965Y-22589D01*
X14861Y-22592D01*
X14842Y-22599D01*
X14822Y-22600D01*
X14727Y-22641D01*
X14630Y-22676D01*
X14614Y-22689D01*
X14596Y-22697D01*
X14465Y-22802D01*
X14405Y-22862D01*
X10601Y-22862D01*
X10541Y-22802D01*
X10525Y-22790D01*
X10512Y-22774D01*
X10425Y-22718D01*
X10341Y-22658D01*
X10322Y-22652D01*
X10305Y-22641D01*
X10205Y-22616D01*
X10106Y-22586D01*
X10086Y-22586D01*
X10067Y-22581D01*
X9964Y-22589D01*
X9860Y-22592D01*
X9841Y-22599D01*
X9821Y-22600D01*
X9726Y-22641D01*
X9629Y-22676D01*
X9613Y-22689D01*
X9595Y-22697D01*
X9464Y-22802D01*
X9404Y-22862D01*
X5600Y-22862D01*
X5540Y-22802D01*
X5524Y-22790D01*
X5511Y-22774D01*
X5424Y-22718D01*
X5340Y-22658D01*
X5321Y-22652D01*
X5304Y-22641D01*
X5204Y-22616D01*
X5105Y-22586D01*
X5085Y-22586D01*
X5066Y-22581D01*
X4963Y-22589D01*
X4859Y-22592D01*
X4840Y-22599D01*
X4820Y-22600D01*
X4725Y-22641D01*
X4628Y-22676D01*
X4612Y-22689D01*
X4594Y-22697D01*
X4463Y-22802D01*
X4403Y-22862D01*
X599Y-22862D01*
X538Y-22801D01*
X522Y-22789D01*
X510Y-22774D01*
X423Y-22718D01*
X339Y-22658D01*
X319Y-22652D01*
X303Y-22641D01*
X203Y-22616D01*
X104Y-22585D01*
X84Y-22586D01*
X64Y-22581D01*
X-39Y-22589D01*
X-142Y-22592D01*
X-161Y-22598D01*
X-181Y-22600D01*
X-276Y-22641D01*
X-373Y-22676D01*
X-389Y-22688D01*
X-407Y-22696D01*
X-538Y-22801D01*
X-599Y-22862D01*
X-4403Y-22862D01*
X-4463Y-22802D01*
X-4479Y-22790D01*
X-4492Y-22774D01*
X-4579Y-22718D01*
X-4663Y-22658D01*
X-4682Y-22652D01*
X-4699Y-22641D01*
X-4799Y-22616D01*
X-4898Y-22586D01*
X-4918Y-22586D01*
X-4937Y-22581D01*
X-5040Y-22589D01*
X-5144Y-22592D01*
X-5163Y-22599D01*
X-5183Y-22600D01*
X-5278Y-22641D01*
X-5375Y-22676D01*
X-5391Y-22689D01*
X-5409Y-22697D01*
X-5540Y-22802D01*
X-5600Y-22862D01*
X-9404Y-22862D01*
X-9464Y-22802D01*
X-9480Y-22790D01*
X-9493Y-22774D01*
X-9580Y-22718D01*
X-9664Y-22658D01*
X-9683Y-22652D01*
X-9700Y-22641D01*
X-9800Y-22616D01*
X-9899Y-22586D01*
X-9919Y-22586D01*
X-9938Y-22581D01*
X-10041Y-22589D01*
X-10145Y-22592D01*
X-10164Y-22599D01*
X-10184Y-22600D01*
X-10279Y-22641D01*
X-10376Y-22676D01*
X-10392Y-22689D01*
X-10410Y-22697D01*
X-10541Y-22802D01*
X-10601Y-22862D01*
X-14405Y-22862D01*
X-14465Y-22802D01*
X-14481Y-22790D01*
X-14494Y-22774D01*
X-14581Y-22718D01*
X-14665Y-22658D01*
X-14684Y-22652D01*
X-14701Y-22641D01*
X-14801Y-22616D01*
X-14900Y-22586D01*
X-14920Y-22586D01*
X-14939Y-22581D01*
X-15042Y-22589D01*
X-15146Y-22592D01*
X-15165Y-22599D01*
X-15185Y-22600D01*
X-15280Y-22641D01*
X-15377Y-22676D01*
X-15393Y-22689D01*
X-15411Y-22697D01*
X-15542Y-22802D01*
X-15602Y-22862D01*
X-19406Y-22862D01*
X-19467Y-22801D01*
X-19483Y-22789D01*
X-19495Y-22774D01*
X-19583Y-22718D01*
X-19666Y-22658D01*
X-19685Y-22652D01*
X-19702Y-22641D01*
X-19803Y-22616D01*
X-19902Y-22585D01*
X-19922Y-22586D01*
X-19941Y-22581D01*
X-20044Y-22589D01*
X-20147Y-22592D01*
X-20166Y-22598D01*
X-20186Y-22600D01*
X-20281Y-22640D01*
X-20378Y-22676D01*
X-20394Y-22688D01*
X-20412Y-22696D01*
X-20543Y-22801D01*
X-20604Y-22862D01*
X-24408Y-22862D01*
X-24468Y-22802D01*
X-24484Y-22790D01*
X-24497Y-22774D01*
X-24584Y-22718D01*
X-24668Y-22658D01*
X-24687Y-22652D01*
X-24704Y-22641D01*
X-24804Y-22616D01*
X-24903Y-22586D01*
X-24923Y-22586D01*
X-24942Y-22581D01*
X-25045Y-22589D01*
X-25149Y-22592D01*
X-25168Y-22599D01*
X-25188Y-22600D01*
X-25283Y-22641D01*
X-25380Y-22676D01*
X-25396Y-22689D01*
X-25414Y-22697D01*
X-25545Y-22802D01*
X-25605Y-22862D01*
X-28764Y-22862D01*
X-28784Y-22865D01*
X-28803Y-22863D01*
X-28905Y-22885D01*
X-29007Y-22902D01*
X-29024Y-22911D01*
X-29044Y-22916D01*
X-29133Y-22969D01*
X-29224Y-23017D01*
X-29238Y-23031D01*
X-29255Y-23042D01*
X-29322Y-23120D01*
X-29394Y-23195D01*
X-29402Y-23213D01*
X-29415Y-23229D01*
X-29454Y-23325D01*
X-29497Y-23418D01*
X-29499Y-23438D01*
X-29507Y-23457D01*
X-29525Y-23623D01*
X-29525Y-26782D01*
X-29586Y-26843D01*
X-29598Y-26859D01*
X-29613Y-26871D01*
X-29642Y-26917D01*
X-29668Y-26944D01*
X-29685Y-26981D01*
X-29729Y-27042D01*
X-29735Y-27061D01*
X-29746Y-27078D01*
X-29765Y-27152D01*
X-29772Y-27167D01*
X-29774Y-27186D01*
X-29802Y-27278D01*
X-29801Y-27298D01*
X-29806Y-27317D01*
X-29798Y-27420D01*
X-29795Y-27523D01*
X-29789Y-27542D01*
X-29787Y-27562D01*
X-29747Y-27657D01*
X-29711Y-27754D01*
X-29699Y-27770D01*
X-29691Y-27788D01*
X-29586Y-27919D01*
X-29525Y-27980D01*
X-29525Y-31783D01*
X-29586Y-31844D01*
X-29598Y-31860D01*
X-29614Y-31873D01*
X-29670Y-31960D01*
X-29730Y-32044D01*
X-29736Y-32063D01*
X-29747Y-32080D01*
X-29772Y-32180D01*
X-29802Y-32279D01*
X-29802Y-32299D01*
X-29807Y-32318D01*
X-29799Y-32421D01*
X-29796Y-32525D01*
X-29789Y-32544D01*
X-29788Y-32564D01*
X-29747Y-32659D01*
X-29712Y-32756D01*
X-29699Y-32772D01*
X-29691Y-32790D01*
X-29586Y-32921D01*
X-29525Y-32982D01*
X-29525Y-36785D01*
X-29586Y-36846D01*
X-29598Y-36862D01*
X-29613Y-36874D01*
X-29669Y-36962D01*
X-29729Y-37045D01*
X-29735Y-37064D01*
X-29746Y-37081D01*
X-29771Y-37182D01*
X-29802Y-37281D01*
X-29801Y-37301D01*
X-29806Y-37320D01*
X-29798Y-37423D01*
X-29795Y-37526D01*
X-29789Y-37545D01*
X-29787Y-37565D01*
X-29747Y-37660D01*
X-29711Y-37757D01*
X-29699Y-37773D01*
X-29691Y-37791D01*
X-29586Y-37922D01*
X-29525Y-37983D01*
X-29525Y-41786D01*
X-29586Y-41847D01*
X-29598Y-41863D01*
X-29613Y-41875D01*
X-29669Y-41963D01*
X-29729Y-42046D01*
X-29735Y-42065D01*
X-29746Y-42082D01*
X-29771Y-42183D01*
X-29802Y-42282D01*
X-29801Y-42302D01*
X-29806Y-42321D01*
X-29798Y-42424D01*
X-29795Y-42527D01*
X-29789Y-42546D01*
X-29787Y-42566D01*
X-29747Y-42661D01*
X-29711Y-42758D01*
X-29699Y-42774D01*
X-29691Y-42792D01*
X-29586Y-42923D01*
X-29525Y-42984D01*
X-29525Y-46787D01*
X-29586Y-46848D01*
X-29598Y-46864D01*
X-29613Y-46876D01*
X-29669Y-46964D01*
X-29729Y-47047D01*
X-29735Y-47066D01*
X-29746Y-47083D01*
X-29771Y-47184D01*
X-29802Y-47283D01*
X-29801Y-47303D01*
X-29806Y-47322D01*
X-29798Y-47425D01*
X-29795Y-47528D01*
X-29789Y-47547D01*
X-29787Y-47567D01*
X-29747Y-47662D01*
X-29711Y-47759D01*
X-29699Y-47775D01*
X-29691Y-47793D01*
X-29586Y-47924D01*
X-29525Y-47985D01*
X-29525Y-51788D01*
X-29586Y-51849D01*
X-29598Y-51865D01*
X-29614Y-51878D01*
X-29670Y-51965D01*
X-29730Y-52049D01*
X-29736Y-52068D01*
X-29747Y-52085D01*
X-29772Y-52185D01*
X-29802Y-52284D01*
X-29802Y-52304D01*
X-29807Y-52323D01*
X-29799Y-52426D01*
X-29796Y-52530D01*
X-29789Y-52549D01*
X-29788Y-52569D01*
X-29747Y-52664D01*
X-29712Y-52761D01*
X-29699Y-52777D01*
X-29691Y-52795D01*
X-29586Y-52926D01*
X-29525Y-52987D01*
X-29525Y-56790D01*
X-29586Y-56851D01*
X-29598Y-56867D01*
X-29613Y-56879D01*
X-29669Y-56967D01*
X-29729Y-57050D01*
X-29735Y-57069D01*
X-29746Y-57086D01*
X-29771Y-57187D01*
X-29802Y-57286D01*
X-29801Y-57306D01*
X-29806Y-57325D01*
X-29798Y-57428D01*
X-29795Y-57531D01*
X-29789Y-57550D01*
X-29787Y-57570D01*
X-29747Y-57665D01*
X-29711Y-57762D01*
X-29699Y-57778D01*
X-29691Y-57796D01*
X-29586Y-57927D01*
X-29525Y-57988D01*
X-29525Y-61791D01*
X-29586Y-61852D01*
X-29598Y-61868D01*
X-29613Y-61880D01*
X-29641Y-61924D01*
X-29676Y-61961D01*
X-29698Y-62008D01*
X-29729Y-62051D01*
X-29735Y-62070D01*
X-29746Y-62087D01*
X-29759Y-62140D01*
X-29780Y-62184D01*
X-29785Y-62233D01*
X-29802Y-62287D01*
X-29801Y-62307D01*
X-29806Y-62326D01*
X-29802Y-62381D01*
X-29807Y-62429D01*
X-29797Y-62476D01*
X-29795Y-62532D01*
X-29789Y-62551D01*
X-29787Y-62571D01*
X-29765Y-62623D01*
X-29755Y-62669D01*
X-29731Y-62709D01*
X-29711Y-62763D01*
X-29699Y-62779D01*
X-29691Y-62797D01*
X-29641Y-62859D01*
X-29629Y-62880D01*
X-29615Y-62892D01*
X-29586Y-62928D01*
X-29525Y-62989D01*
X-29525Y-66792D01*
X-29586Y-66853D01*
X-29598Y-66869D01*
X-29613Y-66881D01*
X-29669Y-66969D01*
X-29729Y-67052D01*
X-29735Y-67071D01*
X-29746Y-67088D01*
X-29771Y-67189D01*
X-29802Y-67288D01*
X-29801Y-67308D01*
X-29806Y-67327D01*
X-29798Y-67430D01*
X-29795Y-67533D01*
X-29789Y-67552D01*
X-29787Y-67572D01*
X-29747Y-67667D01*
X-29711Y-67764D01*
X-29699Y-67780D01*
X-29691Y-67798D01*
X-29586Y-67929D01*
X-29525Y-67990D01*
X-29525Y-71793D01*
X-29586Y-71854D01*
X-29598Y-71870D01*
X-29614Y-71883D01*
X-29670Y-71970D01*
X-29730Y-72054D01*
X-29736Y-72073D01*
X-29747Y-72090D01*
X-29772Y-72190D01*
X-29802Y-72289D01*
X-29802Y-72309D01*
X-29807Y-72328D01*
X-29799Y-72431D01*
X-29796Y-72535D01*
X-29789Y-72554D01*
X-29788Y-72574D01*
X-29747Y-72669D01*
X-29712Y-72766D01*
X-29699Y-72782D01*
X-29691Y-72800D01*
X-29586Y-72931D01*
X-29525Y-72992D01*
X-29525Y-76795D01*
X-29586Y-76856D01*
X-29598Y-76872D01*
X-29613Y-76884D01*
X-29669Y-76972D01*
X-29729Y-77055D01*
X-29735Y-77074D01*
X-29746Y-77091D01*
X-29771Y-77192D01*
X-29802Y-77291D01*
X-29801Y-77311D01*
X-29806Y-77330D01*
X-29798Y-77433D01*
X-29795Y-77536D01*
X-29789Y-77555D01*
X-29787Y-77575D01*
X-29747Y-77670D01*
X-29711Y-77767D01*
X-29699Y-77783D01*
X-29691Y-77801D01*
X-29586Y-77932D01*
X-29525Y-77993D01*
X-29525Y-81152D01*
X-29522Y-81171D01*
X-29524Y-81191D01*
X-29502Y-81292D01*
X-29486Y-81394D01*
X-29476Y-81412D01*
X-29472Y-81431D01*
X-29419Y-81520D01*
X-29370Y-81612D01*
X-29356Y-81625D01*
X-29346Y-81642D01*
X-29267Y-81710D01*
X-29192Y-81781D01*
X-29174Y-81789D01*
X-29159Y-81802D01*
X-29063Y-81841D01*
X-28969Y-81885D01*
X-28949Y-81887D01*
X-28931Y-81894D01*
X-28764Y-81913D01*
X-25605Y-81913D01*
X-25545Y-81973D01*
X-25529Y-81985D01*
X-25516Y-82001D01*
X-25446Y-82046D01*
X-25416Y-82071D01*
X-25399Y-82078D01*
X-25345Y-82117D01*
X-25326Y-82123D01*
X-25309Y-82134D01*
X-25209Y-82159D01*
X-25110Y-82189D01*
X-25090Y-82189D01*
X-25071Y-82194D01*
X-24968Y-82186D01*
X-24864Y-82183D01*
X-24845Y-82176D01*
X-24825Y-82175D01*
X-24730Y-82134D01*
X-24633Y-82099D01*
X-24617Y-82086D01*
X-24599Y-82078D01*
X-24542Y-82032D01*
X-24532Y-82027D01*
X-24521Y-82016D01*
X-24468Y-81973D01*
X-24408Y-81913D01*
X-20604Y-81913D01*
X-20543Y-81974D01*
X-20527Y-81986D01*
X-20515Y-82001D01*
X-20444Y-82046D01*
X-20415Y-82071D01*
X-20398Y-82078D01*
X-20344Y-82117D01*
X-20325Y-82123D01*
X-20308Y-82134D01*
X-20207Y-82159D01*
X-20108Y-82190D01*
X-20088Y-82189D01*
X-20069Y-82194D01*
X-19966Y-82186D01*
X-19863Y-82183D01*
X-19844Y-82177D01*
X-19824Y-82175D01*
X-19729Y-82135D01*
X-19632Y-82099D01*
X-19616Y-82087D01*
X-19598Y-82079D01*
X-19539Y-82032D01*
X-19530Y-82027D01*
X-19520Y-82016D01*
X-19467Y-81974D01*
X-19406Y-81913D01*
X-15602Y-81913D01*
X-15542Y-81973D01*
X-15526Y-81985D01*
X-15513Y-82001D01*
X-15443Y-82046D01*
X-15413Y-82071D01*
X-15396Y-82078D01*
X-15342Y-82117D01*
X-15323Y-82123D01*
X-15306Y-82134D01*
X-15206Y-82159D01*
X-15107Y-82189D01*
X-15087Y-82189D01*
X-15068Y-82194D01*
X-14965Y-82186D01*
X-14861Y-82183D01*
X-14842Y-82176D01*
X-14822Y-82175D01*
X-14727Y-82134D01*
X-14630Y-82099D01*
X-14614Y-82086D01*
X-14596Y-82078D01*
X-14539Y-82032D01*
X-14529Y-82027D01*
X-14518Y-82016D01*
X-14465Y-81973D01*
X-14405Y-81913D01*
X-10601Y-81913D01*
X-10541Y-81973D01*
X-10525Y-81985D01*
X-10512Y-82001D01*
X-10442Y-82046D01*
X-10412Y-82071D01*
X-10395Y-82078D01*
X-10341Y-82117D01*
X-10322Y-82123D01*
X-10305Y-82134D01*
X-10205Y-82159D01*
X-10106Y-82189D01*
X-10086Y-82189D01*
X-10067Y-82194D01*
X-9964Y-82186D01*
X-9860Y-82183D01*
X-9841Y-82176D01*
X-9821Y-82175D01*
X-9726Y-82134D01*
X-9629Y-82099D01*
X-9613Y-82086D01*
X-9595Y-82078D01*
X-9538Y-82032D01*
X-9528Y-82027D01*
X-9517Y-82016D01*
X-9464Y-81973D01*
X-9404Y-81913D01*
X-5600Y-81913D01*
X-5540Y-81973D01*
X-5524Y-81985D01*
X-5511Y-82001D01*
X-5441Y-82046D01*
X-5411Y-82071D01*
X-5394Y-82078D01*
X-5340Y-82117D01*
X-5321Y-82123D01*
X-5304Y-82134D01*
X-5204Y-82159D01*
X-5105Y-82189D01*
X-5085Y-82189D01*
X-5066Y-82194D01*
X-4963Y-82186D01*
X-4859Y-82183D01*
X-4840Y-82176D01*
X-4821Y-82175D01*
X-4725Y-82134D01*
X-4628Y-82099D01*
X-4612Y-82086D01*
X-4594Y-82078D01*
X-4537Y-82032D01*
X-4527Y-82027D01*
X-4516Y-82016D01*
X-4463Y-81973D01*
X-4403Y-81913D01*
X-599Y-81913D01*
X-538Y-81974D01*
X-522Y-81986D01*
X-510Y-82001D01*
X-439Y-82047D01*
X-410Y-82071D01*
X-393Y-82078D01*
X-339Y-82117D01*
X-319Y-82123D01*
X-303Y-82134D01*
X-203Y-82159D01*
X-104Y-82190D01*
X-84Y-82189D01*
X-64Y-82194D01*
X39Y-82186D01*
X142Y-82183D01*
X161Y-82177D01*
X181Y-82175D01*
X276Y-82134D01*
X373Y-82099D01*
X389Y-82087D01*
X407Y-82079D01*
X466Y-82032D01*
X475Y-82027D01*
X485Y-82016D01*
X538Y-81974D01*
X599Y-81913D01*
X4403Y-81913D01*
X4463Y-81973D01*
X4479Y-81985D01*
X4492Y-82001D01*
X4562Y-82046D01*
X4592Y-82071D01*
X4609Y-82078D01*
X4663Y-82117D01*
X4682Y-82123D01*
X4699Y-82134D01*
X4799Y-82159D01*
X4898Y-82189D01*
X4918Y-82189D01*
X4937Y-82194D01*
X5040Y-82186D01*
X5144Y-82183D01*
X5163Y-82176D01*
X5183Y-82175D01*
X5278Y-82134D01*
X5375Y-82099D01*
X5391Y-82086D01*
X5409Y-82078D01*
X5466Y-82032D01*
X5476Y-82027D01*
X5487Y-82016D01*
X5540Y-81973D01*
X5600Y-81913D01*
X9404Y-81913D01*
X9464Y-81973D01*
X9480Y-81985D01*
X9493Y-82001D01*
X9563Y-82046D01*
X9593Y-82071D01*
X9610Y-82078D01*
X9664Y-82117D01*
X9683Y-82123D01*
X9700Y-82134D01*
X9800Y-82159D01*
X9899Y-82189D01*
X9919Y-82189D01*
X9938Y-82194D01*
X10041Y-82186D01*
X10145Y-82183D01*
X10164Y-82176D01*
X10184Y-82175D01*
X10279Y-82134D01*
X10376Y-82099D01*
X10392Y-82086D01*
X10410Y-82078D01*
X10467Y-82032D01*
X10477Y-82027D01*
X10488Y-82016D01*
X10541Y-81973D01*
X10601Y-81913D01*
X14405Y-81913D01*
X14465Y-81973D01*
X14481Y-81985D01*
X14494Y-82001D01*
X14564Y-82046D01*
X14594Y-82071D01*
X14611Y-82078D01*
X14665Y-82117D01*
X14684Y-82123D01*
X14701Y-82134D01*
X14801Y-82159D01*
X14900Y-82189D01*
X14920Y-82189D01*
X14939Y-82194D01*
X15042Y-82186D01*
X15146Y-82183D01*
X15165Y-82176D01*
X15185Y-82175D01*
X15280Y-82134D01*
X15377Y-82099D01*
X15393Y-82086D01*
X15411Y-82078D01*
X15468Y-82032D01*
X15478Y-82027D01*
X15489Y-82016D01*
X15542Y-81973D01*
X15602Y-81913D01*
X19406Y-81913D01*
X19467Y-81974D01*
X19483Y-81986D01*
X19495Y-82001D01*
X19566Y-82046D01*
X19595Y-82071D01*
X19612Y-82078D01*
X19666Y-82117D01*
X19685Y-82123D01*
X19702Y-82134D01*
X19803Y-82159D01*
X19902Y-82190D01*
X19922Y-82189D01*
X19941Y-82194D01*
X20044Y-82186D01*
G37*
G36*
X97521Y-12327D02*
X97521Y-12327D01*
X97596Y-12331D01*
X97643Y-12318D01*
X97692Y-12314D01*
X97761Y-12285D01*
X97833Y-12264D01*
X97889Y-12230D01*
X97918Y-12218D01*
X97930Y-12209D01*
X98008Y-12199D01*
X98097Y-12196D01*
X98129Y-12184D01*
X98163Y-12179D01*
X98318Y-12114D01*
X100239Y-11045D01*
X100266Y-11023D01*
X100297Y-11009D01*
X100362Y-10947D01*
X100431Y-10892D01*
X100450Y-10863D01*
X100475Y-10839D01*
X100516Y-10771D01*
X101119Y-10545D01*
X101147Y-10529D01*
X101222Y-10497D01*
X101781Y-10186D01*
X101853Y-10187D01*
X101942Y-10198D01*
X101975Y-10190D01*
X102010Y-10191D01*
X102173Y-10150D01*
X104231Y-9379D01*
X104261Y-9362D01*
X104294Y-9352D01*
X104367Y-9301D01*
X104444Y-9257D01*
X104467Y-9231D01*
X104496Y-9211D01*
X104546Y-9149D01*
X105176Y-9016D01*
X105207Y-9004D01*
X105285Y-8984D01*
X105885Y-8759D01*
X105955Y-8772D01*
X106041Y-8795D01*
X106076Y-8793D01*
X106110Y-8799D01*
X106277Y-8782D01*
X108427Y-8327D01*
X108460Y-8314D01*
X108494Y-8309D01*
X108509Y-8302D01*
X108515Y-8301D01*
X108568Y-8272D01*
X108574Y-8270D01*
X108657Y-8237D01*
X108683Y-8215D01*
X108714Y-8200D01*
X108727Y-8188D01*
X108732Y-8186D01*
X108745Y-8172D01*
X108773Y-8147D01*
X109415Y-8108D01*
X109448Y-8101D01*
X109528Y-8093D01*
X110155Y-7960D01*
X110223Y-7983D01*
X110304Y-8019D01*
X110339Y-8022D01*
X110372Y-8033D01*
X110539Y-8042D01*
X112733Y-7912D01*
X112767Y-7904D01*
X112802Y-7904D01*
X112887Y-7877D01*
X112973Y-7857D01*
X113003Y-7839D01*
X113036Y-7829D01*
X113102Y-7785D01*
X113743Y-7843D01*
X113776Y-7841D01*
X113857Y-7845D01*
X114496Y-7807D01*
X114560Y-7840D01*
X114635Y-7887D01*
X114669Y-7895D01*
X114700Y-7911D01*
X114864Y-7945D01*
X117053Y-8143D01*
X117088Y-8140D01*
X117122Y-8146D01*
X117210Y-8132D01*
X117299Y-8125D01*
X117331Y-8112D01*
X117365Y-8106D01*
X117437Y-8073D01*
X118062Y-8226D01*
X118095Y-8228D01*
X118174Y-8244D01*
X118812Y-8302D01*
X118870Y-8344D01*
X118938Y-8402D01*
X118970Y-8415D01*
X118998Y-8436D01*
X119155Y-8493D01*
X119675Y-8620D01*
X119789Y-8629D01*
X119904Y-8641D01*
X119912Y-8639D01*
X119920Y-8639D01*
X120031Y-8611D01*
X120143Y-8586D01*
X120151Y-8581D01*
X120159Y-8579D01*
X120255Y-8517D01*
X120353Y-8457D01*
X120359Y-8451D01*
X120366Y-8446D01*
X120437Y-8357D01*
X120511Y-8269D01*
X120515Y-8259D01*
X120520Y-8254D01*
X120527Y-8233D01*
X120580Y-8116D01*
X126757Y10899D01*
X126767Y10966D01*
X126787Y11031D01*
X126786Y11087D01*
X126794Y11142D01*
X126782Y11209D01*
X126781Y11277D01*
X126761Y11329D01*
X126752Y11384D01*
X126719Y11444D01*
X126696Y11508D01*
X126661Y11551D01*
X126634Y11601D01*
X126585Y11647D01*
X126542Y11700D01*
X126495Y11730D01*
X126454Y11768D01*
X126393Y11796D01*
X126336Y11833D01*
X126281Y11846D01*
X126230Y11869D01*
X126163Y11876D01*
X126097Y11893D01*
X126041Y11888D01*
X125985Y11894D01*
X125919Y11879D01*
X125852Y11874D01*
X125800Y11852D01*
X125746Y11839D01*
X125688Y11804D01*
X125625Y11777D01*
X125564Y11728D01*
X125536Y11711D01*
X125522Y11695D01*
X125495Y11672D01*
X124422Y10600D01*
X120053Y10600D01*
X116963Y13690D01*
X116963Y18060D01*
X120053Y21150D01*
X124422Y21150D01*
X127512Y18060D01*
X127512Y18032D01*
X127513Y18028D01*
X127512Y18024D01*
X127533Y17906D01*
X127552Y17789D01*
X127554Y17786D01*
X127555Y17782D01*
X127612Y17677D01*
X127667Y17572D01*
X127670Y17569D01*
X127672Y17566D01*
X127759Y17485D01*
X127845Y17403D01*
X127849Y17401D01*
X127852Y17398D01*
X127961Y17349D01*
X128068Y17299D01*
X128072Y17299D01*
X128076Y17297D01*
X128195Y17285D01*
X128313Y17272D01*
X128317Y17273D01*
X128321Y17272D01*
X128437Y17299D01*
X128553Y17324D01*
X128557Y17326D01*
X128561Y17327D01*
X128662Y17389D01*
X128764Y17450D01*
X128767Y17453D01*
X128770Y17455D01*
X128847Y17547D01*
X128924Y17637D01*
X128926Y17641D01*
X128928Y17644D01*
X128997Y17797D01*
X132249Y27808D01*
X134109Y27039D01*
X134137Y27033D01*
X134163Y27020D01*
X134234Y27014D01*
X134304Y27001D01*
X134332Y27007D01*
X134361Y27004D01*
X134429Y27027D01*
X134499Y27042D01*
X134522Y27058D01*
X134550Y27068D01*
X134603Y27115D01*
X134662Y27156D01*
X134677Y27180D01*
X134699Y27199D01*
X134745Y27289D01*
X134767Y27325D01*
X134769Y27335D01*
X134775Y27347D01*
X140575Y45347D01*
X140578Y45375D01*
X140590Y45402D01*
X140589Y45473D01*
X140597Y45545D01*
X140589Y45572D01*
X140589Y45601D01*
X140561Y45667D01*
X140540Y45735D01*
X140522Y45757D01*
X140511Y45784D01*
X140441Y45856D01*
X140414Y45888D01*
X140404Y45893D01*
X140395Y45903D01*
X125095Y57103D01*
X125068Y57115D01*
X125046Y57134D01*
X124979Y57156D01*
X124914Y57186D01*
X124885Y57187D01*
X124857Y57196D01*
X124787Y57190D01*
X124716Y57192D01*
X124688Y57182D01*
X124659Y57179D01*
X124596Y57146D01*
X124530Y57120D01*
X124509Y57100D01*
X124484Y57086D01*
X124418Y57011D01*
X124388Y56981D01*
X124383Y56971D01*
X124374Y56961D01*
X123312Y55226D01*
X119196Y58216D01*
X119185Y58222D01*
X119177Y58230D01*
X119076Y58277D01*
X118976Y58327D01*
X118964Y58328D01*
X118953Y58334D01*
X118843Y58346D01*
X118733Y58361D01*
X118721Y58359D01*
X118709Y58361D01*
X118601Y58337D01*
X118491Y58317D01*
X118480Y58311D01*
X118469Y58308D01*
X118374Y58252D01*
X118276Y58197D01*
X118268Y58188D01*
X118258Y58182D01*
X118186Y58098D01*
X118110Y58015D01*
X118105Y58004D01*
X118098Y57995D01*
X118056Y57892D01*
X118011Y57790D01*
X118010Y57778D01*
X118006Y57767D01*
X117987Y57600D01*
X117987Y53378D01*
X114897Y50288D01*
X110528Y50288D01*
X107438Y53378D01*
X107438Y57747D01*
X110528Y60837D01*
X113246Y60837D01*
X113254Y60839D01*
X113262Y60837D01*
X113376Y60858D01*
X113489Y60877D01*
X113496Y60881D01*
X113504Y60882D01*
X113606Y60939D01*
X113706Y60992D01*
X113712Y60998D01*
X113719Y61002D01*
X113797Y61088D01*
X113876Y61170D01*
X113879Y61178D01*
X113884Y61184D01*
X113931Y61289D01*
X113979Y61393D01*
X113980Y61401D01*
X113983Y61409D01*
X113994Y61524D01*
X114006Y61638D01*
X114005Y61646D01*
X114005Y61654D01*
X113979Y61766D01*
X113954Y61878D01*
X113950Y61885D01*
X113948Y61893D01*
X113887Y61991D01*
X113828Y62089D01*
X113822Y62095D01*
X113818Y62101D01*
X113694Y62214D01*
X92778Y77412D01*
X92675Y77464D01*
X92574Y77517D01*
X92566Y77519D01*
X92558Y77523D01*
X92445Y77539D01*
X92332Y77558D01*
X92323Y77556D01*
X92315Y77557D01*
X92202Y77536D01*
X92089Y77518D01*
X92081Y77514D01*
X92073Y77513D01*
X91972Y77456D01*
X91871Y77403D01*
X91864Y77396D01*
X91858Y77393D01*
X91842Y77376D01*
X91750Y77288D01*
X91431Y76912D01*
X91414Y76883D01*
X91389Y76858D01*
X91350Y76777D01*
X91305Y76701D01*
X91297Y76667D01*
X91282Y76636D01*
X91268Y76558D01*
X90784Y76134D01*
X90763Y76109D01*
X90704Y76053D01*
X90291Y75564D01*
X90223Y75541D01*
X90137Y75519D01*
X90107Y75500D01*
X90075Y75489D01*
X89937Y75393D01*
X88281Y73944D01*
X88259Y73917D01*
X88231Y73896D01*
X88181Y73823D01*
X88124Y73754D01*
X88112Y73722D01*
X88092Y73693D01*
X88067Y73618D01*
X87524Y73271D01*
X87500Y73249D01*
X87433Y73202D01*
X86952Y72781D01*
X86881Y72768D01*
X86793Y72759D01*
X86761Y72745D01*
X86727Y72738D01*
X86576Y72664D01*
X85174Y71767D01*
X85099Y71699D01*
X85019Y71635D01*
X85007Y71617D01*
X84991Y71603D01*
X84941Y71514D01*
X84886Y71429D01*
X84881Y71407D01*
X84870Y71389D01*
X84851Y71289D01*
X84826Y71190D01*
X84828Y71168D01*
X84824Y71147D01*
X84837Y71046D01*
X84845Y70945D01*
X84854Y70925D01*
X84857Y70903D01*
X84902Y70812D01*
X84942Y70718D01*
X84958Y70698D01*
X84966Y70683D01*
X84989Y70660D01*
X85046Y70588D01*
X102021Y53613D01*
X103583Y52051D01*
X103583Y-4426D01*
X102021Y-5988D01*
X96973Y-11036D01*
X96929Y-11097D01*
X96878Y-11152D01*
X96858Y-11196D01*
X96829Y-11236D01*
X96807Y-11308D01*
X96776Y-11376D01*
X96771Y-11424D01*
X96757Y-11471D01*
X96759Y-11546D01*
X96751Y-11621D01*
X96762Y-11668D01*
X96763Y-11717D01*
X96789Y-11787D01*
X96805Y-11861D01*
X96831Y-11902D01*
X96848Y-11948D01*
X96894Y-12007D01*
X96933Y-12071D01*
X96971Y-12102D01*
X97001Y-12140D01*
X97064Y-12181D01*
X97122Y-12229D01*
X97167Y-12247D01*
X97208Y-12273D01*
X97281Y-12291D01*
X97351Y-12319D01*
X97399Y-12321D01*
X97447Y-12333D01*
X97521Y-12327D01*
G37*
G36*
X86629Y-119693D02*
X86629Y-119693D01*
X86659Y-119696D01*
X86726Y-119674D01*
X86795Y-119660D01*
X86820Y-119643D01*
X86848Y-119633D01*
X86901Y-119587D01*
X86959Y-119547D01*
X86975Y-119522D01*
X86997Y-119502D01*
X87043Y-119416D01*
X87066Y-119380D01*
X87068Y-119368D01*
X87075Y-119355D01*
X92975Y-101255D01*
X92978Y-101227D01*
X92989Y-101200D01*
X92989Y-101128D01*
X92997Y-101057D01*
X92989Y-101030D01*
X92989Y-101001D01*
X92962Y-100935D01*
X92941Y-100866D01*
X92923Y-100844D01*
X92912Y-100818D01*
X92861Y-100768D01*
X92815Y-100713D01*
X92790Y-100700D01*
X92770Y-100680D01*
X92676Y-100640D01*
X92639Y-100620D01*
X92628Y-100620D01*
X92616Y-100615D01*
X90684Y-100151D01*
X93151Y-92557D01*
X93161Y-92490D01*
X93181Y-92425D01*
X93180Y-92369D01*
X93188Y-92314D01*
X93176Y-92247D01*
X93175Y-92179D01*
X93155Y-92127D01*
X93146Y-92072D01*
X93114Y-92012D01*
X93090Y-91948D01*
X93055Y-91905D01*
X93028Y-91855D01*
X92979Y-91809D01*
X92937Y-91756D01*
X92889Y-91726D01*
X92848Y-91688D01*
X92787Y-91660D01*
X92730Y-91623D01*
X92675Y-91610D01*
X92624Y-91587D01*
X92557Y-91580D01*
X92491Y-91563D01*
X92435Y-91568D01*
X92379Y-91562D01*
X92313Y-91577D01*
X92246Y-91582D01*
X92194Y-91604D01*
X92140Y-91617D01*
X92082Y-91652D01*
X92020Y-91679D01*
X91958Y-91728D01*
X91930Y-91745D01*
X91916Y-91761D01*
X91889Y-91784D01*
X91085Y-92587D01*
X86715Y-92587D01*
X83625Y-89497D01*
X83625Y-85128D01*
X86715Y-82038D01*
X91085Y-82038D01*
X94345Y-85298D01*
X94406Y-85342D01*
X94462Y-85394D01*
X94506Y-85413D01*
X94545Y-85441D01*
X94617Y-85464D01*
X94686Y-85495D01*
X94734Y-85500D01*
X94780Y-85514D01*
X94855Y-85512D01*
X94931Y-85519D01*
X94978Y-85509D01*
X95026Y-85507D01*
X95097Y-85481D01*
X95170Y-85465D01*
X95211Y-85440D01*
X95257Y-85423D01*
X95316Y-85376D01*
X95380Y-85336D01*
X95411Y-85299D01*
X95449Y-85269D01*
X95490Y-85206D01*
X95538Y-85148D01*
X95565Y-85089D01*
X95582Y-85062D01*
X95588Y-85037D01*
X95607Y-84995D01*
X102314Y-64347D01*
X102332Y-64234D01*
X102352Y-64122D01*
X102350Y-64113D01*
X102352Y-64104D01*
X102332Y-63992D01*
X102315Y-63879D01*
X102311Y-63871D01*
X102309Y-63862D01*
X102255Y-63762D01*
X102203Y-63660D01*
X102196Y-63653D01*
X102192Y-63646D01*
X102109Y-63568D01*
X102027Y-63488D01*
X102017Y-63483D01*
X102012Y-63478D01*
X101990Y-63468D01*
X101879Y-63408D01*
X101350Y-63190D01*
X101316Y-63182D01*
X101285Y-63167D01*
X101197Y-63155D01*
X101110Y-63135D01*
X101075Y-63138D01*
X101041Y-63133D01*
X100962Y-63144D01*
X100410Y-62814D01*
X100379Y-62802D01*
X100308Y-62763D01*
X99716Y-62520D01*
X99673Y-62463D01*
X99625Y-62387D01*
X99599Y-62365D01*
X99578Y-62337D01*
X99444Y-62236D01*
X97558Y-61107D01*
X97526Y-61095D01*
X97497Y-61075D01*
X97412Y-61050D01*
X97329Y-61017D01*
X97294Y-61015D01*
X97261Y-61005D01*
X97182Y-61004D01*
X96685Y-60595D01*
X96657Y-60579D01*
X96592Y-60530D01*
X96061Y-60212D01*
X95967Y-60175D01*
X95875Y-60132D01*
X95853Y-60130D01*
X95839Y-60124D01*
X95838Y-60124D01*
X95832Y-60121D01*
X95802Y-60120D01*
X95673Y-60106D01*
X95670Y-60106D01*
X95656Y-60108D01*
X95631Y-60105D01*
X95609Y-60110D01*
X95586Y-60109D01*
X95494Y-60134D01*
X95427Y-60145D01*
X95415Y-60152D01*
X95390Y-60157D01*
X95371Y-60169D01*
X95350Y-60175D01*
X95272Y-60228D01*
X95210Y-60260D01*
X95200Y-60271D01*
X95179Y-60283D01*
X95165Y-60300D01*
X95146Y-60313D01*
X95091Y-60386D01*
X95040Y-60439D01*
X95034Y-60453D01*
X95019Y-60470D01*
X95011Y-60491D01*
X94997Y-60509D01*
X94969Y-60592D01*
X94937Y-60662D01*
X94935Y-60679D01*
X94927Y-60698D01*
X94924Y-60726D01*
X94919Y-60742D01*
X94919Y-60775D01*
X94909Y-60865D01*
X94909Y-67759D01*
X68306Y-94362D01*
X24453Y-94362D01*
X20518Y-90427D01*
X20502Y-90415D01*
X20489Y-90399D01*
X20402Y-90343D01*
X20318Y-90283D01*
X20299Y-90277D01*
X20282Y-90266D01*
X20182Y-90241D01*
X20083Y-90211D01*
X20063Y-90211D01*
X20044Y-90206D01*
X19941Y-90214D01*
X19837Y-90217D01*
X19818Y-90224D01*
X19798Y-90226D01*
X19703Y-90266D01*
X19606Y-90302D01*
X19590Y-90314D01*
X19572Y-90322D01*
X19441Y-90427D01*
X19406Y-90462D01*
X15602Y-90462D01*
X15542Y-90402D01*
X15526Y-90390D01*
X15513Y-90374D01*
X15426Y-90318D01*
X15342Y-90258D01*
X15323Y-90252D01*
X15306Y-90241D01*
X15206Y-90216D01*
X15107Y-90186D01*
X15087Y-90186D01*
X15068Y-90181D01*
X14965Y-90189D01*
X14861Y-90192D01*
X14842Y-90199D01*
X14823Y-90200D01*
X14727Y-90241D01*
X14630Y-90276D01*
X14614Y-90289D01*
X14596Y-90297D01*
X14465Y-90402D01*
X14405Y-90462D01*
X10382Y-90462D01*
X10307Y-90475D01*
X10230Y-90477D01*
X10186Y-90494D01*
X10139Y-90502D01*
X10072Y-90538D01*
X10000Y-90565D01*
X9964Y-90595D01*
X9922Y-90617D01*
X9869Y-90672D01*
X9810Y-90721D01*
X9785Y-90761D01*
X9752Y-90795D01*
X9720Y-90865D01*
X9680Y-90929D01*
X9669Y-90975D01*
X9649Y-91018D01*
X9640Y-91094D01*
X9623Y-91168D01*
X9627Y-91216D01*
X9622Y-91263D01*
X9638Y-91337D01*
X9645Y-91413D01*
X9664Y-91457D01*
X9674Y-91503D01*
X9713Y-91569D01*
X9744Y-91639D01*
X9776Y-91674D01*
X9800Y-91714D01*
X9858Y-91764D01*
X9909Y-91820D01*
X9964Y-91854D01*
X9987Y-91874D01*
X10011Y-91884D01*
X10052Y-91909D01*
X10555Y-92152D01*
X10586Y-92161D01*
X10661Y-92193D01*
X11273Y-92382D01*
X11321Y-92435D01*
X11374Y-92506D01*
X11403Y-92525D01*
X11426Y-92551D01*
X11569Y-92640D01*
X13553Y-93595D01*
X13586Y-93605D01*
X13616Y-93622D01*
X13703Y-93640D01*
X13788Y-93665D01*
X13823Y-93664D01*
X13857Y-93670D01*
X13936Y-93664D01*
X14468Y-94027D01*
X14498Y-94041D01*
X14567Y-94084D01*
X15144Y-94362D01*
X15183Y-94421D01*
X15226Y-94499D01*
X15251Y-94523D01*
X15271Y-94552D01*
X15398Y-94661D01*
X17217Y-95901D01*
X17249Y-95916D01*
X17276Y-95937D01*
X17360Y-95968D01*
X17440Y-96005D01*
X17475Y-96009D01*
X17507Y-96021D01*
X17587Y-96027D01*
X18058Y-96464D01*
X18086Y-96483D01*
X18147Y-96535D01*
X18676Y-96896D01*
X18687Y-96918D01*
X18688Y-96925D01*
X18697Y-96941D01*
X18707Y-96961D01*
X18737Y-97044D01*
X18759Y-97072D01*
X18774Y-97103D01*
X18883Y-97230D01*
X20498Y-98728D01*
X20526Y-98747D01*
X20550Y-98772D01*
X20588Y-98793D01*
X20619Y-98819D01*
X20660Y-98836D01*
X20703Y-98864D01*
X20736Y-98872D01*
X20766Y-98889D01*
X20827Y-98903D01*
X20847Y-98911D01*
X21245Y-99410D01*
X21251Y-99415D01*
X21254Y-99420D01*
X21276Y-99439D01*
X21323Y-99493D01*
X21792Y-99929D01*
X21813Y-99997D01*
X21830Y-100085D01*
X21848Y-100115D01*
X21858Y-100148D01*
X21947Y-100290D01*
X23320Y-102011D01*
X23346Y-102034D01*
X23365Y-102063D01*
X23436Y-102117D01*
X23502Y-102176D01*
X23534Y-102190D01*
X23562Y-102211D01*
X23636Y-102240D01*
X23958Y-102797D01*
X23978Y-102823D01*
X24022Y-102891D01*
X24421Y-103392D01*
X24431Y-103463D01*
X24435Y-103552D01*
X24448Y-103584D01*
X24453Y-103618D01*
X24520Y-103772D01*
X25621Y-105679D01*
X25643Y-105706D01*
X25658Y-105737D01*
X25721Y-105801D01*
X25777Y-105869D01*
X25806Y-105888D01*
X25831Y-105912D01*
X25900Y-105952D01*
X26135Y-106551D01*
X26151Y-106579D01*
X26184Y-106654D01*
X26504Y-107208D01*
X26504Y-107280D01*
X26495Y-107368D01*
X26502Y-107402D01*
X26502Y-107437D01*
X26546Y-107599D01*
X27350Y-109649D01*
X27368Y-109678D01*
X27378Y-109711D01*
X27430Y-109783D01*
X27476Y-109860D01*
X27502Y-109883D01*
X27523Y-109911D01*
X27585Y-109960D01*
X27728Y-110588D01*
X27740Y-110618D01*
X27762Y-110696D01*
X27995Y-111292D01*
X27984Y-111363D01*
X27962Y-111449D01*
X27965Y-111484D01*
X27959Y-111518D01*
X27978Y-111685D01*
X28468Y-113832D01*
X28481Y-113864D01*
X28487Y-113898D01*
X28528Y-113977D01*
X28561Y-114059D01*
X28584Y-114086D01*
X28600Y-114116D01*
X28654Y-114174D01*
X28702Y-114816D01*
X28710Y-114848D01*
X28719Y-114929D01*
X28861Y-115553D01*
X28840Y-115622D01*
X28805Y-115704D01*
X28803Y-115738D01*
X28792Y-115771D01*
X28786Y-115939D01*
X28828Y-116495D01*
X28855Y-116606D01*
X28879Y-116718D01*
X28883Y-116725D01*
X28885Y-116734D01*
X28946Y-116831D01*
X29005Y-116929D01*
X29012Y-116935D01*
X29016Y-116942D01*
X29105Y-117015D01*
X29192Y-117089D01*
X29200Y-117092D01*
X29207Y-117098D01*
X29314Y-117138D01*
X29420Y-117181D01*
X29431Y-117182D01*
X29437Y-117184D01*
X29460Y-117185D01*
X29587Y-117199D01*
X49164Y-117199D01*
X49235Y-117188D01*
X49307Y-117186D01*
X49356Y-117168D01*
X49407Y-117160D01*
X49470Y-117126D01*
X49538Y-117101D01*
X49578Y-117069D01*
X49624Y-117044D01*
X49674Y-116992D01*
X49730Y-116948D01*
X49758Y-116904D01*
X49794Y-116866D01*
X49824Y-116801D01*
X49863Y-116741D01*
X49876Y-116690D01*
X49897Y-116643D01*
X49905Y-116572D01*
X49923Y-116502D01*
X49919Y-116450D01*
X49925Y-116399D01*
X49909Y-116328D01*
X49904Y-116257D01*
X49883Y-116209D01*
X49872Y-116158D01*
X49836Y-116097D01*
X49807Y-116031D01*
X49763Y-115975D01*
X49746Y-115947D01*
X49728Y-115932D01*
X49703Y-115900D01*
X48700Y-114897D01*
X48700Y-110528D01*
X51790Y-107438D01*
X56160Y-107438D01*
X59250Y-110528D01*
X59250Y-114897D01*
X58247Y-115900D01*
X58206Y-115958D01*
X58156Y-116010D01*
X58134Y-116057D01*
X58104Y-116099D01*
X58083Y-116168D01*
X58053Y-116233D01*
X58047Y-116285D01*
X58031Y-116335D01*
X58033Y-116406D01*
X58025Y-116477D01*
X58036Y-116528D01*
X58038Y-116580D01*
X58062Y-116648D01*
X58078Y-116718D01*
X58104Y-116763D01*
X58122Y-116811D01*
X58167Y-116867D01*
X58204Y-116929D01*
X58243Y-116963D01*
X58276Y-117003D01*
X58336Y-117042D01*
X58391Y-117089D01*
X58439Y-117108D01*
X58483Y-117136D01*
X58552Y-117154D01*
X58619Y-117181D01*
X58690Y-117189D01*
X58721Y-117197D01*
X58745Y-117195D01*
X58786Y-117199D01*
X67256Y-117199D01*
X67102Y-119161D01*
X67106Y-119189D01*
X67101Y-119217D01*
X67118Y-119287D01*
X67127Y-119358D01*
X67141Y-119383D01*
X67147Y-119410D01*
X67190Y-119468D01*
X67226Y-119531D01*
X67248Y-119548D01*
X67265Y-119570D01*
X67327Y-119607D01*
X67385Y-119650D01*
X67412Y-119657D01*
X67436Y-119672D01*
X67537Y-119689D01*
X67577Y-119699D01*
X67588Y-119697D01*
X67600Y-119699D01*
X86600Y-119699D01*
X86629Y-119693D01*
G37*
G36*
X39296Y-14118D02*
X39296Y-14118D01*
X39316Y-14120D01*
X39417Y-14098D01*
X39519Y-14081D01*
X39537Y-14072D01*
X39556Y-14068D01*
X39645Y-14015D01*
X39737Y-13966D01*
X39750Y-13952D01*
X39767Y-13942D01*
X39835Y-13863D01*
X39906Y-13788D01*
X39914Y-13770D01*
X39927Y-13755D01*
X39966Y-13659D01*
X40010Y-13565D01*
X40012Y-13545D01*
X40019Y-13527D01*
X40038Y-13360D01*
X40038Y-9122D01*
X40023Y-9032D01*
X40016Y-8941D01*
X40003Y-8911D01*
X39998Y-8879D01*
X39955Y-8798D01*
X39920Y-8715D01*
X39894Y-8682D01*
X39883Y-8662D01*
X39860Y-8640D01*
X39843Y-8619D01*
X39838Y-8611D01*
X39833Y-8607D01*
X39815Y-8584D01*
X39013Y-7782D01*
X39013Y3482D01*
X39906Y4375D01*
X52169Y4375D01*
X53062Y3482D01*
X53062Y3282D01*
X53074Y3211D01*
X53076Y3139D01*
X53094Y3090D01*
X53102Y3039D01*
X53136Y2975D01*
X53160Y2908D01*
X53193Y2867D01*
X53217Y2821D01*
X53269Y2772D01*
X53314Y2716D01*
X53358Y2688D01*
X53395Y2652D01*
X53460Y2622D01*
X53521Y2583D01*
X53571Y2570D01*
X53618Y2548D01*
X53690Y2540D01*
X53759Y2523D01*
X53811Y2527D01*
X53863Y2521D01*
X53933Y2537D01*
X54004Y2542D01*
X54052Y2562D01*
X54103Y2574D01*
X54165Y2610D01*
X54231Y2638D01*
X54287Y2683D01*
X54314Y2700D01*
X54330Y2718D01*
X54362Y2743D01*
X56055Y4436D01*
X60425Y4436D01*
X63514Y1346D01*
X63514Y-3023D01*
X63249Y-3288D01*
X63208Y-3347D01*
X63158Y-3398D01*
X63136Y-3446D01*
X63106Y-3488D01*
X63085Y-3556D01*
X63055Y-3622D01*
X63049Y-3673D01*
X63034Y-3723D01*
X63035Y-3795D01*
X63028Y-3866D01*
X63039Y-3917D01*
X63040Y-3969D01*
X63065Y-4036D01*
X63080Y-4106D01*
X63107Y-4151D01*
X63124Y-4200D01*
X63169Y-4256D01*
X63206Y-4317D01*
X63246Y-4351D01*
X63278Y-4392D01*
X63338Y-4431D01*
X63393Y-4477D01*
X63441Y-4497D01*
X63485Y-4525D01*
X63554Y-4542D01*
X63621Y-4569D01*
X63692Y-4577D01*
X63724Y-4585D01*
X63747Y-4583D01*
X63788Y-4588D01*
X70288Y-4588D01*
X70320Y-4598D01*
X70405Y-4632D01*
X70446Y-4636D01*
X70468Y-4643D01*
X70500Y-4642D01*
X70572Y-4650D01*
X78157Y-4650D01*
X79050Y-5543D01*
X79050Y-11256D01*
X79061Y-11326D01*
X79063Y-11398D01*
X79081Y-11447D01*
X79089Y-11498D01*
X79123Y-11562D01*
X79148Y-11629D01*
X79180Y-11670D01*
X79205Y-11716D01*
X79256Y-11765D01*
X79301Y-11821D01*
X79345Y-11849D01*
X79383Y-11885D01*
X79448Y-11915D01*
X79508Y-11954D01*
X79559Y-11967D01*
X79606Y-11989D01*
X79677Y-11997D01*
X79747Y-12014D01*
X79799Y-12010D01*
X79850Y-12016D01*
X79921Y-12001D01*
X79992Y-11995D01*
X80040Y-11975D01*
X80091Y-11964D01*
X80152Y-11927D01*
X80218Y-11899D01*
X80274Y-11854D01*
X80302Y-11837D01*
X80317Y-11820D01*
X80349Y-11794D01*
X95739Y3596D01*
X95792Y3670D01*
X95851Y3739D01*
X95864Y3769D01*
X95882Y3795D01*
X95909Y3882D01*
X95943Y3967D01*
X95948Y4008D01*
X95955Y4031D01*
X95954Y4063D01*
X95962Y4134D01*
X95962Y20866D01*
X95950Y20937D01*
X95948Y21009D01*
X95930Y21058D01*
X95922Y21109D01*
X95888Y21172D01*
X95864Y21240D01*
X95831Y21280D01*
X95807Y21327D01*
X95755Y21376D01*
X95710Y21432D01*
X95666Y21460D01*
X95629Y21496D01*
X95564Y21526D01*
X95503Y21565D01*
X95453Y21578D01*
X95406Y21600D01*
X95334Y21607D01*
X95265Y21625D01*
X95213Y21621D01*
X95161Y21627D01*
X95091Y21611D01*
X95020Y21606D01*
X94972Y21585D01*
X94921Y21574D01*
X94859Y21538D01*
X94793Y21509D01*
X94737Y21465D01*
X94710Y21448D01*
X94694Y21430D01*
X94662Y21405D01*
X91100Y17843D01*
X83525Y17843D01*
X80188Y21180D01*
X80171Y21191D01*
X80159Y21207D01*
X80072Y21263D01*
X79988Y21323D01*
X79969Y21329D01*
X79952Y21340D01*
X79852Y21365D01*
X79753Y21396D01*
X79733Y21395D01*
X79714Y21400D01*
X79611Y21392D01*
X79507Y21389D01*
X79488Y21382D01*
X79468Y21381D01*
X79373Y21341D01*
X79276Y21305D01*
X79260Y21292D01*
X79242Y21285D01*
X79111Y21180D01*
X78157Y20225D01*
X67893Y20225D01*
X67000Y21118D01*
X67000Y26076D01*
X66989Y26147D01*
X66987Y26218D01*
X66969Y26267D01*
X66961Y26319D01*
X66927Y26382D01*
X66902Y26449D01*
X66870Y26490D01*
X66845Y26536D01*
X66793Y26585D01*
X66749Y26641D01*
X66705Y26670D01*
X66667Y26705D01*
X66602Y26736D01*
X66542Y26774D01*
X66491Y26787D01*
X66444Y26809D01*
X66373Y26817D01*
X66303Y26834D01*
X66251Y26830D01*
X66200Y26836D01*
X66129Y26821D01*
X66058Y26815D01*
X66010Y26795D01*
X65959Y26784D01*
X65898Y26747D01*
X65832Y26719D01*
X65776Y26674D01*
X65748Y26658D01*
X65733Y26640D01*
X65701Y26614D01*
X61859Y22773D01*
X59850Y20764D01*
X53823Y20764D01*
X53804Y20761D01*
X53784Y20763D01*
X53683Y20741D01*
X53581Y20724D01*
X53563Y20715D01*
X53544Y20710D01*
X53455Y20657D01*
X53363Y20609D01*
X53350Y20595D01*
X53333Y20584D01*
X53265Y20506D01*
X53194Y20431D01*
X53186Y20413D01*
X53173Y20397D01*
X53134Y20301D01*
X53090Y20208D01*
X53088Y20188D01*
X53081Y20169D01*
X53062Y20003D01*
X53062Y19073D01*
X53065Y19054D01*
X53063Y19034D01*
X53085Y18933D01*
X53102Y18831D01*
X53111Y18813D01*
X53116Y18794D01*
X53169Y18705D01*
X53217Y18613D01*
X53231Y18600D01*
X53242Y18583D01*
X53320Y18515D01*
X53395Y18444D01*
X53413Y18436D01*
X53429Y18423D01*
X53525Y18384D01*
X53618Y18340D01*
X53638Y18338D01*
X53657Y18331D01*
X53823Y18312D01*
X58719Y18312D01*
X59726Y17305D01*
X59800Y17252D01*
X59870Y17193D01*
X59900Y17180D01*
X59926Y17162D01*
X60013Y17135D01*
X60098Y17101D01*
X60139Y17096D01*
X60161Y17089D01*
X60193Y17090D01*
X60264Y17082D01*
X63220Y17082D01*
X64857Y15445D01*
X64857Y13130D01*
X63220Y11493D01*
X60264Y11493D01*
X60174Y11478D01*
X60083Y11471D01*
X60054Y11458D01*
X60022Y11453D01*
X59941Y11410D01*
X59857Y11375D01*
X59825Y11349D01*
X59804Y11338D01*
X59782Y11315D01*
X59726Y11270D01*
X58719Y10263D01*
X53823Y10263D01*
X53804Y10260D01*
X53784Y10262D01*
X53683Y10240D01*
X53581Y10223D01*
X53563Y10214D01*
X53544Y10209D01*
X53455Y10156D01*
X53363Y10108D01*
X53350Y10094D01*
X53333Y10083D01*
X53265Y10005D01*
X53194Y9930D01*
X53186Y9912D01*
X53173Y9896D01*
X53134Y9800D01*
X53090Y9707D01*
X53088Y9687D01*
X53081Y9668D01*
X53062Y9502D01*
X53062Y9218D01*
X52169Y8325D01*
X39906Y8325D01*
X39013Y9218D01*
X39013Y20003D01*
X39010Y20022D01*
X39012Y20042D01*
X38990Y20143D01*
X38973Y20245D01*
X38964Y20263D01*
X38959Y20282D01*
X38906Y20371D01*
X38858Y20463D01*
X38844Y20476D01*
X38833Y20493D01*
X38755Y20561D01*
X38680Y20632D01*
X38662Y20640D01*
X38646Y20653D01*
X38550Y20692D01*
X38457Y20736D01*
X38452Y20736D01*
X32311Y26877D01*
X32237Y26930D01*
X32168Y26990D01*
X32138Y27002D01*
X32111Y27021D01*
X32024Y27048D01*
X31940Y27082D01*
X31899Y27086D01*
X31876Y27093D01*
X31844Y27092D01*
X31773Y27100D01*
X31393Y27100D01*
X30500Y27993D01*
X30500Y34106D01*
X30489Y34177D01*
X30487Y34249D01*
X30469Y34298D01*
X30461Y34349D01*
X30427Y34412D01*
X30402Y34480D01*
X30370Y34520D01*
X30345Y34566D01*
X30293Y34616D01*
X30249Y34672D01*
X30205Y34700D01*
X30167Y34736D01*
X30102Y34766D01*
X30042Y34805D01*
X29991Y34817D01*
X29944Y34839D01*
X29873Y34847D01*
X29803Y34865D01*
X29751Y34861D01*
X29700Y34866D01*
X29629Y34851D01*
X29558Y34846D01*
X29510Y34825D01*
X29459Y34814D01*
X29398Y34777D01*
X29332Y34749D01*
X29276Y34704D01*
X29248Y34688D01*
X29233Y34670D01*
X29201Y34644D01*
X28907Y34350D01*
X23037Y34350D01*
X23017Y34347D01*
X22997Y34349D01*
X22896Y34327D01*
X22794Y34311D01*
X22777Y34301D01*
X22757Y34297D01*
X22668Y34244D01*
X22577Y34195D01*
X22563Y34181D01*
X22546Y34171D01*
X22479Y34092D01*
X22407Y34017D01*
X22399Y33999D01*
X22386Y33984D01*
X22347Y33888D01*
X22304Y33794D01*
X22302Y33774D01*
X22294Y33756D01*
X22276Y33589D01*
X22276Y26290D01*
X22290Y26200D01*
X22297Y26109D01*
X22310Y26079D01*
X22315Y26047D01*
X22358Y25966D01*
X22394Y25882D01*
X22419Y25850D01*
X22430Y25830D01*
X22454Y25807D01*
X22499Y25751D01*
X29794Y18456D01*
X29794Y-7918D01*
X29797Y-7938D01*
X29795Y-7957D01*
X29817Y-8059D01*
X29833Y-8161D01*
X29843Y-8178D01*
X29847Y-8198D01*
X29900Y-8287D01*
X29949Y-8378D01*
X29963Y-8392D01*
X29973Y-8409D01*
X30052Y-8476D01*
X30127Y-8548D01*
X30145Y-8556D01*
X30160Y-8569D01*
X30256Y-8608D01*
X30350Y-8651D01*
X30370Y-8653D01*
X30388Y-8661D01*
X30555Y-8679D01*
X34314Y-8679D01*
X36818Y-11183D01*
X36818Y-13360D01*
X36821Y-13380D01*
X36819Y-13399D01*
X36841Y-13501D01*
X36857Y-13603D01*
X36867Y-13620D01*
X36871Y-13640D01*
X36924Y-13729D01*
X36973Y-13820D01*
X36987Y-13834D01*
X36997Y-13851D01*
X37076Y-13918D01*
X37151Y-13989D01*
X37169Y-13998D01*
X37184Y-14011D01*
X37280Y-14050D01*
X37374Y-14093D01*
X37394Y-14095D01*
X37412Y-14103D01*
X37579Y-14121D01*
X39277Y-14121D01*
X39296Y-14118D01*
G37*
G36*
X27027Y-119694D02*
X27027Y-119694D01*
X27054Y-119696D01*
X27123Y-119674D01*
X27195Y-119660D01*
X27217Y-119644D01*
X27243Y-119636D01*
X27299Y-119588D01*
X27359Y-119547D01*
X27373Y-119524D01*
X27394Y-119506D01*
X27427Y-119441D01*
X27466Y-119380D01*
X27470Y-119353D01*
X27482Y-119328D01*
X27492Y-119224D01*
X27499Y-119183D01*
X27497Y-119174D01*
X27498Y-119163D01*
X27196Y-115139D01*
X27188Y-115108D01*
X27185Y-115065D01*
X26287Y-111131D01*
X26274Y-111102D01*
X26265Y-111059D01*
X24791Y-107303D01*
X24774Y-107276D01*
X24759Y-107236D01*
X22741Y-103741D01*
X22720Y-103717D01*
X22699Y-103679D01*
X20183Y-100524D01*
X20158Y-100504D01*
X20132Y-100469D01*
X17174Y-97725D01*
X17147Y-97708D01*
X17115Y-97678D01*
X13781Y-95405D01*
X13752Y-95392D01*
X13717Y-95368D01*
X10081Y-93617D01*
X10050Y-93609D01*
X10011Y-93589D01*
X6155Y-92400D01*
X6124Y-92397D01*
X6082Y-92383D01*
X2092Y-91782D01*
X2060Y-91783D01*
X2018Y-91776D01*
X-2018Y-91776D01*
X-2049Y-91783D01*
X-2092Y-91782D01*
X-6082Y-92383D01*
X-6112Y-92394D01*
X-6155Y-92400D01*
X-10011Y-93589D01*
X-10039Y-93605D01*
X-10081Y-93617D01*
X-13717Y-95368D01*
X-13742Y-95387D01*
X-13781Y-95405D01*
X-17115Y-97678D01*
X-17138Y-97701D01*
X-17174Y-97725D01*
X-20132Y-100469D01*
X-20151Y-100495D01*
X-20183Y-100524D01*
X-22699Y-103679D01*
X-22713Y-103707D01*
X-22741Y-103741D01*
X-24759Y-107236D01*
X-24769Y-107266D01*
X-24791Y-107303D01*
X-26265Y-111059D01*
X-26271Y-111091D01*
X-26287Y-111131D01*
X-27185Y-115065D01*
X-27186Y-115097D01*
X-27196Y-115139D01*
X-27498Y-119163D01*
X-27494Y-119190D01*
X-27499Y-119217D01*
X-27482Y-119287D01*
X-27473Y-119360D01*
X-27459Y-119384D01*
X-27453Y-119410D01*
X-27410Y-119469D01*
X-27373Y-119532D01*
X-27351Y-119548D01*
X-27335Y-119570D01*
X-27272Y-119607D01*
X-27214Y-119651D01*
X-27187Y-119658D01*
X-27164Y-119672D01*
X-27060Y-119689D01*
X-27021Y-119699D01*
X-27011Y-119697D01*
X-27000Y-119699D01*
X27000Y-119699D01*
X27027Y-119694D01*
G37*
G36*
X71298Y68991D02*
X71298Y68991D01*
X71341Y68989D01*
X75346Y69474D01*
X75377Y69484D01*
X75420Y69488D01*
X79308Y70564D01*
X79336Y70579D01*
X79378Y70590D01*
X83063Y72233D01*
X83088Y72252D01*
X83128Y72269D01*
X86527Y74443D01*
X86549Y74465D01*
X86586Y74488D01*
X89622Y77145D01*
X89642Y77170D01*
X89675Y77198D01*
X92281Y80277D01*
X92294Y80301D01*
X92314Y80320D01*
X92342Y80388D01*
X92377Y80452D01*
X92380Y80479D01*
X92390Y80504D01*
X92389Y80577D01*
X92397Y80650D01*
X92389Y80676D01*
X92389Y80703D01*
X92360Y80770D01*
X92338Y80840D01*
X92320Y80860D01*
X92310Y80885D01*
X92236Y80961D01*
X92210Y80992D01*
X92201Y80996D01*
X92193Y81004D01*
X48493Y112704D01*
X48468Y112715D01*
X48448Y112733D01*
X48379Y112756D01*
X48312Y112787D01*
X48285Y112787D01*
X48259Y112796D01*
X48186Y112790D01*
X48113Y112792D01*
X48088Y112782D01*
X48061Y112780D01*
X47996Y112746D01*
X47928Y112719D01*
X47909Y112700D01*
X47885Y112687D01*
X47815Y112608D01*
X47786Y112580D01*
X47783Y112571D01*
X47775Y112562D01*
X45657Y109129D01*
X45646Y109099D01*
X45623Y109062D01*
X44040Y105351D01*
X44033Y105320D01*
X44016Y105281D01*
X43004Y101375D01*
X43002Y101343D01*
X42990Y101302D01*
X42572Y97289D01*
X42575Y97257D01*
X42569Y97215D01*
X42753Y93184D01*
X42761Y93154D01*
X42762Y93110D01*
X43545Y89152D01*
X43557Y89123D01*
X43565Y89081D01*
X44929Y85284D01*
X44939Y85267D01*
X44943Y85251D01*
X44951Y85239D01*
X44959Y85215D01*
X46873Y81664D01*
X46894Y81640D01*
X46914Y81601D01*
X49336Y78375D01*
X49360Y78354D01*
X49385Y78319D01*
X52261Y75490D01*
X52288Y75472D01*
X52318Y75441D01*
X55584Y73073D01*
X55613Y73059D01*
X55648Y73033D01*
X59230Y71178D01*
X59261Y71169D01*
X59298Y71148D01*
X63117Y69847D01*
X63149Y69843D01*
X63190Y69828D01*
X67160Y69111D01*
X67192Y69112D01*
X67234Y69103D01*
X71267Y68986D01*
X71298Y68991D01*
G37*
G36*
X-67234Y69103D02*
X-67234Y69103D01*
X-67203Y69111D01*
X-67160Y69111D01*
X-63190Y69828D01*
X-63160Y69840D01*
X-63117Y69847D01*
X-59298Y71148D01*
X-59271Y71164D01*
X-59230Y71178D01*
X-55648Y73033D01*
X-55623Y73053D01*
X-55584Y73073D01*
X-52318Y75441D01*
X-52297Y75465D01*
X-52261Y75490D01*
X-49385Y78319D01*
X-49367Y78345D01*
X-49336Y78375D01*
X-46914Y81601D01*
X-46900Y81630D01*
X-46873Y81664D01*
X-44959Y85215D01*
X-44950Y85246D01*
X-44933Y85277D01*
X-44930Y85281D01*
X-44930Y85282D01*
X-44929Y85284D01*
X-43565Y89081D01*
X-43560Y89112D01*
X-43545Y89152D01*
X-42762Y93110D01*
X-42762Y93142D01*
X-42753Y93184D01*
X-42569Y97215D01*
X-42574Y97246D01*
X-42572Y97289D01*
X-42990Y101302D01*
X-43000Y101332D01*
X-43004Y101375D01*
X-44016Y105281D01*
X-44030Y105309D01*
X-44040Y105351D01*
X-45623Y109062D01*
X-45641Y109088D01*
X-45657Y109129D01*
X-47775Y112562D01*
X-47794Y112582D01*
X-47806Y112606D01*
X-47861Y112654D01*
X-47911Y112707D01*
X-47936Y112718D01*
X-47957Y112736D01*
X-48026Y112758D01*
X-48093Y112788D01*
X-48120Y112788D01*
X-48146Y112796D01*
X-48219Y112790D01*
X-48292Y112791D01*
X-48317Y112781D01*
X-48344Y112778D01*
X-48438Y112731D01*
X-48476Y112716D01*
X-48483Y112709D01*
X-48493Y112704D01*
X-92193Y81004D01*
X-92212Y80984D01*
X-92235Y80970D01*
X-92278Y80911D01*
X-92328Y80858D01*
X-92337Y80832D01*
X-92353Y80810D01*
X-92370Y80739D01*
X-92394Y80670D01*
X-92393Y80643D01*
X-92399Y80617D01*
X-92387Y80545D01*
X-92383Y80472D01*
X-92370Y80448D01*
X-92366Y80421D01*
X-92312Y80330D01*
X-92294Y80294D01*
X-92287Y80288D01*
X-92281Y80277D01*
X-89675Y77198D01*
X-89650Y77178D01*
X-89622Y77145D01*
X-86586Y74488D01*
X-86559Y74472D01*
X-86527Y74443D01*
X-83128Y72269D01*
X-83098Y72257D01*
X-83063Y72233D01*
X-79378Y70590D01*
X-79347Y70583D01*
X-79308Y70564D01*
X-75420Y69488D01*
X-75388Y69486D01*
X-75346Y69474D01*
X-71341Y68989D01*
X-71309Y68992D01*
X-71267Y68986D01*
X-67234Y69103D01*
G37*
G36*
X-105000Y-62995D02*
X-105000Y-62995D01*
X-104973Y-62999D01*
X-104870Y-62975D01*
X-104830Y-62969D01*
X-104822Y-62964D01*
X-104810Y-62962D01*
X-101081Y-61431D01*
X-101054Y-61413D01*
X-101014Y-61397D01*
X-97554Y-59328D01*
X-97531Y-59306D01*
X-97493Y-59285D01*
X-94381Y-56722D01*
X-94360Y-56698D01*
X-94327Y-56671D01*
X-91631Y-53673D01*
X-91614Y-53646D01*
X-91585Y-53614D01*
X-89366Y-50248D01*
X-89354Y-50219D01*
X-89329Y-50183D01*
X-87637Y-46524D01*
X-87629Y-46493D01*
X-87611Y-46454D01*
X-86482Y-42583D01*
X-86480Y-42552D01*
X-86467Y-42510D01*
X-85928Y-38515D01*
X-85930Y-38483D01*
X-85923Y-38440D01*
X-85986Y-34409D01*
X-85993Y-34378D01*
X-85993Y-34335D01*
X-86655Y-30358D01*
X-86667Y-30328D01*
X-86673Y-30286D01*
X-87921Y-26452D01*
X-87937Y-26424D01*
X-87949Y-26383D01*
X-89755Y-22778D01*
X-89774Y-22753D01*
X-89793Y-22714D01*
X-92116Y-19419D01*
X-92139Y-19397D01*
X-92163Y-19361D01*
X-94951Y-16448D01*
X-94977Y-16430D01*
X-95006Y-16399D01*
X-98197Y-13934D01*
X-98226Y-13920D01*
X-98259Y-13893D01*
X-101782Y-11932D01*
X-101812Y-11922D01*
X-101849Y-11900D01*
X-105625Y-10486D01*
X-105656Y-10481D01*
X-105696Y-10465D01*
X-109640Y-9629D01*
X-109672Y-9629D01*
X-109714Y-9619D01*
X-113739Y-9380D01*
X-113771Y-9384D01*
X-113814Y-9381D01*
X-117829Y-9745D01*
X-117859Y-9754D01*
X-117902Y-9757D01*
X-121819Y-10715D01*
X-121843Y-10727D01*
X-121870Y-10731D01*
X-121932Y-10769D01*
X-121999Y-10800D01*
X-122017Y-10820D01*
X-122040Y-10834D01*
X-122082Y-10894D01*
X-122131Y-10948D01*
X-122140Y-10974D01*
X-122156Y-10996D01*
X-122172Y-11067D01*
X-122195Y-11136D01*
X-122193Y-11163D01*
X-122199Y-11190D01*
X-122184Y-11294D01*
X-122181Y-11335D01*
X-122176Y-11343D01*
X-122175Y-11355D01*
X-105475Y-62655D01*
X-105461Y-62678D01*
X-105455Y-62705D01*
X-105413Y-62764D01*
X-105377Y-62828D01*
X-105355Y-62844D01*
X-105339Y-62866D01*
X-105277Y-62904D01*
X-105219Y-62949D01*
X-105193Y-62955D01*
X-105169Y-62970D01*
X-105097Y-62980D01*
X-105027Y-62999D01*
X-105000Y-62995D01*
G37*
G36*
X105032Y-62994D02*
X105032Y-62994D01*
X105059Y-62996D01*
X105129Y-62973D01*
X105200Y-62957D01*
X105222Y-62942D01*
X105248Y-62933D01*
X105303Y-62885D01*
X105363Y-62843D01*
X105377Y-62820D01*
X105398Y-62802D01*
X105446Y-62709D01*
X105468Y-62674D01*
X105469Y-62665D01*
X105475Y-62655D01*
X122175Y-11355D01*
X122178Y-11328D01*
X122189Y-11303D01*
X122189Y-11229D01*
X122197Y-11157D01*
X122190Y-11131D01*
X122190Y-11104D01*
X122162Y-11036D01*
X122141Y-10966D01*
X122124Y-10945D01*
X122113Y-10920D01*
X122061Y-10869D01*
X122015Y-10813D01*
X121991Y-10800D01*
X121971Y-10781D01*
X121875Y-10739D01*
X121839Y-10720D01*
X121829Y-10720D01*
X121819Y-10715D01*
X117902Y-9757D01*
X117871Y-9756D01*
X117829Y-9745D01*
X113814Y-9381D01*
X113782Y-9385D01*
X113739Y-9380D01*
X109714Y-9619D01*
X109684Y-9627D01*
X109640Y-9629D01*
X105696Y-10465D01*
X105667Y-10478D01*
X105625Y-10486D01*
X101849Y-11900D01*
X101822Y-11917D01*
X101782Y-11932D01*
X98259Y-13893D01*
X98235Y-13914D01*
X98197Y-13934D01*
X95006Y-16399D01*
X94985Y-16423D01*
X94951Y-16448D01*
X92163Y-19361D01*
X92146Y-19388D01*
X92116Y-19419D01*
X89793Y-22714D01*
X89780Y-22743D01*
X89755Y-22778D01*
X87949Y-26383D01*
X87941Y-26414D01*
X87921Y-26452D01*
X86673Y-30286D01*
X86669Y-30317D01*
X86655Y-30358D01*
X85993Y-34335D01*
X85994Y-34367D01*
X85986Y-34409D01*
X85923Y-38440D01*
X85929Y-38472D01*
X85928Y-38515D01*
X86467Y-42510D01*
X86477Y-42541D01*
X86482Y-42583D01*
X87611Y-46454D01*
X87625Y-46482D01*
X87637Y-46524D01*
X89329Y-50183D01*
X89348Y-50209D01*
X89366Y-50248D01*
X91585Y-53614D01*
X91607Y-53637D01*
X91631Y-53673D01*
X94327Y-56671D01*
X94352Y-56690D01*
X94381Y-56722D01*
X97493Y-59285D01*
X97521Y-59300D01*
X97554Y-59328D01*
X101014Y-61397D01*
X101044Y-61408D01*
X101081Y-61431D01*
X104810Y-62962D01*
X104837Y-62967D01*
X104861Y-62980D01*
X104934Y-62986D01*
X105006Y-62999D01*
X105032Y-62994D01*
G37*
G36*
X65092Y-77484D02*
X65092Y-77484D01*
X65183Y-77477D01*
X65212Y-77465D01*
X65244Y-77459D01*
X65325Y-77417D01*
X65409Y-77381D01*
X65441Y-77355D01*
X65462Y-77344D01*
X65484Y-77321D01*
X65540Y-77276D01*
X76865Y-65951D01*
X76911Y-65888D01*
X76935Y-65862D01*
X76939Y-65852D01*
X76978Y-65807D01*
X76990Y-65777D01*
X77009Y-65751D01*
X77036Y-65664D01*
X77070Y-65579D01*
X77074Y-65538D01*
X77081Y-65516D01*
X77080Y-65484D01*
X77088Y-65412D01*
X77088Y-30775D01*
X77105Y-30755D01*
X77117Y-30725D01*
X77136Y-30699D01*
X77163Y-30612D01*
X77197Y-30527D01*
X77201Y-30486D01*
X77208Y-30464D01*
X77207Y-30432D01*
X77215Y-30360D01*
X77215Y-15461D01*
X77212Y-15441D01*
X77214Y-15422D01*
X77192Y-15320D01*
X77176Y-15218D01*
X77166Y-15201D01*
X77162Y-15181D01*
X77109Y-15092D01*
X77060Y-15001D01*
X77046Y-14987D01*
X77036Y-14970D01*
X76957Y-14903D01*
X76882Y-14831D01*
X76864Y-14823D01*
X76849Y-14810D01*
X76753Y-14771D01*
X76659Y-14728D01*
X76639Y-14726D01*
X76621Y-14718D01*
X76454Y-14700D01*
X74064Y-14700D01*
X73974Y-14714D01*
X73883Y-14722D01*
X73853Y-14734D01*
X73821Y-14739D01*
X73741Y-14782D01*
X73657Y-14818D01*
X73625Y-14844D01*
X73604Y-14855D01*
X73582Y-14878D01*
X73526Y-14923D01*
X73271Y-15177D01*
X71848Y-15177D01*
X71829Y-15180D01*
X71809Y-15178D01*
X71708Y-15200D01*
X71606Y-15217D01*
X71588Y-15226D01*
X71569Y-15231D01*
X71480Y-15284D01*
X71388Y-15332D01*
X71375Y-15346D01*
X71358Y-15357D01*
X71290Y-15435D01*
X71219Y-15510D01*
X71211Y-15528D01*
X71198Y-15544D01*
X71159Y-15640D01*
X71115Y-15733D01*
X71113Y-15753D01*
X71106Y-15772D01*
X71087Y-15938D01*
X71087Y-26269D01*
X70194Y-27162D01*
X67848Y-27162D01*
X67829Y-27165D01*
X67809Y-27163D01*
X67708Y-27185D01*
X67606Y-27202D01*
X67588Y-27211D01*
X67569Y-27216D01*
X67480Y-27269D01*
X67388Y-27317D01*
X67375Y-27331D01*
X67358Y-27342D01*
X67290Y-27420D01*
X67219Y-27495D01*
X67211Y-27513D01*
X67198Y-27529D01*
X67159Y-27625D01*
X67115Y-27718D01*
X67113Y-27738D01*
X67106Y-27757D01*
X67087Y-27923D01*
X67087Y-43308D01*
X67090Y-43327D01*
X67088Y-43347D01*
X67110Y-43449D01*
X67127Y-43551D01*
X67136Y-43568D01*
X67141Y-43588D01*
X67194Y-43677D01*
X67242Y-43768D01*
X67256Y-43782D01*
X67267Y-43799D01*
X67345Y-43866D01*
X67420Y-43937D01*
X67438Y-43946D01*
X67454Y-43959D01*
X67550Y-43997D01*
X67573Y-44008D01*
X70138Y-46573D01*
X70138Y-50114D01*
X67634Y-52619D01*
X64092Y-52619D01*
X63799Y-52325D01*
X63741Y-52283D01*
X63689Y-52234D01*
X63642Y-52212D01*
X63600Y-52182D01*
X63531Y-52161D01*
X63466Y-52130D01*
X63414Y-52125D01*
X63364Y-52109D01*
X63293Y-52111D01*
X63221Y-52103D01*
X63171Y-52114D01*
X63119Y-52116D01*
X63051Y-52140D01*
X62981Y-52156D01*
X62936Y-52182D01*
X62888Y-52200D01*
X62832Y-52245D01*
X62770Y-52282D01*
X62736Y-52321D01*
X62696Y-52354D01*
X62657Y-52414D01*
X62610Y-52469D01*
X62591Y-52517D01*
X62563Y-52561D01*
X62545Y-52630D01*
X62518Y-52697D01*
X62510Y-52768D01*
X62502Y-52799D01*
X62504Y-52823D01*
X62500Y-52864D01*
X62500Y-54132D01*
X61607Y-55025D01*
X53299Y-55025D01*
X53209Y-55040D01*
X53118Y-55047D01*
X53089Y-55059D01*
X53057Y-55065D01*
X52976Y-55107D01*
X52892Y-55143D01*
X52860Y-55169D01*
X52839Y-55180D01*
X52817Y-55203D01*
X52761Y-55248D01*
X45833Y-62176D01*
X44207Y-62176D01*
X44137Y-62188D01*
X44065Y-62190D01*
X44016Y-62208D01*
X43965Y-62216D01*
X43901Y-62249D01*
X43834Y-62274D01*
X43793Y-62307D01*
X43747Y-62331D01*
X43698Y-62383D01*
X43642Y-62428D01*
X43614Y-62472D01*
X43578Y-62509D01*
X43548Y-62574D01*
X43509Y-62635D01*
X43496Y-62685D01*
X43474Y-62732D01*
X43466Y-62804D01*
X43449Y-62873D01*
X43453Y-62925D01*
X43447Y-62977D01*
X43462Y-63047D01*
X43468Y-63119D01*
X43488Y-63166D01*
X43499Y-63217D01*
X43536Y-63279D01*
X43564Y-63345D01*
X43609Y-63401D01*
X43626Y-63428D01*
X43643Y-63444D01*
X43669Y-63476D01*
X44283Y-64090D01*
X51946Y-71752D01*
X52020Y-71805D01*
X52089Y-71865D01*
X52119Y-71877D01*
X52145Y-71896D01*
X52232Y-71923D01*
X52317Y-71957D01*
X52358Y-71961D01*
X52381Y-71968D01*
X52413Y-71967D01*
X52484Y-71975D01*
X61607Y-71975D01*
X62500Y-72868D01*
X62500Y-76738D01*
X62503Y-76758D01*
X62501Y-76777D01*
X62523Y-76879D01*
X62539Y-76981D01*
X62549Y-76998D01*
X62553Y-77018D01*
X62606Y-77107D01*
X62655Y-77198D01*
X62669Y-77212D01*
X62679Y-77229D01*
X62758Y-77296D01*
X62833Y-77367D01*
X62851Y-77376D01*
X62866Y-77389D01*
X62962Y-77428D01*
X63056Y-77471D01*
X63076Y-77473D01*
X63094Y-77481D01*
X63261Y-77499D01*
X65002Y-77499D01*
X65092Y-77484D01*
G37*
G36*
X39Y-14586D02*
X39Y-14586D01*
X142Y-14583D01*
X161Y-14577D01*
X181Y-14575D01*
X276Y-14534D01*
X373Y-14499D01*
X389Y-14487D01*
X407Y-14479D01*
X538Y-14374D01*
X599Y-14313D01*
X4306Y-14313D01*
X4396Y-14298D01*
X4487Y-14291D01*
X4517Y-14278D01*
X4549Y-14273D01*
X4630Y-14230D01*
X4713Y-14195D01*
X4746Y-14169D01*
X4766Y-14158D01*
X4788Y-14135D01*
X4844Y-14090D01*
X10692Y-8242D01*
X10745Y-8168D01*
X10804Y-8099D01*
X10817Y-8069D01*
X10835Y-8043D01*
X10862Y-7956D01*
X10896Y-7871D01*
X10901Y-7830D01*
X10908Y-7808D01*
X10907Y-7775D01*
X10915Y-7704D01*
X10915Y8432D01*
X10913Y8442D01*
X10914Y8446D01*
X10908Y8472D01*
X10900Y8522D01*
X10893Y8613D01*
X10880Y8643D01*
X10875Y8675D01*
X10832Y8755D01*
X10797Y8839D01*
X10771Y8871D01*
X10760Y8892D01*
X10737Y8914D01*
X10692Y8970D01*
X4494Y15168D01*
X4494Y27997D01*
X4482Y28068D01*
X4480Y28140D01*
X4463Y28189D01*
X4454Y28240D01*
X4421Y28303D01*
X4396Y28371D01*
X4363Y28411D01*
X4339Y28457D01*
X4287Y28507D01*
X4242Y28563D01*
X4198Y28591D01*
X4161Y28627D01*
X4096Y28657D01*
X4035Y28696D01*
X3985Y28708D01*
X3938Y28730D01*
X3866Y28738D01*
X3797Y28756D01*
X3745Y28752D01*
X3693Y28757D01*
X3623Y28742D01*
X3552Y28737D01*
X3504Y28716D01*
X3453Y28705D01*
X3391Y28668D01*
X3325Y28640D01*
X3269Y28596D01*
X3242Y28579D01*
X3226Y28561D01*
X3194Y28535D01*
X-12630Y12711D01*
X-12642Y12695D01*
X-12657Y12682D01*
X-12714Y12595D01*
X-12774Y12511D01*
X-12780Y12492D01*
X-12790Y12475D01*
X-12816Y12375D01*
X-12846Y12276D01*
X-12846Y12256D01*
X-12851Y12237D01*
X-12842Y12134D01*
X-12840Y12030D01*
X-12833Y12011D01*
X-12831Y11992D01*
X-12791Y11896D01*
X-12755Y11799D01*
X-12743Y11784D01*
X-12735Y11765D01*
X-12630Y11634D01*
X-9972Y8976D01*
X-9972Y5435D01*
X-11127Y4281D01*
X-11138Y4265D01*
X-11154Y4252D01*
X-11210Y4165D01*
X-11270Y4081D01*
X-11276Y4062D01*
X-11287Y4046D01*
X-11312Y3945D01*
X-11342Y3846D01*
X-11342Y3826D01*
X-11347Y3807D01*
X-11339Y3704D01*
X-11336Y3600D01*
X-11329Y3582D01*
X-11328Y3562D01*
X-11287Y3467D01*
X-11252Y3369D01*
X-11239Y3354D01*
X-11231Y3335D01*
X-11127Y3205D01*
X-9875Y1952D01*
X-9875Y-1589D01*
X-12379Y-4093D01*
X-14736Y-4093D01*
X-14807Y-4104D01*
X-14879Y-4106D01*
X-14928Y-4124D01*
X-14979Y-4133D01*
X-15042Y-4166D01*
X-15110Y-4191D01*
X-15150Y-4223D01*
X-15196Y-4248D01*
X-15246Y-4300D01*
X-15302Y-4345D01*
X-15330Y-4388D01*
X-15366Y-4426D01*
X-15396Y-4491D01*
X-15435Y-4551D01*
X-15447Y-4602D01*
X-15469Y-4649D01*
X-15477Y-4720D01*
X-15495Y-4790D01*
X-15491Y-4842D01*
X-15496Y-4894D01*
X-15481Y-4964D01*
X-15476Y-5035D01*
X-15455Y-5083D01*
X-15444Y-5134D01*
X-15407Y-5196D01*
X-15379Y-5261D01*
X-15335Y-5317D01*
X-15318Y-5345D01*
X-15300Y-5360D01*
X-15275Y-5392D01*
X-11213Y-9454D01*
X-11139Y-9507D01*
X-11069Y-9567D01*
X-11039Y-9579D01*
X-11013Y-9598D01*
X-11003Y-9601D01*
X-8223Y-12381D01*
X-6514Y-14090D01*
X-6440Y-14143D01*
X-6371Y-14202D01*
X-6340Y-14214D01*
X-6314Y-14233D01*
X-6227Y-14260D01*
X-6142Y-14294D01*
X-6101Y-14299D01*
X-6079Y-14306D01*
X-6047Y-14305D01*
X-5976Y-14313D01*
X-5600Y-14313D01*
X-5540Y-14373D01*
X-5524Y-14385D01*
X-5511Y-14401D01*
X-5424Y-14457D01*
X-5340Y-14517D01*
X-5321Y-14523D01*
X-5304Y-14534D01*
X-5204Y-14559D01*
X-5105Y-14589D01*
X-5085Y-14589D01*
X-5066Y-14594D01*
X-4963Y-14586D01*
X-4859Y-14583D01*
X-4840Y-14576D01*
X-4821Y-14575D01*
X-4725Y-14534D01*
X-4628Y-14499D01*
X-4612Y-14486D01*
X-4594Y-14478D01*
X-4463Y-14373D01*
X-4403Y-14313D01*
X-599Y-14313D01*
X-538Y-14374D01*
X-522Y-14386D01*
X-510Y-14401D01*
X-423Y-14457D01*
X-339Y-14517D01*
X-319Y-14523D01*
X-303Y-14534D01*
X-203Y-14559D01*
X-104Y-14590D01*
X-84Y-14589D01*
X-64Y-14594D01*
X39Y-14586D01*
G37*
G36*
X57099Y26876D02*
X57099Y26876D01*
X57190Y26883D01*
X57220Y26896D01*
X57252Y26901D01*
X57333Y26944D01*
X57417Y26979D01*
X57449Y27005D01*
X57469Y27016D01*
X57492Y27039D01*
X57548Y27084D01*
X66777Y36314D01*
X66830Y36388D01*
X66890Y36457D01*
X66902Y36487D01*
X66921Y36514D01*
X66948Y36601D01*
X66982Y36685D01*
X66986Y36726D01*
X66993Y36749D01*
X66992Y36781D01*
X67000Y36852D01*
X67000Y38480D01*
X66989Y38550D01*
X66987Y38622D01*
X66969Y38671D01*
X66961Y38722D01*
X66927Y38786D01*
X66902Y38853D01*
X66870Y38894D01*
X66845Y38940D01*
X66794Y38989D01*
X66749Y39045D01*
X66705Y39073D01*
X66667Y39109D01*
X66602Y39139D01*
X66542Y39178D01*
X66491Y39191D01*
X66444Y39213D01*
X66373Y39221D01*
X66303Y39238D01*
X66251Y39234D01*
X66200Y39240D01*
X66129Y39225D01*
X66058Y39219D01*
X66010Y39199D01*
X65959Y39188D01*
X65898Y39151D01*
X65832Y39123D01*
X65776Y39078D01*
X65748Y39061D01*
X65733Y39044D01*
X65701Y39018D01*
X65271Y38588D01*
X62561Y38588D01*
X62541Y38585D01*
X62522Y38587D01*
X62420Y38565D01*
X62318Y38548D01*
X62301Y38539D01*
X62281Y38534D01*
X62192Y38481D01*
X62101Y38433D01*
X62087Y38419D01*
X62070Y38408D01*
X62003Y38330D01*
X61931Y38255D01*
X61923Y38237D01*
X61910Y38221D01*
X61871Y38125D01*
X61828Y38032D01*
X61826Y38012D01*
X61818Y37993D01*
X61800Y37827D01*
X61800Y35243D01*
X60907Y34350D01*
X53643Y34350D01*
X52616Y35377D01*
X52542Y35430D01*
X52473Y35490D01*
X52443Y35502D01*
X52417Y35521D01*
X52330Y35548D01*
X52245Y35582D01*
X52204Y35586D01*
X52182Y35593D01*
X52149Y35592D01*
X52078Y35600D01*
X37811Y35600D01*
X37791Y35597D01*
X37772Y35599D01*
X37670Y35577D01*
X37568Y35561D01*
X37551Y35551D01*
X37531Y35547D01*
X37442Y35494D01*
X37351Y35445D01*
X37337Y35431D01*
X37320Y35421D01*
X37253Y35342D01*
X37181Y35267D01*
X37173Y35249D01*
X37160Y35234D01*
X37121Y35138D01*
X37078Y35044D01*
X37076Y35024D01*
X37068Y35006D01*
X37050Y34839D01*
X37050Y31077D01*
X37064Y30987D01*
X37072Y30896D01*
X37084Y30866D01*
X37089Y30834D01*
X37132Y30754D01*
X37168Y30670D01*
X37194Y30638D01*
X37205Y30617D01*
X37228Y30595D01*
X37273Y30539D01*
X40727Y27084D01*
X40801Y27031D01*
X40871Y26972D01*
X40901Y26959D01*
X40927Y26941D01*
X41014Y26914D01*
X41099Y26880D01*
X41140Y26875D01*
X41162Y26868D01*
X41194Y26869D01*
X41266Y26861D01*
X57009Y26861D01*
X57099Y26876D01*
G37*
G36*
X-31771Y-12863D02*
X-31771Y-12863D01*
X-31699Y-12861D01*
X-31650Y-12843D01*
X-31599Y-12835D01*
X-31535Y-12801D01*
X-31468Y-12776D01*
X-31427Y-12744D01*
X-31381Y-12719D01*
X-31332Y-12667D01*
X-31276Y-12623D01*
X-31248Y-12579D01*
X-31212Y-12541D01*
X-31182Y-12476D01*
X-31143Y-12416D01*
X-31130Y-12365D01*
X-31108Y-12318D01*
X-31100Y-12247D01*
X-31083Y-12177D01*
X-31087Y-12125D01*
X-31081Y-12074D01*
X-31096Y-12003D01*
X-31102Y-11932D01*
X-31122Y-11884D01*
X-31133Y-11833D01*
X-31170Y-11772D01*
X-31198Y-11706D01*
X-31243Y-11650D01*
X-31260Y-11622D01*
X-31277Y-11607D01*
X-31303Y-11575D01*
X-37506Y-5372D01*
X-37506Y-1376D01*
X-37521Y-1286D01*
X-37528Y-1195D01*
X-37541Y-1166D01*
X-37546Y-1134D01*
X-37589Y-1053D01*
X-37624Y-969D01*
X-37650Y-937D01*
X-37661Y-916D01*
X-37684Y-894D01*
X-37729Y-838D01*
X-39425Y858D01*
X-39425Y2559D01*
X-39428Y2579D01*
X-39426Y2598D01*
X-39448Y2700D01*
X-39465Y2802D01*
X-39474Y2819D01*
X-39478Y2839D01*
X-39531Y2928D01*
X-39580Y3019D01*
X-39594Y3033D01*
X-39604Y3050D01*
X-39683Y3117D01*
X-39758Y3188D01*
X-39776Y3197D01*
X-39791Y3210D01*
X-39888Y3249D01*
X-39981Y3292D01*
X-40001Y3294D01*
X-40019Y3302D01*
X-40186Y3320D01*
X-41888Y3320D01*
X-42754Y4186D01*
X-42770Y4198D01*
X-42782Y4213D01*
X-42870Y4270D01*
X-42953Y4330D01*
X-42972Y4336D01*
X-42989Y4346D01*
X-43090Y4372D01*
X-43188Y4402D01*
X-43208Y4402D01*
X-43228Y4407D01*
X-43331Y4399D01*
X-43434Y4396D01*
X-43453Y4389D01*
X-43473Y4387D01*
X-43568Y4347D01*
X-43665Y4311D01*
X-43681Y4299D01*
X-43699Y4291D01*
X-43830Y4186D01*
X-48726Y-710D01*
X-48779Y-784D01*
X-48839Y-853D01*
X-48851Y-883D01*
X-48870Y-910D01*
X-48897Y-996D01*
X-48931Y-1081D01*
X-48935Y-1122D01*
X-48942Y-1145D01*
X-48941Y-1177D01*
X-48949Y-1248D01*
X-48949Y-10972D01*
X-48935Y-11062D01*
X-48927Y-11153D01*
X-48915Y-11183D01*
X-48910Y-11215D01*
X-48867Y-11295D01*
X-48831Y-11379D01*
X-48805Y-11411D01*
X-48794Y-11432D01*
X-48771Y-11454D01*
X-48726Y-11510D01*
X-47585Y-12651D01*
X-47511Y-12704D01*
X-47442Y-12764D01*
X-47412Y-12776D01*
X-47385Y-12795D01*
X-47298Y-12822D01*
X-47214Y-12856D01*
X-47173Y-12860D01*
X-47150Y-12867D01*
X-47118Y-12866D01*
X-47047Y-12874D01*
X-31841Y-12874D01*
X-31771Y-12863D01*
G37*
G36*
X-20406Y24575D02*
X-20406Y24575D01*
X-20315Y24582D01*
X-20285Y24594D01*
X-20253Y24600D01*
X-20172Y24642D01*
X-20089Y24678D01*
X-20056Y24704D01*
X-20036Y24715D01*
X-20014Y24738D01*
X-19958Y24783D01*
X-11690Y33051D01*
X-11648Y33109D01*
X-11599Y33161D01*
X-11577Y33208D01*
X-11546Y33250D01*
X-11525Y33319D01*
X-11495Y33384D01*
X-11489Y33436D01*
X-11474Y33486D01*
X-11476Y33557D01*
X-11468Y33628D01*
X-11479Y33679D01*
X-11480Y33731D01*
X-11505Y33799D01*
X-11520Y33869D01*
X-11547Y33913D01*
X-11565Y33962D01*
X-11610Y34018D01*
X-11646Y34080D01*
X-11686Y34114D01*
X-11718Y34154D01*
X-11779Y34193D01*
X-11833Y34240D01*
X-11882Y34259D01*
X-11925Y34287D01*
X-11995Y34305D01*
X-12061Y34332D01*
X-12133Y34340D01*
X-12164Y34348D01*
X-12187Y34346D01*
X-12228Y34350D01*
X-16207Y34350D01*
X-17234Y35377D01*
X-17308Y35430D01*
X-17377Y35490D01*
X-17407Y35502D01*
X-17433Y35521D01*
X-17520Y35548D01*
X-17605Y35582D01*
X-17646Y35586D01*
X-17668Y35593D01*
X-17701Y35592D01*
X-17772Y35600D01*
X-32039Y35600D01*
X-32059Y35597D01*
X-32078Y35599D01*
X-32180Y35577D01*
X-32282Y35561D01*
X-32299Y35551D01*
X-32319Y35547D01*
X-32408Y35494D01*
X-32499Y35445D01*
X-32513Y35431D01*
X-32530Y35421D01*
X-32597Y35342D01*
X-32669Y35267D01*
X-32677Y35249D01*
X-32690Y35234D01*
X-32729Y35138D01*
X-32772Y35044D01*
X-32774Y35024D01*
X-32782Y35006D01*
X-32800Y34839D01*
X-32800Y27993D01*
X-33820Y26974D01*
X-33831Y26958D01*
X-33847Y26945D01*
X-33903Y26858D01*
X-33963Y26774D01*
X-33969Y26755D01*
X-33980Y26739D01*
X-34005Y26638D01*
X-34036Y26539D01*
X-34035Y26519D01*
X-34040Y26500D01*
X-34032Y26397D01*
X-34029Y26293D01*
X-34022Y26275D01*
X-34021Y26255D01*
X-33980Y26160D01*
X-33945Y26062D01*
X-33932Y26047D01*
X-33924Y26028D01*
X-33820Y25898D01*
X-32705Y24783D01*
X-32631Y24730D01*
X-32562Y24670D01*
X-32532Y24658D01*
X-32505Y24639D01*
X-32418Y24613D01*
X-32333Y24578D01*
X-32292Y24574D01*
X-32270Y24567D01*
X-32238Y24568D01*
X-32167Y24560D01*
X-20496Y24560D01*
X-20406Y24575D01*
G37*
%LPC*%
G36*
X-51169Y-79487D02*
X-51169Y-79487D01*
X-52062Y-78594D01*
X-52062Y-70331D01*
X-51169Y-69438D01*
X-40906Y-69438D01*
X-40013Y-70331D01*
X-40013Y-78594D01*
X-40906Y-79487D01*
X-51169Y-79487D01*
G37*
%LPD*%
D10*
X47063Y-11113D03*
X64063Y-11113D03*
D11*
X49063Y-30163D03*
X62063Y-30163D03*
X49063Y-38100D03*
X62063Y-38100D03*
D10*
X47063Y-20638D03*
X64063Y-20638D03*
X46038Y-2150D03*
X46038Y14850D03*
D12*
X87313Y26988D03*
D13*
X-85725Y50800D03*
X-85725Y25400D03*
X-85725Y0D03*
D14*
X-46038Y-87463D03*
X-46038Y-74463D03*
X73025Y3325D03*
X73025Y-9675D03*
X-42863Y-9375D03*
X-42863Y-22375D03*
D15*
X33800Y-24881D03*
X33800Y-29882D03*
X33800Y-34884D03*
X33800Y-39885D03*
X33800Y-44886D03*
X33800Y-49887D03*
X33800Y-54889D03*
X33800Y-59890D03*
X33800Y-64891D03*
X33800Y-69892D03*
X33800Y-74894D03*
X33800Y-79895D03*
D16*
X27507Y-86188D03*
X22506Y-86188D03*
X17504Y-86188D03*
X12503Y-86188D03*
X7502Y-86188D03*
X2501Y-86188D03*
X-2501Y-86188D03*
X-7502Y-86188D03*
X-12503Y-86188D03*
X-17504Y-86188D03*
X-22506Y-86188D03*
X-27507Y-86188D03*
D15*
X-33800Y-79895D03*
X-33800Y-74894D03*
X-33800Y-69892D03*
X-33800Y-64891D03*
X-33800Y-59890D03*
X-33800Y-54889D03*
X-33800Y-49887D03*
X-33800Y-44886D03*
X-33800Y-39885D03*
X-33800Y-34884D03*
X-33800Y-29882D03*
X-33800Y-24881D03*
D16*
X-27507Y-18588D03*
X-22506Y-18588D03*
X-17504Y-18588D03*
X-12503Y-18588D03*
X-7502Y-18588D03*
X-2501Y-18588D03*
X2501Y-18588D03*
X7502Y-18588D03*
X12503Y-18588D03*
X17504Y-18588D03*
X22506Y-18588D03*
X27507Y-18588D03*
D17*
X0Y-52388D03*
D18*
X53975Y-75500D03*
X53975Y-63500D03*
X53975Y-51500D03*
D14*
X17463Y68113D03*
X17463Y81113D03*
D11*
X43013Y74613D03*
X30013Y74613D03*
D14*
X73025Y38250D03*
X73025Y25250D03*
X-20638Y69700D03*
X-20638Y82700D03*
X-36513Y69700D03*
X-36513Y82700D03*
D19*
X48775Y63625D03*
D20*
X57275Y57625D03*
X57275Y52625D03*
X57275Y47625D03*
X57275Y42625D03*
X57275Y37625D03*
D19*
X48775Y31625D03*
X33775Y31625D03*
D20*
X25275Y37625D03*
X25275Y42625D03*
X25275Y47625D03*
X25275Y52625D03*
X25275Y57625D03*
D19*
X33775Y63625D03*
D21*
X41275Y47625D03*
D19*
X-21075Y63625D03*
D20*
X-12575Y57625D03*
X-12575Y52625D03*
X-12575Y47625D03*
X-12575Y42625D03*
X-12575Y37625D03*
D19*
X-21075Y31625D03*
X-36075Y31625D03*
D20*
X-44575Y37625D03*
X-44575Y42625D03*
X-44575Y47625D03*
X-44575Y52625D03*
X-44575Y57625D03*
D19*
X-36075Y63625D03*
D21*
X-28575Y47625D03*
D22*
X54088Y14288D03*
X76088Y14288D03*
D23*
X0Y140500D03*
X133600Y43400D03*
X82600Y-113700D03*
X-82600Y-113700D03*
X-133600Y43400D03*
X66800Y92000D03*
X108100Y-35100D03*
X0Y-113700D03*
X-108100Y-35100D03*
X-66800Y92000D03*
D24*
X-88900Y-92075D03*
X-57150Y-111125D03*
X-125413Y23813D03*
X-112713Y57150D03*
X-19050Y125413D03*
X17463Y125413D03*
X112713Y55563D03*
X122238Y15875D03*
X88900Y-87313D03*
X53975Y-112713D03*
X58240Y-839D03*
X49213Y14288D03*
D25*
X46600Y14288D02*
X46038Y14850D01*
D24*
X-10864Y66525D03*
D26*
X46038Y14850D02*
X48650Y14850D01*
X49213Y14288D01*
X54088Y14288D02*
X62063Y14288D01*
X53525Y14850D02*
X46038Y14850D01*
X53525Y14850D02*
X54088Y14288D01*
X-21075Y63625D02*
X-21075Y69263D01*
X-20638Y69700D01*
D27*
X25838Y63625D02*
X33775Y63625D01*
X25838Y63625D02*
X21350Y68113D01*
X17463Y68113D01*
D26*
X17463Y62111D01*
X16158Y60807D01*
D24*
X16158Y60807D03*
D27*
X-10864Y66525D02*
X-17463Y66525D01*
X-20638Y69700D01*
D28*
X-3175Y7938D03*
X3175Y7938D03*
X3175Y0D03*
X3175Y-7938D03*
X-3175Y-7938D03*
X-3175Y0D03*
D24*
X-103188Y39688D03*
X-106363Y26988D03*
X14288Y-73025D03*
X-60325Y-92075D03*
X-73025Y-82550D03*
X63500Y-101600D03*
X73025Y-95250D03*
X69850Y-61913D03*
X111125Y39688D03*
X109538Y19050D03*
X7938Y111125D03*
X-6350Y112713D03*
X-20638Y30163D03*
X-25400Y-28575D03*
X-42863Y-7938D03*
X47188Y31625D03*
X25400Y-28575D03*
D28*
X73025Y14288D03*
X34925Y-6096D03*
D29*
X-66675Y45586D02*
X-66675Y60831D01*
X-61764Y65742D01*
D28*
X-61764Y65742D03*
D29*
X-22100Y1010D02*
X-22100Y-1801D01*
X-11937Y-11964D02*
X-11874Y-11964D01*
X-8947Y-14891D01*
X-8947Y-17143D01*
X-7502Y-18588D01*
X-22100Y1010D02*
X-66675Y45586D01*
X-22100Y-1801D02*
X-11937Y-11964D01*
X-69975Y44575D02*
X-69975Y88825D01*
X-66800Y92000D01*
X-69975Y44575D02*
X-25148Y-253D01*
X-13948Y-17143D02*
X-12503Y-18588D01*
X-13948Y-17143D02*
X-13948Y-14263D01*
X-25148Y-3064D02*
X-25148Y-253D01*
X-25148Y-3064D02*
X-13948Y-14263D01*
X-17504Y-86188D02*
X-17504Y-92034D01*
X-17463Y-92075D01*
D28*
X-17463Y-92075D03*
D29*
X-33800Y-59890D02*
X-36975Y-59890D01*
X-40150Y-63065D01*
X-45082Y-63065D01*
X-57737Y-50410D01*
X-83137Y-50410D01*
D28*
X-83137Y-50410D03*
D29*
X-22506Y-86188D02*
X-22506Y-96557D01*
X-5363Y-113700D02*
X0Y-113700D01*
X-5363Y-113700D02*
X-22506Y-96557D01*
X-33800Y-44886D02*
X-36975Y-44886D01*
X-38563Y-46473D01*
X-75765Y-46473D01*
X-87138Y-35100D02*
X-108100Y-35100D01*
X-87138Y-35100D02*
X-75765Y-46473D01*
D26*
X45888Y-38100D02*
X49063Y-38100D01*
X45888Y-38100D02*
X39102Y-44886D01*
X38819Y-45169D01*
X38801Y-44886D02*
X33800Y-44886D01*
X33800Y-40150D02*
X38819Y-45169D01*
X33800Y-40150D02*
X33800Y-39885D01*
D30*
X49063Y-38100D02*
X49063Y-30163D01*
X47063Y-28163D01*
X47063Y-20638D01*
X47063Y-11113D01*
X47063Y-3175D02*
X46038Y-2150D01*
X47063Y-3175D02*
X47063Y-11113D01*
D29*
X34101Y-49887D02*
X33800Y-49887D01*
D26*
X38801Y-44886D01*
X39102Y-44886D01*
X37831Y-54889D02*
X33800Y-54889D01*
X37831Y-54889D02*
X37831Y-54693D01*
X45818Y-46706D01*
X55563Y-46706D01*
X62063Y-40206D01*
X62063Y-38100D01*
D30*
X62063Y-30163D01*
X62063Y-22638D01*
X64063Y-20638D01*
X64063Y-11113D01*
X71588Y-11113D02*
X73025Y-9675D01*
X71588Y-11113D02*
X64063Y-11113D01*
D28*
X87586Y-58738D03*
D29*
X85598Y-60726D01*
X85598Y-69525D01*
X68936Y-86188D02*
X27507Y-86188D01*
X68936Y-86188D02*
X85598Y-69525D01*
X92622Y-50578D02*
X108100Y-35100D01*
X92622Y-50578D02*
X92622Y-66812D01*
X67359Y-92075D01*
X25400Y-92075D01*
X22506Y-89181D01*
X22506Y-86188D01*
X33800Y-74894D02*
X39969Y-74894D01*
X44861Y-79786D01*
X66264Y-79786D01*
X79375Y-66675D01*
X79375Y-31750D01*
X79502Y-31623D01*
X79502Y-15875D01*
X98249Y2872D01*
D28*
X79102Y65961D03*
D29*
X79102Y50086D02*
X98249Y30939D01*
X79102Y50086D02*
X79102Y65961D01*
X98249Y30939D02*
X98249Y2872D01*
X40659Y-79895D02*
X33800Y-79895D01*
X40659Y-79895D02*
X43598Y-82834D01*
X67979Y-82834D01*
X101297Y51104D02*
X66675Y85725D01*
X66675Y91875D01*
X66800Y92000D01*
X82550Y-68263D02*
X67979Y-82834D01*
X82550Y-68263D02*
X82550Y-22225D01*
X101297Y-3479D01*
X101297Y51104D01*
D30*
X-46038Y-74463D02*
X-46188Y-74613D01*
D28*
X-46038Y-74463D03*
D29*
X52459Y-75500D02*
X53975Y-75500D01*
X52459Y-75500D02*
X41774Y-64814D01*
X33877Y-64814D02*
X33800Y-64891D01*
X33877Y-64814D02*
X41774Y-64814D01*
X44886Y-59890D02*
X33800Y-59890D01*
X53275Y-51500D02*
X53975Y-51500D01*
X53275Y-51500D02*
X44886Y-59890D01*
D26*
X-85725Y25400D02*
X-85725Y50800D01*
X-46521Y-18717D02*
X-42863Y-22375D01*
X-46521Y-18717D02*
X-49782Y-18717D01*
X-85725Y17226D01*
X-85725Y25400D01*
X-36306Y-22375D02*
X-33800Y-24881D01*
X-36306Y-22375D02*
X-42863Y-22375D01*
D29*
X-47906Y-29882D02*
X-33800Y-29882D01*
X-47906Y-29882D02*
X-77788Y0D01*
X-85725Y0D01*
D28*
X-44575Y58649D03*
D29*
X-44575Y57625D01*
D28*
X-60325Y52388D03*
D29*
X-48714Y52661D02*
X-48678Y52625D01*
X-44575Y52625D01*
X-60052Y52661D02*
X-60325Y52388D01*
X-60052Y52661D02*
X-48714Y52661D01*
D28*
X-52114Y40601D03*
D29*
X-50126Y42589D01*
X-48714Y42589D01*
X-48678Y42625D01*
X-44575Y42625D01*
D28*
X32543Y-12954D03*
X-50800Y47625D03*
D29*
X-44575Y47625D01*
D28*
X57275Y58649D03*
D29*
X57275Y57625D01*
D28*
X65863Y-48344D03*
X63500Y42863D03*
D29*
X63263Y42625D01*
X57275Y42625D01*
D28*
X-14247Y7206D03*
X69260Y47035D03*
D29*
X66449Y47035D01*
X65586Y47899D01*
X61414Y47899D01*
X61141Y47625D01*
X57275Y47625D01*
D28*
X-14149Y182D03*
D29*
X57275Y52625D02*
X64917Y52625D01*
X65677Y53385D01*
D28*
X65677Y53385D03*
D24*
X-42266Y-55441D03*
X-49462Y12550D03*
X-36513Y69700D03*
D29*
X-36075Y69263D01*
X-36075Y63625D01*
D31*
X47544Y64856D02*
X48775Y63625D01*
D25*
X47544Y64856D02*
X47775Y65088D01*
X47775Y66675D01*
X43013Y74613D01*
D28*
X47544Y64856D03*
X73025Y25250D03*
D26*
X-33800Y-39885D02*
X-41025Y-39885D01*
X-41365Y-40224D01*
D28*
X-41365Y-40224D03*
X37289Y-18396D03*
D26*
X7502Y-18588D02*
X7502Y-15385D01*
X13710Y-9177D01*
X13710Y9905D01*
D32*
X4763Y74613D03*
D26*
X7289Y72086D01*
X7289Y16326D01*
X13710Y9905D01*
D33*
X33775Y29725D02*
X33775Y31625D01*
X33775Y29725D02*
X39688Y23813D01*
X58588Y23813D02*
X73025Y38250D01*
X58588Y23813D02*
X39688Y23813D01*
D29*
X-33800Y-34884D02*
X-36975Y-34884D01*
X-38563Y-33296D01*
X-51614Y-33296D01*
X-65474Y-19436D01*
D28*
X-65474Y-19436D03*
X-36171Y22204D03*
D29*
X-33360Y22204D01*
X-33291Y22273D01*
X-19233Y22273D01*
X-6350Y35157D02*
X-6350Y41275D01*
X-7700Y42625D01*
X-12575Y42625D01*
X-6350Y35157D02*
X-19233Y22273D01*
X-17504Y-15018D02*
X-17504Y-18588D01*
X-17504Y-15018D02*
X-30184Y-2339D01*
D28*
X-30184Y-2339D03*
X-21271Y7304D03*
D29*
X3175Y31750D01*
X3175Y53975D01*
X-475Y57625D01*
X-12575Y57625D01*
X22100Y47625D02*
X25275Y47625D01*
X22100Y47625D02*
X16941Y42466D01*
X16941Y23043D01*
X24094Y15891D01*
X24094Y-13825D01*
X22506Y-15413D01*
X22506Y-18588D01*
X21830Y52625D02*
X25275Y52625D01*
X21830Y52625D02*
X13893Y44688D01*
X13893Y20421D01*
X20679Y13635D01*
X20679Y-12238D02*
X17504Y-15413D01*
X17504Y-18588D01*
X20679Y-12238D02*
X20679Y13635D01*
D28*
X-37787Y31625D03*
D26*
X-36075Y31625D01*
D28*
X39688Y-69850D03*
D29*
X39646Y-69892D01*
X33800Y-69892D01*
D26*
X-44763Y-86188D02*
X-46038Y-87463D01*
X-44763Y-86188D02*
X-27507Y-86188D01*
D29*
X19989Y25027D02*
X19989Y40626D01*
X21988Y42625D01*
X25275Y42625D01*
X19989Y25027D02*
X27507Y17509D01*
X27507Y-18588D01*
X25275Y57625D02*
X21513Y57625D01*
X10845Y46957D01*
X10845Y17799D01*
X17266Y11378D01*
X17266Y-10650D01*
X12503Y-15413D01*
X12503Y-18588D01*
D28*
X-35150Y2628D03*
D29*
X-22506Y-16336D02*
X-22506Y-18588D01*
X-22506Y-16336D02*
X-25290Y-13552D01*
X-35220Y-4425D02*
X-35220Y2559D01*
X-35150Y2628D01*
X-26093Y-13552D02*
X-25290Y-13552D01*
X-26093Y-13552D02*
X-35220Y-4425D01*
D28*
X-26238Y12271D03*
D29*
X-23427Y12271D01*
X-23357Y12340D01*
X-20546Y12340D01*
X0Y32886D02*
X0Y49213D01*
X-3413Y52625D01*
X-12575Y52625D01*
X0Y32886D02*
X-20546Y12340D01*
D28*
X-40117Y7595D03*
D29*
X-51236Y-12234D02*
X-48309Y-15161D01*
X-43656Y7595D02*
X-40117Y7595D01*
X-27507Y-17000D02*
X-27507Y-18588D01*
X-27507Y-17000D02*
X-29346Y-15161D01*
X-48309Y-15161D01*
X-51236Y-12234D02*
X-51236Y14D01*
X-43656Y7595D01*
D28*
X-31205Y17237D03*
D29*
X-28393Y17237D01*
X-28324Y17307D01*
X-19890Y17307D01*
X-3175Y34021D02*
X-3175Y46038D01*
X-4763Y47625D01*
X-12575Y47625D01*
X-3175Y34021D02*
X-19890Y17307D01*
M02*
