G04 EAGLE Gerber RS-274X export*
G75*
%MOMM*%
%FSLAX34Y34*%
%LPD*%
%INCopper Layer 2*%
%IPPOS*%
%AMOC8*
5,1,8,0,0,1.08239X$1,22.5*%
G01*
%ADD10C,1.524000*%
%ADD11C,0.525000*%
%ADD12C,0.402400*%
%ADD13C,0.152400*%
%ADD14C,0.406400*%
%ADD15C,0.254000*%
%ADD16C,0.452400*%

G36*
X84617Y-117195D02*
X84617Y-117195D01*
X84641Y-117198D01*
X84738Y-117176D01*
X84836Y-117160D01*
X84857Y-117148D01*
X84880Y-117143D01*
X84965Y-117091D01*
X85053Y-117044D01*
X85070Y-117027D01*
X85090Y-117015D01*
X85154Y-116938D01*
X85223Y-116866D01*
X85233Y-116844D01*
X85248Y-116826D01*
X85317Y-116673D01*
X137577Y44210D01*
X137581Y44233D01*
X137590Y44255D01*
X137599Y44355D01*
X137614Y44453D01*
X137610Y44476D01*
X137613Y44500D01*
X137589Y44597D01*
X137572Y44695D01*
X137561Y44716D01*
X137555Y44739D01*
X137502Y44824D01*
X137455Y44911D01*
X137437Y44928D01*
X137425Y44948D01*
X137301Y45061D01*
X447Y144502D01*
X426Y144512D01*
X408Y144528D01*
X317Y144568D01*
X228Y144612D01*
X204Y144616D01*
X182Y144625D01*
X83Y144633D01*
X-16Y144647D01*
X-39Y144643D01*
X-63Y144644D01*
X-160Y144620D01*
X-258Y144602D01*
X-279Y144591D01*
X-302Y144585D01*
X-447Y144502D01*
X-137301Y45061D01*
X-137318Y45044D01*
X-137338Y45032D01*
X-137404Y44957D01*
X-137474Y44886D01*
X-137484Y44865D01*
X-137500Y44847D01*
X-137538Y44755D01*
X-137582Y44665D01*
X-137585Y44642D01*
X-137594Y44619D01*
X-137601Y44520D01*
X-137614Y44421D01*
X-137610Y44398D01*
X-137611Y44374D01*
X-137577Y44210D01*
X-85317Y-116673D01*
X-85306Y-116694D01*
X-85301Y-116718D01*
X-85250Y-116803D01*
X-85204Y-116892D01*
X-85187Y-116908D01*
X-85175Y-116929D01*
X-85099Y-116994D01*
X-85028Y-117063D01*
X-85006Y-117073D01*
X-84988Y-117089D01*
X-84895Y-117126D01*
X-84806Y-117169D01*
X-84782Y-117172D01*
X-84760Y-117181D01*
X-84593Y-117199D01*
X84593Y-117199D01*
X84617Y-117195D01*
G37*
%LPC*%
G36*
X-43985Y-59591D02*
X-43985Y-59591D01*
X-46415Y-57160D01*
X-46415Y-56637D01*
X-46430Y-56546D01*
X-46437Y-56456D01*
X-46450Y-56426D01*
X-46455Y-56394D01*
X-46498Y-56313D01*
X-46534Y-56229D01*
X-46559Y-56197D01*
X-46570Y-56176D01*
X-46594Y-56154D01*
X-46638Y-56098D01*
X-74994Y-27742D01*
X-74994Y52273D01*
X-72688Y54580D01*
X-64684Y62584D01*
X-64672Y62600D01*
X-64657Y62612D01*
X-64601Y62699D01*
X-64540Y62783D01*
X-64534Y62802D01*
X-64524Y62819D01*
X-64498Y62920D01*
X-64468Y63018D01*
X-64468Y63038D01*
X-64464Y63058D01*
X-64472Y63161D01*
X-64474Y63264D01*
X-64481Y63283D01*
X-64483Y63303D01*
X-64523Y63398D01*
X-64559Y63495D01*
X-64571Y63511D01*
X-64579Y63529D01*
X-64684Y63660D01*
X-65301Y64277D01*
X-65301Y67207D01*
X-63229Y69279D01*
X-60299Y69279D01*
X-58379Y67359D01*
X-58363Y67347D01*
X-58351Y67332D01*
X-58263Y67276D01*
X-58180Y67216D01*
X-58161Y67210D01*
X-58144Y67199D01*
X-58043Y67174D01*
X-57944Y67143D01*
X-57924Y67144D01*
X-57905Y67139D01*
X-57802Y67147D01*
X-57699Y67150D01*
X-57680Y67156D01*
X-57660Y67158D01*
X-57565Y67198D01*
X-57468Y67234D01*
X-57452Y67246D01*
X-57434Y67254D01*
X-57303Y67359D01*
X-56018Y68644D01*
X-41423Y68644D01*
X-41404Y68647D01*
X-41384Y68645D01*
X-41283Y68667D01*
X-41181Y68684D01*
X-41163Y68693D01*
X-41144Y68698D01*
X-41055Y68751D01*
X-40963Y68799D01*
X-40950Y68813D01*
X-40933Y68824D01*
X-40865Y68902D01*
X-40794Y68977D01*
X-40786Y68995D01*
X-40773Y69011D01*
X-40734Y69107D01*
X-40690Y69200D01*
X-40688Y69220D01*
X-40681Y69239D01*
X-40662Y69405D01*
X-40662Y71419D01*
X-38231Y73850D01*
X-34794Y73850D01*
X-32363Y71419D01*
X-32363Y68267D01*
X-32351Y68196D01*
X-32349Y68124D01*
X-32331Y68075D01*
X-32323Y68024D01*
X-32289Y67960D01*
X-32265Y67893D01*
X-32232Y67852D01*
X-32208Y67806D01*
X-32156Y67757D01*
X-32111Y67701D01*
X-32067Y67673D01*
X-32030Y67637D01*
X-31965Y67607D01*
X-31904Y67568D01*
X-31854Y67555D01*
X-31807Y67533D01*
X-31735Y67525D01*
X-31666Y67508D01*
X-31614Y67512D01*
X-31562Y67506D01*
X-31492Y67522D01*
X-31421Y67527D01*
X-31373Y67547D01*
X-31322Y67559D01*
X-31260Y67595D01*
X-31194Y67623D01*
X-31138Y67668D01*
X-31111Y67685D01*
X-31095Y67703D01*
X-31063Y67728D01*
X-11097Y87694D01*
X29736Y87694D01*
X32042Y85388D01*
X49556Y67874D01*
X49630Y67821D01*
X49699Y67761D01*
X49730Y67749D01*
X49756Y67730D01*
X49843Y67704D01*
X49928Y67669D01*
X49969Y67665D01*
X49991Y67658D01*
X50023Y67659D01*
X50094Y67651D01*
X71239Y67651D01*
X73099Y65791D01*
X74265Y64625D01*
X74323Y64583D01*
X74375Y64533D01*
X74423Y64511D01*
X74465Y64481D01*
X74533Y64460D01*
X74599Y64430D01*
X74650Y64424D01*
X74700Y64409D01*
X74772Y64411D01*
X74843Y64403D01*
X74894Y64414D01*
X74946Y64415D01*
X75013Y64440D01*
X75083Y64455D01*
X75128Y64482D01*
X75177Y64500D01*
X75233Y64544D01*
X75294Y64581D01*
X75328Y64621D01*
X75369Y64653D01*
X75408Y64714D01*
X75454Y64768D01*
X75474Y64816D01*
X75502Y64860D01*
X75519Y64930D01*
X75546Y64996D01*
X75554Y65067D01*
X75562Y65099D01*
X75560Y65122D01*
X75565Y65163D01*
X75565Y67426D01*
X77637Y69498D01*
X80566Y69498D01*
X82638Y67426D01*
X82638Y64496D01*
X80566Y62425D01*
X78303Y62425D01*
X78232Y62413D01*
X78161Y62411D01*
X78112Y62393D01*
X78060Y62385D01*
X77997Y62351D01*
X77930Y62327D01*
X77889Y62294D01*
X77843Y62270D01*
X77794Y62218D01*
X77738Y62173D01*
X77709Y62129D01*
X77673Y62091D01*
X77643Y62027D01*
X77605Y61966D01*
X77592Y61916D01*
X77570Y61868D01*
X77562Y61797D01*
X77544Y61728D01*
X77549Y61676D01*
X77543Y61624D01*
X77558Y61554D01*
X77564Y61482D01*
X77584Y61435D01*
X77595Y61384D01*
X77632Y61322D01*
X77660Y61256D01*
X77705Y61200D01*
X77721Y61172D01*
X77739Y61157D01*
X77765Y61125D01*
X78995Y59895D01*
X78995Y33440D01*
X79006Y33369D01*
X79008Y33298D01*
X79026Y33249D01*
X79034Y33197D01*
X79068Y33134D01*
X79093Y33067D01*
X79125Y33026D01*
X79150Y32980D01*
X79202Y32931D01*
X79246Y32875D01*
X79290Y32846D01*
X79328Y32811D01*
X79393Y32780D01*
X79453Y32742D01*
X79504Y32729D01*
X79551Y32707D01*
X79622Y32699D01*
X79692Y32682D01*
X79744Y32686D01*
X79795Y32680D01*
X79866Y32695D01*
X79937Y32701D01*
X79985Y32721D01*
X80036Y32732D01*
X80097Y32769D01*
X80163Y32797D01*
X80219Y32842D01*
X80247Y32858D01*
X80262Y32876D01*
X80294Y32902D01*
X82132Y34740D01*
X85494Y36132D01*
X89131Y36132D01*
X92493Y34740D01*
X95065Y32168D01*
X96457Y28806D01*
X96457Y25169D01*
X95065Y21807D01*
X92493Y19235D01*
X89131Y17843D01*
X85494Y17843D01*
X82132Y19235D01*
X79560Y21807D01*
X78231Y25015D01*
X78207Y25054D01*
X78191Y25098D01*
X78143Y25158D01*
X78102Y25224D01*
X78066Y25254D01*
X78038Y25290D01*
X77972Y25332D01*
X77912Y25381D01*
X77869Y25398D01*
X77831Y25422D01*
X77755Y25441D01*
X77683Y25469D01*
X77637Y25471D01*
X77592Y25483D01*
X77515Y25477D01*
X77437Y25480D01*
X77393Y25467D01*
X77347Y25463D01*
X77275Y25433D01*
X77201Y25411D01*
X77163Y25385D01*
X77121Y25367D01*
X77014Y25282D01*
X76998Y25271D01*
X76995Y25267D01*
X76990Y25262D01*
X76785Y25057D01*
X76732Y24983D01*
X76672Y24914D01*
X76660Y24884D01*
X76641Y24858D01*
X76614Y24771D01*
X76580Y24686D01*
X76576Y24645D01*
X76569Y24622D01*
X76570Y24590D01*
X76562Y24519D01*
X76562Y23785D01*
X74490Y21713D01*
X71560Y21713D01*
X69449Y23824D01*
X69391Y23866D01*
X69339Y23915D01*
X69292Y23937D01*
X69250Y23967D01*
X69181Y23989D01*
X69116Y24019D01*
X69064Y24025D01*
X69015Y24040D01*
X68943Y24038D01*
X68872Y24046D01*
X68821Y24035D01*
X68769Y24033D01*
X68701Y24009D01*
X68631Y23994D01*
X68587Y23967D01*
X68538Y23949D01*
X68482Y23904D01*
X68420Y23867D01*
X68386Y23828D01*
X68346Y23795D01*
X68307Y23735D01*
X68260Y23681D01*
X68241Y23632D01*
X68213Y23588D01*
X68195Y23519D01*
X68168Y23452D01*
X68160Y23381D01*
X68153Y23350D01*
X68154Y23327D01*
X68150Y23286D01*
X68150Y16252D01*
X68161Y16181D01*
X68163Y16109D01*
X68181Y16060D01*
X68190Y16009D01*
X68223Y15946D01*
X68248Y15878D01*
X68280Y15838D01*
X68305Y15792D01*
X68357Y15742D01*
X68401Y15686D01*
X68445Y15658D01*
X68483Y15622D01*
X68548Y15592D01*
X68608Y15553D01*
X68659Y15541D01*
X68706Y15519D01*
X68777Y15511D01*
X68847Y15493D01*
X68899Y15497D01*
X68951Y15492D01*
X69021Y15507D01*
X69092Y15512D01*
X69140Y15533D01*
X69191Y15544D01*
X69253Y15581D01*
X69318Y15609D01*
X69374Y15654D01*
X69402Y15670D01*
X69417Y15688D01*
X69449Y15714D01*
X71560Y17824D01*
X74490Y17824D01*
X76562Y15752D01*
X76562Y12823D01*
X74490Y10751D01*
X71560Y10751D01*
X69449Y12861D01*
X69391Y12903D01*
X69339Y12953D01*
X69292Y12975D01*
X69250Y13005D01*
X69181Y13026D01*
X69116Y13056D01*
X69064Y13062D01*
X69015Y13077D01*
X68943Y13075D01*
X68872Y13083D01*
X68821Y13072D01*
X68769Y13071D01*
X68701Y13046D01*
X68631Y13031D01*
X68587Y13004D01*
X68538Y12987D01*
X68482Y12942D01*
X68420Y12905D01*
X68386Y12865D01*
X68346Y12833D01*
X68307Y12773D01*
X68260Y12718D01*
X68241Y12670D01*
X68213Y12626D01*
X68195Y12556D01*
X68168Y12490D01*
X68160Y12419D01*
X68153Y12387D01*
X68154Y12364D01*
X68150Y12323D01*
X68150Y-45313D01*
X68165Y-45404D01*
X68172Y-45494D01*
X68184Y-45524D01*
X68190Y-45556D01*
X68232Y-45637D01*
X68268Y-45721D01*
X68294Y-45753D01*
X68305Y-45774D01*
X68328Y-45796D01*
X68373Y-45852D01*
X69400Y-46879D01*
X69400Y-49809D01*
X67328Y-51881D01*
X64398Y-51881D01*
X62326Y-49809D01*
X62326Y-46879D01*
X63353Y-45852D01*
X63407Y-45778D01*
X63466Y-45708D01*
X63478Y-45678D01*
X63497Y-45652D01*
X63524Y-45565D01*
X63558Y-45480D01*
X63562Y-45439D01*
X63569Y-45417D01*
X63568Y-45385D01*
X63576Y-45313D01*
X63576Y38565D01*
X63573Y38584D01*
X63575Y38604D01*
X63553Y38705D01*
X63537Y38807D01*
X63527Y38825D01*
X63523Y38844D01*
X63470Y38933D01*
X63422Y39025D01*
X63407Y39038D01*
X63397Y39055D01*
X63318Y39123D01*
X63243Y39194D01*
X63225Y39202D01*
X63210Y39215D01*
X63114Y39254D01*
X63020Y39298D01*
X63000Y39300D01*
X62982Y39307D01*
X62815Y39326D01*
X62035Y39326D01*
X59963Y41398D01*
X59963Y44327D01*
X62035Y46399D01*
X64962Y46399D01*
X64982Y46402D01*
X65002Y46400D01*
X65103Y46422D01*
X65205Y46439D01*
X65223Y46448D01*
X65242Y46453D01*
X65331Y46506D01*
X65423Y46554D01*
X65436Y46568D01*
X65453Y46579D01*
X65521Y46657D01*
X65592Y46732D01*
X65600Y46750D01*
X65613Y46766D01*
X65652Y46862D01*
X65696Y46955D01*
X65698Y46975D01*
X65705Y46994D01*
X65724Y47160D01*
X65724Y48500D01*
X65772Y48549D01*
X65814Y48607D01*
X65864Y48659D01*
X65886Y48707D01*
X65916Y48749D01*
X65937Y48817D01*
X65967Y48882D01*
X65973Y48934D01*
X65988Y48984D01*
X65987Y49056D01*
X65994Y49127D01*
X65983Y49178D01*
X65982Y49230D01*
X65957Y49297D01*
X65942Y49367D01*
X65915Y49412D01*
X65898Y49461D01*
X65853Y49517D01*
X65816Y49578D01*
X65776Y49612D01*
X65744Y49653D01*
X65684Y49692D01*
X65629Y49738D01*
X65581Y49758D01*
X65537Y49786D01*
X65468Y49803D01*
X65401Y49830D01*
X65330Y49838D01*
X65299Y49846D01*
X65275Y49844D01*
X65234Y49849D01*
X64212Y49849D01*
X62140Y51920D01*
X62140Y54850D01*
X64212Y56922D01*
X67142Y56922D01*
X69214Y54850D01*
X69214Y51921D01*
X69165Y51872D01*
X69123Y51814D01*
X69074Y51762D01*
X69052Y51714D01*
X69021Y51672D01*
X69000Y51603D01*
X68970Y51538D01*
X68964Y51487D01*
X68949Y51437D01*
X68951Y51365D01*
X68943Y51294D01*
X68954Y51243D01*
X68955Y51191D01*
X68980Y51124D01*
X68995Y51054D01*
X69022Y51009D01*
X69040Y50960D01*
X69085Y50904D01*
X69121Y50843D01*
X69161Y50809D01*
X69194Y50768D01*
X69254Y50729D01*
X69308Y50683D01*
X69357Y50663D01*
X69400Y50635D01*
X69470Y50618D01*
X69537Y50591D01*
X69608Y50583D01*
X69639Y50575D01*
X69662Y50577D01*
X69703Y50572D01*
X70725Y50572D01*
X72106Y49192D01*
X72164Y49150D01*
X72216Y49101D01*
X72263Y49079D01*
X72305Y49048D01*
X72374Y49027D01*
X72439Y48997D01*
X72491Y48991D01*
X72541Y48976D01*
X72612Y48978D01*
X72683Y48970D01*
X72734Y48981D01*
X72786Y48982D01*
X72854Y49007D01*
X72924Y49022D01*
X72969Y49049D01*
X73017Y49067D01*
X73073Y49112D01*
X73135Y49148D01*
X73169Y49188D01*
X73209Y49221D01*
X73248Y49281D01*
X73295Y49335D01*
X73314Y49384D01*
X73342Y49427D01*
X73360Y49497D01*
X73387Y49563D01*
X73395Y49635D01*
X73403Y49666D01*
X73401Y49689D01*
X73405Y49730D01*
X73405Y57265D01*
X73391Y57355D01*
X73383Y57446D01*
X73371Y57475D01*
X73366Y57507D01*
X73323Y57588D01*
X73287Y57672D01*
X73261Y57704D01*
X73250Y57725D01*
X73227Y57747D01*
X73182Y57803D01*
X69147Y61839D01*
X69073Y61892D01*
X69003Y61951D01*
X68973Y61963D01*
X68947Y61982D01*
X68860Y62009D01*
X68775Y62043D01*
X68734Y62048D01*
X68712Y62054D01*
X68680Y62054D01*
X68608Y62062D01*
X60702Y62062D01*
X60631Y62050D01*
X60560Y62048D01*
X60511Y62030D01*
X60459Y62022D01*
X60396Y61988D01*
X60329Y61964D01*
X60288Y61931D01*
X60242Y61907D01*
X60193Y61855D01*
X60137Y61810D01*
X60108Y61766D01*
X60072Y61728D01*
X60042Y61663D01*
X60004Y61603D01*
X59991Y61552D01*
X59969Y61505D01*
X59961Y61434D01*
X59943Y61364D01*
X59948Y61313D01*
X59942Y61261D01*
X59957Y61191D01*
X59963Y61119D01*
X59983Y61071D01*
X59994Y61020D01*
X60031Y60959D01*
X60059Y60893D01*
X60104Y60837D01*
X60120Y60809D01*
X60138Y60794D01*
X60164Y60762D01*
X60812Y60114D01*
X60812Y57184D01*
X58740Y55112D01*
X55810Y55112D01*
X53738Y57184D01*
X53738Y60114D01*
X54386Y60762D01*
X54428Y60820D01*
X54478Y60872D01*
X54499Y60919D01*
X54530Y60962D01*
X54551Y61030D01*
X54581Y61095D01*
X54587Y61147D01*
X54602Y61197D01*
X54600Y61269D01*
X54608Y61340D01*
X54597Y61391D01*
X54596Y61443D01*
X54571Y61510D01*
X54556Y61580D01*
X54529Y61625D01*
X54511Y61674D01*
X54467Y61730D01*
X54430Y61791D01*
X54390Y61825D01*
X54358Y61866D01*
X54297Y61904D01*
X54243Y61951D01*
X54195Y61971D01*
X54151Y61999D01*
X54081Y62016D01*
X54015Y62043D01*
X53943Y62051D01*
X53912Y62059D01*
X53889Y62057D01*
X53848Y62062D01*
X50094Y62062D01*
X50004Y62047D01*
X49913Y62040D01*
X49884Y62027D01*
X49852Y62022D01*
X49771Y61979D01*
X49687Y61943D01*
X49655Y61918D01*
X49634Y61907D01*
X49612Y61883D01*
X49556Y61839D01*
X49017Y61300D01*
X46070Y61300D01*
X27012Y80358D01*
X26938Y80411D01*
X26869Y80470D01*
X26839Y80483D01*
X26812Y80501D01*
X26726Y80528D01*
X26641Y80562D01*
X26600Y80567D01*
X26577Y80574D01*
X26545Y80573D01*
X26474Y80581D01*
X-7835Y80581D01*
X-7926Y80566D01*
X-8016Y80559D01*
X-8046Y80546D01*
X-8078Y80541D01*
X-8159Y80498D01*
X-8243Y80463D01*
X-8275Y80437D01*
X-8296Y80426D01*
X-8318Y80403D01*
X-8374Y80358D01*
X-28769Y59962D01*
X-40277Y59962D01*
X-40297Y59959D01*
X-40316Y59961D01*
X-40418Y59939D01*
X-40520Y59923D01*
X-40537Y59913D01*
X-40557Y59909D01*
X-40646Y59856D01*
X-40737Y59807D01*
X-40751Y59793D01*
X-40768Y59783D01*
X-40835Y59704D01*
X-40907Y59629D01*
X-40915Y59611D01*
X-40928Y59596D01*
X-40967Y59500D01*
X-41010Y59406D01*
X-41012Y59386D01*
X-41020Y59368D01*
X-41038Y59201D01*
X-41038Y57184D01*
X-43110Y55112D01*
X-46040Y55112D01*
X-48112Y57184D01*
X-48112Y60114D01*
X-47994Y60231D01*
X-47953Y60289D01*
X-47903Y60341D01*
X-47881Y60389D01*
X-47851Y60431D01*
X-47830Y60499D01*
X-47800Y60565D01*
X-47794Y60616D01*
X-47779Y60666D01*
X-47780Y60738D01*
X-47773Y60809D01*
X-47784Y60860D01*
X-47785Y60912D01*
X-47810Y60979D01*
X-47825Y61049D01*
X-47852Y61094D01*
X-47869Y61143D01*
X-47914Y61199D01*
X-47951Y61260D01*
X-47991Y61294D01*
X-48023Y61335D01*
X-48083Y61374D01*
X-48138Y61420D01*
X-48186Y61440D01*
X-48230Y61468D01*
X-48299Y61485D01*
X-48366Y61512D01*
X-48437Y61520D01*
X-48468Y61528D01*
X-48492Y61526D01*
X-48533Y61531D01*
X-52756Y61531D01*
X-52846Y61516D01*
X-52937Y61509D01*
X-52966Y61496D01*
X-52998Y61491D01*
X-53079Y61448D01*
X-53163Y61413D01*
X-53195Y61387D01*
X-53216Y61376D01*
X-53238Y61353D01*
X-53294Y61308D01*
X-58078Y56523D01*
X-58089Y56519D01*
X-58129Y56487D01*
X-58176Y56463D01*
X-58225Y56411D01*
X-58281Y56366D01*
X-58309Y56322D01*
X-58345Y56284D01*
X-58375Y56219D01*
X-58414Y56159D01*
X-58427Y56108D01*
X-58449Y56061D01*
X-58456Y55990D01*
X-58474Y55920D01*
X-58470Y55868D01*
X-58476Y55817D01*
X-58460Y55747D01*
X-58455Y55675D01*
X-58434Y55627D01*
X-58423Y55576D01*
X-58387Y55515D01*
X-58358Y55449D01*
X-58314Y55393D01*
X-58297Y55365D01*
X-58279Y55350D01*
X-58254Y55318D01*
X-56788Y53852D01*
X-56788Y50923D01*
X-58860Y48851D01*
X-61790Y48851D01*
X-63862Y50923D01*
X-63862Y51508D01*
X-63873Y51579D01*
X-63875Y51650D01*
X-63893Y51699D01*
X-63901Y51751D01*
X-63935Y51814D01*
X-63960Y51881D01*
X-63992Y51922D01*
X-64017Y51968D01*
X-64069Y52017D01*
X-64113Y52073D01*
X-64157Y52102D01*
X-64195Y52137D01*
X-64260Y52168D01*
X-64320Y52206D01*
X-64371Y52219D01*
X-64418Y52241D01*
X-64489Y52249D01*
X-64559Y52267D01*
X-64611Y52262D01*
X-64662Y52268D01*
X-64733Y52253D01*
X-64804Y52247D01*
X-64852Y52227D01*
X-64903Y52216D01*
X-64964Y52179D01*
X-65030Y52151D01*
X-65086Y52106D01*
X-65114Y52090D01*
X-65129Y52072D01*
X-65161Y52046D01*
X-67658Y49550D01*
X-67711Y49476D01*
X-67770Y49406D01*
X-67782Y49376D01*
X-67801Y49350D01*
X-67828Y49263D01*
X-67862Y49178D01*
X-67867Y49137D01*
X-67874Y49115D01*
X-67873Y49083D01*
X-67881Y49011D01*
X-67881Y18605D01*
X-67878Y18586D01*
X-67880Y18566D01*
X-67858Y18465D01*
X-67841Y18363D01*
X-67832Y18345D01*
X-67827Y18326D01*
X-67774Y18237D01*
X-67726Y18145D01*
X-67712Y18132D01*
X-67701Y18115D01*
X-67623Y18047D01*
X-67548Y17976D01*
X-67530Y17968D01*
X-67514Y17955D01*
X-67418Y17916D01*
X-67325Y17872D01*
X-67305Y17870D01*
X-67286Y17863D01*
X-67120Y17844D01*
X-49726Y17844D01*
X-48804Y16923D01*
X-48730Y16870D01*
X-48661Y16810D01*
X-48631Y16798D01*
X-48604Y16779D01*
X-48518Y16752D01*
X-48433Y16718D01*
X-48392Y16714D01*
X-48369Y16707D01*
X-48337Y16708D01*
X-48266Y16700D01*
X-47743Y16700D01*
X-46864Y15821D01*
X-46848Y15810D01*
X-46836Y15794D01*
X-46748Y15738D01*
X-46665Y15678D01*
X-46646Y15672D01*
X-46629Y15661D01*
X-46528Y15636D01*
X-46430Y15606D01*
X-46410Y15606D01*
X-46390Y15601D01*
X-46287Y15609D01*
X-46184Y15612D01*
X-46165Y15619D01*
X-46145Y15620D01*
X-46050Y15661D01*
X-45953Y15696D01*
X-45937Y15709D01*
X-45919Y15717D01*
X-45788Y15821D01*
X-39931Y21678D01*
X-39878Y21752D01*
X-39819Y21822D01*
X-39806Y21852D01*
X-39788Y21878D01*
X-39761Y21965D01*
X-39727Y22050D01*
X-39722Y22091D01*
X-39715Y22113D01*
X-39716Y22145D01*
X-39708Y22216D01*
X-39708Y23669D01*
X-37636Y25741D01*
X-34706Y25741D01*
X-32635Y23669D01*
X-32635Y21535D01*
X-32631Y21516D01*
X-32634Y21496D01*
X-32612Y21394D01*
X-32595Y21292D01*
X-32586Y21275D01*
X-32581Y21255D01*
X-32528Y21166D01*
X-32480Y21075D01*
X-32465Y21061D01*
X-32455Y21044D01*
X-32376Y20977D01*
X-32301Y20906D01*
X-32283Y20897D01*
X-32268Y20884D01*
X-32172Y20846D01*
X-32078Y20802D01*
X-32059Y20800D01*
X-32040Y20792D01*
X-31873Y20774D01*
X-29740Y20774D01*
X-27668Y18702D01*
X-27668Y16568D01*
X-27665Y16549D01*
X-27667Y16529D01*
X-27645Y16428D01*
X-27628Y16326D01*
X-27619Y16308D01*
X-27615Y16289D01*
X-27561Y16200D01*
X-27513Y16108D01*
X-27499Y16095D01*
X-27488Y16078D01*
X-27410Y16010D01*
X-27335Y15939D01*
X-27317Y15931D01*
X-27302Y15918D01*
X-27205Y15879D01*
X-27112Y15835D01*
X-27092Y15833D01*
X-27073Y15826D01*
X-26907Y15807D01*
X-24773Y15807D01*
X-22701Y13735D01*
X-22701Y11602D01*
X-22698Y11582D01*
X-22700Y11562D01*
X-22678Y11461D01*
X-22661Y11359D01*
X-22652Y11341D01*
X-22648Y11322D01*
X-22595Y11233D01*
X-22546Y11142D01*
X-22532Y11128D01*
X-22522Y11111D01*
X-22443Y11043D01*
X-22368Y10972D01*
X-22350Y10964D01*
X-22335Y10951D01*
X-22239Y10912D01*
X-22145Y10869D01*
X-22125Y10866D01*
X-22107Y10859D01*
X-21940Y10841D01*
X-19806Y10841D01*
X-18248Y9283D01*
X-18232Y9271D01*
X-18220Y9256D01*
X-18132Y9199D01*
X-18049Y9139D01*
X-18030Y9133D01*
X-18013Y9123D01*
X-17912Y9097D01*
X-17814Y9067D01*
X-17794Y9067D01*
X-17774Y9063D01*
X-17671Y9071D01*
X-17568Y9073D01*
X-17549Y9080D01*
X-17529Y9082D01*
X-17434Y9122D01*
X-17337Y9158D01*
X-17321Y9170D01*
X-17303Y9178D01*
X-17172Y9283D01*
X-15712Y10743D01*
X-12782Y10743D01*
X-10710Y8671D01*
X-10710Y5741D01*
X-12170Y4281D01*
X-12182Y4265D01*
X-12197Y4252D01*
X-12253Y4165D01*
X-12314Y4081D01*
X-12320Y4062D01*
X-12330Y4046D01*
X-12356Y3945D01*
X-12386Y3846D01*
X-12386Y3826D01*
X-12390Y3807D01*
X-12382Y3704D01*
X-12380Y3600D01*
X-12373Y3582D01*
X-12371Y3562D01*
X-12331Y3467D01*
X-12295Y3369D01*
X-12283Y3354D01*
X-12275Y3335D01*
X-12170Y3205D01*
X-10613Y1647D01*
X-10613Y-1283D01*
X-12684Y-3355D01*
X-15614Y-3355D01*
X-17686Y-1283D01*
X-17686Y1647D01*
X-16226Y3107D01*
X-16215Y3123D01*
X-16199Y3135D01*
X-16143Y3223D01*
X-16083Y3306D01*
X-16077Y3325D01*
X-16066Y3342D01*
X-16041Y3443D01*
X-16010Y3541D01*
X-16011Y3561D01*
X-16006Y3581D01*
X-16014Y3684D01*
X-16017Y3787D01*
X-16024Y3806D01*
X-16025Y3826D01*
X-16065Y3921D01*
X-16101Y4018D01*
X-16114Y4034D01*
X-16121Y4052D01*
X-16226Y4183D01*
X-17270Y5227D01*
X-17286Y5238D01*
X-17299Y5254D01*
X-17386Y5310D01*
X-17470Y5370D01*
X-17489Y5376D01*
X-17505Y5387D01*
X-17606Y5412D01*
X-17705Y5443D01*
X-17725Y5442D01*
X-17744Y5447D01*
X-17847Y5439D01*
X-17951Y5436D01*
X-17969Y5429D01*
X-17989Y5428D01*
X-18084Y5388D01*
X-18182Y5352D01*
X-18197Y5339D01*
X-18215Y5332D01*
X-18346Y5227D01*
X-19806Y3767D01*
X-20529Y3767D01*
X-20619Y3752D01*
X-20710Y3745D01*
X-20739Y3733D01*
X-20771Y3727D01*
X-20852Y3685D01*
X-20936Y3649D01*
X-20968Y3623D01*
X-20989Y3612D01*
X-21011Y3589D01*
X-21067Y3544D01*
X-26424Y-1813D01*
X-26477Y-1887D01*
X-26536Y-1956D01*
X-26548Y-1986D01*
X-26567Y-2012D01*
X-26594Y-2099D01*
X-26628Y-2184D01*
X-26633Y-2225D01*
X-26640Y-2248D01*
X-26639Y-2280D01*
X-26647Y-2351D01*
X-26647Y-3803D01*
X-28719Y-5875D01*
X-31648Y-5875D01*
X-33720Y-3803D01*
X-33720Y-1670D01*
X-33723Y-1650D01*
X-33721Y-1630D01*
X-33743Y-1529D01*
X-33760Y-1427D01*
X-33769Y-1409D01*
X-33774Y-1390D01*
X-33827Y-1301D01*
X-33875Y-1210D01*
X-33889Y-1196D01*
X-33900Y-1179D01*
X-33978Y-1111D01*
X-34053Y-1040D01*
X-34071Y-1032D01*
X-34087Y-1019D01*
X-34183Y-980D01*
X-34276Y-937D01*
X-34296Y-934D01*
X-34315Y-927D01*
X-34481Y-909D01*
X-36615Y-909D01*
X-38687Y1163D01*
X-38687Y3297D01*
X-38690Y3317D01*
X-38688Y3336D01*
X-38710Y3438D01*
X-38727Y3540D01*
X-38736Y3557D01*
X-38740Y3577D01*
X-38793Y3666D01*
X-38842Y3757D01*
X-38856Y3771D01*
X-38866Y3788D01*
X-38945Y3855D01*
X-39020Y3926D01*
X-39038Y3935D01*
X-39053Y3948D01*
X-39150Y3987D01*
X-39243Y4030D01*
X-39263Y4032D01*
X-39281Y4040D01*
X-39448Y4058D01*
X-41582Y4058D01*
X-42800Y5277D01*
X-42817Y5288D01*
X-42829Y5304D01*
X-42916Y5360D01*
X-43000Y5420D01*
X-43019Y5426D01*
X-43036Y5437D01*
X-43136Y5462D01*
X-43235Y5493D01*
X-43255Y5492D01*
X-43274Y5497D01*
X-43377Y5489D01*
X-43481Y5486D01*
X-43500Y5479D01*
X-43520Y5478D01*
X-43614Y5437D01*
X-43712Y5402D01*
X-43728Y5389D01*
X-43746Y5381D01*
X-43877Y5277D01*
X-62964Y-13810D01*
X-63017Y-13884D01*
X-63076Y-13954D01*
X-63089Y-13984D01*
X-63107Y-14010D01*
X-63134Y-14097D01*
X-63168Y-14182D01*
X-63173Y-14223D01*
X-63180Y-14245D01*
X-63179Y-14277D01*
X-63187Y-14349D01*
X-63187Y-16406D01*
X-63172Y-16496D01*
X-63165Y-16587D01*
X-63152Y-16616D01*
X-63147Y-16648D01*
X-63104Y-16729D01*
X-63069Y-16813D01*
X-63043Y-16845D01*
X-63032Y-16866D01*
X-63009Y-16888D01*
X-62964Y-16944D01*
X-61937Y-17971D01*
X-61937Y-20901D01*
X-64009Y-22973D01*
X-67120Y-22973D01*
X-67139Y-22976D01*
X-67159Y-22974D01*
X-67260Y-22996D01*
X-67362Y-23012D01*
X-67380Y-23022D01*
X-67399Y-23026D01*
X-67488Y-23079D01*
X-67580Y-23128D01*
X-67593Y-23142D01*
X-67610Y-23152D01*
X-67678Y-23231D01*
X-67749Y-23306D01*
X-67757Y-23324D01*
X-67770Y-23339D01*
X-67809Y-23435D01*
X-67853Y-23529D01*
X-67855Y-23549D01*
X-67862Y-23567D01*
X-67881Y-23734D01*
X-67881Y-24481D01*
X-67866Y-24571D01*
X-67859Y-24662D01*
X-67846Y-24691D01*
X-67841Y-24723D01*
X-67798Y-24804D01*
X-67763Y-24888D01*
X-67737Y-24920D01*
X-67726Y-24941D01*
X-67703Y-24963D01*
X-67658Y-25019D01*
X-41608Y-51068D01*
X-41534Y-51121D01*
X-41465Y-51181D01*
X-41435Y-51193D01*
X-41409Y-51212D01*
X-41322Y-51239D01*
X-41237Y-51273D01*
X-41196Y-51277D01*
X-41174Y-51284D01*
X-41141Y-51283D01*
X-41070Y-51291D01*
X-40547Y-51291D01*
X-38116Y-53722D01*
X-38116Y-57160D01*
X-40547Y-59591D01*
X-43985Y-59591D01*
G37*
%LPD*%
%LPC*%
G36*
X-42830Y-43761D02*
X-42830Y-43761D01*
X-44901Y-41689D01*
X-44901Y-40955D01*
X-44916Y-40865D01*
X-44923Y-40774D01*
X-44936Y-40744D01*
X-44941Y-40712D01*
X-44984Y-40632D01*
X-45019Y-40548D01*
X-45045Y-40516D01*
X-45056Y-40495D01*
X-45080Y-40473D01*
X-45124Y-40417D01*
X-45657Y-39884D01*
X-45657Y-27417D01*
X-33841Y-15601D01*
X28351Y-15601D01*
X28422Y-15590D01*
X28493Y-15588D01*
X28542Y-15570D01*
X28593Y-15561D01*
X28657Y-15528D01*
X28724Y-15503D01*
X28765Y-15471D01*
X28811Y-15446D01*
X28860Y-15394D01*
X28916Y-15350D01*
X28944Y-15306D01*
X28980Y-15268D01*
X29010Y-15203D01*
X29049Y-15143D01*
X29062Y-15092D01*
X29084Y-15045D01*
X29092Y-14974D01*
X29109Y-14904D01*
X29105Y-14852D01*
X29111Y-14800D01*
X29096Y-14730D01*
X29090Y-14659D01*
X29070Y-14611D01*
X29059Y-14560D01*
X29022Y-14499D01*
X29006Y-14462D01*
X29006Y-12967D01*
X28992Y-12876D01*
X28984Y-12786D01*
X28972Y-12756D01*
X28967Y-12724D01*
X28924Y-12643D01*
X28888Y-12559D01*
X28862Y-12527D01*
X28851Y-12506D01*
X28828Y-12484D01*
X28783Y-12428D01*
X8011Y8344D01*
X7953Y8386D01*
X7901Y8435D01*
X7854Y8457D01*
X7812Y8487D01*
X7743Y8508D01*
X7678Y8539D01*
X7626Y8544D01*
X7576Y8560D01*
X7505Y8558D01*
X7434Y8566D01*
X7383Y8555D01*
X7331Y8553D01*
X7263Y8529D01*
X7193Y8514D01*
X7149Y8487D01*
X7100Y8469D01*
X7044Y8424D01*
X6982Y8387D01*
X6948Y8348D01*
X6908Y8315D01*
X6869Y8255D01*
X6822Y8200D01*
X6803Y8152D01*
X6775Y8108D01*
X6757Y8039D01*
X6730Y7972D01*
X6722Y7901D01*
X6714Y7870D01*
X6716Y7846D01*
X6712Y7806D01*
X6712Y6473D01*
X4746Y4507D01*
X4735Y4491D01*
X4719Y4478D01*
X4663Y4391D01*
X4603Y4307D01*
X4597Y4288D01*
X4586Y4272D01*
X4561Y4171D01*
X4530Y4072D01*
X4531Y4052D01*
X4526Y4033D01*
X4534Y3930D01*
X4537Y3826D01*
X4544Y3808D01*
X4545Y3788D01*
X4585Y3693D01*
X4621Y3595D01*
X4634Y3580D01*
X4641Y3561D01*
X4746Y3430D01*
X6712Y1465D01*
X6712Y-1465D01*
X4746Y-3430D01*
X4735Y-3447D01*
X4719Y-3459D01*
X4663Y-3546D01*
X4603Y-3630D01*
X4597Y-3649D01*
X4586Y-3666D01*
X4561Y-3766D01*
X4530Y-3865D01*
X4531Y-3885D01*
X4526Y-3905D01*
X4534Y-4007D01*
X4537Y-4111D01*
X4544Y-4130D01*
X4545Y-4150D01*
X4585Y-4245D01*
X4621Y-4342D01*
X4634Y-4358D01*
X4641Y-4376D01*
X4746Y-4507D01*
X6712Y-6473D01*
X6712Y-9402D01*
X4640Y-11474D01*
X1710Y-11474D01*
X538Y-10302D01*
X522Y-10291D01*
X510Y-10275D01*
X422Y-10219D01*
X339Y-10159D01*
X320Y-10153D01*
X303Y-10142D01*
X202Y-10117D01*
X103Y-10087D01*
X84Y-10087D01*
X64Y-10082D01*
X-39Y-10090D01*
X-142Y-10093D01*
X-161Y-10100D01*
X-181Y-10101D01*
X-276Y-10142D01*
X-373Y-10177D01*
X-389Y-10190D01*
X-407Y-10198D01*
X-538Y-10302D01*
X-1710Y-11474D01*
X-4640Y-11474D01*
X-6712Y-9402D01*
X-6712Y-6473D01*
X-4746Y-4507D01*
X-4735Y-4491D01*
X-4719Y-4478D01*
X-4663Y-4391D01*
X-4603Y-4307D01*
X-4597Y-4288D01*
X-4586Y-4272D01*
X-4561Y-4171D01*
X-4530Y-4072D01*
X-4531Y-4052D01*
X-4526Y-4033D01*
X-4534Y-3930D01*
X-4537Y-3826D01*
X-4544Y-3808D01*
X-4545Y-3788D01*
X-4585Y-3693D01*
X-4621Y-3595D01*
X-4634Y-3580D01*
X-4641Y-3561D01*
X-4746Y-3430D01*
X-6712Y-1465D01*
X-6712Y1465D01*
X-4746Y3430D01*
X-4735Y3447D01*
X-4719Y3459D01*
X-4663Y3546D01*
X-4603Y3630D01*
X-4597Y3649D01*
X-4586Y3666D01*
X-4561Y3767D01*
X-4530Y3865D01*
X-4531Y3885D01*
X-4526Y3905D01*
X-4534Y4008D01*
X-4537Y4111D01*
X-4544Y4130D01*
X-4545Y4150D01*
X-4585Y4245D01*
X-4621Y4342D01*
X-4634Y4358D01*
X-4641Y4376D01*
X-4746Y4507D01*
X-6712Y6473D01*
X-6712Y9402D01*
X-4640Y11474D01*
X-1710Y11474D01*
X-538Y10302D01*
X-522Y10291D01*
X-510Y10275D01*
X-422Y10219D01*
X-339Y10159D01*
X-320Y10153D01*
X-303Y10142D01*
X-202Y10117D01*
X-103Y10087D01*
X-84Y10087D01*
X-64Y10082D01*
X39Y10090D01*
X142Y10093D01*
X161Y10100D01*
X181Y10101D01*
X276Y10142D01*
X373Y10177D01*
X389Y10190D01*
X407Y10198D01*
X538Y10302D01*
X1710Y11474D01*
X3043Y11474D01*
X3114Y11486D01*
X3185Y11488D01*
X3234Y11506D01*
X3286Y11514D01*
X3349Y11547D01*
X3416Y11572D01*
X3457Y11605D01*
X3503Y11629D01*
X3552Y11681D01*
X3609Y11726D01*
X3637Y11770D01*
X3673Y11807D01*
X3703Y11872D01*
X3742Y11933D01*
X3754Y11983D01*
X3776Y12030D01*
X3784Y12102D01*
X3802Y12171D01*
X3798Y12223D01*
X3803Y12275D01*
X3788Y12345D01*
X3782Y12416D01*
X3762Y12464D01*
X3751Y12515D01*
X3714Y12577D01*
X3686Y12643D01*
X3641Y12699D01*
X3625Y12726D01*
X3607Y12742D01*
X3581Y12774D01*
X-15188Y31543D01*
X-15246Y31585D01*
X-15298Y31635D01*
X-15346Y31657D01*
X-15388Y31687D01*
X-15456Y31708D01*
X-15522Y31738D01*
X-15573Y31744D01*
X-15623Y31759D01*
X-15695Y31757D01*
X-15766Y31765D01*
X-15817Y31754D01*
X-15869Y31753D01*
X-15936Y31728D01*
X-16006Y31713D01*
X-16051Y31686D01*
X-16100Y31668D01*
X-16156Y31624D01*
X-16217Y31587D01*
X-16251Y31547D01*
X-16292Y31515D01*
X-16331Y31454D01*
X-16377Y31400D01*
X-16397Y31352D01*
X-16425Y31308D01*
X-16442Y31238D01*
X-16469Y31172D01*
X-16477Y31100D01*
X-16485Y31069D01*
X-16483Y31046D01*
X-16488Y31005D01*
X-16488Y28444D01*
X-18919Y26013D01*
X-22356Y26013D01*
X-24787Y28444D01*
X-24787Y31881D01*
X-22356Y34312D01*
X-19795Y34312D01*
X-19724Y34324D01*
X-19653Y34326D01*
X-19604Y34344D01*
X-19552Y34352D01*
X-19489Y34386D01*
X-19422Y34410D01*
X-19381Y34443D01*
X-19335Y34467D01*
X-19285Y34519D01*
X-19229Y34564D01*
X-19201Y34608D01*
X-19165Y34645D01*
X-19135Y34710D01*
X-19096Y34771D01*
X-19084Y34821D01*
X-19062Y34868D01*
X-19054Y34940D01*
X-19036Y35009D01*
X-19040Y35061D01*
X-19035Y35113D01*
X-19050Y35183D01*
X-19056Y35254D01*
X-19076Y35302D01*
X-19087Y35353D01*
X-19124Y35415D01*
X-19152Y35481D01*
X-19197Y35537D01*
X-19213Y35564D01*
X-19231Y35580D01*
X-19257Y35612D01*
X-28760Y45115D01*
X-28834Y45168D01*
X-28904Y45228D01*
X-28934Y45240D01*
X-28960Y45259D01*
X-29047Y45286D01*
X-29132Y45320D01*
X-29173Y45324D01*
X-29195Y45331D01*
X-29227Y45330D01*
X-29299Y45338D01*
X-47770Y45338D01*
X-47860Y45324D01*
X-47951Y45316D01*
X-47980Y45304D01*
X-48012Y45299D01*
X-48093Y45256D01*
X-48177Y45220D01*
X-48209Y45194D01*
X-48230Y45183D01*
X-48252Y45160D01*
X-48308Y45115D01*
X-49429Y43994D01*
X-49441Y43978D01*
X-49456Y43966D01*
X-49512Y43878D01*
X-49573Y43795D01*
X-49578Y43776D01*
X-49589Y43759D01*
X-49614Y43658D01*
X-49645Y43559D01*
X-49644Y43540D01*
X-49649Y43520D01*
X-49641Y43417D01*
X-49639Y43314D01*
X-49632Y43295D01*
X-49630Y43275D01*
X-49590Y43180D01*
X-49554Y43083D01*
X-49542Y43067D01*
X-49534Y43049D01*
X-49429Y42918D01*
X-48577Y42066D01*
X-48577Y39136D01*
X-50649Y37064D01*
X-53579Y37064D01*
X-55651Y39136D01*
X-55651Y42066D01*
X-53485Y44232D01*
X-53473Y44248D01*
X-53458Y44260D01*
X-53402Y44348D01*
X-53341Y44431D01*
X-53336Y44450D01*
X-53325Y44467D01*
X-53300Y44568D01*
X-53269Y44667D01*
X-53270Y44686D01*
X-53265Y44706D01*
X-53273Y44809D01*
X-53275Y44912D01*
X-53282Y44931D01*
X-53284Y44951D01*
X-53324Y45046D01*
X-53360Y45143D01*
X-53372Y45159D01*
X-53380Y45177D01*
X-53485Y45308D01*
X-54337Y46160D01*
X-54337Y49090D01*
X-52265Y51162D01*
X-49335Y51162D01*
X-48308Y50135D01*
X-48234Y50082D01*
X-48165Y50022D01*
X-48134Y50010D01*
X-48108Y49991D01*
X-48021Y49964D01*
X-47936Y49930D01*
X-47895Y49926D01*
X-47873Y49919D01*
X-47841Y49920D01*
X-47770Y49912D01*
X-27089Y49912D01*
X-25526Y48349D01*
X30089Y-7266D01*
X30147Y-7308D01*
X30199Y-7357D01*
X30246Y-7379D01*
X30288Y-7409D01*
X30357Y-7430D01*
X30422Y-7461D01*
X30474Y-7466D01*
X30524Y-7482D01*
X30595Y-7480D01*
X30666Y-7488D01*
X30717Y-7477D01*
X30769Y-7475D01*
X30837Y-7451D01*
X30907Y-7436D01*
X30952Y-7409D01*
X31000Y-7391D01*
X31056Y-7346D01*
X31118Y-7309D01*
X31152Y-7270D01*
X31192Y-7237D01*
X31231Y-7177D01*
X31278Y-7122D01*
X31297Y-7074D01*
X31325Y-7030D01*
X31343Y-6961D01*
X31370Y-6894D01*
X31378Y-6823D01*
X31386Y-6792D01*
X31384Y-6768D01*
X31388Y-6728D01*
X31388Y-4631D01*
X33460Y-2559D01*
X36390Y-2559D01*
X38462Y-4631D01*
X38462Y-7561D01*
X36390Y-9633D01*
X36061Y-9633D01*
X35991Y-9644D01*
X35919Y-9646D01*
X35870Y-9664D01*
X35818Y-9672D01*
X35755Y-9706D01*
X35688Y-9731D01*
X35647Y-9763D01*
X35601Y-9788D01*
X35552Y-9840D01*
X35496Y-9884D01*
X35468Y-9928D01*
X35432Y-9966D01*
X35402Y-10031D01*
X35363Y-10091D01*
X35350Y-10142D01*
X35328Y-10189D01*
X35320Y-10260D01*
X35303Y-10330D01*
X35307Y-10382D01*
X35301Y-10433D01*
X35316Y-10504D01*
X35322Y-10575D01*
X35342Y-10623D01*
X35353Y-10674D01*
X35390Y-10735D01*
X35418Y-10801D01*
X35463Y-10857D01*
X35479Y-10885D01*
X35497Y-10900D01*
X35523Y-10932D01*
X36080Y-11489D01*
X36080Y-14098D01*
X36083Y-14118D01*
X36081Y-14137D01*
X36103Y-14239D01*
X36119Y-14341D01*
X36129Y-14358D01*
X36133Y-14378D01*
X36186Y-14467D01*
X36235Y-14558D01*
X36249Y-14572D01*
X36259Y-14589D01*
X36338Y-14656D01*
X36413Y-14727D01*
X36431Y-14736D01*
X36446Y-14749D01*
X36542Y-14788D01*
X36636Y-14831D01*
X36656Y-14833D01*
X36674Y-14841D01*
X36841Y-14859D01*
X38753Y-14859D01*
X40825Y-16931D01*
X40825Y-19861D01*
X38753Y-21933D01*
X35824Y-21933D01*
X35304Y-21414D01*
X35231Y-21361D01*
X35161Y-21301D01*
X35131Y-21289D01*
X35105Y-21270D01*
X35018Y-21243D01*
X34933Y-21209D01*
X34892Y-21205D01*
X34870Y-21198D01*
X34837Y-21199D01*
X34766Y-21191D01*
X-31210Y-21191D01*
X-31301Y-21205D01*
X-31391Y-21213D01*
X-31421Y-21225D01*
X-31453Y-21230D01*
X-31534Y-21273D01*
X-31618Y-21309D01*
X-31650Y-21335D01*
X-31671Y-21345D01*
X-31693Y-21369D01*
X-31749Y-21414D01*
X-39845Y-29510D01*
X-39898Y-29584D01*
X-39957Y-29653D01*
X-39970Y-29683D01*
X-39988Y-29709D01*
X-40015Y-29796D01*
X-40049Y-29881D01*
X-40054Y-29922D01*
X-40061Y-29944D01*
X-40060Y-29977D01*
X-40068Y-30048D01*
X-40068Y-36204D01*
X-40053Y-36294D01*
X-40046Y-36385D01*
X-40033Y-36415D01*
X-40028Y-36447D01*
X-39985Y-36528D01*
X-39950Y-36611D01*
X-39924Y-36644D01*
X-39913Y-36664D01*
X-39890Y-36686D01*
X-39845Y-36742D01*
X-37828Y-38759D01*
X-37828Y-41689D01*
X-39900Y-43761D01*
X-42830Y-43761D01*
G37*
%LPD*%
%LPC*%
G36*
X-87544Y41655D02*
X-87544Y41655D01*
X-90905Y43047D01*
X-93478Y45620D01*
X-94870Y48981D01*
X-94870Y52619D01*
X-93478Y55980D01*
X-90905Y58553D01*
X-87544Y59945D01*
X-83906Y59945D01*
X-80545Y58553D01*
X-77972Y55980D01*
X-76580Y52619D01*
X-76580Y48981D01*
X-77972Y45620D01*
X-80545Y43047D01*
X-83906Y41655D01*
X-87544Y41655D01*
G37*
%LPD*%
%LPC*%
G36*
X-87544Y16255D02*
X-87544Y16255D01*
X-90905Y17647D01*
X-93478Y20220D01*
X-94870Y23581D01*
X-94870Y27219D01*
X-93478Y30580D01*
X-90905Y33153D01*
X-87544Y34545D01*
X-83906Y34545D01*
X-80545Y33153D01*
X-77972Y30580D01*
X-76580Y27219D01*
X-76580Y23581D01*
X-77972Y20220D01*
X-80545Y17647D01*
X-83906Y16255D01*
X-87544Y16255D01*
G37*
%LPD*%
%LPC*%
G36*
X-87544Y-9145D02*
X-87544Y-9145D01*
X-90905Y-7753D01*
X-93478Y-5180D01*
X-94870Y-1819D01*
X-94870Y1819D01*
X-93478Y5180D01*
X-90905Y7753D01*
X-87544Y9145D01*
X-83906Y9145D01*
X-80545Y7753D01*
X-77972Y5180D01*
X-76580Y1819D01*
X-76580Y-1819D01*
X-77972Y-5180D01*
X-80545Y-7753D01*
X-83906Y-9145D01*
X-87544Y-9145D01*
G37*
%LPD*%
%LPC*%
G36*
X-8069Y108563D02*
X-8069Y108563D01*
X-10500Y110994D01*
X-10500Y114431D01*
X-8069Y116862D01*
X-4631Y116862D01*
X-2200Y114431D01*
X-2200Y110994D01*
X-4631Y108563D01*
X-8069Y108563D01*
G37*
%LPD*%
%LPC*%
G36*
X6219Y106975D02*
X6219Y106975D01*
X3788Y109406D01*
X3788Y112844D01*
X6219Y115275D01*
X9656Y115275D01*
X12087Y112844D01*
X12087Y109406D01*
X9656Y106975D01*
X6219Y106975D01*
G37*
%LPD*%
%LPC*%
G36*
X109406Y35538D02*
X109406Y35538D01*
X106975Y37969D01*
X106975Y41406D01*
X109406Y43837D01*
X112844Y43837D01*
X115275Y41406D01*
X115275Y37969D01*
X112844Y35538D01*
X109406Y35538D01*
G37*
%LPD*%
%LPC*%
G36*
X-104906Y35538D02*
X-104906Y35538D01*
X-107337Y37969D01*
X-107337Y41406D01*
X-104906Y43837D01*
X-101469Y43837D01*
X-99038Y41406D01*
X-99038Y37969D01*
X-101469Y35538D01*
X-104906Y35538D01*
G37*
%LPD*%
%LPC*%
G36*
X45469Y27475D02*
X45469Y27475D01*
X43038Y29906D01*
X43038Y33344D01*
X45469Y35775D01*
X48906Y35775D01*
X51337Y33344D01*
X51337Y29906D01*
X48906Y27475D01*
X45469Y27475D01*
G37*
%LPD*%
%LPC*%
G36*
X-108081Y22838D02*
X-108081Y22838D01*
X-110512Y25269D01*
X-110512Y28706D01*
X-108081Y31137D01*
X-104644Y31137D01*
X-102213Y28706D01*
X-102213Y25269D01*
X-104644Y22838D01*
X-108081Y22838D01*
G37*
%LPD*%
%LPC*%
G36*
X107819Y14900D02*
X107819Y14900D01*
X105388Y17331D01*
X105388Y20769D01*
X107819Y23200D01*
X111256Y23200D01*
X113687Y20769D01*
X113687Y17331D01*
X111256Y14900D01*
X107819Y14900D01*
G37*
%LPD*%
%LPC*%
G36*
X-44581Y-12087D02*
X-44581Y-12087D01*
X-47012Y-9656D01*
X-47012Y-6219D01*
X-44581Y-3788D01*
X-41144Y-3788D01*
X-38713Y-6219D01*
X-38713Y-9656D01*
X-41144Y-12087D01*
X-44581Y-12087D01*
G37*
%LPD*%
%LPC*%
G36*
X23681Y-32725D02*
X23681Y-32725D01*
X21250Y-30294D01*
X21250Y-26856D01*
X23681Y-24425D01*
X27119Y-24425D01*
X29550Y-26856D01*
X29550Y-30294D01*
X27119Y-32725D01*
X23681Y-32725D01*
G37*
%LPD*%
%LPC*%
G36*
X-27119Y-32725D02*
X-27119Y-32725D01*
X-29550Y-30294D01*
X-29550Y-26856D01*
X-27119Y-24425D01*
X-23681Y-24425D01*
X-21250Y-26856D01*
X-21250Y-30294D01*
X-23681Y-32725D01*
X-27119Y-32725D01*
G37*
%LPD*%
%LPC*%
G36*
X68131Y-66062D02*
X68131Y-66062D01*
X65700Y-63631D01*
X65700Y-60194D01*
X68131Y-57763D01*
X71569Y-57763D01*
X74000Y-60194D01*
X74000Y-63631D01*
X71569Y-66062D01*
X68131Y-66062D01*
G37*
%LPD*%
%LPC*%
G36*
X12569Y-77175D02*
X12569Y-77175D01*
X10138Y-74744D01*
X10138Y-71306D01*
X12569Y-68875D01*
X16006Y-68875D01*
X18437Y-71306D01*
X18437Y-74744D01*
X16006Y-77175D01*
X12569Y-77175D01*
G37*
%LPD*%
%LPC*%
G36*
X-74744Y-86700D02*
X-74744Y-86700D01*
X-77175Y-84269D01*
X-77175Y-80831D01*
X-74744Y-78400D01*
X-71306Y-78400D01*
X-68875Y-80831D01*
X-68875Y-84269D01*
X-71306Y-86700D01*
X-74744Y-86700D01*
G37*
%LPD*%
%LPC*%
G36*
X-62044Y-96225D02*
X-62044Y-96225D01*
X-64475Y-93794D01*
X-64475Y-90356D01*
X-62044Y-87925D01*
X-58606Y-87925D01*
X-56175Y-90356D01*
X-56175Y-93794D01*
X-58606Y-96225D01*
X-62044Y-96225D01*
G37*
%LPD*%
%LPC*%
G36*
X71306Y-99400D02*
X71306Y-99400D01*
X68875Y-96969D01*
X68875Y-93531D01*
X71306Y-91100D01*
X74744Y-91100D01*
X77175Y-93531D01*
X77175Y-96969D01*
X74744Y-99400D01*
X71306Y-99400D01*
G37*
%LPD*%
%LPC*%
G36*
X61781Y-105750D02*
X61781Y-105750D01*
X59350Y-103319D01*
X59350Y-99881D01*
X61781Y-97450D01*
X65219Y-97450D01*
X67650Y-99881D01*
X67650Y-103319D01*
X65219Y-105750D01*
X61781Y-105750D01*
G37*
%LPD*%
%LPC*%
G36*
X3194Y70826D02*
X3194Y70826D01*
X976Y73044D01*
X976Y76181D01*
X3194Y78399D01*
X6331Y78399D01*
X8549Y76181D01*
X8549Y73044D01*
X6331Y70826D01*
X3194Y70826D01*
G37*
%LPD*%
%LPC*%
G36*
X-39251Y28088D02*
X-39251Y28088D01*
X-41323Y30160D01*
X-41323Y33090D01*
X-39251Y35162D01*
X-36322Y35162D01*
X-34250Y33090D01*
X-34250Y30160D01*
X-36322Y28088D01*
X-39251Y28088D01*
G37*
%LPD*%
%LPC*%
G36*
X-84602Y-53947D02*
X-84602Y-53947D01*
X-86674Y-51875D01*
X-86674Y-48945D01*
X-84602Y-46873D01*
X-81672Y-46873D01*
X-79600Y-48945D01*
X-79600Y-51875D01*
X-81672Y-53947D01*
X-84602Y-53947D01*
G37*
%LPD*%
%LPC*%
G36*
X86121Y-62274D02*
X86121Y-62274D01*
X84049Y-60202D01*
X84049Y-57273D01*
X86121Y-55201D01*
X89051Y-55201D01*
X91123Y-57273D01*
X91123Y-60202D01*
X89051Y-62274D01*
X86121Y-62274D01*
G37*
%LPD*%
%LPC*%
G36*
X38223Y-73387D02*
X38223Y-73387D01*
X36151Y-71315D01*
X36151Y-68385D01*
X38223Y-66313D01*
X41152Y-66313D01*
X43224Y-68385D01*
X43224Y-71315D01*
X41152Y-73387D01*
X38223Y-73387D01*
G37*
%LPD*%
%LPC*%
G36*
X-47502Y-77999D02*
X-47502Y-77999D01*
X-49574Y-75927D01*
X-49574Y-72998D01*
X-47502Y-70926D01*
X-44573Y-70926D01*
X-42501Y-72998D01*
X-42501Y-75927D01*
X-44573Y-77999D01*
X-47502Y-77999D01*
G37*
%LPD*%
%LPC*%
G36*
X-18927Y-95612D02*
X-18927Y-95612D01*
X-20999Y-93540D01*
X-20999Y-90610D01*
X-18927Y-88538D01*
X-15998Y-88538D01*
X-13926Y-90610D01*
X-13926Y-93540D01*
X-15998Y-95612D01*
X-18927Y-95612D01*
G37*
%LPD*%
D10*
X87313Y26988D03*
X-85725Y50800D03*
X-85725Y25400D03*
X-85725Y0D03*
D11*
X-88900Y-92075D03*
X-57150Y-111125D03*
X-125413Y23813D03*
X-112713Y57150D03*
X-19050Y125413D03*
X17463Y125413D03*
X112713Y55563D03*
X122238Y15875D03*
X88900Y-87313D03*
X53975Y-112713D03*
X58240Y-839D03*
X49213Y14288D03*
X-10864Y66525D03*
X16158Y60807D03*
D12*
X-3175Y7938D03*
X3175Y7938D03*
X3175Y0D03*
X3175Y-7938D03*
X-3175Y-7938D03*
X-3175Y0D03*
D11*
X-103188Y39688D03*
X-106363Y26988D03*
X14288Y-73025D03*
X-60325Y-92075D03*
X-73025Y-82550D03*
X63500Y-101600D03*
X73025Y-95250D03*
X69850Y-61913D03*
X111125Y39688D03*
X109538Y19050D03*
X7938Y111125D03*
X-6350Y112713D03*
X-20638Y30163D03*
X-25400Y-28575D03*
X-42863Y-7938D03*
X47188Y31625D03*
X25400Y-28575D03*
D12*
X73025Y14288D03*
X34925Y-6096D03*
X-61764Y65742D03*
X-17463Y-92075D03*
X-83137Y-50410D03*
X87586Y-58738D03*
X79102Y65961D03*
X-46038Y-74463D03*
X-44575Y58649D03*
X-60325Y52388D03*
X-52114Y40601D03*
X32543Y-12954D03*
D13*
X-28036Y47625D01*
X-50800Y47625D01*
D12*
X-50800Y47625D03*
X57275Y58649D03*
X65863Y-48344D03*
D13*
X65863Y40499D01*
X63500Y42863D01*
D12*
X63500Y42863D03*
X-14247Y7206D03*
X69260Y47035D03*
X-14149Y182D03*
X65677Y53385D03*
D14*
X-9624Y84138D02*
X-30243Y63519D01*
D11*
X-42266Y-55441D03*
D14*
X-39073Y63519D02*
X-40641Y65088D01*
X-34925Y63519D02*
X-30243Y63519D01*
X-34925Y63519D02*
X-39073Y63519D01*
X-59458Y60174D02*
X-62063Y60174D01*
X-71438Y50800D01*
X-59458Y60174D02*
X-54544Y65088D01*
X-71438Y50800D02*
X-71438Y14288D01*
X-71438Y-26269D01*
X-42266Y-55441D01*
X-40641Y65088D02*
X-54544Y65088D01*
D11*
X-49462Y12550D03*
D14*
X-51199Y14288D01*
X-71438Y14288D01*
D11*
X-36513Y69700D03*
D12*
X47544Y64856D03*
D14*
X-36513Y65107D02*
X-36513Y69700D01*
X-36513Y65107D02*
X-34925Y63519D01*
X28263Y84138D02*
X47544Y64856D01*
X28263Y84138D02*
X-9624Y84138D01*
D12*
X73025Y25250D03*
D15*
X76200Y28425D01*
X76200Y58738D01*
X70081Y64856D01*
X47544Y64856D01*
D12*
X-41365Y-40224D03*
X37289Y-18396D03*
D15*
X-32683Y-18396D01*
X-42863Y-28575D01*
X-42863Y-38726D01*
X-41365Y-40224D01*
D16*
X4763Y74613D03*
D12*
X-65474Y-19436D03*
X-36171Y22204D03*
D13*
X-44415Y7973D02*
X-65474Y-13086D01*
X-65474Y-19436D01*
X-44415Y7973D02*
X-44415Y13960D01*
X-36171Y22204D01*
D12*
X-30184Y-2339D03*
D13*
X-21271Y6574D01*
X-21271Y7304D01*
D12*
X-21271Y7304D03*
X-37787Y31625D03*
X39688Y-69850D03*
X-35150Y2628D03*
D13*
X-35150Y3358D02*
X-26238Y12271D01*
X-35150Y3358D02*
X-35150Y2628D01*
D12*
X-26238Y12271D03*
X-40117Y7595D03*
D13*
X-31205Y16507D01*
X-31205Y17237D01*
D12*
X-31205Y17237D03*
M02*
