G04 EAGLE Gerber RS-274X export*
G75*
%MOMM*%
%FSLAX34Y34*%
%LPD*%
%INCopper Layer 15*%
%IPPOS*%
%AMOC8*
5,1,8,0,0,1.08239X$1,22.5*%
G01*
%ADD10C,1.524000*%
%ADD11C,0.525000*%
%ADD12C,0.402400*%
%ADD13C,0.152400*%
%ADD14C,0.452400*%

G36*
X50826Y-117188D02*
X50826Y-117188D01*
X50898Y-117186D01*
X50947Y-117168D01*
X50998Y-117160D01*
X51061Y-117126D01*
X51129Y-117101D01*
X51169Y-117069D01*
X51215Y-117044D01*
X51265Y-116992D01*
X51321Y-116948D01*
X51349Y-116904D01*
X51385Y-116866D01*
X51415Y-116801D01*
X51454Y-116741D01*
X51467Y-116690D01*
X51488Y-116643D01*
X51496Y-116572D01*
X51514Y-116502D01*
X51510Y-116450D01*
X51516Y-116399D01*
X51500Y-116328D01*
X51495Y-116257D01*
X51474Y-116209D01*
X51463Y-116158D01*
X51427Y-116097D01*
X51398Y-116031D01*
X51354Y-115975D01*
X51337Y-115947D01*
X51319Y-115932D01*
X51294Y-115900D01*
X49825Y-114431D01*
X49825Y-110994D01*
X52256Y-108563D01*
X55694Y-108563D01*
X58125Y-110994D01*
X58125Y-114431D01*
X56656Y-115900D01*
X56615Y-115958D01*
X56565Y-116010D01*
X56543Y-116057D01*
X56513Y-116099D01*
X56492Y-116168D01*
X56462Y-116233D01*
X56456Y-116285D01*
X56440Y-116335D01*
X56442Y-116406D01*
X56434Y-116477D01*
X56445Y-116528D01*
X56447Y-116580D01*
X56471Y-116648D01*
X56487Y-116718D01*
X56513Y-116763D01*
X56531Y-116811D01*
X56576Y-116867D01*
X56613Y-116929D01*
X56652Y-116963D01*
X56685Y-117003D01*
X56745Y-117042D01*
X56800Y-117089D01*
X56848Y-117108D01*
X56892Y-117136D01*
X56961Y-117154D01*
X57028Y-117181D01*
X57099Y-117189D01*
X57130Y-117197D01*
X57154Y-117195D01*
X57195Y-117199D01*
X84593Y-117199D01*
X84617Y-117195D01*
X84641Y-117198D01*
X84738Y-117176D01*
X84836Y-117160D01*
X84857Y-117148D01*
X84880Y-117143D01*
X84965Y-117091D01*
X85053Y-117044D01*
X85070Y-117027D01*
X85090Y-117015D01*
X85154Y-116938D01*
X85223Y-116866D01*
X85233Y-116844D01*
X85248Y-116826D01*
X85317Y-116673D01*
X93916Y-90201D01*
X93927Y-90134D01*
X93947Y-90069D01*
X93945Y-90013D01*
X93954Y-89957D01*
X93942Y-89891D01*
X93940Y-89823D01*
X93921Y-89770D01*
X93911Y-89715D01*
X93879Y-89656D01*
X93856Y-89592D01*
X93821Y-89548D01*
X93794Y-89499D01*
X93744Y-89453D01*
X93702Y-89400D01*
X93655Y-89370D01*
X93614Y-89331D01*
X93552Y-89304D01*
X93495Y-89267D01*
X93441Y-89253D01*
X93390Y-89230D01*
X93322Y-89223D01*
X93257Y-89207D01*
X93201Y-89211D01*
X93145Y-89206D01*
X93079Y-89221D01*
X93011Y-89226D01*
X92960Y-89248D01*
X92905Y-89260D01*
X92847Y-89296D01*
X92785Y-89322D01*
X92723Y-89372D01*
X92695Y-89389D01*
X92682Y-89405D01*
X92654Y-89427D01*
X90619Y-91462D01*
X87181Y-91462D01*
X84750Y-89031D01*
X84750Y-85594D01*
X87181Y-83163D01*
X90619Y-83163D01*
X93050Y-85594D01*
X93050Y-88061D01*
X93050Y-88065D01*
X93050Y-88069D01*
X93070Y-88187D01*
X93089Y-88304D01*
X93091Y-88307D01*
X93092Y-88311D01*
X93149Y-88416D01*
X93205Y-88521D01*
X93207Y-88524D01*
X93209Y-88527D01*
X93297Y-88608D01*
X93383Y-88690D01*
X93387Y-88692D01*
X93390Y-88695D01*
X93498Y-88744D01*
X93606Y-88794D01*
X93610Y-88794D01*
X93614Y-88796D01*
X93733Y-88808D01*
X93850Y-88821D01*
X93854Y-88820D01*
X93858Y-88821D01*
X93975Y-88794D01*
X94091Y-88769D01*
X94094Y-88767D01*
X94098Y-88766D01*
X94200Y-88704D01*
X94302Y-88643D01*
X94305Y-88640D01*
X94308Y-88637D01*
X94384Y-88546D01*
X94462Y-88456D01*
X94463Y-88452D01*
X94466Y-88449D01*
X94535Y-88296D01*
X127522Y13255D01*
X127533Y13322D01*
X127552Y13387D01*
X127551Y13443D01*
X127559Y13499D01*
X127548Y13565D01*
X127546Y13633D01*
X127527Y13686D01*
X127517Y13741D01*
X127485Y13800D01*
X127462Y13864D01*
X127453Y13875D01*
X127537Y13926D01*
X127639Y13987D01*
X127642Y13990D01*
X127645Y13992D01*
X127722Y14083D01*
X127799Y14174D01*
X127801Y14178D01*
X127803Y14181D01*
X127872Y14334D01*
X137577Y44210D01*
X137581Y44233D01*
X137590Y44255D01*
X137599Y44355D01*
X137614Y44453D01*
X137610Y44476D01*
X137613Y44500D01*
X137589Y44597D01*
X137572Y44695D01*
X137561Y44716D01*
X137555Y44739D01*
X137502Y44824D01*
X137455Y44911D01*
X137437Y44928D01*
X137425Y44948D01*
X137301Y45061D01*
X22155Y128729D01*
X22098Y128757D01*
X22046Y128795D01*
X21989Y128812D01*
X21935Y128839D01*
X21872Y128848D01*
X21811Y128867D01*
X21751Y128865D01*
X21692Y128874D01*
X21629Y128862D01*
X21565Y128861D01*
X21509Y128840D01*
X21450Y128829D01*
X21394Y128798D01*
X21334Y128776D01*
X21287Y128739D01*
X21235Y128710D01*
X21192Y128662D01*
X21142Y128622D01*
X21110Y128572D01*
X21069Y128528D01*
X21043Y128469D01*
X21009Y128415D01*
X20994Y128357D01*
X20970Y128302D01*
X20965Y128239D01*
X20949Y128177D01*
X20954Y128117D01*
X20948Y128058D01*
X20963Y127995D01*
X20968Y127932D01*
X20991Y127877D01*
X21005Y127818D01*
X21039Y127764D01*
X21064Y127705D01*
X21118Y127638D01*
X21136Y127610D01*
X21154Y127594D01*
X21169Y127574D01*
X21612Y127131D01*
X21612Y123694D01*
X19181Y121263D01*
X15744Y121263D01*
X13313Y123694D01*
X13313Y127131D01*
X15744Y129562D01*
X18665Y129562D01*
X18673Y129564D01*
X18681Y129562D01*
X18795Y129583D01*
X18908Y129602D01*
X18915Y129606D01*
X18923Y129607D01*
X19024Y129664D01*
X19125Y129717D01*
X19130Y129723D01*
X19138Y129727D01*
X19216Y129813D01*
X19294Y129895D01*
X19298Y129903D01*
X19303Y129909D01*
X19350Y130014D01*
X19398Y130118D01*
X19399Y130126D01*
X19402Y130134D01*
X19413Y130249D01*
X19425Y130363D01*
X19423Y130371D01*
X19424Y130379D01*
X19397Y130491D01*
X19373Y130603D01*
X19369Y130610D01*
X19367Y130618D01*
X19306Y130716D01*
X19247Y130814D01*
X19241Y130820D01*
X19236Y130826D01*
X19112Y130939D01*
X448Y144502D01*
X426Y144512D01*
X408Y144528D01*
X317Y144568D01*
X228Y144612D01*
X204Y144616D01*
X182Y144625D01*
X83Y144633D01*
X-16Y144647D01*
X-39Y144643D01*
X-63Y144644D01*
X-160Y144620D01*
X-258Y144602D01*
X-279Y144591D01*
X-302Y144585D01*
X-448Y144502D01*
X-19112Y130939D01*
X-19118Y130934D01*
X-19125Y130930D01*
X-19204Y130847D01*
X-19285Y130764D01*
X-19289Y130757D01*
X-19294Y130752D01*
X-19343Y130647D01*
X-19394Y130544D01*
X-19395Y130536D01*
X-19398Y130528D01*
X-19411Y130414D01*
X-19426Y130300D01*
X-19424Y130292D01*
X-19425Y130284D01*
X-19401Y130171D01*
X-19379Y130058D01*
X-19375Y130052D01*
X-19373Y130044D01*
X-19314Y129945D01*
X-19257Y129845D01*
X-19251Y129839D01*
X-19247Y129833D01*
X-19159Y129758D01*
X-19073Y129681D01*
X-19066Y129678D01*
X-19060Y129673D01*
X-18953Y129629D01*
X-18847Y129584D01*
X-18839Y129584D01*
X-18832Y129581D01*
X-18665Y129562D01*
X-17331Y129562D01*
X-14900Y127131D01*
X-14900Y123694D01*
X-17331Y121263D01*
X-20769Y121263D01*
X-23200Y123694D01*
X-23200Y126475D01*
X-23202Y126487D01*
X-23200Y126499D01*
X-23221Y126608D01*
X-23239Y126718D01*
X-23245Y126729D01*
X-23247Y126740D01*
X-23303Y126837D01*
X-23355Y126935D01*
X-23363Y126944D01*
X-23369Y126954D01*
X-23452Y127028D01*
X-23533Y127105D01*
X-23544Y127110D01*
X-23553Y127118D01*
X-23655Y127162D01*
X-23756Y127208D01*
X-23768Y127210D01*
X-23779Y127214D01*
X-23890Y127223D01*
X-24000Y127235D01*
X-24012Y127233D01*
X-24024Y127234D01*
X-24132Y127207D01*
X-24241Y127183D01*
X-24251Y127177D01*
X-24263Y127174D01*
X-24408Y127091D01*
X-113057Y62677D01*
X-113063Y62671D01*
X-113070Y62667D01*
X-113149Y62584D01*
X-113230Y62502D01*
X-113234Y62495D01*
X-113239Y62489D01*
X-113288Y62384D01*
X-113338Y62281D01*
X-113339Y62273D01*
X-113343Y62266D01*
X-113356Y62151D01*
X-113371Y62037D01*
X-113369Y62029D01*
X-113370Y62022D01*
X-113345Y61909D01*
X-113323Y61796D01*
X-113319Y61789D01*
X-113318Y61781D01*
X-113258Y61682D01*
X-113202Y61582D01*
X-113196Y61577D01*
X-113191Y61570D01*
X-113104Y61495D01*
X-113018Y61418D01*
X-113011Y61415D01*
X-113005Y61410D01*
X-112897Y61367D01*
X-112792Y61322D01*
X-112784Y61321D01*
X-112776Y61318D01*
X-112610Y61300D01*
X-110994Y61300D01*
X-108563Y58869D01*
X-108563Y55431D01*
X-110994Y53000D01*
X-114431Y53000D01*
X-116862Y55431D01*
X-116862Y58418D01*
X-116864Y58430D01*
X-116863Y58442D01*
X-116884Y58551D01*
X-116902Y58661D01*
X-116908Y58671D01*
X-116910Y58683D01*
X-116965Y58780D01*
X-117017Y58878D01*
X-117026Y58886D01*
X-117032Y58897D01*
X-117115Y58971D01*
X-117195Y59047D01*
X-117206Y59052D01*
X-117215Y59060D01*
X-117318Y59104D01*
X-117418Y59151D01*
X-117430Y59152D01*
X-117441Y59157D01*
X-117552Y59166D01*
X-117663Y59178D01*
X-117675Y59176D01*
X-117687Y59176D01*
X-117795Y59149D01*
X-117903Y59126D01*
X-117914Y59120D01*
X-117925Y59117D01*
X-118071Y59034D01*
X-137301Y45061D01*
X-137318Y45044D01*
X-137338Y45032D01*
X-137404Y44957D01*
X-137474Y44886D01*
X-137484Y44865D01*
X-137500Y44847D01*
X-137538Y44755D01*
X-137582Y44665D01*
X-137585Y44642D01*
X-137594Y44619D01*
X-137601Y44520D01*
X-137614Y44421D01*
X-137610Y44398D01*
X-137611Y44374D01*
X-137577Y44210D01*
X-131047Y24108D01*
X-131046Y24104D01*
X-131045Y24100D01*
X-130990Y23996D01*
X-130935Y23889D01*
X-130932Y23886D01*
X-130930Y23883D01*
X-130844Y23801D01*
X-130758Y23718D01*
X-130755Y23716D01*
X-130752Y23713D01*
X-130643Y23663D01*
X-130536Y23612D01*
X-130532Y23612D01*
X-130528Y23610D01*
X-130410Y23597D01*
X-130292Y23582D01*
X-130288Y23583D01*
X-130284Y23583D01*
X-130168Y23608D01*
X-130051Y23632D01*
X-130048Y23634D01*
X-130044Y23635D01*
X-129941Y23696D01*
X-129839Y23756D01*
X-129836Y23759D01*
X-129833Y23761D01*
X-129755Y23852D01*
X-129677Y23941D01*
X-129675Y23945D01*
X-129673Y23948D01*
X-129628Y24060D01*
X-129582Y24169D01*
X-129582Y24173D01*
X-129581Y24176D01*
X-129562Y24343D01*
X-129562Y25531D01*
X-127131Y27962D01*
X-123694Y27962D01*
X-121263Y25531D01*
X-121263Y22094D01*
X-123694Y19663D01*
X-127131Y19663D01*
X-128551Y21083D01*
X-128606Y21122D01*
X-128655Y21169D01*
X-128706Y21194D01*
X-128751Y21226D01*
X-128816Y21246D01*
X-128877Y21275D01*
X-128933Y21282D01*
X-128986Y21299D01*
X-129054Y21297D01*
X-129121Y21305D01*
X-129176Y21294D01*
X-129232Y21292D01*
X-129296Y21269D01*
X-129362Y21255D01*
X-129410Y21227D01*
X-129463Y21208D01*
X-129516Y21165D01*
X-129574Y21131D01*
X-129611Y21089D01*
X-129655Y21054D01*
X-129692Y20997D01*
X-129736Y20946D01*
X-129758Y20894D01*
X-129788Y20847D01*
X-129805Y20781D01*
X-129831Y20719D01*
X-129834Y20663D01*
X-129848Y20609D01*
X-129843Y20541D01*
X-129848Y20473D01*
X-129832Y20396D01*
X-129829Y20363D01*
X-129821Y20344D01*
X-129814Y20309D01*
X-94050Y-89791D01*
X-94015Y-89858D01*
X-93989Y-89929D01*
X-93959Y-89966D01*
X-93937Y-90009D01*
X-93882Y-90062D01*
X-93835Y-90121D01*
X-93795Y-90147D01*
X-93760Y-90180D01*
X-93692Y-90213D01*
X-93628Y-90254D01*
X-93582Y-90266D01*
X-93538Y-90286D01*
X-93463Y-90295D01*
X-93390Y-90314D01*
X-93342Y-90310D01*
X-93294Y-90316D01*
X-93220Y-90301D01*
X-93145Y-90295D01*
X-93100Y-90276D01*
X-93053Y-90266D01*
X-92988Y-90228D01*
X-92918Y-90198D01*
X-92867Y-90158D01*
X-92841Y-90142D01*
X-92824Y-90123D01*
X-92787Y-90094D01*
X-90619Y-87925D01*
X-87181Y-87925D01*
X-84750Y-90356D01*
X-84750Y-93794D01*
X-87181Y-96225D01*
X-90912Y-96225D01*
X-90928Y-96227D01*
X-90943Y-96225D01*
X-91049Y-96247D01*
X-91155Y-96264D01*
X-91169Y-96272D01*
X-91184Y-96275D01*
X-91277Y-96329D01*
X-91372Y-96380D01*
X-91383Y-96391D01*
X-91397Y-96399D01*
X-91467Y-96480D01*
X-91541Y-96558D01*
X-91548Y-96572D01*
X-91558Y-96584D01*
X-91600Y-96684D01*
X-91645Y-96781D01*
X-91647Y-96797D01*
X-91653Y-96812D01*
X-91660Y-96919D01*
X-91672Y-97025D01*
X-91669Y-97041D01*
X-91670Y-97057D01*
X-91636Y-97221D01*
X-85317Y-116673D01*
X-85306Y-116694D01*
X-85301Y-116718D01*
X-85250Y-116803D01*
X-85204Y-116892D01*
X-85187Y-116908D01*
X-85175Y-116929D01*
X-85099Y-116994D01*
X-85028Y-117063D01*
X-85006Y-117073D01*
X-84988Y-117089D01*
X-84895Y-117126D01*
X-84806Y-117169D01*
X-84782Y-117172D01*
X-84760Y-117181D01*
X-84593Y-117199D01*
X50755Y-117199D01*
X50826Y-117188D01*
G37*
%LPC*%
G36*
X-15614Y-3355D02*
X-15614Y-3355D01*
X-17686Y-1283D01*
X-17686Y1647D01*
X-16226Y3107D01*
X-16215Y3123D01*
X-16199Y3135D01*
X-16143Y3223D01*
X-16083Y3306D01*
X-16077Y3325D01*
X-16066Y3342D01*
X-16041Y3443D01*
X-16010Y3541D01*
X-16011Y3561D01*
X-16006Y3581D01*
X-16014Y3684D01*
X-16017Y3787D01*
X-16024Y3806D01*
X-16025Y3826D01*
X-16065Y3921D01*
X-16101Y4018D01*
X-16114Y4034D01*
X-16121Y4052D01*
X-16226Y4183D01*
X-17270Y5227D01*
X-17286Y5238D01*
X-17299Y5254D01*
X-17386Y5310D01*
X-17470Y5370D01*
X-17489Y5376D01*
X-17505Y5387D01*
X-17606Y5412D01*
X-17705Y5443D01*
X-17725Y5442D01*
X-17744Y5447D01*
X-17847Y5439D01*
X-17951Y5436D01*
X-17969Y5429D01*
X-17989Y5428D01*
X-18084Y5388D01*
X-18182Y5352D01*
X-18197Y5339D01*
X-18215Y5332D01*
X-18346Y5227D01*
X-19806Y3767D01*
X-22736Y3767D01*
X-24808Y5839D01*
X-24808Y7973D01*
X-24811Y7992D01*
X-24809Y8012D01*
X-24831Y8113D01*
X-24848Y8215D01*
X-24857Y8233D01*
X-24861Y8252D01*
X-24914Y8341D01*
X-24963Y8433D01*
X-24977Y8446D01*
X-24987Y8463D01*
X-25066Y8531D01*
X-25141Y8602D01*
X-25159Y8610D01*
X-25174Y8623D01*
X-25271Y8662D01*
X-25364Y8706D01*
X-25384Y8708D01*
X-25402Y8715D01*
X-25569Y8734D01*
X-27703Y8734D01*
X-29775Y10806D01*
X-29775Y12939D01*
X-29778Y12959D01*
X-29776Y12979D01*
X-29798Y13080D01*
X-29814Y13182D01*
X-29824Y13200D01*
X-29828Y13219D01*
X-29881Y13308D01*
X-29929Y13399D01*
X-29944Y13413D01*
X-29954Y13430D01*
X-30033Y13498D01*
X-30108Y13569D01*
X-30126Y13577D01*
X-30141Y13590D01*
X-30237Y13629D01*
X-30331Y13672D01*
X-30351Y13675D01*
X-30369Y13682D01*
X-30536Y13700D01*
X-32670Y13700D01*
X-34741Y15772D01*
X-34741Y17906D01*
X-34745Y17926D01*
X-34742Y17945D01*
X-34764Y18047D01*
X-34781Y18149D01*
X-34790Y18166D01*
X-34795Y18186D01*
X-34848Y18275D01*
X-34896Y18366D01*
X-34911Y18380D01*
X-34921Y18397D01*
X-35000Y18464D01*
X-35075Y18535D01*
X-35093Y18544D01*
X-35108Y18557D01*
X-35204Y18596D01*
X-35298Y18639D01*
X-35317Y18641D01*
X-35336Y18649D01*
X-35503Y18667D01*
X-37636Y18667D01*
X-39708Y20739D01*
X-39708Y23669D01*
X-37636Y25741D01*
X-34706Y25741D01*
X-32635Y23669D01*
X-32635Y21535D01*
X-32631Y21516D01*
X-32634Y21496D01*
X-32612Y21394D01*
X-32595Y21292D01*
X-32586Y21275D01*
X-32581Y21255D01*
X-32528Y21166D01*
X-32480Y21075D01*
X-32465Y21061D01*
X-32455Y21044D01*
X-32376Y20977D01*
X-32301Y20906D01*
X-32283Y20897D01*
X-32268Y20884D01*
X-32172Y20846D01*
X-32078Y20802D01*
X-32059Y20800D01*
X-32040Y20792D01*
X-31873Y20774D01*
X-29740Y20774D01*
X-27668Y18702D01*
X-27668Y16568D01*
X-27665Y16549D01*
X-27667Y16529D01*
X-27645Y16428D01*
X-27628Y16326D01*
X-27619Y16308D01*
X-27615Y16289D01*
X-27561Y16200D01*
X-27513Y16108D01*
X-27499Y16095D01*
X-27488Y16078D01*
X-27410Y16010D01*
X-27335Y15939D01*
X-27317Y15931D01*
X-27302Y15918D01*
X-27205Y15879D01*
X-27112Y15835D01*
X-27092Y15833D01*
X-27073Y15826D01*
X-26907Y15807D01*
X-24773Y15807D01*
X-22701Y13735D01*
X-22701Y11602D01*
X-22698Y11582D01*
X-22700Y11562D01*
X-22678Y11461D01*
X-22661Y11359D01*
X-22652Y11341D01*
X-22648Y11322D01*
X-22595Y11233D01*
X-22546Y11142D01*
X-22532Y11128D01*
X-22522Y11111D01*
X-22443Y11043D01*
X-22368Y10972D01*
X-22350Y10964D01*
X-22335Y10951D01*
X-22239Y10912D01*
X-22145Y10869D01*
X-22125Y10866D01*
X-22107Y10859D01*
X-21940Y10841D01*
X-19806Y10841D01*
X-18248Y9283D01*
X-18232Y9271D01*
X-18220Y9256D01*
X-18132Y9199D01*
X-18049Y9139D01*
X-18030Y9133D01*
X-18013Y9123D01*
X-17912Y9097D01*
X-17814Y9067D01*
X-17794Y9067D01*
X-17774Y9063D01*
X-17671Y9071D01*
X-17568Y9073D01*
X-17549Y9080D01*
X-17529Y9082D01*
X-17434Y9122D01*
X-17337Y9158D01*
X-17321Y9170D01*
X-17303Y9178D01*
X-17172Y9283D01*
X-16757Y9698D01*
X-16704Y9772D01*
X-16644Y9841D01*
X-16632Y9871D01*
X-16613Y9898D01*
X-16587Y9984D01*
X-16552Y10069D01*
X-16548Y10110D01*
X-16541Y10133D01*
X-16542Y10165D01*
X-16534Y10236D01*
X-16534Y14503D01*
X-14971Y16066D01*
X16848Y47885D01*
X18410Y49447D01*
X62776Y49447D01*
X62846Y49459D01*
X62918Y49461D01*
X62967Y49479D01*
X63019Y49487D01*
X63082Y49521D01*
X63149Y49545D01*
X63190Y49578D01*
X63236Y49602D01*
X63285Y49654D01*
X63341Y49699D01*
X63369Y49743D01*
X63405Y49780D01*
X63435Y49845D01*
X63474Y49906D01*
X63487Y49956D01*
X63509Y50003D01*
X63517Y50075D01*
X63534Y50144D01*
X63530Y50196D01*
X63536Y50248D01*
X63521Y50318D01*
X63515Y50389D01*
X63495Y50437D01*
X63484Y50488D01*
X63447Y50550D01*
X63419Y50616D01*
X63374Y50672D01*
X63358Y50699D01*
X63340Y50715D01*
X63314Y50747D01*
X62140Y51920D01*
X62140Y54850D01*
X64212Y56922D01*
X67142Y56922D01*
X68169Y55895D01*
X68243Y55842D01*
X68312Y55783D01*
X68343Y55770D01*
X68369Y55752D01*
X68456Y55725D01*
X68541Y55691D01*
X68582Y55686D01*
X68604Y55679D01*
X68636Y55680D01*
X68707Y55672D01*
X71387Y55672D01*
X76899Y50160D01*
X76899Y41915D01*
X70797Y35813D01*
X17138Y35813D01*
X17047Y35799D01*
X16957Y35791D01*
X16927Y35779D01*
X16895Y35774D01*
X16814Y35731D01*
X16730Y35695D01*
X16698Y35669D01*
X16677Y35658D01*
X16676Y35657D01*
X16655Y35635D01*
X16599Y35590D01*
X-7015Y11976D01*
X-7059Y11915D01*
X-7092Y11880D01*
X-7098Y11867D01*
X-7128Y11832D01*
X-7140Y11802D01*
X-7159Y11776D01*
X-7186Y11689D01*
X-7220Y11604D01*
X-7224Y11563D01*
X-7231Y11541D01*
X-7230Y11509D01*
X-7238Y11437D01*
X-7238Y3859D01*
X-10390Y708D01*
X-10443Y634D01*
X-10502Y564D01*
X-10514Y534D01*
X-10533Y508D01*
X-10560Y421D01*
X-10594Y336D01*
X-10599Y295D01*
X-10605Y273D01*
X-10605Y241D01*
X-10613Y169D01*
X-10613Y-1283D01*
X-12684Y-3355D01*
X-15614Y-3355D01*
G37*
%LPD*%
%LPC*%
G36*
X-87544Y41655D02*
X-87544Y41655D01*
X-90905Y43047D01*
X-93478Y45620D01*
X-94870Y48981D01*
X-94870Y52619D01*
X-93478Y55980D01*
X-90905Y58553D01*
X-87544Y59945D01*
X-83906Y59945D01*
X-80545Y58553D01*
X-77972Y55980D01*
X-76580Y52619D01*
X-76580Y48981D01*
X-77972Y45620D01*
X-80545Y43047D01*
X-83906Y41655D01*
X-87544Y41655D01*
G37*
%LPD*%
%LPC*%
G36*
X-87544Y16255D02*
X-87544Y16255D01*
X-90905Y17647D01*
X-93478Y20220D01*
X-94870Y23581D01*
X-94870Y27219D01*
X-93478Y30580D01*
X-90905Y33153D01*
X-87544Y34545D01*
X-83906Y34545D01*
X-80545Y33153D01*
X-77972Y30580D01*
X-76580Y27219D01*
X-76580Y23581D01*
X-77972Y20220D01*
X-80545Y17647D01*
X-83906Y16255D01*
X-87544Y16255D01*
G37*
%LPD*%
%LPC*%
G36*
X85494Y17843D02*
X85494Y17843D01*
X82132Y19235D01*
X79560Y21807D01*
X78168Y25169D01*
X78168Y28806D01*
X79560Y32168D01*
X82132Y34740D01*
X85494Y36132D01*
X89131Y36132D01*
X92493Y34740D01*
X95065Y32168D01*
X96457Y28806D01*
X96457Y25169D01*
X95065Y21807D01*
X92493Y19235D01*
X89131Y17843D01*
X85494Y17843D01*
G37*
%LPD*%
%LPC*%
G36*
X-87544Y-9145D02*
X-87544Y-9145D01*
X-90905Y-7753D01*
X-93478Y-5180D01*
X-94870Y-1819D01*
X-94870Y1819D01*
X-93478Y5180D01*
X-90905Y7753D01*
X-87544Y9145D01*
X-83906Y9145D01*
X-80545Y7753D01*
X-77972Y5180D01*
X-76580Y1819D01*
X-76580Y-1819D01*
X-77972Y-5180D01*
X-80545Y-7753D01*
X-83906Y-9145D01*
X-87544Y-9145D01*
G37*
%LPD*%
%LPC*%
G36*
X-31648Y-5875D02*
X-31648Y-5875D01*
X-33720Y-3803D01*
X-33720Y-1670D01*
X-33723Y-1650D01*
X-33721Y-1630D01*
X-33743Y-1529D01*
X-33760Y-1427D01*
X-33769Y-1409D01*
X-33774Y-1390D01*
X-33827Y-1301D01*
X-33875Y-1210D01*
X-33889Y-1196D01*
X-33900Y-1179D01*
X-33978Y-1111D01*
X-34053Y-1040D01*
X-34071Y-1032D01*
X-34087Y-1019D01*
X-34183Y-980D01*
X-34276Y-937D01*
X-34296Y-934D01*
X-34315Y-927D01*
X-34481Y-909D01*
X-36615Y-909D01*
X-38687Y1163D01*
X-38687Y3297D01*
X-38690Y3317D01*
X-38688Y3336D01*
X-38710Y3438D01*
X-38727Y3540D01*
X-38736Y3557D01*
X-38740Y3577D01*
X-38793Y3666D01*
X-38842Y3757D01*
X-38856Y3771D01*
X-38866Y3788D01*
X-38945Y3855D01*
X-39020Y3926D01*
X-39038Y3935D01*
X-39053Y3948D01*
X-39150Y3987D01*
X-39243Y4030D01*
X-39263Y4032D01*
X-39281Y4040D01*
X-39448Y4058D01*
X-41582Y4058D01*
X-43654Y6130D01*
X-43654Y9060D01*
X-41582Y11132D01*
X-38652Y11132D01*
X-36580Y9060D01*
X-36580Y6926D01*
X-36577Y6907D01*
X-36579Y6887D01*
X-36557Y6785D01*
X-36540Y6683D01*
X-36531Y6666D01*
X-36527Y6646D01*
X-36474Y6557D01*
X-36425Y6466D01*
X-36411Y6452D01*
X-36401Y6435D01*
X-36322Y6368D01*
X-36247Y6297D01*
X-36229Y6288D01*
X-36214Y6275D01*
X-36118Y6237D01*
X-36024Y6193D01*
X-36004Y6191D01*
X-35986Y6183D01*
X-35819Y6165D01*
X-33685Y6165D01*
X-31613Y4093D01*
X-31613Y1959D01*
X-31610Y1940D01*
X-31612Y1920D01*
X-31590Y1819D01*
X-31574Y1717D01*
X-31564Y1699D01*
X-31560Y1680D01*
X-31507Y1591D01*
X-31459Y1499D01*
X-31444Y1486D01*
X-31434Y1469D01*
X-31355Y1401D01*
X-31280Y1330D01*
X-31262Y1322D01*
X-31247Y1309D01*
X-31151Y1270D01*
X-31057Y1226D01*
X-31037Y1224D01*
X-31019Y1217D01*
X-30852Y1198D01*
X-28719Y1198D01*
X-26647Y-874D01*
X-26647Y-3803D01*
X-28719Y-5875D01*
X-31648Y-5875D01*
G37*
%LPD*%
%LPC*%
G36*
X-53579Y37064D02*
X-53579Y37064D01*
X-55651Y39136D01*
X-55651Y42066D01*
X-53485Y44232D01*
X-53473Y44248D01*
X-53458Y44260D01*
X-53402Y44348D01*
X-53341Y44431D01*
X-53336Y44450D01*
X-53325Y44467D01*
X-53300Y44568D01*
X-53269Y44667D01*
X-53270Y44686D01*
X-53265Y44706D01*
X-53273Y44809D01*
X-53275Y44912D01*
X-53282Y44931D01*
X-53284Y44951D01*
X-53324Y45046D01*
X-53360Y45143D01*
X-53372Y45159D01*
X-53380Y45177D01*
X-53485Y45308D01*
X-54337Y46160D01*
X-54337Y49090D01*
X-52265Y51162D01*
X-49335Y51162D01*
X-47263Y49090D01*
X-47263Y46160D01*
X-49429Y43994D01*
X-49441Y43978D01*
X-49456Y43966D01*
X-49512Y43878D01*
X-49573Y43795D01*
X-49578Y43776D01*
X-49589Y43759D01*
X-49614Y43658D01*
X-49645Y43559D01*
X-49644Y43540D01*
X-49649Y43520D01*
X-49641Y43417D01*
X-49639Y43314D01*
X-49632Y43295D01*
X-49630Y43275D01*
X-49590Y43180D01*
X-49554Y43083D01*
X-49542Y43067D01*
X-49534Y43049D01*
X-49429Y42918D01*
X-48577Y42066D01*
X-48577Y39136D01*
X-50649Y37064D01*
X-53579Y37064D01*
G37*
%LPD*%
%LPC*%
G36*
X35824Y-21933D02*
X35824Y-21933D01*
X33752Y-19861D01*
X33752Y-17252D01*
X33749Y-17232D01*
X33751Y-17213D01*
X33729Y-17111D01*
X33712Y-17009D01*
X33703Y-16992D01*
X33698Y-16972D01*
X33645Y-16883D01*
X33597Y-16792D01*
X33583Y-16778D01*
X33572Y-16761D01*
X33494Y-16694D01*
X33419Y-16622D01*
X33401Y-16614D01*
X33385Y-16601D01*
X33289Y-16562D01*
X33196Y-16519D01*
X33176Y-16517D01*
X33157Y-16509D01*
X32991Y-16491D01*
X31078Y-16491D01*
X29006Y-14419D01*
X29006Y-11489D01*
X31078Y-9417D01*
X34008Y-9417D01*
X36080Y-11489D01*
X36080Y-14098D01*
X36083Y-14118D01*
X36081Y-14137D01*
X36103Y-14239D01*
X36119Y-14341D01*
X36129Y-14358D01*
X36133Y-14378D01*
X36186Y-14467D01*
X36235Y-14558D01*
X36249Y-14572D01*
X36259Y-14589D01*
X36338Y-14656D01*
X36413Y-14727D01*
X36431Y-14736D01*
X36446Y-14749D01*
X36542Y-14788D01*
X36636Y-14831D01*
X36656Y-14833D01*
X36674Y-14841D01*
X36841Y-14859D01*
X38753Y-14859D01*
X40825Y-16931D01*
X40825Y-19861D01*
X38753Y-21933D01*
X35824Y-21933D01*
G37*
%LPD*%
%LPC*%
G36*
X120519Y11725D02*
X120519Y11725D01*
X118088Y14156D01*
X118088Y17594D01*
X120519Y20025D01*
X123956Y20025D01*
X126387Y17594D01*
X126387Y14569D01*
X126388Y14565D01*
X126387Y14561D01*
X126408Y14442D01*
X126427Y14326D01*
X126429Y14322D01*
X126430Y14319D01*
X126486Y14214D01*
X126500Y14189D01*
X126453Y14160D01*
X126391Y14134D01*
X126329Y14084D01*
X126301Y14067D01*
X126288Y14051D01*
X126260Y14029D01*
X123956Y11725D01*
X120519Y11725D01*
G37*
%LPD*%
%LPC*%
G36*
X-58869Y-115275D02*
X-58869Y-115275D01*
X-61300Y-112844D01*
X-61300Y-109406D01*
X-58869Y-106975D01*
X-55431Y-106975D01*
X-53000Y-109406D01*
X-53000Y-112844D01*
X-55431Y-115275D01*
X-58869Y-115275D01*
G37*
%LPD*%
%LPC*%
G36*
X-38231Y65550D02*
X-38231Y65550D01*
X-40662Y67981D01*
X-40662Y71419D01*
X-38231Y73850D01*
X-34794Y73850D01*
X-32363Y71419D01*
X-32363Y67981D01*
X-34794Y65550D01*
X-38231Y65550D01*
G37*
%LPD*%
%LPC*%
G36*
X-12582Y62375D02*
X-12582Y62375D01*
X-15013Y64806D01*
X-15013Y68244D01*
X-12582Y70675D01*
X-9145Y70675D01*
X-6714Y68244D01*
X-6714Y64806D01*
X-9145Y62375D01*
X-12582Y62375D01*
G37*
%LPD*%
%LPC*%
G36*
X47494Y10138D02*
X47494Y10138D01*
X45063Y12569D01*
X45063Y16006D01*
X47494Y18437D01*
X50931Y18437D01*
X53362Y16006D01*
X53362Y12569D01*
X50931Y10138D01*
X47494Y10138D01*
G37*
%LPD*%
%LPC*%
G36*
X-51180Y8400D02*
X-51180Y8400D01*
X-53611Y10831D01*
X-53611Y14269D01*
X-51180Y16700D01*
X-47743Y16700D01*
X-45312Y14269D01*
X-45312Y10831D01*
X-47743Y8400D01*
X-51180Y8400D01*
G37*
%LPD*%
%LPC*%
G36*
X-43985Y-59591D02*
X-43985Y-59591D01*
X-46415Y-57160D01*
X-46415Y-53722D01*
X-43985Y-51291D01*
X-40547Y-51291D01*
X-38116Y-53722D01*
X-38116Y-57160D01*
X-40547Y-59591D01*
X-43985Y-59591D01*
G37*
%LPD*%
%LPC*%
G36*
X14439Y56657D02*
X14439Y56657D01*
X12009Y59088D01*
X12009Y62525D01*
X14439Y64956D01*
X17877Y64956D01*
X20308Y62525D01*
X20308Y59088D01*
X17877Y56657D01*
X14439Y56657D01*
G37*
%LPD*%
%LPC*%
G36*
X110994Y51413D02*
X110994Y51413D01*
X108563Y53844D01*
X108563Y57281D01*
X110994Y59712D01*
X114431Y59712D01*
X116862Y57281D01*
X116862Y53844D01*
X114431Y51413D01*
X110994Y51413D01*
G37*
%LPD*%
%LPC*%
G36*
X56521Y-4988D02*
X56521Y-4988D01*
X54090Y-2557D01*
X54090Y880D01*
X56521Y3311D01*
X59959Y3311D01*
X62389Y880D01*
X62389Y-2557D01*
X59959Y-4988D01*
X56521Y-4988D01*
G37*
%LPD*%
%LPC*%
G36*
X3194Y70826D02*
X3194Y70826D01*
X976Y73044D01*
X976Y76181D01*
X3194Y78399D01*
X6331Y78399D01*
X8549Y76181D01*
X8549Y73044D01*
X6331Y70826D01*
X3194Y70826D01*
G37*
%LPD*%
%LPC*%
G36*
X77637Y62425D02*
X77637Y62425D01*
X75565Y64496D01*
X75565Y67426D01*
X77637Y69498D01*
X80566Y69498D01*
X82638Y67426D01*
X82638Y64496D01*
X80566Y62425D01*
X77637Y62425D01*
G37*
%LPD*%
%LPC*%
G36*
X-63229Y62205D02*
X-63229Y62205D01*
X-65301Y64277D01*
X-65301Y67207D01*
X-63229Y69279D01*
X-60299Y69279D01*
X-58227Y67207D01*
X-58227Y64277D01*
X-60299Y62205D01*
X-63229Y62205D01*
G37*
%LPD*%
%LPC*%
G36*
X46079Y61320D02*
X46079Y61320D01*
X44007Y63391D01*
X44007Y66321D01*
X46079Y68393D01*
X49009Y68393D01*
X51080Y66321D01*
X51080Y63391D01*
X49009Y61320D01*
X46079Y61320D01*
G37*
%LPD*%
%LPC*%
G36*
X-61790Y48851D02*
X-61790Y48851D01*
X-63862Y50923D01*
X-63862Y53852D01*
X-61790Y55924D01*
X-58860Y55924D01*
X-56788Y53852D01*
X-56788Y50923D01*
X-58860Y48851D01*
X-61790Y48851D01*
G37*
%LPD*%
%LPC*%
G36*
X-46040Y55112D02*
X-46040Y55112D01*
X-48112Y57184D01*
X-48112Y60114D01*
X-46040Y62186D01*
X-43110Y62186D01*
X-41038Y60114D01*
X-41038Y57184D01*
X-43110Y55112D01*
X-46040Y55112D01*
G37*
%LPD*%
%LPC*%
G36*
X55810Y55112D02*
X55810Y55112D01*
X53738Y57184D01*
X53738Y60114D01*
X55810Y62186D01*
X58740Y62186D01*
X60812Y60114D01*
X60812Y57184D01*
X58740Y55112D01*
X55810Y55112D01*
G37*
%LPD*%
%LPC*%
G36*
X-66938Y-22973D02*
X-66938Y-22973D01*
X-69010Y-20901D01*
X-69010Y-17971D01*
X-66938Y-15899D01*
X-64009Y-15899D01*
X-61937Y-17971D01*
X-61937Y-20901D01*
X-64009Y-22973D01*
X-66938Y-22973D01*
G37*
%LPD*%
%LPC*%
G36*
X-42830Y-43761D02*
X-42830Y-43761D01*
X-44901Y-41689D01*
X-44901Y-38759D01*
X-42830Y-36688D01*
X-39900Y-36688D01*
X-37828Y-38759D01*
X-37828Y-41689D01*
X-39900Y-43761D01*
X-42830Y-43761D01*
G37*
%LPD*%
%LPC*%
G36*
X64398Y-51881D02*
X64398Y-51881D01*
X62326Y-49809D01*
X62326Y-46879D01*
X64398Y-44807D01*
X67328Y-44807D01*
X69400Y-46879D01*
X69400Y-49809D01*
X67328Y-51881D01*
X64398Y-51881D01*
G37*
%LPD*%
%LPC*%
G36*
X-84602Y-53947D02*
X-84602Y-53947D01*
X-86674Y-51875D01*
X-86674Y-48945D01*
X-84602Y-46873D01*
X-81672Y-46873D01*
X-79600Y-48945D01*
X-79600Y-51875D01*
X-81672Y-53947D01*
X-84602Y-53947D01*
G37*
%LPD*%
%LPC*%
G36*
X-39251Y28088D02*
X-39251Y28088D01*
X-41323Y30160D01*
X-41323Y33090D01*
X-39251Y35162D01*
X-36322Y35162D01*
X-34250Y33090D01*
X-34250Y30160D01*
X-36322Y28088D01*
X-39251Y28088D01*
G37*
%LPD*%
%LPC*%
G36*
X86121Y-62274D02*
X86121Y-62274D01*
X84049Y-60202D01*
X84049Y-57273D01*
X86121Y-55201D01*
X89051Y-55201D01*
X91123Y-57273D01*
X91123Y-60202D01*
X89051Y-62274D01*
X86121Y-62274D01*
G37*
%LPD*%
%LPC*%
G36*
X38223Y-73387D02*
X38223Y-73387D01*
X36151Y-71315D01*
X36151Y-68385D01*
X38223Y-66313D01*
X41152Y-66313D01*
X43224Y-68385D01*
X43224Y-71315D01*
X41152Y-73387D01*
X38223Y-73387D01*
G37*
%LPD*%
%LPC*%
G36*
X-47502Y-77999D02*
X-47502Y-77999D01*
X-49574Y-75927D01*
X-49574Y-72998D01*
X-47502Y-70926D01*
X-44573Y-70926D01*
X-42501Y-72998D01*
X-42501Y-75927D01*
X-44573Y-77999D01*
X-47502Y-77999D01*
G37*
%LPD*%
%LPC*%
G36*
X-18927Y-95612D02*
X-18927Y-95612D01*
X-20999Y-93540D01*
X-20999Y-90610D01*
X-18927Y-88538D01*
X-15998Y-88538D01*
X-13926Y-90610D01*
X-13926Y-93540D01*
X-15998Y-95612D01*
X-18927Y-95612D01*
G37*
%LPD*%
%LPC*%
G36*
X71560Y21713D02*
X71560Y21713D01*
X69488Y23785D01*
X69488Y26715D01*
X71560Y28787D01*
X74490Y28787D01*
X76562Y26715D01*
X76562Y23785D01*
X74490Y21713D01*
X71560Y21713D01*
G37*
%LPD*%
D10*
X87313Y26988D03*
X-85725Y50800D03*
X-85725Y25400D03*
X-85725Y0D03*
D11*
X-88900Y-92075D03*
X-57150Y-111125D03*
X-125413Y23813D03*
X-112713Y57150D03*
X-19050Y125413D03*
X17463Y125413D03*
X112713Y55563D03*
X122238Y15875D03*
X88900Y-87313D03*
X53975Y-112713D03*
X58240Y-839D03*
X49213Y14288D03*
X-10864Y66525D03*
X16158Y60807D03*
D12*
X-3175Y7938D03*
X3175Y7938D03*
X3175Y0D03*
X3175Y-7938D03*
X-3175Y-7938D03*
X-3175Y0D03*
D11*
X-103188Y39688D03*
X-106363Y26988D03*
X14288Y-73025D03*
X-60325Y-92075D03*
X-73025Y-82550D03*
X63500Y-101600D03*
X73025Y-95250D03*
X69850Y-61913D03*
X111125Y39688D03*
X109538Y19050D03*
X7938Y111125D03*
X-6350Y112713D03*
X-20638Y30163D03*
X-25400Y-28575D03*
X-42863Y-7938D03*
X47188Y31625D03*
X25400Y-28575D03*
D12*
X73025Y14288D03*
X34925Y-6096D03*
X-61764Y65742D03*
X-17463Y-92075D03*
X-83137Y-50410D03*
X87586Y-58738D03*
X79102Y65961D03*
X-46038Y-74463D03*
X-44575Y58649D03*
X-60325Y52388D03*
X-52114Y40601D03*
X32543Y-12954D03*
X-50800Y47625D03*
X57275Y58649D03*
X65863Y-48344D03*
X63500Y42863D03*
X-14247Y7206D03*
X69260Y47035D03*
D13*
X68580Y47035D02*
X68455Y47161D01*
X68580Y47035D02*
X69260Y47035D01*
X19358Y47161D02*
X-14247Y13556D01*
X-14247Y7206D01*
X19358Y47161D02*
X68455Y47161D01*
D12*
X-14149Y182D03*
X65677Y53385D03*
D13*
X70440Y53385D01*
X74613Y49213D01*
X-9525Y4806D02*
X-14149Y182D01*
X15875Y38100D02*
X69850Y38100D01*
X74613Y42863D01*
X74613Y49213D01*
X-9525Y12700D02*
X-9525Y4806D01*
X-9525Y12700D02*
X15875Y38100D01*
D11*
X-42266Y-55441D03*
X-49462Y12550D03*
X-36513Y69700D03*
D12*
X47544Y64856D03*
X73025Y25250D03*
X-41365Y-40224D03*
X37289Y-18396D03*
D14*
X4763Y74613D03*
D12*
X-65474Y-19436D03*
X-36171Y22204D03*
X-30184Y-2339D03*
X-21271Y7304D03*
X-37787Y31625D03*
X39688Y-69850D03*
X-35150Y2628D03*
X-26238Y12271D03*
X-40117Y7595D03*
X-31205Y17237D03*
M02*
