G04 EAGLE Gerber RS-274X export*
G75*
%MOMM*%
%FSLAX34Y34*%
%LPD*%
%INSilkscreen Top*%
%IPPOS*%
%AMOC8*
5,1,8,0,0,1.08239X$1,22.5*%
G01*
%ADD10C,0.101600*%
%ADD11C,0.152400*%
%ADD12R,0.014731X0.014731*%
%ADD13R,0.147319X0.014731*%
%ADD14R,0.265175X0.014731*%
%ADD15R,0.383031X0.014731*%
%ADD16R,0.515619X0.014731*%
%ADD17R,0.633475X0.014731*%
%ADD18R,0.751331X0.014731*%
%ADD19R,0.883919X0.014731*%
%ADD20R,1.001775X0.014731*%
%ADD21R,1.119631X0.014731*%
%ADD22R,1.134363X0.014731*%
%ADD23R,1.149094X0.014731*%
%ADD24R,1.163825X0.014731*%
%ADD25R,1.178556X0.014731*%
%ADD26R,1.193288X0.014731*%
%ADD27R,1.222756X0.014731*%
%ADD28R,1.237488X0.014731*%
%ADD29R,1.266950X0.014731*%
%ADD30R,1.281681X0.014731*%
%ADD31R,1.311144X0.014731*%
%ADD32R,1.325881X0.014731*%
%ADD33R,1.355344X0.014731*%
%ADD34R,1.370075X0.014731*%
%ADD35R,1.384806X0.014731*%
%ADD36R,1.399538X0.014731*%
%ADD37R,1.414275X0.014731*%
%ADD38R,1.443738X0.014731*%
%ADD39R,1.458469X0.014731*%
%ADD40R,1.487931X0.014731*%
%ADD41R,1.502663X0.014731*%
%ADD42R,1.517394X0.014731*%
%ADD43R,1.532125X0.014731*%
%ADD44R,1.546856X0.014731*%
%ADD45R,1.576319X0.014731*%
%ADD46R,1.605788X0.014731*%
%ADD47R,1.620519X0.014731*%
%ADD48R,1.649981X0.014731*%
%ADD49R,1.664713X0.014731*%
%ADD50R,1.694175X0.014731*%
%ADD51R,1.708913X0.014731*%
%ADD52R,1.738375X0.014731*%
%ADD53R,1.753106X0.014731*%
%ADD54R,1.767838X0.014731*%
%ADD55R,1.782569X0.014731*%
%ADD56R,1.797306X0.014731*%
%ADD57R,0.117856X0.014731*%
%ADD58R,1.826769X0.014731*%
%ADD59R,0.235713X0.014731*%
%ADD60R,0.353569X0.014731*%
%ADD61R,1.856231X0.014731*%
%ADD62R,0.486156X0.014731*%
%ADD63R,1.870963X0.014731*%
%ADD64R,0.604013X0.014731*%
%ADD65R,0.721869X0.014731*%
%ADD66R,1.885694X0.014731*%
%ADD67R,0.839719X0.014731*%
%ADD68R,0.972306X0.014731*%
%ADD69R,1.090169X0.014731*%
%ADD70R,1.208025X0.014731*%
%ADD71R,1.252219X0.014731*%
%ADD72R,1.296412X0.014731*%
%ADD73R,1.340612X0.014731*%
%ADD74R,1.826763X0.014731*%
%ADD75R,1.414269X0.014731*%
%ADD76R,1.812031X0.014731*%
%ADD77R,1.429000X0.014731*%
%ADD78R,1.458462X0.014731*%
%ADD79R,1.473200X0.014731*%
%ADD80R,1.723644X0.014731*%
%ADD81R,1.694181X0.014731*%
%ADD82R,1.679450X0.014731*%
%ADD83R,1.561594X0.014731*%
%ADD84R,1.576325X0.014731*%
%ADD85R,1.591056X0.014731*%
%ADD86R,1.635250X0.014731*%
%ADD87R,1.561588X0.014731*%
%ADD88R,1.443731X0.014731*%
%ADD89R,1.797300X0.014731*%
%ADD90R,1.841500X0.014731*%
%ADD91R,1.311150X0.014731*%
%ADD92R,1.296419X0.014731*%
%ADD93R,1.193294X0.014731*%
%ADD94R,0.957575X0.014731*%
%ADD95R,0.589281X0.014731*%
%ADD96R,0.471425X0.014731*%
%ADD97R,0.220975X0.014731*%
%ADD98R,1.812038X0.014731*%
%ADD99R,0.103119X0.014731*%
%ADD100R,0.029463X0.014731*%
%ADD101R,0.162050X0.014731*%
%ADD102R,0.397763X0.014731*%
%ADD103R,0.648206X0.014731*%
%ADD104R,1.679444X0.014731*%
%ADD105R,1.016506X0.014731*%
%ADD106R,1.104900X0.014731*%
%ADD107R,1.222750X0.014731*%
%ADD108R,1.429006X0.014731*%
%ADD109R,1.208019X0.014731*%
%ADD110R,0.987044X0.014731*%
%ADD111R,0.854456X0.014731*%
%ADD112R,0.618744X0.014731*%
%ADD113R,0.500888X0.014731*%
%ADD114R,0.368300X0.014731*%
%ADD115R,0.132587X0.014731*%
%ADD116R,1.664719X0.014731*%
%ADD117R,1.075438X0.014731*%
%ADD118R,0.942844X0.014731*%
%ADD119R,0.707131X0.014731*%
%ADD120R,0.456694X0.014731*%
%ADD121R,0.088388X0.014731*%
%ADD122C,0.076200*%
%ADD123C,0.127000*%
%ADD124C,0.150000*%


D10*
X331524Y459658D02*
X334770Y459658D01*
X334883Y459660D01*
X334996Y459666D01*
X335109Y459676D01*
X335222Y459690D01*
X335334Y459707D01*
X335445Y459729D01*
X335555Y459754D01*
X335665Y459784D01*
X335773Y459817D01*
X335880Y459854D01*
X335986Y459894D01*
X336090Y459939D01*
X336193Y459987D01*
X336294Y460038D01*
X336393Y460093D01*
X336490Y460151D01*
X336585Y460213D01*
X336678Y460278D01*
X336768Y460346D01*
X336856Y460417D01*
X336942Y460492D01*
X337025Y460569D01*
X337105Y460649D01*
X337182Y460732D01*
X337257Y460818D01*
X337328Y460906D01*
X337396Y460996D01*
X337461Y461089D01*
X337523Y461184D01*
X337581Y461281D01*
X337636Y461380D01*
X337687Y461481D01*
X337735Y461584D01*
X337780Y461688D01*
X337820Y461794D01*
X337857Y461901D01*
X337890Y462009D01*
X337920Y462119D01*
X337945Y462229D01*
X337967Y462340D01*
X337984Y462452D01*
X337998Y462565D01*
X338008Y462678D01*
X338014Y462791D01*
X338016Y462904D01*
X338014Y463017D01*
X338008Y463130D01*
X337998Y463243D01*
X337984Y463356D01*
X337967Y463468D01*
X337945Y463579D01*
X337920Y463689D01*
X337890Y463799D01*
X337857Y463907D01*
X337820Y464014D01*
X337780Y464120D01*
X337735Y464224D01*
X337687Y464327D01*
X337636Y464428D01*
X337581Y464527D01*
X337523Y464624D01*
X337461Y464719D01*
X337396Y464812D01*
X337328Y464902D01*
X337257Y464990D01*
X337182Y465076D01*
X337105Y465159D01*
X337025Y465239D01*
X336942Y465316D01*
X336856Y465391D01*
X336768Y465462D01*
X336678Y465530D01*
X336585Y465595D01*
X336490Y465657D01*
X336393Y465715D01*
X336294Y465770D01*
X336193Y465821D01*
X336090Y465869D01*
X335986Y465914D01*
X335880Y465954D01*
X335773Y465991D01*
X335665Y466024D01*
X335555Y466054D01*
X335445Y466079D01*
X335334Y466101D01*
X335222Y466118D01*
X335109Y466132D01*
X334996Y466142D01*
X334883Y466148D01*
X334770Y466150D01*
X335419Y471342D02*
X331524Y471342D01*
X335419Y471342D02*
X335520Y471340D01*
X335620Y471334D01*
X335720Y471324D01*
X335820Y471311D01*
X335919Y471293D01*
X336018Y471272D01*
X336115Y471247D01*
X336212Y471218D01*
X336307Y471185D01*
X336401Y471149D01*
X336493Y471109D01*
X336584Y471066D01*
X336673Y471019D01*
X336760Y470969D01*
X336846Y470915D01*
X336929Y470858D01*
X337009Y470798D01*
X337088Y470735D01*
X337164Y470668D01*
X337237Y470599D01*
X337307Y470527D01*
X337375Y470453D01*
X337440Y470376D01*
X337501Y470296D01*
X337560Y470214D01*
X337615Y470130D01*
X337667Y470044D01*
X337716Y469956D01*
X337761Y469866D01*
X337803Y469774D01*
X337841Y469681D01*
X337875Y469586D01*
X337906Y469491D01*
X337933Y469394D01*
X337956Y469296D01*
X337976Y469197D01*
X337991Y469097D01*
X338003Y468997D01*
X338011Y468897D01*
X338015Y468796D01*
X338015Y468696D01*
X338011Y468595D01*
X338003Y468495D01*
X337991Y468395D01*
X337976Y468295D01*
X337956Y468196D01*
X337933Y468098D01*
X337906Y468001D01*
X337875Y467906D01*
X337841Y467811D01*
X337803Y467718D01*
X337761Y467626D01*
X337716Y467536D01*
X337667Y467448D01*
X337615Y467362D01*
X337560Y467278D01*
X337501Y467196D01*
X337440Y467116D01*
X337375Y467039D01*
X337307Y466965D01*
X337237Y466893D01*
X337164Y466824D01*
X337088Y466757D01*
X337009Y466694D01*
X336929Y466634D01*
X336846Y466577D01*
X336760Y466523D01*
X336673Y466473D01*
X336584Y466426D01*
X336493Y466383D01*
X336401Y466343D01*
X336307Y466307D01*
X336212Y466274D01*
X336115Y466245D01*
X336018Y466220D01*
X335919Y466199D01*
X335820Y466181D01*
X335720Y466168D01*
X335620Y466158D01*
X335520Y466152D01*
X335419Y466150D01*
X335419Y466149D02*
X332823Y466149D01*
X342305Y471342D02*
X346200Y459658D01*
X350095Y471342D01*
X354384Y459658D02*
X357630Y459658D01*
X357743Y459660D01*
X357856Y459666D01*
X357969Y459676D01*
X358082Y459690D01*
X358194Y459707D01*
X358305Y459729D01*
X358415Y459754D01*
X358525Y459784D01*
X358633Y459817D01*
X358740Y459854D01*
X358846Y459894D01*
X358950Y459939D01*
X359053Y459987D01*
X359154Y460038D01*
X359253Y460093D01*
X359350Y460151D01*
X359445Y460213D01*
X359538Y460278D01*
X359628Y460346D01*
X359716Y460417D01*
X359802Y460492D01*
X359885Y460569D01*
X359965Y460649D01*
X360042Y460732D01*
X360117Y460818D01*
X360188Y460906D01*
X360256Y460996D01*
X360321Y461089D01*
X360383Y461184D01*
X360441Y461281D01*
X360496Y461380D01*
X360547Y461481D01*
X360595Y461584D01*
X360640Y461688D01*
X360680Y461794D01*
X360717Y461901D01*
X360750Y462009D01*
X360780Y462119D01*
X360805Y462229D01*
X360827Y462340D01*
X360844Y462452D01*
X360858Y462565D01*
X360868Y462678D01*
X360874Y462791D01*
X360876Y462904D01*
X360874Y463017D01*
X360868Y463130D01*
X360858Y463243D01*
X360844Y463356D01*
X360827Y463468D01*
X360805Y463579D01*
X360780Y463689D01*
X360750Y463799D01*
X360717Y463907D01*
X360680Y464014D01*
X360640Y464120D01*
X360595Y464224D01*
X360547Y464327D01*
X360496Y464428D01*
X360441Y464527D01*
X360383Y464624D01*
X360321Y464719D01*
X360256Y464812D01*
X360188Y464902D01*
X360117Y464990D01*
X360042Y465076D01*
X359965Y465159D01*
X359885Y465239D01*
X359802Y465316D01*
X359716Y465391D01*
X359628Y465462D01*
X359538Y465530D01*
X359445Y465595D01*
X359350Y465657D01*
X359253Y465715D01*
X359154Y465770D01*
X359053Y465821D01*
X358950Y465869D01*
X358846Y465914D01*
X358740Y465954D01*
X358633Y465991D01*
X358525Y466024D01*
X358415Y466054D01*
X358305Y466079D01*
X358194Y466101D01*
X358082Y466118D01*
X357969Y466132D01*
X357856Y466142D01*
X357743Y466148D01*
X357630Y466150D01*
X358279Y471342D02*
X354384Y471342D01*
X358279Y471342D02*
X358380Y471340D01*
X358480Y471334D01*
X358580Y471324D01*
X358680Y471311D01*
X358779Y471293D01*
X358878Y471272D01*
X358975Y471247D01*
X359072Y471218D01*
X359167Y471185D01*
X359261Y471149D01*
X359353Y471109D01*
X359444Y471066D01*
X359533Y471019D01*
X359620Y470969D01*
X359706Y470915D01*
X359789Y470858D01*
X359869Y470798D01*
X359948Y470735D01*
X360024Y470668D01*
X360097Y470599D01*
X360167Y470527D01*
X360235Y470453D01*
X360300Y470376D01*
X360361Y470296D01*
X360420Y470214D01*
X360475Y470130D01*
X360527Y470044D01*
X360576Y469956D01*
X360621Y469866D01*
X360663Y469774D01*
X360701Y469681D01*
X360735Y469586D01*
X360766Y469491D01*
X360793Y469394D01*
X360816Y469296D01*
X360836Y469197D01*
X360851Y469097D01*
X360863Y468997D01*
X360871Y468897D01*
X360875Y468796D01*
X360875Y468696D01*
X360871Y468595D01*
X360863Y468495D01*
X360851Y468395D01*
X360836Y468295D01*
X360816Y468196D01*
X360793Y468098D01*
X360766Y468001D01*
X360735Y467906D01*
X360701Y467811D01*
X360663Y467718D01*
X360621Y467626D01*
X360576Y467536D01*
X360527Y467448D01*
X360475Y467362D01*
X360420Y467278D01*
X360361Y467196D01*
X360300Y467116D01*
X360235Y467039D01*
X360167Y466965D01*
X360097Y466893D01*
X360024Y466824D01*
X359948Y466757D01*
X359869Y466694D01*
X359789Y466634D01*
X359706Y466577D01*
X359620Y466523D01*
X359533Y466473D01*
X359444Y466426D01*
X359353Y466383D01*
X359261Y466343D01*
X359167Y466307D01*
X359072Y466274D01*
X358975Y466245D01*
X358878Y466220D01*
X358779Y466199D01*
X358680Y466181D01*
X358580Y466168D01*
X358480Y466158D01*
X358380Y466152D01*
X358279Y466150D01*
X358279Y466149D02*
X355683Y466149D01*
X449191Y394892D02*
X450301Y391843D01*
X450341Y391737D01*
X450386Y391633D01*
X450434Y391530D01*
X450485Y391429D01*
X450540Y391330D01*
X450598Y391233D01*
X450660Y391138D01*
X450725Y391045D01*
X450793Y390955D01*
X450864Y390867D01*
X450939Y390781D01*
X451016Y390698D01*
X451096Y390618D01*
X451179Y390541D01*
X451265Y390466D01*
X451353Y390395D01*
X451443Y390327D01*
X451536Y390262D01*
X451631Y390200D01*
X451728Y390142D01*
X451827Y390087D01*
X451928Y390036D01*
X452031Y389988D01*
X452135Y389943D01*
X452241Y389903D01*
X452348Y389866D01*
X452456Y389833D01*
X452566Y389803D01*
X452676Y389778D01*
X452787Y389756D01*
X452899Y389739D01*
X453012Y389725D01*
X453125Y389715D01*
X453238Y389709D01*
X453351Y389707D01*
X453464Y389709D01*
X453577Y389715D01*
X453690Y389725D01*
X453803Y389739D01*
X453915Y389756D01*
X454026Y389778D01*
X454136Y389803D01*
X454246Y389833D01*
X454354Y389866D01*
X454461Y389903D01*
X454567Y389943D01*
X454671Y389988D01*
X454774Y390036D01*
X454875Y390087D01*
X454974Y390142D01*
X455071Y390200D01*
X455166Y390262D01*
X455259Y390327D01*
X455349Y390395D01*
X455437Y390466D01*
X455523Y390541D01*
X455606Y390618D01*
X455686Y390698D01*
X455763Y390781D01*
X455838Y390867D01*
X455909Y390955D01*
X455977Y391045D01*
X456042Y391138D01*
X456104Y391233D01*
X456162Y391330D01*
X456217Y391429D01*
X456268Y391530D01*
X456316Y391633D01*
X456361Y391737D01*
X456401Y391843D01*
X456438Y391950D01*
X456471Y392058D01*
X456501Y392168D01*
X456526Y392278D01*
X456548Y392389D01*
X456565Y392501D01*
X456579Y392614D01*
X456589Y392727D01*
X456595Y392840D01*
X456597Y392953D01*
X456595Y393066D01*
X456589Y393179D01*
X456579Y393292D01*
X456565Y393405D01*
X456548Y393517D01*
X456526Y393628D01*
X456501Y393738D01*
X456471Y393848D01*
X456438Y393956D01*
X456401Y394063D01*
X461502Y395229D02*
X460170Y398889D01*
X461501Y395229D02*
X461534Y395134D01*
X461563Y395037D01*
X461588Y394940D01*
X461609Y394841D01*
X461627Y394742D01*
X461640Y394642D01*
X461650Y394542D01*
X461656Y394442D01*
X461658Y394341D01*
X461656Y394240D01*
X461650Y394140D01*
X461640Y394040D01*
X461627Y393940D01*
X461609Y393841D01*
X461588Y393742D01*
X461563Y393645D01*
X461534Y393548D01*
X461501Y393453D01*
X461465Y393359D01*
X461425Y393267D01*
X461382Y393176D01*
X461335Y393087D01*
X461285Y393000D01*
X461231Y392914D01*
X461174Y392831D01*
X461114Y392751D01*
X461051Y392672D01*
X460984Y392596D01*
X460915Y392523D01*
X460843Y392453D01*
X460769Y392385D01*
X460692Y392320D01*
X460612Y392259D01*
X460530Y392200D01*
X460446Y392145D01*
X460360Y392093D01*
X460272Y392044D01*
X460182Y391999D01*
X460090Y391957D01*
X459997Y391919D01*
X459902Y391885D01*
X459807Y391854D01*
X459710Y391827D01*
X459612Y391804D01*
X459513Y391784D01*
X459413Y391769D01*
X459313Y391757D01*
X459213Y391749D01*
X459112Y391745D01*
X459012Y391745D01*
X458911Y391749D01*
X458811Y391757D01*
X458711Y391769D01*
X458611Y391784D01*
X458512Y391804D01*
X458414Y391827D01*
X458317Y391854D01*
X458222Y391885D01*
X458127Y391919D01*
X458034Y391957D01*
X457942Y391999D01*
X457852Y392044D01*
X457764Y392093D01*
X457678Y392145D01*
X457594Y392200D01*
X457512Y392259D01*
X457432Y392320D01*
X457355Y392385D01*
X457281Y392453D01*
X457209Y392523D01*
X457140Y392596D01*
X457073Y392672D01*
X457010Y392751D01*
X456950Y392831D01*
X456893Y392914D01*
X456839Y393000D01*
X456789Y393087D01*
X456742Y393176D01*
X456699Y393267D01*
X456659Y393359D01*
X456623Y393453D01*
X455735Y395893D01*
X463858Y388758D02*
X454210Y381102D01*
X466522Y381438D01*
X457009Y373411D02*
X458120Y370361D01*
X458119Y370361D02*
X458159Y370255D01*
X458204Y370151D01*
X458252Y370048D01*
X458303Y369947D01*
X458358Y369848D01*
X458416Y369751D01*
X458478Y369656D01*
X458543Y369563D01*
X458611Y369473D01*
X458682Y369385D01*
X458757Y369299D01*
X458834Y369216D01*
X458914Y369136D01*
X458997Y369059D01*
X459083Y368984D01*
X459171Y368913D01*
X459261Y368845D01*
X459354Y368780D01*
X459449Y368718D01*
X459546Y368660D01*
X459645Y368605D01*
X459746Y368554D01*
X459849Y368506D01*
X459953Y368461D01*
X460059Y368421D01*
X460166Y368384D01*
X460274Y368351D01*
X460384Y368321D01*
X460494Y368296D01*
X460605Y368274D01*
X460717Y368257D01*
X460830Y368243D01*
X460943Y368233D01*
X461056Y368227D01*
X461169Y368225D01*
X461282Y368227D01*
X461395Y368233D01*
X461508Y368243D01*
X461621Y368257D01*
X461733Y368274D01*
X461844Y368296D01*
X461954Y368321D01*
X462064Y368351D01*
X462172Y368384D01*
X462279Y368421D01*
X462385Y368461D01*
X462489Y368506D01*
X462592Y368554D01*
X462693Y368605D01*
X462792Y368660D01*
X462889Y368718D01*
X462984Y368780D01*
X463077Y368845D01*
X463167Y368913D01*
X463255Y368984D01*
X463341Y369059D01*
X463424Y369136D01*
X463504Y369216D01*
X463581Y369299D01*
X463656Y369385D01*
X463727Y369473D01*
X463795Y369563D01*
X463860Y369656D01*
X463922Y369751D01*
X463980Y369848D01*
X464035Y369947D01*
X464086Y370048D01*
X464134Y370151D01*
X464179Y370255D01*
X464219Y370361D01*
X464256Y370468D01*
X464289Y370576D01*
X464319Y370686D01*
X464344Y370796D01*
X464366Y370907D01*
X464383Y371019D01*
X464397Y371132D01*
X464407Y371245D01*
X464413Y371358D01*
X464415Y371471D01*
X464413Y371584D01*
X464407Y371697D01*
X464397Y371810D01*
X464383Y371923D01*
X464366Y372035D01*
X464344Y372146D01*
X464319Y372256D01*
X464289Y372366D01*
X464256Y372474D01*
X464219Y372581D01*
X469321Y373747D02*
X467989Y377407D01*
X469320Y373747D02*
X469353Y373652D01*
X469382Y373555D01*
X469407Y373458D01*
X469428Y373359D01*
X469446Y373260D01*
X469459Y373160D01*
X469469Y373060D01*
X469475Y372960D01*
X469477Y372859D01*
X469475Y372758D01*
X469469Y372658D01*
X469459Y372558D01*
X469446Y372458D01*
X469428Y372359D01*
X469407Y372260D01*
X469382Y372163D01*
X469353Y372066D01*
X469320Y371971D01*
X469284Y371877D01*
X469244Y371785D01*
X469201Y371694D01*
X469154Y371605D01*
X469104Y371518D01*
X469050Y371432D01*
X468993Y371349D01*
X468933Y371269D01*
X468870Y371190D01*
X468803Y371114D01*
X468734Y371041D01*
X468662Y370971D01*
X468588Y370903D01*
X468511Y370838D01*
X468431Y370777D01*
X468349Y370718D01*
X468265Y370663D01*
X468179Y370611D01*
X468091Y370562D01*
X468001Y370517D01*
X467909Y370475D01*
X467816Y370437D01*
X467721Y370403D01*
X467626Y370372D01*
X467529Y370345D01*
X467431Y370322D01*
X467332Y370302D01*
X467232Y370287D01*
X467132Y370275D01*
X467032Y370267D01*
X466931Y370263D01*
X466831Y370263D01*
X466730Y370267D01*
X466630Y370275D01*
X466530Y370287D01*
X466430Y370302D01*
X466331Y370322D01*
X466233Y370345D01*
X466136Y370372D01*
X466041Y370403D01*
X465946Y370437D01*
X465853Y370475D01*
X465761Y370517D01*
X465671Y370562D01*
X465583Y370611D01*
X465497Y370663D01*
X465413Y370718D01*
X465331Y370777D01*
X465251Y370838D01*
X465174Y370903D01*
X465100Y370971D01*
X465028Y371041D01*
X464959Y371114D01*
X464892Y371190D01*
X464829Y371269D01*
X464769Y371349D01*
X464712Y371432D01*
X464658Y371518D01*
X464608Y371605D01*
X464561Y371694D01*
X464518Y371785D01*
X464478Y371877D01*
X464442Y371971D01*
X464441Y371971D02*
X463553Y374411D01*
X410288Y238359D02*
X407629Y236497D01*
X410288Y238358D02*
X410379Y238425D01*
X410469Y238494D01*
X410556Y238567D01*
X410640Y238643D01*
X410721Y238722D01*
X410800Y238803D01*
X410876Y238887D01*
X410949Y238974D01*
X411018Y239064D01*
X411085Y239155D01*
X411148Y239249D01*
X411208Y239345D01*
X411265Y239443D01*
X411318Y239543D01*
X411368Y239645D01*
X411414Y239749D01*
X411456Y239854D01*
X411495Y239960D01*
X411530Y240068D01*
X411561Y240177D01*
X411589Y240287D01*
X411612Y240398D01*
X411632Y240509D01*
X411648Y240621D01*
X411660Y240734D01*
X411668Y240847D01*
X411672Y240960D01*
X411672Y241074D01*
X411668Y241187D01*
X411660Y241300D01*
X411648Y241413D01*
X411632Y241525D01*
X411612Y241636D01*
X411589Y241747D01*
X411561Y241857D01*
X411530Y241966D01*
X411495Y242074D01*
X411456Y242180D01*
X411414Y242285D01*
X411368Y242389D01*
X411318Y242491D01*
X411265Y242591D01*
X411208Y242689D01*
X411148Y242785D01*
X411085Y242879D01*
X411018Y242970D01*
X410949Y243060D01*
X410876Y243147D01*
X410800Y243231D01*
X410721Y243312D01*
X410640Y243391D01*
X410556Y243467D01*
X410469Y243540D01*
X410380Y243609D01*
X410288Y243676D01*
X410194Y243739D01*
X410098Y243799D01*
X410000Y243856D01*
X409900Y243909D01*
X409798Y243959D01*
X409694Y244005D01*
X409589Y244047D01*
X409483Y244086D01*
X409375Y244121D01*
X409266Y244152D01*
X409156Y244180D01*
X409045Y244203D01*
X408934Y244223D01*
X408822Y244239D01*
X408709Y244251D01*
X408596Y244259D01*
X408483Y244263D01*
X408369Y244263D01*
X408256Y244259D01*
X408143Y244251D01*
X408030Y244239D01*
X407918Y244223D01*
X407807Y244203D01*
X407696Y244180D01*
X407586Y244152D01*
X407477Y244121D01*
X407369Y244086D01*
X407263Y244047D01*
X407158Y244005D01*
X407054Y243959D01*
X406952Y243909D01*
X406852Y243856D01*
X406754Y243799D01*
X406658Y243739D01*
X406564Y243676D01*
X404118Y248302D02*
X400928Y246068D01*
X404118Y248302D02*
X404202Y248358D01*
X404287Y248411D01*
X404375Y248460D01*
X404464Y248506D01*
X404556Y248549D01*
X404649Y248588D01*
X404743Y248623D01*
X404838Y248655D01*
X404935Y248683D01*
X405033Y248707D01*
X405131Y248727D01*
X405231Y248744D01*
X405331Y248756D01*
X405431Y248765D01*
X405532Y248770D01*
X405632Y248771D01*
X405733Y248768D01*
X405833Y248761D01*
X405933Y248750D01*
X406033Y248736D01*
X406132Y248717D01*
X406230Y248695D01*
X406327Y248669D01*
X406424Y248639D01*
X406519Y248606D01*
X406612Y248569D01*
X406704Y248528D01*
X406795Y248483D01*
X406883Y248436D01*
X406970Y248384D01*
X407054Y248330D01*
X407137Y248272D01*
X407217Y248211D01*
X407295Y248147D01*
X407370Y248080D01*
X407443Y248011D01*
X407512Y247938D01*
X407579Y247863D01*
X407643Y247785D01*
X407704Y247705D01*
X407762Y247622D01*
X407816Y247538D01*
X407868Y247451D01*
X407915Y247363D01*
X407960Y247272D01*
X408001Y247180D01*
X408038Y247086D01*
X408071Y246992D01*
X408101Y246895D01*
X408127Y246798D01*
X408149Y246700D01*
X408168Y246601D01*
X408182Y246501D01*
X408193Y246401D01*
X408200Y246301D01*
X408203Y246200D01*
X408202Y246100D01*
X408197Y245999D01*
X408188Y245899D01*
X408176Y245799D01*
X408159Y245699D01*
X408139Y245601D01*
X408115Y245503D01*
X408087Y245406D01*
X408055Y245311D01*
X408020Y245217D01*
X407981Y245124D01*
X407938Y245032D01*
X407892Y244943D01*
X407843Y244855D01*
X407790Y244770D01*
X407734Y244686D01*
X407674Y244605D01*
X407612Y244526D01*
X407546Y244449D01*
X407478Y244375D01*
X407407Y244304D01*
X407333Y244236D01*
X407256Y244170D01*
X407177Y244108D01*
X407096Y244048D01*
X404970Y242559D01*
X409759Y252252D02*
X419651Y244914D01*
X416139Y256719D01*
X426355Y249609D02*
X429014Y251470D01*
X429105Y251537D01*
X429195Y251606D01*
X429282Y251679D01*
X429366Y251755D01*
X429447Y251834D01*
X429526Y251915D01*
X429602Y251999D01*
X429675Y252086D01*
X429744Y252176D01*
X429811Y252267D01*
X429874Y252361D01*
X429934Y252457D01*
X429991Y252555D01*
X430044Y252655D01*
X430094Y252757D01*
X430140Y252861D01*
X430182Y252966D01*
X430221Y253072D01*
X430256Y253180D01*
X430287Y253289D01*
X430315Y253399D01*
X430338Y253510D01*
X430358Y253621D01*
X430374Y253733D01*
X430386Y253846D01*
X430394Y253959D01*
X430398Y254072D01*
X430398Y254186D01*
X430394Y254299D01*
X430386Y254412D01*
X430374Y254525D01*
X430358Y254637D01*
X430338Y254748D01*
X430315Y254859D01*
X430287Y254969D01*
X430256Y255078D01*
X430221Y255186D01*
X430182Y255292D01*
X430140Y255397D01*
X430094Y255501D01*
X430044Y255603D01*
X429991Y255703D01*
X429934Y255801D01*
X429874Y255897D01*
X429811Y255991D01*
X429744Y256082D01*
X429675Y256172D01*
X429602Y256259D01*
X429526Y256343D01*
X429447Y256424D01*
X429366Y256503D01*
X429282Y256579D01*
X429195Y256652D01*
X429106Y256721D01*
X429014Y256788D01*
X428920Y256851D01*
X428824Y256911D01*
X428726Y256968D01*
X428626Y257021D01*
X428524Y257071D01*
X428420Y257117D01*
X428315Y257159D01*
X428209Y257198D01*
X428101Y257233D01*
X427992Y257264D01*
X427882Y257292D01*
X427771Y257315D01*
X427660Y257335D01*
X427548Y257351D01*
X427435Y257363D01*
X427322Y257371D01*
X427209Y257375D01*
X427095Y257375D01*
X426982Y257371D01*
X426869Y257363D01*
X426756Y257351D01*
X426644Y257335D01*
X426533Y257315D01*
X426422Y257292D01*
X426312Y257264D01*
X426203Y257233D01*
X426095Y257198D01*
X425989Y257159D01*
X425884Y257117D01*
X425780Y257071D01*
X425678Y257021D01*
X425578Y256968D01*
X425480Y256911D01*
X425384Y256851D01*
X425290Y256788D01*
X422844Y261414D02*
X419653Y259180D01*
X422844Y261414D02*
X422928Y261470D01*
X423013Y261523D01*
X423101Y261572D01*
X423190Y261618D01*
X423282Y261661D01*
X423375Y261700D01*
X423469Y261735D01*
X423564Y261767D01*
X423661Y261795D01*
X423759Y261819D01*
X423857Y261839D01*
X423957Y261856D01*
X424057Y261868D01*
X424157Y261877D01*
X424258Y261882D01*
X424358Y261883D01*
X424459Y261880D01*
X424559Y261873D01*
X424659Y261862D01*
X424759Y261848D01*
X424858Y261829D01*
X424956Y261807D01*
X425053Y261781D01*
X425150Y261751D01*
X425245Y261718D01*
X425338Y261681D01*
X425430Y261640D01*
X425521Y261595D01*
X425609Y261548D01*
X425696Y261496D01*
X425780Y261442D01*
X425863Y261384D01*
X425943Y261323D01*
X426021Y261259D01*
X426096Y261192D01*
X426169Y261123D01*
X426238Y261050D01*
X426305Y260975D01*
X426369Y260897D01*
X426430Y260817D01*
X426488Y260734D01*
X426542Y260650D01*
X426594Y260563D01*
X426641Y260475D01*
X426686Y260384D01*
X426727Y260292D01*
X426764Y260198D01*
X426797Y260104D01*
X426827Y260007D01*
X426853Y259910D01*
X426875Y259812D01*
X426894Y259713D01*
X426908Y259613D01*
X426919Y259513D01*
X426926Y259413D01*
X426929Y259312D01*
X426928Y259212D01*
X426923Y259111D01*
X426914Y259011D01*
X426902Y258911D01*
X426885Y258811D01*
X426865Y258713D01*
X426841Y258615D01*
X426813Y258518D01*
X426781Y258423D01*
X426746Y258329D01*
X426707Y258236D01*
X426664Y258144D01*
X426618Y258055D01*
X426569Y257967D01*
X426516Y257882D01*
X426460Y257798D01*
X426400Y257717D01*
X426338Y257638D01*
X426272Y257561D01*
X426204Y257487D01*
X426133Y257416D01*
X426059Y257348D01*
X425982Y257282D01*
X425903Y257220D01*
X425822Y257160D01*
X423695Y255671D01*
X263386Y251470D02*
X260728Y253332D01*
X263386Y251470D02*
X263480Y251407D01*
X263576Y251347D01*
X263674Y251290D01*
X263774Y251237D01*
X263876Y251187D01*
X263980Y251141D01*
X264085Y251099D01*
X264191Y251060D01*
X264299Y251025D01*
X264408Y250994D01*
X264518Y250966D01*
X264629Y250943D01*
X264740Y250923D01*
X264852Y250907D01*
X264965Y250895D01*
X265078Y250887D01*
X265191Y250883D01*
X265305Y250883D01*
X265418Y250887D01*
X265531Y250895D01*
X265644Y250907D01*
X265756Y250923D01*
X265867Y250943D01*
X265978Y250966D01*
X266088Y250994D01*
X266197Y251025D01*
X266305Y251060D01*
X266411Y251099D01*
X266516Y251141D01*
X266620Y251187D01*
X266722Y251237D01*
X266822Y251290D01*
X266920Y251347D01*
X267016Y251407D01*
X267110Y251470D01*
X267201Y251537D01*
X267291Y251606D01*
X267378Y251679D01*
X267462Y251755D01*
X267543Y251834D01*
X267622Y251915D01*
X267698Y251999D01*
X267771Y252086D01*
X267840Y252176D01*
X267907Y252267D01*
X267970Y252361D01*
X268030Y252457D01*
X268087Y252555D01*
X268140Y252655D01*
X268190Y252757D01*
X268236Y252861D01*
X268278Y252966D01*
X268317Y253072D01*
X268352Y253180D01*
X268383Y253289D01*
X268411Y253399D01*
X268434Y253510D01*
X268454Y253621D01*
X268470Y253733D01*
X268482Y253846D01*
X268490Y253959D01*
X268494Y254072D01*
X268494Y254186D01*
X268490Y254299D01*
X268482Y254412D01*
X268470Y254525D01*
X268454Y254637D01*
X268434Y254748D01*
X268411Y254859D01*
X268383Y254969D01*
X268352Y255078D01*
X268317Y255186D01*
X268278Y255292D01*
X268236Y255397D01*
X268190Y255501D01*
X268140Y255603D01*
X268087Y255703D01*
X268030Y255801D01*
X267970Y255897D01*
X267907Y255991D01*
X267840Y256082D01*
X267771Y256172D01*
X267698Y256259D01*
X267622Y256343D01*
X267543Y256424D01*
X267462Y256503D01*
X267378Y256579D01*
X267291Y256652D01*
X267202Y256721D01*
X267110Y256788D01*
X270620Y260669D02*
X267429Y262903D01*
X270619Y260669D02*
X270700Y260609D01*
X270779Y260547D01*
X270856Y260481D01*
X270930Y260413D01*
X271001Y260342D01*
X271069Y260268D01*
X271135Y260191D01*
X271197Y260112D01*
X271257Y260031D01*
X271313Y259947D01*
X271366Y259862D01*
X271415Y259774D01*
X271461Y259685D01*
X271504Y259593D01*
X271543Y259500D01*
X271578Y259406D01*
X271610Y259311D01*
X271638Y259214D01*
X271662Y259116D01*
X271682Y259018D01*
X271699Y258918D01*
X271711Y258818D01*
X271720Y258718D01*
X271725Y258618D01*
X271726Y258517D01*
X271723Y258416D01*
X271716Y258316D01*
X271705Y258216D01*
X271691Y258116D01*
X271672Y258017D01*
X271650Y257919D01*
X271624Y257822D01*
X271594Y257725D01*
X271561Y257631D01*
X271524Y257537D01*
X271483Y257445D01*
X271438Y257354D01*
X271391Y257266D01*
X271339Y257179D01*
X271285Y257095D01*
X271227Y257012D01*
X271166Y256932D01*
X271102Y256854D01*
X271035Y256779D01*
X270966Y256706D01*
X270893Y256637D01*
X270818Y256570D01*
X270740Y256506D01*
X270660Y256445D01*
X270577Y256387D01*
X270493Y256333D01*
X270406Y256281D01*
X270318Y256234D01*
X270227Y256189D01*
X270135Y256148D01*
X270041Y256111D01*
X269947Y256078D01*
X269850Y256048D01*
X269753Y256022D01*
X269655Y256000D01*
X269556Y255981D01*
X269456Y255967D01*
X269356Y255956D01*
X269256Y255949D01*
X269155Y255946D01*
X269054Y255947D01*
X268954Y255952D01*
X268854Y255961D01*
X268754Y255973D01*
X268654Y255990D01*
X268556Y256010D01*
X268458Y256034D01*
X268361Y256062D01*
X268266Y256094D01*
X268172Y256129D01*
X268079Y256168D01*
X267987Y256211D01*
X267898Y256257D01*
X267810Y256306D01*
X267725Y256359D01*
X267641Y256415D01*
X265514Y257905D01*
X276260Y256719D02*
X272749Y244914D01*
X282641Y252252D01*
X279453Y240220D02*
X282112Y238358D01*
X282206Y238295D01*
X282302Y238235D01*
X282400Y238178D01*
X282500Y238125D01*
X282602Y238075D01*
X282706Y238029D01*
X282811Y237987D01*
X282917Y237948D01*
X283025Y237913D01*
X283134Y237882D01*
X283244Y237854D01*
X283355Y237831D01*
X283466Y237811D01*
X283578Y237795D01*
X283691Y237783D01*
X283804Y237775D01*
X283917Y237771D01*
X284031Y237771D01*
X284144Y237775D01*
X284257Y237783D01*
X284370Y237795D01*
X284482Y237811D01*
X284593Y237831D01*
X284704Y237854D01*
X284814Y237882D01*
X284923Y237913D01*
X285031Y237948D01*
X285137Y237987D01*
X285242Y238029D01*
X285346Y238075D01*
X285448Y238125D01*
X285548Y238178D01*
X285646Y238235D01*
X285742Y238295D01*
X285836Y238358D01*
X285927Y238425D01*
X286017Y238494D01*
X286104Y238567D01*
X286188Y238643D01*
X286269Y238722D01*
X286348Y238803D01*
X286424Y238887D01*
X286497Y238974D01*
X286566Y239064D01*
X286633Y239155D01*
X286696Y239249D01*
X286756Y239345D01*
X286813Y239443D01*
X286866Y239543D01*
X286916Y239645D01*
X286962Y239749D01*
X287004Y239854D01*
X287043Y239960D01*
X287078Y240068D01*
X287109Y240177D01*
X287137Y240287D01*
X287160Y240398D01*
X287180Y240509D01*
X287196Y240621D01*
X287208Y240734D01*
X287216Y240847D01*
X287220Y240960D01*
X287220Y241074D01*
X287216Y241187D01*
X287208Y241300D01*
X287196Y241413D01*
X287180Y241525D01*
X287160Y241636D01*
X287137Y241747D01*
X287109Y241857D01*
X287078Y241966D01*
X287043Y242074D01*
X287004Y242180D01*
X286962Y242285D01*
X286916Y242389D01*
X286866Y242491D01*
X286813Y242591D01*
X286756Y242689D01*
X286696Y242785D01*
X286633Y242879D01*
X286566Y242970D01*
X286497Y243060D01*
X286424Y243147D01*
X286348Y243231D01*
X286269Y243312D01*
X286188Y243391D01*
X286104Y243467D01*
X286017Y243540D01*
X285928Y243609D01*
X285836Y243676D01*
X289345Y247557D02*
X286155Y249791D01*
X289345Y247557D02*
X289426Y247497D01*
X289505Y247435D01*
X289582Y247369D01*
X289656Y247301D01*
X289727Y247230D01*
X289795Y247156D01*
X289861Y247079D01*
X289923Y247000D01*
X289983Y246919D01*
X290039Y246835D01*
X290092Y246750D01*
X290141Y246662D01*
X290187Y246573D01*
X290230Y246481D01*
X290269Y246388D01*
X290304Y246294D01*
X290336Y246199D01*
X290364Y246102D01*
X290388Y246004D01*
X290408Y245906D01*
X290425Y245806D01*
X290437Y245706D01*
X290446Y245606D01*
X290451Y245506D01*
X290452Y245405D01*
X290449Y245304D01*
X290442Y245204D01*
X290431Y245104D01*
X290417Y245004D01*
X290398Y244905D01*
X290376Y244807D01*
X290350Y244710D01*
X290320Y244613D01*
X290287Y244519D01*
X290250Y244425D01*
X290209Y244333D01*
X290164Y244242D01*
X290117Y244154D01*
X290065Y244067D01*
X290011Y243983D01*
X289953Y243900D01*
X289892Y243820D01*
X289828Y243742D01*
X289761Y243667D01*
X289692Y243594D01*
X289619Y243525D01*
X289544Y243458D01*
X289466Y243394D01*
X289386Y243333D01*
X289303Y243275D01*
X289219Y243221D01*
X289132Y243169D01*
X289044Y243122D01*
X288953Y243077D01*
X288861Y243036D01*
X288767Y242999D01*
X288673Y242966D01*
X288576Y242936D01*
X288479Y242910D01*
X288381Y242888D01*
X288282Y242869D01*
X288182Y242855D01*
X288082Y242844D01*
X287982Y242837D01*
X287881Y242834D01*
X287780Y242835D01*
X287680Y242840D01*
X287580Y242849D01*
X287480Y242861D01*
X287380Y242878D01*
X287282Y242898D01*
X287184Y242922D01*
X287087Y242950D01*
X286992Y242982D01*
X286898Y243017D01*
X286805Y243056D01*
X286713Y243099D01*
X286624Y243145D01*
X286536Y243194D01*
X286451Y243247D01*
X286367Y243303D01*
X284240Y244793D01*
X233170Y367311D02*
X234280Y370361D01*
X234281Y370361D02*
X234318Y370468D01*
X234351Y370576D01*
X234381Y370686D01*
X234406Y370796D01*
X234428Y370907D01*
X234445Y371019D01*
X234459Y371132D01*
X234469Y371245D01*
X234475Y371358D01*
X234477Y371471D01*
X234475Y371584D01*
X234469Y371697D01*
X234459Y371810D01*
X234445Y371923D01*
X234428Y372035D01*
X234406Y372146D01*
X234381Y372256D01*
X234351Y372366D01*
X234318Y372474D01*
X234281Y372581D01*
X234241Y372687D01*
X234196Y372791D01*
X234148Y372894D01*
X234097Y372995D01*
X234042Y373094D01*
X233984Y373191D01*
X233922Y373286D01*
X233857Y373379D01*
X233789Y373469D01*
X233718Y373557D01*
X233643Y373643D01*
X233566Y373726D01*
X233486Y373806D01*
X233403Y373883D01*
X233317Y373958D01*
X233229Y374029D01*
X233139Y374097D01*
X233046Y374162D01*
X232951Y374224D01*
X232854Y374282D01*
X232755Y374337D01*
X232654Y374388D01*
X232551Y374436D01*
X232447Y374481D01*
X232341Y374521D01*
X232234Y374558D01*
X232126Y374591D01*
X232016Y374621D01*
X231906Y374646D01*
X231795Y374668D01*
X231683Y374685D01*
X231570Y374699D01*
X231457Y374709D01*
X231344Y374715D01*
X231231Y374717D01*
X231118Y374715D01*
X231005Y374709D01*
X230892Y374699D01*
X230779Y374685D01*
X230667Y374668D01*
X230556Y374646D01*
X230446Y374621D01*
X230336Y374591D01*
X230228Y374558D01*
X230121Y374521D01*
X230015Y374481D01*
X229911Y374436D01*
X229808Y374388D01*
X229707Y374337D01*
X229608Y374282D01*
X229511Y374224D01*
X229416Y374162D01*
X229323Y374097D01*
X229233Y374029D01*
X229145Y373958D01*
X229059Y373883D01*
X228976Y373806D01*
X228896Y373726D01*
X228819Y373643D01*
X228744Y373557D01*
X228673Y373469D01*
X228605Y373379D01*
X228540Y373286D01*
X228478Y373191D01*
X228420Y373094D01*
X228365Y372995D01*
X228314Y372894D01*
X228266Y372791D01*
X228221Y372687D01*
X228181Y372581D01*
X223523Y374967D02*
X222191Y371308D01*
X223524Y374967D02*
X223560Y375061D01*
X223600Y375153D01*
X223643Y375244D01*
X223690Y375333D01*
X223740Y375420D01*
X223794Y375506D01*
X223851Y375589D01*
X223911Y375669D01*
X223974Y375748D01*
X224041Y375824D01*
X224110Y375897D01*
X224182Y375967D01*
X224256Y376035D01*
X224333Y376100D01*
X224413Y376161D01*
X224495Y376220D01*
X224579Y376275D01*
X224665Y376327D01*
X224753Y376376D01*
X224843Y376421D01*
X224935Y376463D01*
X225028Y376501D01*
X225123Y376535D01*
X225218Y376566D01*
X225315Y376593D01*
X225413Y376616D01*
X225512Y376636D01*
X225612Y376651D01*
X225712Y376663D01*
X225812Y376671D01*
X225913Y376675D01*
X226013Y376675D01*
X226114Y376671D01*
X226214Y376663D01*
X226314Y376651D01*
X226414Y376636D01*
X226513Y376616D01*
X226611Y376593D01*
X226708Y376566D01*
X226803Y376535D01*
X226898Y376501D01*
X226991Y376463D01*
X227083Y376421D01*
X227173Y376376D01*
X227261Y376327D01*
X227347Y376275D01*
X227431Y376220D01*
X227513Y376161D01*
X227593Y376100D01*
X227670Y376035D01*
X227744Y375967D01*
X227816Y375897D01*
X227885Y375824D01*
X227952Y375748D01*
X228015Y375669D01*
X228075Y375589D01*
X228132Y375506D01*
X228186Y375420D01*
X228236Y375333D01*
X228283Y375244D01*
X228326Y375153D01*
X228366Y375061D01*
X228402Y374967D01*
X228435Y374872D01*
X228464Y374775D01*
X228489Y374678D01*
X228510Y374579D01*
X228528Y374480D01*
X228541Y374380D01*
X228551Y374280D01*
X228557Y374180D01*
X228559Y374079D01*
X228557Y373978D01*
X228551Y373878D01*
X228541Y373778D01*
X228528Y373678D01*
X228510Y373579D01*
X228489Y373480D01*
X228464Y373383D01*
X228435Y373286D01*
X228402Y373191D01*
X228403Y373191D02*
X227515Y370751D01*
X225878Y381438D02*
X238190Y381102D01*
X228542Y388758D01*
X240989Y388793D02*
X242099Y391842D01*
X242099Y391843D02*
X242136Y391950D01*
X242169Y392058D01*
X242199Y392168D01*
X242224Y392278D01*
X242246Y392389D01*
X242263Y392501D01*
X242277Y392614D01*
X242287Y392727D01*
X242293Y392840D01*
X242295Y392953D01*
X242293Y393066D01*
X242287Y393179D01*
X242277Y393292D01*
X242263Y393405D01*
X242246Y393517D01*
X242224Y393628D01*
X242199Y393738D01*
X242169Y393848D01*
X242136Y393956D01*
X242099Y394063D01*
X242059Y394169D01*
X242014Y394273D01*
X241966Y394376D01*
X241915Y394477D01*
X241860Y394576D01*
X241802Y394673D01*
X241740Y394768D01*
X241675Y394861D01*
X241607Y394951D01*
X241536Y395039D01*
X241461Y395125D01*
X241384Y395208D01*
X241304Y395288D01*
X241221Y395365D01*
X241135Y395440D01*
X241047Y395511D01*
X240957Y395579D01*
X240864Y395644D01*
X240769Y395706D01*
X240672Y395764D01*
X240573Y395819D01*
X240472Y395870D01*
X240369Y395918D01*
X240265Y395963D01*
X240159Y396003D01*
X240052Y396040D01*
X239944Y396073D01*
X239834Y396103D01*
X239724Y396128D01*
X239613Y396150D01*
X239501Y396167D01*
X239388Y396181D01*
X239275Y396191D01*
X239162Y396197D01*
X239049Y396199D01*
X238936Y396197D01*
X238823Y396191D01*
X238710Y396181D01*
X238597Y396167D01*
X238485Y396150D01*
X238374Y396128D01*
X238264Y396103D01*
X238154Y396073D01*
X238046Y396040D01*
X237939Y396003D01*
X237833Y395963D01*
X237729Y395918D01*
X237626Y395870D01*
X237525Y395819D01*
X237426Y395764D01*
X237329Y395706D01*
X237234Y395644D01*
X237141Y395579D01*
X237051Y395511D01*
X236963Y395440D01*
X236877Y395365D01*
X236794Y395288D01*
X236714Y395208D01*
X236637Y395125D01*
X236562Y395039D01*
X236491Y394951D01*
X236423Y394861D01*
X236358Y394768D01*
X236296Y394673D01*
X236238Y394576D01*
X236183Y394477D01*
X236132Y394376D01*
X236084Y394273D01*
X236039Y394169D01*
X235999Y394063D01*
X231342Y396449D02*
X230009Y392789D01*
X231342Y396449D02*
X231378Y396543D01*
X231418Y396635D01*
X231461Y396726D01*
X231508Y396815D01*
X231558Y396902D01*
X231612Y396988D01*
X231669Y397071D01*
X231729Y397151D01*
X231792Y397230D01*
X231859Y397306D01*
X231928Y397379D01*
X232000Y397449D01*
X232074Y397517D01*
X232151Y397582D01*
X232231Y397643D01*
X232313Y397702D01*
X232397Y397757D01*
X232483Y397809D01*
X232571Y397858D01*
X232661Y397903D01*
X232753Y397945D01*
X232846Y397983D01*
X232941Y398017D01*
X233036Y398048D01*
X233133Y398075D01*
X233231Y398098D01*
X233330Y398118D01*
X233430Y398133D01*
X233530Y398145D01*
X233630Y398153D01*
X233731Y398157D01*
X233831Y398157D01*
X233932Y398153D01*
X234032Y398145D01*
X234132Y398133D01*
X234232Y398118D01*
X234331Y398098D01*
X234429Y398075D01*
X234526Y398048D01*
X234621Y398017D01*
X234716Y397983D01*
X234809Y397945D01*
X234901Y397903D01*
X234991Y397858D01*
X235079Y397809D01*
X235165Y397757D01*
X235249Y397702D01*
X235331Y397643D01*
X235411Y397582D01*
X235488Y397517D01*
X235562Y397449D01*
X235634Y397379D01*
X235703Y397306D01*
X235770Y397230D01*
X235833Y397151D01*
X235893Y397071D01*
X235950Y396988D01*
X236004Y396902D01*
X236054Y396815D01*
X236101Y396726D01*
X236144Y396635D01*
X236184Y396543D01*
X236220Y396449D01*
X236253Y396354D01*
X236282Y396257D01*
X236307Y396160D01*
X236328Y396061D01*
X236346Y395962D01*
X236359Y395862D01*
X236369Y395762D01*
X236375Y395662D01*
X236377Y395561D01*
X236375Y395460D01*
X236369Y395360D01*
X236359Y395260D01*
X236346Y395160D01*
X236328Y395061D01*
X236307Y394962D01*
X236282Y394865D01*
X236253Y394768D01*
X236220Y394673D01*
X236221Y394673D02*
X235333Y392233D01*
D11*
X384174Y403380D02*
X384174Y421160D01*
X389113Y421160D01*
X389253Y421158D01*
X389392Y421152D01*
X389532Y421142D01*
X389671Y421128D01*
X389810Y421111D01*
X389948Y421089D01*
X390085Y421063D01*
X390222Y421034D01*
X390358Y421001D01*
X390492Y420964D01*
X390626Y420923D01*
X390758Y420878D01*
X390890Y420829D01*
X391019Y420777D01*
X391147Y420722D01*
X391274Y420662D01*
X391399Y420599D01*
X391522Y420533D01*
X391643Y420463D01*
X391762Y420390D01*
X391879Y420313D01*
X391993Y420233D01*
X392106Y420150D01*
X392216Y420064D01*
X392323Y419974D01*
X392428Y419882D01*
X392530Y419787D01*
X392630Y419689D01*
X392727Y419588D01*
X392821Y419484D01*
X392911Y419378D01*
X392999Y419269D01*
X393084Y419158D01*
X393165Y419044D01*
X393244Y418929D01*
X393319Y418811D01*
X393390Y418691D01*
X393458Y418568D01*
X393523Y418445D01*
X393584Y418319D01*
X393642Y418191D01*
X393696Y418063D01*
X393746Y417932D01*
X393793Y417800D01*
X393836Y417667D01*
X393875Y417533D01*
X393910Y417398D01*
X393941Y417262D01*
X393969Y417124D01*
X393992Y416987D01*
X394012Y416848D01*
X394028Y416709D01*
X394040Y416570D01*
X394048Y416431D01*
X394052Y416291D01*
X394052Y416151D01*
X394048Y416011D01*
X394040Y415872D01*
X394028Y415733D01*
X394012Y415594D01*
X393992Y415455D01*
X393969Y415318D01*
X393941Y415180D01*
X393910Y415044D01*
X393875Y414909D01*
X393836Y414775D01*
X393793Y414642D01*
X393746Y414510D01*
X393696Y414379D01*
X393642Y414251D01*
X393584Y414123D01*
X393523Y413997D01*
X393458Y413874D01*
X393390Y413752D01*
X393319Y413631D01*
X393244Y413513D01*
X393165Y413398D01*
X393084Y413284D01*
X392999Y413173D01*
X392911Y413064D01*
X392821Y412958D01*
X392727Y412854D01*
X392630Y412753D01*
X392530Y412655D01*
X392428Y412560D01*
X392323Y412468D01*
X392216Y412378D01*
X392106Y412292D01*
X391993Y412209D01*
X391879Y412129D01*
X391762Y412052D01*
X391643Y411979D01*
X391522Y411909D01*
X391399Y411843D01*
X391274Y411780D01*
X391147Y411720D01*
X391019Y411665D01*
X390890Y411613D01*
X390758Y411564D01*
X390626Y411519D01*
X390492Y411478D01*
X390358Y411441D01*
X390222Y411408D01*
X390085Y411379D01*
X389948Y411353D01*
X389810Y411331D01*
X389671Y411314D01*
X389532Y411300D01*
X389392Y411290D01*
X389253Y411284D01*
X389113Y411282D01*
X384174Y411282D01*
X400169Y417209D02*
X405108Y421160D01*
X405108Y403380D01*
X410046Y403380D02*
X400169Y403380D01*
X409452Y344260D02*
X409452Y326480D01*
X409452Y344260D02*
X414391Y344260D01*
X414531Y344258D01*
X414670Y344252D01*
X414810Y344242D01*
X414949Y344228D01*
X415088Y344211D01*
X415226Y344189D01*
X415363Y344163D01*
X415500Y344134D01*
X415636Y344101D01*
X415770Y344064D01*
X415904Y344023D01*
X416036Y343978D01*
X416168Y343929D01*
X416297Y343877D01*
X416425Y343822D01*
X416552Y343762D01*
X416677Y343699D01*
X416800Y343633D01*
X416921Y343563D01*
X417040Y343490D01*
X417157Y343413D01*
X417271Y343333D01*
X417384Y343250D01*
X417494Y343164D01*
X417601Y343074D01*
X417706Y342982D01*
X417808Y342887D01*
X417908Y342789D01*
X418005Y342688D01*
X418099Y342584D01*
X418189Y342478D01*
X418277Y342369D01*
X418362Y342258D01*
X418443Y342144D01*
X418522Y342029D01*
X418597Y341911D01*
X418668Y341791D01*
X418736Y341668D01*
X418801Y341545D01*
X418862Y341419D01*
X418920Y341291D01*
X418974Y341163D01*
X419024Y341032D01*
X419071Y340900D01*
X419114Y340767D01*
X419153Y340633D01*
X419188Y340498D01*
X419219Y340362D01*
X419247Y340224D01*
X419270Y340087D01*
X419290Y339948D01*
X419306Y339809D01*
X419318Y339670D01*
X419326Y339531D01*
X419330Y339391D01*
X419330Y339251D01*
X419326Y339111D01*
X419318Y338972D01*
X419306Y338833D01*
X419290Y338694D01*
X419270Y338555D01*
X419247Y338418D01*
X419219Y338280D01*
X419188Y338144D01*
X419153Y338009D01*
X419114Y337875D01*
X419071Y337742D01*
X419024Y337610D01*
X418974Y337479D01*
X418920Y337351D01*
X418862Y337223D01*
X418801Y337097D01*
X418736Y336974D01*
X418668Y336852D01*
X418597Y336731D01*
X418522Y336613D01*
X418443Y336498D01*
X418362Y336384D01*
X418277Y336273D01*
X418189Y336164D01*
X418099Y336058D01*
X418005Y335954D01*
X417908Y335853D01*
X417808Y335755D01*
X417706Y335660D01*
X417601Y335568D01*
X417494Y335478D01*
X417384Y335392D01*
X417271Y335309D01*
X417157Y335229D01*
X417040Y335152D01*
X416921Y335079D01*
X416800Y335009D01*
X416677Y334943D01*
X416552Y334880D01*
X416425Y334820D01*
X416297Y334765D01*
X416168Y334713D01*
X416036Y334664D01*
X415904Y334619D01*
X415770Y334578D01*
X415636Y334541D01*
X415500Y334508D01*
X415363Y334479D01*
X415226Y334453D01*
X415088Y334431D01*
X414949Y334414D01*
X414810Y334400D01*
X414670Y334390D01*
X414531Y334384D01*
X414391Y334382D01*
X409452Y334382D01*
X430880Y344260D02*
X431012Y344258D01*
X431143Y344252D01*
X431275Y344242D01*
X431406Y344229D01*
X431536Y344211D01*
X431666Y344190D01*
X431796Y344165D01*
X431924Y344136D01*
X432052Y344103D01*
X432178Y344066D01*
X432304Y344026D01*
X432428Y343982D01*
X432551Y343934D01*
X432672Y343883D01*
X432792Y343828D01*
X432910Y343770D01*
X433026Y343708D01*
X433140Y343642D01*
X433253Y343574D01*
X433363Y343502D01*
X433471Y343427D01*
X433577Y343348D01*
X433681Y343267D01*
X433782Y343182D01*
X433880Y343095D01*
X433976Y343004D01*
X434069Y342911D01*
X434160Y342815D01*
X434247Y342717D01*
X434332Y342616D01*
X434413Y342512D01*
X434492Y342406D01*
X434567Y342298D01*
X434639Y342188D01*
X434707Y342075D01*
X434773Y341961D01*
X434835Y341845D01*
X434893Y341727D01*
X434948Y341607D01*
X434999Y341486D01*
X435047Y341363D01*
X435091Y341239D01*
X435131Y341113D01*
X435168Y340987D01*
X435201Y340859D01*
X435230Y340731D01*
X435255Y340601D01*
X435276Y340471D01*
X435294Y340341D01*
X435307Y340210D01*
X435317Y340078D01*
X435323Y339947D01*
X435325Y339815D01*
X430880Y344260D02*
X430730Y344258D01*
X430581Y344252D01*
X430432Y344242D01*
X430283Y344229D01*
X430134Y344211D01*
X429986Y344190D01*
X429838Y344164D01*
X429692Y344135D01*
X429546Y344102D01*
X429401Y344065D01*
X429257Y344024D01*
X429114Y343980D01*
X428972Y343932D01*
X428832Y343880D01*
X428693Y343825D01*
X428555Y343766D01*
X428420Y343703D01*
X428285Y343637D01*
X428153Y343567D01*
X428023Y343494D01*
X427894Y343417D01*
X427767Y343337D01*
X427643Y343254D01*
X427521Y343168D01*
X427401Y343078D01*
X427284Y342985D01*
X427169Y342890D01*
X427056Y342791D01*
X426946Y342689D01*
X426839Y342585D01*
X426735Y342478D01*
X426633Y342368D01*
X426535Y342255D01*
X426439Y342140D01*
X426347Y342022D01*
X426257Y341902D01*
X426171Y341780D01*
X426088Y341656D01*
X426008Y341529D01*
X425932Y341401D01*
X425859Y341270D01*
X425789Y341137D01*
X425723Y341003D01*
X425661Y340867D01*
X425602Y340730D01*
X425546Y340591D01*
X425495Y340450D01*
X425447Y340309D01*
X433843Y336358D02*
X433939Y336451D01*
X434031Y336547D01*
X434121Y336646D01*
X434208Y336747D01*
X434293Y336850D01*
X434374Y336955D01*
X434452Y337063D01*
X434527Y337173D01*
X434600Y337285D01*
X434669Y337399D01*
X434735Y337515D01*
X434797Y337633D01*
X434856Y337752D01*
X434912Y337873D01*
X434965Y337996D01*
X435014Y338120D01*
X435059Y338245D01*
X435102Y338372D01*
X435140Y338499D01*
X435175Y338628D01*
X435206Y338757D01*
X435234Y338888D01*
X435258Y339019D01*
X435279Y339151D01*
X435295Y339283D01*
X435308Y339416D01*
X435318Y339549D01*
X435323Y339682D01*
X435325Y339815D01*
X433843Y336358D02*
X425447Y326480D01*
X435325Y326480D01*
X447695Y333394D02*
X447695Y339321D01*
X447695Y333394D02*
X451152Y328949D01*
X447695Y333394D02*
X444238Y328949D01*
X447695Y333394D02*
X453128Y335370D01*
X447695Y333394D02*
X442262Y335370D01*
X333264Y266990D02*
X333264Y249210D01*
X333264Y266990D02*
X338203Y266990D01*
X338343Y266988D01*
X338482Y266982D01*
X338622Y266972D01*
X338761Y266958D01*
X338900Y266941D01*
X339038Y266919D01*
X339175Y266893D01*
X339312Y266864D01*
X339448Y266831D01*
X339582Y266794D01*
X339716Y266753D01*
X339848Y266708D01*
X339980Y266659D01*
X340109Y266607D01*
X340237Y266552D01*
X340364Y266492D01*
X340489Y266429D01*
X340612Y266363D01*
X340733Y266293D01*
X340852Y266220D01*
X340969Y266143D01*
X341083Y266063D01*
X341196Y265980D01*
X341306Y265894D01*
X341413Y265804D01*
X341518Y265712D01*
X341620Y265617D01*
X341720Y265519D01*
X341817Y265418D01*
X341911Y265314D01*
X342001Y265208D01*
X342089Y265099D01*
X342174Y264988D01*
X342255Y264874D01*
X342334Y264759D01*
X342409Y264641D01*
X342480Y264521D01*
X342548Y264398D01*
X342613Y264275D01*
X342674Y264149D01*
X342732Y264021D01*
X342786Y263893D01*
X342836Y263762D01*
X342883Y263630D01*
X342926Y263497D01*
X342965Y263363D01*
X343000Y263228D01*
X343031Y263092D01*
X343059Y262954D01*
X343082Y262817D01*
X343102Y262678D01*
X343118Y262539D01*
X343130Y262400D01*
X343138Y262261D01*
X343142Y262121D01*
X343142Y261981D01*
X343138Y261841D01*
X343130Y261702D01*
X343118Y261563D01*
X343102Y261424D01*
X343082Y261285D01*
X343059Y261148D01*
X343031Y261010D01*
X343000Y260874D01*
X342965Y260739D01*
X342926Y260605D01*
X342883Y260472D01*
X342836Y260340D01*
X342786Y260209D01*
X342732Y260081D01*
X342674Y259953D01*
X342613Y259827D01*
X342548Y259704D01*
X342480Y259582D01*
X342409Y259461D01*
X342334Y259343D01*
X342255Y259228D01*
X342174Y259114D01*
X342089Y259003D01*
X342001Y258894D01*
X341911Y258788D01*
X341817Y258684D01*
X341720Y258583D01*
X341620Y258485D01*
X341518Y258390D01*
X341413Y258298D01*
X341306Y258208D01*
X341196Y258122D01*
X341083Y258039D01*
X340969Y257959D01*
X340852Y257882D01*
X340733Y257809D01*
X340612Y257739D01*
X340489Y257673D01*
X340364Y257610D01*
X340237Y257550D01*
X340109Y257495D01*
X339980Y257443D01*
X339848Y257394D01*
X339716Y257349D01*
X339582Y257308D01*
X339448Y257271D01*
X339312Y257238D01*
X339175Y257209D01*
X339038Y257183D01*
X338900Y257161D01*
X338761Y257144D01*
X338622Y257130D01*
X338482Y257120D01*
X338343Y257114D01*
X338203Y257112D01*
X333264Y257112D01*
X349259Y249210D02*
X354198Y249210D01*
X354338Y249212D01*
X354477Y249218D01*
X354617Y249228D01*
X354756Y249242D01*
X354895Y249259D01*
X355033Y249281D01*
X355170Y249307D01*
X355307Y249336D01*
X355443Y249369D01*
X355577Y249406D01*
X355711Y249447D01*
X355843Y249492D01*
X355975Y249541D01*
X356104Y249593D01*
X356232Y249648D01*
X356359Y249708D01*
X356484Y249771D01*
X356607Y249837D01*
X356728Y249907D01*
X356847Y249980D01*
X356964Y250057D01*
X357078Y250137D01*
X357191Y250220D01*
X357301Y250306D01*
X357408Y250396D01*
X357513Y250488D01*
X357615Y250583D01*
X357715Y250681D01*
X357812Y250782D01*
X357906Y250886D01*
X357996Y250992D01*
X358084Y251101D01*
X358169Y251212D01*
X358250Y251326D01*
X358329Y251441D01*
X358404Y251559D01*
X358475Y251680D01*
X358543Y251802D01*
X358608Y251925D01*
X358669Y252051D01*
X358727Y252179D01*
X358781Y252307D01*
X358831Y252438D01*
X358878Y252570D01*
X358921Y252703D01*
X358960Y252837D01*
X358995Y252972D01*
X359026Y253108D01*
X359054Y253246D01*
X359077Y253383D01*
X359097Y253522D01*
X359113Y253661D01*
X359125Y253800D01*
X359133Y253939D01*
X359137Y254079D01*
X359137Y254219D01*
X359133Y254359D01*
X359125Y254498D01*
X359113Y254637D01*
X359097Y254776D01*
X359077Y254915D01*
X359054Y255052D01*
X359026Y255190D01*
X358995Y255326D01*
X358960Y255461D01*
X358921Y255595D01*
X358878Y255728D01*
X358831Y255860D01*
X358781Y255991D01*
X358727Y256119D01*
X358669Y256247D01*
X358608Y256373D01*
X358543Y256496D01*
X358475Y256619D01*
X358404Y256739D01*
X358329Y256857D01*
X358250Y256972D01*
X358169Y257086D01*
X358084Y257197D01*
X357996Y257306D01*
X357906Y257412D01*
X357812Y257516D01*
X357715Y257617D01*
X357615Y257715D01*
X357513Y257810D01*
X357408Y257902D01*
X357301Y257992D01*
X357191Y258078D01*
X357078Y258161D01*
X356964Y258241D01*
X356847Y258318D01*
X356728Y258391D01*
X356607Y258461D01*
X356484Y258527D01*
X356359Y258590D01*
X356232Y258650D01*
X356104Y258705D01*
X355975Y258757D01*
X355843Y258806D01*
X355711Y258851D01*
X355577Y258892D01*
X355443Y258929D01*
X355307Y258962D01*
X355170Y258991D01*
X355033Y259017D01*
X354895Y259039D01*
X354756Y259056D01*
X354617Y259070D01*
X354477Y259080D01*
X354338Y259086D01*
X354198Y259088D01*
X355185Y266990D02*
X349259Y266990D01*
X355185Y266990D02*
X355309Y266988D01*
X355433Y266982D01*
X355557Y266972D01*
X355680Y266959D01*
X355803Y266941D01*
X355925Y266920D01*
X356047Y266895D01*
X356168Y266866D01*
X356287Y266833D01*
X356406Y266797D01*
X356523Y266756D01*
X356639Y266713D01*
X356754Y266665D01*
X356867Y266614D01*
X356979Y266559D01*
X357088Y266501D01*
X357196Y266440D01*
X357302Y266375D01*
X357406Y266307D01*
X357507Y266235D01*
X357607Y266161D01*
X357703Y266083D01*
X357798Y266003D01*
X357890Y265919D01*
X357979Y265833D01*
X358065Y265744D01*
X358149Y265652D01*
X358229Y265557D01*
X358307Y265461D01*
X358381Y265361D01*
X358453Y265260D01*
X358521Y265156D01*
X358586Y265050D01*
X358647Y264942D01*
X358705Y264833D01*
X358760Y264721D01*
X358811Y264608D01*
X358859Y264493D01*
X358902Y264377D01*
X358943Y264260D01*
X358979Y264141D01*
X359012Y264022D01*
X359041Y263901D01*
X359066Y263779D01*
X359087Y263657D01*
X359105Y263534D01*
X359118Y263411D01*
X359128Y263287D01*
X359134Y263163D01*
X359136Y263039D01*
X359134Y262915D01*
X359128Y262791D01*
X359118Y262667D01*
X359105Y262544D01*
X359087Y262421D01*
X359066Y262299D01*
X359041Y262177D01*
X359012Y262056D01*
X358979Y261937D01*
X358943Y261818D01*
X358902Y261701D01*
X358859Y261585D01*
X358811Y261470D01*
X358760Y261357D01*
X358705Y261245D01*
X358647Y261136D01*
X358586Y261028D01*
X358521Y260922D01*
X358453Y260818D01*
X358381Y260717D01*
X358307Y260617D01*
X358229Y260521D01*
X358149Y260426D01*
X358065Y260334D01*
X357979Y260245D01*
X357890Y260159D01*
X357798Y260075D01*
X357703Y259995D01*
X357607Y259917D01*
X357507Y259843D01*
X357406Y259771D01*
X357302Y259703D01*
X357196Y259638D01*
X357088Y259577D01*
X356979Y259519D01*
X356867Y259464D01*
X356754Y259413D01*
X356639Y259365D01*
X356523Y259322D01*
X356406Y259281D01*
X356287Y259245D01*
X356168Y259212D01*
X356047Y259183D01*
X355925Y259158D01*
X355803Y259137D01*
X355680Y259119D01*
X355557Y259106D01*
X355433Y259096D01*
X355309Y259090D01*
X355185Y259088D01*
X351234Y259088D01*
X257064Y309970D02*
X257064Y327750D01*
X262003Y327750D01*
X262143Y327748D01*
X262282Y327742D01*
X262422Y327732D01*
X262561Y327718D01*
X262700Y327701D01*
X262838Y327679D01*
X262975Y327653D01*
X263112Y327624D01*
X263248Y327591D01*
X263382Y327554D01*
X263516Y327513D01*
X263648Y327468D01*
X263780Y327419D01*
X263909Y327367D01*
X264037Y327312D01*
X264164Y327252D01*
X264289Y327189D01*
X264412Y327123D01*
X264533Y327053D01*
X264652Y326980D01*
X264769Y326903D01*
X264883Y326823D01*
X264996Y326740D01*
X265106Y326654D01*
X265213Y326564D01*
X265318Y326472D01*
X265420Y326377D01*
X265520Y326279D01*
X265617Y326178D01*
X265711Y326074D01*
X265801Y325968D01*
X265889Y325859D01*
X265974Y325748D01*
X266055Y325634D01*
X266134Y325519D01*
X266209Y325401D01*
X266280Y325281D01*
X266348Y325158D01*
X266413Y325035D01*
X266474Y324909D01*
X266532Y324781D01*
X266586Y324653D01*
X266636Y324522D01*
X266683Y324390D01*
X266726Y324257D01*
X266765Y324123D01*
X266800Y323988D01*
X266831Y323852D01*
X266859Y323714D01*
X266882Y323577D01*
X266902Y323438D01*
X266918Y323299D01*
X266930Y323160D01*
X266938Y323021D01*
X266942Y322881D01*
X266942Y322741D01*
X266938Y322601D01*
X266930Y322462D01*
X266918Y322323D01*
X266902Y322184D01*
X266882Y322045D01*
X266859Y321908D01*
X266831Y321770D01*
X266800Y321634D01*
X266765Y321499D01*
X266726Y321365D01*
X266683Y321232D01*
X266636Y321100D01*
X266586Y320969D01*
X266532Y320841D01*
X266474Y320713D01*
X266413Y320587D01*
X266348Y320464D01*
X266280Y320342D01*
X266209Y320221D01*
X266134Y320103D01*
X266055Y319988D01*
X265974Y319874D01*
X265889Y319763D01*
X265801Y319654D01*
X265711Y319548D01*
X265617Y319444D01*
X265520Y319343D01*
X265420Y319245D01*
X265318Y319150D01*
X265213Y319058D01*
X265106Y318968D01*
X264996Y318882D01*
X264883Y318799D01*
X264769Y318719D01*
X264652Y318642D01*
X264533Y318569D01*
X264412Y318499D01*
X264289Y318433D01*
X264164Y318370D01*
X264037Y318310D01*
X263909Y318255D01*
X263780Y318203D01*
X263648Y318154D01*
X263516Y318109D01*
X263382Y318068D01*
X263248Y318031D01*
X263112Y317998D01*
X262975Y317969D01*
X262838Y317943D01*
X262700Y317921D01*
X262561Y317904D01*
X262422Y317890D01*
X262282Y317880D01*
X262143Y317874D01*
X262003Y317872D01*
X257064Y317872D01*
X273059Y313921D02*
X277010Y327750D01*
X273059Y313921D02*
X282936Y313921D01*
X279973Y317872D02*
X279973Y309970D01*
X282354Y404650D02*
X282354Y422430D01*
X287293Y422430D01*
X287433Y422428D01*
X287572Y422422D01*
X287712Y422412D01*
X287851Y422398D01*
X287990Y422381D01*
X288128Y422359D01*
X288265Y422333D01*
X288402Y422304D01*
X288538Y422271D01*
X288672Y422234D01*
X288806Y422193D01*
X288938Y422148D01*
X289070Y422099D01*
X289199Y422047D01*
X289327Y421992D01*
X289454Y421932D01*
X289579Y421869D01*
X289702Y421803D01*
X289823Y421733D01*
X289942Y421660D01*
X290059Y421583D01*
X290173Y421503D01*
X290286Y421420D01*
X290396Y421334D01*
X290503Y421244D01*
X290608Y421152D01*
X290710Y421057D01*
X290810Y420959D01*
X290907Y420858D01*
X291001Y420754D01*
X291091Y420648D01*
X291179Y420539D01*
X291264Y420428D01*
X291345Y420314D01*
X291424Y420199D01*
X291499Y420081D01*
X291570Y419961D01*
X291638Y419838D01*
X291703Y419715D01*
X291764Y419589D01*
X291822Y419461D01*
X291876Y419333D01*
X291926Y419202D01*
X291973Y419070D01*
X292016Y418937D01*
X292055Y418803D01*
X292090Y418668D01*
X292121Y418532D01*
X292149Y418394D01*
X292172Y418257D01*
X292192Y418118D01*
X292208Y417979D01*
X292220Y417840D01*
X292228Y417701D01*
X292232Y417561D01*
X292232Y417421D01*
X292228Y417281D01*
X292220Y417142D01*
X292208Y417003D01*
X292192Y416864D01*
X292172Y416725D01*
X292149Y416588D01*
X292121Y416450D01*
X292090Y416314D01*
X292055Y416179D01*
X292016Y416045D01*
X291973Y415912D01*
X291926Y415780D01*
X291876Y415649D01*
X291822Y415521D01*
X291764Y415393D01*
X291703Y415267D01*
X291638Y415144D01*
X291570Y415022D01*
X291499Y414901D01*
X291424Y414783D01*
X291345Y414668D01*
X291264Y414554D01*
X291179Y414443D01*
X291091Y414334D01*
X291001Y414228D01*
X290907Y414124D01*
X290810Y414023D01*
X290710Y413925D01*
X290608Y413830D01*
X290503Y413738D01*
X290396Y413648D01*
X290286Y413562D01*
X290173Y413479D01*
X290059Y413399D01*
X289942Y413322D01*
X289823Y413249D01*
X289702Y413179D01*
X289579Y413113D01*
X289454Y413050D01*
X289327Y412990D01*
X289199Y412935D01*
X289070Y412883D01*
X288938Y412834D01*
X288806Y412789D01*
X288672Y412748D01*
X288538Y412711D01*
X288402Y412678D01*
X288265Y412649D01*
X288128Y412623D01*
X287990Y412601D01*
X287851Y412584D01*
X287712Y412570D01*
X287572Y412560D01*
X287433Y412554D01*
X287293Y412552D01*
X282354Y412552D01*
X298349Y404650D02*
X304275Y404650D01*
X304399Y404652D01*
X304523Y404658D01*
X304647Y404668D01*
X304770Y404681D01*
X304893Y404699D01*
X305015Y404720D01*
X305137Y404745D01*
X305258Y404774D01*
X305377Y404807D01*
X305496Y404843D01*
X305613Y404884D01*
X305729Y404927D01*
X305844Y404975D01*
X305957Y405026D01*
X306069Y405081D01*
X306178Y405139D01*
X306286Y405200D01*
X306392Y405265D01*
X306496Y405333D01*
X306597Y405405D01*
X306697Y405479D01*
X306793Y405557D01*
X306888Y405637D01*
X306980Y405721D01*
X307069Y405807D01*
X307155Y405896D01*
X307239Y405988D01*
X307319Y406083D01*
X307397Y406179D01*
X307471Y406279D01*
X307543Y406380D01*
X307611Y406484D01*
X307676Y406590D01*
X307737Y406698D01*
X307795Y406807D01*
X307850Y406919D01*
X307901Y407032D01*
X307949Y407147D01*
X307992Y407263D01*
X308033Y407380D01*
X308069Y407499D01*
X308102Y407618D01*
X308131Y407739D01*
X308156Y407861D01*
X308177Y407983D01*
X308195Y408106D01*
X308208Y408229D01*
X308218Y408353D01*
X308224Y408477D01*
X308226Y408601D01*
X308226Y410577D01*
X308224Y410701D01*
X308218Y410825D01*
X308208Y410949D01*
X308195Y411072D01*
X308177Y411195D01*
X308156Y411317D01*
X308131Y411439D01*
X308102Y411560D01*
X308069Y411679D01*
X308033Y411798D01*
X307992Y411915D01*
X307949Y412031D01*
X307901Y412146D01*
X307850Y412259D01*
X307795Y412371D01*
X307737Y412480D01*
X307676Y412588D01*
X307611Y412694D01*
X307543Y412798D01*
X307471Y412899D01*
X307397Y412999D01*
X307319Y413095D01*
X307239Y413190D01*
X307155Y413282D01*
X307069Y413371D01*
X306980Y413457D01*
X306888Y413541D01*
X306793Y413621D01*
X306697Y413699D01*
X306597Y413773D01*
X306496Y413845D01*
X306392Y413913D01*
X306286Y413978D01*
X306178Y414039D01*
X306069Y414097D01*
X305957Y414152D01*
X305844Y414203D01*
X305729Y414251D01*
X305613Y414294D01*
X305496Y414335D01*
X305377Y414371D01*
X305258Y414404D01*
X305137Y414433D01*
X305015Y414458D01*
X304893Y414479D01*
X304770Y414497D01*
X304647Y414510D01*
X304523Y414520D01*
X304399Y414526D01*
X304275Y414528D01*
X298349Y414528D01*
X298349Y422430D01*
X308226Y422430D01*
D12*
X289392Y263878D03*
D13*
X288877Y264025D03*
D14*
X288287Y264173D03*
D15*
X287846Y264320D03*
D16*
X287330Y264467D03*
D17*
X286888Y264615D03*
D18*
X286299Y264762D03*
D19*
X285783Y264909D03*
D20*
X285341Y265057D03*
D21*
X284899Y265204D03*
D22*
X284825Y265351D03*
D23*
X284899Y265499D03*
D24*
X284973Y265646D03*
D25*
X284899Y265793D03*
D26*
X284973Y265941D03*
D27*
X284973Y266088D03*
D28*
X285046Y266235D03*
X285046Y266383D03*
D29*
X285046Y266530D03*
D30*
X285120Y266677D03*
D31*
X285120Y266824D03*
X285120Y266972D03*
D32*
X285194Y267119D03*
D33*
X285194Y267266D03*
D34*
X285267Y267414D03*
D35*
X285194Y267561D03*
D36*
X285267Y267708D03*
D37*
X285341Y267856D03*
D38*
X285341Y268003D03*
X285341Y268150D03*
D39*
X285415Y268298D03*
D40*
X285415Y268445D03*
D41*
X285488Y268592D03*
D42*
X285415Y268740D03*
D43*
X285488Y268887D03*
D44*
X285562Y269034D03*
D45*
X285562Y269182D03*
X285562Y269329D03*
D46*
X285562Y269476D03*
D47*
X285636Y269624D03*
X285636Y269771D03*
D48*
X285636Y269918D03*
D49*
X285709Y270066D03*
D50*
X285709Y270213D03*
X285709Y270360D03*
D51*
X285783Y270507D03*
D52*
X285783Y270655D03*
D53*
X285857Y270802D03*
D54*
X285783Y270949D03*
D55*
X285857Y271097D03*
D56*
X285930Y271244D03*
D57*
X306408Y271244D03*
D58*
X285930Y271391D03*
D59*
X305819Y271391D03*
D58*
X285930Y271539D03*
D60*
X305377Y271539D03*
D61*
X285930Y271686D03*
D62*
X304861Y271686D03*
D63*
X286004Y271833D03*
D64*
X304419Y271833D03*
D63*
X286004Y271981D03*
D65*
X303830Y271981D03*
D66*
X285930Y272128D03*
D67*
X303388Y272128D03*
D66*
X285930Y272275D03*
D68*
X302872Y272275D03*
D63*
X285857Y272423D03*
D69*
X302430Y272423D03*
D66*
X285783Y272570D03*
D21*
X302283Y272570D03*
D66*
X285783Y272717D03*
D23*
X302283Y272717D03*
D66*
X285636Y272865D03*
D24*
X302357Y272865D03*
D66*
X285636Y273012D03*
D25*
X302430Y273012D03*
D63*
X285562Y273159D03*
D26*
X302357Y273159D03*
D66*
X285488Y273307D03*
D70*
X302430Y273307D03*
D66*
X285488Y273454D03*
D28*
X302430Y273454D03*
D66*
X285341Y273601D03*
D71*
X302504Y273601D03*
D66*
X285341Y273749D03*
D71*
X302504Y273749D03*
D63*
X285267Y273896D03*
D30*
X302504Y273896D03*
D66*
X285194Y274043D03*
D72*
X302578Y274043D03*
D66*
X285194Y274190D03*
D32*
X302578Y274190D03*
D66*
X285046Y274338D03*
D32*
X302578Y274338D03*
D66*
X285046Y274485D03*
D73*
X302651Y274485D03*
D63*
X284973Y274632D03*
D34*
X302651Y274632D03*
D61*
X285046Y274780D03*
D35*
X302725Y274780D03*
D61*
X285046Y274927D03*
D36*
X302651Y274927D03*
D74*
X285046Y275074D03*
D75*
X302725Y275074D03*
D76*
X285120Y275222D03*
D77*
X302798Y275222D03*
D55*
X285120Y275369D03*
D78*
X302798Y275369D03*
D55*
X285120Y275516D03*
D78*
X302798Y275516D03*
D54*
X285194Y275664D03*
D79*
X302872Y275664D03*
D52*
X285194Y275811D03*
D41*
X302872Y275811D03*
D80*
X285267Y275958D03*
D41*
X302872Y275958D03*
D51*
X285194Y276106D03*
D43*
X302872Y276106D03*
D81*
X285267Y276253D03*
D44*
X302946Y276253D03*
D82*
X285341Y276400D03*
D83*
X303019Y276400D03*
D48*
X285341Y276548D03*
D84*
X302946Y276548D03*
D48*
X285341Y276695D03*
D85*
X303019Y276695D03*
D86*
X285415Y276842D03*
D47*
X303019Y276842D03*
D46*
X285415Y276990D03*
D86*
X303093Y276990D03*
D46*
X285415Y277137D03*
D86*
X303093Y277137D03*
D84*
X285415Y277284D03*
D49*
X303093Y277284D03*
D87*
X285488Y277432D03*
D82*
X303167Y277432D03*
D44*
X285562Y277579D03*
D51*
X303167Y277579D03*
D43*
X285488Y277726D03*
D51*
X303167Y277726D03*
D42*
X285562Y277873D03*
D80*
X303240Y277873D03*
D40*
X285562Y278021D03*
D53*
X303240Y278021D03*
D79*
X285636Y278168D03*
D54*
X303314Y278168D03*
D79*
X285636Y278315D03*
D55*
X303240Y278315D03*
D88*
X285636Y278463D03*
D89*
X303314Y278463D03*
D77*
X285709Y278610D03*
D76*
X303388Y278610D03*
D36*
X285709Y278757D03*
D90*
X303388Y278757D03*
D36*
X285709Y278905D03*
D90*
X303388Y278905D03*
D35*
X285783Y279052D03*
D63*
X303388Y279052D03*
D33*
X285783Y279199D03*
D66*
X303461Y279199D03*
D73*
X285857Y279347D03*
D63*
X303388Y279347D03*
D32*
X285783Y279494D03*
D66*
X303314Y279494D03*
D91*
X285857Y279641D03*
D66*
X303314Y279641D03*
D92*
X285930Y279789D03*
D63*
X303240Y279789D03*
D29*
X285930Y279936D03*
D66*
X303167Y279936D03*
D29*
X285930Y280083D03*
D66*
X303167Y280083D03*
D71*
X286004Y280231D03*
D66*
X303019Y280231D03*
D27*
X286004Y280378D03*
D66*
X303019Y280378D03*
D70*
X286078Y280525D03*
D63*
X302946Y280525D03*
D93*
X286004Y280673D03*
D66*
X302872Y280673D03*
D25*
X286078Y280820D03*
D66*
X302872Y280820D03*
D24*
X286151Y280967D03*
D66*
X302725Y280967D03*
D23*
X286078Y281115D03*
D66*
X302725Y281115D03*
D22*
X286151Y281262D03*
D63*
X302651Y281262D03*
D69*
X286078Y281409D03*
D66*
X302578Y281409D03*
D94*
X285562Y281556D03*
D66*
X302578Y281556D03*
D67*
X284973Y281704D03*
D66*
X302430Y281704D03*
D65*
X284531Y281851D03*
D66*
X302430Y281851D03*
D95*
X284015Y281998D03*
D61*
X302430Y281998D03*
D96*
X283573Y282146D03*
D90*
X302504Y282146D03*
D60*
X282984Y282293D03*
D90*
X302504Y282293D03*
D97*
X282468Y282440D03*
D98*
X302504Y282440D03*
D99*
X282026Y282588D03*
D56*
X302578Y282588D03*
D100*
X291823Y282735D03*
D55*
X302504Y282735D03*
D101*
X291308Y282882D03*
D54*
X302578Y282882D03*
D14*
X290792Y283030D03*
D53*
X302651Y283030D03*
D102*
X290276Y283177D03*
D80*
X302651Y283177D03*
D16*
X289834Y283324D03*
D80*
X302651Y283324D03*
D103*
X289319Y283472D03*
D81*
X302651Y283472D03*
D18*
X288803Y283619D03*
D104*
X302725Y283619D03*
D19*
X288287Y283766D03*
D49*
X302798Y283766D03*
D105*
X287772Y283914D03*
D48*
X302725Y283914D03*
D106*
X287330Y284061D03*
D86*
X302798Y284061D03*
D22*
X287330Y284208D03*
D47*
X302872Y284208D03*
D23*
X287404Y284356D03*
D85*
X302872Y284356D03*
D24*
X287477Y284503D03*
D85*
X302872Y284503D03*
D25*
X287404Y284650D03*
D87*
X302872Y284650D03*
D26*
X287477Y284798D03*
D44*
X302946Y284798D03*
D107*
X287477Y284945D03*
D43*
X303019Y284945D03*
D28*
X287551Y285092D03*
D42*
X302946Y285092D03*
D28*
X287551Y285239D03*
D41*
X303019Y285239D03*
D29*
X287551Y285387D03*
D79*
X303019Y285387D03*
D30*
X287625Y285534D03*
D39*
X303093Y285534D03*
D31*
X287625Y285681D03*
D39*
X303093Y285681D03*
D31*
X287625Y285829D03*
D108*
X303093Y285829D03*
D32*
X287698Y285976D03*
D75*
X303167Y285976D03*
D33*
X287698Y286123D03*
D35*
X303167Y286123D03*
D34*
X287772Y286271D03*
D35*
X303167Y286271D03*
X287698Y286418D03*
D34*
X303240Y286418D03*
D36*
X287772Y286565D03*
D73*
X303240Y286565D03*
D75*
X287846Y286713D03*
D73*
X303240Y286713D03*
D38*
X287846Y286860D03*
D91*
X303240Y286860D03*
D38*
X287846Y287007D03*
D72*
X303314Y287007D03*
D79*
X287846Y287155D03*
D30*
X303388Y287155D03*
D40*
X287919Y287302D03*
D29*
X303314Y287302D03*
D41*
X287993Y287449D03*
D71*
X303388Y287449D03*
D42*
X287919Y287597D03*
D27*
X303388Y287597D03*
D43*
X287993Y287744D03*
D109*
X303461Y287744D03*
D87*
X287993Y287891D03*
D109*
X303461Y287891D03*
D45*
X288066Y288039D03*
D25*
X303461Y288039D03*
D45*
X288066Y288186D03*
D24*
X303535Y288186D03*
D46*
X288066Y288333D03*
D23*
X303609Y288333D03*
D47*
X288140Y288481D03*
D22*
X303535Y288481D03*
D47*
X288140Y288628D03*
D106*
X303535Y288628D03*
D48*
X288140Y288775D03*
D110*
X303093Y288775D03*
D49*
X288214Y288922D03*
D111*
X302578Y288922D03*
D50*
X288214Y289070D03*
D18*
X302062Y289070D03*
D50*
X288214Y289217D03*
D112*
X301546Y289217D03*
D51*
X288287Y289364D03*
D113*
X301104Y289364D03*
D52*
X288287Y289512D03*
D114*
X300589Y289512D03*
D53*
X288361Y289659D03*
D14*
X300073Y289659D03*
D54*
X288287Y289806D03*
D115*
X299557Y289806D03*
D55*
X288361Y289954D03*
D12*
X299115Y289954D03*
D56*
X288435Y290101D03*
D58*
X288435Y290248D03*
X288435Y290396D03*
D61*
X288435Y290543D03*
D63*
X288508Y290690D03*
X288508Y290838D03*
D66*
X288435Y290985D03*
X288435Y291132D03*
X288287Y291280D03*
X288287Y291427D03*
D63*
X288214Y291574D03*
D66*
X288140Y291722D03*
X288140Y291869D03*
X287993Y292016D03*
X287993Y292164D03*
D63*
X287919Y292311D03*
D66*
X287846Y292458D03*
X287846Y292605D03*
D63*
X287772Y292753D03*
D66*
X287698Y292900D03*
X287698Y293047D03*
X287551Y293195D03*
X287551Y293342D03*
D63*
X287477Y293489D03*
D61*
X287551Y293637D03*
X287551Y293784D03*
D74*
X287551Y293931D03*
D76*
X287625Y294079D03*
D55*
X287625Y294226D03*
X287625Y294373D03*
D54*
X287698Y294521D03*
D52*
X287698Y294668D03*
D80*
X287772Y294815D03*
D51*
X287698Y294963D03*
D81*
X287772Y295110D03*
D82*
X287846Y295257D03*
D116*
X287772Y295405D03*
D48*
X287846Y295552D03*
D47*
X287846Y295699D03*
D46*
X287919Y295847D03*
X287919Y295994D03*
D84*
X287919Y296141D03*
D87*
X287993Y296288D03*
D43*
X287993Y296436D03*
X287993Y296583D03*
D42*
X288066Y296730D03*
D40*
X288066Y296878D03*
D79*
X288140Y297025D03*
X288140Y297172D03*
D88*
X288140Y297320D03*
D77*
X288214Y297467D03*
D36*
X288214Y297614D03*
X288214Y297762D03*
D35*
X288287Y297909D03*
D33*
X288287Y298056D03*
D73*
X288361Y298204D03*
D32*
X288287Y298351D03*
D91*
X288361Y298498D03*
D92*
X288435Y298646D03*
D29*
X288435Y298793D03*
X288435Y298940D03*
D28*
X288435Y299088D03*
D27*
X288508Y299235D03*
D70*
X288582Y299382D03*
D93*
X288508Y299530D03*
D25*
X288582Y299677D03*
D23*
X288582Y299824D03*
X288582Y299971D03*
D22*
X288656Y300119D03*
D117*
X288508Y300266D03*
D118*
X287993Y300413D03*
D67*
X287477Y300561D03*
D119*
X286962Y300708D03*
D95*
X286520Y300855D03*
D120*
X286004Y301003D03*
D60*
X285488Y301150D03*
D97*
X284973Y301297D03*
D121*
X284457Y301445D03*
D11*
X372873Y304035D02*
X372873Y324164D01*
D122*
X359963Y310179D02*
X357875Y310179D01*
X357786Y310181D01*
X357698Y310187D01*
X357610Y310196D01*
X357522Y310209D01*
X357435Y310226D01*
X357349Y310246D01*
X357264Y310271D01*
X357179Y310298D01*
X357096Y310330D01*
X357015Y310364D01*
X356935Y310403D01*
X356857Y310444D01*
X356780Y310489D01*
X356706Y310537D01*
X356633Y310588D01*
X356563Y310642D01*
X356496Y310700D01*
X356430Y310760D01*
X356368Y310822D01*
X356308Y310888D01*
X356250Y310955D01*
X356196Y311025D01*
X356145Y311098D01*
X356097Y311172D01*
X356052Y311249D01*
X356011Y311327D01*
X355972Y311407D01*
X355938Y311488D01*
X355906Y311571D01*
X355879Y311656D01*
X355854Y311741D01*
X355834Y311827D01*
X355817Y311914D01*
X355804Y312002D01*
X355795Y312090D01*
X355789Y312178D01*
X355787Y312267D01*
X355786Y312267D02*
X355786Y317489D01*
X355787Y317489D02*
X355789Y317580D01*
X355795Y317671D01*
X355805Y317762D01*
X355819Y317852D01*
X355836Y317941D01*
X355858Y318029D01*
X355884Y318117D01*
X355913Y318203D01*
X355946Y318288D01*
X355983Y318371D01*
X356023Y318453D01*
X356067Y318533D01*
X356114Y318611D01*
X356165Y318687D01*
X356218Y318760D01*
X356275Y318831D01*
X356336Y318900D01*
X356399Y318965D01*
X356464Y319028D01*
X356533Y319088D01*
X356604Y319146D01*
X356677Y319199D01*
X356753Y319250D01*
X356831Y319297D01*
X356911Y319341D01*
X356993Y319381D01*
X357076Y319418D01*
X357161Y319451D01*
X357247Y319480D01*
X357335Y319506D01*
X357423Y319528D01*
X357512Y319545D01*
X357602Y319559D01*
X357693Y319569D01*
X357784Y319575D01*
X357875Y319577D01*
X359963Y319577D01*
X366304Y319578D02*
X366399Y319576D01*
X366493Y319570D01*
X366587Y319561D01*
X366681Y319548D01*
X366774Y319531D01*
X366866Y319510D01*
X366958Y319485D01*
X367048Y319457D01*
X367137Y319425D01*
X367225Y319390D01*
X367311Y319351D01*
X367396Y319309D01*
X367479Y319263D01*
X367560Y319214D01*
X367639Y319162D01*
X367716Y319107D01*
X367790Y319048D01*
X367862Y318987D01*
X367932Y318923D01*
X367999Y318856D01*
X368063Y318786D01*
X368124Y318714D01*
X368183Y318640D01*
X368238Y318563D01*
X368290Y318484D01*
X368339Y318403D01*
X368385Y318320D01*
X368427Y318235D01*
X368466Y318149D01*
X368501Y318061D01*
X368533Y317972D01*
X368561Y317882D01*
X368586Y317790D01*
X368607Y317698D01*
X368624Y317605D01*
X368637Y317511D01*
X368646Y317417D01*
X368652Y317323D01*
X368654Y317228D01*
X366304Y319577D02*
X366196Y319575D01*
X366087Y319569D01*
X365979Y319559D01*
X365872Y319546D01*
X365765Y319528D01*
X365658Y319507D01*
X365553Y319482D01*
X365448Y319453D01*
X365345Y319421D01*
X365243Y319384D01*
X365142Y319344D01*
X365043Y319301D01*
X364945Y319254D01*
X364849Y319203D01*
X364755Y319149D01*
X364663Y319092D01*
X364573Y319031D01*
X364485Y318967D01*
X364400Y318901D01*
X364317Y318831D01*
X364237Y318758D01*
X364159Y318682D01*
X364084Y318604D01*
X364012Y318523D01*
X363943Y318439D01*
X363877Y318353D01*
X363814Y318265D01*
X363755Y318174D01*
X363698Y318082D01*
X363645Y317987D01*
X363596Y317891D01*
X363550Y317792D01*
X363507Y317693D01*
X363468Y317591D01*
X363433Y317489D01*
X367871Y315400D02*
X367940Y315469D01*
X368006Y315540D01*
X368070Y315613D01*
X368131Y315689D01*
X368189Y315768D01*
X368243Y315848D01*
X368295Y315931D01*
X368343Y316015D01*
X368389Y316101D01*
X368430Y316189D01*
X368469Y316279D01*
X368504Y316370D01*
X368535Y316462D01*
X368563Y316555D01*
X368587Y316649D01*
X368607Y316744D01*
X368624Y316840D01*
X368637Y316937D01*
X368646Y317034D01*
X368652Y317131D01*
X368654Y317228D01*
X367870Y315400D02*
X363432Y310179D01*
X368653Y310179D01*
D123*
X259271Y361718D02*
X256771Y361718D01*
X259271Y361718D02*
X261771Y361718D01*
X259271Y361718D02*
X256771Y366718D01*
X261771Y366718D02*
X259271Y361718D01*
X261771Y366718D02*
X256771Y366718D01*
X254271Y376718D02*
X264271Y376718D01*
X264271Y351718D01*
X254271Y351718D01*
X254271Y376718D01*
D122*
X251482Y357656D02*
X242084Y357656D01*
X242084Y360267D01*
X242083Y360267D02*
X242085Y360367D01*
X242091Y360467D01*
X242100Y360566D01*
X242114Y360666D01*
X242131Y360764D01*
X242152Y360862D01*
X242176Y360959D01*
X242205Y361055D01*
X242237Y361150D01*
X242272Y361243D01*
X242311Y361335D01*
X242354Y361426D01*
X242400Y361514D01*
X242450Y361601D01*
X242502Y361686D01*
X242558Y361769D01*
X242617Y361850D01*
X242680Y361928D01*
X242745Y362004D01*
X242813Y362078D01*
X242883Y362148D01*
X242957Y362216D01*
X243033Y362281D01*
X243111Y362344D01*
X243192Y362403D01*
X243275Y362459D01*
X243360Y362511D01*
X243447Y362561D01*
X243535Y362607D01*
X243626Y362650D01*
X243718Y362689D01*
X243811Y362724D01*
X243906Y362756D01*
X244002Y362785D01*
X244099Y362809D01*
X244197Y362830D01*
X244295Y362847D01*
X244395Y362861D01*
X244494Y362870D01*
X244594Y362876D01*
X244694Y362878D01*
X244694Y362877D02*
X248871Y362877D01*
X248871Y362878D02*
X248971Y362876D01*
X249071Y362870D01*
X249170Y362861D01*
X249270Y362847D01*
X249368Y362830D01*
X249466Y362809D01*
X249563Y362785D01*
X249659Y362756D01*
X249754Y362724D01*
X249847Y362689D01*
X249939Y362650D01*
X250030Y362607D01*
X250118Y362561D01*
X250205Y362511D01*
X250290Y362459D01*
X250373Y362403D01*
X250454Y362344D01*
X250532Y362281D01*
X250608Y362216D01*
X250682Y362148D01*
X250752Y362078D01*
X250820Y362004D01*
X250885Y361928D01*
X250948Y361850D01*
X251007Y361769D01*
X251063Y361686D01*
X251115Y361601D01*
X251165Y361514D01*
X251211Y361426D01*
X251254Y361335D01*
X251293Y361243D01*
X251328Y361150D01*
X251360Y361055D01*
X251389Y360959D01*
X251413Y360862D01*
X251434Y360764D01*
X251451Y360666D01*
X251465Y360566D01*
X251474Y360467D01*
X251480Y360367D01*
X251482Y360267D01*
X251482Y357656D01*
X244172Y367105D02*
X242084Y369715D01*
X251482Y369715D01*
X251482Y367105D02*
X251482Y372326D01*
X396961Y279352D02*
X406359Y279352D01*
X396961Y279352D02*
X396961Y283529D01*
X401138Y283529D02*
X401138Y279352D01*
X401138Y287390D02*
X401138Y290001D01*
X401140Y290102D01*
X401146Y290203D01*
X401156Y290304D01*
X401169Y290404D01*
X401187Y290504D01*
X401208Y290603D01*
X401234Y290701D01*
X401263Y290798D01*
X401295Y290894D01*
X401332Y290988D01*
X401372Y291081D01*
X401416Y291173D01*
X401463Y291262D01*
X401514Y291350D01*
X401568Y291436D01*
X401625Y291519D01*
X401685Y291601D01*
X401749Y291679D01*
X401815Y291756D01*
X401885Y291829D01*
X401957Y291900D01*
X402032Y291968D01*
X402110Y292033D01*
X402190Y292095D01*
X402272Y292154D01*
X402357Y292210D01*
X402444Y292262D01*
X402532Y292311D01*
X402623Y292357D01*
X402715Y292398D01*
X402809Y292437D01*
X402904Y292471D01*
X403000Y292502D01*
X403098Y292529D01*
X403196Y292553D01*
X403296Y292572D01*
X403396Y292588D01*
X403496Y292600D01*
X403597Y292608D01*
X403698Y292612D01*
X403800Y292612D01*
X403901Y292608D01*
X404002Y292600D01*
X404102Y292588D01*
X404202Y292572D01*
X404302Y292553D01*
X404400Y292529D01*
X404498Y292502D01*
X404594Y292471D01*
X404689Y292437D01*
X404783Y292398D01*
X404875Y292357D01*
X404966Y292311D01*
X405055Y292262D01*
X405141Y292210D01*
X405226Y292154D01*
X405308Y292095D01*
X405388Y292033D01*
X405466Y291968D01*
X405541Y291900D01*
X405613Y291829D01*
X405683Y291756D01*
X405749Y291679D01*
X405813Y291601D01*
X405873Y291519D01*
X405930Y291436D01*
X405984Y291350D01*
X406035Y291262D01*
X406082Y291173D01*
X406126Y291081D01*
X406166Y290988D01*
X406203Y290894D01*
X406235Y290798D01*
X406264Y290701D01*
X406290Y290603D01*
X406311Y290504D01*
X406329Y290404D01*
X406342Y290304D01*
X406352Y290203D01*
X406358Y290102D01*
X406360Y290001D01*
X406359Y290001D02*
X406359Y287390D01*
X396961Y287390D01*
X396961Y290001D01*
X396962Y290001D02*
X396964Y290091D01*
X396970Y290180D01*
X396979Y290270D01*
X396993Y290359D01*
X397010Y290447D01*
X397031Y290534D01*
X397056Y290621D01*
X397085Y290706D01*
X397117Y290790D01*
X397152Y290872D01*
X397192Y290953D01*
X397234Y291032D01*
X397280Y291109D01*
X397330Y291184D01*
X397382Y291257D01*
X397438Y291328D01*
X397496Y291396D01*
X397558Y291461D01*
X397622Y291524D01*
X397689Y291584D01*
X397758Y291641D01*
X397830Y291695D01*
X397904Y291746D01*
X397980Y291794D01*
X398058Y291838D01*
X398138Y291879D01*
X398220Y291917D01*
X398303Y291951D01*
X398388Y291981D01*
X398474Y292008D01*
X398560Y292031D01*
X398648Y292050D01*
X398737Y292065D01*
X398826Y292077D01*
X398915Y292085D01*
X399005Y292089D01*
X399095Y292089D01*
X399185Y292085D01*
X399274Y292077D01*
X399363Y292065D01*
X399452Y292050D01*
X399540Y292031D01*
X399626Y292008D01*
X399712Y291981D01*
X399797Y291951D01*
X399880Y291917D01*
X399962Y291879D01*
X400042Y291838D01*
X400120Y291794D01*
X400196Y291746D01*
X400270Y291695D01*
X400342Y291641D01*
X400411Y291584D01*
X400478Y291524D01*
X400542Y291461D01*
X400604Y291396D01*
X400662Y291328D01*
X400718Y291257D01*
X400770Y291184D01*
X400820Y291109D01*
X400866Y291032D01*
X400908Y290953D01*
X400948Y290872D01*
X400983Y290790D01*
X401015Y290706D01*
X401044Y290621D01*
X401069Y290534D01*
X401090Y290447D01*
X401107Y290359D01*
X401121Y290270D01*
X401130Y290180D01*
X401136Y290091D01*
X401138Y290001D01*
X399050Y296098D02*
X396961Y298709D01*
X406359Y298709D01*
X406359Y301319D02*
X406359Y296098D01*
X261163Y395208D02*
X261163Y404606D01*
X263773Y404606D01*
X263874Y404604D01*
X263975Y404598D01*
X264076Y404588D01*
X264176Y404575D01*
X264276Y404557D01*
X264375Y404536D01*
X264473Y404510D01*
X264570Y404481D01*
X264666Y404449D01*
X264760Y404412D01*
X264853Y404372D01*
X264945Y404328D01*
X265034Y404281D01*
X265122Y404230D01*
X265208Y404176D01*
X265291Y404119D01*
X265373Y404059D01*
X265451Y403995D01*
X265528Y403929D01*
X265601Y403859D01*
X265672Y403787D01*
X265740Y403712D01*
X265805Y403634D01*
X265867Y403554D01*
X265926Y403472D01*
X265982Y403387D01*
X266034Y403300D01*
X266083Y403212D01*
X266129Y403121D01*
X266170Y403029D01*
X266209Y402935D01*
X266243Y402840D01*
X266274Y402744D01*
X266301Y402646D01*
X266325Y402548D01*
X266344Y402448D01*
X266360Y402348D01*
X266372Y402248D01*
X266380Y402147D01*
X266384Y402046D01*
X266384Y401944D01*
X266380Y401843D01*
X266372Y401742D01*
X266360Y401642D01*
X266344Y401542D01*
X266325Y401442D01*
X266301Y401344D01*
X266274Y401246D01*
X266243Y401150D01*
X266209Y401055D01*
X266170Y400961D01*
X266129Y400869D01*
X266083Y400778D01*
X266034Y400690D01*
X265982Y400603D01*
X265926Y400518D01*
X265867Y400436D01*
X265805Y400356D01*
X265740Y400278D01*
X265672Y400203D01*
X265601Y400131D01*
X265528Y400061D01*
X265451Y399995D01*
X265373Y399931D01*
X265291Y399871D01*
X265208Y399814D01*
X265122Y399760D01*
X265034Y399709D01*
X264945Y399662D01*
X264853Y399618D01*
X264760Y399578D01*
X264666Y399541D01*
X264570Y399509D01*
X264473Y399480D01*
X264375Y399454D01*
X264276Y399433D01*
X264176Y399415D01*
X264076Y399402D01*
X263975Y399392D01*
X263874Y399386D01*
X263773Y399384D01*
X263773Y399385D02*
X261163Y399385D01*
X264295Y399385D02*
X266384Y395208D01*
X270250Y402517D02*
X272860Y404606D01*
X272860Y395208D01*
X270250Y395208D02*
X275471Y395208D01*
D11*
X334178Y408320D02*
X334178Y426100D01*
X339117Y426100D01*
X339256Y426098D01*
X339394Y426092D01*
X339532Y426083D01*
X339670Y426069D01*
X339807Y426052D01*
X339944Y426030D01*
X340081Y426005D01*
X340216Y425976D01*
X340351Y425943D01*
X340484Y425907D01*
X340617Y425867D01*
X340748Y425823D01*
X340878Y425775D01*
X341007Y425724D01*
X341134Y425669D01*
X341260Y425611D01*
X341384Y425549D01*
X341506Y425484D01*
X341626Y425415D01*
X341745Y425343D01*
X341861Y425268D01*
X341975Y425189D01*
X342087Y425107D01*
X342196Y425022D01*
X342304Y424935D01*
X342408Y424844D01*
X342510Y424750D01*
X342609Y424653D01*
X342706Y424554D01*
X342800Y424452D01*
X342891Y424348D01*
X342978Y424240D01*
X343063Y424131D01*
X343145Y424019D01*
X343224Y423905D01*
X343299Y423789D01*
X343371Y423670D01*
X343440Y423550D01*
X343505Y423428D01*
X343567Y423304D01*
X343625Y423178D01*
X343680Y423051D01*
X343731Y422922D01*
X343779Y422792D01*
X343823Y422661D01*
X343863Y422528D01*
X343899Y422395D01*
X343932Y422260D01*
X343961Y422125D01*
X343986Y421988D01*
X344008Y421851D01*
X344025Y421714D01*
X344039Y421576D01*
X344048Y421438D01*
X344054Y421300D01*
X344056Y421161D01*
X344055Y421161D02*
X344055Y413259D01*
X344056Y413259D02*
X344054Y413120D01*
X344048Y412982D01*
X344039Y412844D01*
X344025Y412706D01*
X344008Y412569D01*
X343986Y412432D01*
X343961Y412295D01*
X343932Y412160D01*
X343899Y412025D01*
X343863Y411892D01*
X343823Y411759D01*
X343779Y411628D01*
X343731Y411498D01*
X343680Y411369D01*
X343625Y411242D01*
X343567Y411116D01*
X343505Y410992D01*
X343440Y410870D01*
X343371Y410750D01*
X343299Y410631D01*
X343224Y410515D01*
X343145Y410401D01*
X343063Y410289D01*
X342978Y410180D01*
X342891Y410072D01*
X342800Y409968D01*
X342706Y409866D01*
X342609Y409767D01*
X342510Y409670D01*
X342408Y409576D01*
X342304Y409485D01*
X342196Y409398D01*
X342087Y409313D01*
X341975Y409231D01*
X341861Y409152D01*
X341745Y409077D01*
X341626Y409005D01*
X341506Y408936D01*
X341384Y408871D01*
X341260Y408809D01*
X341134Y408751D01*
X341007Y408696D01*
X340878Y408645D01*
X340748Y408597D01*
X340617Y408553D01*
X340484Y408513D01*
X340351Y408477D01*
X340216Y408444D01*
X340081Y408415D01*
X339944Y408390D01*
X339807Y408368D01*
X339670Y408351D01*
X339532Y408337D01*
X339394Y408328D01*
X339256Y408322D01*
X339117Y408320D01*
X334178Y408320D01*
X339206Y435900D02*
X343157Y435900D01*
X339206Y435900D02*
X339082Y435902D01*
X338958Y435908D01*
X338834Y435918D01*
X338711Y435931D01*
X338588Y435949D01*
X338466Y435970D01*
X338344Y435995D01*
X338223Y436024D01*
X338104Y436057D01*
X337985Y436093D01*
X337868Y436134D01*
X337752Y436177D01*
X337637Y436225D01*
X337524Y436276D01*
X337412Y436331D01*
X337303Y436389D01*
X337195Y436450D01*
X337089Y436515D01*
X336985Y436583D01*
X336884Y436655D01*
X336784Y436729D01*
X336688Y436807D01*
X336593Y436887D01*
X336501Y436971D01*
X336412Y437057D01*
X336326Y437146D01*
X336242Y437238D01*
X336162Y437333D01*
X336084Y437429D01*
X336010Y437529D01*
X335938Y437630D01*
X335870Y437734D01*
X335805Y437840D01*
X335744Y437948D01*
X335686Y438057D01*
X335631Y438169D01*
X335580Y438282D01*
X335532Y438397D01*
X335489Y438513D01*
X335448Y438630D01*
X335412Y438749D01*
X335379Y438868D01*
X335350Y438989D01*
X335325Y439111D01*
X335304Y439233D01*
X335286Y439356D01*
X335273Y439479D01*
X335263Y439603D01*
X335257Y439727D01*
X335255Y439851D01*
X335255Y449728D01*
X335257Y449852D01*
X335263Y449976D01*
X335273Y450100D01*
X335286Y450223D01*
X335304Y450346D01*
X335325Y450468D01*
X335350Y450590D01*
X335379Y450711D01*
X335412Y450830D01*
X335448Y450949D01*
X335489Y451066D01*
X335532Y451182D01*
X335580Y451297D01*
X335631Y451410D01*
X335686Y451522D01*
X335744Y451631D01*
X335805Y451739D01*
X335870Y451845D01*
X335938Y451949D01*
X336010Y452050D01*
X336084Y452150D01*
X336162Y452246D01*
X336242Y452341D01*
X336326Y452433D01*
X336412Y452522D01*
X336501Y452608D01*
X336593Y452692D01*
X336688Y452772D01*
X336784Y452850D01*
X336884Y452924D01*
X336985Y452996D01*
X337089Y453064D01*
X337195Y453129D01*
X337303Y453190D01*
X337412Y453248D01*
X337524Y453303D01*
X337637Y453354D01*
X337752Y453402D01*
X337868Y453445D01*
X337985Y453486D01*
X338104Y453522D01*
X338223Y453555D01*
X338344Y453584D01*
X338466Y453609D01*
X338588Y453630D01*
X338711Y453648D01*
X338834Y453661D01*
X338958Y453671D01*
X339082Y453677D01*
X339206Y453679D01*
X339206Y453680D02*
X343157Y453680D01*
X361536Y434893D02*
X366475Y434893D01*
X366615Y434891D01*
X366754Y434885D01*
X366894Y434875D01*
X367033Y434861D01*
X367172Y434844D01*
X367310Y434822D01*
X367447Y434796D01*
X367584Y434767D01*
X367720Y434734D01*
X367854Y434697D01*
X367988Y434656D01*
X368120Y434611D01*
X368252Y434562D01*
X368381Y434510D01*
X368509Y434455D01*
X368636Y434395D01*
X368761Y434332D01*
X368884Y434266D01*
X369005Y434196D01*
X369124Y434123D01*
X369241Y434046D01*
X369355Y433966D01*
X369468Y433883D01*
X369578Y433797D01*
X369685Y433707D01*
X369790Y433615D01*
X369892Y433520D01*
X369992Y433422D01*
X370089Y433321D01*
X370183Y433217D01*
X370273Y433111D01*
X370361Y433002D01*
X370446Y432891D01*
X370527Y432777D01*
X370606Y432662D01*
X370681Y432544D01*
X370752Y432424D01*
X370820Y432301D01*
X370885Y432178D01*
X370946Y432052D01*
X371004Y431924D01*
X371058Y431796D01*
X371108Y431665D01*
X371155Y431533D01*
X371198Y431400D01*
X371237Y431266D01*
X371272Y431131D01*
X371303Y430995D01*
X371331Y430857D01*
X371354Y430720D01*
X371374Y430581D01*
X371390Y430442D01*
X371402Y430303D01*
X371410Y430164D01*
X371414Y430024D01*
X371414Y429884D01*
X371410Y429744D01*
X371402Y429605D01*
X371390Y429466D01*
X371374Y429327D01*
X371354Y429188D01*
X371331Y429051D01*
X371303Y428913D01*
X371272Y428777D01*
X371237Y428642D01*
X371198Y428508D01*
X371155Y428375D01*
X371108Y428243D01*
X371058Y428112D01*
X371004Y427984D01*
X370946Y427856D01*
X370885Y427730D01*
X370820Y427607D01*
X370752Y427485D01*
X370681Y427364D01*
X370606Y427246D01*
X370527Y427131D01*
X370446Y427017D01*
X370361Y426906D01*
X370273Y426797D01*
X370183Y426691D01*
X370089Y426587D01*
X369992Y426486D01*
X369892Y426388D01*
X369790Y426293D01*
X369685Y426201D01*
X369578Y426111D01*
X369468Y426025D01*
X369355Y425942D01*
X369241Y425862D01*
X369124Y425785D01*
X369005Y425712D01*
X368884Y425642D01*
X368761Y425576D01*
X368636Y425513D01*
X368509Y425453D01*
X368381Y425398D01*
X368252Y425346D01*
X368120Y425297D01*
X367988Y425252D01*
X367854Y425211D01*
X367720Y425174D01*
X367584Y425141D01*
X367447Y425112D01*
X367310Y425086D01*
X367172Y425064D01*
X367033Y425047D01*
X366894Y425033D01*
X366754Y425023D01*
X366615Y425017D01*
X366475Y425015D01*
X366475Y425016D02*
X361536Y425016D01*
X361536Y442796D01*
X366475Y442796D01*
X366475Y442795D02*
X366599Y442793D01*
X366723Y442787D01*
X366847Y442777D01*
X366970Y442764D01*
X367093Y442746D01*
X367215Y442725D01*
X367337Y442700D01*
X367458Y442671D01*
X367577Y442638D01*
X367696Y442602D01*
X367813Y442561D01*
X367929Y442518D01*
X368044Y442470D01*
X368157Y442419D01*
X368269Y442364D01*
X368378Y442306D01*
X368486Y442245D01*
X368592Y442180D01*
X368696Y442112D01*
X368797Y442040D01*
X368897Y441966D01*
X368993Y441888D01*
X369088Y441808D01*
X369180Y441724D01*
X369269Y441638D01*
X369355Y441549D01*
X369439Y441457D01*
X369519Y441362D01*
X369597Y441266D01*
X369671Y441166D01*
X369743Y441065D01*
X369811Y440961D01*
X369876Y440855D01*
X369937Y440747D01*
X369995Y440638D01*
X370050Y440526D01*
X370101Y440413D01*
X370149Y440298D01*
X370192Y440182D01*
X370233Y440065D01*
X370269Y439946D01*
X370302Y439827D01*
X370331Y439706D01*
X370356Y439584D01*
X370377Y439462D01*
X370395Y439339D01*
X370408Y439216D01*
X370418Y439092D01*
X370424Y438968D01*
X370426Y438844D01*
X370424Y438720D01*
X370418Y438596D01*
X370408Y438472D01*
X370395Y438349D01*
X370377Y438226D01*
X370356Y438104D01*
X370331Y437982D01*
X370302Y437861D01*
X370269Y437742D01*
X370233Y437623D01*
X370192Y437506D01*
X370149Y437390D01*
X370101Y437275D01*
X370050Y437162D01*
X369995Y437050D01*
X369937Y436941D01*
X369876Y436833D01*
X369811Y436727D01*
X369743Y436623D01*
X369671Y436522D01*
X369597Y436422D01*
X369519Y436326D01*
X369439Y436231D01*
X369355Y436139D01*
X369269Y436050D01*
X369180Y435964D01*
X369088Y435880D01*
X368993Y435800D01*
X368897Y435722D01*
X368797Y435648D01*
X368696Y435576D01*
X368592Y435508D01*
X368486Y435443D01*
X368378Y435382D01*
X368269Y435324D01*
X368157Y435269D01*
X368044Y435218D01*
X367929Y435170D01*
X367813Y435127D01*
X367696Y435086D01*
X367577Y435050D01*
X367458Y435017D01*
X367337Y434988D01*
X367215Y434963D01*
X367093Y434942D01*
X366970Y434924D01*
X366847Y434911D01*
X366723Y434901D01*
X366599Y434895D01*
X366475Y434893D01*
X436784Y389331D02*
X436784Y371551D01*
X436784Y389331D02*
X441722Y389331D01*
X441862Y389329D01*
X442001Y389323D01*
X442141Y389313D01*
X442280Y389299D01*
X442419Y389282D01*
X442557Y389260D01*
X442694Y389234D01*
X442831Y389205D01*
X442967Y389172D01*
X443101Y389135D01*
X443235Y389094D01*
X443367Y389049D01*
X443499Y389000D01*
X443628Y388948D01*
X443756Y388893D01*
X443883Y388833D01*
X444008Y388770D01*
X444131Y388704D01*
X444252Y388634D01*
X444371Y388561D01*
X444488Y388484D01*
X444602Y388404D01*
X444715Y388321D01*
X444825Y388235D01*
X444932Y388145D01*
X445037Y388053D01*
X445139Y387958D01*
X445239Y387860D01*
X445336Y387759D01*
X445430Y387655D01*
X445520Y387549D01*
X445608Y387440D01*
X445693Y387329D01*
X445774Y387215D01*
X445853Y387100D01*
X445928Y386982D01*
X445999Y386862D01*
X446067Y386739D01*
X446132Y386616D01*
X446193Y386490D01*
X446251Y386362D01*
X446305Y386234D01*
X446355Y386103D01*
X446402Y385971D01*
X446445Y385838D01*
X446484Y385704D01*
X446519Y385569D01*
X446550Y385433D01*
X446578Y385295D01*
X446601Y385158D01*
X446621Y385019D01*
X446637Y384880D01*
X446649Y384741D01*
X446657Y384602D01*
X446661Y384462D01*
X446661Y384322D01*
X446657Y384182D01*
X446649Y384043D01*
X446637Y383904D01*
X446621Y383765D01*
X446601Y383626D01*
X446578Y383489D01*
X446550Y383351D01*
X446519Y383215D01*
X446484Y383080D01*
X446445Y382946D01*
X446402Y382813D01*
X446355Y382681D01*
X446305Y382550D01*
X446251Y382422D01*
X446193Y382294D01*
X446132Y382168D01*
X446067Y382045D01*
X445999Y381923D01*
X445928Y381802D01*
X445853Y381684D01*
X445774Y381569D01*
X445693Y381455D01*
X445608Y381344D01*
X445520Y381235D01*
X445430Y381129D01*
X445336Y381025D01*
X445239Y380924D01*
X445139Y380826D01*
X445037Y380731D01*
X444932Y380639D01*
X444825Y380549D01*
X444715Y380463D01*
X444602Y380380D01*
X444488Y380300D01*
X444371Y380223D01*
X444252Y380150D01*
X444131Y380080D01*
X444008Y380014D01*
X443883Y379951D01*
X443756Y379891D01*
X443628Y379836D01*
X443499Y379784D01*
X443367Y379735D01*
X443235Y379690D01*
X443101Y379649D01*
X442967Y379612D01*
X442831Y379579D01*
X442694Y379550D01*
X442557Y379524D01*
X442419Y379502D01*
X442280Y379485D01*
X442141Y379471D01*
X442001Y379461D01*
X441862Y379455D01*
X441722Y379453D01*
X436784Y379453D01*
X442710Y379453D02*
X446661Y371551D01*
D123*
X368202Y358202D02*
X368202Y334202D01*
X368202Y358202D02*
X324202Y358202D01*
X324202Y334202D01*
X368202Y334202D01*
D124*
X329222Y361162D02*
X329224Y361216D01*
X329230Y361270D01*
X329240Y361323D01*
X329253Y361376D01*
X329270Y361427D01*
X329291Y361477D01*
X329316Y361525D01*
X329344Y361572D01*
X329375Y361616D01*
X329409Y361658D01*
X329446Y361697D01*
X329486Y361734D01*
X329529Y361767D01*
X329574Y361798D01*
X329621Y361825D01*
X329669Y361848D01*
X329720Y361868D01*
X329771Y361885D01*
X329824Y361897D01*
X329877Y361906D01*
X329931Y361911D01*
X329986Y361912D01*
X330040Y361909D01*
X330093Y361902D01*
X330146Y361891D01*
X330199Y361877D01*
X330250Y361859D01*
X330299Y361837D01*
X330347Y361812D01*
X330393Y361783D01*
X330437Y361751D01*
X330478Y361716D01*
X330516Y361678D01*
X330552Y361637D01*
X330585Y361594D01*
X330615Y361549D01*
X330641Y361501D01*
X330664Y361452D01*
X330683Y361401D01*
X330698Y361350D01*
X330710Y361297D01*
X330718Y361243D01*
X330722Y361189D01*
X330722Y361135D01*
X330718Y361081D01*
X330710Y361027D01*
X330698Y360974D01*
X330683Y360923D01*
X330664Y360872D01*
X330641Y360823D01*
X330615Y360775D01*
X330585Y360730D01*
X330552Y360687D01*
X330516Y360646D01*
X330478Y360608D01*
X330437Y360573D01*
X330393Y360541D01*
X330347Y360512D01*
X330299Y360487D01*
X330250Y360465D01*
X330199Y360447D01*
X330146Y360433D01*
X330093Y360422D01*
X330040Y360415D01*
X329986Y360412D01*
X329931Y360413D01*
X329877Y360418D01*
X329824Y360427D01*
X329771Y360439D01*
X329720Y360456D01*
X329669Y360476D01*
X329621Y360499D01*
X329574Y360526D01*
X329529Y360557D01*
X329486Y360590D01*
X329446Y360627D01*
X329409Y360666D01*
X329375Y360708D01*
X329344Y360752D01*
X329316Y360799D01*
X329291Y360847D01*
X329270Y360897D01*
X329253Y360948D01*
X329240Y361001D01*
X329230Y361054D01*
X329224Y361108D01*
X329222Y361162D01*
D122*
X325384Y328807D02*
X325384Y322020D01*
X325386Y321919D01*
X325392Y321818D01*
X325402Y321717D01*
X325415Y321617D01*
X325433Y321517D01*
X325454Y321418D01*
X325480Y321320D01*
X325509Y321223D01*
X325541Y321127D01*
X325578Y321033D01*
X325618Y320940D01*
X325662Y320848D01*
X325709Y320759D01*
X325760Y320671D01*
X325814Y320585D01*
X325871Y320502D01*
X325931Y320420D01*
X325995Y320342D01*
X326061Y320265D01*
X326131Y320192D01*
X326203Y320121D01*
X326278Y320053D01*
X326356Y319988D01*
X326436Y319926D01*
X326518Y319867D01*
X326603Y319811D01*
X326690Y319759D01*
X326778Y319710D01*
X326869Y319664D01*
X326961Y319623D01*
X327055Y319584D01*
X327150Y319550D01*
X327246Y319519D01*
X327344Y319492D01*
X327442Y319468D01*
X327542Y319449D01*
X327642Y319433D01*
X327742Y319421D01*
X327843Y319413D01*
X327944Y319409D01*
X328046Y319409D01*
X328147Y319413D01*
X328248Y319421D01*
X328348Y319433D01*
X328448Y319449D01*
X328548Y319468D01*
X328646Y319492D01*
X328744Y319519D01*
X328840Y319550D01*
X328935Y319584D01*
X329029Y319623D01*
X329121Y319664D01*
X329212Y319710D01*
X329300Y319759D01*
X329387Y319811D01*
X329472Y319867D01*
X329554Y319926D01*
X329634Y319988D01*
X329712Y320053D01*
X329787Y320121D01*
X329859Y320192D01*
X329929Y320265D01*
X329995Y320342D01*
X330059Y320420D01*
X330119Y320502D01*
X330176Y320585D01*
X330230Y320671D01*
X330281Y320759D01*
X330328Y320848D01*
X330372Y320940D01*
X330412Y321033D01*
X330449Y321127D01*
X330481Y321223D01*
X330510Y321320D01*
X330536Y321418D01*
X330557Y321517D01*
X330575Y321617D01*
X330588Y321717D01*
X330598Y321818D01*
X330604Y321919D01*
X330606Y322020D01*
X330605Y322020D02*
X330605Y328807D01*
X337705Y328808D02*
X337800Y328806D01*
X337894Y328800D01*
X337988Y328791D01*
X338082Y328778D01*
X338175Y328761D01*
X338267Y328740D01*
X338359Y328715D01*
X338449Y328687D01*
X338538Y328655D01*
X338626Y328620D01*
X338712Y328581D01*
X338797Y328539D01*
X338880Y328493D01*
X338961Y328444D01*
X339040Y328392D01*
X339117Y328337D01*
X339191Y328278D01*
X339263Y328217D01*
X339333Y328153D01*
X339400Y328086D01*
X339464Y328016D01*
X339525Y327944D01*
X339584Y327870D01*
X339639Y327793D01*
X339691Y327714D01*
X339740Y327633D01*
X339786Y327550D01*
X339828Y327465D01*
X339867Y327379D01*
X339902Y327291D01*
X339934Y327202D01*
X339962Y327112D01*
X339987Y327020D01*
X340008Y326928D01*
X340025Y326835D01*
X340038Y326741D01*
X340047Y326647D01*
X340053Y326553D01*
X340055Y326458D01*
X337705Y328807D02*
X337597Y328805D01*
X337488Y328799D01*
X337380Y328789D01*
X337273Y328776D01*
X337166Y328758D01*
X337059Y328737D01*
X336954Y328712D01*
X336849Y328683D01*
X336746Y328651D01*
X336644Y328614D01*
X336543Y328574D01*
X336444Y328531D01*
X336346Y328484D01*
X336250Y328433D01*
X336156Y328379D01*
X336064Y328322D01*
X335974Y328261D01*
X335886Y328197D01*
X335801Y328131D01*
X335718Y328061D01*
X335638Y327988D01*
X335560Y327912D01*
X335485Y327834D01*
X335413Y327753D01*
X335344Y327669D01*
X335278Y327583D01*
X335215Y327495D01*
X335156Y327404D01*
X335099Y327312D01*
X335046Y327217D01*
X334997Y327121D01*
X334951Y327022D01*
X334908Y326923D01*
X334869Y326821D01*
X334834Y326719D01*
X339272Y324630D02*
X339341Y324699D01*
X339407Y324770D01*
X339471Y324843D01*
X339532Y324919D01*
X339590Y324998D01*
X339644Y325078D01*
X339696Y325161D01*
X339744Y325245D01*
X339790Y325331D01*
X339831Y325419D01*
X339870Y325509D01*
X339905Y325600D01*
X339936Y325692D01*
X339964Y325785D01*
X339988Y325879D01*
X340008Y325974D01*
X340025Y326070D01*
X340038Y326167D01*
X340047Y326264D01*
X340053Y326361D01*
X340055Y326458D01*
X339271Y324630D02*
X334833Y319409D01*
X340054Y319409D01*
X354259Y367411D02*
X356348Y367411D01*
X354259Y367411D02*
X354170Y367413D01*
X354082Y367419D01*
X353994Y367428D01*
X353906Y367441D01*
X353819Y367458D01*
X353733Y367478D01*
X353648Y367503D01*
X353563Y367530D01*
X353480Y367562D01*
X353399Y367596D01*
X353319Y367635D01*
X353241Y367676D01*
X353164Y367721D01*
X353090Y367769D01*
X353017Y367820D01*
X352947Y367874D01*
X352880Y367932D01*
X352814Y367992D01*
X352752Y368054D01*
X352692Y368120D01*
X352634Y368187D01*
X352580Y368257D01*
X352529Y368330D01*
X352481Y368404D01*
X352436Y368481D01*
X352395Y368559D01*
X352356Y368639D01*
X352322Y368720D01*
X352290Y368803D01*
X352263Y368888D01*
X352238Y368973D01*
X352218Y369059D01*
X352201Y369146D01*
X352188Y369234D01*
X352179Y369322D01*
X352173Y369410D01*
X352171Y369499D01*
X352171Y374721D01*
X352173Y374812D01*
X352179Y374903D01*
X352189Y374994D01*
X352203Y375084D01*
X352220Y375173D01*
X352242Y375261D01*
X352268Y375349D01*
X352297Y375435D01*
X352330Y375520D01*
X352367Y375603D01*
X352407Y375685D01*
X352451Y375765D01*
X352498Y375843D01*
X352549Y375919D01*
X352602Y375992D01*
X352659Y376063D01*
X352720Y376132D01*
X352783Y376197D01*
X352848Y376260D01*
X352917Y376320D01*
X352988Y376378D01*
X353061Y376431D01*
X353137Y376482D01*
X353215Y376529D01*
X353295Y376573D01*
X353377Y376613D01*
X353460Y376650D01*
X353545Y376683D01*
X353631Y376712D01*
X353719Y376738D01*
X353807Y376760D01*
X353896Y376777D01*
X353986Y376791D01*
X354077Y376801D01*
X354168Y376807D01*
X354259Y376809D01*
X356348Y376809D01*
X359817Y374721D02*
X362427Y376809D01*
X362427Y367411D01*
X359817Y367411D02*
X365038Y367411D01*
X368960Y372110D02*
X368962Y372295D01*
X368969Y372480D01*
X368980Y372664D01*
X368995Y372848D01*
X369015Y373032D01*
X369039Y373216D01*
X369068Y373398D01*
X369101Y373580D01*
X369138Y373761D01*
X369180Y373941D01*
X369226Y374121D01*
X369276Y374299D01*
X369330Y374475D01*
X369389Y374651D01*
X369451Y374825D01*
X369518Y374997D01*
X369589Y375168D01*
X369664Y375337D01*
X369743Y375504D01*
X369773Y375584D01*
X369806Y375663D01*
X369843Y375740D01*
X369883Y375816D01*
X369926Y375890D01*
X369972Y375962D01*
X370022Y376031D01*
X370074Y376099D01*
X370130Y376164D01*
X370188Y376227D01*
X370250Y376286D01*
X370313Y376344D01*
X370380Y376398D01*
X370448Y376449D01*
X370519Y376497D01*
X370592Y376542D01*
X370666Y376584D01*
X370743Y376622D01*
X370821Y376657D01*
X370900Y376689D01*
X370981Y376717D01*
X371063Y376741D01*
X371147Y376762D01*
X371230Y376779D01*
X371315Y376792D01*
X371400Y376801D01*
X371485Y376807D01*
X371571Y376809D01*
X371657Y376807D01*
X371742Y376801D01*
X371827Y376792D01*
X371912Y376779D01*
X371995Y376762D01*
X372079Y376741D01*
X372161Y376717D01*
X372242Y376689D01*
X372321Y376657D01*
X372399Y376622D01*
X372476Y376584D01*
X372550Y376542D01*
X372623Y376497D01*
X372694Y376449D01*
X372762Y376398D01*
X372829Y376344D01*
X372892Y376286D01*
X372954Y376227D01*
X373012Y376164D01*
X373068Y376099D01*
X373120Y376031D01*
X373170Y375962D01*
X373216Y375890D01*
X373259Y375816D01*
X373299Y375740D01*
X373336Y375663D01*
X373369Y375584D01*
X373399Y375504D01*
X373478Y375337D01*
X373553Y375168D01*
X373624Y374997D01*
X373691Y374825D01*
X373753Y374651D01*
X373812Y374475D01*
X373866Y374299D01*
X373916Y374121D01*
X373962Y373941D01*
X374004Y373761D01*
X374041Y373580D01*
X374074Y373398D01*
X374103Y373216D01*
X374127Y373032D01*
X374147Y372848D01*
X374162Y372664D01*
X374173Y372480D01*
X374180Y372295D01*
X374182Y372110D01*
X368961Y372110D02*
X368963Y371925D01*
X368970Y371740D01*
X368981Y371556D01*
X368996Y371372D01*
X369016Y371188D01*
X369040Y371004D01*
X369069Y370822D01*
X369102Y370640D01*
X369139Y370459D01*
X369181Y370279D01*
X369227Y370099D01*
X369277Y369921D01*
X369331Y369745D01*
X369390Y369569D01*
X369452Y369395D01*
X369519Y369223D01*
X369590Y369052D01*
X369665Y368883D01*
X369744Y368716D01*
X369743Y368716D02*
X369773Y368636D01*
X369806Y368557D01*
X369843Y368480D01*
X369883Y368404D01*
X369926Y368330D01*
X369972Y368258D01*
X370022Y368189D01*
X370075Y368121D01*
X370130Y368056D01*
X370189Y367993D01*
X370250Y367934D01*
X370313Y367876D01*
X370380Y367822D01*
X370448Y367771D01*
X370519Y367723D01*
X370592Y367678D01*
X370666Y367636D01*
X370743Y367598D01*
X370821Y367563D01*
X370900Y367531D01*
X370981Y367503D01*
X371063Y367479D01*
X371147Y367458D01*
X371230Y367441D01*
X371315Y367428D01*
X371400Y367419D01*
X371485Y367413D01*
X371571Y367411D01*
X373399Y368716D02*
X373478Y368883D01*
X373553Y369052D01*
X373624Y369223D01*
X373691Y369395D01*
X373753Y369569D01*
X373812Y369745D01*
X373866Y369921D01*
X373916Y370099D01*
X373962Y370279D01*
X374004Y370459D01*
X374041Y370640D01*
X374074Y370822D01*
X374103Y371004D01*
X374127Y371188D01*
X374147Y371372D01*
X374162Y371556D01*
X374173Y371740D01*
X374180Y371925D01*
X374182Y372110D01*
X373399Y368716D02*
X373369Y368636D01*
X373336Y368557D01*
X373299Y368480D01*
X373259Y368404D01*
X373216Y368330D01*
X373170Y368258D01*
X373120Y368189D01*
X373068Y368121D01*
X373012Y368056D01*
X372954Y367993D01*
X372892Y367934D01*
X372829Y367876D01*
X372762Y367822D01*
X372694Y367771D01*
X372623Y367723D01*
X372550Y367678D01*
X372476Y367636D01*
X372399Y367598D01*
X372321Y367563D01*
X372242Y367531D01*
X372161Y367503D01*
X372079Y367479D01*
X371995Y367458D01*
X371912Y367441D01*
X371827Y367428D01*
X371742Y367419D01*
X371657Y367413D01*
X371571Y367411D01*
X369483Y369499D02*
X373660Y374721D01*
D11*
X311315Y383527D02*
X311315Y403657D01*
D122*
X354259Y387731D02*
X356348Y387731D01*
X354259Y387731D02*
X354170Y387733D01*
X354082Y387739D01*
X353994Y387748D01*
X353906Y387761D01*
X353819Y387778D01*
X353733Y387798D01*
X353648Y387823D01*
X353563Y387850D01*
X353480Y387882D01*
X353399Y387916D01*
X353319Y387955D01*
X353241Y387996D01*
X353164Y388041D01*
X353090Y388089D01*
X353017Y388140D01*
X352947Y388194D01*
X352880Y388252D01*
X352814Y388312D01*
X352752Y388374D01*
X352692Y388440D01*
X352634Y388507D01*
X352580Y388577D01*
X352529Y388650D01*
X352481Y388724D01*
X352436Y388801D01*
X352395Y388879D01*
X352356Y388959D01*
X352322Y389040D01*
X352290Y389123D01*
X352263Y389208D01*
X352238Y389293D01*
X352218Y389379D01*
X352201Y389466D01*
X352188Y389554D01*
X352179Y389642D01*
X352173Y389730D01*
X352171Y389819D01*
X352171Y395041D01*
X352173Y395132D01*
X352179Y395223D01*
X352189Y395314D01*
X352203Y395404D01*
X352220Y395493D01*
X352242Y395581D01*
X352268Y395669D01*
X352297Y395755D01*
X352330Y395840D01*
X352367Y395923D01*
X352407Y396005D01*
X352451Y396085D01*
X352498Y396163D01*
X352549Y396239D01*
X352602Y396312D01*
X352659Y396383D01*
X352720Y396452D01*
X352783Y396517D01*
X352848Y396580D01*
X352917Y396640D01*
X352988Y396698D01*
X353061Y396751D01*
X353137Y396802D01*
X353215Y396849D01*
X353295Y396893D01*
X353377Y396933D01*
X353460Y396970D01*
X353545Y397003D01*
X353631Y397032D01*
X353719Y397058D01*
X353807Y397080D01*
X353896Y397097D01*
X353986Y397111D01*
X354077Y397121D01*
X354168Y397127D01*
X354259Y397129D01*
X356348Y397129D01*
X359817Y395041D02*
X362427Y397129D01*
X362427Y387731D01*
X359817Y387731D02*
X365038Y387731D01*
X368961Y395041D02*
X371571Y397129D01*
X371571Y387731D01*
X368961Y387731D02*
X374182Y387731D01*
X380497Y361691D02*
X380497Y352293D01*
X380497Y361691D02*
X383108Y361691D01*
X383209Y361689D01*
X383310Y361683D01*
X383411Y361673D01*
X383511Y361660D01*
X383611Y361642D01*
X383710Y361621D01*
X383808Y361595D01*
X383905Y361566D01*
X384001Y361534D01*
X384095Y361497D01*
X384188Y361457D01*
X384280Y361413D01*
X384369Y361366D01*
X384457Y361315D01*
X384543Y361261D01*
X384626Y361204D01*
X384708Y361144D01*
X384786Y361080D01*
X384863Y361014D01*
X384936Y360944D01*
X385007Y360872D01*
X385075Y360797D01*
X385140Y360719D01*
X385202Y360639D01*
X385261Y360557D01*
X385317Y360472D01*
X385369Y360385D01*
X385418Y360297D01*
X385464Y360206D01*
X385505Y360114D01*
X385544Y360020D01*
X385578Y359925D01*
X385609Y359829D01*
X385636Y359731D01*
X385660Y359633D01*
X385679Y359533D01*
X385695Y359433D01*
X385707Y359333D01*
X385715Y359232D01*
X385719Y359131D01*
X385719Y359029D01*
X385715Y358928D01*
X385707Y358827D01*
X385695Y358727D01*
X385679Y358627D01*
X385660Y358527D01*
X385636Y358429D01*
X385609Y358331D01*
X385578Y358235D01*
X385544Y358140D01*
X385505Y358046D01*
X385464Y357954D01*
X385418Y357863D01*
X385369Y357775D01*
X385317Y357688D01*
X385261Y357603D01*
X385202Y357521D01*
X385140Y357441D01*
X385075Y357363D01*
X385007Y357288D01*
X384936Y357216D01*
X384863Y357146D01*
X384786Y357080D01*
X384708Y357016D01*
X384626Y356956D01*
X384543Y356899D01*
X384457Y356845D01*
X384369Y356794D01*
X384280Y356747D01*
X384188Y356703D01*
X384095Y356663D01*
X384001Y356626D01*
X383905Y356594D01*
X383808Y356565D01*
X383710Y356539D01*
X383611Y356518D01*
X383511Y356500D01*
X383411Y356487D01*
X383310Y356477D01*
X383209Y356471D01*
X383108Y356469D01*
X383108Y356470D02*
X380497Y356470D01*
X383630Y356470D02*
X385718Y352293D01*
X389584Y354381D02*
X391672Y361691D01*
X389584Y354381D02*
X394805Y354381D01*
X393239Y356470D02*
X393239Y352293D01*
X313187Y343667D02*
X303789Y343667D01*
X303789Y346278D01*
X303791Y346379D01*
X303797Y346480D01*
X303807Y346581D01*
X303820Y346681D01*
X303838Y346781D01*
X303859Y346880D01*
X303885Y346978D01*
X303914Y347075D01*
X303946Y347171D01*
X303983Y347265D01*
X304023Y347358D01*
X304067Y347450D01*
X304114Y347539D01*
X304165Y347627D01*
X304219Y347713D01*
X304276Y347796D01*
X304336Y347878D01*
X304400Y347956D01*
X304466Y348033D01*
X304536Y348106D01*
X304608Y348177D01*
X304683Y348245D01*
X304761Y348310D01*
X304841Y348372D01*
X304923Y348431D01*
X305008Y348487D01*
X305095Y348539D01*
X305183Y348588D01*
X305274Y348634D01*
X305366Y348675D01*
X305460Y348714D01*
X305555Y348748D01*
X305651Y348779D01*
X305749Y348806D01*
X305847Y348830D01*
X305947Y348849D01*
X306047Y348865D01*
X306147Y348877D01*
X306248Y348885D01*
X306349Y348889D01*
X306451Y348889D01*
X306552Y348885D01*
X306653Y348877D01*
X306753Y348865D01*
X306853Y348849D01*
X306953Y348830D01*
X307051Y348806D01*
X307149Y348779D01*
X307245Y348748D01*
X307340Y348714D01*
X307434Y348675D01*
X307526Y348634D01*
X307617Y348588D01*
X307706Y348539D01*
X307792Y348487D01*
X307877Y348431D01*
X307959Y348372D01*
X308039Y348310D01*
X308117Y348245D01*
X308192Y348177D01*
X308264Y348106D01*
X308334Y348033D01*
X308400Y347956D01*
X308464Y347878D01*
X308524Y347796D01*
X308581Y347713D01*
X308635Y347627D01*
X308686Y347539D01*
X308733Y347450D01*
X308777Y347358D01*
X308817Y347265D01*
X308854Y347171D01*
X308886Y347075D01*
X308915Y346978D01*
X308941Y346880D01*
X308962Y346781D01*
X308980Y346681D01*
X308993Y346581D01*
X309003Y346480D01*
X309009Y346379D01*
X309011Y346278D01*
X309010Y346278D02*
X309010Y343667D01*
X309010Y346800D02*
X313187Y348888D01*
X313187Y352754D02*
X313187Y355887D01*
X313185Y355976D01*
X313179Y356064D01*
X313170Y356152D01*
X313157Y356240D01*
X313140Y356327D01*
X313120Y356413D01*
X313095Y356498D01*
X313068Y356583D01*
X313036Y356666D01*
X313002Y356747D01*
X312963Y356827D01*
X312922Y356905D01*
X312877Y356982D01*
X312829Y357056D01*
X312778Y357129D01*
X312724Y357199D01*
X312666Y357266D01*
X312606Y357332D01*
X312544Y357394D01*
X312478Y357454D01*
X312411Y357512D01*
X312341Y357566D01*
X312268Y357617D01*
X312194Y357665D01*
X312117Y357710D01*
X312039Y357751D01*
X311959Y357790D01*
X311878Y357824D01*
X311795Y357856D01*
X311710Y357883D01*
X311625Y357908D01*
X311539Y357928D01*
X311452Y357945D01*
X311364Y357958D01*
X311276Y357967D01*
X311188Y357973D01*
X311099Y357975D01*
X310054Y357975D01*
X309965Y357973D01*
X309877Y357967D01*
X309789Y357958D01*
X309701Y357945D01*
X309614Y357928D01*
X309528Y357908D01*
X309443Y357883D01*
X309358Y357856D01*
X309275Y357824D01*
X309194Y357790D01*
X309114Y357751D01*
X309036Y357710D01*
X308959Y357665D01*
X308885Y357617D01*
X308812Y357566D01*
X308742Y357512D01*
X308675Y357454D01*
X308609Y357394D01*
X308547Y357332D01*
X308487Y357266D01*
X308429Y357199D01*
X308375Y357129D01*
X308324Y357056D01*
X308276Y356982D01*
X308231Y356905D01*
X308190Y356827D01*
X308151Y356747D01*
X308117Y356666D01*
X308085Y356583D01*
X308058Y356498D01*
X308033Y356413D01*
X308013Y356327D01*
X307996Y356240D01*
X307983Y356152D01*
X307974Y356064D01*
X307968Y355976D01*
X307966Y355887D01*
X307966Y352754D01*
X303789Y352754D01*
X303789Y357975D01*
X273215Y360177D02*
X273215Y350779D01*
X273215Y360177D02*
X275825Y360177D01*
X275825Y360178D02*
X275926Y360176D01*
X276027Y360170D01*
X276128Y360160D01*
X276228Y360147D01*
X276328Y360129D01*
X276427Y360108D01*
X276525Y360082D01*
X276622Y360053D01*
X276718Y360021D01*
X276812Y359984D01*
X276905Y359944D01*
X276997Y359900D01*
X277086Y359853D01*
X277174Y359802D01*
X277260Y359748D01*
X277343Y359691D01*
X277425Y359631D01*
X277503Y359567D01*
X277580Y359501D01*
X277653Y359431D01*
X277724Y359359D01*
X277792Y359284D01*
X277857Y359206D01*
X277919Y359126D01*
X277978Y359044D01*
X278034Y358959D01*
X278086Y358872D01*
X278135Y358784D01*
X278181Y358693D01*
X278222Y358601D01*
X278261Y358507D01*
X278295Y358412D01*
X278326Y358316D01*
X278353Y358218D01*
X278377Y358120D01*
X278396Y358020D01*
X278412Y357920D01*
X278424Y357820D01*
X278432Y357719D01*
X278436Y357618D01*
X278436Y357516D01*
X278432Y357415D01*
X278424Y357314D01*
X278412Y357214D01*
X278396Y357114D01*
X278377Y357014D01*
X278353Y356916D01*
X278326Y356818D01*
X278295Y356722D01*
X278261Y356627D01*
X278222Y356533D01*
X278181Y356441D01*
X278135Y356350D01*
X278086Y356262D01*
X278034Y356175D01*
X277978Y356090D01*
X277919Y356008D01*
X277857Y355928D01*
X277792Y355850D01*
X277724Y355775D01*
X277653Y355703D01*
X277580Y355633D01*
X277503Y355567D01*
X277425Y355503D01*
X277343Y355443D01*
X277260Y355386D01*
X277174Y355332D01*
X277086Y355281D01*
X276997Y355234D01*
X276905Y355190D01*
X276812Y355150D01*
X276718Y355113D01*
X276622Y355081D01*
X276525Y355052D01*
X276427Y355026D01*
X276328Y355005D01*
X276228Y354987D01*
X276128Y354974D01*
X276027Y354964D01*
X275926Y354958D01*
X275825Y354956D01*
X273215Y354956D01*
X276348Y354956D02*
X278436Y350779D01*
X282302Y356000D02*
X285435Y356000D01*
X285524Y355998D01*
X285612Y355992D01*
X285700Y355983D01*
X285788Y355970D01*
X285875Y355953D01*
X285961Y355933D01*
X286046Y355908D01*
X286131Y355881D01*
X286214Y355849D01*
X286295Y355815D01*
X286375Y355776D01*
X286453Y355735D01*
X286530Y355690D01*
X286604Y355642D01*
X286677Y355591D01*
X286747Y355537D01*
X286814Y355479D01*
X286880Y355419D01*
X286942Y355357D01*
X287002Y355291D01*
X287060Y355224D01*
X287114Y355154D01*
X287165Y355081D01*
X287213Y355007D01*
X287258Y354930D01*
X287299Y354852D01*
X287338Y354772D01*
X287372Y354691D01*
X287404Y354608D01*
X287431Y354523D01*
X287456Y354438D01*
X287476Y354352D01*
X287493Y354265D01*
X287506Y354177D01*
X287515Y354089D01*
X287521Y354001D01*
X287523Y353912D01*
X287523Y353390D01*
X287521Y353289D01*
X287515Y353188D01*
X287505Y353087D01*
X287492Y352987D01*
X287474Y352887D01*
X287453Y352788D01*
X287427Y352690D01*
X287398Y352593D01*
X287366Y352497D01*
X287329Y352403D01*
X287289Y352310D01*
X287245Y352218D01*
X287198Y352129D01*
X287147Y352041D01*
X287093Y351955D01*
X287036Y351872D01*
X286976Y351790D01*
X286912Y351712D01*
X286846Y351635D01*
X286776Y351562D01*
X286704Y351491D01*
X286629Y351423D01*
X286551Y351358D01*
X286471Y351296D01*
X286389Y351237D01*
X286304Y351181D01*
X286217Y351129D01*
X286129Y351080D01*
X286038Y351034D01*
X285946Y350993D01*
X285852Y350954D01*
X285757Y350920D01*
X285661Y350889D01*
X285563Y350862D01*
X285465Y350838D01*
X285365Y350819D01*
X285265Y350803D01*
X285165Y350791D01*
X285064Y350783D01*
X284963Y350779D01*
X284861Y350779D01*
X284760Y350783D01*
X284659Y350791D01*
X284559Y350803D01*
X284459Y350819D01*
X284359Y350838D01*
X284261Y350862D01*
X284163Y350889D01*
X284067Y350920D01*
X283972Y350954D01*
X283878Y350993D01*
X283786Y351034D01*
X283695Y351080D01*
X283607Y351129D01*
X283520Y351181D01*
X283435Y351237D01*
X283353Y351296D01*
X283273Y351358D01*
X283195Y351423D01*
X283120Y351491D01*
X283048Y351562D01*
X282978Y351635D01*
X282912Y351712D01*
X282848Y351790D01*
X282788Y351872D01*
X282731Y351955D01*
X282677Y352041D01*
X282626Y352129D01*
X282579Y352218D01*
X282535Y352310D01*
X282495Y352403D01*
X282458Y352497D01*
X282426Y352593D01*
X282397Y352690D01*
X282371Y352788D01*
X282350Y352887D01*
X282332Y352987D01*
X282319Y353087D01*
X282309Y353188D01*
X282303Y353289D01*
X282301Y353390D01*
X282302Y353390D02*
X282302Y356000D01*
X282304Y356129D01*
X282310Y356257D01*
X282320Y356385D01*
X282334Y356513D01*
X282351Y356641D01*
X282373Y356768D01*
X282399Y356894D01*
X282428Y357019D01*
X282461Y357143D01*
X282499Y357266D01*
X282539Y357388D01*
X282584Y357509D01*
X282632Y357628D01*
X282684Y357746D01*
X282740Y357862D01*
X282799Y357976D01*
X282862Y358088D01*
X282928Y358199D01*
X282997Y358307D01*
X283070Y358413D01*
X283146Y358517D01*
X283225Y358619D01*
X283307Y358718D01*
X283392Y358814D01*
X283480Y358908D01*
X283571Y358999D01*
X283665Y359087D01*
X283761Y359172D01*
X283860Y359254D01*
X283962Y359333D01*
X284066Y359409D01*
X284172Y359482D01*
X284280Y359551D01*
X284390Y359617D01*
X284503Y359680D01*
X284617Y359739D01*
X284733Y359795D01*
X284851Y359847D01*
X284970Y359895D01*
X285091Y359940D01*
X285213Y359980D01*
X285336Y360018D01*
X285460Y360051D01*
X285585Y360080D01*
X285711Y360106D01*
X285838Y360128D01*
X285966Y360145D01*
X286094Y360159D01*
X286222Y360169D01*
X286350Y360175D01*
X286479Y360177D01*
X339593Y279565D02*
X348991Y279565D01*
X339593Y279565D02*
X339593Y282175D01*
X339592Y282175D02*
X339594Y282276D01*
X339600Y282377D01*
X339610Y282478D01*
X339623Y282578D01*
X339641Y282678D01*
X339662Y282777D01*
X339688Y282875D01*
X339717Y282972D01*
X339749Y283068D01*
X339786Y283162D01*
X339826Y283255D01*
X339870Y283347D01*
X339917Y283436D01*
X339968Y283524D01*
X340022Y283610D01*
X340079Y283693D01*
X340139Y283775D01*
X340203Y283853D01*
X340269Y283930D01*
X340339Y284003D01*
X340411Y284074D01*
X340486Y284142D01*
X340564Y284207D01*
X340644Y284269D01*
X340726Y284328D01*
X340811Y284384D01*
X340898Y284436D01*
X340986Y284485D01*
X341077Y284531D01*
X341169Y284572D01*
X341263Y284611D01*
X341358Y284645D01*
X341454Y284676D01*
X341552Y284703D01*
X341650Y284727D01*
X341750Y284746D01*
X341850Y284762D01*
X341950Y284774D01*
X342051Y284782D01*
X342152Y284786D01*
X342254Y284786D01*
X342355Y284782D01*
X342456Y284774D01*
X342556Y284762D01*
X342656Y284746D01*
X342756Y284727D01*
X342854Y284703D01*
X342952Y284676D01*
X343048Y284645D01*
X343143Y284611D01*
X343237Y284572D01*
X343329Y284531D01*
X343420Y284485D01*
X343509Y284436D01*
X343595Y284384D01*
X343680Y284328D01*
X343762Y284269D01*
X343842Y284207D01*
X343920Y284142D01*
X343995Y284074D01*
X344067Y284003D01*
X344137Y283930D01*
X344203Y283853D01*
X344267Y283775D01*
X344327Y283693D01*
X344384Y283610D01*
X344438Y283524D01*
X344489Y283436D01*
X344536Y283347D01*
X344580Y283255D01*
X344620Y283162D01*
X344657Y283068D01*
X344689Y282972D01*
X344718Y282875D01*
X344744Y282777D01*
X344765Y282678D01*
X344783Y282578D01*
X344796Y282478D01*
X344806Y282377D01*
X344812Y282276D01*
X344814Y282175D01*
X344814Y279565D01*
X344814Y282698D02*
X348991Y284786D01*
X340637Y288652D02*
X339593Y288652D01*
X339593Y293873D01*
X348991Y291262D01*
M02*
