G04 EAGLE Gerber RS-274X export*
G75*
%MOMM*%
%FSLAX34Y34*%
%LPD*%
%INSilkscreen Top*%
%IPPOS*%
%AMOC8*
5,1,8,0,0,1.08239X$1,22.5*%
G01*
%ADD10C,0.101600*%
%ADD11C,0.152400*%
%ADD12C,0.304800*%
%ADD13C,0.203200*%
%ADD14C,0.076200*%
%ADD15C,0.254000*%
%ADD16C,0.127000*%
%ADD17C,0.177800*%
%ADD18C,0.200000*%
%ADD19C,0.406400*%
%ADD20C,0.406400*%
%ADD21C,0.100000*%
%ADD22C,0.100000*%
%ADD23C,0.050800*%
%ADD24R,0.259075X0.015238*%
%ADD25R,1.310638X0.015238*%
%ADD26R,0.015238X0.015238*%
%ADD27R,0.304800X0.015238*%
%ADD28R,1.356356X0.015238*%
%ADD29R,0.335275X0.015238*%
%ADD30R,1.402075X0.015238*%
%ADD31R,0.365756X0.015238*%
%ADD32R,1.417319X0.015238*%
%ADD33R,0.381000X0.015238*%
%ADD34R,1.447800X0.015238*%
%ADD35R,0.396238X0.015238*%
%ADD36R,1.463037X0.015238*%
%ADD37R,0.411475X0.015238*%
%ADD38R,1.478275X0.015238*%
%ADD39R,0.426719X0.015238*%
%ADD40R,1.493519X0.015238*%
%ADD41R,0.441956X0.015238*%
%ADD42R,1.508756X0.015238*%
%ADD43R,0.457200X0.015238*%
%ADD44R,1.524000X0.015238*%
%ADD45R,0.472438X0.015238*%
%ADD46R,1.539238X0.015238*%
%ADD47R,0.487675X0.015238*%
%ADD48R,1.554475X0.015238*%
%ADD49R,0.502919X0.015238*%
%ADD50R,1.569719X0.015238*%
%ADD51R,0.518156X0.015238*%
%ADD52R,1.584956X0.015238*%
%ADD53R,0.533400X0.015238*%
%ADD54R,1.600200X0.015238*%
%ADD55R,0.548638X0.015238*%
%ADD56R,1.615438X0.015238*%
%ADD57R,0.563875X0.015238*%
%ADD58R,1.630675X0.015238*%
%ADD59R,0.579119X0.015238*%
%ADD60R,1.645919X0.015238*%
%ADD61R,0.594356X0.015238*%
%ADD62R,1.661156X0.015238*%
%ADD63R,0.609600X0.015238*%
%ADD64R,1.676400X0.015238*%
%ADD65R,0.624838X0.015238*%
%ADD66R,1.691638X0.015238*%
%ADD67R,0.640075X0.015238*%
%ADD68R,1.706875X0.015238*%
%ADD69R,0.655319X0.015238*%
%ADD70R,1.722119X0.015238*%
%ADD71R,0.670556X0.015238*%
%ADD72R,1.737356X0.015238*%
%ADD73R,0.685800X0.015238*%
%ADD74R,1.752600X0.015238*%
%ADD75R,0.701037X0.015238*%
%ADD76R,0.716275X0.015238*%
%ADD77R,0.731519X0.015238*%
%ADD78R,1.767838X0.015238*%
%ADD79R,1.783075X0.015238*%
%ADD80R,0.746756X0.015238*%
%ADD81R,1.798319X0.015238*%
%ADD82R,0.030481X0.015238*%
%ADD83R,0.762000X0.015238*%
%ADD84R,0.807719X0.015238*%
%ADD85R,0.868681X0.015238*%
%ADD86R,0.777238X0.015238*%
%ADD87R,0.853438X0.015238*%
%ADD88R,0.838200X0.015238*%
%ADD89R,0.792475X0.015238*%
%ADD90R,0.822963X0.015238*%
%ADD91R,0.822956X0.015238*%
%ADD92R,0.868675X0.015238*%
%ADD93R,0.883919X0.015238*%
%ADD94R,0.899156X0.015238*%
%ADD95R,0.914400X0.015238*%
%ADD96R,0.929638X0.015238*%
%ADD97R,0.944875X0.015238*%
%ADD98R,0.960119X0.015238*%
%ADD99R,0.975356X0.015238*%
%ADD100R,0.990600X0.015238*%
%ADD101R,1.005837X0.015238*%
%ADD102R,1.021075X0.015238*%
%ADD103R,1.036319X0.015238*%
%ADD104R,1.051556X0.015238*%
%ADD105R,1.066800X0.015238*%
%ADD106R,1.082037X0.015238*%
%ADD107R,1.097275X0.015238*%
%ADD108R,1.112519X0.015238*%
%ADD109R,1.127756X0.015238*%
%ADD110R,1.143000X0.015238*%
%ADD111R,1.158238X0.015238*%
%ADD112R,1.173475X0.015238*%
%ADD113R,1.188719X0.015238*%
%ADD114R,1.203956X0.015238*%
%ADD115R,1.219200X0.015238*%
%ADD116R,1.234438X0.015238*%
%ADD117R,1.249675X0.015238*%
%ADD118R,1.264919X0.015238*%
%ADD119R,1.280156X0.015238*%
%ADD120R,1.295400X0.015238*%
%ADD121R,1.325875X0.015238*%
%ADD122R,0.670563X0.015238*%
%ADD123R,1.341119X0.015238*%
%ADD124R,1.371600X0.015238*%
%ADD125R,1.386838X0.015238*%
%ADD126R,0.045719X0.015238*%
%ADD127R,0.060956X0.015238*%
%ADD128R,1.432556X0.015238*%
%ADD129R,0.106681X0.015238*%
%ADD130R,0.121919X0.015238*%
%ADD131R,0.152400X0.015238*%
%ADD132R,0.182875X0.015238*%
%ADD133R,0.030475X0.015238*%
%ADD134R,0.213363X0.015238*%
%ADD135R,0.076200X0.015238*%
%ADD136R,0.320038X0.015238*%
%ADD137R,0.243838X0.015238*%
%ADD138R,0.106675X0.015238*%
%ADD139R,0.274319X0.015238*%
%ADD140R,0.259081X0.015238*%
%ADD141R,0.198119X0.015238*%
%ADD142R,0.228600X0.015238*%


D10*
X-14676Y113221D02*
X-11430Y113221D01*
X-11430Y113220D02*
X-11317Y113222D01*
X-11204Y113228D01*
X-11091Y113238D01*
X-10978Y113252D01*
X-10866Y113269D01*
X-10755Y113291D01*
X-10645Y113316D01*
X-10535Y113346D01*
X-10427Y113379D01*
X-10320Y113416D01*
X-10214Y113456D01*
X-10110Y113501D01*
X-10007Y113549D01*
X-9906Y113600D01*
X-9807Y113655D01*
X-9710Y113713D01*
X-9615Y113775D01*
X-9522Y113840D01*
X-9432Y113908D01*
X-9344Y113979D01*
X-9258Y114054D01*
X-9175Y114131D01*
X-9095Y114211D01*
X-9018Y114294D01*
X-8943Y114380D01*
X-8872Y114468D01*
X-8804Y114558D01*
X-8739Y114651D01*
X-8677Y114746D01*
X-8619Y114843D01*
X-8564Y114942D01*
X-8513Y115043D01*
X-8465Y115146D01*
X-8420Y115250D01*
X-8380Y115356D01*
X-8343Y115463D01*
X-8310Y115571D01*
X-8280Y115681D01*
X-8255Y115791D01*
X-8233Y115902D01*
X-8216Y116014D01*
X-8202Y116127D01*
X-8192Y116240D01*
X-8186Y116353D01*
X-8184Y116466D01*
X-8186Y116579D01*
X-8192Y116692D01*
X-8202Y116805D01*
X-8216Y116918D01*
X-8233Y117030D01*
X-8255Y117141D01*
X-8280Y117251D01*
X-8310Y117361D01*
X-8343Y117469D01*
X-8380Y117576D01*
X-8420Y117682D01*
X-8465Y117786D01*
X-8513Y117889D01*
X-8564Y117990D01*
X-8619Y118089D01*
X-8677Y118186D01*
X-8739Y118281D01*
X-8804Y118374D01*
X-8872Y118464D01*
X-8943Y118552D01*
X-9018Y118638D01*
X-9095Y118721D01*
X-9175Y118801D01*
X-9258Y118878D01*
X-9344Y118953D01*
X-9432Y119024D01*
X-9522Y119092D01*
X-9615Y119157D01*
X-9710Y119219D01*
X-9807Y119277D01*
X-9906Y119332D01*
X-10007Y119383D01*
X-10110Y119431D01*
X-10214Y119476D01*
X-10320Y119516D01*
X-10427Y119553D01*
X-10535Y119586D01*
X-10645Y119616D01*
X-10755Y119641D01*
X-10866Y119663D01*
X-10978Y119680D01*
X-11091Y119694D01*
X-11204Y119704D01*
X-11317Y119710D01*
X-11430Y119712D01*
X-10781Y124905D02*
X-14676Y124905D01*
X-10781Y124904D02*
X-10680Y124902D01*
X-10580Y124896D01*
X-10480Y124886D01*
X-10380Y124873D01*
X-10281Y124855D01*
X-10182Y124834D01*
X-10085Y124809D01*
X-9988Y124780D01*
X-9893Y124747D01*
X-9799Y124711D01*
X-9707Y124671D01*
X-9616Y124628D01*
X-9527Y124581D01*
X-9440Y124531D01*
X-9354Y124477D01*
X-9271Y124420D01*
X-9191Y124360D01*
X-9112Y124297D01*
X-9036Y124230D01*
X-8963Y124161D01*
X-8893Y124089D01*
X-8825Y124015D01*
X-8760Y123938D01*
X-8699Y123858D01*
X-8640Y123776D01*
X-8585Y123692D01*
X-8533Y123606D01*
X-8484Y123518D01*
X-8439Y123428D01*
X-8397Y123336D01*
X-8359Y123243D01*
X-8325Y123148D01*
X-8294Y123053D01*
X-8267Y122956D01*
X-8244Y122858D01*
X-8224Y122759D01*
X-8209Y122659D01*
X-8197Y122559D01*
X-8189Y122459D01*
X-8185Y122358D01*
X-8185Y122258D01*
X-8189Y122157D01*
X-8197Y122057D01*
X-8209Y121957D01*
X-8224Y121857D01*
X-8244Y121758D01*
X-8267Y121660D01*
X-8294Y121563D01*
X-8325Y121468D01*
X-8359Y121373D01*
X-8397Y121280D01*
X-8439Y121188D01*
X-8484Y121098D01*
X-8533Y121010D01*
X-8585Y120924D01*
X-8640Y120840D01*
X-8699Y120758D01*
X-8760Y120678D01*
X-8825Y120601D01*
X-8893Y120527D01*
X-8963Y120455D01*
X-9036Y120386D01*
X-9112Y120319D01*
X-9191Y120256D01*
X-9271Y120196D01*
X-9354Y120139D01*
X-9440Y120085D01*
X-9527Y120035D01*
X-9616Y119988D01*
X-9707Y119945D01*
X-9799Y119905D01*
X-9893Y119869D01*
X-9988Y119836D01*
X-10085Y119807D01*
X-10182Y119782D01*
X-10281Y119761D01*
X-10380Y119743D01*
X-10480Y119730D01*
X-10580Y119720D01*
X-10680Y119714D01*
X-10781Y119712D01*
X-13377Y119712D01*
X-3895Y124905D02*
X0Y113221D01*
X3895Y124905D01*
X8184Y113221D02*
X11430Y113221D01*
X11430Y113220D02*
X11543Y113222D01*
X11656Y113228D01*
X11769Y113238D01*
X11882Y113252D01*
X11994Y113269D01*
X12105Y113291D01*
X12215Y113316D01*
X12325Y113346D01*
X12433Y113379D01*
X12540Y113416D01*
X12646Y113456D01*
X12750Y113501D01*
X12853Y113549D01*
X12954Y113600D01*
X13053Y113655D01*
X13150Y113713D01*
X13245Y113775D01*
X13338Y113840D01*
X13428Y113908D01*
X13516Y113979D01*
X13602Y114054D01*
X13685Y114131D01*
X13765Y114211D01*
X13842Y114294D01*
X13917Y114380D01*
X13988Y114468D01*
X14056Y114558D01*
X14121Y114651D01*
X14183Y114746D01*
X14241Y114843D01*
X14296Y114942D01*
X14347Y115043D01*
X14395Y115146D01*
X14440Y115250D01*
X14480Y115356D01*
X14517Y115463D01*
X14550Y115571D01*
X14580Y115681D01*
X14605Y115791D01*
X14627Y115902D01*
X14644Y116014D01*
X14658Y116127D01*
X14668Y116240D01*
X14674Y116353D01*
X14676Y116466D01*
X14674Y116579D01*
X14668Y116692D01*
X14658Y116805D01*
X14644Y116918D01*
X14627Y117030D01*
X14605Y117141D01*
X14580Y117251D01*
X14550Y117361D01*
X14517Y117469D01*
X14480Y117576D01*
X14440Y117682D01*
X14395Y117786D01*
X14347Y117889D01*
X14296Y117990D01*
X14241Y118089D01*
X14183Y118186D01*
X14121Y118281D01*
X14056Y118374D01*
X13988Y118464D01*
X13917Y118552D01*
X13842Y118638D01*
X13765Y118721D01*
X13685Y118801D01*
X13602Y118878D01*
X13516Y118953D01*
X13428Y119024D01*
X13338Y119092D01*
X13245Y119157D01*
X13150Y119219D01*
X13053Y119277D01*
X12954Y119332D01*
X12853Y119383D01*
X12750Y119431D01*
X12646Y119476D01*
X12540Y119516D01*
X12433Y119553D01*
X12325Y119586D01*
X12215Y119616D01*
X12105Y119641D01*
X11994Y119663D01*
X11882Y119680D01*
X11769Y119694D01*
X11656Y119704D01*
X11543Y119710D01*
X11430Y119712D01*
X12079Y124905D02*
X8184Y124905D01*
X12079Y124904D02*
X12180Y124902D01*
X12280Y124896D01*
X12380Y124886D01*
X12480Y124873D01*
X12579Y124855D01*
X12678Y124834D01*
X12775Y124809D01*
X12872Y124780D01*
X12967Y124747D01*
X13061Y124711D01*
X13153Y124671D01*
X13244Y124628D01*
X13333Y124581D01*
X13420Y124531D01*
X13506Y124477D01*
X13589Y124420D01*
X13669Y124360D01*
X13748Y124297D01*
X13824Y124230D01*
X13897Y124161D01*
X13967Y124089D01*
X14035Y124015D01*
X14100Y123938D01*
X14161Y123858D01*
X14220Y123776D01*
X14275Y123692D01*
X14327Y123606D01*
X14376Y123518D01*
X14421Y123428D01*
X14463Y123336D01*
X14501Y123243D01*
X14535Y123148D01*
X14566Y123053D01*
X14593Y122956D01*
X14616Y122858D01*
X14636Y122759D01*
X14651Y122659D01*
X14663Y122559D01*
X14671Y122459D01*
X14675Y122358D01*
X14675Y122258D01*
X14671Y122157D01*
X14663Y122057D01*
X14651Y121957D01*
X14636Y121857D01*
X14616Y121758D01*
X14593Y121660D01*
X14566Y121563D01*
X14535Y121468D01*
X14501Y121373D01*
X14463Y121280D01*
X14421Y121188D01*
X14376Y121098D01*
X14327Y121010D01*
X14275Y120924D01*
X14220Y120840D01*
X14161Y120758D01*
X14100Y120678D01*
X14035Y120601D01*
X13967Y120527D01*
X13897Y120455D01*
X13824Y120386D01*
X13748Y120319D01*
X13669Y120256D01*
X13589Y120196D01*
X13506Y120139D01*
X13420Y120085D01*
X13333Y120035D01*
X13244Y119988D01*
X13153Y119945D01*
X13061Y119905D01*
X12967Y119869D01*
X12872Y119836D01*
X12775Y119807D01*
X12678Y119782D01*
X12579Y119761D01*
X12480Y119743D01*
X12380Y119730D01*
X12280Y119720D01*
X12180Y119714D01*
X12079Y119712D01*
X9483Y119712D01*
X-85222Y-93205D02*
X-82564Y-95067D01*
X-82470Y-95130D01*
X-82374Y-95190D01*
X-82276Y-95247D01*
X-82176Y-95300D01*
X-82074Y-95350D01*
X-81970Y-95396D01*
X-81865Y-95438D01*
X-81759Y-95477D01*
X-81651Y-95512D01*
X-81542Y-95543D01*
X-81432Y-95571D01*
X-81321Y-95594D01*
X-81210Y-95614D01*
X-81098Y-95630D01*
X-80985Y-95642D01*
X-80872Y-95650D01*
X-80759Y-95654D01*
X-80645Y-95654D01*
X-80532Y-95650D01*
X-80419Y-95642D01*
X-80306Y-95630D01*
X-80194Y-95614D01*
X-80083Y-95594D01*
X-79972Y-95571D01*
X-79862Y-95543D01*
X-79753Y-95512D01*
X-79645Y-95477D01*
X-79539Y-95438D01*
X-79434Y-95396D01*
X-79330Y-95350D01*
X-79228Y-95300D01*
X-79128Y-95247D01*
X-79030Y-95190D01*
X-78934Y-95130D01*
X-78840Y-95067D01*
X-78749Y-95000D01*
X-78659Y-94931D01*
X-78572Y-94858D01*
X-78488Y-94782D01*
X-78407Y-94703D01*
X-78328Y-94622D01*
X-78252Y-94538D01*
X-78179Y-94451D01*
X-78110Y-94361D01*
X-78043Y-94270D01*
X-77980Y-94176D01*
X-77920Y-94080D01*
X-77863Y-93982D01*
X-77810Y-93882D01*
X-77760Y-93780D01*
X-77714Y-93676D01*
X-77672Y-93571D01*
X-77633Y-93465D01*
X-77598Y-93357D01*
X-77567Y-93248D01*
X-77539Y-93138D01*
X-77516Y-93027D01*
X-77496Y-92916D01*
X-77480Y-92804D01*
X-77468Y-92691D01*
X-77460Y-92578D01*
X-77456Y-92465D01*
X-77456Y-92351D01*
X-77460Y-92238D01*
X-77468Y-92125D01*
X-77480Y-92012D01*
X-77496Y-91900D01*
X-77516Y-91789D01*
X-77539Y-91678D01*
X-77567Y-91568D01*
X-77598Y-91459D01*
X-77633Y-91351D01*
X-77672Y-91245D01*
X-77714Y-91140D01*
X-77760Y-91036D01*
X-77810Y-90934D01*
X-77863Y-90834D01*
X-77920Y-90736D01*
X-77980Y-90640D01*
X-78043Y-90546D01*
X-78110Y-90455D01*
X-78179Y-90365D01*
X-78252Y-90278D01*
X-78328Y-90194D01*
X-78407Y-90113D01*
X-78488Y-90034D01*
X-78572Y-89958D01*
X-78659Y-89885D01*
X-78748Y-89816D01*
X-78840Y-89749D01*
X-75330Y-85868D02*
X-78521Y-83634D01*
X-75331Y-85868D02*
X-75250Y-85928D01*
X-75171Y-85990D01*
X-75094Y-86056D01*
X-75020Y-86124D01*
X-74949Y-86195D01*
X-74881Y-86269D01*
X-74815Y-86346D01*
X-74753Y-86425D01*
X-74693Y-86506D01*
X-74637Y-86590D01*
X-74584Y-86675D01*
X-74535Y-86763D01*
X-74489Y-86852D01*
X-74446Y-86944D01*
X-74407Y-87037D01*
X-74372Y-87131D01*
X-74340Y-87226D01*
X-74312Y-87323D01*
X-74288Y-87421D01*
X-74268Y-87519D01*
X-74251Y-87619D01*
X-74239Y-87719D01*
X-74230Y-87819D01*
X-74225Y-87919D01*
X-74224Y-88020D01*
X-74227Y-88121D01*
X-74234Y-88221D01*
X-74245Y-88321D01*
X-74259Y-88421D01*
X-74278Y-88520D01*
X-74300Y-88618D01*
X-74326Y-88715D01*
X-74356Y-88812D01*
X-74389Y-88906D01*
X-74426Y-89000D01*
X-74467Y-89092D01*
X-74512Y-89183D01*
X-74559Y-89271D01*
X-74611Y-89358D01*
X-74665Y-89442D01*
X-74723Y-89525D01*
X-74784Y-89605D01*
X-74848Y-89683D01*
X-74915Y-89758D01*
X-74984Y-89831D01*
X-75057Y-89900D01*
X-75132Y-89967D01*
X-75210Y-90031D01*
X-75290Y-90092D01*
X-75373Y-90150D01*
X-75457Y-90204D01*
X-75544Y-90256D01*
X-75632Y-90303D01*
X-75723Y-90348D01*
X-75815Y-90389D01*
X-75909Y-90426D01*
X-76003Y-90459D01*
X-76100Y-90489D01*
X-76197Y-90515D01*
X-76295Y-90537D01*
X-76394Y-90556D01*
X-76494Y-90570D01*
X-76594Y-90581D01*
X-76694Y-90588D01*
X-76795Y-90591D01*
X-76896Y-90590D01*
X-76996Y-90585D01*
X-77096Y-90576D01*
X-77196Y-90564D01*
X-77296Y-90547D01*
X-77394Y-90527D01*
X-77492Y-90503D01*
X-77589Y-90475D01*
X-77684Y-90443D01*
X-77778Y-90408D01*
X-77871Y-90369D01*
X-77963Y-90326D01*
X-78052Y-90280D01*
X-78140Y-90231D01*
X-78225Y-90178D01*
X-78309Y-90122D01*
X-80436Y-88633D01*
X-69689Y-89818D02*
X-73201Y-101623D01*
X-63309Y-94286D01*
X-66496Y-106317D02*
X-63838Y-108179D01*
X-63744Y-108242D01*
X-63648Y-108302D01*
X-63550Y-108359D01*
X-63450Y-108412D01*
X-63348Y-108462D01*
X-63244Y-108508D01*
X-63139Y-108550D01*
X-63033Y-108589D01*
X-62925Y-108624D01*
X-62816Y-108655D01*
X-62706Y-108683D01*
X-62595Y-108706D01*
X-62484Y-108726D01*
X-62372Y-108742D01*
X-62259Y-108754D01*
X-62146Y-108762D01*
X-62033Y-108766D01*
X-61919Y-108766D01*
X-61806Y-108762D01*
X-61693Y-108754D01*
X-61580Y-108742D01*
X-61468Y-108726D01*
X-61357Y-108706D01*
X-61246Y-108683D01*
X-61136Y-108655D01*
X-61027Y-108624D01*
X-60919Y-108589D01*
X-60813Y-108550D01*
X-60708Y-108508D01*
X-60604Y-108462D01*
X-60502Y-108412D01*
X-60402Y-108359D01*
X-60304Y-108302D01*
X-60208Y-108242D01*
X-60114Y-108179D01*
X-60023Y-108112D01*
X-59933Y-108043D01*
X-59846Y-107970D01*
X-59762Y-107894D01*
X-59681Y-107815D01*
X-59602Y-107734D01*
X-59526Y-107650D01*
X-59453Y-107563D01*
X-59384Y-107473D01*
X-59317Y-107382D01*
X-59254Y-107288D01*
X-59194Y-107192D01*
X-59137Y-107094D01*
X-59084Y-106994D01*
X-59034Y-106892D01*
X-58988Y-106788D01*
X-58946Y-106683D01*
X-58907Y-106577D01*
X-58872Y-106469D01*
X-58841Y-106360D01*
X-58813Y-106250D01*
X-58790Y-106139D01*
X-58770Y-106028D01*
X-58754Y-105916D01*
X-58742Y-105803D01*
X-58734Y-105690D01*
X-58730Y-105577D01*
X-58730Y-105463D01*
X-58734Y-105350D01*
X-58742Y-105237D01*
X-58754Y-105124D01*
X-58770Y-105012D01*
X-58790Y-104901D01*
X-58813Y-104790D01*
X-58841Y-104680D01*
X-58872Y-104571D01*
X-58907Y-104463D01*
X-58946Y-104357D01*
X-58988Y-104252D01*
X-59034Y-104148D01*
X-59084Y-104046D01*
X-59137Y-103946D01*
X-59194Y-103848D01*
X-59254Y-103752D01*
X-59317Y-103658D01*
X-59384Y-103567D01*
X-59453Y-103477D01*
X-59526Y-103390D01*
X-59602Y-103306D01*
X-59681Y-103225D01*
X-59762Y-103146D01*
X-59846Y-103070D01*
X-59933Y-102997D01*
X-60022Y-102928D01*
X-60114Y-102861D01*
X-56604Y-98980D02*
X-59795Y-96746D01*
X-56605Y-98980D02*
X-56524Y-99040D01*
X-56445Y-99102D01*
X-56368Y-99168D01*
X-56294Y-99236D01*
X-56223Y-99307D01*
X-56155Y-99381D01*
X-56089Y-99458D01*
X-56027Y-99537D01*
X-55967Y-99618D01*
X-55911Y-99702D01*
X-55858Y-99787D01*
X-55809Y-99875D01*
X-55763Y-99964D01*
X-55720Y-100056D01*
X-55681Y-100149D01*
X-55646Y-100243D01*
X-55614Y-100338D01*
X-55586Y-100435D01*
X-55562Y-100533D01*
X-55542Y-100631D01*
X-55525Y-100731D01*
X-55513Y-100831D01*
X-55504Y-100931D01*
X-55499Y-101031D01*
X-55498Y-101132D01*
X-55501Y-101233D01*
X-55508Y-101333D01*
X-55519Y-101433D01*
X-55533Y-101533D01*
X-55552Y-101632D01*
X-55574Y-101730D01*
X-55600Y-101827D01*
X-55630Y-101924D01*
X-55663Y-102018D01*
X-55700Y-102112D01*
X-55741Y-102204D01*
X-55786Y-102295D01*
X-55833Y-102383D01*
X-55885Y-102470D01*
X-55939Y-102554D01*
X-55997Y-102637D01*
X-56058Y-102717D01*
X-56122Y-102795D01*
X-56189Y-102870D01*
X-56258Y-102943D01*
X-56331Y-103012D01*
X-56406Y-103079D01*
X-56484Y-103143D01*
X-56564Y-103204D01*
X-56647Y-103262D01*
X-56731Y-103316D01*
X-56818Y-103368D01*
X-56906Y-103415D01*
X-56997Y-103460D01*
X-57089Y-103501D01*
X-57183Y-103538D01*
X-57277Y-103571D01*
X-57374Y-103601D01*
X-57471Y-103627D01*
X-57569Y-103649D01*
X-57668Y-103668D01*
X-57768Y-103682D01*
X-57868Y-103693D01*
X-57968Y-103700D01*
X-58069Y-103703D01*
X-58170Y-103702D01*
X-58270Y-103697D01*
X-58370Y-103688D01*
X-58470Y-103676D01*
X-58570Y-103659D01*
X-58668Y-103639D01*
X-58766Y-103615D01*
X-58863Y-103587D01*
X-58958Y-103555D01*
X-59052Y-103520D01*
X-59145Y-103481D01*
X-59237Y-103438D01*
X-59326Y-103392D01*
X-59414Y-103343D01*
X-59499Y-103290D01*
X-59583Y-103234D01*
X-61710Y-101745D01*
X61179Y-110040D02*
X63838Y-108179D01*
X63930Y-108112D01*
X64019Y-108043D01*
X64106Y-107970D01*
X64190Y-107894D01*
X64271Y-107815D01*
X64350Y-107734D01*
X64426Y-107650D01*
X64499Y-107563D01*
X64568Y-107473D01*
X64635Y-107382D01*
X64698Y-107288D01*
X64758Y-107192D01*
X64815Y-107094D01*
X64868Y-106994D01*
X64918Y-106892D01*
X64964Y-106788D01*
X65006Y-106683D01*
X65045Y-106577D01*
X65080Y-106469D01*
X65111Y-106360D01*
X65139Y-106250D01*
X65162Y-106139D01*
X65182Y-106028D01*
X65198Y-105916D01*
X65210Y-105803D01*
X65218Y-105690D01*
X65222Y-105577D01*
X65222Y-105463D01*
X65218Y-105350D01*
X65210Y-105237D01*
X65198Y-105124D01*
X65182Y-105012D01*
X65162Y-104901D01*
X65139Y-104790D01*
X65111Y-104680D01*
X65080Y-104571D01*
X65045Y-104463D01*
X65006Y-104357D01*
X64964Y-104252D01*
X64918Y-104148D01*
X64868Y-104046D01*
X64815Y-103946D01*
X64758Y-103848D01*
X64698Y-103752D01*
X64635Y-103658D01*
X64568Y-103567D01*
X64499Y-103477D01*
X64426Y-103390D01*
X64350Y-103306D01*
X64271Y-103225D01*
X64190Y-103146D01*
X64106Y-103070D01*
X64019Y-102997D01*
X63930Y-102928D01*
X63838Y-102861D01*
X63744Y-102798D01*
X63648Y-102738D01*
X63550Y-102681D01*
X63450Y-102628D01*
X63348Y-102578D01*
X63244Y-102532D01*
X63139Y-102490D01*
X63033Y-102451D01*
X62925Y-102416D01*
X62816Y-102385D01*
X62706Y-102357D01*
X62595Y-102334D01*
X62484Y-102314D01*
X62372Y-102298D01*
X62259Y-102286D01*
X62146Y-102278D01*
X62033Y-102274D01*
X61919Y-102274D01*
X61806Y-102278D01*
X61693Y-102286D01*
X61580Y-102298D01*
X61468Y-102314D01*
X61357Y-102334D01*
X61246Y-102357D01*
X61136Y-102385D01*
X61027Y-102416D01*
X60919Y-102451D01*
X60813Y-102490D01*
X60708Y-102532D01*
X60604Y-102578D01*
X60502Y-102628D01*
X60402Y-102681D01*
X60304Y-102738D01*
X60208Y-102798D01*
X60114Y-102861D01*
X57668Y-98236D02*
X54478Y-100469D01*
X57668Y-98235D02*
X57752Y-98179D01*
X57837Y-98126D01*
X57925Y-98077D01*
X58014Y-98031D01*
X58106Y-97988D01*
X58199Y-97949D01*
X58293Y-97914D01*
X58388Y-97882D01*
X58485Y-97854D01*
X58583Y-97830D01*
X58681Y-97810D01*
X58781Y-97793D01*
X58881Y-97781D01*
X58981Y-97772D01*
X59081Y-97767D01*
X59182Y-97766D01*
X59283Y-97769D01*
X59383Y-97776D01*
X59483Y-97787D01*
X59583Y-97801D01*
X59682Y-97820D01*
X59780Y-97842D01*
X59877Y-97868D01*
X59974Y-97898D01*
X60068Y-97931D01*
X60162Y-97968D01*
X60254Y-98009D01*
X60345Y-98054D01*
X60433Y-98101D01*
X60520Y-98153D01*
X60604Y-98207D01*
X60687Y-98265D01*
X60767Y-98326D01*
X60845Y-98390D01*
X60920Y-98457D01*
X60993Y-98526D01*
X61062Y-98599D01*
X61129Y-98674D01*
X61193Y-98752D01*
X61254Y-98832D01*
X61312Y-98915D01*
X61366Y-98999D01*
X61418Y-99086D01*
X61465Y-99174D01*
X61510Y-99265D01*
X61551Y-99357D01*
X61588Y-99451D01*
X61621Y-99545D01*
X61651Y-99642D01*
X61677Y-99739D01*
X61699Y-99837D01*
X61718Y-99936D01*
X61732Y-100036D01*
X61743Y-100136D01*
X61750Y-100236D01*
X61753Y-100337D01*
X61752Y-100438D01*
X61747Y-100538D01*
X61738Y-100638D01*
X61726Y-100738D01*
X61709Y-100838D01*
X61689Y-100936D01*
X61665Y-101034D01*
X61637Y-101131D01*
X61605Y-101226D01*
X61570Y-101320D01*
X61531Y-101413D01*
X61488Y-101505D01*
X61442Y-101594D01*
X61393Y-101682D01*
X61340Y-101767D01*
X61284Y-101851D01*
X61224Y-101932D01*
X61162Y-102011D01*
X61096Y-102088D01*
X61028Y-102162D01*
X60957Y-102233D01*
X60883Y-102301D01*
X60806Y-102367D01*
X60727Y-102429D01*
X60646Y-102489D01*
X58520Y-103979D01*
X63309Y-94286D02*
X73201Y-101623D01*
X69689Y-89818D01*
X79905Y-96928D02*
X82564Y-95067D01*
X82656Y-95000D01*
X82745Y-94931D01*
X82832Y-94858D01*
X82916Y-94782D01*
X82997Y-94703D01*
X83076Y-94622D01*
X83152Y-94538D01*
X83225Y-94451D01*
X83294Y-94361D01*
X83361Y-94270D01*
X83424Y-94176D01*
X83484Y-94080D01*
X83541Y-93982D01*
X83594Y-93882D01*
X83644Y-93780D01*
X83690Y-93676D01*
X83732Y-93571D01*
X83771Y-93465D01*
X83806Y-93357D01*
X83837Y-93248D01*
X83865Y-93138D01*
X83888Y-93027D01*
X83908Y-92916D01*
X83924Y-92804D01*
X83936Y-92691D01*
X83944Y-92578D01*
X83948Y-92465D01*
X83948Y-92351D01*
X83944Y-92238D01*
X83936Y-92125D01*
X83924Y-92012D01*
X83908Y-91900D01*
X83888Y-91789D01*
X83865Y-91678D01*
X83837Y-91568D01*
X83806Y-91459D01*
X83771Y-91351D01*
X83732Y-91245D01*
X83690Y-91140D01*
X83644Y-91036D01*
X83594Y-90934D01*
X83541Y-90834D01*
X83484Y-90736D01*
X83424Y-90640D01*
X83361Y-90546D01*
X83294Y-90455D01*
X83225Y-90365D01*
X83152Y-90278D01*
X83076Y-90194D01*
X82997Y-90113D01*
X82916Y-90034D01*
X82832Y-89958D01*
X82745Y-89885D01*
X82656Y-89816D01*
X82564Y-89749D01*
X82470Y-89686D01*
X82374Y-89626D01*
X82276Y-89569D01*
X82176Y-89516D01*
X82074Y-89466D01*
X81970Y-89420D01*
X81865Y-89378D01*
X81759Y-89339D01*
X81651Y-89304D01*
X81542Y-89273D01*
X81432Y-89245D01*
X81321Y-89222D01*
X81210Y-89202D01*
X81098Y-89186D01*
X80985Y-89174D01*
X80872Y-89166D01*
X80759Y-89162D01*
X80645Y-89162D01*
X80532Y-89166D01*
X80419Y-89174D01*
X80306Y-89186D01*
X80194Y-89202D01*
X80083Y-89222D01*
X79972Y-89245D01*
X79862Y-89273D01*
X79753Y-89304D01*
X79645Y-89339D01*
X79539Y-89378D01*
X79434Y-89420D01*
X79330Y-89466D01*
X79228Y-89516D01*
X79128Y-89569D01*
X79030Y-89626D01*
X78934Y-89686D01*
X78840Y-89749D01*
X76394Y-85124D02*
X73203Y-87357D01*
X76394Y-85123D02*
X76478Y-85067D01*
X76563Y-85014D01*
X76651Y-84965D01*
X76740Y-84919D01*
X76832Y-84876D01*
X76925Y-84837D01*
X77019Y-84802D01*
X77114Y-84770D01*
X77211Y-84742D01*
X77309Y-84718D01*
X77407Y-84698D01*
X77507Y-84681D01*
X77607Y-84669D01*
X77707Y-84660D01*
X77807Y-84655D01*
X77908Y-84654D01*
X78009Y-84657D01*
X78109Y-84664D01*
X78209Y-84675D01*
X78309Y-84689D01*
X78408Y-84708D01*
X78506Y-84730D01*
X78603Y-84756D01*
X78700Y-84786D01*
X78794Y-84819D01*
X78888Y-84856D01*
X78980Y-84897D01*
X79071Y-84942D01*
X79159Y-84989D01*
X79246Y-85041D01*
X79330Y-85095D01*
X79413Y-85153D01*
X79493Y-85214D01*
X79571Y-85278D01*
X79646Y-85345D01*
X79719Y-85414D01*
X79788Y-85487D01*
X79855Y-85562D01*
X79919Y-85640D01*
X79980Y-85720D01*
X80038Y-85803D01*
X80092Y-85887D01*
X80144Y-85974D01*
X80191Y-86062D01*
X80236Y-86153D01*
X80277Y-86245D01*
X80314Y-86339D01*
X80347Y-86433D01*
X80377Y-86530D01*
X80403Y-86627D01*
X80425Y-86725D01*
X80444Y-86824D01*
X80458Y-86924D01*
X80469Y-87024D01*
X80476Y-87124D01*
X80479Y-87225D01*
X80478Y-87326D01*
X80473Y-87426D01*
X80464Y-87526D01*
X80452Y-87626D01*
X80435Y-87726D01*
X80415Y-87824D01*
X80391Y-87922D01*
X80363Y-88019D01*
X80331Y-88114D01*
X80296Y-88208D01*
X80257Y-88301D01*
X80214Y-88393D01*
X80168Y-88482D01*
X80119Y-88570D01*
X80066Y-88655D01*
X80010Y-88739D01*
X79950Y-88820D01*
X79888Y-88899D01*
X79822Y-88976D01*
X79754Y-89050D01*
X79683Y-89121D01*
X79609Y-89189D01*
X79532Y-89255D01*
X79453Y-89317D01*
X79372Y-89377D01*
X77245Y-90867D01*
X105113Y37140D02*
X103490Y39951D01*
X105113Y37140D02*
X105171Y37043D01*
X105233Y36948D01*
X105298Y36855D01*
X105366Y36765D01*
X105437Y36677D01*
X105512Y36591D01*
X105589Y36508D01*
X105669Y36428D01*
X105752Y36351D01*
X105838Y36276D01*
X105926Y36205D01*
X106016Y36137D01*
X106109Y36072D01*
X106204Y36010D01*
X106301Y35952D01*
X106400Y35897D01*
X106501Y35846D01*
X106604Y35798D01*
X106708Y35753D01*
X106814Y35713D01*
X106921Y35676D01*
X107029Y35643D01*
X107139Y35613D01*
X107249Y35588D01*
X107360Y35566D01*
X107472Y35549D01*
X107585Y35535D01*
X107698Y35525D01*
X107811Y35519D01*
X107924Y35517D01*
X108037Y35519D01*
X108150Y35525D01*
X108263Y35535D01*
X108376Y35549D01*
X108488Y35566D01*
X108599Y35588D01*
X108709Y35613D01*
X108819Y35643D01*
X108927Y35676D01*
X109034Y35713D01*
X109140Y35753D01*
X109244Y35798D01*
X109347Y35846D01*
X109448Y35897D01*
X109547Y35952D01*
X109644Y36010D01*
X109739Y36072D01*
X109832Y36137D01*
X109922Y36205D01*
X110010Y36276D01*
X110096Y36351D01*
X110179Y36428D01*
X110259Y36508D01*
X110336Y36591D01*
X110411Y36677D01*
X110482Y36765D01*
X110550Y36855D01*
X110615Y36948D01*
X110677Y37043D01*
X110735Y37140D01*
X110790Y37239D01*
X110841Y37340D01*
X110889Y37443D01*
X110934Y37547D01*
X110974Y37653D01*
X111011Y37760D01*
X111044Y37868D01*
X111074Y37978D01*
X111099Y38088D01*
X111121Y38199D01*
X111138Y38311D01*
X111152Y38424D01*
X111162Y38537D01*
X111168Y38650D01*
X111170Y38763D01*
X111168Y38876D01*
X111162Y38989D01*
X111152Y39102D01*
X111138Y39215D01*
X111121Y39327D01*
X111099Y39438D01*
X111074Y39548D01*
X111044Y39658D01*
X111011Y39766D01*
X110974Y39873D01*
X110934Y39979D01*
X110889Y40083D01*
X110841Y40186D01*
X110790Y40287D01*
X110735Y40386D01*
X115556Y42420D02*
X113609Y45793D01*
X115557Y42421D02*
X115606Y42332D01*
X115651Y42242D01*
X115693Y42151D01*
X115731Y42057D01*
X115765Y41963D01*
X115796Y41867D01*
X115823Y41770D01*
X115846Y41672D01*
X115866Y41573D01*
X115881Y41473D01*
X115893Y41373D01*
X115901Y41273D01*
X115905Y41172D01*
X115905Y41072D01*
X115901Y40971D01*
X115893Y40871D01*
X115881Y40771D01*
X115866Y40671D01*
X115846Y40572D01*
X115823Y40474D01*
X115796Y40377D01*
X115765Y40281D01*
X115731Y40187D01*
X115693Y40093D01*
X115651Y40002D01*
X115606Y39912D01*
X115557Y39824D01*
X115505Y39737D01*
X115450Y39653D01*
X115391Y39571D01*
X115329Y39492D01*
X115265Y39414D01*
X115197Y39340D01*
X115126Y39268D01*
X115053Y39199D01*
X114977Y39133D01*
X114899Y39069D01*
X114818Y39009D01*
X114735Y38952D01*
X114650Y38899D01*
X114563Y38848D01*
X114474Y38801D01*
X114383Y38758D01*
X114290Y38718D01*
X114196Y38682D01*
X114101Y38649D01*
X114004Y38620D01*
X113907Y38595D01*
X113808Y38574D01*
X113709Y38556D01*
X113609Y38543D01*
X113509Y38533D01*
X113409Y38527D01*
X113308Y38525D01*
X113207Y38527D01*
X113107Y38533D01*
X113007Y38543D01*
X112907Y38556D01*
X112808Y38574D01*
X112709Y38595D01*
X112612Y38620D01*
X112515Y38649D01*
X112420Y38682D01*
X112326Y38718D01*
X112233Y38758D01*
X112142Y38801D01*
X112053Y38848D01*
X111966Y38899D01*
X111881Y38952D01*
X111798Y39009D01*
X111717Y39069D01*
X111639Y39133D01*
X111563Y39199D01*
X111490Y39268D01*
X111419Y39340D01*
X111351Y39414D01*
X111287Y39492D01*
X111225Y39571D01*
X111166Y39653D01*
X111111Y39737D01*
X111059Y39824D01*
X111059Y39823D02*
X109761Y42072D01*
X118999Y36456D02*
X110828Y27241D01*
X122894Y29711D01*
X114920Y20153D02*
X116543Y17343D01*
X116543Y17342D02*
X116601Y17245D01*
X116663Y17150D01*
X116728Y17057D01*
X116796Y16967D01*
X116867Y16879D01*
X116942Y16793D01*
X117019Y16710D01*
X117099Y16630D01*
X117182Y16553D01*
X117268Y16478D01*
X117356Y16407D01*
X117446Y16339D01*
X117539Y16274D01*
X117634Y16212D01*
X117731Y16154D01*
X117830Y16099D01*
X117931Y16048D01*
X118034Y16000D01*
X118138Y15955D01*
X118244Y15915D01*
X118351Y15878D01*
X118459Y15845D01*
X118569Y15815D01*
X118679Y15790D01*
X118790Y15768D01*
X118902Y15751D01*
X119015Y15737D01*
X119128Y15727D01*
X119241Y15721D01*
X119354Y15719D01*
X119467Y15721D01*
X119580Y15727D01*
X119693Y15737D01*
X119806Y15751D01*
X119918Y15768D01*
X120029Y15790D01*
X120139Y15815D01*
X120249Y15845D01*
X120357Y15878D01*
X120464Y15915D01*
X120570Y15955D01*
X120674Y16000D01*
X120777Y16048D01*
X120878Y16099D01*
X120977Y16154D01*
X121074Y16212D01*
X121169Y16274D01*
X121262Y16339D01*
X121352Y16407D01*
X121440Y16478D01*
X121526Y16553D01*
X121609Y16630D01*
X121689Y16710D01*
X121766Y16793D01*
X121841Y16879D01*
X121912Y16967D01*
X121980Y17057D01*
X122045Y17150D01*
X122107Y17245D01*
X122165Y17342D01*
X122220Y17441D01*
X122271Y17542D01*
X122319Y17645D01*
X122364Y17749D01*
X122404Y17855D01*
X122441Y17962D01*
X122474Y18070D01*
X122504Y18180D01*
X122529Y18290D01*
X122551Y18401D01*
X122568Y18513D01*
X122582Y18626D01*
X122592Y18739D01*
X122598Y18852D01*
X122600Y18965D01*
X122598Y19078D01*
X122592Y19191D01*
X122582Y19304D01*
X122568Y19417D01*
X122551Y19529D01*
X122529Y19640D01*
X122504Y19750D01*
X122474Y19860D01*
X122441Y19968D01*
X122404Y20075D01*
X122364Y20181D01*
X122319Y20285D01*
X122271Y20388D01*
X122220Y20489D01*
X122165Y20588D01*
X126986Y22623D02*
X125039Y25995D01*
X126987Y22623D02*
X127036Y22534D01*
X127081Y22444D01*
X127123Y22353D01*
X127161Y22259D01*
X127195Y22165D01*
X127226Y22069D01*
X127253Y21972D01*
X127276Y21874D01*
X127296Y21775D01*
X127311Y21675D01*
X127323Y21575D01*
X127331Y21475D01*
X127335Y21374D01*
X127335Y21274D01*
X127331Y21173D01*
X127323Y21073D01*
X127311Y20973D01*
X127296Y20873D01*
X127276Y20774D01*
X127253Y20676D01*
X127226Y20579D01*
X127195Y20483D01*
X127161Y20389D01*
X127123Y20295D01*
X127081Y20204D01*
X127036Y20114D01*
X126987Y20026D01*
X126935Y19939D01*
X126880Y19855D01*
X126821Y19773D01*
X126759Y19694D01*
X126695Y19616D01*
X126627Y19542D01*
X126556Y19470D01*
X126483Y19401D01*
X126407Y19335D01*
X126329Y19271D01*
X126248Y19211D01*
X126165Y19154D01*
X126080Y19101D01*
X125993Y19050D01*
X125904Y19003D01*
X125813Y18960D01*
X125720Y18920D01*
X125626Y18884D01*
X125531Y18851D01*
X125434Y18822D01*
X125337Y18797D01*
X125238Y18776D01*
X125139Y18758D01*
X125039Y18745D01*
X124939Y18735D01*
X124839Y18729D01*
X124738Y18727D01*
X124637Y18729D01*
X124537Y18735D01*
X124437Y18745D01*
X124337Y18758D01*
X124238Y18776D01*
X124139Y18797D01*
X124042Y18822D01*
X123945Y18851D01*
X123850Y18884D01*
X123756Y18920D01*
X123663Y18960D01*
X123572Y19003D01*
X123483Y19050D01*
X123396Y19101D01*
X123311Y19154D01*
X123228Y19211D01*
X123147Y19271D01*
X123069Y19335D01*
X122993Y19401D01*
X122920Y19470D01*
X122849Y19542D01*
X122781Y19616D01*
X122717Y19694D01*
X122655Y19773D01*
X122596Y19855D01*
X122541Y19939D01*
X122489Y20026D01*
X121191Y22275D01*
D11*
X-11349Y-83185D02*
X-11349Y-100965D01*
X-11349Y-83185D02*
X-6410Y-83185D01*
X-6270Y-83187D01*
X-6131Y-83193D01*
X-5991Y-83203D01*
X-5852Y-83217D01*
X-5713Y-83234D01*
X-5575Y-83256D01*
X-5438Y-83282D01*
X-5301Y-83311D01*
X-5165Y-83344D01*
X-5031Y-83381D01*
X-4897Y-83422D01*
X-4765Y-83467D01*
X-4633Y-83516D01*
X-4504Y-83568D01*
X-4376Y-83623D01*
X-4249Y-83683D01*
X-4124Y-83746D01*
X-4001Y-83812D01*
X-3880Y-83882D01*
X-3761Y-83955D01*
X-3644Y-84032D01*
X-3530Y-84112D01*
X-3417Y-84195D01*
X-3307Y-84281D01*
X-3200Y-84371D01*
X-3095Y-84463D01*
X-2993Y-84558D01*
X-2893Y-84656D01*
X-2796Y-84757D01*
X-2702Y-84861D01*
X-2612Y-84967D01*
X-2524Y-85076D01*
X-2439Y-85187D01*
X-2358Y-85301D01*
X-2279Y-85416D01*
X-2204Y-85534D01*
X-2133Y-85654D01*
X-2065Y-85777D01*
X-2000Y-85900D01*
X-1939Y-86026D01*
X-1881Y-86154D01*
X-1827Y-86282D01*
X-1777Y-86413D01*
X-1730Y-86545D01*
X-1687Y-86678D01*
X-1648Y-86812D01*
X-1613Y-86947D01*
X-1582Y-87083D01*
X-1554Y-87221D01*
X-1531Y-87358D01*
X-1511Y-87497D01*
X-1495Y-87636D01*
X-1483Y-87775D01*
X-1475Y-87914D01*
X-1471Y-88054D01*
X-1471Y-88194D01*
X-1475Y-88334D01*
X-1483Y-88473D01*
X-1495Y-88612D01*
X-1511Y-88751D01*
X-1531Y-88890D01*
X-1554Y-89027D01*
X-1582Y-89165D01*
X-1613Y-89301D01*
X-1648Y-89436D01*
X-1687Y-89570D01*
X-1730Y-89703D01*
X-1777Y-89835D01*
X-1827Y-89966D01*
X-1881Y-90094D01*
X-1939Y-90222D01*
X-2000Y-90348D01*
X-2065Y-90471D01*
X-2133Y-90593D01*
X-2204Y-90714D01*
X-2279Y-90832D01*
X-2358Y-90947D01*
X-2439Y-91061D01*
X-2524Y-91172D01*
X-2612Y-91281D01*
X-2702Y-91387D01*
X-2796Y-91491D01*
X-2893Y-91592D01*
X-2993Y-91690D01*
X-3095Y-91785D01*
X-3200Y-91877D01*
X-3307Y-91967D01*
X-3417Y-92053D01*
X-3530Y-92136D01*
X-3644Y-92216D01*
X-3761Y-92293D01*
X-3880Y-92366D01*
X-4001Y-92436D01*
X-4124Y-92502D01*
X-4249Y-92565D01*
X-4376Y-92625D01*
X-4504Y-92680D01*
X-4633Y-92732D01*
X-4765Y-92781D01*
X-4897Y-92826D01*
X-5031Y-92867D01*
X-5165Y-92904D01*
X-5301Y-92937D01*
X-5438Y-92966D01*
X-5575Y-92992D01*
X-5713Y-93014D01*
X-5852Y-93031D01*
X-5991Y-93045D01*
X-6131Y-93055D01*
X-6270Y-93061D01*
X-6410Y-93063D01*
X-11349Y-93063D01*
X4646Y-100965D02*
X9585Y-100965D01*
X9725Y-100963D01*
X9864Y-100957D01*
X10004Y-100947D01*
X10143Y-100933D01*
X10282Y-100916D01*
X10420Y-100894D01*
X10557Y-100868D01*
X10694Y-100839D01*
X10830Y-100806D01*
X10964Y-100769D01*
X11098Y-100728D01*
X11230Y-100683D01*
X11362Y-100634D01*
X11491Y-100582D01*
X11619Y-100527D01*
X11746Y-100467D01*
X11871Y-100404D01*
X11994Y-100338D01*
X12115Y-100268D01*
X12234Y-100195D01*
X12351Y-100118D01*
X12465Y-100038D01*
X12578Y-99955D01*
X12688Y-99869D01*
X12795Y-99779D01*
X12900Y-99687D01*
X13002Y-99592D01*
X13102Y-99494D01*
X13199Y-99393D01*
X13293Y-99289D01*
X13383Y-99183D01*
X13471Y-99074D01*
X13556Y-98963D01*
X13637Y-98849D01*
X13716Y-98734D01*
X13791Y-98616D01*
X13862Y-98495D01*
X13930Y-98373D01*
X13995Y-98250D01*
X14056Y-98124D01*
X14114Y-97996D01*
X14168Y-97868D01*
X14218Y-97737D01*
X14265Y-97605D01*
X14308Y-97472D01*
X14347Y-97338D01*
X14382Y-97203D01*
X14413Y-97067D01*
X14441Y-96929D01*
X14464Y-96792D01*
X14484Y-96653D01*
X14500Y-96514D01*
X14512Y-96375D01*
X14520Y-96236D01*
X14524Y-96096D01*
X14524Y-95956D01*
X14520Y-95816D01*
X14512Y-95677D01*
X14500Y-95538D01*
X14484Y-95399D01*
X14464Y-95260D01*
X14441Y-95123D01*
X14413Y-94985D01*
X14382Y-94849D01*
X14347Y-94714D01*
X14308Y-94580D01*
X14265Y-94447D01*
X14218Y-94315D01*
X14168Y-94184D01*
X14114Y-94056D01*
X14056Y-93928D01*
X13995Y-93802D01*
X13930Y-93679D01*
X13862Y-93556D01*
X13791Y-93436D01*
X13716Y-93318D01*
X13637Y-93203D01*
X13556Y-93089D01*
X13471Y-92978D01*
X13383Y-92869D01*
X13293Y-92763D01*
X13199Y-92659D01*
X13102Y-92558D01*
X13002Y-92460D01*
X12900Y-92365D01*
X12795Y-92273D01*
X12688Y-92183D01*
X12578Y-92097D01*
X12465Y-92014D01*
X12351Y-91934D01*
X12234Y-91857D01*
X12115Y-91784D01*
X11994Y-91714D01*
X11871Y-91648D01*
X11746Y-91585D01*
X11619Y-91525D01*
X11491Y-91470D01*
X11362Y-91418D01*
X11230Y-91369D01*
X11098Y-91324D01*
X10964Y-91283D01*
X10830Y-91246D01*
X10694Y-91213D01*
X10557Y-91184D01*
X10420Y-91158D01*
X10282Y-91136D01*
X10143Y-91119D01*
X10004Y-91105D01*
X9864Y-91095D01*
X9725Y-91089D01*
X9585Y-91087D01*
X10573Y-83185D02*
X4646Y-83185D01*
X10573Y-83185D02*
X10697Y-83187D01*
X10821Y-83193D01*
X10945Y-83203D01*
X11068Y-83216D01*
X11191Y-83234D01*
X11313Y-83255D01*
X11435Y-83280D01*
X11556Y-83309D01*
X11675Y-83342D01*
X11794Y-83378D01*
X11911Y-83419D01*
X12027Y-83462D01*
X12142Y-83510D01*
X12255Y-83561D01*
X12367Y-83616D01*
X12476Y-83674D01*
X12584Y-83735D01*
X12690Y-83800D01*
X12794Y-83868D01*
X12895Y-83940D01*
X12995Y-84014D01*
X13091Y-84092D01*
X13186Y-84172D01*
X13278Y-84256D01*
X13367Y-84342D01*
X13453Y-84431D01*
X13537Y-84523D01*
X13617Y-84618D01*
X13695Y-84714D01*
X13769Y-84814D01*
X13841Y-84915D01*
X13909Y-85019D01*
X13974Y-85125D01*
X14035Y-85233D01*
X14093Y-85342D01*
X14148Y-85454D01*
X14199Y-85567D01*
X14247Y-85682D01*
X14290Y-85798D01*
X14331Y-85915D01*
X14367Y-86034D01*
X14400Y-86153D01*
X14429Y-86274D01*
X14454Y-86396D01*
X14475Y-86518D01*
X14493Y-86641D01*
X14506Y-86764D01*
X14516Y-86888D01*
X14522Y-87012D01*
X14524Y-87136D01*
X14522Y-87260D01*
X14516Y-87384D01*
X14506Y-87508D01*
X14493Y-87631D01*
X14475Y-87754D01*
X14454Y-87876D01*
X14429Y-87998D01*
X14400Y-88119D01*
X14367Y-88238D01*
X14331Y-88357D01*
X14290Y-88474D01*
X14247Y-88590D01*
X14199Y-88705D01*
X14148Y-88818D01*
X14093Y-88930D01*
X14035Y-89039D01*
X13974Y-89147D01*
X13909Y-89253D01*
X13841Y-89357D01*
X13769Y-89458D01*
X13695Y-89558D01*
X13617Y-89654D01*
X13537Y-89749D01*
X13453Y-89841D01*
X13367Y-89930D01*
X13278Y-90016D01*
X13186Y-90100D01*
X13091Y-90180D01*
X12995Y-90258D01*
X12895Y-90332D01*
X12794Y-90404D01*
X12690Y-90472D01*
X12584Y-90537D01*
X12476Y-90598D01*
X12367Y-90656D01*
X12255Y-90711D01*
X12142Y-90762D01*
X12027Y-90810D01*
X11911Y-90853D01*
X11794Y-90894D01*
X11675Y-90930D01*
X11556Y-90963D01*
X11435Y-90992D01*
X11313Y-91017D01*
X11191Y-91038D01*
X11068Y-91056D01*
X10945Y-91069D01*
X10821Y-91079D01*
X10697Y-91085D01*
X10573Y-91087D01*
X6622Y-91087D01*
X-76835Y-21025D02*
X-94615Y-21025D01*
X-76835Y-21025D02*
X-76835Y-25964D01*
X-76837Y-26104D01*
X-76843Y-26243D01*
X-76853Y-26383D01*
X-76867Y-26522D01*
X-76884Y-26661D01*
X-76906Y-26799D01*
X-76932Y-26936D01*
X-76961Y-27073D01*
X-76994Y-27209D01*
X-77031Y-27343D01*
X-77072Y-27477D01*
X-77117Y-27609D01*
X-77166Y-27741D01*
X-77218Y-27870D01*
X-77273Y-27998D01*
X-77333Y-28125D01*
X-77396Y-28250D01*
X-77462Y-28373D01*
X-77532Y-28494D01*
X-77605Y-28613D01*
X-77682Y-28730D01*
X-77762Y-28844D01*
X-77845Y-28957D01*
X-77931Y-29067D01*
X-78021Y-29174D01*
X-78113Y-29279D01*
X-78208Y-29381D01*
X-78306Y-29481D01*
X-78407Y-29578D01*
X-78511Y-29672D01*
X-78617Y-29762D01*
X-78726Y-29850D01*
X-78837Y-29935D01*
X-78951Y-30016D01*
X-79066Y-30095D01*
X-79184Y-30170D01*
X-79304Y-30241D01*
X-79427Y-30309D01*
X-79550Y-30374D01*
X-79676Y-30435D01*
X-79804Y-30493D01*
X-79932Y-30547D01*
X-80063Y-30597D01*
X-80195Y-30644D01*
X-80328Y-30687D01*
X-80462Y-30726D01*
X-80597Y-30761D01*
X-80733Y-30792D01*
X-80871Y-30820D01*
X-81008Y-30843D01*
X-81147Y-30863D01*
X-81286Y-30879D01*
X-81425Y-30891D01*
X-81564Y-30899D01*
X-81704Y-30903D01*
X-81844Y-30903D01*
X-81984Y-30899D01*
X-82123Y-30891D01*
X-82262Y-30879D01*
X-82401Y-30863D01*
X-82540Y-30843D01*
X-82677Y-30820D01*
X-82815Y-30792D01*
X-82951Y-30761D01*
X-83086Y-30726D01*
X-83220Y-30687D01*
X-83353Y-30644D01*
X-83485Y-30597D01*
X-83616Y-30547D01*
X-83744Y-30493D01*
X-83872Y-30435D01*
X-83998Y-30374D01*
X-84121Y-30309D01*
X-84243Y-30241D01*
X-84364Y-30170D01*
X-84482Y-30095D01*
X-84597Y-30016D01*
X-84711Y-29935D01*
X-84822Y-29850D01*
X-84931Y-29762D01*
X-85037Y-29672D01*
X-85141Y-29578D01*
X-85242Y-29481D01*
X-85340Y-29381D01*
X-85435Y-29279D01*
X-85527Y-29174D01*
X-85617Y-29067D01*
X-85703Y-28957D01*
X-85786Y-28844D01*
X-85866Y-28730D01*
X-85943Y-28613D01*
X-86016Y-28494D01*
X-86086Y-28373D01*
X-86152Y-28250D01*
X-86215Y-28125D01*
X-86275Y-27998D01*
X-86330Y-27870D01*
X-86382Y-27741D01*
X-86431Y-27609D01*
X-86476Y-27477D01*
X-86517Y-27343D01*
X-86554Y-27209D01*
X-86587Y-27073D01*
X-86616Y-26936D01*
X-86642Y-26799D01*
X-86664Y-26661D01*
X-86681Y-26522D01*
X-86695Y-26383D01*
X-86705Y-26243D01*
X-86711Y-26104D01*
X-86713Y-25964D01*
X-86713Y-21025D01*
X-90664Y-37020D02*
X-76835Y-40971D01*
X-90664Y-37020D02*
X-90664Y-46898D01*
X-86713Y-43934D02*
X-94615Y-43934D01*
X-87701Y-59267D02*
X-81774Y-59267D01*
X-87701Y-59267D02*
X-92146Y-62725D01*
X-87701Y-59267D02*
X-92146Y-55810D01*
X-87701Y-59267D02*
X-85725Y-64700D01*
X-87701Y-59267D02*
X-85725Y-53835D01*
X-55799Y65723D02*
X-55799Y83503D01*
X-50860Y83503D01*
X-50720Y83501D01*
X-50581Y83495D01*
X-50441Y83485D01*
X-50302Y83471D01*
X-50163Y83454D01*
X-50025Y83432D01*
X-49888Y83406D01*
X-49751Y83377D01*
X-49615Y83344D01*
X-49481Y83307D01*
X-49347Y83266D01*
X-49215Y83221D01*
X-49083Y83172D01*
X-48954Y83120D01*
X-48826Y83065D01*
X-48699Y83005D01*
X-48574Y82942D01*
X-48451Y82876D01*
X-48330Y82806D01*
X-48211Y82733D01*
X-48094Y82656D01*
X-47980Y82576D01*
X-47867Y82493D01*
X-47757Y82407D01*
X-47650Y82317D01*
X-47545Y82225D01*
X-47443Y82130D01*
X-47343Y82032D01*
X-47246Y81931D01*
X-47152Y81827D01*
X-47062Y81721D01*
X-46974Y81612D01*
X-46889Y81501D01*
X-46808Y81387D01*
X-46729Y81272D01*
X-46654Y81154D01*
X-46583Y81034D01*
X-46515Y80911D01*
X-46450Y80788D01*
X-46389Y80662D01*
X-46331Y80534D01*
X-46277Y80406D01*
X-46227Y80275D01*
X-46180Y80143D01*
X-46137Y80010D01*
X-46098Y79876D01*
X-46063Y79741D01*
X-46032Y79605D01*
X-46004Y79467D01*
X-45981Y79330D01*
X-45961Y79191D01*
X-45945Y79052D01*
X-45933Y78913D01*
X-45925Y78774D01*
X-45921Y78634D01*
X-45921Y78494D01*
X-45925Y78354D01*
X-45933Y78215D01*
X-45945Y78076D01*
X-45961Y77937D01*
X-45981Y77798D01*
X-46004Y77661D01*
X-46032Y77523D01*
X-46063Y77387D01*
X-46098Y77252D01*
X-46137Y77118D01*
X-46180Y76985D01*
X-46227Y76853D01*
X-46277Y76722D01*
X-46331Y76594D01*
X-46389Y76466D01*
X-46450Y76340D01*
X-46515Y76217D01*
X-46583Y76095D01*
X-46654Y75974D01*
X-46729Y75856D01*
X-46808Y75741D01*
X-46889Y75627D01*
X-46974Y75516D01*
X-47062Y75407D01*
X-47152Y75301D01*
X-47246Y75197D01*
X-47343Y75096D01*
X-47443Y74998D01*
X-47545Y74903D01*
X-47650Y74811D01*
X-47757Y74721D01*
X-47867Y74635D01*
X-47980Y74552D01*
X-48094Y74472D01*
X-48211Y74395D01*
X-48330Y74322D01*
X-48451Y74252D01*
X-48574Y74186D01*
X-48699Y74123D01*
X-48826Y74063D01*
X-48954Y74008D01*
X-49083Y73956D01*
X-49215Y73907D01*
X-49347Y73862D01*
X-49481Y73821D01*
X-49615Y73784D01*
X-49751Y73751D01*
X-49888Y73722D01*
X-50025Y73696D01*
X-50163Y73674D01*
X-50302Y73657D01*
X-50441Y73643D01*
X-50581Y73633D01*
X-50720Y73627D01*
X-50860Y73625D01*
X-55799Y73625D01*
X-39804Y65723D02*
X-33877Y65723D01*
X-33753Y65725D01*
X-33629Y65731D01*
X-33505Y65741D01*
X-33382Y65754D01*
X-33259Y65772D01*
X-33137Y65793D01*
X-33015Y65818D01*
X-32894Y65847D01*
X-32775Y65880D01*
X-32656Y65916D01*
X-32539Y65957D01*
X-32423Y66000D01*
X-32308Y66048D01*
X-32195Y66099D01*
X-32083Y66154D01*
X-31974Y66212D01*
X-31866Y66273D01*
X-31760Y66338D01*
X-31656Y66406D01*
X-31555Y66478D01*
X-31455Y66552D01*
X-31359Y66630D01*
X-31264Y66710D01*
X-31172Y66794D01*
X-31083Y66880D01*
X-30997Y66969D01*
X-30913Y67061D01*
X-30833Y67156D01*
X-30755Y67252D01*
X-30681Y67352D01*
X-30609Y67453D01*
X-30541Y67557D01*
X-30476Y67663D01*
X-30415Y67771D01*
X-30357Y67880D01*
X-30302Y67992D01*
X-30251Y68105D01*
X-30203Y68220D01*
X-30160Y68336D01*
X-30119Y68453D01*
X-30083Y68572D01*
X-30050Y68691D01*
X-30021Y68812D01*
X-29996Y68934D01*
X-29975Y69056D01*
X-29957Y69179D01*
X-29944Y69302D01*
X-29934Y69426D01*
X-29928Y69550D01*
X-29926Y69674D01*
X-29926Y71649D01*
X-29928Y71773D01*
X-29934Y71897D01*
X-29944Y72021D01*
X-29957Y72144D01*
X-29975Y72267D01*
X-29996Y72389D01*
X-30021Y72511D01*
X-30050Y72632D01*
X-30083Y72751D01*
X-30119Y72870D01*
X-30160Y72987D01*
X-30203Y73103D01*
X-30251Y73218D01*
X-30302Y73331D01*
X-30357Y73443D01*
X-30415Y73552D01*
X-30476Y73660D01*
X-30541Y73766D01*
X-30609Y73870D01*
X-30681Y73971D01*
X-30755Y74071D01*
X-30833Y74167D01*
X-30913Y74262D01*
X-30997Y74354D01*
X-31083Y74443D01*
X-31172Y74529D01*
X-31264Y74613D01*
X-31359Y74693D01*
X-31455Y74771D01*
X-31555Y74845D01*
X-31656Y74917D01*
X-31760Y74985D01*
X-31866Y75050D01*
X-31974Y75111D01*
X-32083Y75169D01*
X-32195Y75224D01*
X-32308Y75275D01*
X-32423Y75323D01*
X-32539Y75366D01*
X-32656Y75407D01*
X-32775Y75443D01*
X-32894Y75476D01*
X-33015Y75505D01*
X-33137Y75530D01*
X-33259Y75551D01*
X-33382Y75569D01*
X-33505Y75582D01*
X-33629Y75592D01*
X-33753Y75598D01*
X-33877Y75600D01*
X-39804Y75600D01*
X-39804Y83503D01*
X-29926Y83503D01*
X34689Y81915D02*
X34689Y64135D01*
X34689Y81915D02*
X39628Y81915D01*
X39768Y81913D01*
X39907Y81907D01*
X40047Y81897D01*
X40186Y81883D01*
X40325Y81866D01*
X40463Y81844D01*
X40600Y81818D01*
X40737Y81789D01*
X40873Y81756D01*
X41007Y81719D01*
X41141Y81678D01*
X41273Y81633D01*
X41405Y81584D01*
X41534Y81532D01*
X41662Y81477D01*
X41789Y81417D01*
X41914Y81354D01*
X42037Y81288D01*
X42158Y81218D01*
X42277Y81145D01*
X42394Y81068D01*
X42508Y80988D01*
X42621Y80905D01*
X42731Y80819D01*
X42838Y80729D01*
X42943Y80637D01*
X43045Y80542D01*
X43145Y80444D01*
X43242Y80343D01*
X43336Y80239D01*
X43426Y80133D01*
X43514Y80024D01*
X43599Y79913D01*
X43680Y79799D01*
X43759Y79684D01*
X43834Y79566D01*
X43905Y79446D01*
X43973Y79323D01*
X44038Y79200D01*
X44099Y79074D01*
X44157Y78946D01*
X44211Y78818D01*
X44261Y78687D01*
X44308Y78555D01*
X44351Y78422D01*
X44390Y78288D01*
X44425Y78153D01*
X44456Y78017D01*
X44484Y77879D01*
X44507Y77742D01*
X44527Y77603D01*
X44543Y77464D01*
X44555Y77325D01*
X44563Y77186D01*
X44567Y77046D01*
X44567Y76906D01*
X44563Y76766D01*
X44555Y76627D01*
X44543Y76488D01*
X44527Y76349D01*
X44507Y76210D01*
X44484Y76073D01*
X44456Y75935D01*
X44425Y75799D01*
X44390Y75664D01*
X44351Y75530D01*
X44308Y75397D01*
X44261Y75265D01*
X44211Y75134D01*
X44157Y75006D01*
X44099Y74878D01*
X44038Y74752D01*
X43973Y74629D01*
X43905Y74507D01*
X43834Y74386D01*
X43759Y74268D01*
X43680Y74153D01*
X43599Y74039D01*
X43514Y73928D01*
X43426Y73819D01*
X43336Y73713D01*
X43242Y73609D01*
X43145Y73508D01*
X43045Y73410D01*
X42943Y73315D01*
X42838Y73223D01*
X42731Y73133D01*
X42621Y73047D01*
X42508Y72964D01*
X42394Y72884D01*
X42277Y72807D01*
X42158Y72734D01*
X42037Y72664D01*
X41914Y72598D01*
X41789Y72535D01*
X41662Y72475D01*
X41534Y72420D01*
X41405Y72368D01*
X41273Y72319D01*
X41141Y72274D01*
X41007Y72233D01*
X40873Y72196D01*
X40737Y72163D01*
X40600Y72134D01*
X40463Y72108D01*
X40325Y72086D01*
X40186Y72069D01*
X40047Y72055D01*
X39907Y72045D01*
X39768Y72039D01*
X39628Y72037D01*
X34689Y72037D01*
X50684Y77964D02*
X55623Y81915D01*
X55623Y64135D01*
X60561Y64135D02*
X50684Y64135D01*
X75248Y-53588D02*
X93028Y-53588D01*
X75248Y-53588D02*
X75248Y-48649D01*
X75247Y-48649D02*
X75249Y-48509D01*
X75255Y-48370D01*
X75265Y-48230D01*
X75279Y-48091D01*
X75296Y-47952D01*
X75318Y-47814D01*
X75344Y-47677D01*
X75373Y-47540D01*
X75406Y-47404D01*
X75443Y-47270D01*
X75484Y-47136D01*
X75529Y-47004D01*
X75578Y-46872D01*
X75630Y-46743D01*
X75685Y-46615D01*
X75745Y-46488D01*
X75808Y-46363D01*
X75874Y-46240D01*
X75944Y-46119D01*
X76017Y-46000D01*
X76094Y-45883D01*
X76174Y-45769D01*
X76257Y-45656D01*
X76343Y-45546D01*
X76433Y-45439D01*
X76525Y-45334D01*
X76620Y-45232D01*
X76718Y-45132D01*
X76819Y-45035D01*
X76923Y-44941D01*
X77029Y-44851D01*
X77138Y-44763D01*
X77249Y-44678D01*
X77363Y-44597D01*
X77478Y-44518D01*
X77596Y-44443D01*
X77717Y-44372D01*
X77839Y-44304D01*
X77962Y-44239D01*
X78088Y-44178D01*
X78216Y-44120D01*
X78344Y-44066D01*
X78475Y-44016D01*
X78607Y-43969D01*
X78740Y-43926D01*
X78874Y-43887D01*
X79009Y-43852D01*
X79145Y-43821D01*
X79283Y-43793D01*
X79420Y-43770D01*
X79559Y-43750D01*
X79698Y-43734D01*
X79837Y-43722D01*
X79976Y-43714D01*
X80116Y-43710D01*
X80256Y-43710D01*
X80396Y-43714D01*
X80535Y-43722D01*
X80674Y-43734D01*
X80813Y-43750D01*
X80952Y-43770D01*
X81089Y-43793D01*
X81227Y-43821D01*
X81363Y-43852D01*
X81498Y-43887D01*
X81632Y-43926D01*
X81765Y-43969D01*
X81897Y-44016D01*
X82028Y-44066D01*
X82156Y-44120D01*
X82284Y-44178D01*
X82410Y-44239D01*
X82533Y-44304D01*
X82656Y-44372D01*
X82776Y-44443D01*
X82894Y-44518D01*
X83009Y-44597D01*
X83123Y-44678D01*
X83234Y-44763D01*
X83343Y-44851D01*
X83449Y-44941D01*
X83553Y-45035D01*
X83654Y-45132D01*
X83752Y-45232D01*
X83847Y-45334D01*
X83939Y-45439D01*
X84029Y-45546D01*
X84115Y-45656D01*
X84198Y-45769D01*
X84278Y-45883D01*
X84355Y-46000D01*
X84428Y-46119D01*
X84498Y-46240D01*
X84564Y-46363D01*
X84627Y-46488D01*
X84687Y-46615D01*
X84742Y-46743D01*
X84794Y-46872D01*
X84843Y-47004D01*
X84888Y-47136D01*
X84929Y-47270D01*
X84966Y-47404D01*
X84999Y-47540D01*
X85028Y-47677D01*
X85054Y-47814D01*
X85076Y-47952D01*
X85093Y-48091D01*
X85107Y-48230D01*
X85117Y-48370D01*
X85123Y-48509D01*
X85125Y-48649D01*
X85125Y-53588D01*
X75248Y-32160D02*
X75250Y-32028D01*
X75256Y-31897D01*
X75266Y-31765D01*
X75279Y-31634D01*
X75297Y-31504D01*
X75318Y-31374D01*
X75343Y-31244D01*
X75372Y-31116D01*
X75405Y-30988D01*
X75442Y-30862D01*
X75482Y-30736D01*
X75526Y-30612D01*
X75574Y-30489D01*
X75625Y-30368D01*
X75680Y-30248D01*
X75738Y-30130D01*
X75800Y-30014D01*
X75866Y-29900D01*
X75934Y-29787D01*
X76006Y-29677D01*
X76081Y-29569D01*
X76160Y-29463D01*
X76241Y-29359D01*
X76326Y-29258D01*
X76413Y-29160D01*
X76504Y-29064D01*
X76597Y-28971D01*
X76693Y-28880D01*
X76791Y-28793D01*
X76892Y-28708D01*
X76996Y-28627D01*
X77102Y-28548D01*
X77210Y-28473D01*
X77320Y-28401D01*
X77433Y-28333D01*
X77547Y-28267D01*
X77663Y-28205D01*
X77781Y-28147D01*
X77901Y-28092D01*
X78022Y-28041D01*
X78145Y-27993D01*
X78269Y-27949D01*
X78395Y-27909D01*
X78521Y-27872D01*
X78649Y-27839D01*
X78777Y-27810D01*
X78907Y-27785D01*
X79037Y-27764D01*
X79167Y-27746D01*
X79298Y-27733D01*
X79430Y-27723D01*
X79561Y-27717D01*
X79693Y-27715D01*
X75247Y-32160D02*
X75249Y-32310D01*
X75255Y-32459D01*
X75265Y-32608D01*
X75278Y-32757D01*
X75296Y-32906D01*
X75317Y-33054D01*
X75343Y-33202D01*
X75372Y-33348D01*
X75405Y-33494D01*
X75442Y-33639D01*
X75483Y-33783D01*
X75527Y-33926D01*
X75575Y-34068D01*
X75627Y-34208D01*
X75682Y-34347D01*
X75741Y-34485D01*
X75804Y-34620D01*
X75870Y-34755D01*
X75940Y-34887D01*
X76013Y-35017D01*
X76090Y-35146D01*
X76170Y-35273D01*
X76253Y-35397D01*
X76339Y-35519D01*
X76429Y-35639D01*
X76522Y-35756D01*
X76617Y-35871D01*
X76716Y-35984D01*
X76818Y-36094D01*
X76922Y-36201D01*
X77029Y-36305D01*
X77139Y-36407D01*
X77252Y-36505D01*
X77367Y-36601D01*
X77485Y-36693D01*
X77605Y-36783D01*
X77727Y-36869D01*
X77851Y-36952D01*
X77978Y-37032D01*
X78106Y-37108D01*
X78237Y-37181D01*
X78370Y-37251D01*
X78504Y-37317D01*
X78640Y-37379D01*
X78777Y-37438D01*
X78916Y-37494D01*
X79057Y-37545D01*
X79198Y-37593D01*
X83150Y-29197D02*
X83057Y-29101D01*
X82961Y-29009D01*
X82862Y-28919D01*
X82761Y-28832D01*
X82658Y-28748D01*
X82553Y-28666D01*
X82445Y-28588D01*
X82335Y-28513D01*
X82223Y-28440D01*
X82109Y-28371D01*
X81993Y-28305D01*
X81875Y-28243D01*
X81756Y-28184D01*
X81635Y-28128D01*
X81512Y-28075D01*
X81388Y-28026D01*
X81263Y-27981D01*
X81136Y-27938D01*
X81009Y-27900D01*
X80880Y-27865D01*
X80751Y-27834D01*
X80620Y-27806D01*
X80489Y-27782D01*
X80357Y-27761D01*
X80225Y-27745D01*
X80092Y-27732D01*
X79959Y-27722D01*
X79826Y-27717D01*
X79693Y-27715D01*
X83150Y-29197D02*
X93028Y-37593D01*
X93028Y-27715D01*
X86113Y-15345D02*
X80186Y-15345D01*
X86113Y-15345D02*
X90558Y-11888D01*
X86113Y-15345D02*
X90558Y-18802D01*
X86113Y-15345D02*
X84138Y-9912D01*
X86113Y-15345D02*
X84138Y-20778D01*
D10*
X-114956Y22105D02*
X-116578Y19295D01*
X-114955Y22105D02*
X-114900Y22204D01*
X-114849Y22305D01*
X-114801Y22408D01*
X-114756Y22512D01*
X-114716Y22618D01*
X-114679Y22725D01*
X-114646Y22833D01*
X-114616Y22943D01*
X-114591Y23053D01*
X-114569Y23164D01*
X-114552Y23276D01*
X-114538Y23389D01*
X-114528Y23502D01*
X-114522Y23615D01*
X-114520Y23728D01*
X-114522Y23841D01*
X-114528Y23954D01*
X-114538Y24067D01*
X-114552Y24180D01*
X-114569Y24292D01*
X-114591Y24403D01*
X-114616Y24513D01*
X-114646Y24623D01*
X-114679Y24731D01*
X-114716Y24838D01*
X-114756Y24944D01*
X-114801Y25048D01*
X-114849Y25151D01*
X-114900Y25252D01*
X-114955Y25351D01*
X-115013Y25448D01*
X-115075Y25543D01*
X-115140Y25636D01*
X-115208Y25726D01*
X-115279Y25814D01*
X-115354Y25900D01*
X-115431Y25983D01*
X-115511Y26063D01*
X-115594Y26140D01*
X-115680Y26215D01*
X-115768Y26286D01*
X-115858Y26354D01*
X-115951Y26419D01*
X-116046Y26481D01*
X-116143Y26539D01*
X-116242Y26594D01*
X-116343Y26645D01*
X-116446Y26693D01*
X-116550Y26738D01*
X-116656Y26778D01*
X-116763Y26815D01*
X-116871Y26848D01*
X-116981Y26878D01*
X-117091Y26903D01*
X-117202Y26925D01*
X-117314Y26942D01*
X-117427Y26956D01*
X-117540Y26966D01*
X-117653Y26972D01*
X-117766Y26974D01*
X-117879Y26972D01*
X-117992Y26966D01*
X-118105Y26956D01*
X-118218Y26942D01*
X-118330Y26925D01*
X-118441Y26903D01*
X-118551Y26878D01*
X-118661Y26848D01*
X-118769Y26815D01*
X-118876Y26778D01*
X-118982Y26738D01*
X-119086Y26693D01*
X-119189Y26645D01*
X-119290Y26594D01*
X-119389Y26539D01*
X-119486Y26481D01*
X-119581Y26419D01*
X-119674Y26354D01*
X-119764Y26286D01*
X-119852Y26215D01*
X-119938Y26140D01*
X-120021Y26063D01*
X-120101Y25983D01*
X-120178Y25900D01*
X-120253Y25814D01*
X-120324Y25726D01*
X-120392Y25636D01*
X-120457Y25543D01*
X-120519Y25448D01*
X-120577Y25351D01*
X-124750Y28509D02*
X-126697Y25137D01*
X-124750Y28510D02*
X-124698Y28596D01*
X-124643Y28680D01*
X-124584Y28762D01*
X-124522Y28841D01*
X-124458Y28919D01*
X-124390Y28993D01*
X-124319Y29065D01*
X-124246Y29134D01*
X-124170Y29200D01*
X-124092Y29264D01*
X-124011Y29324D01*
X-123928Y29381D01*
X-123843Y29434D01*
X-123756Y29485D01*
X-123667Y29532D01*
X-123576Y29575D01*
X-123483Y29615D01*
X-123389Y29651D01*
X-123294Y29684D01*
X-123197Y29713D01*
X-123100Y29738D01*
X-123001Y29759D01*
X-122902Y29777D01*
X-122802Y29790D01*
X-122702Y29800D01*
X-122602Y29806D01*
X-122501Y29808D01*
X-122400Y29806D01*
X-122300Y29800D01*
X-122200Y29790D01*
X-122100Y29777D01*
X-122001Y29759D01*
X-121902Y29738D01*
X-121805Y29713D01*
X-121708Y29684D01*
X-121613Y29651D01*
X-121519Y29615D01*
X-121426Y29575D01*
X-121335Y29532D01*
X-121246Y29485D01*
X-121159Y29434D01*
X-121074Y29381D01*
X-120991Y29324D01*
X-120910Y29264D01*
X-120832Y29200D01*
X-120756Y29134D01*
X-120683Y29065D01*
X-120612Y28993D01*
X-120544Y28919D01*
X-120480Y28841D01*
X-120418Y28762D01*
X-120359Y28680D01*
X-120304Y28596D01*
X-120252Y28510D01*
X-120203Y28421D01*
X-120158Y28331D01*
X-120116Y28240D01*
X-120078Y28146D01*
X-120044Y28052D01*
X-120013Y27956D01*
X-119986Y27859D01*
X-119963Y27761D01*
X-119943Y27662D01*
X-119928Y27562D01*
X-119916Y27462D01*
X-119908Y27362D01*
X-119904Y27261D01*
X-119904Y27161D01*
X-119908Y27060D01*
X-119916Y26960D01*
X-119928Y26860D01*
X-119943Y26760D01*
X-119963Y26661D01*
X-119986Y26563D01*
X-120013Y26466D01*
X-120044Y26370D01*
X-120078Y26276D01*
X-120116Y26182D01*
X-120158Y26091D01*
X-120203Y26001D01*
X-120252Y25913D01*
X-120253Y25913D02*
X-121551Y23664D01*
X-121307Y34473D02*
X-109241Y32004D01*
X-117412Y41219D01*
X-105148Y39092D02*
X-103526Y41903D01*
X-103525Y41902D02*
X-103470Y42001D01*
X-103419Y42102D01*
X-103371Y42205D01*
X-103326Y42309D01*
X-103286Y42415D01*
X-103249Y42522D01*
X-103216Y42630D01*
X-103186Y42740D01*
X-103161Y42850D01*
X-103139Y42961D01*
X-103122Y43073D01*
X-103108Y43186D01*
X-103098Y43299D01*
X-103092Y43412D01*
X-103090Y43525D01*
X-103092Y43638D01*
X-103098Y43751D01*
X-103108Y43864D01*
X-103122Y43977D01*
X-103139Y44089D01*
X-103161Y44200D01*
X-103186Y44310D01*
X-103216Y44420D01*
X-103249Y44528D01*
X-103286Y44635D01*
X-103326Y44741D01*
X-103371Y44845D01*
X-103419Y44948D01*
X-103470Y45049D01*
X-103525Y45148D01*
X-103583Y45245D01*
X-103645Y45340D01*
X-103710Y45433D01*
X-103778Y45523D01*
X-103849Y45611D01*
X-103924Y45697D01*
X-104001Y45780D01*
X-104081Y45860D01*
X-104164Y45937D01*
X-104250Y46012D01*
X-104338Y46083D01*
X-104428Y46151D01*
X-104521Y46216D01*
X-104616Y46278D01*
X-104713Y46336D01*
X-104812Y46391D01*
X-104913Y46442D01*
X-105016Y46490D01*
X-105120Y46535D01*
X-105226Y46575D01*
X-105333Y46612D01*
X-105441Y46645D01*
X-105551Y46675D01*
X-105661Y46700D01*
X-105772Y46722D01*
X-105884Y46739D01*
X-105997Y46753D01*
X-106110Y46763D01*
X-106223Y46769D01*
X-106336Y46771D01*
X-106449Y46769D01*
X-106562Y46763D01*
X-106675Y46753D01*
X-106788Y46739D01*
X-106900Y46722D01*
X-107011Y46700D01*
X-107121Y46675D01*
X-107231Y46645D01*
X-107339Y46612D01*
X-107446Y46575D01*
X-107552Y46535D01*
X-107656Y46490D01*
X-107759Y46442D01*
X-107860Y46391D01*
X-107959Y46336D01*
X-108056Y46278D01*
X-108151Y46216D01*
X-108244Y46151D01*
X-108334Y46083D01*
X-108422Y46012D01*
X-108508Y45937D01*
X-108591Y45860D01*
X-108671Y45780D01*
X-108748Y45697D01*
X-108823Y45611D01*
X-108894Y45523D01*
X-108962Y45433D01*
X-109027Y45340D01*
X-109089Y45245D01*
X-109147Y45148D01*
X-113320Y48307D02*
X-115267Y44934D01*
X-113320Y48307D02*
X-113268Y48393D01*
X-113213Y48477D01*
X-113154Y48559D01*
X-113092Y48638D01*
X-113028Y48716D01*
X-112960Y48790D01*
X-112889Y48862D01*
X-112816Y48931D01*
X-112740Y48997D01*
X-112662Y49061D01*
X-112581Y49121D01*
X-112498Y49178D01*
X-112413Y49231D01*
X-112326Y49282D01*
X-112237Y49329D01*
X-112146Y49372D01*
X-112053Y49412D01*
X-111959Y49448D01*
X-111864Y49481D01*
X-111767Y49510D01*
X-111670Y49535D01*
X-111571Y49556D01*
X-111472Y49574D01*
X-111372Y49587D01*
X-111272Y49597D01*
X-111172Y49603D01*
X-111071Y49605D01*
X-110970Y49603D01*
X-110870Y49597D01*
X-110770Y49587D01*
X-110670Y49574D01*
X-110571Y49556D01*
X-110472Y49535D01*
X-110375Y49510D01*
X-110278Y49481D01*
X-110183Y49448D01*
X-110089Y49412D01*
X-109996Y49372D01*
X-109905Y49329D01*
X-109816Y49282D01*
X-109729Y49231D01*
X-109644Y49178D01*
X-109561Y49121D01*
X-109480Y49061D01*
X-109402Y48997D01*
X-109326Y48931D01*
X-109253Y48862D01*
X-109182Y48790D01*
X-109114Y48716D01*
X-109050Y48638D01*
X-108988Y48559D01*
X-108929Y48477D01*
X-108874Y48393D01*
X-108822Y48307D01*
X-108773Y48218D01*
X-108728Y48128D01*
X-108686Y48037D01*
X-108648Y47943D01*
X-108614Y47849D01*
X-108583Y47753D01*
X-108556Y47656D01*
X-108533Y47558D01*
X-108513Y47459D01*
X-108498Y47359D01*
X-108486Y47259D01*
X-108478Y47159D01*
X-108474Y47058D01*
X-108474Y46958D01*
X-108478Y46857D01*
X-108486Y46757D01*
X-108498Y46657D01*
X-108513Y46557D01*
X-108533Y46458D01*
X-108556Y46360D01*
X-108583Y46263D01*
X-108614Y46167D01*
X-108648Y46073D01*
X-108686Y45979D01*
X-108728Y45888D01*
X-108773Y45798D01*
X-108822Y45710D01*
X-108823Y45710D02*
X-110121Y43462D01*
D11*
X-69088Y51068D02*
X-64572Y51068D01*
X-64572Y51069D02*
X-64439Y51067D01*
X-64307Y51061D01*
X-64175Y51051D01*
X-64043Y51038D01*
X-63911Y51020D01*
X-63781Y50999D01*
X-63650Y50974D01*
X-63521Y50945D01*
X-63393Y50912D01*
X-63265Y50876D01*
X-63139Y50836D01*
X-63014Y50792D01*
X-62890Y50744D01*
X-62768Y50693D01*
X-62647Y50638D01*
X-62528Y50580D01*
X-62410Y50518D01*
X-62295Y50453D01*
X-62181Y50384D01*
X-62070Y50313D01*
X-61961Y50237D01*
X-61854Y50159D01*
X-61749Y50078D01*
X-61647Y49993D01*
X-61547Y49906D01*
X-61450Y49816D01*
X-61355Y49723D01*
X-61264Y49627D01*
X-61175Y49529D01*
X-61089Y49428D01*
X-61006Y49324D01*
X-60926Y49218D01*
X-60850Y49110D01*
X-60776Y49000D01*
X-60706Y48887D01*
X-60639Y48773D01*
X-60576Y48656D01*
X-60516Y48538D01*
X-60459Y48418D01*
X-60406Y48296D01*
X-60357Y48173D01*
X-60311Y48049D01*
X-60269Y47923D01*
X-60231Y47796D01*
X-60196Y47668D01*
X-60165Y47539D01*
X-60138Y47410D01*
X-60115Y47279D01*
X-60095Y47148D01*
X-60080Y47016D01*
X-60068Y46884D01*
X-60060Y46752D01*
X-60056Y46619D01*
X-60056Y46487D01*
X-60060Y46354D01*
X-60068Y46222D01*
X-60080Y46090D01*
X-60095Y45958D01*
X-60115Y45827D01*
X-60138Y45696D01*
X-60165Y45567D01*
X-60196Y45438D01*
X-60231Y45310D01*
X-60269Y45183D01*
X-60311Y45057D01*
X-60357Y44933D01*
X-60406Y44810D01*
X-60459Y44688D01*
X-60516Y44568D01*
X-60576Y44450D01*
X-60639Y44333D01*
X-60706Y44219D01*
X-60776Y44106D01*
X-60850Y43996D01*
X-60926Y43888D01*
X-61006Y43782D01*
X-61089Y43678D01*
X-61175Y43577D01*
X-61264Y43479D01*
X-61355Y43383D01*
X-61450Y43290D01*
X-61547Y43200D01*
X-61647Y43113D01*
X-61749Y43028D01*
X-61854Y42947D01*
X-61961Y42869D01*
X-62070Y42793D01*
X-62181Y42722D01*
X-62295Y42653D01*
X-62410Y42588D01*
X-62528Y42526D01*
X-62647Y42468D01*
X-62768Y42413D01*
X-62890Y42362D01*
X-63014Y42314D01*
X-63139Y42270D01*
X-63265Y42230D01*
X-63393Y42194D01*
X-63521Y42161D01*
X-63650Y42132D01*
X-63781Y42107D01*
X-63911Y42086D01*
X-64043Y42068D01*
X-64175Y42055D01*
X-64307Y42045D01*
X-64439Y42039D01*
X-64572Y42037D01*
X-69088Y42037D01*
X-69088Y58293D01*
X-64572Y58293D01*
X-64453Y58291D01*
X-64333Y58285D01*
X-64214Y58275D01*
X-64096Y58261D01*
X-63977Y58244D01*
X-63860Y58222D01*
X-63743Y58197D01*
X-63628Y58167D01*
X-63513Y58134D01*
X-63399Y58097D01*
X-63287Y58057D01*
X-63176Y58012D01*
X-63067Y57964D01*
X-62959Y57913D01*
X-62853Y57858D01*
X-62749Y57799D01*
X-62647Y57737D01*
X-62547Y57672D01*
X-62449Y57603D01*
X-62353Y57531D01*
X-62260Y57456D01*
X-62170Y57379D01*
X-62082Y57298D01*
X-61997Y57214D01*
X-61915Y57127D01*
X-61835Y57038D01*
X-61759Y56946D01*
X-61685Y56852D01*
X-61615Y56755D01*
X-61548Y56657D01*
X-61484Y56556D01*
X-61424Y56452D01*
X-61367Y56347D01*
X-61314Y56240D01*
X-61264Y56132D01*
X-61218Y56022D01*
X-61176Y55910D01*
X-61137Y55797D01*
X-61102Y55683D01*
X-61071Y55568D01*
X-61043Y55451D01*
X-61020Y55334D01*
X-61000Y55217D01*
X-60984Y55098D01*
X-60972Y54979D01*
X-60964Y54860D01*
X-60960Y54741D01*
X-60960Y54621D01*
X-60964Y54502D01*
X-60972Y54383D01*
X-60984Y54264D01*
X-61000Y54145D01*
X-61020Y54028D01*
X-61043Y53911D01*
X-61071Y53794D01*
X-61102Y53679D01*
X-61137Y53565D01*
X-61176Y53452D01*
X-61218Y53340D01*
X-61264Y53230D01*
X-61314Y53122D01*
X-61367Y53015D01*
X-61424Y52910D01*
X-61484Y52806D01*
X-61548Y52705D01*
X-61615Y52607D01*
X-61685Y52510D01*
X-61759Y52416D01*
X-61835Y52324D01*
X-61915Y52235D01*
X-61997Y52148D01*
X-62082Y52064D01*
X-62170Y51983D01*
X-62260Y51906D01*
X-62353Y51831D01*
X-62449Y51759D01*
X-62547Y51690D01*
X-62647Y51625D01*
X-62749Y51563D01*
X-62853Y51504D01*
X-62959Y51449D01*
X-63067Y51398D01*
X-63176Y51350D01*
X-63287Y51305D01*
X-63399Y51265D01*
X-63513Y51228D01*
X-63628Y51195D01*
X-63743Y51165D01*
X-63860Y51140D01*
X-63977Y51118D01*
X-64096Y51101D01*
X-64214Y51087D01*
X-64333Y51077D01*
X-64453Y51071D01*
X-64572Y51069D01*
X-65476Y16637D02*
X-61863Y16637D01*
X-65476Y16637D02*
X-65594Y16639D01*
X-65712Y16645D01*
X-65830Y16654D01*
X-65947Y16668D01*
X-66064Y16685D01*
X-66181Y16706D01*
X-66296Y16731D01*
X-66411Y16760D01*
X-66525Y16793D01*
X-66637Y16829D01*
X-66748Y16869D01*
X-66858Y16912D01*
X-66967Y16959D01*
X-67074Y17009D01*
X-67179Y17064D01*
X-67282Y17121D01*
X-67383Y17182D01*
X-67483Y17246D01*
X-67580Y17313D01*
X-67675Y17383D01*
X-67767Y17457D01*
X-67858Y17533D01*
X-67945Y17613D01*
X-68030Y17695D01*
X-68112Y17780D01*
X-68192Y17867D01*
X-68268Y17958D01*
X-68342Y18050D01*
X-68412Y18145D01*
X-68479Y18242D01*
X-68543Y18342D01*
X-68604Y18443D01*
X-68661Y18546D01*
X-68716Y18651D01*
X-68766Y18758D01*
X-68813Y18867D01*
X-68856Y18977D01*
X-68896Y19088D01*
X-68932Y19200D01*
X-68965Y19314D01*
X-68994Y19429D01*
X-69019Y19544D01*
X-69040Y19661D01*
X-69057Y19778D01*
X-69071Y19895D01*
X-69080Y20013D01*
X-69086Y20131D01*
X-69088Y20249D01*
X-69088Y29281D01*
X-69086Y29399D01*
X-69080Y29517D01*
X-69071Y29635D01*
X-69057Y29752D01*
X-69040Y29869D01*
X-69019Y29986D01*
X-68994Y30101D01*
X-68965Y30216D01*
X-68932Y30330D01*
X-68896Y30442D01*
X-68856Y30553D01*
X-68813Y30663D01*
X-68766Y30772D01*
X-68716Y30879D01*
X-68661Y30984D01*
X-68604Y31087D01*
X-68543Y31188D01*
X-68479Y31288D01*
X-68412Y31385D01*
X-68342Y31480D01*
X-68268Y31572D01*
X-68192Y31663D01*
X-68112Y31750D01*
X-68030Y31835D01*
X-67945Y31917D01*
X-67858Y31997D01*
X-67767Y32073D01*
X-67675Y32147D01*
X-67580Y32217D01*
X-67483Y32284D01*
X-67383Y32348D01*
X-67282Y32409D01*
X-67179Y32466D01*
X-67074Y32521D01*
X-66967Y32571D01*
X-66858Y32618D01*
X-66748Y32661D01*
X-66637Y32701D01*
X-66525Y32737D01*
X-66411Y32770D01*
X-66296Y32799D01*
X-66181Y32824D01*
X-66064Y32845D01*
X-65947Y32862D01*
X-65830Y32876D01*
X-65712Y32885D01*
X-65594Y32891D01*
X-65476Y32893D01*
X-61863Y32893D01*
X-69088Y7493D02*
X-69088Y-8763D01*
X-69088Y7493D02*
X-64572Y7493D01*
X-64441Y7491D01*
X-64309Y7485D01*
X-64178Y7476D01*
X-64048Y7462D01*
X-63917Y7445D01*
X-63788Y7424D01*
X-63659Y7400D01*
X-63531Y7371D01*
X-63403Y7339D01*
X-63277Y7303D01*
X-63152Y7264D01*
X-63027Y7221D01*
X-62905Y7174D01*
X-62783Y7124D01*
X-62663Y7070D01*
X-62545Y7013D01*
X-62429Y6952D01*
X-62314Y6888D01*
X-62201Y6821D01*
X-62090Y6750D01*
X-61982Y6676D01*
X-61875Y6599D01*
X-61771Y6519D01*
X-61669Y6436D01*
X-61570Y6351D01*
X-61473Y6262D01*
X-61379Y6170D01*
X-61287Y6076D01*
X-61198Y5979D01*
X-61113Y5880D01*
X-61030Y5778D01*
X-60950Y5674D01*
X-60873Y5567D01*
X-60799Y5459D01*
X-60728Y5348D01*
X-60661Y5235D01*
X-60597Y5120D01*
X-60536Y5004D01*
X-60479Y4886D01*
X-60425Y4766D01*
X-60375Y4644D01*
X-60328Y4522D01*
X-60285Y4397D01*
X-60246Y4272D01*
X-60210Y4146D01*
X-60178Y4018D01*
X-60149Y3890D01*
X-60125Y3761D01*
X-60104Y3632D01*
X-60087Y3501D01*
X-60073Y3371D01*
X-60064Y3240D01*
X-60058Y3108D01*
X-60056Y2977D01*
X-60057Y2977D02*
X-60057Y-4247D01*
X-60056Y-4247D02*
X-60058Y-4378D01*
X-60064Y-4510D01*
X-60073Y-4641D01*
X-60087Y-4771D01*
X-60104Y-4902D01*
X-60125Y-5031D01*
X-60149Y-5160D01*
X-60178Y-5288D01*
X-60210Y-5416D01*
X-60246Y-5542D01*
X-60285Y-5667D01*
X-60328Y-5792D01*
X-60375Y-5914D01*
X-60425Y-6036D01*
X-60479Y-6156D01*
X-60536Y-6274D01*
X-60597Y-6390D01*
X-60661Y-6505D01*
X-60728Y-6618D01*
X-60799Y-6729D01*
X-60873Y-6837D01*
X-60950Y-6944D01*
X-61030Y-7048D01*
X-61113Y-7150D01*
X-61198Y-7249D01*
X-61287Y-7346D01*
X-61379Y-7440D01*
X-61473Y-7532D01*
X-61570Y-7621D01*
X-61669Y-7706D01*
X-61771Y-7789D01*
X-61875Y-7869D01*
X-61982Y-7946D01*
X-62090Y-8020D01*
X-62201Y-8091D01*
X-62314Y-8158D01*
X-62429Y-8222D01*
X-62545Y-8283D01*
X-62663Y-8340D01*
X-62783Y-8394D01*
X-62905Y-8444D01*
X-63027Y-8491D01*
X-63152Y-8534D01*
X-63277Y-8573D01*
X-63403Y-8609D01*
X-63531Y-8641D01*
X-63659Y-8670D01*
X-63788Y-8694D01*
X-63918Y-8715D01*
X-64048Y-8732D01*
X-64178Y-8746D01*
X-64309Y-8755D01*
X-64441Y-8761D01*
X-64572Y-8763D01*
X-69088Y-8763D01*
D12*
X-22289Y-33041D02*
X-22289Y-34989D01*
X-22289Y-33041D02*
X-20341Y-33041D01*
X-20341Y-34989D01*
X-22289Y-34989D01*
X-11176Y58674D02*
X-11176Y60621D01*
X-9229Y60621D01*
X-9229Y58674D01*
X-11176Y58674D01*
D13*
X25400Y9906D02*
X25400Y2286D01*
D14*
X29178Y-20984D02*
X29178Y-22621D01*
X29176Y-22699D01*
X29171Y-22777D01*
X29161Y-22854D01*
X29148Y-22931D01*
X29132Y-23007D01*
X29112Y-23082D01*
X29088Y-23156D01*
X29061Y-23229D01*
X29030Y-23301D01*
X28996Y-23371D01*
X28959Y-23439D01*
X28918Y-23506D01*
X28874Y-23571D01*
X28828Y-23633D01*
X28778Y-23693D01*
X28726Y-23751D01*
X28671Y-23806D01*
X28613Y-23858D01*
X28553Y-23908D01*
X28491Y-23954D01*
X28426Y-23998D01*
X28360Y-24039D01*
X28291Y-24076D01*
X28221Y-24110D01*
X28149Y-24141D01*
X28076Y-24168D01*
X28002Y-24192D01*
X27927Y-24212D01*
X27851Y-24228D01*
X27774Y-24241D01*
X27697Y-24251D01*
X27619Y-24256D01*
X27541Y-24258D01*
X23449Y-24258D01*
X23369Y-24256D01*
X23289Y-24250D01*
X23209Y-24240D01*
X23130Y-24227D01*
X23051Y-24209D01*
X22974Y-24188D01*
X22898Y-24162D01*
X22823Y-24133D01*
X22749Y-24101D01*
X22677Y-24065D01*
X22607Y-24025D01*
X22540Y-23982D01*
X22474Y-23936D01*
X22411Y-23886D01*
X22350Y-23834D01*
X22291Y-23779D01*
X22236Y-23720D01*
X22184Y-23660D01*
X22134Y-23596D01*
X22088Y-23531D01*
X22045Y-23463D01*
X22005Y-23393D01*
X21969Y-23321D01*
X21937Y-23247D01*
X21908Y-23173D01*
X21883Y-23096D01*
X21861Y-23019D01*
X21843Y-22940D01*
X21830Y-22861D01*
X21820Y-22782D01*
X21814Y-22701D01*
X21812Y-22621D01*
X21812Y-20984D01*
X23449Y-18138D02*
X21812Y-16092D01*
X29178Y-16092D01*
X29178Y-18138D02*
X29178Y-14046D01*
X25495Y-10823D02*
X25342Y-10821D01*
X25189Y-10815D01*
X25037Y-10806D01*
X24884Y-10792D01*
X24732Y-10775D01*
X24581Y-10754D01*
X24430Y-10729D01*
X24280Y-10700D01*
X24130Y-10668D01*
X23982Y-10631D01*
X23834Y-10591D01*
X23687Y-10548D01*
X23542Y-10500D01*
X23398Y-10449D01*
X23255Y-10395D01*
X23113Y-10336D01*
X22974Y-10275D01*
X22835Y-10209D01*
X22765Y-10183D01*
X22696Y-10153D01*
X22628Y-10121D01*
X22562Y-10084D01*
X22498Y-10045D01*
X22436Y-10002D01*
X22377Y-9957D01*
X22319Y-9908D01*
X22265Y-9857D01*
X22212Y-9803D01*
X22163Y-9746D01*
X22116Y-9687D01*
X22073Y-9626D01*
X22032Y-9563D01*
X21995Y-9498D01*
X21960Y-9431D01*
X21930Y-9362D01*
X21902Y-9292D01*
X21879Y-9221D01*
X21858Y-9149D01*
X21842Y-9076D01*
X21829Y-9002D01*
X21819Y-8927D01*
X21814Y-8852D01*
X21812Y-8777D01*
X21814Y-8702D01*
X21819Y-8627D01*
X21829Y-8552D01*
X21842Y-8478D01*
X21858Y-8405D01*
X21879Y-8333D01*
X21902Y-8262D01*
X21930Y-8192D01*
X21960Y-8123D01*
X21995Y-8056D01*
X22032Y-7991D01*
X22073Y-7928D01*
X22116Y-7867D01*
X22163Y-7808D01*
X22212Y-7751D01*
X22265Y-7697D01*
X22319Y-7646D01*
X22377Y-7598D01*
X22436Y-7552D01*
X22498Y-7509D01*
X22562Y-7470D01*
X22628Y-7434D01*
X22695Y-7401D01*
X22765Y-7371D01*
X22835Y-7345D01*
X22973Y-7280D01*
X23113Y-7218D01*
X23255Y-7160D01*
X23398Y-7105D01*
X23542Y-7054D01*
X23687Y-7006D01*
X23834Y-6963D01*
X23981Y-6923D01*
X24130Y-6886D01*
X24280Y-6854D01*
X24430Y-6825D01*
X24581Y-6800D01*
X24732Y-6779D01*
X24884Y-6762D01*
X25037Y-6748D01*
X25189Y-6739D01*
X25342Y-6733D01*
X25495Y-6731D01*
X25495Y-10823D02*
X25648Y-10821D01*
X25801Y-10815D01*
X25953Y-10806D01*
X26106Y-10792D01*
X26258Y-10775D01*
X26409Y-10754D01*
X26560Y-10729D01*
X26710Y-10700D01*
X26860Y-10668D01*
X27008Y-10631D01*
X27156Y-10591D01*
X27303Y-10548D01*
X27448Y-10500D01*
X27592Y-10449D01*
X27735Y-10395D01*
X27877Y-10336D01*
X28016Y-10275D01*
X28155Y-10209D01*
X28225Y-10183D01*
X28295Y-10153D01*
X28362Y-10120D01*
X28428Y-10084D01*
X28492Y-10045D01*
X28554Y-10002D01*
X28613Y-9956D01*
X28671Y-9908D01*
X28725Y-9857D01*
X28778Y-9803D01*
X28827Y-9746D01*
X28874Y-9687D01*
X28917Y-9626D01*
X28958Y-9563D01*
X28995Y-9498D01*
X29030Y-9431D01*
X29060Y-9362D01*
X29088Y-9292D01*
X29111Y-9221D01*
X29132Y-9149D01*
X29148Y-9076D01*
X29161Y-9002D01*
X29171Y-8927D01*
X29176Y-8852D01*
X29178Y-8777D01*
X28155Y-7345D02*
X28017Y-7280D01*
X27877Y-7218D01*
X27735Y-7160D01*
X27592Y-7105D01*
X27448Y-7054D01*
X27303Y-7006D01*
X27156Y-6963D01*
X27009Y-6923D01*
X26860Y-6886D01*
X26710Y-6854D01*
X26560Y-6825D01*
X26409Y-6800D01*
X26258Y-6779D01*
X26106Y-6762D01*
X25953Y-6748D01*
X25801Y-6739D01*
X25648Y-6733D01*
X25495Y-6731D01*
X28155Y-7345D02*
X28226Y-7371D01*
X28295Y-7401D01*
X28362Y-7434D01*
X28428Y-7470D01*
X28492Y-7509D01*
X28554Y-7552D01*
X28613Y-7598D01*
X28671Y-7646D01*
X28725Y-7697D01*
X28778Y-7751D01*
X28827Y-7808D01*
X28874Y-7867D01*
X28917Y-7928D01*
X28958Y-7991D01*
X28995Y-8056D01*
X29030Y-8123D01*
X29060Y-8192D01*
X29088Y-8262D01*
X29111Y-8333D01*
X29132Y-8405D01*
X29148Y-8478D01*
X29161Y-8552D01*
X29171Y-8627D01*
X29176Y-8702D01*
X29178Y-8777D01*
X27541Y-10414D02*
X23449Y-7140D01*
D13*
X42863Y-45657D02*
X42863Y-53277D01*
D14*
X47831Y-70025D02*
X47831Y-71662D01*
X47832Y-71662D02*
X47830Y-71740D01*
X47825Y-71818D01*
X47815Y-71895D01*
X47802Y-71972D01*
X47786Y-72048D01*
X47766Y-72123D01*
X47742Y-72197D01*
X47715Y-72270D01*
X47684Y-72342D01*
X47650Y-72412D01*
X47613Y-72480D01*
X47572Y-72547D01*
X47528Y-72612D01*
X47482Y-72674D01*
X47432Y-72734D01*
X47380Y-72792D01*
X47325Y-72847D01*
X47267Y-72899D01*
X47207Y-72949D01*
X47145Y-72995D01*
X47080Y-73039D01*
X47014Y-73080D01*
X46945Y-73117D01*
X46875Y-73151D01*
X46803Y-73182D01*
X46730Y-73209D01*
X46656Y-73233D01*
X46581Y-73253D01*
X46505Y-73269D01*
X46428Y-73282D01*
X46351Y-73292D01*
X46273Y-73297D01*
X46195Y-73299D01*
X42102Y-73299D01*
X42022Y-73297D01*
X41942Y-73291D01*
X41862Y-73281D01*
X41783Y-73268D01*
X41704Y-73250D01*
X41627Y-73229D01*
X41551Y-73203D01*
X41476Y-73174D01*
X41402Y-73142D01*
X41330Y-73106D01*
X41260Y-73066D01*
X41193Y-73023D01*
X41127Y-72977D01*
X41064Y-72927D01*
X41003Y-72875D01*
X40944Y-72820D01*
X40889Y-72761D01*
X40837Y-72701D01*
X40787Y-72637D01*
X40741Y-72572D01*
X40698Y-72504D01*
X40658Y-72434D01*
X40622Y-72362D01*
X40590Y-72288D01*
X40561Y-72214D01*
X40536Y-72137D01*
X40514Y-72060D01*
X40496Y-71981D01*
X40483Y-71902D01*
X40473Y-71823D01*
X40467Y-71742D01*
X40465Y-71662D01*
X40465Y-70025D01*
X45785Y-67179D02*
X45696Y-67177D01*
X45607Y-67171D01*
X45518Y-67161D01*
X45430Y-67148D01*
X45342Y-67131D01*
X45255Y-67109D01*
X45170Y-67084D01*
X45085Y-67056D01*
X45002Y-67023D01*
X44920Y-66987D01*
X44840Y-66948D01*
X44762Y-66905D01*
X44686Y-66859D01*
X44611Y-66809D01*
X44539Y-66756D01*
X44470Y-66700D01*
X44403Y-66641D01*
X44338Y-66580D01*
X44277Y-66515D01*
X44218Y-66448D01*
X44162Y-66379D01*
X44109Y-66307D01*
X44059Y-66232D01*
X44013Y-66156D01*
X43970Y-66078D01*
X43931Y-65998D01*
X43895Y-65916D01*
X43862Y-65833D01*
X43834Y-65748D01*
X43809Y-65663D01*
X43787Y-65576D01*
X43770Y-65488D01*
X43757Y-65400D01*
X43747Y-65311D01*
X43741Y-65222D01*
X43739Y-65133D01*
X43741Y-65044D01*
X43747Y-64955D01*
X43757Y-64866D01*
X43770Y-64778D01*
X43787Y-64690D01*
X43809Y-64603D01*
X43834Y-64518D01*
X43862Y-64433D01*
X43895Y-64350D01*
X43931Y-64268D01*
X43970Y-64188D01*
X44013Y-64110D01*
X44059Y-64034D01*
X44109Y-63959D01*
X44162Y-63887D01*
X44218Y-63818D01*
X44277Y-63751D01*
X44338Y-63686D01*
X44403Y-63625D01*
X44470Y-63566D01*
X44539Y-63510D01*
X44611Y-63457D01*
X44686Y-63407D01*
X44762Y-63361D01*
X44840Y-63318D01*
X44920Y-63279D01*
X45002Y-63243D01*
X45085Y-63210D01*
X45170Y-63182D01*
X45255Y-63157D01*
X45342Y-63135D01*
X45430Y-63118D01*
X45518Y-63105D01*
X45607Y-63095D01*
X45696Y-63089D01*
X45785Y-63087D01*
X45874Y-63089D01*
X45963Y-63095D01*
X46052Y-63105D01*
X46140Y-63118D01*
X46228Y-63135D01*
X46315Y-63157D01*
X46400Y-63182D01*
X46485Y-63210D01*
X46568Y-63243D01*
X46650Y-63279D01*
X46730Y-63318D01*
X46808Y-63361D01*
X46884Y-63407D01*
X46959Y-63457D01*
X47031Y-63510D01*
X47100Y-63566D01*
X47167Y-63625D01*
X47232Y-63686D01*
X47293Y-63751D01*
X47352Y-63818D01*
X47408Y-63887D01*
X47461Y-63959D01*
X47511Y-64034D01*
X47557Y-64110D01*
X47600Y-64188D01*
X47639Y-64268D01*
X47675Y-64350D01*
X47708Y-64433D01*
X47736Y-64518D01*
X47761Y-64603D01*
X47783Y-64690D01*
X47800Y-64778D01*
X47813Y-64866D01*
X47823Y-64955D01*
X47829Y-65044D01*
X47831Y-65133D01*
X47829Y-65222D01*
X47823Y-65311D01*
X47813Y-65400D01*
X47800Y-65488D01*
X47783Y-65576D01*
X47761Y-65663D01*
X47736Y-65748D01*
X47708Y-65833D01*
X47675Y-65916D01*
X47639Y-65998D01*
X47600Y-66078D01*
X47557Y-66156D01*
X47511Y-66232D01*
X47461Y-66307D01*
X47408Y-66379D01*
X47352Y-66448D01*
X47293Y-66515D01*
X47232Y-66580D01*
X47167Y-66641D01*
X47100Y-66700D01*
X47031Y-66756D01*
X46959Y-66809D01*
X46884Y-66859D01*
X46808Y-66905D01*
X46730Y-66948D01*
X46650Y-66987D01*
X46568Y-67023D01*
X46485Y-67056D01*
X46400Y-67084D01*
X46315Y-67109D01*
X46228Y-67131D01*
X46140Y-67148D01*
X46052Y-67161D01*
X45963Y-67171D01*
X45874Y-67177D01*
X45785Y-67179D01*
X42102Y-66770D02*
X42023Y-66768D01*
X41944Y-66762D01*
X41865Y-66753D01*
X41787Y-66740D01*
X41710Y-66722D01*
X41634Y-66702D01*
X41559Y-66677D01*
X41485Y-66649D01*
X41412Y-66618D01*
X41341Y-66582D01*
X41272Y-66544D01*
X41205Y-66502D01*
X41140Y-66457D01*
X41077Y-66409D01*
X41016Y-66358D01*
X40959Y-66304D01*
X40903Y-66248D01*
X40851Y-66189D01*
X40801Y-66127D01*
X40755Y-66063D01*
X40711Y-65997D01*
X40671Y-65929D01*
X40635Y-65859D01*
X40601Y-65787D01*
X40571Y-65713D01*
X40545Y-65639D01*
X40522Y-65563D01*
X40504Y-65486D01*
X40488Y-65409D01*
X40477Y-65330D01*
X40469Y-65252D01*
X40465Y-65173D01*
X40465Y-65093D01*
X40469Y-65014D01*
X40477Y-64936D01*
X40488Y-64857D01*
X40504Y-64780D01*
X40522Y-64703D01*
X40545Y-64627D01*
X40571Y-64553D01*
X40601Y-64479D01*
X40635Y-64407D01*
X40671Y-64337D01*
X40711Y-64269D01*
X40755Y-64203D01*
X40801Y-64139D01*
X40851Y-64077D01*
X40903Y-64018D01*
X40959Y-63962D01*
X41016Y-63908D01*
X41077Y-63857D01*
X41140Y-63809D01*
X41205Y-63764D01*
X41272Y-63722D01*
X41341Y-63684D01*
X41412Y-63648D01*
X41485Y-63617D01*
X41559Y-63589D01*
X41634Y-63564D01*
X41710Y-63544D01*
X41787Y-63526D01*
X41865Y-63513D01*
X41944Y-63504D01*
X42023Y-63498D01*
X42102Y-63496D01*
X42181Y-63498D01*
X42260Y-63504D01*
X42339Y-63513D01*
X42417Y-63526D01*
X42494Y-63544D01*
X42570Y-63564D01*
X42645Y-63589D01*
X42719Y-63617D01*
X42792Y-63648D01*
X42863Y-63684D01*
X42932Y-63722D01*
X42999Y-63764D01*
X43064Y-63809D01*
X43127Y-63857D01*
X43188Y-63908D01*
X43245Y-63962D01*
X43301Y-64018D01*
X43353Y-64077D01*
X43403Y-64139D01*
X43449Y-64203D01*
X43493Y-64269D01*
X43533Y-64337D01*
X43569Y-64407D01*
X43603Y-64479D01*
X43633Y-64553D01*
X43659Y-64627D01*
X43682Y-64703D01*
X43700Y-64780D01*
X43716Y-64857D01*
X43727Y-64936D01*
X43735Y-65014D01*
X43739Y-65093D01*
X43739Y-65173D01*
X43735Y-65252D01*
X43727Y-65330D01*
X43716Y-65409D01*
X43700Y-65486D01*
X43682Y-65563D01*
X43659Y-65639D01*
X43633Y-65713D01*
X43603Y-65787D01*
X43569Y-65859D01*
X43533Y-65929D01*
X43493Y-65997D01*
X43449Y-66063D01*
X43403Y-66127D01*
X43353Y-66189D01*
X43301Y-66248D01*
X43245Y-66304D01*
X43188Y-66358D01*
X43127Y-66409D01*
X43064Y-66457D01*
X42999Y-66502D01*
X42932Y-66544D01*
X42863Y-66582D01*
X42792Y-66618D01*
X42719Y-66649D01*
X42645Y-66677D01*
X42570Y-66702D01*
X42494Y-66722D01*
X42417Y-66740D01*
X42339Y-66753D01*
X42260Y-66762D01*
X42181Y-66768D01*
X42102Y-66770D01*
D15*
X60325Y-14415D02*
X60325Y-7811D01*
D14*
X63310Y-40828D02*
X63310Y-42464D01*
X63308Y-42542D01*
X63303Y-42620D01*
X63293Y-42697D01*
X63280Y-42774D01*
X63264Y-42850D01*
X63244Y-42925D01*
X63220Y-42999D01*
X63193Y-43072D01*
X63162Y-43144D01*
X63128Y-43214D01*
X63091Y-43282D01*
X63050Y-43349D01*
X63006Y-43414D01*
X62960Y-43476D01*
X62910Y-43536D01*
X62858Y-43594D01*
X62803Y-43649D01*
X62745Y-43701D01*
X62685Y-43751D01*
X62623Y-43797D01*
X62558Y-43841D01*
X62492Y-43882D01*
X62423Y-43919D01*
X62353Y-43953D01*
X62281Y-43984D01*
X62208Y-44011D01*
X62134Y-44035D01*
X62059Y-44055D01*
X61983Y-44071D01*
X61906Y-44084D01*
X61829Y-44094D01*
X61751Y-44099D01*
X61673Y-44101D01*
X57580Y-44101D01*
X57500Y-44099D01*
X57420Y-44093D01*
X57340Y-44083D01*
X57261Y-44070D01*
X57182Y-44052D01*
X57105Y-44031D01*
X57029Y-44005D01*
X56954Y-43976D01*
X56880Y-43944D01*
X56808Y-43908D01*
X56738Y-43868D01*
X56671Y-43825D01*
X56605Y-43779D01*
X56542Y-43729D01*
X56481Y-43677D01*
X56422Y-43622D01*
X56367Y-43563D01*
X56315Y-43503D01*
X56265Y-43439D01*
X56219Y-43374D01*
X56176Y-43306D01*
X56136Y-43236D01*
X56100Y-43164D01*
X56068Y-43090D01*
X56039Y-43016D01*
X56014Y-42939D01*
X55992Y-42862D01*
X55974Y-42783D01*
X55961Y-42704D01*
X55951Y-42625D01*
X55945Y-42544D01*
X55943Y-42464D01*
X55944Y-42464D02*
X55944Y-40828D01*
X57580Y-37982D02*
X55944Y-35936D01*
X63310Y-35936D01*
X63310Y-37982D02*
X63310Y-33890D01*
X57580Y-30667D02*
X55944Y-28621D01*
X63310Y-28621D01*
X63310Y-30667D02*
X63310Y-26575D01*
D16*
X-66000Y-72113D02*
X-66000Y-74613D01*
X-66000Y-77113D01*
X-66000Y-74613D02*
X-61000Y-72113D01*
X-61000Y-77113D02*
X-66000Y-74613D01*
X-61000Y-77113D02*
X-61000Y-72113D01*
D14*
X-68832Y-65978D02*
X-68832Y-58612D01*
X-66785Y-58612D01*
X-66785Y-58613D02*
X-66696Y-58615D01*
X-66607Y-58621D01*
X-66518Y-58631D01*
X-66430Y-58644D01*
X-66342Y-58661D01*
X-66255Y-58683D01*
X-66170Y-58708D01*
X-66085Y-58736D01*
X-66002Y-58769D01*
X-65920Y-58805D01*
X-65840Y-58844D01*
X-65762Y-58887D01*
X-65686Y-58933D01*
X-65611Y-58983D01*
X-65539Y-59036D01*
X-65470Y-59092D01*
X-65403Y-59151D01*
X-65338Y-59212D01*
X-65277Y-59277D01*
X-65218Y-59344D01*
X-65162Y-59413D01*
X-65109Y-59485D01*
X-65059Y-59560D01*
X-65013Y-59636D01*
X-64970Y-59714D01*
X-64931Y-59794D01*
X-64895Y-59876D01*
X-64862Y-59959D01*
X-64834Y-60044D01*
X-64809Y-60129D01*
X-64787Y-60216D01*
X-64770Y-60304D01*
X-64757Y-60392D01*
X-64747Y-60481D01*
X-64741Y-60570D01*
X-64739Y-60659D01*
X-64739Y-63932D01*
X-64741Y-64021D01*
X-64747Y-64110D01*
X-64757Y-64199D01*
X-64770Y-64287D01*
X-64787Y-64375D01*
X-64809Y-64462D01*
X-64834Y-64547D01*
X-64862Y-64632D01*
X-64895Y-64715D01*
X-64931Y-64797D01*
X-64970Y-64877D01*
X-65013Y-64955D01*
X-65059Y-65031D01*
X-65109Y-65106D01*
X-65162Y-65178D01*
X-65218Y-65247D01*
X-65277Y-65314D01*
X-65338Y-65379D01*
X-65403Y-65440D01*
X-65470Y-65499D01*
X-65539Y-65555D01*
X-65611Y-65608D01*
X-65686Y-65658D01*
X-65762Y-65704D01*
X-65840Y-65747D01*
X-65920Y-65786D01*
X-66002Y-65822D01*
X-66085Y-65855D01*
X-66170Y-65883D01*
X-66255Y-65908D01*
X-66342Y-65930D01*
X-66430Y-65947D01*
X-66518Y-65960D01*
X-66607Y-65970D01*
X-66696Y-65976D01*
X-66785Y-65978D01*
X-68832Y-65978D01*
X-61272Y-60249D02*
X-59226Y-58612D01*
X-59226Y-65978D01*
X-61272Y-65978D02*
X-57180Y-65978D01*
D11*
X80963Y39688D02*
X93663Y39688D01*
X100013Y33338D01*
X100013Y20638D01*
X93663Y14288D01*
X74613Y20638D02*
X74613Y33338D01*
X80963Y39688D01*
X74613Y20638D02*
X80963Y14288D01*
X93663Y14288D01*
D17*
X59261Y19177D02*
X59261Y35179D01*
X63706Y35179D01*
X63838Y35177D01*
X63969Y35171D01*
X64101Y35161D01*
X64232Y35148D01*
X64362Y35130D01*
X64492Y35109D01*
X64622Y35084D01*
X64750Y35055D01*
X64878Y35022D01*
X65004Y34985D01*
X65130Y34945D01*
X65254Y34901D01*
X65377Y34853D01*
X65498Y34802D01*
X65618Y34747D01*
X65736Y34689D01*
X65852Y34627D01*
X65966Y34561D01*
X66079Y34493D01*
X66189Y34421D01*
X66297Y34346D01*
X66403Y34267D01*
X66507Y34186D01*
X66608Y34101D01*
X66706Y34014D01*
X66802Y33923D01*
X66895Y33830D01*
X66986Y33734D01*
X67073Y33636D01*
X67158Y33535D01*
X67239Y33431D01*
X67318Y33325D01*
X67393Y33217D01*
X67465Y33107D01*
X67533Y32994D01*
X67599Y32880D01*
X67661Y32764D01*
X67719Y32646D01*
X67774Y32526D01*
X67825Y32405D01*
X67873Y32282D01*
X67917Y32158D01*
X67957Y32032D01*
X67994Y31906D01*
X68027Y31778D01*
X68056Y31650D01*
X68081Y31520D01*
X68102Y31390D01*
X68120Y31260D01*
X68133Y31129D01*
X68143Y30997D01*
X68149Y30866D01*
X68151Y30734D01*
X68149Y30602D01*
X68143Y30471D01*
X68133Y30339D01*
X68120Y30208D01*
X68102Y30078D01*
X68081Y29948D01*
X68056Y29818D01*
X68027Y29690D01*
X67994Y29562D01*
X67957Y29436D01*
X67917Y29310D01*
X67873Y29186D01*
X67825Y29063D01*
X67774Y28942D01*
X67719Y28822D01*
X67661Y28704D01*
X67599Y28588D01*
X67533Y28474D01*
X67465Y28361D01*
X67393Y28251D01*
X67318Y28143D01*
X67239Y28037D01*
X67158Y27933D01*
X67073Y27832D01*
X66986Y27734D01*
X66895Y27638D01*
X66802Y27545D01*
X66706Y27454D01*
X66608Y27367D01*
X66507Y27282D01*
X66403Y27201D01*
X66297Y27122D01*
X66189Y27047D01*
X66079Y26975D01*
X65966Y26907D01*
X65852Y26841D01*
X65736Y26779D01*
X65618Y26721D01*
X65498Y26666D01*
X65377Y26615D01*
X65254Y26567D01*
X65130Y26523D01*
X65004Y26483D01*
X64878Y26446D01*
X64750Y26413D01*
X64622Y26384D01*
X64492Y26359D01*
X64362Y26338D01*
X64232Y26320D01*
X64101Y26307D01*
X63969Y26297D01*
X63838Y26291D01*
X63706Y26289D01*
X59261Y26289D01*
X64595Y26289D02*
X68151Y19177D01*
D11*
X-73025Y44450D02*
X-73025Y57150D01*
X-73025Y44450D02*
X-79375Y38100D01*
X-92075Y38100D01*
X-98425Y44450D01*
X-79375Y38100D02*
X-73025Y31750D01*
X-73025Y19050D01*
X-79375Y12700D01*
X-92075Y12700D01*
X-98425Y19050D01*
X-98425Y31750D01*
X-92075Y38100D01*
X-92075Y63500D02*
X-79375Y63500D01*
X-73025Y57150D01*
X-92075Y63500D02*
X-98425Y57150D01*
X-98425Y44450D01*
X-79375Y12700D02*
X-73025Y6350D01*
X-73025Y-6350D01*
X-79375Y-12700D01*
X-92075Y-12700D01*
X-98425Y-6350D01*
X-98425Y6350D01*
X-92075Y12700D01*
D13*
X254Y-45403D02*
X254Y-52515D01*
D14*
X-3191Y-73650D02*
X4175Y-73650D01*
X-3191Y-73650D02*
X-3191Y-71604D01*
X-3189Y-71515D01*
X-3183Y-71426D01*
X-3173Y-71337D01*
X-3160Y-71249D01*
X-3143Y-71161D01*
X-3121Y-71074D01*
X-3096Y-70989D01*
X-3068Y-70904D01*
X-3035Y-70821D01*
X-2999Y-70739D01*
X-2960Y-70659D01*
X-2917Y-70581D01*
X-2871Y-70505D01*
X-2821Y-70430D01*
X-2768Y-70358D01*
X-2712Y-70289D01*
X-2653Y-70222D01*
X-2592Y-70157D01*
X-2527Y-70096D01*
X-2460Y-70037D01*
X-2391Y-69981D01*
X-2319Y-69928D01*
X-2244Y-69878D01*
X-2168Y-69832D01*
X-2090Y-69789D01*
X-2010Y-69750D01*
X-1928Y-69714D01*
X-1845Y-69681D01*
X-1760Y-69653D01*
X-1675Y-69628D01*
X-1588Y-69606D01*
X-1500Y-69589D01*
X-1412Y-69576D01*
X-1323Y-69566D01*
X-1234Y-69560D01*
X-1145Y-69558D01*
X-1056Y-69560D01*
X-967Y-69566D01*
X-878Y-69576D01*
X-790Y-69589D01*
X-702Y-69606D01*
X-615Y-69628D01*
X-530Y-69653D01*
X-445Y-69681D01*
X-362Y-69714D01*
X-280Y-69750D01*
X-200Y-69789D01*
X-122Y-69832D01*
X-46Y-69878D01*
X29Y-69928D01*
X101Y-69981D01*
X170Y-70037D01*
X237Y-70096D01*
X302Y-70157D01*
X363Y-70222D01*
X422Y-70289D01*
X478Y-70358D01*
X531Y-70430D01*
X581Y-70505D01*
X627Y-70581D01*
X670Y-70659D01*
X709Y-70739D01*
X745Y-70821D01*
X778Y-70904D01*
X806Y-70989D01*
X831Y-71074D01*
X853Y-71161D01*
X870Y-71249D01*
X883Y-71337D01*
X893Y-71426D01*
X899Y-71515D01*
X901Y-71604D01*
X901Y-73650D01*
X901Y-71194D02*
X4175Y-69558D01*
X2129Y-66386D02*
X2040Y-66384D01*
X1951Y-66378D01*
X1862Y-66368D01*
X1774Y-66355D01*
X1686Y-66338D01*
X1599Y-66316D01*
X1514Y-66291D01*
X1429Y-66263D01*
X1346Y-66230D01*
X1264Y-66194D01*
X1184Y-66155D01*
X1106Y-66112D01*
X1030Y-66066D01*
X955Y-66016D01*
X883Y-65963D01*
X814Y-65907D01*
X747Y-65848D01*
X682Y-65787D01*
X621Y-65722D01*
X562Y-65655D01*
X506Y-65586D01*
X453Y-65514D01*
X403Y-65439D01*
X357Y-65363D01*
X314Y-65285D01*
X275Y-65205D01*
X239Y-65123D01*
X206Y-65040D01*
X178Y-64955D01*
X153Y-64870D01*
X131Y-64783D01*
X114Y-64695D01*
X101Y-64607D01*
X91Y-64518D01*
X85Y-64429D01*
X83Y-64340D01*
X85Y-64251D01*
X91Y-64162D01*
X101Y-64073D01*
X114Y-63985D01*
X131Y-63897D01*
X153Y-63810D01*
X178Y-63725D01*
X206Y-63640D01*
X239Y-63557D01*
X275Y-63475D01*
X314Y-63395D01*
X357Y-63317D01*
X403Y-63241D01*
X453Y-63166D01*
X506Y-63094D01*
X562Y-63025D01*
X621Y-62958D01*
X682Y-62893D01*
X747Y-62832D01*
X814Y-62773D01*
X883Y-62717D01*
X955Y-62664D01*
X1030Y-62614D01*
X1106Y-62568D01*
X1184Y-62525D01*
X1264Y-62486D01*
X1346Y-62450D01*
X1429Y-62417D01*
X1514Y-62389D01*
X1599Y-62364D01*
X1686Y-62342D01*
X1774Y-62325D01*
X1862Y-62312D01*
X1951Y-62302D01*
X2040Y-62296D01*
X2129Y-62294D01*
X2218Y-62296D01*
X2307Y-62302D01*
X2396Y-62312D01*
X2484Y-62325D01*
X2572Y-62342D01*
X2659Y-62364D01*
X2744Y-62389D01*
X2829Y-62417D01*
X2912Y-62450D01*
X2994Y-62486D01*
X3074Y-62525D01*
X3152Y-62568D01*
X3228Y-62614D01*
X3303Y-62664D01*
X3375Y-62717D01*
X3444Y-62773D01*
X3511Y-62832D01*
X3576Y-62893D01*
X3637Y-62958D01*
X3696Y-63025D01*
X3752Y-63094D01*
X3805Y-63166D01*
X3855Y-63241D01*
X3901Y-63317D01*
X3944Y-63395D01*
X3983Y-63475D01*
X4019Y-63557D01*
X4052Y-63640D01*
X4080Y-63725D01*
X4105Y-63810D01*
X4127Y-63897D01*
X4144Y-63985D01*
X4157Y-64073D01*
X4167Y-64162D01*
X4173Y-64251D01*
X4175Y-64340D01*
X4173Y-64429D01*
X4167Y-64518D01*
X4157Y-64607D01*
X4144Y-64695D01*
X4127Y-64783D01*
X4105Y-64870D01*
X4080Y-64955D01*
X4052Y-65040D01*
X4019Y-65123D01*
X3983Y-65205D01*
X3944Y-65285D01*
X3901Y-65363D01*
X3855Y-65439D01*
X3805Y-65514D01*
X3752Y-65586D01*
X3696Y-65655D01*
X3637Y-65722D01*
X3576Y-65787D01*
X3511Y-65848D01*
X3444Y-65907D01*
X3375Y-65963D01*
X3303Y-66016D01*
X3228Y-66066D01*
X3152Y-66112D01*
X3074Y-66155D01*
X2994Y-66194D01*
X2912Y-66230D01*
X2829Y-66263D01*
X2744Y-66291D01*
X2659Y-66316D01*
X2572Y-66338D01*
X2484Y-66355D01*
X2396Y-66368D01*
X2307Y-66378D01*
X2218Y-66384D01*
X2129Y-66386D01*
X-1554Y-65977D02*
X-1633Y-65975D01*
X-1712Y-65969D01*
X-1791Y-65960D01*
X-1869Y-65947D01*
X-1946Y-65929D01*
X-2022Y-65909D01*
X-2097Y-65884D01*
X-2171Y-65856D01*
X-2244Y-65825D01*
X-2315Y-65789D01*
X-2384Y-65751D01*
X-2451Y-65709D01*
X-2516Y-65664D01*
X-2579Y-65616D01*
X-2640Y-65565D01*
X-2697Y-65511D01*
X-2753Y-65455D01*
X-2805Y-65396D01*
X-2855Y-65334D01*
X-2901Y-65270D01*
X-2945Y-65204D01*
X-2985Y-65136D01*
X-3021Y-65066D01*
X-3055Y-64994D01*
X-3085Y-64920D01*
X-3111Y-64846D01*
X-3134Y-64770D01*
X-3152Y-64693D01*
X-3168Y-64616D01*
X-3179Y-64537D01*
X-3187Y-64459D01*
X-3191Y-64380D01*
X-3191Y-64300D01*
X-3187Y-64221D01*
X-3179Y-64143D01*
X-3168Y-64064D01*
X-3152Y-63987D01*
X-3134Y-63910D01*
X-3111Y-63834D01*
X-3085Y-63760D01*
X-3055Y-63686D01*
X-3021Y-63614D01*
X-2985Y-63544D01*
X-2945Y-63476D01*
X-2901Y-63410D01*
X-2855Y-63346D01*
X-2805Y-63284D01*
X-2753Y-63225D01*
X-2697Y-63169D01*
X-2640Y-63115D01*
X-2579Y-63064D01*
X-2516Y-63016D01*
X-2451Y-62971D01*
X-2384Y-62929D01*
X-2315Y-62891D01*
X-2244Y-62855D01*
X-2171Y-62824D01*
X-2097Y-62796D01*
X-2022Y-62771D01*
X-1946Y-62751D01*
X-1869Y-62733D01*
X-1791Y-62720D01*
X-1712Y-62711D01*
X-1633Y-62705D01*
X-1554Y-62703D01*
X-1475Y-62705D01*
X-1396Y-62711D01*
X-1317Y-62720D01*
X-1239Y-62733D01*
X-1162Y-62751D01*
X-1086Y-62771D01*
X-1011Y-62796D01*
X-937Y-62824D01*
X-864Y-62855D01*
X-793Y-62891D01*
X-724Y-62929D01*
X-657Y-62971D01*
X-592Y-63016D01*
X-529Y-63064D01*
X-468Y-63115D01*
X-411Y-63169D01*
X-355Y-63225D01*
X-303Y-63284D01*
X-253Y-63346D01*
X-207Y-63410D01*
X-163Y-63476D01*
X-123Y-63544D01*
X-87Y-63614D01*
X-53Y-63686D01*
X-23Y-63760D01*
X3Y-63834D01*
X26Y-63910D01*
X44Y-63987D01*
X60Y-64064D01*
X71Y-64143D01*
X79Y-64221D01*
X83Y-64300D01*
X83Y-64380D01*
X79Y-64459D01*
X71Y-64537D01*
X60Y-64616D01*
X44Y-64693D01*
X26Y-64770D01*
X3Y-64846D01*
X-23Y-64920D01*
X-53Y-64994D01*
X-87Y-65066D01*
X-123Y-65136D01*
X-163Y-65204D01*
X-207Y-65270D01*
X-253Y-65334D01*
X-303Y-65396D01*
X-355Y-65455D01*
X-411Y-65511D01*
X-468Y-65565D01*
X-529Y-65616D01*
X-592Y-65664D01*
X-657Y-65709D01*
X-724Y-65751D01*
X-793Y-65789D01*
X-864Y-65825D01*
X-937Y-65856D01*
X-1011Y-65884D01*
X-1086Y-65909D01*
X-1162Y-65929D01*
X-1239Y-65947D01*
X-1317Y-65960D01*
X-1396Y-65969D01*
X-1475Y-65975D01*
X-1554Y-65977D01*
D13*
X14542Y-52515D02*
X14542Y-45403D01*
D14*
X18066Y-72856D02*
X10700Y-72856D01*
X10700Y-70810D01*
X10702Y-70721D01*
X10708Y-70632D01*
X10718Y-70543D01*
X10731Y-70455D01*
X10748Y-70367D01*
X10770Y-70280D01*
X10795Y-70195D01*
X10823Y-70110D01*
X10856Y-70027D01*
X10892Y-69945D01*
X10931Y-69865D01*
X10974Y-69787D01*
X11020Y-69711D01*
X11070Y-69636D01*
X11123Y-69564D01*
X11179Y-69495D01*
X11238Y-69428D01*
X11299Y-69363D01*
X11364Y-69302D01*
X11431Y-69243D01*
X11500Y-69187D01*
X11572Y-69134D01*
X11647Y-69084D01*
X11723Y-69038D01*
X11801Y-68995D01*
X11881Y-68956D01*
X11963Y-68920D01*
X12046Y-68887D01*
X12131Y-68859D01*
X12216Y-68834D01*
X12303Y-68812D01*
X12391Y-68795D01*
X12479Y-68782D01*
X12568Y-68772D01*
X12657Y-68766D01*
X12746Y-68764D01*
X12835Y-68766D01*
X12924Y-68772D01*
X13013Y-68782D01*
X13101Y-68795D01*
X13189Y-68812D01*
X13276Y-68834D01*
X13361Y-68859D01*
X13446Y-68887D01*
X13529Y-68920D01*
X13611Y-68956D01*
X13691Y-68995D01*
X13769Y-69038D01*
X13845Y-69084D01*
X13920Y-69134D01*
X13992Y-69187D01*
X14061Y-69243D01*
X14128Y-69302D01*
X14193Y-69363D01*
X14254Y-69428D01*
X14313Y-69495D01*
X14369Y-69564D01*
X14422Y-69636D01*
X14472Y-69711D01*
X14518Y-69787D01*
X14561Y-69865D01*
X14600Y-69945D01*
X14636Y-70027D01*
X14669Y-70110D01*
X14697Y-70195D01*
X14722Y-70280D01*
X14744Y-70367D01*
X14761Y-70455D01*
X14774Y-70543D01*
X14784Y-70632D01*
X14790Y-70721D01*
X14792Y-70810D01*
X14792Y-72856D01*
X14792Y-70401D02*
X18066Y-68764D01*
X18066Y-65592D02*
X18066Y-63137D01*
X18064Y-63057D01*
X18058Y-62977D01*
X18048Y-62897D01*
X18035Y-62818D01*
X18017Y-62739D01*
X17996Y-62662D01*
X17970Y-62586D01*
X17941Y-62511D01*
X17909Y-62437D01*
X17873Y-62365D01*
X17833Y-62295D01*
X17790Y-62228D01*
X17744Y-62162D01*
X17694Y-62099D01*
X17642Y-62038D01*
X17587Y-61979D01*
X17528Y-61924D01*
X17468Y-61872D01*
X17404Y-61822D01*
X17339Y-61776D01*
X17271Y-61733D01*
X17201Y-61693D01*
X17129Y-61657D01*
X17055Y-61625D01*
X16981Y-61596D01*
X16904Y-61571D01*
X16827Y-61549D01*
X16748Y-61531D01*
X16669Y-61518D01*
X16590Y-61508D01*
X16509Y-61502D01*
X16429Y-61500D01*
X15610Y-61500D01*
X15532Y-61502D01*
X15454Y-61507D01*
X15377Y-61517D01*
X15300Y-61530D01*
X15224Y-61546D01*
X15149Y-61566D01*
X15075Y-61590D01*
X15002Y-61617D01*
X14930Y-61648D01*
X14860Y-61682D01*
X14792Y-61719D01*
X14725Y-61760D01*
X14660Y-61804D01*
X14598Y-61850D01*
X14538Y-61900D01*
X14480Y-61952D01*
X14425Y-62007D01*
X14373Y-62065D01*
X14323Y-62125D01*
X14277Y-62187D01*
X14233Y-62252D01*
X14192Y-62319D01*
X14155Y-62387D01*
X14121Y-62457D01*
X14090Y-62529D01*
X14063Y-62602D01*
X14039Y-62676D01*
X14019Y-62751D01*
X14003Y-62827D01*
X13990Y-62904D01*
X13980Y-62981D01*
X13975Y-63059D01*
X13973Y-63137D01*
X13974Y-63137D02*
X13974Y-65592D01*
X10700Y-65592D01*
X10700Y-61500D01*
D13*
X-14034Y-52515D02*
X-14034Y-45403D01*
D14*
X-10509Y-73650D02*
X-17875Y-73650D01*
X-17875Y-71604D01*
X-17873Y-71515D01*
X-17867Y-71426D01*
X-17857Y-71337D01*
X-17844Y-71249D01*
X-17827Y-71161D01*
X-17805Y-71074D01*
X-17780Y-70989D01*
X-17752Y-70904D01*
X-17719Y-70821D01*
X-17683Y-70739D01*
X-17644Y-70659D01*
X-17601Y-70581D01*
X-17555Y-70505D01*
X-17505Y-70430D01*
X-17452Y-70358D01*
X-17396Y-70289D01*
X-17337Y-70222D01*
X-17276Y-70157D01*
X-17211Y-70096D01*
X-17144Y-70037D01*
X-17075Y-69981D01*
X-17003Y-69928D01*
X-16928Y-69878D01*
X-16852Y-69832D01*
X-16774Y-69789D01*
X-16694Y-69750D01*
X-16612Y-69714D01*
X-16529Y-69681D01*
X-16444Y-69653D01*
X-16359Y-69628D01*
X-16272Y-69606D01*
X-16184Y-69589D01*
X-16096Y-69576D01*
X-16007Y-69566D01*
X-15918Y-69560D01*
X-15829Y-69558D01*
X-15740Y-69560D01*
X-15651Y-69566D01*
X-15562Y-69576D01*
X-15474Y-69589D01*
X-15386Y-69606D01*
X-15299Y-69628D01*
X-15214Y-69653D01*
X-15129Y-69681D01*
X-15046Y-69714D01*
X-14964Y-69750D01*
X-14884Y-69789D01*
X-14806Y-69832D01*
X-14730Y-69878D01*
X-14655Y-69928D01*
X-14583Y-69981D01*
X-14514Y-70037D01*
X-14447Y-70096D01*
X-14382Y-70157D01*
X-14321Y-70222D01*
X-14262Y-70289D01*
X-14206Y-70358D01*
X-14153Y-70430D01*
X-14103Y-70505D01*
X-14057Y-70581D01*
X-14014Y-70659D01*
X-13975Y-70739D01*
X-13939Y-70821D01*
X-13906Y-70904D01*
X-13878Y-70989D01*
X-13853Y-71074D01*
X-13831Y-71161D01*
X-13814Y-71249D01*
X-13801Y-71337D01*
X-13791Y-71426D01*
X-13785Y-71515D01*
X-13783Y-71604D01*
X-13783Y-73650D01*
X-13783Y-71194D02*
X-10509Y-69558D01*
X-17057Y-66386D02*
X-17875Y-66386D01*
X-17875Y-62294D01*
X-10509Y-64340D01*
D13*
X28829Y-52515D02*
X28829Y-45403D01*
D14*
X25384Y-73650D02*
X32750Y-73650D01*
X25384Y-73650D02*
X25384Y-71604D01*
X25386Y-71515D01*
X25392Y-71426D01*
X25402Y-71337D01*
X25415Y-71249D01*
X25432Y-71161D01*
X25454Y-71074D01*
X25479Y-70989D01*
X25507Y-70904D01*
X25540Y-70821D01*
X25576Y-70739D01*
X25615Y-70659D01*
X25658Y-70581D01*
X25704Y-70505D01*
X25754Y-70430D01*
X25807Y-70358D01*
X25863Y-70289D01*
X25922Y-70222D01*
X25983Y-70157D01*
X26048Y-70096D01*
X26115Y-70037D01*
X26184Y-69981D01*
X26256Y-69928D01*
X26331Y-69878D01*
X26407Y-69832D01*
X26485Y-69789D01*
X26565Y-69750D01*
X26647Y-69714D01*
X26730Y-69681D01*
X26815Y-69653D01*
X26900Y-69628D01*
X26987Y-69606D01*
X27075Y-69589D01*
X27163Y-69576D01*
X27252Y-69566D01*
X27341Y-69560D01*
X27430Y-69558D01*
X27519Y-69560D01*
X27608Y-69566D01*
X27697Y-69576D01*
X27785Y-69589D01*
X27873Y-69606D01*
X27960Y-69628D01*
X28045Y-69653D01*
X28130Y-69681D01*
X28213Y-69714D01*
X28295Y-69750D01*
X28375Y-69789D01*
X28453Y-69832D01*
X28529Y-69878D01*
X28604Y-69928D01*
X28676Y-69981D01*
X28745Y-70037D01*
X28812Y-70096D01*
X28877Y-70157D01*
X28938Y-70222D01*
X28997Y-70289D01*
X29053Y-70358D01*
X29106Y-70430D01*
X29156Y-70505D01*
X29202Y-70581D01*
X29245Y-70659D01*
X29284Y-70739D01*
X29320Y-70821D01*
X29353Y-70904D01*
X29381Y-70989D01*
X29406Y-71074D01*
X29428Y-71161D01*
X29445Y-71249D01*
X29458Y-71337D01*
X29468Y-71426D01*
X29474Y-71515D01*
X29476Y-71604D01*
X29476Y-73650D01*
X29476Y-71194D02*
X32750Y-69558D01*
X28658Y-66386D02*
X28658Y-63930D01*
X28660Y-63852D01*
X28665Y-63774D01*
X28675Y-63697D01*
X28688Y-63620D01*
X28704Y-63544D01*
X28724Y-63469D01*
X28748Y-63395D01*
X28775Y-63322D01*
X28806Y-63250D01*
X28840Y-63180D01*
X28877Y-63112D01*
X28918Y-63045D01*
X28962Y-62980D01*
X29008Y-62918D01*
X29058Y-62858D01*
X29110Y-62800D01*
X29165Y-62745D01*
X29223Y-62693D01*
X29283Y-62643D01*
X29345Y-62597D01*
X29410Y-62553D01*
X29477Y-62512D01*
X29545Y-62475D01*
X29615Y-62441D01*
X29687Y-62410D01*
X29760Y-62383D01*
X29834Y-62359D01*
X29909Y-62339D01*
X29985Y-62323D01*
X30062Y-62310D01*
X30139Y-62300D01*
X30217Y-62295D01*
X30295Y-62293D01*
X30295Y-62294D02*
X30704Y-62294D01*
X30793Y-62296D01*
X30882Y-62302D01*
X30971Y-62312D01*
X31059Y-62325D01*
X31147Y-62342D01*
X31234Y-62364D01*
X31319Y-62389D01*
X31404Y-62417D01*
X31487Y-62450D01*
X31569Y-62486D01*
X31649Y-62525D01*
X31727Y-62568D01*
X31803Y-62614D01*
X31878Y-62664D01*
X31950Y-62717D01*
X32019Y-62773D01*
X32086Y-62832D01*
X32151Y-62893D01*
X32212Y-62958D01*
X32271Y-63025D01*
X32327Y-63094D01*
X32380Y-63166D01*
X32430Y-63241D01*
X32476Y-63317D01*
X32519Y-63395D01*
X32558Y-63475D01*
X32594Y-63557D01*
X32627Y-63640D01*
X32655Y-63725D01*
X32680Y-63810D01*
X32702Y-63897D01*
X32719Y-63985D01*
X32732Y-64073D01*
X32742Y-64162D01*
X32748Y-64251D01*
X32750Y-64340D01*
X32748Y-64429D01*
X32742Y-64518D01*
X32732Y-64607D01*
X32719Y-64695D01*
X32702Y-64783D01*
X32680Y-64870D01*
X32655Y-64955D01*
X32627Y-65040D01*
X32594Y-65123D01*
X32558Y-65205D01*
X32519Y-65285D01*
X32476Y-65363D01*
X32430Y-65439D01*
X32380Y-65514D01*
X32327Y-65586D01*
X32271Y-65655D01*
X32212Y-65722D01*
X32151Y-65787D01*
X32086Y-65848D01*
X32019Y-65907D01*
X31950Y-65963D01*
X31878Y-66016D01*
X31803Y-66066D01*
X31727Y-66112D01*
X31649Y-66155D01*
X31569Y-66194D01*
X31487Y-66230D01*
X31404Y-66263D01*
X31319Y-66291D01*
X31234Y-66316D01*
X31147Y-66338D01*
X31059Y-66355D01*
X30971Y-66368D01*
X30882Y-66378D01*
X30793Y-66384D01*
X30704Y-66386D01*
X28658Y-66386D01*
X28544Y-66384D01*
X28430Y-66378D01*
X28316Y-66368D01*
X28202Y-66354D01*
X28089Y-66336D01*
X27977Y-66314D01*
X27866Y-66289D01*
X27756Y-66259D01*
X27646Y-66226D01*
X27538Y-66189D01*
X27432Y-66148D01*
X27326Y-66103D01*
X27223Y-66055D01*
X27121Y-66003D01*
X27021Y-65947D01*
X26923Y-65889D01*
X26827Y-65826D01*
X26734Y-65761D01*
X26642Y-65692D01*
X26554Y-65620D01*
X26467Y-65545D01*
X26384Y-65467D01*
X26303Y-65386D01*
X26225Y-65303D01*
X26150Y-65217D01*
X26078Y-65128D01*
X26009Y-65036D01*
X25944Y-64943D01*
X25882Y-64847D01*
X25823Y-64749D01*
X25767Y-64649D01*
X25715Y-64547D01*
X25667Y-64444D01*
X25622Y-64339D01*
X25581Y-64232D01*
X25544Y-64124D01*
X25511Y-64014D01*
X25481Y-63904D01*
X25456Y-63793D01*
X25434Y-63681D01*
X25416Y-63568D01*
X25402Y-63454D01*
X25392Y-63340D01*
X25386Y-63226D01*
X25384Y-63112D01*
D18*
X-15150Y28000D02*
X-15150Y32000D01*
X-6000Y32000D01*
X6000Y32000D02*
X15150Y32000D01*
X15150Y28000D01*
X-15150Y-28000D02*
X-15150Y-32000D01*
X-6000Y-32000D01*
X15150Y-32000D02*
X15150Y-28000D01*
X15150Y-32000D02*
X6000Y-32000D01*
D19*
X-21000Y-22500D03*
D20*
X-20998Y-22544D01*
X-20992Y-22587D01*
X-20983Y-22629D01*
X-20970Y-22671D01*
X-20953Y-22711D01*
X-20933Y-22750D01*
X-20910Y-22787D01*
X-20883Y-22821D01*
X-20854Y-22854D01*
X-20821Y-22883D01*
X-20787Y-22910D01*
X-20750Y-22933D01*
X-20711Y-22953D01*
X-20671Y-22970D01*
X-20629Y-22983D01*
X-20587Y-22992D01*
X-20544Y-22998D01*
X-20500Y-23000D01*
X-20456Y-22998D01*
X-20413Y-22992D01*
X-20371Y-22983D01*
X-20329Y-22970D01*
X-20289Y-22953D01*
X-20250Y-22933D01*
X-20213Y-22910D01*
X-20179Y-22883D01*
X-20146Y-22854D01*
X-20117Y-22821D01*
X-20090Y-22787D01*
X-20067Y-22750D01*
X-20047Y-22711D01*
X-20030Y-22671D01*
X-20017Y-22629D01*
X-20008Y-22587D01*
X-20002Y-22544D01*
X-20000Y-22500D01*
D19*
X-20000Y-22500D03*
D20*
X-20002Y-22456D01*
X-20008Y-22413D01*
X-20017Y-22371D01*
X-20030Y-22329D01*
X-20047Y-22289D01*
X-20067Y-22250D01*
X-20090Y-22213D01*
X-20117Y-22179D01*
X-20146Y-22146D01*
X-20179Y-22117D01*
X-20213Y-22090D01*
X-20250Y-22067D01*
X-20289Y-22047D01*
X-20329Y-22030D01*
X-20371Y-22017D01*
X-20413Y-22008D01*
X-20456Y-22002D01*
X-20500Y-22000D01*
X-20544Y-22002D01*
X-20587Y-22008D01*
X-20629Y-22017D01*
X-20671Y-22030D01*
X-20711Y-22047D01*
X-20750Y-22067D01*
X-20787Y-22090D01*
X-20821Y-22117D01*
X-20854Y-22146D01*
X-20883Y-22179D01*
X-20910Y-22213D01*
X-20933Y-22250D01*
X-20953Y-22289D01*
X-20970Y-22329D01*
X-20983Y-22371D01*
X-20992Y-22413D01*
X-20998Y-22456D01*
X-21000Y-22500D01*
D14*
X-25351Y-1460D02*
X-30671Y-1460D01*
X-25351Y-1460D02*
X-25262Y-1458D01*
X-25173Y-1452D01*
X-25084Y-1442D01*
X-24996Y-1429D01*
X-24908Y-1412D01*
X-24821Y-1390D01*
X-24736Y-1365D01*
X-24651Y-1337D01*
X-24568Y-1304D01*
X-24486Y-1268D01*
X-24406Y-1229D01*
X-24328Y-1186D01*
X-24252Y-1140D01*
X-24177Y-1090D01*
X-24105Y-1037D01*
X-24036Y-981D01*
X-23969Y-922D01*
X-23904Y-861D01*
X-23843Y-796D01*
X-23784Y-729D01*
X-23728Y-660D01*
X-23675Y-588D01*
X-23625Y-513D01*
X-23579Y-437D01*
X-23536Y-359D01*
X-23497Y-279D01*
X-23461Y-197D01*
X-23428Y-114D01*
X-23400Y-29D01*
X-23375Y56D01*
X-23353Y143D01*
X-23336Y231D01*
X-23323Y319D01*
X-23313Y408D01*
X-23307Y497D01*
X-23305Y586D01*
X-23307Y675D01*
X-23313Y764D01*
X-23323Y853D01*
X-23336Y941D01*
X-23353Y1029D01*
X-23375Y1116D01*
X-23400Y1201D01*
X-23428Y1286D01*
X-23461Y1369D01*
X-23497Y1451D01*
X-23536Y1531D01*
X-23579Y1609D01*
X-23625Y1685D01*
X-23675Y1760D01*
X-23728Y1832D01*
X-23784Y1901D01*
X-23843Y1968D01*
X-23904Y2033D01*
X-23969Y2094D01*
X-24036Y2153D01*
X-24105Y2209D01*
X-24177Y2262D01*
X-24252Y2312D01*
X-24328Y2358D01*
X-24406Y2401D01*
X-24486Y2440D01*
X-24568Y2476D01*
X-24651Y2509D01*
X-24736Y2537D01*
X-24821Y2562D01*
X-24908Y2584D01*
X-24996Y2601D01*
X-25084Y2614D01*
X-25173Y2624D01*
X-25262Y2630D01*
X-25351Y2632D01*
X-30671Y2632D01*
X-30671Y8350D02*
X-30669Y8435D01*
X-30663Y8520D01*
X-30653Y8604D01*
X-30640Y8688D01*
X-30622Y8772D01*
X-30601Y8854D01*
X-30576Y8935D01*
X-30547Y9015D01*
X-30514Y9094D01*
X-30478Y9171D01*
X-30438Y9246D01*
X-30395Y9320D01*
X-30349Y9391D01*
X-30299Y9460D01*
X-30246Y9527D01*
X-30190Y9591D01*
X-30131Y9652D01*
X-30070Y9711D01*
X-30006Y9767D01*
X-29939Y9820D01*
X-29870Y9870D01*
X-29799Y9916D01*
X-29725Y9959D01*
X-29650Y9999D01*
X-29573Y10035D01*
X-29494Y10068D01*
X-29414Y10097D01*
X-29333Y10122D01*
X-29251Y10143D01*
X-29167Y10161D01*
X-29083Y10174D01*
X-28999Y10184D01*
X-28914Y10190D01*
X-28829Y10192D01*
X-30671Y8350D02*
X-30669Y8254D01*
X-30663Y8158D01*
X-30653Y8063D01*
X-30640Y7968D01*
X-30622Y7873D01*
X-30601Y7780D01*
X-30576Y7687D01*
X-30547Y7596D01*
X-30515Y7505D01*
X-30479Y7416D01*
X-30439Y7329D01*
X-30396Y7243D01*
X-30350Y7159D01*
X-30300Y7077D01*
X-30246Y6997D01*
X-30190Y6920D01*
X-30130Y6845D01*
X-30068Y6772D01*
X-30002Y6702D01*
X-29934Y6634D01*
X-29863Y6569D01*
X-29790Y6508D01*
X-29714Y6449D01*
X-29635Y6393D01*
X-29555Y6341D01*
X-29472Y6292D01*
X-29388Y6246D01*
X-29302Y6204D01*
X-29214Y6166D01*
X-29125Y6131D01*
X-29034Y6099D01*
X-27397Y9577D02*
X-27456Y9637D01*
X-27518Y9694D01*
X-27582Y9749D01*
X-27649Y9800D01*
X-27718Y9849D01*
X-27788Y9895D01*
X-27861Y9938D01*
X-27935Y9978D01*
X-28011Y10014D01*
X-28089Y10047D01*
X-28168Y10077D01*
X-28248Y10104D01*
X-28329Y10127D01*
X-28411Y10146D01*
X-28493Y10162D01*
X-28577Y10175D01*
X-28661Y10184D01*
X-28745Y10189D01*
X-28829Y10191D01*
X-27397Y9577D02*
X-23305Y6099D01*
X-23305Y10191D01*
D13*
X-28321Y-45403D02*
X-28321Y-52515D01*
D14*
X-31369Y-73650D02*
X-24003Y-73650D01*
X-31369Y-73650D02*
X-31369Y-71604D01*
X-31367Y-71515D01*
X-31361Y-71426D01*
X-31351Y-71337D01*
X-31338Y-71249D01*
X-31321Y-71161D01*
X-31299Y-71074D01*
X-31274Y-70989D01*
X-31246Y-70904D01*
X-31213Y-70821D01*
X-31177Y-70739D01*
X-31138Y-70659D01*
X-31095Y-70581D01*
X-31049Y-70505D01*
X-30999Y-70430D01*
X-30946Y-70358D01*
X-30890Y-70289D01*
X-30831Y-70222D01*
X-30770Y-70157D01*
X-30705Y-70096D01*
X-30638Y-70037D01*
X-30569Y-69981D01*
X-30497Y-69928D01*
X-30422Y-69878D01*
X-30346Y-69832D01*
X-30268Y-69789D01*
X-30188Y-69750D01*
X-30106Y-69714D01*
X-30023Y-69681D01*
X-29938Y-69653D01*
X-29853Y-69628D01*
X-29766Y-69606D01*
X-29678Y-69589D01*
X-29590Y-69576D01*
X-29501Y-69566D01*
X-29412Y-69560D01*
X-29323Y-69558D01*
X-29234Y-69560D01*
X-29145Y-69566D01*
X-29056Y-69576D01*
X-28968Y-69589D01*
X-28880Y-69606D01*
X-28793Y-69628D01*
X-28708Y-69653D01*
X-28623Y-69681D01*
X-28540Y-69714D01*
X-28458Y-69750D01*
X-28378Y-69789D01*
X-28300Y-69832D01*
X-28224Y-69878D01*
X-28149Y-69928D01*
X-28077Y-69981D01*
X-28008Y-70037D01*
X-27941Y-70096D01*
X-27876Y-70157D01*
X-27815Y-70222D01*
X-27756Y-70289D01*
X-27700Y-70358D01*
X-27647Y-70430D01*
X-27597Y-70505D01*
X-27551Y-70581D01*
X-27508Y-70659D01*
X-27469Y-70739D01*
X-27433Y-70821D01*
X-27400Y-70904D01*
X-27372Y-70989D01*
X-27347Y-71074D01*
X-27325Y-71161D01*
X-27308Y-71249D01*
X-27295Y-71337D01*
X-27285Y-71426D01*
X-27279Y-71515D01*
X-27277Y-71604D01*
X-27277Y-73650D01*
X-27277Y-71194D02*
X-24003Y-69558D01*
X-27277Y-64749D02*
X-27277Y-62294D01*
X-27277Y-64749D02*
X-27279Y-64827D01*
X-27284Y-64905D01*
X-27294Y-64982D01*
X-27307Y-65059D01*
X-27323Y-65135D01*
X-27343Y-65210D01*
X-27367Y-65284D01*
X-27394Y-65357D01*
X-27425Y-65429D01*
X-27459Y-65499D01*
X-27496Y-65568D01*
X-27537Y-65634D01*
X-27581Y-65699D01*
X-27627Y-65761D01*
X-27677Y-65821D01*
X-27729Y-65879D01*
X-27784Y-65934D01*
X-27842Y-65986D01*
X-27902Y-66036D01*
X-27964Y-66082D01*
X-28029Y-66126D01*
X-28096Y-66167D01*
X-28164Y-66204D01*
X-28234Y-66238D01*
X-28306Y-66269D01*
X-28379Y-66296D01*
X-28453Y-66320D01*
X-28528Y-66340D01*
X-28604Y-66356D01*
X-28681Y-66369D01*
X-28758Y-66379D01*
X-28836Y-66384D01*
X-28914Y-66386D01*
X-29323Y-66386D01*
X-29412Y-66384D01*
X-29501Y-66378D01*
X-29590Y-66368D01*
X-29678Y-66355D01*
X-29766Y-66338D01*
X-29853Y-66316D01*
X-29938Y-66291D01*
X-30023Y-66263D01*
X-30106Y-66230D01*
X-30188Y-66194D01*
X-30268Y-66155D01*
X-30346Y-66112D01*
X-30422Y-66066D01*
X-30497Y-66016D01*
X-30569Y-65963D01*
X-30638Y-65907D01*
X-30705Y-65848D01*
X-30770Y-65787D01*
X-30831Y-65722D01*
X-30890Y-65655D01*
X-30946Y-65586D01*
X-30999Y-65514D01*
X-31049Y-65439D01*
X-31095Y-65363D01*
X-31138Y-65285D01*
X-31177Y-65205D01*
X-31213Y-65123D01*
X-31246Y-65040D01*
X-31274Y-64955D01*
X-31299Y-64870D01*
X-31321Y-64783D01*
X-31338Y-64695D01*
X-31351Y-64607D01*
X-31361Y-64518D01*
X-31367Y-64429D01*
X-31369Y-64340D01*
X-31367Y-64251D01*
X-31361Y-64162D01*
X-31351Y-64073D01*
X-31338Y-63985D01*
X-31321Y-63897D01*
X-31299Y-63810D01*
X-31274Y-63725D01*
X-31246Y-63640D01*
X-31213Y-63557D01*
X-31177Y-63475D01*
X-31138Y-63395D01*
X-31095Y-63317D01*
X-31049Y-63241D01*
X-30999Y-63166D01*
X-30946Y-63094D01*
X-30890Y-63025D01*
X-30831Y-62958D01*
X-30770Y-62893D01*
X-30705Y-62832D01*
X-30638Y-62773D01*
X-30569Y-62717D01*
X-30497Y-62664D01*
X-30422Y-62614D01*
X-30346Y-62568D01*
X-30268Y-62525D01*
X-30188Y-62486D01*
X-30106Y-62450D01*
X-30023Y-62417D01*
X-29938Y-62389D01*
X-29853Y-62364D01*
X-29766Y-62342D01*
X-29678Y-62325D01*
X-29590Y-62312D01*
X-29501Y-62302D01*
X-29412Y-62296D01*
X-29323Y-62294D01*
X-27277Y-62294D01*
X-27277Y-62293D02*
X-27165Y-62295D01*
X-27054Y-62301D01*
X-26942Y-62310D01*
X-26831Y-62323D01*
X-26721Y-62341D01*
X-26611Y-62361D01*
X-26502Y-62386D01*
X-26394Y-62414D01*
X-26287Y-62446D01*
X-26181Y-62482D01*
X-26076Y-62521D01*
X-25973Y-62564D01*
X-25871Y-62610D01*
X-25771Y-62660D01*
X-25672Y-62713D01*
X-25576Y-62770D01*
X-25481Y-62829D01*
X-25389Y-62892D01*
X-25299Y-62958D01*
X-25211Y-63027D01*
X-25125Y-63099D01*
X-25042Y-63174D01*
X-24962Y-63252D01*
X-24884Y-63332D01*
X-24809Y-63415D01*
X-24737Y-63501D01*
X-24668Y-63589D01*
X-24602Y-63679D01*
X-24539Y-63771D01*
X-24480Y-63866D01*
X-24423Y-63962D01*
X-24370Y-64061D01*
X-24320Y-64161D01*
X-24274Y-64263D01*
X-24231Y-64366D01*
X-24192Y-64471D01*
X-24156Y-64577D01*
X-24124Y-64684D01*
X-24096Y-64792D01*
X-24071Y-64901D01*
X-24051Y-65011D01*
X-24033Y-65121D01*
X-24020Y-65232D01*
X-24011Y-65344D01*
X-24005Y-65455D01*
X-24003Y-65567D01*
D13*
X27940Y24067D02*
X35052Y24067D01*
D14*
X21019Y30544D02*
X21019Y37910D01*
X23065Y37910D01*
X23065Y37909D02*
X23154Y37907D01*
X23243Y37901D01*
X23332Y37891D01*
X23420Y37878D01*
X23508Y37861D01*
X23595Y37839D01*
X23680Y37814D01*
X23765Y37786D01*
X23848Y37753D01*
X23930Y37717D01*
X24010Y37678D01*
X24088Y37635D01*
X24164Y37589D01*
X24239Y37539D01*
X24311Y37486D01*
X24380Y37430D01*
X24447Y37371D01*
X24512Y37310D01*
X24573Y37245D01*
X24632Y37178D01*
X24688Y37109D01*
X24741Y37037D01*
X24791Y36962D01*
X24837Y36886D01*
X24880Y36808D01*
X24919Y36728D01*
X24955Y36646D01*
X24988Y36563D01*
X25016Y36478D01*
X25041Y36393D01*
X25063Y36306D01*
X25080Y36218D01*
X25093Y36130D01*
X25103Y36041D01*
X25109Y35952D01*
X25111Y35863D01*
X25109Y35774D01*
X25103Y35685D01*
X25093Y35596D01*
X25080Y35508D01*
X25063Y35420D01*
X25041Y35333D01*
X25016Y35248D01*
X24988Y35163D01*
X24955Y35080D01*
X24919Y34998D01*
X24880Y34918D01*
X24837Y34840D01*
X24791Y34764D01*
X24741Y34689D01*
X24688Y34617D01*
X24632Y34548D01*
X24573Y34481D01*
X24512Y34416D01*
X24447Y34355D01*
X24380Y34296D01*
X24311Y34240D01*
X24239Y34187D01*
X24164Y34137D01*
X24088Y34091D01*
X24010Y34048D01*
X23930Y34009D01*
X23848Y33973D01*
X23765Y33940D01*
X23680Y33912D01*
X23595Y33887D01*
X23508Y33865D01*
X23420Y33848D01*
X23332Y33835D01*
X23243Y33825D01*
X23154Y33819D01*
X23065Y33817D01*
X21019Y33817D01*
X23474Y33817D02*
X25111Y30544D01*
X28283Y36273D02*
X30329Y37910D01*
X30329Y30544D01*
X28283Y30544D02*
X32375Y30544D01*
X35598Y34227D02*
X35600Y34380D01*
X35606Y34533D01*
X35615Y34685D01*
X35629Y34838D01*
X35646Y34990D01*
X35667Y35141D01*
X35692Y35292D01*
X35721Y35442D01*
X35753Y35592D01*
X35790Y35740D01*
X35830Y35888D01*
X35873Y36035D01*
X35921Y36180D01*
X35972Y36324D01*
X36026Y36467D01*
X36085Y36609D01*
X36146Y36748D01*
X36212Y36887D01*
X36212Y36886D02*
X36238Y36956D01*
X36268Y37026D01*
X36301Y37093D01*
X36337Y37159D01*
X36376Y37223D01*
X36419Y37285D01*
X36465Y37344D01*
X36513Y37402D01*
X36564Y37456D01*
X36618Y37509D01*
X36675Y37558D01*
X36734Y37605D01*
X36795Y37648D01*
X36858Y37689D01*
X36923Y37726D01*
X36990Y37761D01*
X37059Y37791D01*
X37129Y37819D01*
X37200Y37842D01*
X37272Y37863D01*
X37345Y37879D01*
X37419Y37892D01*
X37494Y37902D01*
X37569Y37907D01*
X37644Y37909D01*
X37719Y37907D01*
X37794Y37902D01*
X37869Y37892D01*
X37943Y37879D01*
X38016Y37863D01*
X38088Y37842D01*
X38159Y37819D01*
X38229Y37791D01*
X38298Y37761D01*
X38365Y37726D01*
X38430Y37689D01*
X38493Y37648D01*
X38554Y37605D01*
X38613Y37558D01*
X38670Y37509D01*
X38724Y37456D01*
X38775Y37402D01*
X38824Y37344D01*
X38869Y37285D01*
X38912Y37223D01*
X38951Y37159D01*
X38988Y37093D01*
X39020Y37025D01*
X39050Y36956D01*
X39076Y36886D01*
X39076Y36887D02*
X39141Y36749D01*
X39203Y36609D01*
X39261Y36467D01*
X39316Y36324D01*
X39367Y36180D01*
X39415Y36035D01*
X39458Y35888D01*
X39498Y35741D01*
X39535Y35592D01*
X39567Y35442D01*
X39596Y35292D01*
X39621Y35141D01*
X39642Y34990D01*
X39659Y34838D01*
X39673Y34685D01*
X39682Y34533D01*
X39688Y34380D01*
X39690Y34227D01*
X35597Y34227D02*
X35599Y34074D01*
X35605Y33921D01*
X35614Y33768D01*
X35628Y33616D01*
X35645Y33464D01*
X35666Y33313D01*
X35691Y33162D01*
X35720Y33011D01*
X35752Y32862D01*
X35789Y32713D01*
X35829Y32566D01*
X35872Y32419D01*
X35920Y32274D01*
X35971Y32129D01*
X36026Y31987D01*
X36084Y31845D01*
X36146Y31705D01*
X36211Y31567D01*
X36212Y31567D02*
X36238Y31496D01*
X36268Y31427D01*
X36301Y31360D01*
X36337Y31294D01*
X36376Y31230D01*
X36419Y31168D01*
X36465Y31109D01*
X36513Y31051D01*
X36564Y30997D01*
X36618Y30944D01*
X36675Y30895D01*
X36734Y30848D01*
X36795Y30805D01*
X36858Y30764D01*
X36923Y30727D01*
X36990Y30692D01*
X37059Y30662D01*
X37129Y30634D01*
X37200Y30611D01*
X37272Y30590D01*
X37345Y30574D01*
X37419Y30561D01*
X37494Y30551D01*
X37569Y30546D01*
X37644Y30544D01*
X39076Y31567D02*
X39141Y31705D01*
X39203Y31845D01*
X39261Y31987D01*
X39316Y32130D01*
X39367Y32274D01*
X39415Y32419D01*
X39458Y32566D01*
X39498Y32714D01*
X39535Y32862D01*
X39567Y33012D01*
X39596Y33162D01*
X39621Y33313D01*
X39642Y33464D01*
X39659Y33616D01*
X39673Y33769D01*
X39682Y33921D01*
X39688Y34074D01*
X39690Y34227D01*
X39076Y31567D02*
X39050Y31497D01*
X39020Y31427D01*
X38988Y31360D01*
X38951Y31294D01*
X38912Y31230D01*
X38869Y31168D01*
X38823Y31109D01*
X38775Y31051D01*
X38724Y30997D01*
X38670Y30944D01*
X38613Y30895D01*
X38554Y30848D01*
X38493Y30805D01*
X38430Y30764D01*
X38365Y30727D01*
X38298Y30692D01*
X38229Y30662D01*
X38159Y30634D01*
X38088Y30611D01*
X38016Y30590D01*
X37943Y30574D01*
X37869Y30561D01*
X37794Y30551D01*
X37719Y30546D01*
X37644Y30544D01*
X36007Y32180D02*
X39281Y36273D01*
D13*
X3556Y49213D02*
X-4064Y49213D01*
D14*
X-28889Y47212D02*
X-30526Y47212D01*
X-30604Y47214D01*
X-30682Y47219D01*
X-30759Y47229D01*
X-30836Y47242D01*
X-30912Y47258D01*
X-30987Y47278D01*
X-31061Y47302D01*
X-31134Y47329D01*
X-31206Y47360D01*
X-31276Y47394D01*
X-31345Y47431D01*
X-31411Y47472D01*
X-31476Y47516D01*
X-31538Y47562D01*
X-31598Y47612D01*
X-31656Y47664D01*
X-31711Y47719D01*
X-31763Y47777D01*
X-31813Y47837D01*
X-31859Y47899D01*
X-31903Y47964D01*
X-31944Y48031D01*
X-31981Y48099D01*
X-32015Y48169D01*
X-32046Y48241D01*
X-32073Y48314D01*
X-32097Y48388D01*
X-32117Y48463D01*
X-32133Y48539D01*
X-32146Y48616D01*
X-32156Y48693D01*
X-32161Y48771D01*
X-32163Y48849D01*
X-32163Y52941D01*
X-32161Y53019D01*
X-32156Y53097D01*
X-32146Y53174D01*
X-32133Y53251D01*
X-32117Y53327D01*
X-32097Y53402D01*
X-32073Y53476D01*
X-32046Y53549D01*
X-32015Y53621D01*
X-31981Y53691D01*
X-31944Y53760D01*
X-31903Y53826D01*
X-31859Y53891D01*
X-31813Y53953D01*
X-31763Y54013D01*
X-31711Y54071D01*
X-31656Y54126D01*
X-31598Y54178D01*
X-31538Y54228D01*
X-31476Y54274D01*
X-31411Y54318D01*
X-31345Y54359D01*
X-31276Y54396D01*
X-31206Y54430D01*
X-31134Y54461D01*
X-31061Y54488D01*
X-30987Y54512D01*
X-30912Y54532D01*
X-30836Y54548D01*
X-30759Y54561D01*
X-30682Y54571D01*
X-30604Y54576D01*
X-30526Y54578D01*
X-28889Y54578D01*
X-26044Y52941D02*
X-23998Y54578D01*
X-23998Y47212D01*
X-26044Y47212D02*
X-21951Y47212D01*
X-14636Y52737D02*
X-14638Y52822D01*
X-14644Y52907D01*
X-14654Y52991D01*
X-14667Y53075D01*
X-14685Y53159D01*
X-14706Y53241D01*
X-14731Y53322D01*
X-14760Y53402D01*
X-14793Y53481D01*
X-14829Y53558D01*
X-14869Y53633D01*
X-14912Y53707D01*
X-14958Y53778D01*
X-15008Y53847D01*
X-15061Y53914D01*
X-15117Y53978D01*
X-15176Y54039D01*
X-15237Y54098D01*
X-15301Y54154D01*
X-15368Y54207D01*
X-15437Y54257D01*
X-15508Y54303D01*
X-15582Y54346D01*
X-15657Y54386D01*
X-15734Y54422D01*
X-15813Y54455D01*
X-15893Y54484D01*
X-15974Y54509D01*
X-16056Y54530D01*
X-16140Y54548D01*
X-16224Y54561D01*
X-16308Y54571D01*
X-16393Y54577D01*
X-16478Y54579D01*
X-16478Y54578D02*
X-16574Y54576D01*
X-16670Y54570D01*
X-16765Y54560D01*
X-16860Y54547D01*
X-16955Y54529D01*
X-17048Y54508D01*
X-17141Y54483D01*
X-17232Y54454D01*
X-17323Y54422D01*
X-17412Y54386D01*
X-17499Y54346D01*
X-17585Y54303D01*
X-17669Y54257D01*
X-17751Y54207D01*
X-17831Y54153D01*
X-17908Y54097D01*
X-17983Y54037D01*
X-18056Y53975D01*
X-18126Y53909D01*
X-18194Y53841D01*
X-18259Y53770D01*
X-18320Y53697D01*
X-18379Y53621D01*
X-18435Y53542D01*
X-18487Y53462D01*
X-18536Y53379D01*
X-18582Y53295D01*
X-18624Y53209D01*
X-18662Y53121D01*
X-18697Y53032D01*
X-18729Y52941D01*
X-15250Y51305D02*
X-15190Y51364D01*
X-15133Y51426D01*
X-15078Y51490D01*
X-15027Y51557D01*
X-14978Y51626D01*
X-14932Y51696D01*
X-14889Y51769D01*
X-14849Y51843D01*
X-14813Y51919D01*
X-14780Y51997D01*
X-14750Y52076D01*
X-14723Y52156D01*
X-14700Y52237D01*
X-14681Y52319D01*
X-14665Y52401D01*
X-14652Y52485D01*
X-14643Y52569D01*
X-14638Y52653D01*
X-14636Y52737D01*
X-15250Y51304D02*
X-18728Y47212D01*
X-14636Y47212D01*
D13*
X-14288Y68961D02*
X-14288Y76581D01*
D14*
X-11494Y87743D02*
X-11494Y89380D01*
X-11493Y87743D02*
X-11495Y87665D01*
X-11500Y87587D01*
X-11510Y87510D01*
X-11523Y87433D01*
X-11539Y87357D01*
X-11559Y87282D01*
X-11583Y87208D01*
X-11610Y87135D01*
X-11641Y87063D01*
X-11675Y86993D01*
X-11712Y86925D01*
X-11753Y86858D01*
X-11797Y86793D01*
X-11843Y86731D01*
X-11893Y86671D01*
X-11945Y86613D01*
X-12000Y86558D01*
X-12058Y86506D01*
X-12118Y86456D01*
X-12180Y86410D01*
X-12245Y86366D01*
X-12311Y86325D01*
X-12380Y86288D01*
X-12450Y86254D01*
X-12522Y86223D01*
X-12595Y86196D01*
X-12669Y86172D01*
X-12744Y86152D01*
X-12820Y86136D01*
X-12897Y86123D01*
X-12974Y86113D01*
X-13052Y86108D01*
X-13130Y86106D01*
X-17223Y86106D01*
X-17301Y86108D01*
X-17379Y86113D01*
X-17456Y86123D01*
X-17533Y86136D01*
X-17609Y86152D01*
X-17684Y86172D01*
X-17758Y86196D01*
X-17831Y86223D01*
X-17903Y86254D01*
X-17973Y86288D01*
X-18042Y86325D01*
X-18108Y86366D01*
X-18173Y86410D01*
X-18235Y86456D01*
X-18295Y86506D01*
X-18353Y86558D01*
X-18408Y86613D01*
X-18460Y86671D01*
X-18510Y86731D01*
X-18556Y86793D01*
X-18600Y86858D01*
X-18641Y86925D01*
X-18678Y86993D01*
X-18712Y87063D01*
X-18743Y87135D01*
X-18770Y87208D01*
X-18794Y87282D01*
X-18814Y87357D01*
X-18830Y87433D01*
X-18843Y87510D01*
X-18853Y87587D01*
X-18858Y87665D01*
X-18860Y87743D01*
X-18860Y89380D01*
X-17223Y92225D02*
X-18860Y94271D01*
X-11494Y94271D01*
X-11494Y92225D02*
X-11494Y96317D01*
X-11494Y99540D02*
X-11494Y101586D01*
X-11496Y101675D01*
X-11502Y101764D01*
X-11512Y101853D01*
X-11525Y101941D01*
X-11542Y102029D01*
X-11564Y102116D01*
X-11589Y102201D01*
X-11617Y102286D01*
X-11650Y102369D01*
X-11686Y102451D01*
X-11725Y102531D01*
X-11768Y102609D01*
X-11814Y102685D01*
X-11864Y102760D01*
X-11917Y102832D01*
X-11973Y102901D01*
X-12032Y102968D01*
X-12093Y103033D01*
X-12158Y103094D01*
X-12225Y103153D01*
X-12294Y103209D01*
X-12366Y103262D01*
X-12441Y103312D01*
X-12517Y103358D01*
X-12595Y103401D01*
X-12675Y103440D01*
X-12757Y103476D01*
X-12840Y103509D01*
X-12925Y103537D01*
X-13010Y103562D01*
X-13097Y103584D01*
X-13185Y103601D01*
X-13273Y103614D01*
X-13362Y103624D01*
X-13451Y103630D01*
X-13540Y103632D01*
X-13629Y103630D01*
X-13718Y103624D01*
X-13807Y103614D01*
X-13895Y103601D01*
X-13983Y103584D01*
X-14070Y103562D01*
X-14155Y103537D01*
X-14240Y103509D01*
X-14323Y103476D01*
X-14405Y103440D01*
X-14485Y103401D01*
X-14563Y103358D01*
X-14639Y103312D01*
X-14714Y103262D01*
X-14786Y103209D01*
X-14855Y103153D01*
X-14922Y103094D01*
X-14987Y103033D01*
X-15048Y102968D01*
X-15107Y102901D01*
X-15163Y102832D01*
X-15216Y102760D01*
X-15266Y102685D01*
X-15312Y102609D01*
X-15355Y102531D01*
X-15394Y102451D01*
X-15430Y102369D01*
X-15463Y102286D01*
X-15491Y102201D01*
X-15516Y102116D01*
X-15538Y102029D01*
X-15555Y101941D01*
X-15568Y101853D01*
X-15578Y101764D01*
X-15584Y101675D01*
X-15586Y101586D01*
X-18860Y101996D02*
X-18860Y99540D01*
X-18860Y101996D02*
X-18858Y102075D01*
X-18852Y102154D01*
X-18843Y102233D01*
X-18830Y102311D01*
X-18812Y102388D01*
X-18792Y102464D01*
X-18767Y102539D01*
X-18739Y102613D01*
X-18708Y102686D01*
X-18672Y102757D01*
X-18634Y102826D01*
X-18592Y102893D01*
X-18547Y102958D01*
X-18499Y103021D01*
X-18448Y103082D01*
X-18394Y103139D01*
X-18338Y103195D01*
X-18279Y103247D01*
X-18217Y103297D01*
X-18153Y103343D01*
X-18087Y103387D01*
X-18019Y103427D01*
X-17949Y103463D01*
X-17877Y103497D01*
X-17803Y103527D01*
X-17729Y103553D01*
X-17653Y103576D01*
X-17576Y103594D01*
X-17499Y103610D01*
X-17420Y103621D01*
X-17342Y103629D01*
X-17263Y103633D01*
X-17183Y103633D01*
X-17104Y103629D01*
X-17026Y103621D01*
X-16947Y103610D01*
X-16870Y103594D01*
X-16793Y103576D01*
X-16717Y103553D01*
X-16643Y103527D01*
X-16569Y103497D01*
X-16497Y103463D01*
X-16427Y103427D01*
X-16359Y103387D01*
X-16293Y103343D01*
X-16229Y103297D01*
X-16167Y103247D01*
X-16108Y103195D01*
X-16052Y103139D01*
X-15998Y103082D01*
X-15947Y103021D01*
X-15899Y102958D01*
X-15854Y102893D01*
X-15812Y102826D01*
X-15774Y102757D01*
X-15738Y102686D01*
X-15707Y102613D01*
X-15679Y102539D01*
X-15654Y102464D01*
X-15634Y102388D01*
X-15616Y102311D01*
X-15603Y102233D01*
X-15594Y102154D01*
X-15588Y102075D01*
X-15586Y101996D01*
X-15586Y100359D01*
D18*
X39275Y3365D02*
X47815Y3365D01*
X47815Y-9715D01*
X34735Y-9715D01*
X34735Y-1175D01*
X39275Y3365D01*
X33735Y3365D02*
X33737Y3428D01*
X33743Y3490D01*
X33753Y3552D01*
X33766Y3614D01*
X33784Y3674D01*
X33805Y3733D01*
X33830Y3791D01*
X33859Y3847D01*
X33891Y3901D01*
X33926Y3953D01*
X33964Y4002D01*
X34006Y4050D01*
X34050Y4094D01*
X34098Y4136D01*
X34147Y4174D01*
X34199Y4209D01*
X34253Y4241D01*
X34309Y4270D01*
X34367Y4295D01*
X34426Y4316D01*
X34486Y4334D01*
X34548Y4347D01*
X34610Y4357D01*
X34672Y4363D01*
X34735Y4365D01*
X34798Y4363D01*
X34860Y4357D01*
X34922Y4347D01*
X34984Y4334D01*
X35044Y4316D01*
X35103Y4295D01*
X35161Y4270D01*
X35217Y4241D01*
X35271Y4209D01*
X35323Y4174D01*
X35372Y4136D01*
X35420Y4094D01*
X35464Y4050D01*
X35506Y4002D01*
X35544Y3953D01*
X35579Y3901D01*
X35611Y3847D01*
X35640Y3791D01*
X35665Y3733D01*
X35686Y3674D01*
X35704Y3614D01*
X35717Y3552D01*
X35727Y3490D01*
X35733Y3428D01*
X35735Y3365D01*
X35733Y3302D01*
X35727Y3240D01*
X35717Y3178D01*
X35704Y3116D01*
X35686Y3056D01*
X35665Y2997D01*
X35640Y2939D01*
X35611Y2883D01*
X35579Y2829D01*
X35544Y2777D01*
X35506Y2728D01*
X35464Y2680D01*
X35420Y2636D01*
X35372Y2594D01*
X35323Y2556D01*
X35271Y2521D01*
X35217Y2489D01*
X35161Y2460D01*
X35103Y2435D01*
X35044Y2414D01*
X34984Y2396D01*
X34922Y2383D01*
X34860Y2373D01*
X34798Y2367D01*
X34735Y2365D01*
X34672Y2367D01*
X34610Y2373D01*
X34548Y2383D01*
X34486Y2396D01*
X34426Y2414D01*
X34367Y2435D01*
X34309Y2460D01*
X34253Y2489D01*
X34199Y2521D01*
X34147Y2556D01*
X34098Y2594D01*
X34050Y2636D01*
X34006Y2680D01*
X33964Y2728D01*
X33926Y2777D01*
X33891Y2829D01*
X33859Y2883D01*
X33830Y2939D01*
X33805Y2997D01*
X33784Y3056D01*
X33766Y3116D01*
X33753Y3178D01*
X33743Y3240D01*
X33737Y3302D01*
X33735Y3365D01*
D14*
X37037Y-13780D02*
X37037Y-19099D01*
X37039Y-19188D01*
X37045Y-19277D01*
X37055Y-19366D01*
X37068Y-19454D01*
X37085Y-19542D01*
X37107Y-19629D01*
X37132Y-19714D01*
X37160Y-19799D01*
X37193Y-19882D01*
X37229Y-19964D01*
X37268Y-20044D01*
X37311Y-20122D01*
X37357Y-20198D01*
X37407Y-20273D01*
X37460Y-20345D01*
X37516Y-20414D01*
X37575Y-20481D01*
X37636Y-20546D01*
X37701Y-20607D01*
X37768Y-20666D01*
X37837Y-20722D01*
X37909Y-20775D01*
X37984Y-20825D01*
X38060Y-20871D01*
X38138Y-20914D01*
X38218Y-20953D01*
X38300Y-20989D01*
X38383Y-21022D01*
X38468Y-21050D01*
X38553Y-21075D01*
X38640Y-21097D01*
X38728Y-21114D01*
X38816Y-21127D01*
X38905Y-21137D01*
X38994Y-21143D01*
X39083Y-21145D01*
X39172Y-21143D01*
X39261Y-21137D01*
X39350Y-21127D01*
X39438Y-21114D01*
X39526Y-21097D01*
X39613Y-21075D01*
X39698Y-21050D01*
X39783Y-21022D01*
X39866Y-20989D01*
X39948Y-20953D01*
X40028Y-20914D01*
X40106Y-20871D01*
X40182Y-20825D01*
X40257Y-20775D01*
X40329Y-20722D01*
X40398Y-20666D01*
X40465Y-20607D01*
X40530Y-20546D01*
X40591Y-20481D01*
X40650Y-20414D01*
X40706Y-20345D01*
X40759Y-20273D01*
X40809Y-20198D01*
X40855Y-20122D01*
X40898Y-20044D01*
X40937Y-19964D01*
X40973Y-19882D01*
X41006Y-19799D01*
X41034Y-19714D01*
X41059Y-19629D01*
X41081Y-19542D01*
X41098Y-19454D01*
X41111Y-19366D01*
X41121Y-19277D01*
X41127Y-19188D01*
X41129Y-19099D01*
X41129Y-13780D01*
X46233Y-13780D02*
X44596Y-19509D01*
X48688Y-19509D01*
X47460Y-17872D02*
X47460Y-21146D01*
D21*
X-4000Y53500D03*
D22*
X-3998Y53456D01*
X-3992Y53413D01*
X-3983Y53371D01*
X-3970Y53329D01*
X-3953Y53289D01*
X-3933Y53250D01*
X-3910Y53213D01*
X-3883Y53179D01*
X-3854Y53146D01*
X-3821Y53117D01*
X-3787Y53090D01*
X-3750Y53067D01*
X-3711Y53047D01*
X-3671Y53030D01*
X-3629Y53017D01*
X-3587Y53008D01*
X-3544Y53002D01*
X-3500Y53000D01*
X-3456Y53002D01*
X-3413Y53008D01*
X-3371Y53017D01*
X-3329Y53030D01*
X-3289Y53047D01*
X-3250Y53067D01*
X-3213Y53090D01*
X-3179Y53117D01*
X-3146Y53146D01*
X-3117Y53179D01*
X-3090Y53213D01*
X-3067Y53250D01*
X-3047Y53289D01*
X-3030Y53329D01*
X-3017Y53371D01*
X-3008Y53413D01*
X-3002Y53456D01*
X-3000Y53500D01*
D21*
X-3000Y53500D03*
D22*
X-3002Y53544D01*
X-3008Y53587D01*
X-3017Y53629D01*
X-3030Y53671D01*
X-3047Y53711D01*
X-3067Y53750D01*
X-3090Y53787D01*
X-3117Y53821D01*
X-3146Y53854D01*
X-3179Y53883D01*
X-3213Y53910D01*
X-3250Y53933D01*
X-3289Y53953D01*
X-3329Y53970D01*
X-3371Y53983D01*
X-3413Y53992D01*
X-3456Y53998D01*
X-3500Y54000D01*
X-3544Y53998D01*
X-3587Y53992D01*
X-3629Y53983D01*
X-3671Y53970D01*
X-3711Y53953D01*
X-3750Y53933D01*
X-3787Y53910D01*
X-3821Y53883D01*
X-3854Y53854D01*
X-3883Y53821D01*
X-3910Y53787D01*
X-3933Y53750D01*
X-3953Y53711D01*
X-3970Y53671D01*
X-3983Y53629D01*
X-3992Y53587D01*
X-3998Y53544D01*
X-4000Y53500D01*
D14*
X-5826Y76563D02*
X-5826Y81883D01*
X-5826Y76563D02*
X-5824Y76474D01*
X-5818Y76385D01*
X-5808Y76296D01*
X-5795Y76208D01*
X-5778Y76120D01*
X-5756Y76033D01*
X-5731Y75948D01*
X-5703Y75863D01*
X-5670Y75780D01*
X-5634Y75698D01*
X-5595Y75618D01*
X-5552Y75540D01*
X-5506Y75464D01*
X-5456Y75389D01*
X-5403Y75317D01*
X-5347Y75248D01*
X-5288Y75181D01*
X-5227Y75116D01*
X-5162Y75055D01*
X-5095Y74996D01*
X-5026Y74940D01*
X-4954Y74887D01*
X-4879Y74837D01*
X-4803Y74791D01*
X-4725Y74748D01*
X-4645Y74709D01*
X-4563Y74673D01*
X-4480Y74640D01*
X-4395Y74612D01*
X-4310Y74587D01*
X-4223Y74565D01*
X-4135Y74548D01*
X-4047Y74535D01*
X-3958Y74525D01*
X-3869Y74519D01*
X-3780Y74517D01*
X-3691Y74519D01*
X-3602Y74525D01*
X-3513Y74535D01*
X-3425Y74548D01*
X-3337Y74565D01*
X-3250Y74587D01*
X-3165Y74612D01*
X-3080Y74640D01*
X-2997Y74673D01*
X-2915Y74709D01*
X-2835Y74748D01*
X-2757Y74791D01*
X-2681Y74837D01*
X-2606Y74887D01*
X-2534Y74940D01*
X-2465Y74996D01*
X-2398Y75055D01*
X-2333Y75116D01*
X-2272Y75181D01*
X-2213Y75248D01*
X-2157Y75317D01*
X-2104Y75389D01*
X-2054Y75464D01*
X-2008Y75540D01*
X-1965Y75618D01*
X-1926Y75698D01*
X-1890Y75780D01*
X-1857Y75863D01*
X-1829Y75948D01*
X-1804Y76033D01*
X-1782Y76120D01*
X-1765Y76208D01*
X-1752Y76296D01*
X-1742Y76385D01*
X-1736Y76474D01*
X-1734Y76563D01*
X-1733Y76563D02*
X-1733Y81883D01*
X1733Y74517D02*
X3780Y74517D01*
X3869Y74519D01*
X3958Y74525D01*
X4047Y74535D01*
X4135Y74548D01*
X4223Y74565D01*
X4310Y74587D01*
X4395Y74612D01*
X4480Y74640D01*
X4563Y74673D01*
X4645Y74709D01*
X4725Y74748D01*
X4803Y74791D01*
X4879Y74837D01*
X4954Y74887D01*
X5026Y74940D01*
X5095Y74996D01*
X5162Y75055D01*
X5227Y75116D01*
X5288Y75181D01*
X5347Y75248D01*
X5403Y75317D01*
X5456Y75389D01*
X5506Y75464D01*
X5552Y75540D01*
X5595Y75618D01*
X5634Y75698D01*
X5670Y75780D01*
X5703Y75863D01*
X5731Y75948D01*
X5756Y76033D01*
X5778Y76120D01*
X5795Y76208D01*
X5808Y76296D01*
X5818Y76385D01*
X5824Y76474D01*
X5826Y76563D01*
X5824Y76652D01*
X5818Y76741D01*
X5808Y76830D01*
X5795Y76918D01*
X5778Y77006D01*
X5756Y77093D01*
X5731Y77178D01*
X5703Y77263D01*
X5670Y77346D01*
X5634Y77428D01*
X5595Y77508D01*
X5552Y77586D01*
X5506Y77662D01*
X5456Y77737D01*
X5403Y77809D01*
X5347Y77878D01*
X5288Y77945D01*
X5227Y78010D01*
X5162Y78071D01*
X5095Y78130D01*
X5026Y78186D01*
X4954Y78239D01*
X4879Y78289D01*
X4803Y78335D01*
X4725Y78378D01*
X4645Y78417D01*
X4563Y78453D01*
X4480Y78486D01*
X4395Y78514D01*
X4310Y78539D01*
X4223Y78561D01*
X4135Y78578D01*
X4047Y78591D01*
X3958Y78601D01*
X3869Y78607D01*
X3780Y78609D01*
X4189Y81883D02*
X1733Y81883D01*
X4189Y81883D02*
X4268Y81881D01*
X4347Y81875D01*
X4426Y81866D01*
X4504Y81853D01*
X4581Y81835D01*
X4657Y81815D01*
X4732Y81790D01*
X4806Y81762D01*
X4879Y81731D01*
X4950Y81695D01*
X5019Y81657D01*
X5086Y81615D01*
X5151Y81570D01*
X5214Y81522D01*
X5275Y81471D01*
X5332Y81417D01*
X5388Y81361D01*
X5440Y81302D01*
X5490Y81240D01*
X5536Y81176D01*
X5580Y81110D01*
X5620Y81042D01*
X5656Y80972D01*
X5690Y80900D01*
X5720Y80826D01*
X5746Y80752D01*
X5769Y80676D01*
X5787Y80599D01*
X5803Y80522D01*
X5814Y80443D01*
X5822Y80365D01*
X5826Y80286D01*
X5826Y80206D01*
X5822Y80127D01*
X5814Y80049D01*
X5803Y79970D01*
X5787Y79893D01*
X5769Y79816D01*
X5746Y79740D01*
X5720Y79666D01*
X5690Y79592D01*
X5656Y79520D01*
X5620Y79450D01*
X5580Y79382D01*
X5536Y79316D01*
X5490Y79252D01*
X5440Y79190D01*
X5388Y79131D01*
X5332Y79075D01*
X5275Y79021D01*
X5214Y78970D01*
X5151Y78922D01*
X5086Y78877D01*
X5019Y78835D01*
X4950Y78797D01*
X4879Y78761D01*
X4806Y78730D01*
X4732Y78702D01*
X4657Y78677D01*
X4581Y78657D01*
X4504Y78639D01*
X4426Y78626D01*
X4347Y78617D01*
X4268Y78611D01*
X4189Y78609D01*
X2552Y78609D01*
D13*
X-33211Y30417D02*
X-40323Y30417D01*
D14*
X-46025Y23520D02*
X-46025Y16154D01*
X-46025Y23520D02*
X-43979Y23520D01*
X-43890Y23518D01*
X-43801Y23512D01*
X-43712Y23502D01*
X-43624Y23489D01*
X-43536Y23472D01*
X-43449Y23450D01*
X-43364Y23425D01*
X-43279Y23397D01*
X-43196Y23364D01*
X-43114Y23328D01*
X-43034Y23289D01*
X-42956Y23246D01*
X-42880Y23200D01*
X-42805Y23150D01*
X-42733Y23097D01*
X-42664Y23041D01*
X-42597Y22982D01*
X-42532Y22921D01*
X-42471Y22856D01*
X-42412Y22789D01*
X-42356Y22720D01*
X-42303Y22648D01*
X-42253Y22573D01*
X-42207Y22497D01*
X-42164Y22419D01*
X-42125Y22339D01*
X-42089Y22257D01*
X-42056Y22174D01*
X-42028Y22089D01*
X-42003Y22004D01*
X-41981Y21917D01*
X-41964Y21829D01*
X-41951Y21741D01*
X-41941Y21652D01*
X-41935Y21563D01*
X-41933Y21474D01*
X-41935Y21385D01*
X-41941Y21296D01*
X-41951Y21207D01*
X-41964Y21119D01*
X-41981Y21031D01*
X-42003Y20944D01*
X-42028Y20859D01*
X-42056Y20774D01*
X-42089Y20691D01*
X-42125Y20609D01*
X-42164Y20529D01*
X-42207Y20451D01*
X-42253Y20375D01*
X-42303Y20300D01*
X-42356Y20228D01*
X-42412Y20159D01*
X-42471Y20092D01*
X-42532Y20027D01*
X-42597Y19966D01*
X-42664Y19907D01*
X-42733Y19851D01*
X-42805Y19798D01*
X-42880Y19748D01*
X-42956Y19702D01*
X-43034Y19659D01*
X-43114Y19620D01*
X-43196Y19584D01*
X-43279Y19551D01*
X-43364Y19523D01*
X-43449Y19498D01*
X-43536Y19476D01*
X-43624Y19459D01*
X-43712Y19446D01*
X-43801Y19436D01*
X-43890Y19430D01*
X-43979Y19428D01*
X-46025Y19428D01*
X-43570Y19428D02*
X-41933Y16154D01*
X-38761Y21883D02*
X-36715Y23520D01*
X-36715Y16154D01*
X-38761Y16154D02*
X-34669Y16154D01*
X-31446Y21883D02*
X-29399Y23520D01*
X-29399Y16154D01*
X-27353Y16154D02*
X-31446Y16154D01*
D13*
X-22225Y-11811D02*
X-22225Y-19431D01*
D14*
X-28766Y-20984D02*
X-28766Y-22621D01*
X-28765Y-22621D02*
X-28767Y-22699D01*
X-28772Y-22777D01*
X-28782Y-22854D01*
X-28795Y-22931D01*
X-28811Y-23007D01*
X-28831Y-23082D01*
X-28855Y-23156D01*
X-28882Y-23229D01*
X-28913Y-23301D01*
X-28947Y-23371D01*
X-28984Y-23439D01*
X-29025Y-23506D01*
X-29069Y-23571D01*
X-29115Y-23633D01*
X-29165Y-23693D01*
X-29217Y-23751D01*
X-29272Y-23806D01*
X-29330Y-23858D01*
X-29390Y-23908D01*
X-29452Y-23954D01*
X-29517Y-23998D01*
X-29583Y-24039D01*
X-29652Y-24076D01*
X-29722Y-24110D01*
X-29794Y-24141D01*
X-29867Y-24168D01*
X-29941Y-24192D01*
X-30016Y-24212D01*
X-30092Y-24228D01*
X-30169Y-24241D01*
X-30246Y-24251D01*
X-30324Y-24256D01*
X-30402Y-24258D01*
X-34495Y-24258D01*
X-34573Y-24256D01*
X-34651Y-24251D01*
X-34728Y-24241D01*
X-34805Y-24228D01*
X-34881Y-24212D01*
X-34956Y-24192D01*
X-35030Y-24168D01*
X-35103Y-24141D01*
X-35175Y-24110D01*
X-35245Y-24076D01*
X-35314Y-24039D01*
X-35380Y-23998D01*
X-35445Y-23954D01*
X-35507Y-23908D01*
X-35567Y-23858D01*
X-35625Y-23806D01*
X-35680Y-23751D01*
X-35732Y-23693D01*
X-35782Y-23633D01*
X-35828Y-23571D01*
X-35872Y-23506D01*
X-35913Y-23439D01*
X-35950Y-23371D01*
X-35984Y-23301D01*
X-36015Y-23229D01*
X-36042Y-23156D01*
X-36066Y-23082D01*
X-36086Y-23007D01*
X-36102Y-22931D01*
X-36115Y-22854D01*
X-36125Y-22777D01*
X-36130Y-22699D01*
X-36132Y-22621D01*
X-36132Y-20984D01*
X-34495Y-18138D02*
X-36132Y-16092D01*
X-28766Y-16092D01*
X-28766Y-18138D02*
X-28766Y-14046D01*
X-32858Y-10823D02*
X-32858Y-8368D01*
X-32856Y-8288D01*
X-32850Y-8208D01*
X-32840Y-8128D01*
X-32827Y-8049D01*
X-32809Y-7970D01*
X-32788Y-7893D01*
X-32762Y-7817D01*
X-32733Y-7742D01*
X-32701Y-7668D01*
X-32665Y-7596D01*
X-32625Y-7526D01*
X-32582Y-7459D01*
X-32536Y-7393D01*
X-32486Y-7330D01*
X-32434Y-7269D01*
X-32379Y-7210D01*
X-32320Y-7155D01*
X-32260Y-7103D01*
X-32196Y-7053D01*
X-32130Y-7007D01*
X-32063Y-6964D01*
X-31993Y-6924D01*
X-31921Y-6888D01*
X-31847Y-6856D01*
X-31773Y-6827D01*
X-31696Y-6801D01*
X-31619Y-6780D01*
X-31540Y-6762D01*
X-31461Y-6749D01*
X-31381Y-6739D01*
X-31301Y-6733D01*
X-31221Y-6731D01*
X-30812Y-6731D01*
X-30723Y-6733D01*
X-30634Y-6739D01*
X-30545Y-6749D01*
X-30457Y-6762D01*
X-30369Y-6779D01*
X-30282Y-6801D01*
X-30197Y-6826D01*
X-30112Y-6854D01*
X-30029Y-6887D01*
X-29947Y-6923D01*
X-29867Y-6962D01*
X-29789Y-7005D01*
X-29713Y-7051D01*
X-29638Y-7101D01*
X-29566Y-7154D01*
X-29497Y-7210D01*
X-29430Y-7269D01*
X-29365Y-7330D01*
X-29304Y-7395D01*
X-29245Y-7462D01*
X-29189Y-7531D01*
X-29136Y-7603D01*
X-29086Y-7678D01*
X-29040Y-7754D01*
X-28997Y-7832D01*
X-28958Y-7912D01*
X-28922Y-7994D01*
X-28889Y-8077D01*
X-28861Y-8162D01*
X-28836Y-8247D01*
X-28814Y-8334D01*
X-28797Y-8422D01*
X-28784Y-8510D01*
X-28774Y-8599D01*
X-28768Y-8688D01*
X-28766Y-8777D01*
X-28768Y-8866D01*
X-28774Y-8955D01*
X-28784Y-9044D01*
X-28797Y-9132D01*
X-28814Y-9220D01*
X-28836Y-9307D01*
X-28861Y-9392D01*
X-28889Y-9477D01*
X-28922Y-9560D01*
X-28958Y-9642D01*
X-28997Y-9722D01*
X-29040Y-9800D01*
X-29086Y-9876D01*
X-29136Y-9951D01*
X-29189Y-10023D01*
X-29245Y-10092D01*
X-29304Y-10159D01*
X-29365Y-10224D01*
X-29430Y-10285D01*
X-29497Y-10344D01*
X-29566Y-10400D01*
X-29638Y-10453D01*
X-29713Y-10503D01*
X-29789Y-10549D01*
X-29867Y-10592D01*
X-29947Y-10631D01*
X-30029Y-10667D01*
X-30112Y-10700D01*
X-30197Y-10728D01*
X-30282Y-10753D01*
X-30369Y-10775D01*
X-30457Y-10792D01*
X-30545Y-10805D01*
X-30634Y-10815D01*
X-30723Y-10821D01*
X-30812Y-10823D01*
X-32858Y-10823D01*
X-32972Y-10821D01*
X-33086Y-10815D01*
X-33200Y-10805D01*
X-33314Y-10791D01*
X-33427Y-10773D01*
X-33539Y-10751D01*
X-33650Y-10726D01*
X-33760Y-10696D01*
X-33870Y-10663D01*
X-33978Y-10626D01*
X-34084Y-10585D01*
X-34190Y-10540D01*
X-34293Y-10492D01*
X-34395Y-10440D01*
X-34495Y-10384D01*
X-34593Y-10326D01*
X-34689Y-10263D01*
X-34782Y-10198D01*
X-34874Y-10129D01*
X-34962Y-10057D01*
X-35049Y-9982D01*
X-35132Y-9904D01*
X-35213Y-9823D01*
X-35291Y-9740D01*
X-35366Y-9653D01*
X-35438Y-9565D01*
X-35507Y-9473D01*
X-35572Y-9380D01*
X-35634Y-9284D01*
X-35693Y-9186D01*
X-35749Y-9086D01*
X-35801Y-8984D01*
X-35849Y-8881D01*
X-35894Y-8775D01*
X-35935Y-8669D01*
X-35972Y-8561D01*
X-36005Y-8451D01*
X-36035Y-8341D01*
X-36060Y-8230D01*
X-36082Y-8118D01*
X-36100Y-8005D01*
X-36114Y-7891D01*
X-36124Y-7777D01*
X-36130Y-7663D01*
X-36132Y-7549D01*
D13*
X-4064Y41275D02*
X3556Y41275D01*
D14*
X-28095Y36894D02*
X-29732Y36894D01*
X-29732Y36893D02*
X-29810Y36895D01*
X-29888Y36900D01*
X-29965Y36910D01*
X-30042Y36923D01*
X-30118Y36939D01*
X-30193Y36959D01*
X-30267Y36983D01*
X-30340Y37010D01*
X-30412Y37041D01*
X-30482Y37075D01*
X-30551Y37112D01*
X-30617Y37153D01*
X-30682Y37197D01*
X-30744Y37243D01*
X-30804Y37293D01*
X-30862Y37345D01*
X-30917Y37400D01*
X-30969Y37458D01*
X-31019Y37518D01*
X-31065Y37580D01*
X-31109Y37645D01*
X-31150Y37712D01*
X-31187Y37780D01*
X-31221Y37850D01*
X-31252Y37922D01*
X-31279Y37995D01*
X-31303Y38069D01*
X-31323Y38144D01*
X-31339Y38220D01*
X-31352Y38297D01*
X-31362Y38374D01*
X-31367Y38452D01*
X-31369Y38530D01*
X-31369Y42623D01*
X-31367Y42701D01*
X-31362Y42779D01*
X-31352Y42856D01*
X-31339Y42933D01*
X-31323Y43009D01*
X-31303Y43084D01*
X-31279Y43158D01*
X-31252Y43231D01*
X-31221Y43303D01*
X-31187Y43373D01*
X-31150Y43442D01*
X-31109Y43508D01*
X-31065Y43573D01*
X-31019Y43635D01*
X-30969Y43695D01*
X-30917Y43753D01*
X-30862Y43808D01*
X-30804Y43860D01*
X-30744Y43910D01*
X-30682Y43956D01*
X-30617Y44000D01*
X-30551Y44041D01*
X-30482Y44078D01*
X-30412Y44112D01*
X-30340Y44143D01*
X-30267Y44170D01*
X-30193Y44194D01*
X-30118Y44214D01*
X-30042Y44230D01*
X-29965Y44243D01*
X-29888Y44253D01*
X-29810Y44258D01*
X-29732Y44260D01*
X-28095Y44260D01*
X-25250Y42623D02*
X-23204Y44260D01*
X-23204Y36894D01*
X-25250Y36894D02*
X-21158Y36894D01*
X-17935Y43441D02*
X-17935Y44260D01*
X-13843Y44260D01*
X-15889Y36894D01*
D13*
X5017Y93536D02*
X5017Y100648D01*
D23*
X12852Y88850D02*
X19964Y88850D01*
X12852Y88850D02*
X12852Y90826D01*
X12854Y90913D01*
X12860Y91001D01*
X12869Y91088D01*
X12883Y91174D01*
X12900Y91260D01*
X12921Y91344D01*
X12946Y91428D01*
X12975Y91511D01*
X13007Y91592D01*
X13042Y91672D01*
X13081Y91750D01*
X13124Y91827D01*
X13170Y91901D01*
X13219Y91973D01*
X13271Y92043D01*
X13327Y92111D01*
X13385Y92176D01*
X13446Y92239D01*
X13510Y92298D01*
X13577Y92355D01*
X13645Y92409D01*
X13717Y92460D01*
X13790Y92507D01*
X13865Y92552D01*
X13943Y92593D01*
X14022Y92630D01*
X14102Y92664D01*
X14184Y92694D01*
X14267Y92721D01*
X14352Y92744D01*
X14437Y92763D01*
X14523Y92778D01*
X14610Y92790D01*
X14697Y92798D01*
X14784Y92802D01*
X14872Y92802D01*
X14959Y92798D01*
X15046Y92790D01*
X15133Y92778D01*
X15219Y92763D01*
X15304Y92744D01*
X15389Y92721D01*
X15472Y92694D01*
X15554Y92664D01*
X15634Y92630D01*
X15713Y92593D01*
X15791Y92552D01*
X15866Y92507D01*
X15939Y92460D01*
X16011Y92409D01*
X16079Y92355D01*
X16146Y92298D01*
X16210Y92239D01*
X16271Y92176D01*
X16329Y92111D01*
X16385Y92043D01*
X16437Y91973D01*
X16486Y91901D01*
X16532Y91827D01*
X16575Y91750D01*
X16614Y91672D01*
X16649Y91592D01*
X16681Y91511D01*
X16710Y91428D01*
X16735Y91344D01*
X16756Y91260D01*
X16773Y91174D01*
X16787Y91088D01*
X16796Y91001D01*
X16802Y90913D01*
X16804Y90826D01*
X16804Y88850D01*
X16804Y91221D02*
X19964Y92801D01*
X14433Y95668D02*
X12852Y97643D01*
X19964Y97643D01*
X19964Y95668D02*
X19964Y99619D01*
X14630Y106477D02*
X14548Y106475D01*
X14466Y106469D01*
X14384Y106460D01*
X14303Y106447D01*
X14223Y106430D01*
X14143Y106409D01*
X14065Y106385D01*
X13988Y106357D01*
X13912Y106326D01*
X13837Y106291D01*
X13765Y106252D01*
X13694Y106211D01*
X13625Y106166D01*
X13559Y106118D01*
X13494Y106067D01*
X13432Y106013D01*
X13373Y105956D01*
X13316Y105897D01*
X13262Y105835D01*
X13211Y105770D01*
X13163Y105704D01*
X13118Y105635D01*
X13077Y105564D01*
X13038Y105492D01*
X13003Y105417D01*
X12972Y105341D01*
X12944Y105264D01*
X12920Y105186D01*
X12899Y105106D01*
X12882Y105026D01*
X12869Y104945D01*
X12860Y104863D01*
X12854Y104781D01*
X12852Y104699D01*
X12853Y104699D02*
X12855Y104606D01*
X12861Y104514D01*
X12870Y104422D01*
X12883Y104330D01*
X12900Y104239D01*
X12920Y104149D01*
X12944Y104059D01*
X12972Y103971D01*
X13004Y103883D01*
X13038Y103798D01*
X13077Y103713D01*
X13118Y103631D01*
X13163Y103550D01*
X13212Y103470D01*
X13263Y103393D01*
X13317Y103318D01*
X13375Y103246D01*
X13435Y103175D01*
X13499Y103108D01*
X13564Y103043D01*
X13633Y102980D01*
X13704Y102921D01*
X13777Y102864D01*
X13853Y102810D01*
X13930Y102760D01*
X14010Y102712D01*
X14092Y102668D01*
X14175Y102628D01*
X14260Y102590D01*
X14346Y102556D01*
X14433Y102526D01*
X16013Y105884D02*
X15952Y105945D01*
X15889Y106003D01*
X15823Y106058D01*
X15755Y106111D01*
X15684Y106160D01*
X15612Y106205D01*
X15537Y106248D01*
X15461Y106287D01*
X15382Y106323D01*
X15303Y106355D01*
X15222Y106383D01*
X15139Y106408D01*
X15056Y106429D01*
X14972Y106446D01*
X14887Y106460D01*
X14802Y106469D01*
X14716Y106475D01*
X14630Y106477D01*
X16013Y105884D02*
X19964Y102526D01*
X19964Y106477D01*
D24*
X-62357Y-53823D03*
D25*
X-51003Y-53823D03*
D26*
X-64186Y-53670D03*
X-60985Y-53670D03*
X-44069Y-53670D03*
D27*
X-62586Y-53670D03*
D28*
X-50927Y-53670D03*
D26*
X-64491Y-53518D03*
X-60985Y-53518D03*
D29*
X-62738Y-53518D03*
D30*
X-50698Y-53518D03*
D26*
X-60985Y-53365D03*
X-43459Y-53365D03*
D31*
X-62890Y-53365D03*
D32*
X-50622Y-53365D03*
D26*
X-60985Y-53213D03*
D33*
X-62967Y-53213D03*
D34*
X-50470Y-53213D03*
D26*
X-65100Y-53061D03*
X-60985Y-53061D03*
D35*
X-63043Y-53061D03*
D36*
X-50394Y-53061D03*
D26*
X-60985Y-52908D03*
D37*
X-63119Y-52908D03*
D38*
X-50317Y-52908D03*
D26*
X-60985Y-52756D03*
X-42850Y-52756D03*
D39*
X-63195Y-52756D03*
D38*
X-50317Y-52756D03*
D26*
X-65405Y-52603D03*
X-60985Y-52603D03*
D39*
X-63195Y-52603D03*
D40*
X-50241Y-52603D03*
D26*
X-60985Y-52451D03*
D41*
X-63271Y-52451D03*
D42*
X-50165Y-52451D03*
D26*
X-60985Y-52299D03*
X-42545Y-52299D03*
D43*
X-63348Y-52299D03*
D42*
X-50165Y-52299D03*
D26*
X-65710Y-52146D03*
X-60985Y-52146D03*
D43*
X-63348Y-52146D03*
D44*
X-50089Y-52146D03*
D26*
X-60985Y-51994D03*
X-42393Y-51994D03*
D45*
X-63424Y-51994D03*
D44*
X-50089Y-51994D03*
D26*
X-65862Y-51841D03*
X-60985Y-51841D03*
D45*
X-63424Y-51841D03*
D46*
X-50013Y-51841D03*
D26*
X-60985Y-51689D03*
D47*
X-63500Y-51689D03*
D48*
X-49936Y-51689D03*
D26*
X-60985Y-51537D03*
X-42088Y-51537D03*
D49*
X-63576Y-51537D03*
D48*
X-49936Y-51537D03*
D26*
X-60985Y-51384D03*
D49*
X-63576Y-51384D03*
D50*
X-49860Y-51384D03*
D26*
X-60985Y-51232D03*
X-41935Y-51232D03*
D51*
X-63652Y-51232D03*
D50*
X-49860Y-51232D03*
D26*
X-66319Y-51079D03*
X-60985Y-51079D03*
D51*
X-63652Y-51079D03*
D52*
X-49784Y-51079D03*
D26*
X-60985Y-50927D03*
X-41783Y-50927D03*
D53*
X-63729Y-50927D03*
D52*
X-49784Y-50927D03*
D26*
X-66472Y-50775D03*
X-60985Y-50775D03*
D53*
X-63729Y-50775D03*
D54*
X-49708Y-50775D03*
D26*
X-60985Y-50622D03*
D55*
X-63805Y-50622D03*
D56*
X-49632Y-50622D03*
D26*
X-60985Y-50470D03*
X-41478Y-50470D03*
D57*
X-63881Y-50470D03*
D56*
X-49632Y-50470D03*
D26*
X-66777Y-50317D03*
X-60985Y-50317D03*
D57*
X-63881Y-50317D03*
D58*
X-49555Y-50317D03*
D26*
X-60985Y-50165D03*
X-41326Y-50165D03*
D59*
X-63957Y-50165D03*
D58*
X-49555Y-50165D03*
D26*
X-66929Y-50013D03*
X-60985Y-50013D03*
D59*
X-63957Y-50013D03*
D60*
X-49479Y-50013D03*
D26*
X-60985Y-49860D03*
D61*
X-64033Y-49860D03*
D62*
X-49403Y-49860D03*
D26*
X-67081Y-49708D03*
X-60985Y-49708D03*
D61*
X-64033Y-49708D03*
D62*
X-49403Y-49708D03*
D26*
X-60985Y-49555D03*
D63*
X-64110Y-49555D03*
D64*
X-49327Y-49555D03*
D26*
X-60985Y-49403D03*
X-40869Y-49403D03*
D65*
X-64186Y-49403D03*
D64*
X-49327Y-49403D03*
D26*
X-67386Y-49251D03*
X-60985Y-49251D03*
D65*
X-64186Y-49251D03*
D66*
X-49251Y-49251D03*
D26*
X-60985Y-49098D03*
X-40716Y-49098D03*
D67*
X-64262Y-49098D03*
D66*
X-49251Y-49098D03*
D26*
X-67539Y-48946D03*
X-60985Y-48946D03*
D67*
X-64262Y-48946D03*
D68*
X-49174Y-48946D03*
D26*
X-60985Y-48793D03*
D69*
X-64338Y-48793D03*
D70*
X-49098Y-48793D03*
D26*
X-67691Y-48641D03*
X-60985Y-48641D03*
D69*
X-64338Y-48641D03*
D70*
X-49098Y-48641D03*
D26*
X-60985Y-48489D03*
D71*
X-64414Y-48489D03*
D72*
X-49022Y-48489D03*
D26*
X-60985Y-48336D03*
X-40259Y-48336D03*
D73*
X-64491Y-48336D03*
D72*
X-49022Y-48336D03*
D26*
X-67996Y-48184D03*
X-60985Y-48184D03*
D73*
X-64491Y-48184D03*
D74*
X-48946Y-48184D03*
D26*
X-60985Y-48031D03*
X-57633Y-48031D03*
X-40107Y-48031D03*
D75*
X-64567Y-48031D03*
D72*
X-48870Y-48031D03*
D26*
X-68148Y-47879D03*
X-60985Y-47879D03*
X-57633Y-47879D03*
D75*
X-64567Y-47879D03*
D74*
X-48793Y-47879D03*
D26*
X-60985Y-47727D03*
X-57633Y-47727D03*
X-39954Y-47727D03*
D76*
X-64643Y-47727D03*
D74*
X-48793Y-47727D03*
D26*
X-60985Y-47574D03*
X-57633Y-47574D03*
D77*
X-64719Y-47574D03*
D78*
X-48717Y-47574D03*
D26*
X-60985Y-47422D03*
X-57633Y-47422D03*
D77*
X-64719Y-47422D03*
D79*
X-48641Y-47422D03*
D26*
X-60985Y-47269D03*
X-57633Y-47269D03*
X-39649Y-47269D03*
D80*
X-64795Y-47269D03*
D79*
X-48641Y-47269D03*
D26*
X-68605Y-47117D03*
X-60985Y-47117D03*
X-57633Y-47117D03*
D80*
X-64795Y-47117D03*
D81*
X-48565Y-47117D03*
D26*
X-60985Y-46965D03*
X-57633Y-46965D03*
D82*
X-49327Y-46965D03*
D26*
X-48336Y-46965D03*
X-39497Y-46965D03*
D83*
X-64872Y-46965D03*
D84*
X-53518Y-46965D03*
D85*
X-43917Y-46965D03*
D26*
X-68758Y-46812D03*
X-60985Y-46812D03*
X-57633Y-46812D03*
X-49708Y-46812D03*
X-48031Y-46812D03*
D83*
X-64872Y-46812D03*
D86*
X-53670Y-46812D03*
D87*
X-43688Y-46812D03*
D26*
X-60985Y-46660D03*
X-57633Y-46660D03*
X-49860Y-46660D03*
X-39345Y-46660D03*
D86*
X-64948Y-46660D03*
D83*
X-53746Y-46660D03*
D88*
X-43612Y-46660D03*
D26*
X-60985Y-46507D03*
X-57633Y-46507D03*
X-47574Y-46507D03*
X-39192Y-46507D03*
D89*
X-65024Y-46507D03*
D80*
X-53823Y-46507D03*
D90*
X-43383Y-46507D03*
D26*
X-69063Y-46355D03*
X-60985Y-46355D03*
X-57633Y-46355D03*
X-50165Y-46355D03*
D89*
X-65024Y-46355D03*
D77*
X-53899Y-46355D03*
D88*
X-43307Y-46355D03*
D26*
X-60985Y-46203D03*
X-57633Y-46203D03*
X-39040Y-46203D03*
D84*
X-65100Y-46203D03*
D77*
X-53899Y-46203D03*
D91*
X-43231Y-46203D03*
D26*
X-69215Y-46050D03*
X-60985Y-46050D03*
X-57633Y-46050D03*
D84*
X-65100Y-46050D03*
D76*
X-53975Y-46050D03*
D88*
X-43155Y-46050D03*
D26*
X-60985Y-45898D03*
X-57633Y-45898D03*
X-47269Y-45898D03*
X-38887Y-45898D03*
D91*
X-65176Y-45898D03*
D76*
X-53975Y-45898D03*
D91*
X-43078Y-45898D03*
D26*
X-69367Y-45745D03*
X-60985Y-45745D03*
X-57633Y-45745D03*
X-50470Y-45745D03*
D91*
X-65176Y-45745D03*
D75*
X-54051Y-45745D03*
D88*
X-43002Y-45745D03*
D26*
X-60985Y-45593D03*
X-57633Y-45593D03*
X-50470Y-45593D03*
X-38735Y-45593D03*
D88*
X-65253Y-45593D03*
D75*
X-54051Y-45593D03*
D88*
X-43002Y-45593D03*
D26*
X-60985Y-45441D03*
X-57633Y-45441D03*
X-50470Y-45441D03*
D87*
X-65329Y-45441D03*
D75*
X-54051Y-45441D03*
D87*
X-42926Y-45441D03*
D26*
X-69672Y-45288D03*
X-60985Y-45288D03*
X-57633Y-45288D03*
X-50470Y-45288D03*
X-38583Y-45288D03*
D87*
X-65329Y-45288D03*
D75*
X-54051Y-45288D03*
D87*
X-42926Y-45288D03*
D26*
X-60985Y-45136D03*
X-57633Y-45136D03*
X-50470Y-45136D03*
D92*
X-65405Y-45136D03*
D75*
X-54051Y-45136D03*
D85*
X-42850Y-45136D03*
D26*
X-69825Y-44983D03*
X-60985Y-44983D03*
X-57633Y-44983D03*
X-50470Y-44983D03*
D92*
X-65405Y-44983D03*
D75*
X-54051Y-44983D03*
D93*
X-42774Y-44983D03*
D26*
X-60985Y-44831D03*
X-57633Y-44831D03*
X-50470Y-44831D03*
X-38278Y-44831D03*
D93*
X-65481Y-44831D03*
D75*
X-54051Y-44831D03*
D93*
X-42774Y-44831D03*
D26*
X-69977Y-44679D03*
X-60985Y-44679D03*
X-57633Y-44679D03*
X-50470Y-44679D03*
D93*
X-65481Y-44679D03*
D75*
X-54051Y-44679D03*
D94*
X-42697Y-44679D03*
D26*
X-60985Y-44526D03*
X-57633Y-44526D03*
X-50470Y-44526D03*
X-38125Y-44526D03*
D94*
X-65557Y-44526D03*
D75*
X-54051Y-44526D03*
D94*
X-42697Y-44526D03*
D26*
X-60985Y-44374D03*
X-57633Y-44374D03*
X-50470Y-44374D03*
D95*
X-65634Y-44374D03*
D75*
X-54051Y-44374D03*
D95*
X-42621Y-44374D03*
D26*
X-70282Y-44221D03*
X-60985Y-44221D03*
X-57633Y-44221D03*
X-50470Y-44221D03*
X-47117Y-44221D03*
X-37973Y-44221D03*
D95*
X-65634Y-44221D03*
D75*
X-54051Y-44221D03*
D94*
X-42545Y-44221D03*
D26*
X-60985Y-44069D03*
X-57633Y-44069D03*
X-50470Y-44069D03*
X-47117Y-44069D03*
D96*
X-65710Y-44069D03*
D75*
X-54051Y-44069D03*
D95*
X-42469Y-44069D03*
D26*
X-70434Y-43917D03*
X-60985Y-43917D03*
X-57633Y-43917D03*
X-50470Y-43917D03*
X-47117Y-43917D03*
D96*
X-65710Y-43917D03*
D75*
X-54051Y-43917D03*
D96*
X-42393Y-43917D03*
D26*
X-60985Y-43764D03*
X-57633Y-43764D03*
X-50470Y-43764D03*
X-47117Y-43764D03*
X-37668Y-43764D03*
D97*
X-65786Y-43764D03*
D75*
X-54051Y-43764D03*
D96*
X-42393Y-43764D03*
D26*
X-70587Y-43612D03*
X-60985Y-43612D03*
X-57633Y-43612D03*
X-50470Y-43612D03*
X-47117Y-43612D03*
D97*
X-65786Y-43612D03*
D75*
X-54051Y-43612D03*
D97*
X-42316Y-43612D03*
D26*
X-60985Y-43459D03*
X-57633Y-43459D03*
X-50470Y-43459D03*
X-47117Y-43459D03*
X-37516Y-43459D03*
D98*
X-65862Y-43459D03*
D75*
X-54051Y-43459D03*
D97*
X-42316Y-43459D03*
D26*
X-60985Y-43307D03*
X-57633Y-43307D03*
X-50470Y-43307D03*
X-47117Y-43307D03*
D99*
X-65938Y-43307D03*
D75*
X-54051Y-43307D03*
D98*
X-42240Y-43307D03*
D26*
X-70891Y-43155D03*
X-60985Y-43155D03*
X-57633Y-43155D03*
X-47117Y-43155D03*
D99*
X-65938Y-43155D03*
D75*
X-54051Y-43155D03*
D99*
X-42164Y-43155D03*
D26*
X-60985Y-43002D03*
X-57633Y-43002D03*
X-47117Y-43002D03*
X-37211Y-43002D03*
D100*
X-66015Y-43002D03*
D75*
X-54051Y-43002D03*
D99*
X-42164Y-43002D03*
D26*
X-71044Y-42850D03*
X-60985Y-42850D03*
X-57633Y-42850D03*
X-47117Y-42850D03*
D100*
X-66015Y-42850D03*
D75*
X-54051Y-42850D03*
D100*
X-42088Y-42850D03*
D26*
X-60985Y-42697D03*
X-57633Y-42697D03*
X-47117Y-42697D03*
X-37059Y-42697D03*
D101*
X-66091Y-42697D03*
D75*
X-54051Y-42697D03*
D100*
X-42088Y-42697D03*
D26*
X-71196Y-42545D03*
X-60985Y-42545D03*
X-57633Y-42545D03*
X-47117Y-42545D03*
D101*
X-66091Y-42545D03*
D75*
X-54051Y-42545D03*
D101*
X-42012Y-42545D03*
D26*
X-60985Y-42393D03*
X-57633Y-42393D03*
X-47117Y-42393D03*
X-36906Y-42393D03*
D102*
X-66167Y-42393D03*
D75*
X-54051Y-42393D03*
D101*
X-42012Y-42393D03*
D26*
X-60985Y-42240D03*
X-57633Y-42240D03*
X-47117Y-42240D03*
D103*
X-66243Y-42240D03*
D75*
X-54051Y-42240D03*
D102*
X-41935Y-42240D03*
D26*
X-71501Y-42088D03*
X-60985Y-42088D03*
X-57633Y-42088D03*
X-47117Y-42088D03*
D103*
X-66243Y-42088D03*
D75*
X-54051Y-42088D03*
D103*
X-41859Y-42088D03*
D26*
X-60985Y-41935D03*
X-57633Y-41935D03*
X-47117Y-41935D03*
X-36601Y-41935D03*
D104*
X-66319Y-41935D03*
D75*
X-54051Y-41935D03*
D103*
X-41859Y-41935D03*
D26*
X-71653Y-41783D03*
X-60985Y-41783D03*
X-57633Y-41783D03*
X-47117Y-41783D03*
D104*
X-66319Y-41783D03*
D75*
X-54051Y-41783D03*
D104*
X-41783Y-41783D03*
D26*
X-60985Y-41631D03*
X-57633Y-41631D03*
X-47117Y-41631D03*
X-36449Y-41631D03*
D105*
X-66396Y-41631D03*
D75*
X-54051Y-41631D03*
D104*
X-41783Y-41631D03*
D26*
X-71806Y-41478D03*
X-60985Y-41478D03*
X-57633Y-41478D03*
X-47117Y-41478D03*
D105*
X-66396Y-41478D03*
D75*
X-54051Y-41478D03*
D105*
X-41707Y-41478D03*
D26*
X-60985Y-41326D03*
X-57633Y-41326D03*
X-47117Y-41326D03*
X-36297Y-41326D03*
D106*
X-66472Y-41326D03*
D75*
X-54051Y-41326D03*
D105*
X-41707Y-41326D03*
D26*
X-60985Y-41173D03*
X-57633Y-41173D03*
X-47117Y-41173D03*
D107*
X-66548Y-41173D03*
D75*
X-54051Y-41173D03*
D106*
X-41631Y-41173D03*
D26*
X-72111Y-41021D03*
X-60985Y-41021D03*
X-57633Y-41021D03*
X-47117Y-41021D03*
D107*
X-66548Y-41021D03*
D75*
X-54051Y-41021D03*
D107*
X-41554Y-41021D03*
D26*
X-60985Y-40869D03*
X-57633Y-40869D03*
X-47117Y-40869D03*
X-35992Y-40869D03*
D108*
X-66624Y-40869D03*
D75*
X-54051Y-40869D03*
D107*
X-41554Y-40869D03*
D26*
X-72263Y-40716D03*
X-60985Y-40716D03*
X-57633Y-40716D03*
X-47117Y-40716D03*
D108*
X-66624Y-40716D03*
D75*
X-54051Y-40716D03*
D108*
X-41478Y-40716D03*
D26*
X-60985Y-40564D03*
X-57633Y-40564D03*
X-47117Y-40564D03*
X-35839Y-40564D03*
D109*
X-66700Y-40564D03*
D75*
X-54051Y-40564D03*
D108*
X-41478Y-40564D03*
D26*
X-60985Y-40411D03*
X-57633Y-40411D03*
X-47117Y-40411D03*
D110*
X-66777Y-40411D03*
D75*
X-54051Y-40411D03*
D109*
X-41402Y-40411D03*
D26*
X-72568Y-40259D03*
X-60985Y-40259D03*
X-57633Y-40259D03*
X-47117Y-40259D03*
X-35687Y-40259D03*
D110*
X-66777Y-40259D03*
D75*
X-54051Y-40259D03*
D109*
X-41402Y-40259D03*
D26*
X-60985Y-40107D03*
X-57633Y-40107D03*
X-47117Y-40107D03*
X-35535Y-40107D03*
D111*
X-66853Y-40107D03*
D75*
X-54051Y-40107D03*
D110*
X-41326Y-40107D03*
D26*
X-72720Y-39954D03*
X-60985Y-39954D03*
X-57633Y-39954D03*
X-47117Y-39954D03*
D111*
X-66853Y-39954D03*
D75*
X-54051Y-39954D03*
D111*
X-41250Y-39954D03*
D26*
X-60985Y-39802D03*
X-57633Y-39802D03*
X-47117Y-39802D03*
X-35382Y-39802D03*
D112*
X-66929Y-39802D03*
D75*
X-54051Y-39802D03*
D111*
X-41250Y-39802D03*
D26*
X-72873Y-39649D03*
X-60985Y-39649D03*
X-57633Y-39649D03*
X-47117Y-39649D03*
D112*
X-66929Y-39649D03*
D75*
X-54051Y-39649D03*
D112*
X-41173Y-39649D03*
D26*
X-60985Y-39497D03*
X-57633Y-39497D03*
X-47117Y-39497D03*
X-35230Y-39497D03*
D113*
X-67005Y-39497D03*
D75*
X-54051Y-39497D03*
D112*
X-41173Y-39497D03*
D26*
X-60985Y-39345D03*
X-57633Y-39345D03*
X-47117Y-39345D03*
D114*
X-67081Y-39345D03*
D75*
X-54051Y-39345D03*
D113*
X-41097Y-39345D03*
D26*
X-73177Y-39192D03*
X-60985Y-39192D03*
X-57633Y-39192D03*
X-47117Y-39192D03*
D114*
X-67081Y-39192D03*
D75*
X-54051Y-39192D03*
D114*
X-41021Y-39192D03*
D26*
X-60985Y-39040D03*
X-57633Y-39040D03*
X-47117Y-39040D03*
X-34925Y-39040D03*
D115*
X-67158Y-39040D03*
D75*
X-54051Y-39040D03*
D114*
X-41021Y-39040D03*
D26*
X-73330Y-38887D03*
X-60985Y-38887D03*
X-57633Y-38887D03*
X-47117Y-38887D03*
D115*
X-67158Y-38887D03*
D75*
X-54051Y-38887D03*
D115*
X-40945Y-38887D03*
D26*
X-60985Y-38735D03*
X-57633Y-38735D03*
X-47117Y-38735D03*
X-34773Y-38735D03*
D116*
X-67234Y-38735D03*
D75*
X-54051Y-38735D03*
D115*
X-40945Y-38735D03*
D26*
X-73482Y-38583D03*
X-60985Y-38583D03*
X-57633Y-38583D03*
X-47117Y-38583D03*
D116*
X-67234Y-38583D03*
D75*
X-54051Y-38583D03*
D116*
X-40869Y-38583D03*
D26*
X-60985Y-38430D03*
X-57633Y-38430D03*
X-47117Y-38430D03*
X-34620Y-38430D03*
D117*
X-67310Y-38430D03*
D75*
X-54051Y-38430D03*
D116*
X-40869Y-38430D03*
D26*
X-60985Y-38278D03*
X-57633Y-38278D03*
X-47117Y-38278D03*
D118*
X-67386Y-38278D03*
D75*
X-54051Y-38278D03*
D117*
X-40792Y-38278D03*
D26*
X-73787Y-38125D03*
X-60985Y-38125D03*
X-57633Y-38125D03*
X-47117Y-38125D03*
D118*
X-67386Y-38125D03*
D75*
X-54051Y-38125D03*
D118*
X-40716Y-38125D03*
D26*
X-57633Y-37973D03*
X-47117Y-37973D03*
X-34315Y-37973D03*
D119*
X-67462Y-37973D03*
D75*
X-54051Y-37973D03*
D118*
X-40716Y-37973D03*
D26*
X-73939Y-37821D03*
X-57633Y-37821D03*
X-47117Y-37821D03*
D119*
X-67462Y-37821D03*
D75*
X-54051Y-37821D03*
D119*
X-40640Y-37821D03*
D26*
X-57633Y-37668D03*
X-47117Y-37668D03*
X-34163Y-37668D03*
D120*
X-67539Y-37668D03*
D75*
X-54051Y-37668D03*
D119*
X-40640Y-37668D03*
D26*
X-74092Y-37516D03*
X-57633Y-37516D03*
X-47117Y-37516D03*
D120*
X-67539Y-37516D03*
D75*
X-54051Y-37516D03*
D120*
X-40564Y-37516D03*
D26*
X-57633Y-37363D03*
X-47117Y-37363D03*
X-34011Y-37363D03*
D25*
X-67615Y-37363D03*
D75*
X-54051Y-37363D03*
D120*
X-40564Y-37363D03*
D26*
X-57480Y-37211D03*
X-50622Y-37211D03*
X-47117Y-37211D03*
X-33858Y-37211D03*
D121*
X-67691Y-37211D03*
D122*
X-54051Y-37211D03*
D25*
X-40488Y-37211D03*
D26*
X-74397Y-37059D03*
X-47117Y-37059D03*
D121*
X-67691Y-37059D03*
X-40411Y-37059D03*
D26*
X-47117Y-36906D03*
X-33706Y-36906D03*
D123*
X-67767Y-36906D03*
D121*
X-40411Y-36906D03*
D26*
X-74549Y-36754D03*
X-47117Y-36754D03*
D123*
X-67767Y-36754D03*
X-40335Y-36754D03*
D26*
X-47117Y-36601D03*
X-33553Y-36601D03*
D28*
X-67843Y-36601D03*
D123*
X-40335Y-36601D03*
D26*
X-74701Y-36449D03*
X-47117Y-36449D03*
D28*
X-67843Y-36449D03*
X-40259Y-36449D03*
D26*
X-47117Y-36297D03*
X-33401Y-36297D03*
D124*
X-67920Y-36297D03*
D28*
X-40259Y-36297D03*
D26*
X-74854Y-36144D03*
X-47117Y-36144D03*
D124*
X-67920Y-36144D03*
X-40183Y-36144D03*
D26*
X-74854Y-35992D03*
X-47117Y-35992D03*
D124*
X-67920Y-35992D03*
X-40183Y-35992D03*
D26*
X-47117Y-35839D03*
D125*
X-67996Y-35839D03*
D124*
X-40183Y-35839D03*
D26*
X-47117Y-35687D03*
X-33249Y-35687D03*
D125*
X-67996Y-35687D03*
D124*
X-40183Y-35687D03*
D26*
X-47117Y-35535D03*
X-33249Y-35535D03*
D125*
X-67996Y-35535D03*
D124*
X-40183Y-35535D03*
D26*
X-47117Y-35382D03*
X-33249Y-35382D03*
D125*
X-67996Y-35382D03*
D124*
X-40183Y-35382D03*
D26*
X-47117Y-35230D03*
X-33249Y-35230D03*
D125*
X-67996Y-35230D03*
D124*
X-40183Y-35230D03*
D26*
X-47117Y-35077D03*
X-33249Y-35077D03*
D125*
X-67996Y-35077D03*
D124*
X-40183Y-35077D03*
D26*
X-47117Y-34925D03*
D125*
X-67996Y-34925D03*
D124*
X-40183Y-34925D03*
D26*
X-74854Y-34773D03*
X-47117Y-34773D03*
D124*
X-67920Y-34773D03*
X-40183Y-34773D03*
D26*
X-47117Y-34620D03*
X-33401Y-34620D03*
D124*
X-67920Y-34620D03*
D28*
X-40259Y-34620D03*
D26*
X-47117Y-34468D03*
X-33401Y-34468D03*
D124*
X-67920Y-34468D03*
D28*
X-40259Y-34468D03*
D26*
X-74701Y-34315D03*
X-47117Y-34315D03*
D28*
X-67843Y-34315D03*
X-40259Y-34315D03*
D26*
X-47117Y-34163D03*
X-33553Y-34163D03*
D28*
X-67843Y-34163D03*
D123*
X-40335Y-34163D03*
D26*
X-74549Y-34011D03*
X-47117Y-34011D03*
D123*
X-67767Y-34011D03*
X-40335Y-34011D03*
D26*
X-47117Y-33858D03*
D123*
X-67767Y-33858D03*
D121*
X-40411Y-33858D03*
D26*
X-47117Y-33706D03*
X-33858Y-33706D03*
D121*
X-67691Y-33706D03*
D25*
X-40488Y-33706D03*
D26*
X-74244Y-33553D03*
X-47117Y-33553D03*
D25*
X-67615Y-33553D03*
D75*
X-54051Y-33553D03*
D25*
X-40488Y-33553D03*
D26*
X-57633Y-33401D03*
X-47117Y-33401D03*
X-34011Y-33401D03*
D25*
X-67615Y-33401D03*
D75*
X-54051Y-33401D03*
D120*
X-40564Y-33401D03*
D26*
X-74092Y-33249D03*
X-57633Y-33249D03*
X-47117Y-33249D03*
D120*
X-67539Y-33249D03*
D75*
X-54051Y-33249D03*
D120*
X-40564Y-33249D03*
D26*
X-57633Y-33096D03*
X-47117Y-33096D03*
X-34163Y-33096D03*
D120*
X-67539Y-33096D03*
D75*
X-54051Y-33096D03*
D119*
X-40640Y-33096D03*
D26*
X-73939Y-32944D03*
X-57633Y-32944D03*
X-47117Y-32944D03*
X-34315Y-32944D03*
D119*
X-67462Y-32944D03*
D75*
X-54051Y-32944D03*
D118*
X-40716Y-32944D03*
D26*
X-73787Y-32791D03*
X-57633Y-32791D03*
X-47117Y-32791D03*
D118*
X-67386Y-32791D03*
D75*
X-54051Y-32791D03*
D118*
X-40716Y-32791D03*
D26*
X-57633Y-32639D03*
X-47117Y-32639D03*
X-34468Y-32639D03*
D118*
X-67386Y-32639D03*
D75*
X-54051Y-32639D03*
D117*
X-40792Y-32639D03*
D26*
X-73635Y-32487D03*
X-57633Y-32487D03*
X-47117Y-32487D03*
D117*
X-67310Y-32487D03*
D75*
X-54051Y-32487D03*
D117*
X-40792Y-32487D03*
D26*
X-57633Y-32334D03*
X-47117Y-32334D03*
X-34620Y-32334D03*
D117*
X-67310Y-32334D03*
D75*
X-54051Y-32334D03*
D116*
X-40869Y-32334D03*
D26*
X-73482Y-32182D03*
X-57633Y-32182D03*
X-47117Y-32182D03*
D116*
X-67234Y-32182D03*
D75*
X-54051Y-32182D03*
D116*
X-40869Y-32182D03*
D26*
X-57633Y-32029D03*
X-47117Y-32029D03*
X-34773Y-32029D03*
D116*
X-67234Y-32029D03*
D75*
X-54051Y-32029D03*
D115*
X-40945Y-32029D03*
D26*
X-57633Y-31877D03*
X-47117Y-31877D03*
X-34925Y-31877D03*
D115*
X-67158Y-31877D03*
D75*
X-54051Y-31877D03*
D114*
X-41021Y-31877D03*
D26*
X-73177Y-31725D03*
X-57633Y-31725D03*
X-47117Y-31725D03*
D114*
X-67081Y-31725D03*
D75*
X-54051Y-31725D03*
D114*
X-41021Y-31725D03*
D26*
X-57633Y-31572D03*
X-47117Y-31572D03*
X-35077Y-31572D03*
D114*
X-67081Y-31572D03*
D75*
X-54051Y-31572D03*
D113*
X-41097Y-31572D03*
D26*
X-73025Y-31420D03*
X-57633Y-31420D03*
X-47117Y-31420D03*
D113*
X-67005Y-31420D03*
D75*
X-54051Y-31420D03*
D113*
X-41097Y-31420D03*
D26*
X-57633Y-31267D03*
X-47117Y-31267D03*
X-35230Y-31267D03*
D113*
X-67005Y-31267D03*
D75*
X-54051Y-31267D03*
D112*
X-41173Y-31267D03*
D26*
X-72873Y-31115D03*
X-57633Y-31115D03*
X-47117Y-31115D03*
D112*
X-66929Y-31115D03*
D75*
X-54051Y-31115D03*
D112*
X-41173Y-31115D03*
D26*
X-57633Y-30963D03*
X-47117Y-30963D03*
D112*
X-66929Y-30963D03*
D75*
X-54051Y-30963D03*
D111*
X-41250Y-30963D03*
D26*
X-57633Y-30810D03*
X-47117Y-30810D03*
X-35535Y-30810D03*
D111*
X-66853Y-30810D03*
D75*
X-54051Y-30810D03*
D110*
X-41326Y-30810D03*
D26*
X-72568Y-30658D03*
X-57633Y-30658D03*
X-47117Y-30658D03*
D110*
X-66777Y-30658D03*
D75*
X-54051Y-30658D03*
D110*
X-41326Y-30658D03*
D26*
X-57633Y-30505D03*
X-47117Y-30505D03*
X-35687Y-30505D03*
D110*
X-66777Y-30505D03*
D75*
X-54051Y-30505D03*
D109*
X-41402Y-30505D03*
D26*
X-72415Y-30353D03*
X-57633Y-30353D03*
X-47117Y-30353D03*
D109*
X-66700Y-30353D03*
D75*
X-54051Y-30353D03*
D109*
X-41402Y-30353D03*
D26*
X-57633Y-30201D03*
X-47117Y-30201D03*
X-35839Y-30201D03*
D109*
X-66700Y-30201D03*
D75*
X-54051Y-30201D03*
D108*
X-41478Y-30201D03*
D26*
X-72263Y-30048D03*
X-57633Y-30048D03*
X-47117Y-30048D03*
D108*
X-66624Y-30048D03*
D75*
X-54051Y-30048D03*
D108*
X-41478Y-30048D03*
D26*
X-57633Y-29896D03*
X-47117Y-29896D03*
D108*
X-66624Y-29896D03*
D75*
X-54051Y-29896D03*
D107*
X-41554Y-29896D03*
D26*
X-57633Y-29743D03*
X-47117Y-29743D03*
X-36144Y-29743D03*
D107*
X-66548Y-29743D03*
D75*
X-54051Y-29743D03*
D106*
X-41631Y-29743D03*
D26*
X-71958Y-29591D03*
X-57633Y-29591D03*
X-47117Y-29591D03*
D106*
X-66472Y-29591D03*
D75*
X-54051Y-29591D03*
D106*
X-41631Y-29591D03*
D26*
X-57633Y-29439D03*
X-47117Y-29439D03*
X-36297Y-29439D03*
D106*
X-66472Y-29439D03*
D75*
X-54051Y-29439D03*
D105*
X-41707Y-29439D03*
D26*
X-57633Y-29286D03*
X-47117Y-29286D03*
D105*
X-66396Y-29286D03*
D75*
X-54051Y-29286D03*
D105*
X-41707Y-29286D03*
D26*
X-71653Y-29134D03*
X-57633Y-29134D03*
X-47117Y-29134D03*
X-36449Y-29134D03*
D104*
X-66319Y-29134D03*
D75*
X-54051Y-29134D03*
D104*
X-41783Y-29134D03*
D26*
X-57633Y-28981D03*
X-47117Y-28981D03*
X-36601Y-28981D03*
D104*
X-66319Y-28981D03*
D75*
X-54051Y-28981D03*
D103*
X-41859Y-28981D03*
D26*
X-71501Y-28829D03*
X-57633Y-28829D03*
X-47117Y-28829D03*
D103*
X-66243Y-28829D03*
D75*
X-54051Y-28829D03*
D103*
X-41859Y-28829D03*
D26*
X-57633Y-28677D03*
X-47117Y-28677D03*
X-36754Y-28677D03*
D103*
X-66243Y-28677D03*
D75*
X-54051Y-28677D03*
D102*
X-41935Y-28677D03*
D26*
X-71349Y-28524D03*
X-60985Y-28524D03*
X-57633Y-28524D03*
X-47117Y-28524D03*
D102*
X-66167Y-28524D03*
D75*
X-54051Y-28524D03*
D102*
X-41935Y-28524D03*
D26*
X-71196Y-28372D03*
X-60985Y-28372D03*
X-57633Y-28372D03*
X-47117Y-28372D03*
X-36906Y-28372D03*
D101*
X-66091Y-28372D03*
D75*
X-54051Y-28372D03*
D101*
X-42012Y-28372D03*
D26*
X-60985Y-28219D03*
X-57633Y-28219D03*
X-47117Y-28219D03*
D101*
X-66091Y-28219D03*
D75*
X-54051Y-28219D03*
D101*
X-42012Y-28219D03*
D26*
X-71044Y-28067D03*
X-60985Y-28067D03*
X-57633Y-28067D03*
X-47117Y-28067D03*
X-37059Y-28067D03*
D100*
X-66015Y-28067D03*
D75*
X-54051Y-28067D03*
D100*
X-42088Y-28067D03*
D26*
X-60985Y-27915D03*
X-57633Y-27915D03*
X-47117Y-27915D03*
X-37211Y-27915D03*
D100*
X-66015Y-27915D03*
D75*
X-54051Y-27915D03*
D99*
X-42164Y-27915D03*
D26*
X-70891Y-27762D03*
X-60985Y-27762D03*
X-57633Y-27762D03*
X-47117Y-27762D03*
D99*
X-65938Y-27762D03*
D75*
X-54051Y-27762D03*
D99*
X-42164Y-27762D03*
D26*
X-60985Y-27610D03*
X-57633Y-27610D03*
X-47117Y-27610D03*
X-37363Y-27610D03*
D99*
X-65938Y-27610D03*
D75*
X-54051Y-27610D03*
D98*
X-42240Y-27610D03*
D26*
X-70739Y-27457D03*
X-60985Y-27457D03*
X-57633Y-27457D03*
X-47117Y-27457D03*
D98*
X-65862Y-27457D03*
D75*
X-54051Y-27457D03*
D98*
X-42240Y-27457D03*
D26*
X-70587Y-27305D03*
X-60985Y-27305D03*
X-57633Y-27305D03*
X-47117Y-27305D03*
X-37516Y-27305D03*
D97*
X-65786Y-27305D03*
D75*
X-54051Y-27305D03*
D97*
X-42316Y-27305D03*
D26*
X-60985Y-27153D03*
X-57633Y-27153D03*
X-47117Y-27153D03*
D97*
X-65786Y-27153D03*
D75*
X-54051Y-27153D03*
D97*
X-42316Y-27153D03*
D26*
X-70434Y-27000D03*
X-60985Y-27000D03*
X-57633Y-27000D03*
X-47117Y-27000D03*
D96*
X-65710Y-27000D03*
D75*
X-54051Y-27000D03*
D96*
X-42393Y-27000D03*
D26*
X-60985Y-26848D03*
X-57633Y-26848D03*
X-47117Y-26848D03*
X-37821Y-26848D03*
D96*
X-65710Y-26848D03*
D75*
X-54051Y-26848D03*
D95*
X-42469Y-26848D03*
D26*
X-70282Y-26695D03*
X-60985Y-26695D03*
X-57633Y-26695D03*
X-47117Y-26695D03*
D95*
X-65634Y-26695D03*
D75*
X-54051Y-26695D03*
D95*
X-42469Y-26695D03*
D26*
X-60985Y-26543D03*
X-57633Y-26543D03*
X-47117Y-26543D03*
X-37973Y-26543D03*
D95*
X-65634Y-26543D03*
D75*
X-54051Y-26543D03*
D94*
X-42545Y-26543D03*
D26*
X-70129Y-26391D03*
X-60985Y-26391D03*
X-57633Y-26391D03*
X-47117Y-26391D03*
D94*
X-65557Y-26391D03*
D75*
X-54051Y-26391D03*
D94*
X-42545Y-26391D03*
D26*
X-69977Y-26238D03*
X-60985Y-26238D03*
X-57633Y-26238D03*
X-47117Y-26238D03*
X-38125Y-26238D03*
D93*
X-65481Y-26238D03*
D75*
X-54051Y-26238D03*
D93*
X-42621Y-26238D03*
D26*
X-60985Y-26086D03*
X-57633Y-26086D03*
X-47117Y-26086D03*
X-38278Y-26086D03*
D93*
X-65481Y-26086D03*
D75*
X-54051Y-26086D03*
D92*
X-42697Y-26086D03*
D26*
X-69825Y-25933D03*
X-60985Y-25933D03*
X-57633Y-25933D03*
X-47117Y-25933D03*
D92*
X-65405Y-25933D03*
D75*
X-54051Y-25933D03*
D92*
X-42697Y-25933D03*
D26*
X-60985Y-25781D03*
X-57633Y-25781D03*
X-47117Y-25781D03*
X-38430Y-25781D03*
D92*
X-65405Y-25781D03*
D75*
X-54051Y-25781D03*
D87*
X-42774Y-25781D03*
D26*
X-69672Y-25629D03*
X-60985Y-25629D03*
X-57633Y-25629D03*
X-47117Y-25629D03*
D87*
X-65329Y-25629D03*
D75*
X-54051Y-25629D03*
D87*
X-42774Y-25629D03*
D26*
X-60985Y-25476D03*
X-57633Y-25476D03*
X-47117Y-25476D03*
X-38583Y-25476D03*
D87*
X-65329Y-25476D03*
D75*
X-54051Y-25476D03*
D88*
X-42850Y-25476D03*
D26*
X-60985Y-25324D03*
X-57633Y-25324D03*
X-47117Y-25324D03*
D88*
X-65253Y-25324D03*
D75*
X-54051Y-25324D03*
D88*
X-42850Y-25324D03*
D26*
X-69367Y-25171D03*
X-60985Y-25171D03*
X-57633Y-25171D03*
X-47117Y-25171D03*
X-38735Y-25171D03*
D91*
X-65176Y-25171D03*
D75*
X-54051Y-25171D03*
D91*
X-42926Y-25171D03*
D26*
X-60985Y-25019D03*
X-47117Y-25019D03*
X-38887Y-25019D03*
D91*
X-65176Y-25019D03*
D76*
X-54127Y-25019D03*
D84*
X-43002Y-25019D03*
D26*
X-69215Y-24867D03*
X-47117Y-24867D03*
D91*
X-65024Y-24867D03*
D76*
X-54127Y-24867D03*
D84*
X-43002Y-24867D03*
D26*
X-60833Y-24714D03*
X-57785Y-24714D03*
X-47117Y-24714D03*
X-39040Y-24714D03*
D91*
X-65024Y-24714D03*
D76*
X-54127Y-24714D03*
D89*
X-43078Y-24714D03*
D26*
X-69063Y-24562D03*
X-47117Y-24562D03*
D91*
X-64872Y-24562D03*
D77*
X-54204Y-24562D03*
D89*
X-43078Y-24562D03*
D26*
X-68910Y-24409D03*
X-60681Y-24409D03*
X-47117Y-24409D03*
X-39192Y-24409D03*
D84*
X-64795Y-24409D03*
D80*
X-54280Y-24409D03*
D86*
X-43155Y-24409D03*
D26*
X-60528Y-24257D03*
X-58090Y-24257D03*
X-47117Y-24257D03*
D90*
X-64719Y-24257D03*
D80*
X-54280Y-24257D03*
D86*
X-43155Y-24257D03*
D26*
X-68758Y-24105D03*
X-60376Y-24105D03*
X-58242Y-24105D03*
X-47117Y-24105D03*
X-39345Y-24105D03*
D91*
X-64567Y-24105D03*
D83*
X-54356Y-24105D03*
X-43231Y-24105D03*
D26*
X-60071Y-23952D03*
X-58547Y-23952D03*
X-47117Y-23952D03*
X-39497Y-23952D03*
D87*
X-64414Y-23952D03*
D89*
X-54508Y-23952D03*
D80*
X-43307Y-23952D03*
D26*
X-68605Y-23800D03*
D126*
X-59614Y-23800D03*
X-59004Y-23800D03*
D26*
X-47117Y-23800D03*
D85*
X-64186Y-23800D03*
D91*
X-54661Y-23800D03*
D80*
X-43307Y-23800D03*
D26*
X-47117Y-23647D03*
X-39649Y-23647D03*
D81*
X-59538Y-23647D03*
D77*
X-43383Y-23647D03*
D26*
X-68453Y-23495D03*
X-47117Y-23495D03*
D79*
X-59461Y-23495D03*
D77*
X-43383Y-23495D03*
D26*
X-68301Y-23343D03*
X-47117Y-23343D03*
X-39802Y-23343D03*
D78*
X-59385Y-23343D03*
D76*
X-43459Y-23343D03*
D26*
X-47117Y-23190D03*
D78*
X-59385Y-23190D03*
D76*
X-43459Y-23190D03*
D26*
X-68148Y-23038D03*
X-47117Y-23038D03*
D74*
X-59309Y-23038D03*
D75*
X-43536Y-23038D03*
D26*
X-47117Y-22885D03*
X-40107Y-22885D03*
D74*
X-59309Y-22885D03*
D73*
X-43612Y-22885D03*
D26*
X-67996Y-22733D03*
X-47117Y-22733D03*
D72*
X-59233Y-22733D03*
D73*
X-43612Y-22733D03*
D26*
X-47117Y-22581D03*
X-40259Y-22581D03*
D72*
X-59233Y-22581D03*
D71*
X-43688Y-22581D03*
D26*
X-67843Y-22428D03*
X-47117Y-22428D03*
D70*
X-59157Y-22428D03*
D71*
X-43688Y-22428D03*
D26*
X-67691Y-22276D03*
X-47117Y-22276D03*
X-40411Y-22276D03*
D68*
X-59080Y-22276D03*
D69*
X-43764Y-22276D03*
D26*
X-47117Y-22123D03*
X-40564Y-22123D03*
D68*
X-59080Y-22123D03*
D67*
X-43840Y-22123D03*
D26*
X-67539Y-21971D03*
X-47117Y-21971D03*
D66*
X-59004Y-21971D03*
D67*
X-43840Y-21971D03*
D26*
X-47117Y-21819D03*
X-40716Y-21819D03*
D66*
X-59004Y-21819D03*
D65*
X-43917Y-21819D03*
D26*
X-67386Y-21666D03*
X-47117Y-21666D03*
D64*
X-58928Y-21666D03*
D65*
X-43917Y-21666D03*
D26*
X-67234Y-21514D03*
X-47117Y-21514D03*
X-40869Y-21514D03*
D62*
X-58852Y-21514D03*
D63*
X-43993Y-21514D03*
D26*
X-47117Y-21361D03*
D62*
X-58852Y-21361D03*
D63*
X-43993Y-21361D03*
D26*
X-67081Y-21209D03*
X-47117Y-21209D03*
X-41021Y-21209D03*
D60*
X-58776Y-21209D03*
D61*
X-44069Y-21209D03*
D26*
X-47117Y-21057D03*
X-41173Y-21057D03*
D60*
X-58776Y-21057D03*
D59*
X-44145Y-21057D03*
D26*
X-66929Y-20904D03*
X-47117Y-20904D03*
D58*
X-58699Y-20904D03*
D59*
X-44145Y-20904D03*
D26*
X-47117Y-20752D03*
X-41326Y-20752D03*
D58*
X-58699Y-20752D03*
D57*
X-44221Y-20752D03*
D26*
X-66777Y-20599D03*
X-47117Y-20599D03*
D56*
X-58623Y-20599D03*
D57*
X-44221Y-20599D03*
D26*
X-66624Y-20447D03*
X-47117Y-20447D03*
X-41478Y-20447D03*
D54*
X-58547Y-20447D03*
D55*
X-44298Y-20447D03*
D26*
X-47117Y-20295D03*
D54*
X-58547Y-20295D03*
D55*
X-44298Y-20295D03*
D26*
X-66472Y-20142D03*
X-47117Y-20142D03*
X-41631Y-20142D03*
D52*
X-58471Y-20142D03*
D53*
X-44374Y-20142D03*
D26*
X-47117Y-19990D03*
X-41783Y-19990D03*
D52*
X-58471Y-19990D03*
D51*
X-44450Y-19990D03*
D26*
X-66319Y-19837D03*
X-47117Y-19837D03*
D50*
X-58395Y-19837D03*
D51*
X-44450Y-19837D03*
D26*
X-47117Y-19685D03*
X-41935Y-19685D03*
D50*
X-58395Y-19685D03*
D49*
X-44526Y-19685D03*
D26*
X-66167Y-19533D03*
X-47117Y-19533D03*
D48*
X-58318Y-19533D03*
D49*
X-44526Y-19533D03*
D26*
X-66015Y-19380D03*
X-47117Y-19380D03*
X-42088Y-19380D03*
D46*
X-58242Y-19380D03*
D47*
X-44602Y-19380D03*
D26*
X-47117Y-19228D03*
X-42240Y-19228D03*
D46*
X-58242Y-19228D03*
D45*
X-44679Y-19228D03*
D26*
X-65862Y-19075D03*
X-47117Y-19075D03*
D44*
X-58166Y-19075D03*
D45*
X-44679Y-19075D03*
D26*
X-47117Y-18923D03*
X-42393Y-18923D03*
D44*
X-58166Y-18923D03*
D43*
X-44755Y-18923D03*
D82*
X-65481Y-18771D03*
D26*
X-65710Y-18771D03*
X-47117Y-18771D03*
D38*
X-57937Y-18771D03*
D43*
X-44755Y-18771D03*
D127*
X-65176Y-18618D03*
D26*
X-47117Y-18618D03*
X-42545Y-18618D03*
X-65557Y-18618D03*
D128*
X-57709Y-18618D03*
D41*
X-44831Y-18618D03*
D129*
X-64948Y-18466D03*
D26*
X-65557Y-18466D03*
X-47117Y-18466D03*
D125*
X-57480Y-18466D03*
D41*
X-44831Y-18466D03*
D130*
X-64719Y-18313D03*
D26*
X-65405Y-18313D03*
X-47117Y-18313D03*
X-42697Y-18313D03*
D28*
X-57328Y-18313D03*
D39*
X-44907Y-18313D03*
D131*
X-64414Y-18161D03*
D26*
X-47117Y-18161D03*
X-42850Y-18161D03*
X-65253Y-18161D03*
D25*
X-57099Y-18161D03*
D37*
X-44983Y-18161D03*
D132*
X-64262Y-18009D03*
D133*
X-46888Y-18009D03*
D26*
X-65253Y-18009D03*
X-47117Y-18009D03*
D119*
X-56947Y-18009D03*
D33*
X-44831Y-18009D03*
D134*
X-63957Y-17856D03*
D135*
X-46660Y-17856D03*
D26*
X-65100Y-17856D03*
X-47117Y-17856D03*
D116*
X-56718Y-17856D03*
D136*
X-44679Y-17856D03*
D137*
X-63652Y-17704D03*
D138*
X-46507Y-17704D03*
D26*
X-64948Y-17704D03*
X-47117Y-17704D03*
D113*
X-56490Y-17704D03*
D139*
X-44602Y-17704D03*
D140*
X-63424Y-17551D03*
D131*
X-46279Y-17551D03*
D26*
X-64795Y-17551D03*
X-47117Y-17551D03*
X-43459Y-17551D03*
D111*
X-56337Y-17551D03*
D141*
X-44526Y-17551D03*
D139*
X-63043Y-17399D03*
D132*
X-46126Y-17399D03*
D26*
X-64491Y-17399D03*
X-47117Y-17399D03*
X-43612Y-17399D03*
D108*
X-56109Y-17399D03*
D131*
X-44450Y-17399D03*
D139*
X-62738Y-17247D03*
D142*
X-45898Y-17247D03*
D26*
X-64186Y-17247D03*
X-47117Y-17247D03*
X-43917Y-17247D03*
D106*
X-55956Y-17247D03*
D135*
X-44374Y-17247D03*
D137*
X-62128Y-17094D03*
D142*
X-45898Y-17094D03*
D126*
X-63729Y-17094D03*
D26*
X-47117Y-17094D03*
D133*
X-44450Y-17094D03*
D26*
X-63424Y-17094D03*
D103*
X-55728Y-17094D03*
D26*
X-44679Y-17094D03*
M02*
