G04 EAGLE Gerber RS-274X export*
G75*
%MOMM*%
%FSLAX34Y34*%
%LPD*%
%INSolderpaste Top*%
%IPPOS*%
%AMOC8*
5,1,8,0,0,1.08239X$1,22.5*%
G01*
%ADD10R,0.900000X0.700000*%
%ADD11R,1.000000X1.100000*%
%ADD12R,0.800000X0.800000*%
%ADD13R,0.200000X0.100000*%
%ADD14R,0.515000X0.500000*%
%ADD15R,0.500000X0.535000*%
%ADD16R,1.200000X2.316000*%
%ADD17R,0.700000X0.900000*%
%ADD18C,0.208000*%
%ADD19R,0.280000X0.530000*%


D10*
X25400Y-150D03*
X25400Y12850D03*
X42863Y-55713D03*
X42863Y-42713D03*
D11*
X60325Y-2613D03*
X60325Y-19613D03*
D12*
X-56000Y-74613D03*
X-71000Y-74613D03*
D10*
X0Y-42713D03*
X0Y-55713D03*
X14288Y-42713D03*
X14288Y-55713D03*
X-14288Y-42713D03*
X-14288Y-55713D03*
X28575Y-42713D03*
X28575Y-55713D03*
D13*
X-9000Y-25500D03*
D14*
X-10580Y-22500D03*
X-10580Y-15000D03*
X-10580Y-7500D03*
X-10580Y0D03*
X-10580Y7500D03*
X-10580Y15000D03*
X-10580Y22500D03*
D15*
X0Y-26680D03*
D16*
X0Y0D03*
D15*
X0Y26680D03*
D14*
X10580Y-22500D03*
X10580Y-15000D03*
X10580Y-7500D03*
X10580Y0D03*
X10580Y7500D03*
X10580Y15000D03*
X10580Y22500D03*
D10*
X-28575Y-42713D03*
X-28575Y-55713D03*
D17*
X25250Y23813D03*
X38250Y23813D03*
X-6500Y49213D03*
X6500Y49213D03*
D10*
X-14288Y66525D03*
X-14288Y79525D03*
D18*
X39275Y-1175D03*
X43275Y-1175D03*
X39275Y-5175D03*
X43275Y-5175D03*
D19*
X-4000Y60100D03*
X0Y60100D03*
X4000Y60100D03*
X4000Y66900D03*
X0Y66900D03*
X-4000Y66900D03*
D17*
X-43013Y30163D03*
X-30013Y30163D03*
D10*
X-22225Y-9375D03*
X-22225Y-22375D03*
D17*
X-6500Y41275D03*
X6500Y41275D03*
D10*
X4763Y103338D03*
X4763Y90338D03*
M02*
