G04 EAGLE Gerber RS-274X export*
G75*
%MOMM*%
%FSLAX34Y34*%
%LPD*%
%INSilkscreen Bottom*%
%IPPOS*%
%AMOC8*
5,1,8,0,0,1.08239X$1,22.5*%
G01*
%ADD10C,0.152400*%
%ADD11C,0.101600*%
%ADD12C,0.076200*%
%ADD13C,0.127000*%
%ADD14C,0.254000*%


D10*
X385742Y452945D02*
X380803Y452945D01*
X380663Y452943D01*
X380524Y452937D01*
X380384Y452927D01*
X380245Y452913D01*
X380106Y452896D01*
X379968Y452874D01*
X379831Y452848D01*
X379694Y452819D01*
X379558Y452786D01*
X379424Y452749D01*
X379290Y452708D01*
X379158Y452663D01*
X379026Y452614D01*
X378897Y452562D01*
X378769Y452507D01*
X378642Y452447D01*
X378517Y452384D01*
X378394Y452318D01*
X378273Y452248D01*
X378154Y452175D01*
X378037Y452098D01*
X377923Y452018D01*
X377810Y451935D01*
X377700Y451849D01*
X377593Y451759D01*
X377488Y451667D01*
X377386Y451572D01*
X377286Y451474D01*
X377189Y451373D01*
X377095Y451269D01*
X377005Y451163D01*
X376917Y451054D01*
X376832Y450943D01*
X376751Y450829D01*
X376672Y450714D01*
X376597Y450596D01*
X376526Y450476D01*
X376458Y450353D01*
X376393Y450230D01*
X376332Y450104D01*
X376274Y449976D01*
X376220Y449848D01*
X376170Y449717D01*
X376123Y449585D01*
X376080Y449452D01*
X376041Y449318D01*
X376006Y449183D01*
X375975Y449047D01*
X375947Y448909D01*
X375924Y448772D01*
X375904Y448633D01*
X375888Y448494D01*
X375876Y448355D01*
X375868Y448216D01*
X375864Y448076D01*
X375864Y447936D01*
X375868Y447796D01*
X375876Y447657D01*
X375888Y447518D01*
X375904Y447379D01*
X375924Y447240D01*
X375947Y447103D01*
X375975Y446965D01*
X376006Y446829D01*
X376041Y446694D01*
X376080Y446560D01*
X376123Y446427D01*
X376170Y446295D01*
X376220Y446164D01*
X376274Y446036D01*
X376332Y445908D01*
X376393Y445782D01*
X376458Y445659D01*
X376526Y445537D01*
X376597Y445416D01*
X376672Y445298D01*
X376751Y445183D01*
X376832Y445069D01*
X376917Y444958D01*
X377005Y444849D01*
X377095Y444743D01*
X377189Y444639D01*
X377286Y444538D01*
X377386Y444440D01*
X377488Y444345D01*
X377593Y444253D01*
X377700Y444163D01*
X377810Y444077D01*
X377923Y443994D01*
X378037Y443914D01*
X378154Y443837D01*
X378273Y443764D01*
X378394Y443694D01*
X378517Y443628D01*
X378642Y443565D01*
X378769Y443505D01*
X378897Y443450D01*
X379026Y443398D01*
X379158Y443349D01*
X379290Y443304D01*
X379424Y443263D01*
X379558Y443226D01*
X379694Y443193D01*
X379831Y443164D01*
X379968Y443138D01*
X380106Y443116D01*
X380245Y443099D01*
X380384Y443085D01*
X380524Y443075D01*
X380663Y443069D01*
X380803Y443067D01*
X385742Y443067D01*
X385742Y460847D01*
X380803Y460847D01*
X380679Y460845D01*
X380555Y460839D01*
X380431Y460829D01*
X380308Y460816D01*
X380185Y460798D01*
X380063Y460777D01*
X379941Y460752D01*
X379820Y460723D01*
X379701Y460690D01*
X379582Y460654D01*
X379465Y460613D01*
X379349Y460570D01*
X379234Y460522D01*
X379121Y460471D01*
X379009Y460416D01*
X378900Y460358D01*
X378792Y460297D01*
X378686Y460232D01*
X378582Y460164D01*
X378481Y460092D01*
X378381Y460018D01*
X378285Y459940D01*
X378190Y459860D01*
X378098Y459776D01*
X378009Y459690D01*
X377923Y459601D01*
X377839Y459509D01*
X377759Y459414D01*
X377681Y459318D01*
X377607Y459218D01*
X377535Y459117D01*
X377467Y459013D01*
X377402Y458907D01*
X377341Y458799D01*
X377283Y458690D01*
X377228Y458578D01*
X377177Y458465D01*
X377129Y458350D01*
X377086Y458234D01*
X377045Y458117D01*
X377009Y457998D01*
X376976Y457879D01*
X376947Y457758D01*
X376922Y457636D01*
X376901Y457514D01*
X376883Y457391D01*
X376870Y457268D01*
X376860Y457144D01*
X376854Y457020D01*
X376852Y456896D01*
X376854Y456772D01*
X376860Y456648D01*
X376870Y456524D01*
X376883Y456401D01*
X376901Y456278D01*
X376922Y456156D01*
X376947Y456034D01*
X376976Y455913D01*
X377009Y455794D01*
X377045Y455675D01*
X377086Y455558D01*
X377129Y455442D01*
X377177Y455327D01*
X377228Y455214D01*
X377283Y455102D01*
X377341Y454993D01*
X377402Y454885D01*
X377467Y454779D01*
X377535Y454675D01*
X377607Y454574D01*
X377681Y454474D01*
X377759Y454378D01*
X377839Y454283D01*
X377923Y454191D01*
X378009Y454102D01*
X378098Y454016D01*
X378190Y453932D01*
X378285Y453852D01*
X378381Y453774D01*
X378481Y453700D01*
X378582Y453628D01*
X378686Y453560D01*
X378792Y453495D01*
X378900Y453434D01*
X379009Y453376D01*
X379121Y453321D01*
X379234Y453270D01*
X379349Y453222D01*
X379465Y453179D01*
X379582Y453138D01*
X379701Y453102D01*
X379820Y453069D01*
X379941Y453040D01*
X380063Y453015D01*
X380185Y452994D01*
X380308Y452976D01*
X380431Y452963D01*
X380555Y452953D01*
X380679Y452947D01*
X380803Y452945D01*
X462252Y363921D02*
X462252Y346141D01*
X462252Y363921D02*
X457313Y363921D01*
X457173Y363919D01*
X457034Y363913D01*
X456894Y363903D01*
X456755Y363889D01*
X456616Y363872D01*
X456478Y363850D01*
X456341Y363824D01*
X456204Y363795D01*
X456068Y363762D01*
X455934Y363725D01*
X455800Y363684D01*
X455668Y363639D01*
X455536Y363590D01*
X455407Y363538D01*
X455279Y363483D01*
X455152Y363423D01*
X455027Y363360D01*
X454904Y363294D01*
X454783Y363224D01*
X454664Y363151D01*
X454547Y363074D01*
X454433Y362994D01*
X454320Y362911D01*
X454210Y362825D01*
X454103Y362735D01*
X453998Y362643D01*
X453896Y362548D01*
X453796Y362450D01*
X453699Y362349D01*
X453605Y362245D01*
X453515Y362139D01*
X453427Y362030D01*
X453342Y361919D01*
X453261Y361805D01*
X453182Y361690D01*
X453107Y361572D01*
X453036Y361452D01*
X452968Y361329D01*
X452903Y361206D01*
X452842Y361080D01*
X452784Y360952D01*
X452730Y360824D01*
X452680Y360693D01*
X452633Y360561D01*
X452590Y360428D01*
X452551Y360294D01*
X452516Y360159D01*
X452485Y360023D01*
X452457Y359885D01*
X452434Y359748D01*
X452414Y359609D01*
X452398Y359470D01*
X452386Y359331D01*
X452378Y359192D01*
X452374Y359052D01*
X452374Y358912D01*
X452378Y358772D01*
X452386Y358633D01*
X452398Y358494D01*
X452414Y358355D01*
X452434Y358216D01*
X452457Y358079D01*
X452485Y357941D01*
X452516Y357805D01*
X452551Y357670D01*
X452590Y357536D01*
X452633Y357403D01*
X452680Y357271D01*
X452730Y357140D01*
X452784Y357012D01*
X452842Y356884D01*
X452903Y356758D01*
X452968Y356635D01*
X453036Y356513D01*
X453107Y356392D01*
X453182Y356274D01*
X453261Y356159D01*
X453342Y356045D01*
X453427Y355934D01*
X453515Y355825D01*
X453605Y355719D01*
X453699Y355615D01*
X453796Y355514D01*
X453896Y355416D01*
X453998Y355321D01*
X454103Y355229D01*
X454210Y355139D01*
X454320Y355053D01*
X454433Y354970D01*
X454547Y354890D01*
X454664Y354813D01*
X454783Y354740D01*
X454904Y354670D01*
X455027Y354604D01*
X455152Y354541D01*
X455279Y354481D01*
X455407Y354426D01*
X455536Y354374D01*
X455668Y354325D01*
X455800Y354280D01*
X455934Y354239D01*
X456068Y354202D01*
X456204Y354169D01*
X456341Y354140D01*
X456478Y354114D01*
X456616Y354092D01*
X456755Y354075D01*
X456894Y354061D01*
X457034Y354051D01*
X457173Y354045D01*
X457313Y354043D01*
X462252Y354043D01*
X456325Y354043D02*
X452374Y346141D01*
X341637Y407175D02*
X341637Y424955D01*
X336698Y424955D01*
X336559Y424953D01*
X336421Y424947D01*
X336283Y424938D01*
X336145Y424924D01*
X336008Y424907D01*
X335871Y424885D01*
X335734Y424860D01*
X335599Y424831D01*
X335464Y424798D01*
X335331Y424762D01*
X335198Y424722D01*
X335067Y424678D01*
X334937Y424630D01*
X334808Y424579D01*
X334681Y424524D01*
X334555Y424466D01*
X334431Y424404D01*
X334309Y424339D01*
X334189Y424270D01*
X334070Y424198D01*
X333954Y424123D01*
X333840Y424044D01*
X333728Y423962D01*
X333619Y423877D01*
X333511Y423790D01*
X333407Y423699D01*
X333305Y423605D01*
X333206Y423508D01*
X333109Y423409D01*
X333015Y423307D01*
X332924Y423203D01*
X332837Y423095D01*
X332752Y422986D01*
X332670Y422874D01*
X332591Y422760D01*
X332516Y422644D01*
X332444Y422525D01*
X332375Y422405D01*
X332310Y422283D01*
X332248Y422159D01*
X332190Y422033D01*
X332135Y421906D01*
X332084Y421777D01*
X332036Y421647D01*
X331992Y421516D01*
X331952Y421383D01*
X331916Y421250D01*
X331883Y421115D01*
X331854Y420980D01*
X331829Y420843D01*
X331807Y420706D01*
X331790Y420569D01*
X331776Y420431D01*
X331767Y420293D01*
X331761Y420155D01*
X331759Y420016D01*
X331760Y420016D02*
X331760Y412114D01*
X331759Y412114D02*
X331761Y411975D01*
X331767Y411837D01*
X331776Y411699D01*
X331790Y411561D01*
X331807Y411424D01*
X331829Y411287D01*
X331854Y411150D01*
X331883Y411015D01*
X331916Y410880D01*
X331952Y410747D01*
X331992Y410614D01*
X332036Y410483D01*
X332084Y410353D01*
X332135Y410224D01*
X332190Y410097D01*
X332248Y409971D01*
X332310Y409847D01*
X332375Y409725D01*
X332444Y409605D01*
X332516Y409486D01*
X332591Y409370D01*
X332670Y409256D01*
X332752Y409144D01*
X332837Y409035D01*
X332924Y408927D01*
X333015Y408823D01*
X333109Y408721D01*
X333206Y408622D01*
X333305Y408525D01*
X333407Y408431D01*
X333511Y408340D01*
X333619Y408253D01*
X333728Y408168D01*
X333840Y408086D01*
X333954Y408007D01*
X334070Y407932D01*
X334189Y407860D01*
X334309Y407791D01*
X334431Y407726D01*
X334555Y407664D01*
X334681Y407606D01*
X334808Y407551D01*
X334937Y407500D01*
X335067Y407452D01*
X335198Y407408D01*
X335331Y407368D01*
X335464Y407332D01*
X335599Y407299D01*
X335734Y407270D01*
X335871Y407245D01*
X336008Y407223D01*
X336145Y407206D01*
X336283Y407192D01*
X336421Y407183D01*
X336559Y407177D01*
X336698Y407175D01*
X341637Y407175D01*
X337671Y434043D02*
X333720Y434043D01*
X337671Y434043D02*
X337795Y434045D01*
X337919Y434051D01*
X338043Y434061D01*
X338166Y434074D01*
X338289Y434092D01*
X338411Y434113D01*
X338533Y434138D01*
X338654Y434167D01*
X338773Y434200D01*
X338892Y434236D01*
X339009Y434277D01*
X339125Y434320D01*
X339240Y434368D01*
X339353Y434419D01*
X339465Y434474D01*
X339574Y434532D01*
X339682Y434593D01*
X339788Y434658D01*
X339892Y434726D01*
X339993Y434798D01*
X340093Y434872D01*
X340189Y434950D01*
X340284Y435030D01*
X340376Y435114D01*
X340465Y435200D01*
X340551Y435289D01*
X340635Y435381D01*
X340715Y435476D01*
X340793Y435572D01*
X340867Y435672D01*
X340939Y435773D01*
X341007Y435877D01*
X341072Y435983D01*
X341133Y436091D01*
X341191Y436200D01*
X341246Y436312D01*
X341297Y436425D01*
X341345Y436540D01*
X341388Y436656D01*
X341429Y436773D01*
X341465Y436892D01*
X341498Y437011D01*
X341527Y437132D01*
X341552Y437254D01*
X341573Y437376D01*
X341591Y437499D01*
X341604Y437622D01*
X341614Y437746D01*
X341620Y437870D01*
X341622Y437994D01*
X341622Y447872D01*
X341620Y447996D01*
X341614Y448120D01*
X341604Y448244D01*
X341591Y448367D01*
X341573Y448490D01*
X341552Y448612D01*
X341527Y448734D01*
X341498Y448855D01*
X341465Y448974D01*
X341429Y449093D01*
X341388Y449210D01*
X341345Y449326D01*
X341297Y449441D01*
X341246Y449554D01*
X341191Y449666D01*
X341133Y449775D01*
X341072Y449883D01*
X341007Y449989D01*
X340939Y450093D01*
X340867Y450194D01*
X340793Y450294D01*
X340715Y450390D01*
X340635Y450485D01*
X340551Y450577D01*
X340465Y450666D01*
X340376Y450752D01*
X340284Y450836D01*
X340189Y450916D01*
X340093Y450994D01*
X339993Y451068D01*
X339892Y451140D01*
X339788Y451208D01*
X339682Y451273D01*
X339574Y451334D01*
X339465Y451392D01*
X339353Y451447D01*
X339240Y451498D01*
X339126Y451546D01*
X339009Y451589D01*
X338892Y451630D01*
X338773Y451666D01*
X338654Y451699D01*
X338533Y451728D01*
X338411Y451753D01*
X338289Y451774D01*
X338166Y451792D01*
X338043Y451805D01*
X337919Y451815D01*
X337795Y451821D01*
X337671Y451823D01*
X333720Y451823D01*
D11*
X355146Y466149D02*
X357094Y466149D01*
X355146Y466149D02*
X355146Y459658D01*
X359041Y459658D01*
X359140Y459660D01*
X359240Y459666D01*
X359339Y459675D01*
X359437Y459688D01*
X359535Y459705D01*
X359633Y459726D01*
X359729Y459751D01*
X359824Y459779D01*
X359918Y459811D01*
X360011Y459846D01*
X360103Y459885D01*
X360193Y459928D01*
X360281Y459973D01*
X360368Y460023D01*
X360452Y460075D01*
X360535Y460131D01*
X360615Y460189D01*
X360693Y460251D01*
X360768Y460316D01*
X360841Y460384D01*
X360911Y460454D01*
X360979Y460527D01*
X361044Y460602D01*
X361106Y460680D01*
X361164Y460760D01*
X361220Y460843D01*
X361272Y460927D01*
X361322Y461014D01*
X361367Y461102D01*
X361410Y461192D01*
X361449Y461284D01*
X361484Y461377D01*
X361516Y461471D01*
X361544Y461566D01*
X361569Y461662D01*
X361590Y461760D01*
X361607Y461858D01*
X361620Y461956D01*
X361629Y462055D01*
X361635Y462155D01*
X361637Y462254D01*
X361638Y462254D02*
X361638Y468746D01*
X361637Y468746D02*
X361635Y468845D01*
X361629Y468945D01*
X361620Y469044D01*
X361607Y469142D01*
X361590Y469240D01*
X361569Y469338D01*
X361544Y469434D01*
X361516Y469529D01*
X361484Y469623D01*
X361449Y469716D01*
X361410Y469808D01*
X361367Y469898D01*
X361322Y469986D01*
X361272Y470073D01*
X361220Y470157D01*
X361164Y470240D01*
X361106Y470320D01*
X361044Y470398D01*
X360979Y470473D01*
X360911Y470546D01*
X360841Y470616D01*
X360768Y470684D01*
X360693Y470749D01*
X360615Y470811D01*
X360535Y470869D01*
X360452Y470925D01*
X360368Y470977D01*
X360281Y471027D01*
X360193Y471072D01*
X360103Y471115D01*
X360011Y471154D01*
X359918Y471189D01*
X359824Y471221D01*
X359729Y471249D01*
X359633Y471274D01*
X359535Y471295D01*
X359437Y471312D01*
X359339Y471325D01*
X359240Y471334D01*
X359140Y471340D01*
X359041Y471342D01*
X355146Y471342D01*
X349446Y471342D02*
X349446Y459658D01*
X342954Y459658D02*
X349446Y471342D01*
X342954Y471342D02*
X342954Y459658D01*
X337254Y459658D02*
X337254Y471342D01*
X334008Y471342D01*
X333895Y471340D01*
X333782Y471334D01*
X333669Y471324D01*
X333556Y471310D01*
X333444Y471293D01*
X333333Y471271D01*
X333223Y471246D01*
X333113Y471216D01*
X333005Y471183D01*
X332898Y471146D01*
X332792Y471106D01*
X332688Y471061D01*
X332585Y471013D01*
X332484Y470962D01*
X332385Y470907D01*
X332288Y470849D01*
X332193Y470787D01*
X332100Y470722D01*
X332010Y470654D01*
X331922Y470583D01*
X331836Y470508D01*
X331753Y470431D01*
X331673Y470351D01*
X331596Y470268D01*
X331521Y470182D01*
X331450Y470094D01*
X331382Y470004D01*
X331317Y469911D01*
X331255Y469816D01*
X331197Y469719D01*
X331142Y469620D01*
X331091Y469519D01*
X331043Y469416D01*
X330998Y469312D01*
X330958Y469206D01*
X330921Y469099D01*
X330888Y468991D01*
X330858Y468881D01*
X330833Y468771D01*
X330811Y468660D01*
X330794Y468548D01*
X330780Y468435D01*
X330770Y468322D01*
X330764Y468209D01*
X330762Y468096D01*
X330762Y462904D01*
X330764Y462791D01*
X330770Y462678D01*
X330780Y462565D01*
X330794Y462452D01*
X330811Y462340D01*
X330833Y462229D01*
X330858Y462119D01*
X330888Y462009D01*
X330921Y461901D01*
X330958Y461794D01*
X330998Y461688D01*
X331043Y461584D01*
X331091Y461481D01*
X331142Y461380D01*
X331197Y461281D01*
X331255Y461184D01*
X331317Y461089D01*
X331382Y460996D01*
X331450Y460906D01*
X331521Y460818D01*
X331596Y460732D01*
X331673Y460649D01*
X331753Y460569D01*
X331836Y460492D01*
X331922Y460417D01*
X332010Y460346D01*
X332100Y460278D01*
X332193Y460213D01*
X332288Y460151D01*
X332385Y460093D01*
X332484Y460038D01*
X332585Y459987D01*
X332688Y459939D01*
X332792Y459894D01*
X332898Y459854D01*
X333005Y459817D01*
X333113Y459784D01*
X333223Y459754D01*
X333333Y459729D01*
X333444Y459707D01*
X333556Y459690D01*
X333669Y459676D01*
X333782Y459666D01*
X333895Y459660D01*
X334008Y459658D01*
X337254Y459658D01*
X463370Y374915D02*
X464036Y373085D01*
X463370Y374915D02*
X457270Y372695D01*
X458602Y369035D01*
X458603Y369035D02*
X458638Y368942D01*
X458678Y368851D01*
X458720Y368761D01*
X458767Y368673D01*
X458816Y368587D01*
X458869Y368503D01*
X458925Y368420D01*
X458984Y368340D01*
X459046Y368263D01*
X459111Y368188D01*
X459179Y368115D01*
X459250Y368045D01*
X459323Y367978D01*
X459399Y367913D01*
X459477Y367852D01*
X459558Y367793D01*
X459640Y367738D01*
X459725Y367686D01*
X459812Y367637D01*
X459900Y367592D01*
X459990Y367550D01*
X460082Y367511D01*
X460175Y367476D01*
X460269Y367445D01*
X460365Y367417D01*
X460461Y367393D01*
X460559Y367372D01*
X460657Y367356D01*
X460755Y367343D01*
X460854Y367334D01*
X460954Y367329D01*
X461053Y367327D01*
X461153Y367329D01*
X461252Y367335D01*
X461351Y367345D01*
X461449Y367359D01*
X461547Y367377D01*
X461644Y367398D01*
X461741Y367423D01*
X461836Y367451D01*
X461930Y367484D01*
X461930Y367483D02*
X468030Y369703D01*
X468030Y369704D02*
X468123Y369739D01*
X468214Y369779D01*
X468304Y369821D01*
X468392Y369868D01*
X468478Y369917D01*
X468562Y369970D01*
X468645Y370026D01*
X468725Y370085D01*
X468802Y370147D01*
X468877Y370212D01*
X468950Y370280D01*
X469020Y370351D01*
X469087Y370424D01*
X469152Y370500D01*
X469213Y370578D01*
X469272Y370659D01*
X469327Y370741D01*
X469379Y370826D01*
X469428Y370913D01*
X469473Y371001D01*
X469515Y371091D01*
X469554Y371183D01*
X469589Y371276D01*
X469620Y371370D01*
X469648Y371466D01*
X469672Y371562D01*
X469693Y371660D01*
X469709Y371758D01*
X469722Y371856D01*
X469731Y371955D01*
X469736Y372055D01*
X469738Y372154D01*
X469736Y372253D01*
X469730Y372353D01*
X469720Y372452D01*
X469706Y372550D01*
X469688Y372648D01*
X469667Y372745D01*
X469642Y372842D01*
X469614Y372937D01*
X469581Y373031D01*
X469582Y373031D02*
X468250Y376691D01*
X466300Y382048D02*
X455320Y378052D01*
X453100Y384152D02*
X466300Y382048D01*
X464080Y388148D02*
X453100Y384152D01*
X451151Y389509D02*
X462130Y393505D01*
X461020Y396555D01*
X460980Y396661D01*
X460935Y396765D01*
X460887Y396868D01*
X460836Y396969D01*
X460781Y397068D01*
X460723Y397165D01*
X460661Y397260D01*
X460596Y397353D01*
X460528Y397443D01*
X460457Y397531D01*
X460382Y397617D01*
X460305Y397700D01*
X460225Y397780D01*
X460142Y397857D01*
X460056Y397932D01*
X459968Y398003D01*
X459878Y398071D01*
X459785Y398136D01*
X459690Y398198D01*
X459593Y398256D01*
X459494Y398311D01*
X459393Y398362D01*
X459290Y398410D01*
X459186Y398455D01*
X459080Y398495D01*
X458973Y398532D01*
X458865Y398565D01*
X458755Y398595D01*
X458645Y398620D01*
X458534Y398642D01*
X458422Y398659D01*
X458309Y398673D01*
X458196Y398683D01*
X458083Y398689D01*
X457970Y398691D01*
X457857Y398689D01*
X457744Y398683D01*
X457631Y398673D01*
X457518Y398659D01*
X457406Y398642D01*
X457295Y398620D01*
X457185Y398595D01*
X457075Y398565D01*
X456967Y398532D01*
X456860Y398495D01*
X456860Y398494D02*
X451980Y396718D01*
X451980Y396719D02*
X451874Y396679D01*
X451770Y396634D01*
X451667Y396586D01*
X451566Y396535D01*
X451467Y396480D01*
X451370Y396422D01*
X451275Y396360D01*
X451182Y396295D01*
X451092Y396227D01*
X451004Y396156D01*
X450918Y396081D01*
X450835Y396004D01*
X450755Y395924D01*
X450678Y395841D01*
X450603Y395755D01*
X450532Y395667D01*
X450464Y395577D01*
X450399Y395484D01*
X450337Y395389D01*
X450279Y395292D01*
X450224Y395193D01*
X450173Y395092D01*
X450125Y394989D01*
X450080Y394885D01*
X450040Y394779D01*
X450003Y394672D01*
X449970Y394564D01*
X449940Y394454D01*
X449915Y394344D01*
X449893Y394233D01*
X449876Y394121D01*
X449862Y394008D01*
X449852Y393895D01*
X449846Y393782D01*
X449844Y393669D01*
X449846Y393556D01*
X449852Y393443D01*
X449862Y393330D01*
X449876Y393217D01*
X449893Y393105D01*
X449915Y392994D01*
X449940Y392884D01*
X449970Y392774D01*
X450003Y392666D01*
X450040Y392559D01*
X450041Y392559D02*
X451151Y389509D01*
X424851Y256480D02*
X423256Y255363D01*
X426979Y250046D01*
X430170Y252280D01*
X430169Y252280D02*
X430249Y252339D01*
X430327Y252401D01*
X430403Y252465D01*
X430476Y252533D01*
X430547Y252603D01*
X430614Y252676D01*
X430679Y252751D01*
X430741Y252829D01*
X430800Y252909D01*
X430856Y252991D01*
X430909Y253076D01*
X430958Y253162D01*
X431004Y253250D01*
X431047Y253340D01*
X431086Y253431D01*
X431121Y253524D01*
X431153Y253618D01*
X431182Y253714D01*
X431206Y253810D01*
X431227Y253907D01*
X431245Y254005D01*
X431258Y254104D01*
X431268Y254203D01*
X431274Y254302D01*
X431276Y254401D01*
X431274Y254501D01*
X431269Y254600D01*
X431259Y254699D01*
X431246Y254798D01*
X431230Y254896D01*
X431209Y254993D01*
X431185Y255090D01*
X431157Y255185D01*
X431125Y255279D01*
X431090Y255372D01*
X431051Y255464D01*
X431009Y255554D01*
X430963Y255642D01*
X430914Y255729D01*
X430862Y255813D01*
X430807Y255896D01*
X427084Y261213D01*
X427025Y261293D01*
X426963Y261371D01*
X426899Y261447D01*
X426831Y261520D01*
X426761Y261591D01*
X426688Y261658D01*
X426613Y261723D01*
X426535Y261785D01*
X426455Y261844D01*
X426373Y261900D01*
X426288Y261953D01*
X426202Y262002D01*
X426114Y262048D01*
X426024Y262091D01*
X425933Y262130D01*
X425840Y262165D01*
X425746Y262197D01*
X425650Y262226D01*
X425554Y262250D01*
X425457Y262271D01*
X425359Y262289D01*
X425260Y262302D01*
X425161Y262312D01*
X425062Y262318D01*
X424963Y262320D01*
X424863Y262318D01*
X424764Y262313D01*
X424665Y262304D01*
X424566Y262290D01*
X424468Y262274D01*
X424371Y262253D01*
X424274Y262229D01*
X424179Y262201D01*
X424085Y262169D01*
X423992Y262134D01*
X423900Y262095D01*
X423810Y262053D01*
X423722Y262007D01*
X423635Y261958D01*
X423551Y261906D01*
X423468Y261851D01*
X420278Y259617D01*
X415608Y256347D02*
X422309Y246776D01*
X416992Y243053D02*
X415608Y256347D01*
X410291Y252624D02*
X416992Y243053D01*
X412322Y239783D02*
X405621Y249354D01*
X402962Y247492D01*
X402962Y247493D02*
X402871Y247426D01*
X402781Y247357D01*
X402694Y247284D01*
X402610Y247208D01*
X402529Y247129D01*
X402450Y247048D01*
X402374Y246964D01*
X402301Y246877D01*
X402232Y246788D01*
X402165Y246696D01*
X402102Y246602D01*
X402042Y246506D01*
X401985Y246408D01*
X401932Y246308D01*
X401882Y246206D01*
X401836Y246102D01*
X401794Y245997D01*
X401755Y245891D01*
X401720Y245783D01*
X401689Y245674D01*
X401661Y245564D01*
X401638Y245453D01*
X401618Y245342D01*
X401602Y245230D01*
X401590Y245117D01*
X401582Y245004D01*
X401578Y244891D01*
X401578Y244777D01*
X401582Y244664D01*
X401590Y244551D01*
X401602Y244438D01*
X401618Y244326D01*
X401638Y244215D01*
X401661Y244104D01*
X401689Y243994D01*
X401720Y243885D01*
X401755Y243777D01*
X401794Y243671D01*
X401836Y243566D01*
X401882Y243462D01*
X401932Y243360D01*
X401985Y243260D01*
X402042Y243162D01*
X402102Y243066D01*
X402165Y242972D01*
X405144Y238718D01*
X405143Y238718D02*
X405210Y238627D01*
X405279Y238537D01*
X405352Y238450D01*
X405428Y238366D01*
X405507Y238285D01*
X405588Y238206D01*
X405672Y238130D01*
X405759Y238057D01*
X405849Y237988D01*
X405940Y237921D01*
X406034Y237858D01*
X406130Y237798D01*
X406228Y237741D01*
X406328Y237688D01*
X406430Y237638D01*
X406534Y237592D01*
X406639Y237550D01*
X406745Y237511D01*
X406853Y237476D01*
X406962Y237445D01*
X407072Y237417D01*
X407183Y237394D01*
X407294Y237374D01*
X407406Y237358D01*
X407519Y237346D01*
X407632Y237338D01*
X407745Y237334D01*
X407859Y237334D01*
X407972Y237338D01*
X408085Y237346D01*
X408198Y237358D01*
X408310Y237374D01*
X408421Y237394D01*
X408532Y237417D01*
X408642Y237445D01*
X408751Y237476D01*
X408859Y237511D01*
X408965Y237550D01*
X409070Y237592D01*
X409174Y237638D01*
X409276Y237688D01*
X409376Y237741D01*
X409474Y237798D01*
X409570Y237858D01*
X409664Y237921D01*
X412322Y239783D01*
X285396Y243983D02*
X283801Y245100D01*
X280078Y239783D01*
X283268Y237549D01*
X283351Y237494D01*
X283435Y237442D01*
X283522Y237393D01*
X283610Y237347D01*
X283700Y237305D01*
X283792Y237266D01*
X283885Y237231D01*
X283979Y237199D01*
X284074Y237171D01*
X284171Y237147D01*
X284268Y237126D01*
X284366Y237110D01*
X284465Y237096D01*
X284564Y237087D01*
X284663Y237082D01*
X284763Y237080D01*
X284862Y237082D01*
X284961Y237088D01*
X285060Y237098D01*
X285159Y237111D01*
X285257Y237129D01*
X285354Y237150D01*
X285450Y237174D01*
X285546Y237203D01*
X285640Y237235D01*
X285733Y237270D01*
X285824Y237309D01*
X285914Y237352D01*
X286002Y237398D01*
X286088Y237447D01*
X286173Y237500D01*
X286255Y237556D01*
X286335Y237615D01*
X286413Y237677D01*
X286488Y237742D01*
X286561Y237809D01*
X286631Y237880D01*
X286699Y237953D01*
X286763Y238029D01*
X286825Y238107D01*
X286884Y238187D01*
X290607Y243504D01*
X290662Y243587D01*
X290714Y243671D01*
X290763Y243758D01*
X290809Y243846D01*
X290851Y243936D01*
X290890Y244028D01*
X290925Y244121D01*
X290957Y244215D01*
X290985Y244310D01*
X291009Y244407D01*
X291030Y244504D01*
X291046Y244602D01*
X291060Y244701D01*
X291069Y244800D01*
X291074Y244899D01*
X291076Y244999D01*
X291074Y245098D01*
X291068Y245197D01*
X291058Y245296D01*
X291045Y245395D01*
X291027Y245493D01*
X291006Y245590D01*
X290982Y245686D01*
X290953Y245782D01*
X290921Y245876D01*
X290886Y245969D01*
X290847Y246060D01*
X290804Y246150D01*
X290758Y246238D01*
X290709Y246324D01*
X290656Y246409D01*
X290600Y246491D01*
X290541Y246571D01*
X290479Y246649D01*
X290414Y246724D01*
X290347Y246797D01*
X290276Y246867D01*
X290203Y246935D01*
X290127Y246999D01*
X290049Y247061D01*
X289969Y247120D01*
X289970Y247120D02*
X286779Y249354D01*
X282110Y252624D02*
X275408Y243053D01*
X270091Y246776D02*
X282110Y252624D01*
X276792Y256347D02*
X270091Y246776D01*
X265421Y250046D02*
X272122Y259617D01*
X269464Y261478D01*
X269464Y261479D02*
X269370Y261542D01*
X269274Y261602D01*
X269176Y261659D01*
X269076Y261712D01*
X268974Y261762D01*
X268870Y261808D01*
X268765Y261850D01*
X268659Y261889D01*
X268551Y261924D01*
X268442Y261955D01*
X268332Y261983D01*
X268221Y262006D01*
X268110Y262026D01*
X267998Y262042D01*
X267885Y262054D01*
X267772Y262062D01*
X267659Y262066D01*
X267545Y262066D01*
X267432Y262062D01*
X267319Y262054D01*
X267206Y262042D01*
X267094Y262026D01*
X266983Y262006D01*
X266872Y261983D01*
X266762Y261955D01*
X266653Y261924D01*
X266545Y261889D01*
X266439Y261850D01*
X266334Y261808D01*
X266230Y261762D01*
X266128Y261712D01*
X266028Y261659D01*
X265930Y261602D01*
X265834Y261542D01*
X265740Y261479D01*
X265649Y261412D01*
X265559Y261343D01*
X265472Y261270D01*
X265388Y261194D01*
X265307Y261115D01*
X265228Y261034D01*
X265152Y260950D01*
X265079Y260863D01*
X265010Y260774D01*
X264943Y260682D01*
X264944Y260681D02*
X261965Y256428D01*
X261902Y256334D01*
X261842Y256238D01*
X261785Y256140D01*
X261732Y256040D01*
X261682Y255938D01*
X261636Y255834D01*
X261594Y255729D01*
X261555Y255623D01*
X261520Y255515D01*
X261489Y255406D01*
X261461Y255296D01*
X261438Y255185D01*
X261418Y255074D01*
X261402Y254962D01*
X261390Y254849D01*
X261382Y254736D01*
X261378Y254623D01*
X261378Y254509D01*
X261382Y254396D01*
X261390Y254283D01*
X261402Y254170D01*
X261418Y254058D01*
X261438Y253947D01*
X261461Y253836D01*
X261489Y253726D01*
X261520Y253617D01*
X261555Y253509D01*
X261594Y253403D01*
X261636Y253298D01*
X261682Y253194D01*
X261732Y253092D01*
X261785Y252992D01*
X261842Y252894D01*
X261902Y252798D01*
X261965Y252704D01*
X262032Y252612D01*
X262101Y252523D01*
X262174Y252436D01*
X262250Y252352D01*
X262329Y252271D01*
X262410Y252192D01*
X262494Y252116D01*
X262581Y252043D01*
X262671Y251974D01*
X262762Y251907D01*
X265421Y250046D01*
X235150Y391729D02*
X235816Y393559D01*
X235150Y391729D02*
X241250Y389509D01*
X242582Y393169D01*
X242581Y393169D02*
X242614Y393263D01*
X242642Y393358D01*
X242667Y393455D01*
X242688Y393552D01*
X242706Y393650D01*
X242720Y393748D01*
X242730Y393847D01*
X242736Y393947D01*
X242738Y394046D01*
X242736Y394145D01*
X242731Y394245D01*
X242722Y394344D01*
X242709Y394442D01*
X242693Y394540D01*
X242672Y394638D01*
X242648Y394734D01*
X242620Y394830D01*
X242589Y394924D01*
X242554Y395017D01*
X242515Y395109D01*
X242473Y395199D01*
X242428Y395287D01*
X242379Y395374D01*
X242327Y395459D01*
X242272Y395541D01*
X242213Y395622D01*
X242152Y395700D01*
X242087Y395776D01*
X242020Y395849D01*
X241950Y395920D01*
X241877Y395988D01*
X241802Y396053D01*
X241725Y396115D01*
X241645Y396174D01*
X241562Y396230D01*
X241478Y396283D01*
X241392Y396332D01*
X241304Y396379D01*
X241214Y396421D01*
X241123Y396461D01*
X241030Y396496D01*
X234930Y398716D01*
X234930Y398717D02*
X234836Y398750D01*
X234741Y398778D01*
X234644Y398803D01*
X234547Y398824D01*
X234449Y398842D01*
X234351Y398856D01*
X234252Y398866D01*
X234153Y398872D01*
X234053Y398874D01*
X233954Y398872D01*
X233854Y398867D01*
X233755Y398858D01*
X233657Y398845D01*
X233558Y398829D01*
X233461Y398808D01*
X233365Y398784D01*
X233269Y398756D01*
X233175Y398725D01*
X233081Y398690D01*
X232990Y398651D01*
X232900Y398609D01*
X232811Y398564D01*
X232724Y398515D01*
X232640Y398463D01*
X232557Y398408D01*
X232476Y398349D01*
X232398Y398288D01*
X232322Y398223D01*
X232249Y398156D01*
X232179Y398086D01*
X232111Y398013D01*
X232046Y397938D01*
X231983Y397860D01*
X231924Y397780D01*
X231868Y397698D01*
X231815Y397614D01*
X231766Y397527D01*
X231720Y397439D01*
X231677Y397349D01*
X231637Y397258D01*
X231602Y397165D01*
X230270Y393505D01*
X228320Y388148D02*
X239300Y384152D01*
X237080Y378052D02*
X228320Y388148D01*
X226100Y382048D02*
X237080Y378052D01*
X235130Y372695D02*
X224151Y376691D01*
X223041Y373641D01*
X223040Y373641D02*
X223003Y373534D01*
X222970Y373426D01*
X222940Y373316D01*
X222915Y373206D01*
X222893Y373095D01*
X222876Y372983D01*
X222862Y372870D01*
X222852Y372757D01*
X222846Y372644D01*
X222844Y372531D01*
X222846Y372418D01*
X222852Y372305D01*
X222862Y372192D01*
X222876Y372079D01*
X222893Y371967D01*
X222915Y371856D01*
X222940Y371746D01*
X222970Y371636D01*
X223003Y371528D01*
X223040Y371421D01*
X223080Y371315D01*
X223125Y371211D01*
X223173Y371108D01*
X223224Y371007D01*
X223279Y370908D01*
X223337Y370811D01*
X223399Y370716D01*
X223464Y370623D01*
X223532Y370533D01*
X223603Y370445D01*
X223678Y370359D01*
X223755Y370276D01*
X223835Y370196D01*
X223918Y370119D01*
X224004Y370044D01*
X224092Y369973D01*
X224182Y369905D01*
X224275Y369840D01*
X224370Y369778D01*
X224467Y369720D01*
X224566Y369665D01*
X224667Y369614D01*
X224770Y369566D01*
X224874Y369521D01*
X224980Y369481D01*
X229860Y367705D01*
X229860Y367706D02*
X229967Y367669D01*
X230076Y367636D01*
X230185Y367606D01*
X230295Y367581D01*
X230407Y367559D01*
X230518Y367542D01*
X230631Y367528D01*
X230744Y367518D01*
X230857Y367512D01*
X230970Y367510D01*
X231083Y367512D01*
X231196Y367518D01*
X231309Y367528D01*
X231422Y367542D01*
X231534Y367559D01*
X231645Y367581D01*
X231755Y367606D01*
X231864Y367636D01*
X231973Y367669D01*
X232080Y367706D01*
X232186Y367746D01*
X232290Y367791D01*
X232393Y367838D01*
X232493Y367890D01*
X232593Y367945D01*
X232690Y368003D01*
X232785Y368065D01*
X232877Y368130D01*
X232968Y368198D01*
X233056Y368269D01*
X233141Y368344D01*
X233224Y368421D01*
X233304Y368501D01*
X233382Y368584D01*
X233456Y368669D01*
X233527Y368757D01*
X233595Y368848D01*
X233660Y368940D01*
X233722Y369035D01*
X233780Y369133D01*
X233835Y369232D01*
X233887Y369333D01*
X233934Y369435D01*
X233979Y369539D01*
X234019Y369645D01*
X234020Y369645D02*
X235130Y372695D01*
D10*
X403696Y408460D02*
X403696Y426240D01*
X398758Y426240D01*
X398618Y426238D01*
X398479Y426232D01*
X398339Y426222D01*
X398200Y426208D01*
X398061Y426191D01*
X397923Y426169D01*
X397786Y426143D01*
X397649Y426114D01*
X397513Y426081D01*
X397379Y426044D01*
X397245Y426003D01*
X397113Y425958D01*
X396981Y425909D01*
X396852Y425857D01*
X396724Y425802D01*
X396597Y425742D01*
X396472Y425679D01*
X396349Y425613D01*
X396228Y425543D01*
X396109Y425470D01*
X395992Y425393D01*
X395878Y425313D01*
X395765Y425230D01*
X395655Y425144D01*
X395548Y425054D01*
X395443Y424962D01*
X395341Y424867D01*
X395241Y424769D01*
X395144Y424668D01*
X395050Y424564D01*
X394960Y424458D01*
X394872Y424349D01*
X394787Y424238D01*
X394706Y424124D01*
X394627Y424009D01*
X394552Y423891D01*
X394481Y423771D01*
X394413Y423648D01*
X394348Y423525D01*
X394287Y423399D01*
X394229Y423271D01*
X394175Y423143D01*
X394125Y423012D01*
X394078Y422880D01*
X394035Y422747D01*
X393996Y422613D01*
X393961Y422478D01*
X393930Y422342D01*
X393902Y422204D01*
X393879Y422067D01*
X393859Y421928D01*
X393843Y421789D01*
X393831Y421650D01*
X393823Y421511D01*
X393819Y421371D01*
X393819Y421231D01*
X393823Y421091D01*
X393831Y420952D01*
X393843Y420813D01*
X393859Y420674D01*
X393879Y420535D01*
X393902Y420398D01*
X393930Y420260D01*
X393961Y420124D01*
X393996Y419989D01*
X394035Y419855D01*
X394078Y419722D01*
X394125Y419590D01*
X394175Y419459D01*
X394229Y419331D01*
X394287Y419203D01*
X394348Y419077D01*
X394413Y418954D01*
X394481Y418832D01*
X394552Y418711D01*
X394627Y418593D01*
X394706Y418478D01*
X394787Y418364D01*
X394872Y418253D01*
X394960Y418144D01*
X395050Y418038D01*
X395144Y417934D01*
X395241Y417833D01*
X395341Y417735D01*
X395443Y417640D01*
X395548Y417548D01*
X395655Y417458D01*
X395765Y417372D01*
X395878Y417289D01*
X395992Y417209D01*
X396109Y417132D01*
X396228Y417059D01*
X396349Y416989D01*
X396472Y416923D01*
X396597Y416860D01*
X396724Y416800D01*
X396852Y416745D01*
X396981Y416693D01*
X397113Y416644D01*
X397245Y416599D01*
X397379Y416558D01*
X397513Y416521D01*
X397649Y416488D01*
X397786Y416459D01*
X397923Y416433D01*
X398061Y416411D01*
X398200Y416394D01*
X398339Y416380D01*
X398479Y416370D01*
X398618Y416364D01*
X398758Y416362D01*
X403696Y416362D01*
X387701Y422289D02*
X382762Y426240D01*
X382762Y408460D01*
X377824Y408460D02*
X387701Y408460D01*
X436317Y309208D02*
X436317Y292952D01*
X436317Y309208D02*
X431802Y309208D01*
X431669Y309206D01*
X431537Y309200D01*
X431405Y309190D01*
X431273Y309177D01*
X431141Y309159D01*
X431011Y309138D01*
X430880Y309113D01*
X430751Y309084D01*
X430623Y309051D01*
X430495Y309015D01*
X430369Y308975D01*
X430244Y308931D01*
X430120Y308883D01*
X429998Y308832D01*
X429877Y308777D01*
X429758Y308719D01*
X429640Y308657D01*
X429525Y308592D01*
X429411Y308523D01*
X429300Y308452D01*
X429191Y308376D01*
X429084Y308298D01*
X428979Y308217D01*
X428877Y308132D01*
X428777Y308045D01*
X428680Y307955D01*
X428585Y307862D01*
X428494Y307766D01*
X428405Y307668D01*
X428319Y307567D01*
X428236Y307463D01*
X428156Y307357D01*
X428080Y307249D01*
X428006Y307139D01*
X427936Y307026D01*
X427869Y306912D01*
X427806Y306795D01*
X427746Y306677D01*
X427689Y306557D01*
X427636Y306435D01*
X427587Y306312D01*
X427541Y306188D01*
X427499Y306062D01*
X427461Y305935D01*
X427426Y305807D01*
X427395Y305678D01*
X427368Y305549D01*
X427345Y305418D01*
X427325Y305287D01*
X427310Y305155D01*
X427298Y305023D01*
X427290Y304891D01*
X427286Y304758D01*
X427286Y304626D01*
X427290Y304493D01*
X427298Y304361D01*
X427310Y304229D01*
X427325Y304097D01*
X427345Y303966D01*
X427368Y303835D01*
X427395Y303706D01*
X427426Y303577D01*
X427461Y303449D01*
X427499Y303322D01*
X427541Y303196D01*
X427587Y303072D01*
X427636Y302949D01*
X427689Y302827D01*
X427746Y302707D01*
X427806Y302589D01*
X427869Y302472D01*
X427936Y302358D01*
X428006Y302245D01*
X428080Y302135D01*
X428156Y302027D01*
X428236Y301921D01*
X428319Y301817D01*
X428405Y301716D01*
X428494Y301618D01*
X428585Y301522D01*
X428680Y301429D01*
X428777Y301339D01*
X428877Y301252D01*
X428979Y301167D01*
X429084Y301086D01*
X429191Y301008D01*
X429300Y300932D01*
X429411Y300861D01*
X429525Y300792D01*
X429640Y300727D01*
X429758Y300665D01*
X429877Y300607D01*
X429998Y300552D01*
X430120Y300501D01*
X430244Y300453D01*
X430369Y300409D01*
X430495Y300369D01*
X430623Y300333D01*
X430751Y300300D01*
X430880Y300271D01*
X431011Y300246D01*
X431141Y300225D01*
X431273Y300207D01*
X431405Y300194D01*
X431537Y300184D01*
X431669Y300178D01*
X431802Y300176D01*
X431802Y300177D02*
X436317Y300177D01*
X416451Y309208D02*
X416326Y309206D01*
X416201Y309200D01*
X416076Y309191D01*
X415952Y309177D01*
X415828Y309160D01*
X415704Y309139D01*
X415582Y309114D01*
X415460Y309085D01*
X415339Y309053D01*
X415219Y309017D01*
X415100Y308977D01*
X414983Y308934D01*
X414867Y308887D01*
X414752Y308836D01*
X414640Y308782D01*
X414528Y308724D01*
X414419Y308664D01*
X414312Y308599D01*
X414206Y308532D01*
X414103Y308461D01*
X414002Y308387D01*
X413903Y308310D01*
X413807Y308230D01*
X413713Y308147D01*
X413622Y308062D01*
X413533Y307973D01*
X413448Y307882D01*
X413365Y307788D01*
X413285Y307692D01*
X413208Y307593D01*
X413134Y307492D01*
X413063Y307389D01*
X412996Y307283D01*
X412931Y307176D01*
X412871Y307067D01*
X412813Y306955D01*
X412759Y306843D01*
X412708Y306728D01*
X412661Y306612D01*
X412618Y306495D01*
X412578Y306376D01*
X412542Y306256D01*
X412510Y306135D01*
X412481Y306013D01*
X412456Y305891D01*
X412435Y305767D01*
X412418Y305643D01*
X412404Y305519D01*
X412395Y305394D01*
X412389Y305269D01*
X412387Y305144D01*
X416451Y309208D02*
X416594Y309206D01*
X416736Y309200D01*
X416879Y309190D01*
X417021Y309177D01*
X417162Y309159D01*
X417304Y309138D01*
X417444Y309113D01*
X417584Y309084D01*
X417723Y309051D01*
X417861Y309014D01*
X417998Y308974D01*
X418133Y308930D01*
X418268Y308882D01*
X418401Y308830D01*
X418533Y308775D01*
X418663Y308716D01*
X418791Y308654D01*
X418918Y308588D01*
X419043Y308519D01*
X419166Y308447D01*
X419287Y308371D01*
X419405Y308292D01*
X419522Y308209D01*
X419636Y308124D01*
X419748Y308035D01*
X419857Y307944D01*
X419964Y307849D01*
X420069Y307752D01*
X420170Y307651D01*
X420269Y307548D01*
X420365Y307443D01*
X420458Y307334D01*
X420548Y307223D01*
X420635Y307110D01*
X420719Y306995D01*
X420799Y306877D01*
X420877Y306757D01*
X420951Y306635D01*
X421021Y306511D01*
X421089Y306385D01*
X421152Y306257D01*
X421213Y306128D01*
X421270Y305997D01*
X421323Y305865D01*
X421372Y305731D01*
X421418Y305596D01*
X413742Y301983D02*
X413648Y302075D01*
X413558Y302169D01*
X413470Y302266D01*
X413385Y302366D01*
X413303Y302468D01*
X413224Y302573D01*
X413149Y302680D01*
X413077Y302789D01*
X413008Y302900D01*
X412942Y303014D01*
X412880Y303129D01*
X412821Y303246D01*
X412766Y303365D01*
X412715Y303485D01*
X412667Y303607D01*
X412622Y303730D01*
X412582Y303854D01*
X412545Y303980D01*
X412512Y304107D01*
X412483Y304234D01*
X412457Y304363D01*
X412436Y304492D01*
X412418Y304622D01*
X412405Y304752D01*
X412395Y304882D01*
X412389Y305013D01*
X412387Y305144D01*
X413741Y301983D02*
X421418Y292952D01*
X412387Y292952D01*
X400750Y299274D02*
X400750Y304692D01*
X400750Y299274D02*
X397589Y295210D01*
X400750Y299274D02*
X403911Y295210D01*
X400750Y299274D02*
X395783Y301080D01*
X400750Y299274D02*
X405717Y301080D01*
X359136Y265720D02*
X359136Y247940D01*
X359136Y265720D02*
X354198Y265720D01*
X354058Y265718D01*
X353919Y265712D01*
X353779Y265702D01*
X353640Y265688D01*
X353501Y265671D01*
X353363Y265649D01*
X353226Y265623D01*
X353089Y265594D01*
X352953Y265561D01*
X352819Y265524D01*
X352685Y265483D01*
X352553Y265438D01*
X352421Y265389D01*
X352292Y265337D01*
X352164Y265282D01*
X352037Y265222D01*
X351912Y265159D01*
X351789Y265093D01*
X351668Y265023D01*
X351549Y264950D01*
X351432Y264873D01*
X351318Y264793D01*
X351205Y264710D01*
X351095Y264624D01*
X350988Y264534D01*
X350883Y264442D01*
X350781Y264347D01*
X350681Y264249D01*
X350584Y264148D01*
X350490Y264044D01*
X350400Y263938D01*
X350312Y263829D01*
X350227Y263718D01*
X350146Y263604D01*
X350067Y263489D01*
X349992Y263371D01*
X349921Y263251D01*
X349853Y263128D01*
X349788Y263005D01*
X349727Y262879D01*
X349669Y262751D01*
X349615Y262623D01*
X349565Y262492D01*
X349518Y262360D01*
X349475Y262227D01*
X349436Y262093D01*
X349401Y261958D01*
X349370Y261822D01*
X349342Y261684D01*
X349319Y261547D01*
X349299Y261408D01*
X349283Y261269D01*
X349271Y261130D01*
X349263Y260991D01*
X349259Y260851D01*
X349259Y260711D01*
X349263Y260571D01*
X349271Y260432D01*
X349283Y260293D01*
X349299Y260154D01*
X349319Y260015D01*
X349342Y259878D01*
X349370Y259740D01*
X349401Y259604D01*
X349436Y259469D01*
X349475Y259335D01*
X349518Y259202D01*
X349565Y259070D01*
X349615Y258939D01*
X349669Y258811D01*
X349727Y258683D01*
X349788Y258557D01*
X349853Y258434D01*
X349921Y258311D01*
X349992Y258191D01*
X350067Y258073D01*
X350146Y257958D01*
X350227Y257844D01*
X350312Y257733D01*
X350400Y257624D01*
X350490Y257518D01*
X350584Y257414D01*
X350681Y257313D01*
X350781Y257215D01*
X350883Y257120D01*
X350988Y257028D01*
X351095Y256938D01*
X351205Y256852D01*
X351318Y256769D01*
X351432Y256689D01*
X351549Y256612D01*
X351668Y256539D01*
X351789Y256469D01*
X351912Y256403D01*
X352037Y256340D01*
X352164Y256280D01*
X352292Y256225D01*
X352421Y256173D01*
X352553Y256124D01*
X352685Y256079D01*
X352819Y256038D01*
X352953Y256001D01*
X353089Y255968D01*
X353226Y255939D01*
X353363Y255913D01*
X353501Y255891D01*
X353640Y255874D01*
X353779Y255860D01*
X353919Y255850D01*
X354058Y255844D01*
X354198Y255842D01*
X359136Y255842D01*
X343141Y247940D02*
X338202Y247940D01*
X338062Y247942D01*
X337923Y247948D01*
X337783Y247958D01*
X337644Y247972D01*
X337505Y247989D01*
X337367Y248011D01*
X337230Y248037D01*
X337093Y248066D01*
X336957Y248099D01*
X336823Y248136D01*
X336689Y248177D01*
X336557Y248222D01*
X336425Y248271D01*
X336296Y248323D01*
X336168Y248378D01*
X336041Y248438D01*
X335916Y248501D01*
X335793Y248567D01*
X335672Y248637D01*
X335553Y248710D01*
X335436Y248787D01*
X335322Y248867D01*
X335209Y248950D01*
X335099Y249036D01*
X334992Y249126D01*
X334887Y249218D01*
X334785Y249313D01*
X334685Y249411D01*
X334588Y249512D01*
X334494Y249616D01*
X334404Y249722D01*
X334316Y249831D01*
X334231Y249942D01*
X334150Y250056D01*
X334071Y250171D01*
X333996Y250289D01*
X333925Y250409D01*
X333857Y250532D01*
X333792Y250655D01*
X333731Y250781D01*
X333673Y250909D01*
X333619Y251037D01*
X333569Y251168D01*
X333522Y251300D01*
X333479Y251433D01*
X333440Y251567D01*
X333405Y251702D01*
X333374Y251838D01*
X333346Y251976D01*
X333323Y252113D01*
X333303Y252252D01*
X333287Y252391D01*
X333275Y252530D01*
X333267Y252669D01*
X333263Y252809D01*
X333263Y252949D01*
X333267Y253089D01*
X333275Y253228D01*
X333287Y253367D01*
X333303Y253506D01*
X333323Y253645D01*
X333346Y253782D01*
X333374Y253920D01*
X333405Y254056D01*
X333440Y254191D01*
X333479Y254325D01*
X333522Y254458D01*
X333569Y254590D01*
X333619Y254721D01*
X333673Y254849D01*
X333731Y254977D01*
X333792Y255103D01*
X333857Y255226D01*
X333925Y255349D01*
X333996Y255469D01*
X334071Y255587D01*
X334150Y255702D01*
X334231Y255816D01*
X334316Y255927D01*
X334404Y256036D01*
X334494Y256142D01*
X334588Y256246D01*
X334685Y256347D01*
X334785Y256445D01*
X334887Y256540D01*
X334992Y256632D01*
X335099Y256722D01*
X335209Y256808D01*
X335322Y256891D01*
X335436Y256971D01*
X335553Y257048D01*
X335672Y257121D01*
X335793Y257191D01*
X335916Y257257D01*
X336041Y257320D01*
X336168Y257380D01*
X336296Y257435D01*
X336425Y257487D01*
X336557Y257536D01*
X336689Y257581D01*
X336823Y257622D01*
X336957Y257659D01*
X337093Y257692D01*
X337230Y257721D01*
X337367Y257747D01*
X337505Y257769D01*
X337644Y257786D01*
X337783Y257800D01*
X337923Y257810D01*
X338062Y257816D01*
X338202Y257818D01*
X337215Y265720D02*
X343141Y265720D01*
X337215Y265720D02*
X337091Y265718D01*
X336967Y265712D01*
X336843Y265702D01*
X336720Y265689D01*
X336597Y265671D01*
X336475Y265650D01*
X336353Y265625D01*
X336232Y265596D01*
X336113Y265563D01*
X335994Y265527D01*
X335877Y265486D01*
X335761Y265443D01*
X335646Y265395D01*
X335533Y265344D01*
X335421Y265289D01*
X335312Y265231D01*
X335204Y265170D01*
X335098Y265105D01*
X334994Y265037D01*
X334893Y264965D01*
X334793Y264891D01*
X334697Y264813D01*
X334602Y264733D01*
X334510Y264649D01*
X334421Y264563D01*
X334335Y264474D01*
X334251Y264382D01*
X334171Y264287D01*
X334093Y264191D01*
X334019Y264091D01*
X333947Y263990D01*
X333879Y263886D01*
X333814Y263780D01*
X333753Y263672D01*
X333695Y263563D01*
X333640Y263451D01*
X333589Y263338D01*
X333541Y263223D01*
X333498Y263107D01*
X333457Y262990D01*
X333421Y262871D01*
X333388Y262752D01*
X333359Y262631D01*
X333334Y262509D01*
X333313Y262387D01*
X333295Y262264D01*
X333282Y262141D01*
X333272Y262017D01*
X333266Y261893D01*
X333264Y261769D01*
X333266Y261645D01*
X333272Y261521D01*
X333282Y261397D01*
X333295Y261274D01*
X333313Y261151D01*
X333334Y261029D01*
X333359Y260907D01*
X333388Y260786D01*
X333421Y260667D01*
X333457Y260548D01*
X333498Y260431D01*
X333541Y260315D01*
X333589Y260200D01*
X333640Y260087D01*
X333695Y259975D01*
X333753Y259866D01*
X333814Y259758D01*
X333879Y259652D01*
X333947Y259548D01*
X334019Y259447D01*
X334093Y259347D01*
X334171Y259251D01*
X334251Y259156D01*
X334335Y259064D01*
X334421Y258975D01*
X334510Y258889D01*
X334602Y258805D01*
X334697Y258725D01*
X334793Y258647D01*
X334893Y258573D01*
X334994Y258501D01*
X335098Y258433D01*
X335204Y258368D01*
X335312Y258307D01*
X335421Y258249D01*
X335533Y258194D01*
X335646Y258143D01*
X335761Y258095D01*
X335877Y258052D01*
X335994Y258011D01*
X336113Y257975D01*
X336232Y257942D01*
X336353Y257913D01*
X336475Y257888D01*
X336597Y257867D01*
X336720Y257849D01*
X336843Y257836D01*
X336967Y257826D01*
X337091Y257820D01*
X337215Y257818D01*
X341166Y257818D01*
X267696Y329020D02*
X267696Y346800D01*
X262758Y346800D01*
X262618Y346798D01*
X262479Y346792D01*
X262339Y346782D01*
X262200Y346768D01*
X262061Y346751D01*
X261923Y346729D01*
X261786Y346703D01*
X261649Y346674D01*
X261513Y346641D01*
X261379Y346604D01*
X261245Y346563D01*
X261113Y346518D01*
X260981Y346469D01*
X260852Y346417D01*
X260724Y346362D01*
X260597Y346302D01*
X260472Y346239D01*
X260349Y346173D01*
X260228Y346103D01*
X260109Y346030D01*
X259992Y345953D01*
X259878Y345873D01*
X259765Y345790D01*
X259655Y345704D01*
X259548Y345614D01*
X259443Y345522D01*
X259341Y345427D01*
X259241Y345329D01*
X259144Y345228D01*
X259050Y345124D01*
X258960Y345018D01*
X258872Y344909D01*
X258787Y344798D01*
X258706Y344684D01*
X258627Y344569D01*
X258552Y344451D01*
X258481Y344331D01*
X258413Y344208D01*
X258348Y344085D01*
X258287Y343959D01*
X258229Y343831D01*
X258175Y343703D01*
X258125Y343572D01*
X258078Y343440D01*
X258035Y343307D01*
X257996Y343173D01*
X257961Y343038D01*
X257930Y342902D01*
X257902Y342764D01*
X257879Y342627D01*
X257859Y342488D01*
X257843Y342349D01*
X257831Y342210D01*
X257823Y342071D01*
X257819Y341931D01*
X257819Y341791D01*
X257823Y341651D01*
X257831Y341512D01*
X257843Y341373D01*
X257859Y341234D01*
X257879Y341095D01*
X257902Y340958D01*
X257930Y340820D01*
X257961Y340684D01*
X257996Y340549D01*
X258035Y340415D01*
X258078Y340282D01*
X258125Y340150D01*
X258175Y340019D01*
X258229Y339891D01*
X258287Y339763D01*
X258348Y339637D01*
X258413Y339514D01*
X258481Y339392D01*
X258552Y339271D01*
X258627Y339153D01*
X258706Y339038D01*
X258787Y338924D01*
X258872Y338813D01*
X258960Y338704D01*
X259050Y338598D01*
X259144Y338494D01*
X259241Y338393D01*
X259341Y338295D01*
X259443Y338200D01*
X259548Y338108D01*
X259655Y338018D01*
X259765Y337932D01*
X259878Y337849D01*
X259992Y337769D01*
X260109Y337692D01*
X260228Y337619D01*
X260349Y337549D01*
X260472Y337483D01*
X260597Y337420D01*
X260724Y337360D01*
X260852Y337305D01*
X260981Y337253D01*
X261113Y337204D01*
X261245Y337159D01*
X261379Y337118D01*
X261513Y337081D01*
X261649Y337048D01*
X261786Y337019D01*
X261923Y336993D01*
X262061Y336971D01*
X262200Y336954D01*
X262339Y336940D01*
X262479Y336930D01*
X262618Y336924D01*
X262758Y336922D01*
X267696Y336922D01*
X251701Y332971D02*
X247750Y346800D01*
X251701Y332971D02*
X241824Y332971D01*
X244787Y336922D02*
X244787Y329020D01*
X295526Y400840D02*
X295526Y418620D01*
X290588Y418620D01*
X290448Y418618D01*
X290309Y418612D01*
X290169Y418602D01*
X290030Y418588D01*
X289891Y418571D01*
X289753Y418549D01*
X289616Y418523D01*
X289479Y418494D01*
X289343Y418461D01*
X289209Y418424D01*
X289075Y418383D01*
X288943Y418338D01*
X288811Y418289D01*
X288682Y418237D01*
X288554Y418182D01*
X288427Y418122D01*
X288302Y418059D01*
X288179Y417993D01*
X288058Y417923D01*
X287939Y417850D01*
X287822Y417773D01*
X287708Y417693D01*
X287595Y417610D01*
X287485Y417524D01*
X287378Y417434D01*
X287273Y417342D01*
X287171Y417247D01*
X287071Y417149D01*
X286974Y417048D01*
X286880Y416944D01*
X286790Y416838D01*
X286702Y416729D01*
X286617Y416618D01*
X286536Y416504D01*
X286457Y416389D01*
X286382Y416271D01*
X286311Y416151D01*
X286243Y416028D01*
X286178Y415905D01*
X286117Y415779D01*
X286059Y415651D01*
X286005Y415523D01*
X285955Y415392D01*
X285908Y415260D01*
X285865Y415127D01*
X285826Y414993D01*
X285791Y414858D01*
X285760Y414722D01*
X285732Y414584D01*
X285709Y414447D01*
X285689Y414308D01*
X285673Y414169D01*
X285661Y414030D01*
X285653Y413891D01*
X285649Y413751D01*
X285649Y413611D01*
X285653Y413471D01*
X285661Y413332D01*
X285673Y413193D01*
X285689Y413054D01*
X285709Y412915D01*
X285732Y412778D01*
X285760Y412640D01*
X285791Y412504D01*
X285826Y412369D01*
X285865Y412235D01*
X285908Y412102D01*
X285955Y411970D01*
X286005Y411839D01*
X286059Y411711D01*
X286117Y411583D01*
X286178Y411457D01*
X286243Y411334D01*
X286311Y411212D01*
X286382Y411091D01*
X286457Y410973D01*
X286536Y410858D01*
X286617Y410744D01*
X286702Y410633D01*
X286790Y410524D01*
X286880Y410418D01*
X286974Y410314D01*
X287071Y410213D01*
X287171Y410115D01*
X287273Y410020D01*
X287378Y409928D01*
X287485Y409838D01*
X287595Y409752D01*
X287708Y409669D01*
X287822Y409589D01*
X287939Y409512D01*
X288058Y409439D01*
X288179Y409369D01*
X288302Y409303D01*
X288427Y409240D01*
X288554Y409180D01*
X288682Y409125D01*
X288811Y409073D01*
X288943Y409024D01*
X289075Y408979D01*
X289209Y408938D01*
X289343Y408901D01*
X289479Y408868D01*
X289616Y408839D01*
X289753Y408813D01*
X289891Y408791D01*
X290030Y408774D01*
X290169Y408760D01*
X290309Y408750D01*
X290448Y408744D01*
X290588Y408742D01*
X295526Y408742D01*
X279531Y400840D02*
X273605Y400840D01*
X273481Y400842D01*
X273357Y400848D01*
X273233Y400858D01*
X273110Y400871D01*
X272987Y400889D01*
X272865Y400910D01*
X272743Y400935D01*
X272622Y400964D01*
X272503Y400997D01*
X272384Y401033D01*
X272267Y401074D01*
X272151Y401117D01*
X272036Y401165D01*
X271923Y401216D01*
X271811Y401271D01*
X271702Y401329D01*
X271594Y401390D01*
X271488Y401455D01*
X271384Y401523D01*
X271283Y401595D01*
X271183Y401669D01*
X271087Y401747D01*
X270992Y401827D01*
X270900Y401911D01*
X270811Y401997D01*
X270725Y402086D01*
X270641Y402178D01*
X270561Y402273D01*
X270483Y402369D01*
X270409Y402469D01*
X270337Y402570D01*
X270269Y402674D01*
X270204Y402780D01*
X270143Y402888D01*
X270085Y402997D01*
X270030Y403109D01*
X269979Y403222D01*
X269931Y403337D01*
X269888Y403453D01*
X269847Y403570D01*
X269811Y403689D01*
X269778Y403808D01*
X269749Y403929D01*
X269724Y404051D01*
X269703Y404173D01*
X269685Y404296D01*
X269672Y404419D01*
X269662Y404543D01*
X269656Y404667D01*
X269654Y404791D01*
X269654Y406767D01*
X269656Y406891D01*
X269662Y407015D01*
X269672Y407139D01*
X269685Y407262D01*
X269703Y407385D01*
X269724Y407507D01*
X269749Y407629D01*
X269778Y407750D01*
X269811Y407869D01*
X269847Y407988D01*
X269888Y408105D01*
X269931Y408221D01*
X269979Y408336D01*
X270030Y408449D01*
X270085Y408561D01*
X270143Y408670D01*
X270204Y408778D01*
X270269Y408884D01*
X270337Y408988D01*
X270409Y409089D01*
X270483Y409189D01*
X270561Y409285D01*
X270641Y409380D01*
X270725Y409472D01*
X270811Y409561D01*
X270900Y409647D01*
X270992Y409731D01*
X271087Y409811D01*
X271183Y409889D01*
X271283Y409963D01*
X271384Y410035D01*
X271488Y410103D01*
X271594Y410168D01*
X271702Y410229D01*
X271811Y410287D01*
X271923Y410342D01*
X272036Y410393D01*
X272151Y410441D01*
X272267Y410484D01*
X272384Y410525D01*
X272503Y410561D01*
X272622Y410594D01*
X272743Y410623D01*
X272865Y410648D01*
X272987Y410669D01*
X273110Y410687D01*
X273233Y410700D01*
X273357Y410710D01*
X273481Y410716D01*
X273605Y410718D01*
X279531Y410718D01*
X279531Y418620D01*
X269654Y418620D01*
X401808Y290203D02*
X401808Y272423D01*
X401808Y290203D02*
X396870Y290203D01*
X396730Y290201D01*
X396591Y290195D01*
X396451Y290185D01*
X396312Y290171D01*
X396173Y290154D01*
X396035Y290132D01*
X395898Y290106D01*
X395761Y290077D01*
X395625Y290044D01*
X395491Y290007D01*
X395357Y289966D01*
X395225Y289921D01*
X395093Y289872D01*
X394964Y289820D01*
X394836Y289765D01*
X394709Y289705D01*
X394584Y289642D01*
X394461Y289576D01*
X394340Y289506D01*
X394221Y289433D01*
X394104Y289356D01*
X393990Y289276D01*
X393877Y289193D01*
X393767Y289107D01*
X393660Y289017D01*
X393555Y288925D01*
X393453Y288830D01*
X393353Y288732D01*
X393256Y288631D01*
X393162Y288527D01*
X393072Y288421D01*
X392984Y288312D01*
X392899Y288201D01*
X392818Y288087D01*
X392739Y287972D01*
X392664Y287854D01*
X392593Y287734D01*
X392525Y287611D01*
X392460Y287488D01*
X392399Y287362D01*
X392341Y287234D01*
X392287Y287106D01*
X392237Y286975D01*
X392190Y286843D01*
X392147Y286710D01*
X392108Y286576D01*
X392073Y286441D01*
X392042Y286305D01*
X392014Y286167D01*
X391991Y286030D01*
X391971Y285891D01*
X391955Y285752D01*
X391943Y285613D01*
X391935Y285474D01*
X391931Y285334D01*
X391931Y285194D01*
X391935Y285054D01*
X391943Y284915D01*
X391955Y284776D01*
X391971Y284637D01*
X391991Y284498D01*
X392014Y284361D01*
X392042Y284223D01*
X392073Y284087D01*
X392108Y283952D01*
X392147Y283818D01*
X392190Y283685D01*
X392237Y283553D01*
X392287Y283422D01*
X392341Y283294D01*
X392399Y283166D01*
X392460Y283040D01*
X392525Y282917D01*
X392593Y282795D01*
X392664Y282674D01*
X392739Y282556D01*
X392818Y282441D01*
X392899Y282327D01*
X392984Y282216D01*
X393072Y282107D01*
X393162Y282001D01*
X393256Y281897D01*
X393353Y281796D01*
X393453Y281698D01*
X393555Y281603D01*
X393660Y281511D01*
X393767Y281421D01*
X393877Y281335D01*
X393990Y281252D01*
X394104Y281172D01*
X394221Y281095D01*
X394340Y281022D01*
X394461Y280952D01*
X394584Y280886D01*
X394709Y280823D01*
X394836Y280763D01*
X394964Y280708D01*
X395093Y280656D01*
X395225Y280607D01*
X395357Y280562D01*
X395491Y280521D01*
X395625Y280484D01*
X395761Y280451D01*
X395898Y280422D01*
X396035Y280396D01*
X396173Y280374D01*
X396312Y280357D01*
X396451Y280343D01*
X396591Y280333D01*
X396730Y280327D01*
X396870Y280325D01*
X401808Y280325D01*
X385813Y281313D02*
X385809Y281663D01*
X385796Y282012D01*
X385775Y282361D01*
X385746Y282710D01*
X385709Y283058D01*
X385663Y283405D01*
X385609Y283750D01*
X385547Y284094D01*
X385476Y284437D01*
X385397Y284778D01*
X385311Y285117D01*
X385216Y285453D01*
X385113Y285788D01*
X385002Y286119D01*
X384884Y286449D01*
X384757Y286775D01*
X384623Y287098D01*
X384481Y287417D01*
X384331Y287734D01*
X384332Y287733D02*
X384292Y287846D01*
X384248Y287956D01*
X384200Y288066D01*
X384149Y288173D01*
X384094Y288279D01*
X384036Y288384D01*
X383974Y288486D01*
X383909Y288586D01*
X383841Y288684D01*
X383770Y288780D01*
X383695Y288873D01*
X383618Y288964D01*
X383538Y289052D01*
X383455Y289137D01*
X383369Y289220D01*
X383280Y289300D01*
X383189Y289377D01*
X383095Y289451D01*
X382999Y289522D01*
X382901Y289590D01*
X382801Y289654D01*
X382698Y289716D01*
X382594Y289773D01*
X382488Y289828D01*
X382380Y289879D01*
X382270Y289926D01*
X382159Y289970D01*
X382047Y290010D01*
X381933Y290046D01*
X381819Y290079D01*
X381703Y290108D01*
X381586Y290133D01*
X381469Y290154D01*
X381351Y290172D01*
X381232Y290185D01*
X381113Y290195D01*
X380994Y290201D01*
X380875Y290203D01*
X380756Y290201D01*
X380637Y290195D01*
X380518Y290185D01*
X380399Y290172D01*
X380281Y290154D01*
X380164Y290133D01*
X380047Y290108D01*
X379931Y290079D01*
X379817Y290046D01*
X379703Y290010D01*
X379591Y289970D01*
X379480Y289926D01*
X379370Y289879D01*
X379262Y289828D01*
X379156Y289773D01*
X379052Y289716D01*
X378949Y289654D01*
X378849Y289590D01*
X378751Y289522D01*
X378655Y289451D01*
X378561Y289377D01*
X378470Y289300D01*
X378381Y289220D01*
X378296Y289137D01*
X378212Y289052D01*
X378132Y288964D01*
X378055Y288873D01*
X377980Y288780D01*
X377909Y288684D01*
X377841Y288586D01*
X377776Y288486D01*
X377714Y288384D01*
X377656Y288279D01*
X377601Y288174D01*
X377550Y288066D01*
X377502Y287956D01*
X377458Y287846D01*
X377418Y287733D01*
X377418Y287734D02*
X377268Y287417D01*
X377126Y287098D01*
X376992Y286775D01*
X376865Y286449D01*
X376747Y286119D01*
X376636Y285788D01*
X376533Y285453D01*
X376438Y285117D01*
X376352Y284778D01*
X376273Y284437D01*
X376202Y284094D01*
X376140Y283750D01*
X376086Y283405D01*
X376040Y283058D01*
X376003Y282710D01*
X375974Y282361D01*
X375953Y282012D01*
X375940Y281663D01*
X375936Y281313D01*
X385813Y281313D02*
X385809Y280963D01*
X385796Y280614D01*
X385775Y280265D01*
X385746Y279916D01*
X385709Y279568D01*
X385663Y279221D01*
X385609Y278876D01*
X385547Y278532D01*
X385476Y278189D01*
X385397Y277848D01*
X385311Y277509D01*
X385216Y277173D01*
X385113Y276838D01*
X385002Y276507D01*
X384884Y276178D01*
X384757Y275851D01*
X384623Y275528D01*
X384481Y275209D01*
X384331Y274893D01*
X384332Y274892D02*
X384292Y274779D01*
X384248Y274669D01*
X384200Y274559D01*
X384149Y274452D01*
X384094Y274346D01*
X384036Y274241D01*
X383974Y274139D01*
X383909Y274039D01*
X383841Y273941D01*
X383770Y273845D01*
X383695Y273752D01*
X383618Y273661D01*
X383538Y273573D01*
X383455Y273488D01*
X383369Y273405D01*
X383280Y273325D01*
X383189Y273248D01*
X383095Y273174D01*
X382999Y273103D01*
X382901Y273035D01*
X382801Y272971D01*
X382698Y272909D01*
X382594Y272852D01*
X382488Y272797D01*
X382380Y272746D01*
X382270Y272699D01*
X382159Y272655D01*
X382047Y272615D01*
X381933Y272579D01*
X381819Y272546D01*
X381703Y272517D01*
X381586Y272492D01*
X381469Y272471D01*
X381351Y272453D01*
X381232Y272440D01*
X381113Y272430D01*
X380994Y272424D01*
X380875Y272422D01*
X377418Y274893D02*
X377268Y275209D01*
X377126Y275528D01*
X376992Y275851D01*
X376865Y276178D01*
X376747Y276507D01*
X376636Y276838D01*
X376533Y277173D01*
X376438Y277509D01*
X376352Y277848D01*
X376273Y278189D01*
X376202Y278532D01*
X376140Y278876D01*
X376086Y279221D01*
X376040Y279568D01*
X376003Y279916D01*
X375974Y280265D01*
X375953Y280614D01*
X375940Y280963D01*
X375936Y281313D01*
X377418Y274892D02*
X377458Y274779D01*
X377502Y274669D01*
X377550Y274559D01*
X377601Y274451D01*
X377656Y274345D01*
X377714Y274241D01*
X377776Y274139D01*
X377841Y274039D01*
X377909Y273941D01*
X377980Y273845D01*
X378055Y273752D01*
X378132Y273661D01*
X378212Y273573D01*
X378296Y273488D01*
X378381Y273405D01*
X378470Y273325D01*
X378561Y273248D01*
X378655Y273174D01*
X378751Y273103D01*
X378849Y273035D01*
X378949Y272971D01*
X379052Y272909D01*
X379156Y272851D01*
X379262Y272797D01*
X379370Y272746D01*
X379480Y272699D01*
X379591Y272655D01*
X379703Y272615D01*
X379817Y272579D01*
X379931Y272546D01*
X380047Y272517D01*
X380164Y272492D01*
X380281Y272471D01*
X380399Y272453D01*
X380518Y272440D01*
X380637Y272430D01*
X380756Y272424D01*
X380875Y272422D01*
X384826Y276374D02*
X376923Y286252D01*
X369063Y277362D02*
X369061Y277502D01*
X369055Y277641D01*
X369045Y277781D01*
X369031Y277920D01*
X369014Y278059D01*
X368992Y278197D01*
X368966Y278334D01*
X368937Y278471D01*
X368904Y278607D01*
X368867Y278741D01*
X368826Y278875D01*
X368781Y279007D01*
X368732Y279139D01*
X368680Y279268D01*
X368625Y279396D01*
X368565Y279523D01*
X368502Y279648D01*
X368436Y279771D01*
X368366Y279892D01*
X368293Y280011D01*
X368216Y280128D01*
X368136Y280242D01*
X368053Y280355D01*
X367967Y280465D01*
X367877Y280572D01*
X367785Y280677D01*
X367690Y280779D01*
X367592Y280879D01*
X367491Y280976D01*
X367387Y281070D01*
X367281Y281160D01*
X367172Y281248D01*
X367061Y281333D01*
X366947Y281414D01*
X366832Y281493D01*
X366714Y281568D01*
X366594Y281639D01*
X366471Y281707D01*
X366348Y281772D01*
X366222Y281833D01*
X366094Y281891D01*
X365966Y281945D01*
X365835Y281995D01*
X365703Y282042D01*
X365570Y282085D01*
X365436Y282124D01*
X365301Y282159D01*
X365165Y282190D01*
X365027Y282218D01*
X364890Y282241D01*
X364751Y282261D01*
X364612Y282277D01*
X364473Y282289D01*
X364334Y282297D01*
X364194Y282301D01*
X364054Y282301D01*
X363914Y282297D01*
X363775Y282289D01*
X363636Y282277D01*
X363497Y282261D01*
X363358Y282241D01*
X363221Y282218D01*
X363083Y282190D01*
X362947Y282159D01*
X362812Y282124D01*
X362678Y282085D01*
X362545Y282042D01*
X362413Y281995D01*
X362282Y281945D01*
X362154Y281891D01*
X362026Y281833D01*
X361900Y281772D01*
X361777Y281707D01*
X361655Y281639D01*
X361534Y281568D01*
X361416Y281493D01*
X361301Y281414D01*
X361187Y281333D01*
X361076Y281248D01*
X360967Y281160D01*
X360861Y281070D01*
X360757Y280976D01*
X360656Y280879D01*
X360558Y280779D01*
X360463Y280677D01*
X360371Y280572D01*
X360281Y280465D01*
X360195Y280355D01*
X360112Y280242D01*
X360032Y280128D01*
X359955Y280011D01*
X359882Y279892D01*
X359812Y279771D01*
X359746Y279648D01*
X359683Y279523D01*
X359623Y279396D01*
X359568Y279268D01*
X359516Y279139D01*
X359467Y279007D01*
X359422Y278875D01*
X359381Y278741D01*
X359344Y278607D01*
X359311Y278471D01*
X359282Y278334D01*
X359256Y278197D01*
X359234Y278059D01*
X359217Y277920D01*
X359203Y277781D01*
X359193Y277641D01*
X359187Y277502D01*
X359185Y277362D01*
X359187Y277222D01*
X359193Y277083D01*
X359203Y276943D01*
X359217Y276804D01*
X359234Y276665D01*
X359256Y276527D01*
X359282Y276390D01*
X359311Y276253D01*
X359344Y276117D01*
X359381Y275983D01*
X359422Y275849D01*
X359467Y275717D01*
X359516Y275585D01*
X359568Y275456D01*
X359623Y275328D01*
X359683Y275201D01*
X359746Y275076D01*
X359812Y274953D01*
X359882Y274832D01*
X359955Y274713D01*
X360032Y274596D01*
X360112Y274482D01*
X360195Y274369D01*
X360281Y274259D01*
X360371Y274152D01*
X360463Y274047D01*
X360558Y273945D01*
X360656Y273845D01*
X360757Y273748D01*
X360861Y273654D01*
X360967Y273564D01*
X361076Y273476D01*
X361187Y273391D01*
X361301Y273310D01*
X361416Y273231D01*
X361534Y273156D01*
X361655Y273085D01*
X361777Y273017D01*
X361900Y272952D01*
X362026Y272891D01*
X362154Y272833D01*
X362282Y272779D01*
X362413Y272729D01*
X362545Y272682D01*
X362678Y272639D01*
X362812Y272600D01*
X362947Y272565D01*
X363083Y272534D01*
X363221Y272506D01*
X363358Y272483D01*
X363497Y272463D01*
X363636Y272447D01*
X363775Y272435D01*
X363914Y272427D01*
X364054Y272423D01*
X364194Y272423D01*
X364334Y272427D01*
X364473Y272435D01*
X364612Y272447D01*
X364751Y272463D01*
X364890Y272483D01*
X365027Y272506D01*
X365165Y272534D01*
X365301Y272565D01*
X365436Y272600D01*
X365570Y272639D01*
X365703Y272682D01*
X365835Y272729D01*
X365966Y272779D01*
X366094Y272833D01*
X366222Y272891D01*
X366348Y272952D01*
X366471Y273017D01*
X366594Y273085D01*
X366714Y273156D01*
X366832Y273231D01*
X366947Y273310D01*
X367061Y273391D01*
X367172Y273476D01*
X367281Y273564D01*
X367387Y273654D01*
X367491Y273748D01*
X367592Y273845D01*
X367690Y273945D01*
X367785Y274047D01*
X367877Y274152D01*
X367967Y274259D01*
X368053Y274369D01*
X368136Y274482D01*
X368216Y274596D01*
X368293Y274713D01*
X368366Y274832D01*
X368436Y274953D01*
X368502Y275076D01*
X368565Y275201D01*
X368625Y275328D01*
X368680Y275456D01*
X368732Y275585D01*
X368781Y275717D01*
X368826Y275849D01*
X368867Y275983D01*
X368904Y276117D01*
X368937Y276253D01*
X368966Y276390D01*
X368992Y276527D01*
X369014Y276665D01*
X369031Y276804D01*
X369045Y276943D01*
X369055Y277083D01*
X369061Y277222D01*
X369063Y277362D01*
X368075Y286252D02*
X368073Y286376D01*
X368067Y286500D01*
X368057Y286624D01*
X368044Y286747D01*
X368026Y286870D01*
X368005Y286992D01*
X367980Y287114D01*
X367951Y287235D01*
X367918Y287354D01*
X367882Y287473D01*
X367841Y287590D01*
X367798Y287706D01*
X367750Y287821D01*
X367699Y287934D01*
X367644Y288046D01*
X367586Y288155D01*
X367525Y288263D01*
X367460Y288369D01*
X367392Y288473D01*
X367320Y288574D01*
X367246Y288674D01*
X367168Y288770D01*
X367088Y288865D01*
X367004Y288957D01*
X366918Y289046D01*
X366829Y289132D01*
X366737Y289216D01*
X366642Y289296D01*
X366546Y289374D01*
X366446Y289448D01*
X366345Y289520D01*
X366241Y289588D01*
X366135Y289653D01*
X366027Y289714D01*
X365918Y289772D01*
X365806Y289827D01*
X365693Y289878D01*
X365578Y289926D01*
X365462Y289969D01*
X365345Y290010D01*
X365226Y290046D01*
X365107Y290079D01*
X364986Y290108D01*
X364864Y290133D01*
X364742Y290154D01*
X364619Y290172D01*
X364496Y290185D01*
X364372Y290195D01*
X364248Y290201D01*
X364124Y290203D01*
X364000Y290201D01*
X363876Y290195D01*
X363752Y290185D01*
X363629Y290172D01*
X363506Y290154D01*
X363384Y290133D01*
X363262Y290108D01*
X363141Y290079D01*
X363022Y290046D01*
X362903Y290010D01*
X362786Y289969D01*
X362670Y289926D01*
X362555Y289878D01*
X362442Y289827D01*
X362330Y289772D01*
X362221Y289714D01*
X362113Y289653D01*
X362007Y289588D01*
X361903Y289520D01*
X361802Y289448D01*
X361702Y289374D01*
X361606Y289296D01*
X361511Y289216D01*
X361419Y289132D01*
X361330Y289046D01*
X361244Y288957D01*
X361160Y288865D01*
X361080Y288770D01*
X361002Y288674D01*
X360928Y288574D01*
X360856Y288473D01*
X360788Y288369D01*
X360723Y288263D01*
X360662Y288155D01*
X360604Y288046D01*
X360549Y287934D01*
X360498Y287821D01*
X360450Y287706D01*
X360407Y287590D01*
X360366Y287473D01*
X360330Y287354D01*
X360297Y287235D01*
X360268Y287114D01*
X360243Y286992D01*
X360222Y286870D01*
X360204Y286747D01*
X360191Y286624D01*
X360181Y286500D01*
X360175Y286376D01*
X360173Y286252D01*
X360175Y286128D01*
X360181Y286004D01*
X360191Y285880D01*
X360204Y285757D01*
X360222Y285634D01*
X360243Y285512D01*
X360268Y285390D01*
X360297Y285269D01*
X360330Y285150D01*
X360366Y285031D01*
X360407Y284914D01*
X360450Y284798D01*
X360498Y284683D01*
X360549Y284570D01*
X360604Y284458D01*
X360662Y284349D01*
X360723Y284241D01*
X360788Y284135D01*
X360856Y284031D01*
X360928Y283930D01*
X361002Y283830D01*
X361080Y283734D01*
X361160Y283639D01*
X361244Y283547D01*
X361330Y283458D01*
X361419Y283372D01*
X361511Y283288D01*
X361606Y283208D01*
X361702Y283130D01*
X361802Y283056D01*
X361903Y282984D01*
X362007Y282916D01*
X362113Y282851D01*
X362221Y282790D01*
X362330Y282732D01*
X362442Y282677D01*
X362555Y282626D01*
X362670Y282578D01*
X362786Y282535D01*
X362903Y282494D01*
X363022Y282458D01*
X363141Y282425D01*
X363262Y282396D01*
X363384Y282371D01*
X363506Y282350D01*
X363629Y282332D01*
X363752Y282319D01*
X363876Y282309D01*
X364000Y282303D01*
X364124Y282301D01*
X364248Y282303D01*
X364372Y282309D01*
X364496Y282319D01*
X364619Y282332D01*
X364742Y282350D01*
X364864Y282371D01*
X364986Y282396D01*
X365107Y282425D01*
X365226Y282458D01*
X365345Y282494D01*
X365462Y282535D01*
X365578Y282578D01*
X365693Y282626D01*
X365806Y282677D01*
X365918Y282732D01*
X366027Y282790D01*
X366135Y282851D01*
X366241Y282916D01*
X366345Y282984D01*
X366446Y283056D01*
X366546Y283130D01*
X366642Y283208D01*
X366737Y283288D01*
X366829Y283372D01*
X366918Y283458D01*
X367004Y283547D01*
X367088Y283639D01*
X367168Y283734D01*
X367246Y283830D01*
X367320Y283930D01*
X367392Y284031D01*
X367460Y284135D01*
X367525Y284241D01*
X367586Y284349D01*
X367644Y284458D01*
X367699Y284570D01*
X367750Y284683D01*
X367798Y284798D01*
X367841Y284914D01*
X367882Y285031D01*
X367918Y285150D01*
X367951Y285269D01*
X367980Y285390D01*
X368005Y285512D01*
X368026Y285634D01*
X368044Y285757D01*
X368057Y285880D01*
X368067Y286004D01*
X368073Y286128D01*
X368075Y286252D01*
X351669Y290203D02*
X351669Y272423D01*
X351669Y290203D02*
X346730Y290203D01*
X346590Y290201D01*
X346451Y290195D01*
X346311Y290185D01*
X346172Y290171D01*
X346033Y290154D01*
X345895Y290132D01*
X345758Y290106D01*
X345621Y290077D01*
X345485Y290044D01*
X345351Y290007D01*
X345217Y289966D01*
X345085Y289921D01*
X344953Y289872D01*
X344824Y289820D01*
X344696Y289765D01*
X344569Y289705D01*
X344444Y289642D01*
X344321Y289576D01*
X344200Y289506D01*
X344081Y289433D01*
X343964Y289356D01*
X343850Y289276D01*
X343737Y289193D01*
X343627Y289107D01*
X343520Y289017D01*
X343415Y288925D01*
X343313Y288830D01*
X343213Y288732D01*
X343116Y288631D01*
X343022Y288527D01*
X342932Y288421D01*
X342844Y288312D01*
X342759Y288201D01*
X342678Y288087D01*
X342599Y287972D01*
X342524Y287854D01*
X342453Y287734D01*
X342385Y287611D01*
X342320Y287488D01*
X342259Y287362D01*
X342201Y287234D01*
X342147Y287106D01*
X342097Y286975D01*
X342050Y286843D01*
X342007Y286710D01*
X341968Y286576D01*
X341933Y286441D01*
X341902Y286305D01*
X341874Y286167D01*
X341851Y286030D01*
X341831Y285891D01*
X341815Y285752D01*
X341803Y285613D01*
X341795Y285474D01*
X341791Y285334D01*
X341791Y285194D01*
X341795Y285054D01*
X341803Y284915D01*
X341815Y284776D01*
X341831Y284637D01*
X341851Y284498D01*
X341874Y284361D01*
X341902Y284223D01*
X341933Y284087D01*
X341968Y283952D01*
X342007Y283818D01*
X342050Y283685D01*
X342097Y283553D01*
X342147Y283422D01*
X342201Y283294D01*
X342259Y283166D01*
X342320Y283040D01*
X342385Y282917D01*
X342453Y282795D01*
X342524Y282674D01*
X342599Y282556D01*
X342678Y282441D01*
X342759Y282327D01*
X342844Y282216D01*
X342932Y282107D01*
X343022Y282001D01*
X343116Y281897D01*
X343213Y281796D01*
X343313Y281698D01*
X343415Y281603D01*
X343520Y281511D01*
X343627Y281421D01*
X343737Y281335D01*
X343850Y281252D01*
X343964Y281172D01*
X344081Y281095D01*
X344200Y281022D01*
X344321Y280952D01*
X344444Y280886D01*
X344569Y280823D01*
X344696Y280763D01*
X344824Y280708D01*
X344953Y280656D01*
X345085Y280607D01*
X345217Y280562D01*
X345351Y280521D01*
X345485Y280484D01*
X345621Y280451D01*
X345758Y280422D01*
X345895Y280396D01*
X346033Y280374D01*
X346172Y280357D01*
X346311Y280343D01*
X346451Y280333D01*
X346590Y280327D01*
X346730Y280325D01*
X351669Y280325D01*
X345742Y280325D02*
X341791Y272423D01*
X335004Y282300D02*
X329077Y282300D01*
X328953Y282298D01*
X328829Y282292D01*
X328705Y282282D01*
X328582Y282269D01*
X328459Y282251D01*
X328337Y282230D01*
X328215Y282205D01*
X328094Y282176D01*
X327975Y282143D01*
X327856Y282107D01*
X327739Y282066D01*
X327623Y282023D01*
X327508Y281975D01*
X327395Y281924D01*
X327283Y281869D01*
X327174Y281811D01*
X327066Y281750D01*
X326960Y281685D01*
X326856Y281617D01*
X326755Y281545D01*
X326655Y281471D01*
X326559Y281393D01*
X326464Y281313D01*
X326372Y281229D01*
X326283Y281143D01*
X326197Y281054D01*
X326113Y280962D01*
X326033Y280867D01*
X325955Y280771D01*
X325881Y280671D01*
X325809Y280570D01*
X325741Y280466D01*
X325676Y280360D01*
X325615Y280252D01*
X325557Y280143D01*
X325502Y280031D01*
X325451Y279918D01*
X325403Y279803D01*
X325360Y279687D01*
X325319Y279570D01*
X325283Y279451D01*
X325250Y279332D01*
X325221Y279211D01*
X325196Y279089D01*
X325175Y278967D01*
X325157Y278844D01*
X325144Y278721D01*
X325134Y278597D01*
X325128Y278473D01*
X325126Y278349D01*
X325126Y277362D01*
X325128Y277222D01*
X325134Y277083D01*
X325144Y276943D01*
X325158Y276804D01*
X325175Y276665D01*
X325197Y276527D01*
X325223Y276390D01*
X325252Y276253D01*
X325285Y276117D01*
X325322Y275983D01*
X325363Y275849D01*
X325408Y275717D01*
X325457Y275585D01*
X325509Y275456D01*
X325564Y275328D01*
X325624Y275201D01*
X325687Y275076D01*
X325753Y274953D01*
X325823Y274832D01*
X325896Y274713D01*
X325973Y274596D01*
X326053Y274482D01*
X326136Y274369D01*
X326222Y274259D01*
X326312Y274152D01*
X326404Y274047D01*
X326499Y273945D01*
X326597Y273845D01*
X326698Y273748D01*
X326802Y273654D01*
X326908Y273564D01*
X327017Y273476D01*
X327128Y273391D01*
X327242Y273310D01*
X327357Y273231D01*
X327475Y273156D01*
X327596Y273085D01*
X327718Y273017D01*
X327841Y272952D01*
X327967Y272891D01*
X328095Y272833D01*
X328223Y272779D01*
X328354Y272729D01*
X328486Y272682D01*
X328619Y272639D01*
X328753Y272600D01*
X328888Y272565D01*
X329024Y272534D01*
X329162Y272506D01*
X329299Y272483D01*
X329438Y272463D01*
X329577Y272447D01*
X329716Y272435D01*
X329855Y272427D01*
X329995Y272423D01*
X330135Y272423D01*
X330275Y272427D01*
X330414Y272435D01*
X330553Y272447D01*
X330692Y272463D01*
X330831Y272483D01*
X330968Y272506D01*
X331106Y272534D01*
X331242Y272565D01*
X331377Y272600D01*
X331511Y272639D01*
X331644Y272682D01*
X331776Y272729D01*
X331907Y272779D01*
X332035Y272833D01*
X332163Y272891D01*
X332289Y272952D01*
X332412Y273017D01*
X332535Y273085D01*
X332655Y273156D01*
X332773Y273231D01*
X332888Y273310D01*
X333002Y273391D01*
X333113Y273476D01*
X333222Y273564D01*
X333328Y273654D01*
X333432Y273748D01*
X333533Y273845D01*
X333631Y273945D01*
X333726Y274047D01*
X333818Y274152D01*
X333908Y274259D01*
X333994Y274369D01*
X334077Y274482D01*
X334157Y274596D01*
X334234Y274713D01*
X334307Y274832D01*
X334377Y274953D01*
X334443Y275076D01*
X334506Y275201D01*
X334566Y275328D01*
X334621Y275456D01*
X334673Y275585D01*
X334722Y275717D01*
X334767Y275849D01*
X334808Y275983D01*
X334845Y276117D01*
X334878Y276253D01*
X334907Y276390D01*
X334933Y276527D01*
X334955Y276665D01*
X334972Y276804D01*
X334986Y276943D01*
X334996Y277083D01*
X335002Y277222D01*
X335004Y277362D01*
X335004Y282300D01*
X335003Y282300D02*
X335001Y282494D01*
X334993Y282688D01*
X334982Y282881D01*
X334965Y283075D01*
X334944Y283267D01*
X334917Y283459D01*
X334887Y283651D01*
X334851Y283842D01*
X334811Y284031D01*
X334766Y284220D01*
X334717Y284408D01*
X334663Y284594D01*
X334604Y284779D01*
X334541Y284962D01*
X334474Y285144D01*
X334402Y285324D01*
X334325Y285502D01*
X334244Y285679D01*
X334159Y285853D01*
X334070Y286025D01*
X333976Y286195D01*
X333879Y286362D01*
X333777Y286528D01*
X333671Y286690D01*
X333562Y286850D01*
X333448Y287007D01*
X333331Y287162D01*
X333209Y287313D01*
X333084Y287461D01*
X332956Y287607D01*
X332824Y287749D01*
X332689Y287888D01*
X332550Y288023D01*
X332408Y288155D01*
X332262Y288283D01*
X332114Y288408D01*
X331963Y288529D01*
X331808Y288647D01*
X331651Y288761D01*
X331491Y288870D01*
X331329Y288976D01*
X331163Y289078D01*
X330996Y289175D01*
X330826Y289269D01*
X330654Y289358D01*
X330480Y289443D01*
X330303Y289524D01*
X330125Y289600D01*
X329945Y289672D01*
X329763Y289740D01*
X329580Y289803D01*
X329395Y289862D01*
X329209Y289916D01*
X329021Y289965D01*
X328832Y290010D01*
X328643Y290050D01*
X328452Y290086D01*
X328261Y290116D01*
X328068Y290143D01*
X327876Y290164D01*
X327682Y290181D01*
X327489Y290192D01*
X327295Y290200D01*
X327101Y290202D01*
X316771Y287734D02*
X316921Y287417D01*
X317063Y287098D01*
X317197Y286775D01*
X317324Y286449D01*
X317442Y286119D01*
X317553Y285788D01*
X317656Y285453D01*
X317751Y285117D01*
X317837Y284778D01*
X317916Y284437D01*
X317987Y284094D01*
X318049Y283750D01*
X318103Y283405D01*
X318149Y283058D01*
X318186Y282710D01*
X318215Y282361D01*
X318236Y282012D01*
X318249Y281663D01*
X318253Y281313D01*
X316771Y287733D02*
X316731Y287846D01*
X316687Y287956D01*
X316639Y288066D01*
X316588Y288173D01*
X316533Y288279D01*
X316475Y288384D01*
X316413Y288486D01*
X316348Y288586D01*
X316280Y288684D01*
X316209Y288780D01*
X316134Y288873D01*
X316057Y288964D01*
X315977Y289052D01*
X315894Y289137D01*
X315808Y289220D01*
X315719Y289300D01*
X315628Y289377D01*
X315534Y289451D01*
X315438Y289522D01*
X315340Y289590D01*
X315240Y289654D01*
X315137Y289716D01*
X315033Y289773D01*
X314927Y289828D01*
X314819Y289879D01*
X314709Y289926D01*
X314598Y289970D01*
X314486Y290010D01*
X314372Y290046D01*
X314258Y290079D01*
X314142Y290108D01*
X314025Y290133D01*
X313908Y290154D01*
X313790Y290172D01*
X313671Y290185D01*
X313552Y290195D01*
X313433Y290201D01*
X313314Y290203D01*
X313195Y290201D01*
X313076Y290195D01*
X312957Y290185D01*
X312838Y290172D01*
X312720Y290154D01*
X312603Y290133D01*
X312486Y290108D01*
X312370Y290079D01*
X312256Y290046D01*
X312142Y290010D01*
X312030Y289970D01*
X311919Y289926D01*
X311809Y289879D01*
X311701Y289828D01*
X311595Y289773D01*
X311491Y289716D01*
X311388Y289654D01*
X311288Y289590D01*
X311190Y289522D01*
X311094Y289451D01*
X311000Y289377D01*
X310909Y289300D01*
X310820Y289220D01*
X310735Y289137D01*
X310651Y289052D01*
X310571Y288964D01*
X310494Y288873D01*
X310419Y288780D01*
X310348Y288684D01*
X310280Y288586D01*
X310215Y288486D01*
X310153Y288384D01*
X310095Y288279D01*
X310040Y288174D01*
X309989Y288066D01*
X309941Y287956D01*
X309897Y287846D01*
X309857Y287733D01*
X309858Y287734D02*
X309708Y287417D01*
X309566Y287098D01*
X309432Y286775D01*
X309305Y286449D01*
X309187Y286119D01*
X309076Y285788D01*
X308973Y285453D01*
X308878Y285117D01*
X308792Y284778D01*
X308713Y284437D01*
X308642Y284094D01*
X308580Y283750D01*
X308526Y283405D01*
X308480Y283058D01*
X308443Y282710D01*
X308414Y282361D01*
X308393Y282012D01*
X308380Y281663D01*
X308376Y281313D01*
X318253Y281313D02*
X318249Y280963D01*
X318236Y280614D01*
X318215Y280265D01*
X318186Y279916D01*
X318149Y279568D01*
X318103Y279221D01*
X318049Y278876D01*
X317987Y278532D01*
X317916Y278189D01*
X317837Y277848D01*
X317751Y277509D01*
X317656Y277173D01*
X317553Y276838D01*
X317442Y276507D01*
X317324Y276178D01*
X317197Y275851D01*
X317063Y275528D01*
X316921Y275209D01*
X316771Y274893D01*
X316771Y274892D02*
X316731Y274779D01*
X316687Y274669D01*
X316639Y274559D01*
X316588Y274452D01*
X316533Y274346D01*
X316475Y274241D01*
X316413Y274139D01*
X316348Y274039D01*
X316280Y273941D01*
X316209Y273845D01*
X316134Y273752D01*
X316057Y273661D01*
X315977Y273573D01*
X315894Y273488D01*
X315808Y273405D01*
X315719Y273325D01*
X315628Y273248D01*
X315534Y273174D01*
X315438Y273103D01*
X315340Y273035D01*
X315240Y272971D01*
X315137Y272909D01*
X315033Y272852D01*
X314927Y272797D01*
X314819Y272746D01*
X314709Y272699D01*
X314598Y272655D01*
X314486Y272615D01*
X314372Y272579D01*
X314258Y272546D01*
X314142Y272517D01*
X314025Y272492D01*
X313908Y272471D01*
X313790Y272453D01*
X313671Y272440D01*
X313552Y272430D01*
X313433Y272424D01*
X313314Y272422D01*
X309858Y274893D02*
X309708Y275209D01*
X309566Y275528D01*
X309432Y275851D01*
X309305Y276178D01*
X309187Y276507D01*
X309076Y276838D01*
X308973Y277173D01*
X308878Y277509D01*
X308792Y277848D01*
X308713Y278189D01*
X308642Y278532D01*
X308580Y278876D01*
X308526Y279221D01*
X308480Y279568D01*
X308443Y279916D01*
X308414Y280265D01*
X308393Y280614D01*
X308380Y280963D01*
X308376Y281313D01*
X309857Y274892D02*
X309897Y274779D01*
X309941Y274669D01*
X309989Y274559D01*
X310040Y274451D01*
X310095Y274345D01*
X310153Y274241D01*
X310215Y274139D01*
X310280Y274039D01*
X310348Y273941D01*
X310419Y273845D01*
X310494Y273752D01*
X310571Y273661D01*
X310651Y273573D01*
X310735Y273488D01*
X310820Y273405D01*
X310909Y273325D01*
X311000Y273248D01*
X311094Y273174D01*
X311190Y273103D01*
X311288Y273035D01*
X311388Y272971D01*
X311491Y272909D01*
X311595Y272851D01*
X311701Y272797D01*
X311809Y272746D01*
X311919Y272699D01*
X312030Y272655D01*
X312142Y272615D01*
X312256Y272579D01*
X312370Y272546D01*
X312486Y272517D01*
X312603Y272492D01*
X312720Y272471D01*
X312838Y272453D01*
X312957Y272440D01*
X313076Y272430D01*
X313195Y272424D01*
X313314Y272422D01*
X317266Y276374D02*
X309363Y286252D01*
D12*
X436013Y406544D02*
X436013Y408632D01*
X436014Y406544D02*
X436016Y406455D01*
X436022Y406367D01*
X436031Y406279D01*
X436044Y406191D01*
X436061Y406104D01*
X436081Y406018D01*
X436106Y405933D01*
X436133Y405848D01*
X436165Y405765D01*
X436199Y405684D01*
X436238Y405604D01*
X436279Y405526D01*
X436324Y405449D01*
X436372Y405375D01*
X436423Y405302D01*
X436477Y405232D01*
X436535Y405165D01*
X436595Y405099D01*
X436657Y405037D01*
X436723Y404977D01*
X436790Y404919D01*
X436860Y404865D01*
X436933Y404814D01*
X437007Y404766D01*
X437084Y404721D01*
X437162Y404680D01*
X437242Y404641D01*
X437323Y404607D01*
X437406Y404575D01*
X437491Y404548D01*
X437576Y404523D01*
X437662Y404503D01*
X437749Y404486D01*
X437837Y404473D01*
X437925Y404464D01*
X438013Y404458D01*
X438102Y404456D01*
X438102Y404455D02*
X443323Y404455D01*
X443323Y404456D02*
X443414Y404458D01*
X443505Y404464D01*
X443596Y404474D01*
X443686Y404488D01*
X443775Y404505D01*
X443863Y404527D01*
X443951Y404553D01*
X444037Y404582D01*
X444122Y404615D01*
X444205Y404652D01*
X444287Y404692D01*
X444367Y404736D01*
X444445Y404783D01*
X444521Y404834D01*
X444594Y404887D01*
X444665Y404944D01*
X444734Y405005D01*
X444799Y405068D01*
X444862Y405133D01*
X444922Y405202D01*
X444980Y405273D01*
X445033Y405346D01*
X445084Y405422D01*
X445131Y405500D01*
X445175Y405580D01*
X445215Y405662D01*
X445252Y405745D01*
X445285Y405830D01*
X445314Y405916D01*
X445340Y406004D01*
X445362Y406092D01*
X445379Y406181D01*
X445393Y406271D01*
X445403Y406362D01*
X445409Y406453D01*
X445411Y406544D01*
X445411Y408632D01*
X438624Y412100D02*
X438725Y412102D01*
X438826Y412108D01*
X438927Y412118D01*
X439027Y412131D01*
X439127Y412149D01*
X439226Y412170D01*
X439324Y412196D01*
X439421Y412225D01*
X439517Y412257D01*
X439611Y412294D01*
X439704Y412334D01*
X439796Y412378D01*
X439885Y412425D01*
X439973Y412476D01*
X440059Y412530D01*
X440142Y412587D01*
X440224Y412647D01*
X440302Y412711D01*
X440379Y412777D01*
X440452Y412847D01*
X440523Y412919D01*
X440591Y412994D01*
X440656Y413072D01*
X440718Y413152D01*
X440777Y413234D01*
X440833Y413319D01*
X440885Y413406D01*
X440934Y413494D01*
X440980Y413585D01*
X441021Y413677D01*
X441060Y413771D01*
X441094Y413866D01*
X441125Y413962D01*
X441152Y414060D01*
X441176Y414158D01*
X441195Y414258D01*
X441211Y414358D01*
X441223Y414458D01*
X441231Y414559D01*
X441235Y414660D01*
X441235Y414762D01*
X441231Y414863D01*
X441223Y414964D01*
X441211Y415064D01*
X441195Y415164D01*
X441176Y415264D01*
X441152Y415362D01*
X441125Y415460D01*
X441094Y415556D01*
X441060Y415651D01*
X441021Y415745D01*
X440980Y415837D01*
X440934Y415928D01*
X440885Y416016D01*
X440833Y416103D01*
X440777Y416188D01*
X440718Y416270D01*
X440656Y416350D01*
X440591Y416428D01*
X440523Y416503D01*
X440452Y416575D01*
X440379Y416645D01*
X440302Y416711D01*
X440224Y416775D01*
X440142Y416835D01*
X440059Y416892D01*
X439973Y416946D01*
X439885Y416997D01*
X439796Y417044D01*
X439704Y417088D01*
X439611Y417128D01*
X439517Y417165D01*
X439421Y417197D01*
X439324Y417226D01*
X439226Y417252D01*
X439127Y417273D01*
X439027Y417291D01*
X438927Y417304D01*
X438826Y417314D01*
X438725Y417320D01*
X438624Y417322D01*
X438523Y417320D01*
X438422Y417314D01*
X438321Y417304D01*
X438221Y417291D01*
X438121Y417273D01*
X438022Y417252D01*
X437924Y417226D01*
X437827Y417197D01*
X437731Y417165D01*
X437637Y417128D01*
X437544Y417088D01*
X437452Y417044D01*
X437363Y416997D01*
X437275Y416946D01*
X437189Y416892D01*
X437106Y416835D01*
X437024Y416775D01*
X436946Y416711D01*
X436869Y416645D01*
X436796Y416575D01*
X436725Y416503D01*
X436657Y416428D01*
X436592Y416350D01*
X436530Y416270D01*
X436471Y416188D01*
X436415Y416103D01*
X436363Y416017D01*
X436314Y415928D01*
X436268Y415837D01*
X436227Y415745D01*
X436188Y415651D01*
X436154Y415556D01*
X436123Y415460D01*
X436096Y415362D01*
X436072Y415264D01*
X436053Y415164D01*
X436037Y415064D01*
X436025Y414964D01*
X436017Y414863D01*
X436013Y414762D01*
X436013Y414660D01*
X436017Y414559D01*
X436025Y414458D01*
X436037Y414358D01*
X436053Y414258D01*
X436072Y414158D01*
X436096Y414060D01*
X436123Y413962D01*
X436154Y413866D01*
X436188Y413771D01*
X436227Y413677D01*
X436268Y413585D01*
X436314Y413494D01*
X436363Y413406D01*
X436415Y413319D01*
X436471Y413234D01*
X436530Y413152D01*
X436592Y413072D01*
X436657Y412994D01*
X436725Y412919D01*
X436796Y412847D01*
X436869Y412777D01*
X436946Y412711D01*
X437024Y412647D01*
X437106Y412587D01*
X437189Y412530D01*
X437275Y412476D01*
X437363Y412425D01*
X437452Y412378D01*
X437544Y412334D01*
X437637Y412294D01*
X437731Y412257D01*
X437827Y412225D01*
X437924Y412196D01*
X438022Y412170D01*
X438121Y412149D01*
X438221Y412131D01*
X438321Y412118D01*
X438422Y412108D01*
X438523Y412102D01*
X438624Y412100D01*
X443323Y412623D02*
X443413Y412625D01*
X443502Y412631D01*
X443592Y412640D01*
X443681Y412654D01*
X443769Y412671D01*
X443856Y412692D01*
X443943Y412717D01*
X444028Y412746D01*
X444112Y412778D01*
X444194Y412813D01*
X444275Y412853D01*
X444354Y412895D01*
X444431Y412941D01*
X444506Y412991D01*
X444579Y413043D01*
X444650Y413099D01*
X444718Y413157D01*
X444783Y413219D01*
X444846Y413283D01*
X444906Y413350D01*
X444963Y413419D01*
X445017Y413491D01*
X445068Y413565D01*
X445116Y413641D01*
X445160Y413719D01*
X445201Y413799D01*
X445239Y413881D01*
X445273Y413964D01*
X445303Y414049D01*
X445330Y414135D01*
X445353Y414221D01*
X445372Y414309D01*
X445387Y414398D01*
X445399Y414487D01*
X445407Y414576D01*
X445411Y414666D01*
X445411Y414756D01*
X445407Y414846D01*
X445399Y414935D01*
X445387Y415024D01*
X445372Y415113D01*
X445353Y415201D01*
X445330Y415287D01*
X445303Y415373D01*
X445273Y415458D01*
X445239Y415541D01*
X445201Y415623D01*
X445160Y415703D01*
X445116Y415781D01*
X445068Y415857D01*
X445017Y415931D01*
X444963Y416003D01*
X444906Y416072D01*
X444846Y416139D01*
X444783Y416203D01*
X444718Y416265D01*
X444650Y416323D01*
X444579Y416379D01*
X444506Y416431D01*
X444431Y416481D01*
X444354Y416527D01*
X444275Y416569D01*
X444194Y416609D01*
X444112Y416644D01*
X444028Y416676D01*
X443943Y416705D01*
X443856Y416730D01*
X443769Y416751D01*
X443681Y416768D01*
X443592Y416782D01*
X443502Y416791D01*
X443413Y416797D01*
X443323Y416799D01*
X443233Y416797D01*
X443144Y416791D01*
X443054Y416782D01*
X442965Y416768D01*
X442877Y416751D01*
X442790Y416730D01*
X442703Y416705D01*
X442618Y416676D01*
X442534Y416644D01*
X442452Y416609D01*
X442371Y416569D01*
X442292Y416527D01*
X442215Y416481D01*
X442140Y416431D01*
X442067Y416379D01*
X441996Y416323D01*
X441928Y416265D01*
X441863Y416203D01*
X441800Y416139D01*
X441740Y416072D01*
X441683Y416003D01*
X441629Y415931D01*
X441578Y415857D01*
X441530Y415781D01*
X441486Y415703D01*
X441445Y415623D01*
X441407Y415541D01*
X441373Y415458D01*
X441343Y415373D01*
X441316Y415287D01*
X441293Y415201D01*
X441274Y415113D01*
X441259Y415024D01*
X441247Y414935D01*
X441239Y414846D01*
X441235Y414756D01*
X441235Y414666D01*
X441239Y414576D01*
X441247Y414487D01*
X441259Y414398D01*
X441274Y414309D01*
X441293Y414221D01*
X441316Y414135D01*
X441343Y414049D01*
X441373Y413964D01*
X441407Y413881D01*
X441445Y413799D01*
X441486Y413719D01*
X441530Y413641D01*
X441578Y413565D01*
X441629Y413491D01*
X441683Y413419D01*
X441740Y413350D01*
X441800Y413283D01*
X441863Y413219D01*
X441928Y413157D01*
X441996Y413099D01*
X442067Y413043D01*
X442140Y412991D01*
X442215Y412941D01*
X442292Y412895D01*
X442371Y412853D01*
X442452Y412813D01*
X442534Y412778D01*
X442618Y412746D01*
X442703Y412717D01*
X442790Y412692D01*
X442877Y412671D01*
X442965Y412654D01*
X443054Y412640D01*
X443144Y412631D01*
X443233Y412625D01*
X443323Y412623D01*
D13*
X381202Y376202D02*
X376202Y381202D01*
X311202Y311212D02*
X311202Y311202D01*
X385972Y373852D02*
X385974Y373941D01*
X385980Y374030D01*
X385990Y374119D01*
X386004Y374207D01*
X386021Y374294D01*
X386043Y374380D01*
X386069Y374466D01*
X386098Y374550D01*
X386131Y374633D01*
X386167Y374714D01*
X386208Y374794D01*
X386251Y374871D01*
X386298Y374947D01*
X386349Y375020D01*
X386402Y375091D01*
X386459Y375160D01*
X386519Y375226D01*
X386582Y375290D01*
X386647Y375350D01*
X386715Y375408D01*
X386786Y375462D01*
X386859Y375513D01*
X386934Y375561D01*
X387011Y375606D01*
X387090Y375647D01*
X387171Y375684D01*
X387253Y375718D01*
X387337Y375749D01*
X387422Y375775D01*
X387508Y375798D01*
X387595Y375816D01*
X387683Y375831D01*
X387772Y375842D01*
X387861Y375849D01*
X387950Y375852D01*
X388039Y375851D01*
X388128Y375846D01*
X388216Y375837D01*
X388305Y375824D01*
X388392Y375807D01*
X388479Y375787D01*
X388565Y375762D01*
X388649Y375734D01*
X388732Y375702D01*
X388814Y375666D01*
X388894Y375627D01*
X388972Y375584D01*
X389048Y375538D01*
X389122Y375488D01*
X389194Y375435D01*
X389263Y375379D01*
X389330Y375320D01*
X389394Y375258D01*
X389455Y375194D01*
X389514Y375126D01*
X389569Y375056D01*
X389621Y374984D01*
X389670Y374909D01*
X389715Y374833D01*
X389757Y374754D01*
X389795Y374674D01*
X389830Y374592D01*
X389861Y374508D01*
X389889Y374423D01*
X389912Y374337D01*
X389932Y374250D01*
X389948Y374163D01*
X389960Y374074D01*
X389968Y373986D01*
X389972Y373897D01*
X389972Y373807D01*
X389968Y373718D01*
X389960Y373630D01*
X389948Y373541D01*
X389932Y373454D01*
X389912Y373367D01*
X389889Y373281D01*
X389861Y373196D01*
X389830Y373112D01*
X389795Y373030D01*
X389757Y372950D01*
X389715Y372871D01*
X389670Y372795D01*
X389621Y372720D01*
X389569Y372648D01*
X389514Y372578D01*
X389455Y372510D01*
X389394Y372446D01*
X389330Y372384D01*
X389263Y372325D01*
X389194Y372269D01*
X389122Y372216D01*
X389048Y372166D01*
X388972Y372120D01*
X388894Y372077D01*
X388814Y372038D01*
X388732Y372002D01*
X388649Y371970D01*
X388565Y371942D01*
X388479Y371917D01*
X388392Y371897D01*
X388305Y371880D01*
X388216Y371867D01*
X388128Y371858D01*
X388039Y371853D01*
X387950Y371852D01*
X387861Y371855D01*
X387772Y371862D01*
X387683Y371873D01*
X387595Y371888D01*
X387508Y371906D01*
X387422Y371929D01*
X387337Y371955D01*
X387253Y371986D01*
X387171Y372020D01*
X387090Y372057D01*
X387011Y372098D01*
X386934Y372143D01*
X386859Y372191D01*
X386786Y372242D01*
X386715Y372296D01*
X386647Y372354D01*
X386582Y372414D01*
X386519Y372478D01*
X386459Y372544D01*
X386402Y372613D01*
X386349Y372684D01*
X386298Y372757D01*
X386251Y372833D01*
X386208Y372910D01*
X386167Y372990D01*
X386131Y373071D01*
X386098Y373154D01*
X386069Y373238D01*
X386043Y373324D01*
X386021Y373410D01*
X386004Y373497D01*
X385990Y373585D01*
X385980Y373674D01*
X385974Y373763D01*
X385972Y373852D01*
X311242Y381212D02*
X311242Y381222D01*
X315942Y381222D01*
X315902Y311212D02*
X311202Y311212D01*
X311242Y376522D02*
X311242Y381212D01*
X311192Y315902D02*
X311192Y311202D01*
X376522Y311202D02*
X381222Y311202D01*
X381222Y311192D02*
X381222Y315892D01*
D12*
X331547Y390024D02*
X331547Y396811D01*
X331547Y390024D02*
X331545Y389923D01*
X331539Y389822D01*
X331529Y389721D01*
X331516Y389621D01*
X331498Y389521D01*
X331477Y389422D01*
X331451Y389324D01*
X331422Y389227D01*
X331390Y389131D01*
X331353Y389037D01*
X331313Y388944D01*
X331269Y388852D01*
X331222Y388763D01*
X331171Y388675D01*
X331117Y388589D01*
X331060Y388506D01*
X331000Y388424D01*
X330936Y388346D01*
X330870Y388269D01*
X330800Y388196D01*
X330728Y388125D01*
X330653Y388057D01*
X330575Y387992D01*
X330495Y387930D01*
X330413Y387871D01*
X330328Y387815D01*
X330241Y387763D01*
X330153Y387714D01*
X330062Y387668D01*
X329970Y387627D01*
X329876Y387588D01*
X329781Y387554D01*
X329685Y387523D01*
X329587Y387496D01*
X329489Y387472D01*
X329389Y387453D01*
X329289Y387437D01*
X329189Y387425D01*
X329088Y387417D01*
X328987Y387413D01*
X328885Y387413D01*
X328784Y387417D01*
X328683Y387425D01*
X328583Y387437D01*
X328483Y387453D01*
X328383Y387472D01*
X328285Y387496D01*
X328187Y387523D01*
X328091Y387554D01*
X327996Y387588D01*
X327902Y387627D01*
X327810Y387668D01*
X327719Y387714D01*
X327631Y387763D01*
X327544Y387815D01*
X327459Y387871D01*
X327377Y387930D01*
X327297Y387992D01*
X327219Y388057D01*
X327144Y388125D01*
X327072Y388196D01*
X327002Y388269D01*
X326936Y388346D01*
X326872Y388424D01*
X326812Y388506D01*
X326755Y388589D01*
X326701Y388675D01*
X326650Y388763D01*
X326603Y388852D01*
X326559Y388944D01*
X326519Y389037D01*
X326482Y389131D01*
X326450Y389227D01*
X326421Y389324D01*
X326395Y389422D01*
X326374Y389521D01*
X326356Y389621D01*
X326343Y389721D01*
X326333Y389822D01*
X326327Y389923D01*
X326325Y390024D01*
X326326Y390024D02*
X326326Y396811D01*
X322098Y394723D02*
X319488Y396811D01*
X319488Y387413D01*
X322098Y387413D02*
X316877Y387413D01*
D14*
X394175Y375140D02*
X394175Y339580D01*
X414495Y339580D01*
X414495Y375140D01*
X394175Y375140D01*
D12*
X417812Y356880D02*
X427210Y363145D01*
X427210Y356880D02*
X417812Y363145D01*
X425122Y366546D02*
X427210Y369156D01*
X417812Y369156D01*
X417812Y366546D02*
X417812Y371767D01*
X356967Y420601D02*
X347569Y420601D01*
X356967Y420601D02*
X356967Y423212D01*
X356965Y423313D01*
X356959Y423414D01*
X356949Y423515D01*
X356936Y423615D01*
X356918Y423715D01*
X356897Y423814D01*
X356871Y423912D01*
X356842Y424009D01*
X356810Y424105D01*
X356773Y424199D01*
X356733Y424292D01*
X356689Y424384D01*
X356642Y424473D01*
X356591Y424561D01*
X356537Y424647D01*
X356480Y424730D01*
X356420Y424812D01*
X356356Y424890D01*
X356290Y424967D01*
X356220Y425040D01*
X356148Y425111D01*
X356073Y425179D01*
X355995Y425244D01*
X355915Y425306D01*
X355833Y425365D01*
X355748Y425421D01*
X355662Y425473D01*
X355573Y425522D01*
X355482Y425568D01*
X355390Y425609D01*
X355296Y425648D01*
X355201Y425682D01*
X355105Y425713D01*
X355007Y425740D01*
X354909Y425764D01*
X354809Y425783D01*
X354709Y425799D01*
X354609Y425811D01*
X354508Y425819D01*
X354407Y425823D01*
X354305Y425823D01*
X354204Y425819D01*
X354103Y425811D01*
X354003Y425799D01*
X353903Y425783D01*
X353803Y425764D01*
X353705Y425740D01*
X353607Y425713D01*
X353511Y425682D01*
X353416Y425648D01*
X353322Y425609D01*
X353230Y425568D01*
X353139Y425522D01*
X353051Y425473D01*
X352964Y425421D01*
X352879Y425365D01*
X352797Y425306D01*
X352717Y425244D01*
X352639Y425179D01*
X352564Y425111D01*
X352492Y425040D01*
X352422Y424967D01*
X352356Y424890D01*
X352292Y424812D01*
X352232Y424730D01*
X352175Y424647D01*
X352121Y424561D01*
X352070Y424473D01*
X352023Y424384D01*
X351979Y424292D01*
X351939Y424199D01*
X351902Y424105D01*
X351870Y424009D01*
X351841Y423912D01*
X351815Y423814D01*
X351794Y423715D01*
X351776Y423615D01*
X351763Y423515D01*
X351753Y423414D01*
X351747Y423313D01*
X351745Y423212D01*
X351745Y420601D01*
X351745Y423734D02*
X347569Y425822D01*
X347569Y429688D02*
X347569Y432298D01*
X347568Y432298D02*
X347570Y432399D01*
X347576Y432500D01*
X347586Y432601D01*
X347599Y432701D01*
X347617Y432801D01*
X347638Y432900D01*
X347664Y432998D01*
X347693Y433095D01*
X347725Y433191D01*
X347762Y433285D01*
X347802Y433378D01*
X347846Y433470D01*
X347893Y433559D01*
X347944Y433647D01*
X347998Y433733D01*
X348055Y433816D01*
X348115Y433898D01*
X348179Y433976D01*
X348245Y434053D01*
X348315Y434126D01*
X348387Y434197D01*
X348462Y434265D01*
X348540Y434330D01*
X348620Y434392D01*
X348702Y434451D01*
X348787Y434507D01*
X348874Y434559D01*
X348962Y434608D01*
X349053Y434654D01*
X349145Y434695D01*
X349239Y434734D01*
X349334Y434768D01*
X349430Y434799D01*
X349528Y434826D01*
X349626Y434850D01*
X349726Y434869D01*
X349826Y434885D01*
X349926Y434897D01*
X350027Y434905D01*
X350128Y434909D01*
X350230Y434909D01*
X350331Y434905D01*
X350432Y434897D01*
X350532Y434885D01*
X350632Y434869D01*
X350732Y434850D01*
X350830Y434826D01*
X350928Y434799D01*
X351024Y434768D01*
X351119Y434734D01*
X351213Y434695D01*
X351305Y434654D01*
X351396Y434608D01*
X351485Y434559D01*
X351571Y434507D01*
X351656Y434451D01*
X351738Y434392D01*
X351818Y434330D01*
X351896Y434265D01*
X351971Y434197D01*
X352043Y434126D01*
X352113Y434053D01*
X352179Y433976D01*
X352243Y433898D01*
X352303Y433816D01*
X352360Y433733D01*
X352414Y433647D01*
X352465Y433559D01*
X352512Y433470D01*
X352556Y433378D01*
X352596Y433285D01*
X352633Y433191D01*
X352665Y433095D01*
X352694Y432998D01*
X352720Y432900D01*
X352741Y432801D01*
X352759Y432701D01*
X352772Y432601D01*
X352782Y432500D01*
X352788Y432399D01*
X352790Y432298D01*
X356967Y432821D02*
X356967Y429688D01*
X356966Y432821D02*
X356964Y432911D01*
X356958Y433000D01*
X356949Y433090D01*
X356935Y433179D01*
X356918Y433267D01*
X356897Y433354D01*
X356872Y433441D01*
X356843Y433526D01*
X356811Y433610D01*
X356776Y433692D01*
X356736Y433773D01*
X356694Y433852D01*
X356648Y433929D01*
X356598Y434004D01*
X356546Y434077D01*
X356490Y434148D01*
X356432Y434216D01*
X356370Y434281D01*
X356306Y434344D01*
X356239Y434404D01*
X356170Y434461D01*
X356098Y434515D01*
X356024Y434566D01*
X355948Y434614D01*
X355870Y434658D01*
X355790Y434699D01*
X355708Y434737D01*
X355625Y434771D01*
X355540Y434801D01*
X355454Y434828D01*
X355368Y434851D01*
X355280Y434870D01*
X355191Y434885D01*
X355102Y434897D01*
X355013Y434905D01*
X354923Y434909D01*
X354833Y434909D01*
X354743Y434905D01*
X354654Y434897D01*
X354565Y434885D01*
X354476Y434870D01*
X354388Y434851D01*
X354302Y434828D01*
X354216Y434801D01*
X354131Y434771D01*
X354048Y434737D01*
X353966Y434699D01*
X353886Y434658D01*
X353808Y434614D01*
X353732Y434566D01*
X353658Y434515D01*
X353586Y434461D01*
X353517Y434404D01*
X353450Y434344D01*
X353386Y434281D01*
X353324Y434216D01*
X353266Y434148D01*
X353210Y434077D01*
X353158Y434004D01*
X353108Y433929D01*
X353062Y433852D01*
X353020Y433773D01*
X352980Y433692D01*
X352945Y433610D01*
X352913Y433526D01*
X352884Y433441D01*
X352859Y433354D01*
X352838Y433267D01*
X352821Y433179D01*
X352807Y433090D01*
X352798Y433000D01*
X352792Y432911D01*
X352790Y432821D01*
X352790Y430732D01*
D10*
X288115Y323548D02*
X267985Y323548D01*
D12*
X273375Y272533D02*
X273375Y270444D01*
X273376Y270444D02*
X273378Y270355D01*
X273384Y270267D01*
X273393Y270179D01*
X273406Y270091D01*
X273423Y270004D01*
X273443Y269918D01*
X273468Y269833D01*
X273495Y269748D01*
X273527Y269665D01*
X273561Y269584D01*
X273600Y269504D01*
X273641Y269426D01*
X273686Y269349D01*
X273734Y269275D01*
X273785Y269202D01*
X273839Y269132D01*
X273897Y269065D01*
X273957Y268999D01*
X274019Y268937D01*
X274085Y268877D01*
X274152Y268819D01*
X274222Y268765D01*
X274295Y268714D01*
X274369Y268666D01*
X274446Y268621D01*
X274524Y268580D01*
X274604Y268541D01*
X274685Y268507D01*
X274768Y268475D01*
X274853Y268448D01*
X274938Y268423D01*
X275024Y268403D01*
X275111Y268386D01*
X275199Y268373D01*
X275287Y268364D01*
X275375Y268358D01*
X275464Y268356D01*
X280685Y268356D01*
X280776Y268358D01*
X280867Y268364D01*
X280958Y268374D01*
X281048Y268388D01*
X281137Y268405D01*
X281225Y268427D01*
X281313Y268453D01*
X281399Y268482D01*
X281484Y268515D01*
X281567Y268552D01*
X281649Y268592D01*
X281729Y268636D01*
X281807Y268683D01*
X281883Y268734D01*
X281956Y268787D01*
X282027Y268844D01*
X282096Y268905D01*
X282161Y268968D01*
X282224Y269033D01*
X282284Y269102D01*
X282342Y269173D01*
X282395Y269246D01*
X282446Y269322D01*
X282493Y269400D01*
X282537Y269480D01*
X282577Y269562D01*
X282614Y269645D01*
X282647Y269730D01*
X282676Y269816D01*
X282702Y269904D01*
X282724Y269992D01*
X282741Y270081D01*
X282755Y270171D01*
X282765Y270262D01*
X282771Y270353D01*
X282773Y270444D01*
X282773Y272533D01*
X282773Y278090D02*
X275464Y276002D01*
X275464Y281223D01*
X277552Y279656D02*
X273375Y279656D01*
D10*
X404670Y374424D02*
X424800Y374424D01*
D12*
X424244Y389018D02*
X424244Y391106D01*
X424244Y389018D02*
X424246Y388929D01*
X424252Y388841D01*
X424261Y388753D01*
X424274Y388665D01*
X424291Y388578D01*
X424311Y388492D01*
X424336Y388407D01*
X424363Y388322D01*
X424395Y388239D01*
X424429Y388158D01*
X424468Y388078D01*
X424509Y388000D01*
X424554Y387923D01*
X424602Y387849D01*
X424653Y387776D01*
X424707Y387706D01*
X424765Y387639D01*
X424825Y387573D01*
X424887Y387511D01*
X424953Y387451D01*
X425020Y387393D01*
X425090Y387339D01*
X425163Y387288D01*
X425237Y387240D01*
X425314Y387195D01*
X425392Y387154D01*
X425472Y387115D01*
X425553Y387081D01*
X425636Y387049D01*
X425721Y387022D01*
X425806Y386997D01*
X425892Y386977D01*
X425979Y386960D01*
X426067Y386947D01*
X426155Y386938D01*
X426243Y386932D01*
X426332Y386930D01*
X431553Y386930D01*
X431644Y386932D01*
X431735Y386938D01*
X431826Y386948D01*
X431916Y386962D01*
X432005Y386979D01*
X432093Y387001D01*
X432181Y387027D01*
X432267Y387056D01*
X432352Y387089D01*
X432435Y387126D01*
X432517Y387166D01*
X432597Y387210D01*
X432675Y387257D01*
X432751Y387308D01*
X432824Y387361D01*
X432895Y387418D01*
X432964Y387479D01*
X433029Y387542D01*
X433092Y387607D01*
X433152Y387676D01*
X433210Y387747D01*
X433263Y387820D01*
X433314Y387896D01*
X433361Y387974D01*
X433405Y388054D01*
X433445Y388136D01*
X433482Y388219D01*
X433515Y388304D01*
X433544Y388390D01*
X433570Y388478D01*
X433592Y388566D01*
X433609Y388655D01*
X433623Y388745D01*
X433633Y388836D01*
X433639Y388927D01*
X433641Y389018D01*
X433642Y389018D02*
X433642Y391106D01*
X433642Y394575D02*
X432597Y394575D01*
X433642Y394575D02*
X433642Y399796D01*
X424244Y397186D01*
X406096Y326301D02*
X404007Y326301D01*
X406096Y326302D02*
X406185Y326304D01*
X406273Y326310D01*
X406361Y326319D01*
X406449Y326332D01*
X406536Y326349D01*
X406622Y326369D01*
X406707Y326394D01*
X406792Y326421D01*
X406875Y326453D01*
X406956Y326487D01*
X407036Y326526D01*
X407114Y326567D01*
X407191Y326612D01*
X407265Y326660D01*
X407338Y326711D01*
X407408Y326765D01*
X407475Y326823D01*
X407541Y326883D01*
X407603Y326945D01*
X407663Y327011D01*
X407721Y327078D01*
X407775Y327148D01*
X407826Y327221D01*
X407874Y327295D01*
X407919Y327372D01*
X407960Y327450D01*
X407999Y327530D01*
X408033Y327611D01*
X408065Y327694D01*
X408092Y327779D01*
X408117Y327864D01*
X408137Y327950D01*
X408154Y328037D01*
X408167Y328125D01*
X408176Y328213D01*
X408182Y328301D01*
X408184Y328390D01*
X408184Y333611D01*
X408182Y333700D01*
X408176Y333788D01*
X408167Y333876D01*
X408154Y333964D01*
X408137Y334051D01*
X408117Y334137D01*
X408092Y334222D01*
X408065Y334307D01*
X408033Y334390D01*
X407999Y334471D01*
X407960Y334551D01*
X407919Y334629D01*
X407874Y334706D01*
X407826Y334780D01*
X407775Y334853D01*
X407721Y334923D01*
X407663Y334990D01*
X407603Y335056D01*
X407541Y335118D01*
X407475Y335178D01*
X407408Y335236D01*
X407338Y335290D01*
X407265Y335341D01*
X407191Y335389D01*
X407114Y335434D01*
X407036Y335475D01*
X406956Y335514D01*
X406875Y335548D01*
X406792Y335580D01*
X406707Y335607D01*
X406622Y335632D01*
X406536Y335652D01*
X406449Y335669D01*
X406361Y335682D01*
X406273Y335691D01*
X406185Y335697D01*
X406096Y335699D01*
X404007Y335699D01*
X400539Y333611D02*
X397928Y335699D01*
X397928Y326301D01*
X395318Y326301D02*
X400539Y326301D01*
X369255Y422726D02*
X369255Y424814D01*
X369255Y422726D02*
X369257Y422637D01*
X369263Y422549D01*
X369272Y422461D01*
X369285Y422373D01*
X369302Y422286D01*
X369322Y422200D01*
X369347Y422115D01*
X369374Y422030D01*
X369406Y421947D01*
X369440Y421866D01*
X369479Y421786D01*
X369520Y421708D01*
X369565Y421631D01*
X369613Y421557D01*
X369664Y421484D01*
X369718Y421414D01*
X369776Y421347D01*
X369836Y421281D01*
X369898Y421219D01*
X369964Y421159D01*
X370031Y421101D01*
X370101Y421047D01*
X370174Y420996D01*
X370248Y420948D01*
X370325Y420903D01*
X370403Y420862D01*
X370483Y420823D01*
X370564Y420789D01*
X370647Y420757D01*
X370732Y420730D01*
X370817Y420705D01*
X370903Y420685D01*
X370990Y420668D01*
X371078Y420655D01*
X371166Y420646D01*
X371254Y420640D01*
X371343Y420638D01*
X376565Y420638D01*
X376656Y420640D01*
X376747Y420646D01*
X376838Y420656D01*
X376928Y420670D01*
X377017Y420687D01*
X377105Y420709D01*
X377193Y420735D01*
X377279Y420764D01*
X377364Y420797D01*
X377447Y420834D01*
X377529Y420874D01*
X377609Y420918D01*
X377687Y420965D01*
X377763Y421016D01*
X377836Y421069D01*
X377907Y421126D01*
X377976Y421187D01*
X378041Y421250D01*
X378104Y421315D01*
X378164Y421384D01*
X378222Y421455D01*
X378275Y421528D01*
X378326Y421604D01*
X378373Y421682D01*
X378417Y421762D01*
X378457Y421844D01*
X378494Y421927D01*
X378527Y422012D01*
X378556Y422098D01*
X378582Y422186D01*
X378604Y422274D01*
X378621Y422363D01*
X378635Y422453D01*
X378645Y422544D01*
X378651Y422635D01*
X378653Y422726D01*
X378653Y424814D01*
X369255Y428283D02*
X369255Y430894D01*
X369257Y430995D01*
X369263Y431096D01*
X369273Y431197D01*
X369286Y431297D01*
X369304Y431397D01*
X369325Y431496D01*
X369351Y431594D01*
X369380Y431691D01*
X369412Y431787D01*
X369449Y431881D01*
X369489Y431974D01*
X369533Y432066D01*
X369580Y432155D01*
X369631Y432243D01*
X369685Y432329D01*
X369742Y432412D01*
X369802Y432494D01*
X369866Y432572D01*
X369932Y432649D01*
X370002Y432722D01*
X370074Y432793D01*
X370149Y432861D01*
X370227Y432926D01*
X370307Y432988D01*
X370389Y433047D01*
X370474Y433103D01*
X370561Y433155D01*
X370649Y433204D01*
X370740Y433250D01*
X370832Y433291D01*
X370926Y433330D01*
X371021Y433364D01*
X371117Y433395D01*
X371215Y433422D01*
X371313Y433446D01*
X371413Y433465D01*
X371513Y433481D01*
X371613Y433493D01*
X371714Y433501D01*
X371815Y433505D01*
X371917Y433505D01*
X372018Y433501D01*
X372119Y433493D01*
X372219Y433481D01*
X372319Y433465D01*
X372419Y433446D01*
X372517Y433422D01*
X372615Y433395D01*
X372711Y433364D01*
X372806Y433330D01*
X372900Y433291D01*
X372992Y433250D01*
X373083Y433204D01*
X373172Y433155D01*
X373258Y433103D01*
X373343Y433047D01*
X373425Y432988D01*
X373505Y432926D01*
X373583Y432861D01*
X373658Y432793D01*
X373730Y432722D01*
X373800Y432649D01*
X373866Y432572D01*
X373930Y432494D01*
X373990Y432412D01*
X374047Y432329D01*
X374101Y432243D01*
X374152Y432155D01*
X374199Y432066D01*
X374243Y431974D01*
X374283Y431881D01*
X374320Y431787D01*
X374352Y431691D01*
X374381Y431594D01*
X374407Y431496D01*
X374428Y431397D01*
X374446Y431297D01*
X374459Y431197D01*
X374469Y431096D01*
X374475Y430995D01*
X374477Y430894D01*
X378653Y431416D02*
X378653Y428283D01*
X378653Y431416D02*
X378651Y431506D01*
X378645Y431595D01*
X378636Y431685D01*
X378622Y431774D01*
X378605Y431862D01*
X378584Y431949D01*
X378559Y432036D01*
X378530Y432121D01*
X378498Y432205D01*
X378463Y432287D01*
X378423Y432368D01*
X378381Y432447D01*
X378335Y432524D01*
X378285Y432599D01*
X378233Y432672D01*
X378177Y432743D01*
X378119Y432811D01*
X378057Y432876D01*
X377993Y432939D01*
X377926Y432999D01*
X377857Y433056D01*
X377785Y433110D01*
X377711Y433161D01*
X377635Y433209D01*
X377557Y433253D01*
X377477Y433294D01*
X377395Y433332D01*
X377312Y433366D01*
X377227Y433396D01*
X377141Y433423D01*
X377055Y433446D01*
X376967Y433465D01*
X376878Y433480D01*
X376789Y433492D01*
X376700Y433500D01*
X376610Y433504D01*
X376520Y433504D01*
X376430Y433500D01*
X376341Y433492D01*
X376252Y433480D01*
X376163Y433465D01*
X376075Y433446D01*
X375989Y433423D01*
X375903Y433396D01*
X375818Y433366D01*
X375735Y433332D01*
X375653Y433294D01*
X375573Y433253D01*
X375495Y433209D01*
X375419Y433161D01*
X375345Y433110D01*
X375273Y433056D01*
X375204Y432999D01*
X375137Y432939D01*
X375073Y432876D01*
X375011Y432811D01*
X374953Y432743D01*
X374897Y432672D01*
X374845Y432599D01*
X374795Y432524D01*
X374749Y432447D01*
X374707Y432368D01*
X374667Y432287D01*
X374632Y432205D01*
X374600Y432121D01*
X374571Y432036D01*
X374546Y431949D01*
X374525Y431862D01*
X374508Y431774D01*
X374494Y431685D01*
X374485Y431595D01*
X374479Y431506D01*
X374477Y431416D01*
X374476Y431416D02*
X374476Y429327D01*
X286129Y384364D02*
X286129Y382276D01*
X286131Y382187D01*
X286137Y382099D01*
X286146Y382011D01*
X286159Y381923D01*
X286176Y381836D01*
X286196Y381750D01*
X286221Y381665D01*
X286248Y381580D01*
X286280Y381497D01*
X286314Y381416D01*
X286353Y381336D01*
X286394Y381258D01*
X286439Y381181D01*
X286487Y381107D01*
X286538Y381034D01*
X286592Y380964D01*
X286650Y380897D01*
X286710Y380831D01*
X286772Y380769D01*
X286838Y380709D01*
X286905Y380651D01*
X286975Y380597D01*
X287048Y380546D01*
X287122Y380498D01*
X287199Y380453D01*
X287277Y380412D01*
X287357Y380373D01*
X287438Y380339D01*
X287521Y380307D01*
X287606Y380280D01*
X287691Y380255D01*
X287777Y380235D01*
X287864Y380218D01*
X287952Y380205D01*
X288040Y380196D01*
X288128Y380190D01*
X288217Y380188D01*
X288217Y380187D02*
X293438Y380187D01*
X293438Y380188D02*
X293529Y380190D01*
X293620Y380196D01*
X293711Y380206D01*
X293801Y380220D01*
X293890Y380237D01*
X293978Y380259D01*
X294066Y380285D01*
X294152Y380314D01*
X294237Y380347D01*
X294320Y380384D01*
X294402Y380424D01*
X294482Y380468D01*
X294560Y380515D01*
X294636Y380566D01*
X294709Y380619D01*
X294780Y380676D01*
X294849Y380737D01*
X294914Y380800D01*
X294977Y380865D01*
X295037Y380934D01*
X295095Y381005D01*
X295148Y381078D01*
X295199Y381154D01*
X295246Y381232D01*
X295290Y381312D01*
X295330Y381394D01*
X295367Y381477D01*
X295400Y381562D01*
X295429Y381648D01*
X295455Y381736D01*
X295477Y381824D01*
X295494Y381913D01*
X295508Y382003D01*
X295518Y382094D01*
X295524Y382185D01*
X295526Y382276D01*
X295527Y382276D02*
X295527Y384364D01*
X286129Y387833D02*
X286129Y390966D01*
X286131Y391055D01*
X286137Y391143D01*
X286146Y391231D01*
X286159Y391319D01*
X286176Y391406D01*
X286196Y391492D01*
X286221Y391577D01*
X286248Y391662D01*
X286280Y391745D01*
X286314Y391826D01*
X286353Y391906D01*
X286394Y391984D01*
X286439Y392061D01*
X286487Y392135D01*
X286538Y392208D01*
X286592Y392278D01*
X286650Y392345D01*
X286710Y392411D01*
X286772Y392473D01*
X286838Y392533D01*
X286905Y392591D01*
X286975Y392645D01*
X287048Y392696D01*
X287122Y392744D01*
X287199Y392789D01*
X287277Y392830D01*
X287357Y392869D01*
X287438Y392903D01*
X287521Y392935D01*
X287606Y392962D01*
X287691Y392987D01*
X287777Y393007D01*
X287864Y393024D01*
X287952Y393037D01*
X288040Y393046D01*
X288128Y393052D01*
X288217Y393054D01*
X289261Y393054D01*
X289350Y393052D01*
X289438Y393046D01*
X289526Y393037D01*
X289614Y393024D01*
X289701Y393007D01*
X289787Y392987D01*
X289872Y392962D01*
X289957Y392935D01*
X290040Y392903D01*
X290121Y392869D01*
X290201Y392830D01*
X290279Y392789D01*
X290356Y392744D01*
X290430Y392696D01*
X290503Y392645D01*
X290573Y392591D01*
X290640Y392533D01*
X290706Y392473D01*
X290768Y392411D01*
X290828Y392345D01*
X290886Y392278D01*
X290940Y392208D01*
X290991Y392135D01*
X291039Y392061D01*
X291084Y391984D01*
X291125Y391906D01*
X291164Y391826D01*
X291198Y391745D01*
X291230Y391662D01*
X291257Y391577D01*
X291282Y391492D01*
X291302Y391406D01*
X291319Y391319D01*
X291332Y391231D01*
X291341Y391143D01*
X291347Y391055D01*
X291349Y390966D01*
X291350Y390966D02*
X291350Y387833D01*
X295527Y387833D01*
X295527Y393054D01*
X293519Y273002D02*
X293519Y270913D01*
X293520Y270913D02*
X293522Y270824D01*
X293528Y270736D01*
X293537Y270648D01*
X293550Y270560D01*
X293567Y270473D01*
X293587Y270387D01*
X293612Y270302D01*
X293639Y270217D01*
X293671Y270134D01*
X293705Y270053D01*
X293744Y269973D01*
X293785Y269895D01*
X293830Y269818D01*
X293878Y269744D01*
X293929Y269671D01*
X293983Y269601D01*
X294041Y269534D01*
X294101Y269468D01*
X294163Y269406D01*
X294229Y269346D01*
X294296Y269288D01*
X294366Y269234D01*
X294439Y269183D01*
X294513Y269135D01*
X294590Y269090D01*
X294668Y269049D01*
X294748Y269010D01*
X294829Y268976D01*
X294912Y268944D01*
X294997Y268917D01*
X295082Y268892D01*
X295168Y268872D01*
X295255Y268855D01*
X295343Y268842D01*
X295431Y268833D01*
X295519Y268827D01*
X295608Y268825D01*
X300829Y268825D01*
X300920Y268827D01*
X301011Y268833D01*
X301102Y268843D01*
X301192Y268857D01*
X301281Y268874D01*
X301369Y268896D01*
X301457Y268922D01*
X301543Y268951D01*
X301628Y268984D01*
X301711Y269021D01*
X301793Y269061D01*
X301873Y269105D01*
X301951Y269152D01*
X302027Y269203D01*
X302100Y269256D01*
X302171Y269313D01*
X302240Y269374D01*
X302305Y269437D01*
X302368Y269502D01*
X302428Y269571D01*
X302486Y269642D01*
X302539Y269715D01*
X302590Y269791D01*
X302637Y269869D01*
X302681Y269949D01*
X302721Y270031D01*
X302758Y270114D01*
X302791Y270199D01*
X302820Y270285D01*
X302846Y270373D01*
X302868Y270461D01*
X302885Y270550D01*
X302899Y270640D01*
X302909Y270731D01*
X302915Y270822D01*
X302917Y270913D01*
X302917Y273002D01*
X298741Y276471D02*
X298741Y279603D01*
X298740Y279603D02*
X298738Y279692D01*
X298732Y279780D01*
X298723Y279868D01*
X298710Y279956D01*
X298693Y280043D01*
X298673Y280129D01*
X298648Y280214D01*
X298621Y280299D01*
X298589Y280382D01*
X298555Y280463D01*
X298516Y280543D01*
X298475Y280621D01*
X298430Y280698D01*
X298382Y280772D01*
X298331Y280845D01*
X298277Y280915D01*
X298219Y280982D01*
X298159Y281048D01*
X298097Y281110D01*
X298031Y281170D01*
X297964Y281228D01*
X297894Y281282D01*
X297821Y281333D01*
X297747Y281381D01*
X297670Y281426D01*
X297592Y281467D01*
X297512Y281506D01*
X297431Y281540D01*
X297348Y281572D01*
X297263Y281599D01*
X297178Y281624D01*
X297092Y281644D01*
X297005Y281661D01*
X296917Y281674D01*
X296829Y281683D01*
X296741Y281689D01*
X296652Y281691D01*
X296652Y281692D02*
X296130Y281692D01*
X296029Y281690D01*
X295928Y281684D01*
X295827Y281674D01*
X295727Y281661D01*
X295627Y281643D01*
X295528Y281622D01*
X295430Y281596D01*
X295333Y281567D01*
X295237Y281535D01*
X295143Y281498D01*
X295050Y281458D01*
X294958Y281414D01*
X294869Y281367D01*
X294781Y281316D01*
X294695Y281262D01*
X294612Y281205D01*
X294530Y281145D01*
X294452Y281081D01*
X294375Y281015D01*
X294302Y280945D01*
X294231Y280873D01*
X294163Y280798D01*
X294098Y280720D01*
X294036Y280640D01*
X293977Y280558D01*
X293921Y280473D01*
X293869Y280387D01*
X293820Y280298D01*
X293774Y280207D01*
X293733Y280115D01*
X293694Y280021D01*
X293660Y279926D01*
X293629Y279830D01*
X293602Y279732D01*
X293578Y279634D01*
X293559Y279534D01*
X293543Y279434D01*
X293531Y279334D01*
X293523Y279233D01*
X293519Y279132D01*
X293519Y279030D01*
X293523Y278929D01*
X293531Y278828D01*
X293543Y278728D01*
X293559Y278628D01*
X293578Y278528D01*
X293602Y278430D01*
X293629Y278332D01*
X293660Y278236D01*
X293694Y278141D01*
X293733Y278047D01*
X293774Y277955D01*
X293820Y277864D01*
X293869Y277776D01*
X293921Y277689D01*
X293977Y277604D01*
X294036Y277522D01*
X294098Y277442D01*
X294163Y277364D01*
X294231Y277289D01*
X294302Y277217D01*
X294375Y277147D01*
X294452Y277081D01*
X294530Y277017D01*
X294612Y276957D01*
X294695Y276900D01*
X294781Y276846D01*
X294869Y276795D01*
X294958Y276748D01*
X295050Y276704D01*
X295143Y276664D01*
X295237Y276627D01*
X295333Y276595D01*
X295430Y276566D01*
X295528Y276540D01*
X295627Y276519D01*
X295727Y276501D01*
X295827Y276488D01*
X295928Y276478D01*
X296029Y276472D01*
X296130Y276470D01*
X296130Y276471D02*
X298741Y276471D01*
X298870Y276473D01*
X298998Y276479D01*
X299126Y276489D01*
X299254Y276503D01*
X299382Y276520D01*
X299509Y276542D01*
X299635Y276568D01*
X299760Y276597D01*
X299884Y276630D01*
X300007Y276668D01*
X300129Y276708D01*
X300250Y276753D01*
X300369Y276801D01*
X300487Y276853D01*
X300603Y276909D01*
X300717Y276968D01*
X300829Y277031D01*
X300940Y277097D01*
X301048Y277166D01*
X301154Y277239D01*
X301258Y277315D01*
X301360Y277394D01*
X301459Y277476D01*
X301555Y277561D01*
X301649Y277649D01*
X301740Y277740D01*
X301828Y277834D01*
X301913Y277930D01*
X301995Y278029D01*
X302074Y278131D01*
X302150Y278235D01*
X302223Y278341D01*
X302292Y278449D01*
X302358Y278559D01*
X302421Y278672D01*
X302480Y278786D01*
X302536Y278902D01*
X302588Y279020D01*
X302636Y279139D01*
X302681Y279260D01*
X302721Y279382D01*
X302759Y279505D01*
X302792Y279629D01*
X302821Y279754D01*
X302847Y279880D01*
X302869Y280007D01*
X302886Y280135D01*
X302900Y280263D01*
X302910Y280391D01*
X302916Y280519D01*
X302918Y280648D01*
X380670Y385904D02*
X380670Y387992D01*
X380670Y385904D02*
X380672Y385815D01*
X380678Y385727D01*
X380687Y385639D01*
X380700Y385551D01*
X380717Y385464D01*
X380737Y385378D01*
X380762Y385293D01*
X380789Y385208D01*
X380821Y385125D01*
X380855Y385044D01*
X380894Y384964D01*
X380935Y384886D01*
X380980Y384809D01*
X381028Y384735D01*
X381079Y384662D01*
X381133Y384592D01*
X381191Y384525D01*
X381251Y384459D01*
X381313Y384397D01*
X381379Y384337D01*
X381446Y384279D01*
X381516Y384225D01*
X381589Y384174D01*
X381663Y384126D01*
X381740Y384081D01*
X381818Y384040D01*
X381898Y384001D01*
X381979Y383967D01*
X382062Y383935D01*
X382147Y383908D01*
X382232Y383883D01*
X382318Y383863D01*
X382405Y383846D01*
X382493Y383833D01*
X382581Y383824D01*
X382669Y383818D01*
X382758Y383816D01*
X382758Y383815D02*
X387979Y383815D01*
X387979Y383816D02*
X388070Y383818D01*
X388161Y383824D01*
X388252Y383834D01*
X388342Y383848D01*
X388431Y383865D01*
X388519Y383887D01*
X388607Y383913D01*
X388693Y383942D01*
X388778Y383975D01*
X388861Y384012D01*
X388943Y384052D01*
X389023Y384096D01*
X389101Y384143D01*
X389177Y384194D01*
X389250Y384247D01*
X389321Y384304D01*
X389390Y384365D01*
X389455Y384428D01*
X389518Y384493D01*
X389578Y384562D01*
X389636Y384633D01*
X389689Y384706D01*
X389740Y384782D01*
X389787Y384860D01*
X389831Y384940D01*
X389871Y385022D01*
X389908Y385105D01*
X389941Y385190D01*
X389970Y385276D01*
X389996Y385364D01*
X390018Y385452D01*
X390035Y385541D01*
X390049Y385631D01*
X390059Y385722D01*
X390065Y385813D01*
X390067Y385904D01*
X390068Y385904D02*
X390068Y387992D01*
X384847Y393549D02*
X384847Y396682D01*
X384847Y393549D02*
X384849Y393460D01*
X384855Y393372D01*
X384864Y393284D01*
X384877Y393196D01*
X384894Y393109D01*
X384914Y393023D01*
X384939Y392938D01*
X384966Y392853D01*
X384998Y392770D01*
X385032Y392689D01*
X385071Y392609D01*
X385112Y392531D01*
X385157Y392454D01*
X385205Y392380D01*
X385256Y392307D01*
X385310Y392237D01*
X385368Y392170D01*
X385428Y392104D01*
X385490Y392042D01*
X385556Y391982D01*
X385623Y391924D01*
X385693Y391870D01*
X385766Y391819D01*
X385840Y391771D01*
X385917Y391726D01*
X385995Y391685D01*
X386075Y391646D01*
X386156Y391612D01*
X386239Y391580D01*
X386324Y391553D01*
X386409Y391528D01*
X386495Y391508D01*
X386582Y391491D01*
X386670Y391478D01*
X386758Y391469D01*
X386846Y391463D01*
X386935Y391461D01*
X387457Y391461D01*
X387457Y391460D02*
X387558Y391462D01*
X387659Y391468D01*
X387760Y391478D01*
X387860Y391491D01*
X387960Y391509D01*
X388059Y391530D01*
X388157Y391556D01*
X388254Y391585D01*
X388350Y391617D01*
X388444Y391654D01*
X388537Y391694D01*
X388629Y391738D01*
X388718Y391785D01*
X388806Y391836D01*
X388892Y391890D01*
X388975Y391947D01*
X389057Y392007D01*
X389135Y392071D01*
X389212Y392137D01*
X389285Y392207D01*
X389356Y392279D01*
X389424Y392354D01*
X389489Y392432D01*
X389551Y392512D01*
X389610Y392594D01*
X389666Y392679D01*
X389718Y392766D01*
X389767Y392854D01*
X389813Y392945D01*
X389854Y393037D01*
X389893Y393131D01*
X389927Y393226D01*
X389958Y393322D01*
X389985Y393420D01*
X390009Y393518D01*
X390028Y393618D01*
X390044Y393718D01*
X390056Y393818D01*
X390064Y393919D01*
X390068Y394020D01*
X390068Y394122D01*
X390064Y394223D01*
X390056Y394324D01*
X390044Y394424D01*
X390028Y394524D01*
X390009Y394624D01*
X389985Y394722D01*
X389958Y394820D01*
X389927Y394916D01*
X389893Y395011D01*
X389854Y395105D01*
X389813Y395197D01*
X389767Y395288D01*
X389718Y395376D01*
X389666Y395463D01*
X389610Y395548D01*
X389551Y395630D01*
X389489Y395710D01*
X389424Y395788D01*
X389356Y395863D01*
X389285Y395935D01*
X389212Y396005D01*
X389135Y396071D01*
X389057Y396135D01*
X388975Y396195D01*
X388892Y396252D01*
X388806Y396306D01*
X388718Y396357D01*
X388629Y396404D01*
X388537Y396448D01*
X388444Y396488D01*
X388350Y396525D01*
X388254Y396557D01*
X388157Y396586D01*
X388059Y396612D01*
X387960Y396633D01*
X387860Y396651D01*
X387760Y396664D01*
X387659Y396674D01*
X387558Y396680D01*
X387457Y396682D01*
X384847Y396682D01*
X384721Y396680D01*
X384595Y396674D01*
X384469Y396665D01*
X384344Y396652D01*
X384219Y396634D01*
X384094Y396614D01*
X383970Y396589D01*
X383847Y396561D01*
X383725Y396529D01*
X383604Y396493D01*
X383484Y396454D01*
X383366Y396411D01*
X383249Y396364D01*
X383133Y396314D01*
X383018Y396260D01*
X382906Y396204D01*
X382795Y396143D01*
X382686Y396080D01*
X382579Y396013D01*
X382474Y395943D01*
X382371Y395869D01*
X382271Y395793D01*
X382173Y395714D01*
X382077Y395632D01*
X381984Y395546D01*
X381893Y395459D01*
X381806Y395368D01*
X381720Y395275D01*
X381638Y395179D01*
X381559Y395081D01*
X381483Y394981D01*
X381409Y394878D01*
X381339Y394773D01*
X381272Y394666D01*
X381209Y394557D01*
X381148Y394446D01*
X381092Y394334D01*
X381038Y394219D01*
X380988Y394103D01*
X380941Y393986D01*
X380898Y393868D01*
X380859Y393748D01*
X380823Y393627D01*
X380791Y393505D01*
X380763Y393382D01*
X380738Y393258D01*
X380718Y393133D01*
X380700Y393008D01*
X380687Y392883D01*
X380678Y392757D01*
X380672Y392631D01*
X380670Y392505D01*
X452378Y342035D02*
X459023Y335389D01*
X452378Y342035D02*
X450532Y340189D01*
X450462Y340116D01*
X450394Y340041D01*
X450330Y339962D01*
X450269Y339882D01*
X450211Y339799D01*
X450156Y339714D01*
X450104Y339627D01*
X450056Y339537D01*
X450012Y339446D01*
X449971Y339354D01*
X449933Y339260D01*
X449900Y339164D01*
X449870Y339068D01*
X449843Y338970D01*
X449821Y338871D01*
X449802Y338771D01*
X449788Y338671D01*
X449777Y338571D01*
X449770Y338470D01*
X449767Y338368D01*
X449768Y338267D01*
X449773Y338166D01*
X449782Y338065D01*
X449795Y337965D01*
X449811Y337865D01*
X449832Y337766D01*
X449856Y337667D01*
X449884Y337570D01*
X449916Y337474D01*
X449951Y337379D01*
X449991Y337286D01*
X450033Y337194D01*
X450080Y337104D01*
X450130Y337016D01*
X450183Y336929D01*
X450239Y336845D01*
X450299Y336764D01*
X450362Y336684D01*
X450428Y336607D01*
X450496Y336533D01*
X450568Y336461D01*
X450642Y336393D01*
X450719Y336327D01*
X450799Y336264D01*
X450880Y336204D01*
X450964Y336148D01*
X451051Y336095D01*
X451139Y336045D01*
X451229Y335998D01*
X451321Y335956D01*
X451414Y335916D01*
X451509Y335881D01*
X451605Y335849D01*
X451702Y335821D01*
X451801Y335797D01*
X451900Y335776D01*
X452000Y335760D01*
X452100Y335747D01*
X452201Y335738D01*
X452302Y335733D01*
X452403Y335732D01*
X452505Y335735D01*
X452606Y335742D01*
X452706Y335753D01*
X452806Y335767D01*
X452906Y335786D01*
X453005Y335808D01*
X453103Y335835D01*
X453199Y335865D01*
X453295Y335898D01*
X453389Y335936D01*
X453481Y335977D01*
X453572Y336021D01*
X453662Y336069D01*
X453749Y336121D01*
X453834Y336176D01*
X453917Y336234D01*
X453997Y336295D01*
X454076Y336359D01*
X454151Y336427D01*
X454224Y336497D01*
X456070Y338343D01*
X453854Y336128D02*
X455331Y331697D01*
X443921Y330255D02*
X443856Y330324D01*
X443793Y330394D01*
X443733Y330468D01*
X443676Y330543D01*
X443622Y330621D01*
X443572Y330701D01*
X443525Y330783D01*
X443481Y330867D01*
X443440Y330953D01*
X443403Y331040D01*
X443369Y331128D01*
X443339Y331218D01*
X443313Y331309D01*
X443290Y331401D01*
X443271Y331493D01*
X443256Y331587D01*
X443245Y331681D01*
X443237Y331775D01*
X443233Y331870D01*
X443233Y331964D01*
X443237Y332059D01*
X443245Y332153D01*
X443256Y332247D01*
X443271Y332341D01*
X443290Y332433D01*
X443313Y332525D01*
X443339Y332616D01*
X443369Y332706D01*
X443403Y332794D01*
X443440Y332881D01*
X443481Y332967D01*
X443525Y333051D01*
X443572Y333133D01*
X443622Y333213D01*
X443676Y333291D01*
X443733Y333366D01*
X443793Y333440D01*
X443856Y333510D01*
X443921Y333579D01*
X443922Y333578D02*
X444000Y333653D01*
X444081Y333726D01*
X444164Y333795D01*
X444250Y333862D01*
X444338Y333925D01*
X444428Y333985D01*
X444520Y334042D01*
X444615Y334096D01*
X444711Y334146D01*
X444809Y334192D01*
X444908Y334235D01*
X445009Y334275D01*
X445112Y334310D01*
X445215Y334342D01*
X445320Y334371D01*
X445425Y334395D01*
X445532Y334416D01*
X445639Y334433D01*
X445747Y334446D01*
X445855Y334455D01*
X445963Y334461D01*
X446071Y334462D01*
X446180Y334459D01*
X446288Y334453D01*
X446396Y334443D01*
X446504Y334429D01*
X446610Y334411D01*
X446717Y334389D01*
X446822Y334363D01*
X446926Y334334D01*
X447030Y334301D01*
X447132Y334264D01*
X447232Y334223D01*
X447331Y334179D01*
X447429Y334132D01*
X445768Y329518D02*
X445670Y329517D01*
X445573Y329521D01*
X445476Y329528D01*
X445379Y329538D01*
X445283Y329553D01*
X445188Y329571D01*
X445093Y329593D01*
X444999Y329618D01*
X444906Y329647D01*
X444814Y329680D01*
X444724Y329716D01*
X444635Y329756D01*
X444548Y329799D01*
X444462Y329845D01*
X444379Y329894D01*
X444297Y329947D01*
X444217Y330003D01*
X444140Y330062D01*
X444065Y330124D01*
X443992Y330189D01*
X443922Y330256D01*
X445768Y329517D02*
X452598Y328964D01*
X448906Y325272D01*
M02*
