G04 EAGLE Gerber RS-274X export*
G75*
%MOMM*%
%FSLAX34Y34*%
%LPD*%
%INSoldermask Top*%
%IPPOS*%
%AMOC8*
5,1,8,0,0,1.08239X$1,22.5*%
G01*
%ADD10R,1.401600X1.601600*%
%ADD11R,0.901600X0.901600*%
%ADD12R,1.201600X1.101600*%
%ADD13R,1.101600X1.201600*%
%ADD14C,0.605878*%
%ADD15C,0.901600*%
%ADD16R,0.601600X0.601600*%

G36*
X418224Y425214D02*
X418224Y425214D01*
X418257Y425222D01*
X418306Y425223D01*
X421059Y425776D01*
X421091Y425789D01*
X421138Y425799D01*
X423763Y426796D01*
X423792Y426815D01*
X423837Y426832D01*
X426262Y428248D01*
X426288Y428271D01*
X426329Y428295D01*
X428488Y430091D01*
X428510Y430119D01*
X428547Y430149D01*
X430380Y432276D01*
X430394Y432301D01*
X430415Y432322D01*
X430443Y432388D01*
X430477Y432449D01*
X430481Y432479D01*
X430492Y432505D01*
X430491Y432576D01*
X430499Y432647D01*
X430491Y432675D01*
X430491Y432704D01*
X430463Y432770D01*
X430442Y432838D01*
X430424Y432860D01*
X430412Y432887D01*
X430342Y432958D01*
X430336Y432966D01*
X430325Y432981D01*
X430322Y432983D01*
X430315Y432991D01*
X430305Y432996D01*
X430296Y433006D01*
X402796Y453006D01*
X402769Y453018D01*
X402747Y453037D01*
X402679Y453059D01*
X402615Y453088D01*
X402586Y453089D01*
X402558Y453098D01*
X402487Y453092D01*
X402416Y453094D01*
X402389Y453083D01*
X402360Y453081D01*
X402297Y453047D01*
X402231Y453021D01*
X402210Y453001D01*
X402184Y452987D01*
X402137Y452933D01*
X402130Y452928D01*
X402122Y452916D01*
X402119Y452912D01*
X402089Y452882D01*
X402084Y452872D01*
X402075Y452861D01*
X400617Y450462D01*
X400605Y450429D01*
X400580Y450388D01*
X399537Y447781D01*
X399535Y447771D01*
X399533Y447768D01*
X399528Y447742D01*
X399512Y447702D01*
X398912Y444959D01*
X398912Y444924D01*
X398901Y444877D01*
X398761Y442073D01*
X398766Y442039D01*
X398763Y441991D01*
X399086Y439201D01*
X399097Y439168D01*
X399102Y439120D01*
X399880Y436422D01*
X399894Y436396D01*
X399894Y436395D01*
X399895Y436394D01*
X399896Y436391D01*
X399909Y436345D01*
X401121Y433812D01*
X401141Y433784D01*
X401162Y433741D01*
X402774Y431441D01*
X402799Y431417D01*
X402826Y431378D01*
X404795Y429375D01*
X404823Y429355D01*
X404857Y429321D01*
X407128Y427669D01*
X407159Y427655D01*
X407198Y427627D01*
X409710Y426371D01*
X409744Y426362D01*
X409787Y426341D01*
X412471Y425516D01*
X412506Y425513D01*
X412552Y425498D01*
X415335Y425127D01*
X415369Y425129D01*
X415417Y425122D01*
X418224Y425214D01*
G37*
G36*
X277021Y425128D02*
X277021Y425128D01*
X277069Y425127D01*
X279853Y425498D01*
X279885Y425510D01*
X279933Y425516D01*
X282617Y426341D01*
X282648Y426357D01*
X282694Y426371D01*
X285206Y427627D01*
X285233Y427648D01*
X285276Y427669D01*
X287547Y429321D01*
X287570Y429347D01*
X287609Y429375D01*
X289578Y431378D01*
X289596Y431407D01*
X289630Y431441D01*
X291242Y433741D01*
X291256Y433772D01*
X291283Y433812D01*
X292495Y436345D01*
X292503Y436379D01*
X292524Y436422D01*
X293302Y439120D01*
X293304Y439155D01*
X293318Y439201D01*
X293641Y441991D01*
X293638Y442025D01*
X293643Y442073D01*
X293503Y444877D01*
X293494Y444911D01*
X293492Y444959D01*
X292892Y447702D01*
X292878Y447734D01*
X292867Y447781D01*
X291824Y450388D01*
X291805Y450417D01*
X291787Y450462D01*
X290329Y452861D01*
X290309Y452883D01*
X290296Y452909D01*
X290256Y452943D01*
X290250Y452951D01*
X290240Y452957D01*
X290194Y453007D01*
X290167Y453019D01*
X290145Y453038D01*
X290077Y453060D01*
X290012Y453089D01*
X289983Y453090D01*
X289955Y453098D01*
X289885Y453092D01*
X289814Y453093D01*
X289786Y453083D01*
X289757Y453080D01*
X289679Y453041D01*
X289678Y453041D01*
X289678Y453040D01*
X289668Y453036D01*
X289629Y453020D01*
X289621Y453012D01*
X289608Y453006D01*
X262108Y433006D01*
X262089Y432984D01*
X262064Y432969D01*
X262056Y432958D01*
X262054Y432956D01*
X262022Y432912D01*
X261974Y432859D01*
X261964Y432832D01*
X261947Y432808D01*
X261931Y432739D01*
X261908Y432672D01*
X261909Y432643D01*
X261903Y432614D01*
X261915Y432544D01*
X261920Y432473D01*
X261933Y432447D01*
X261938Y432418D01*
X261989Y432333D01*
X262008Y432295D01*
X262017Y432288D01*
X262024Y432276D01*
X263857Y430149D01*
X263885Y430128D01*
X263916Y430091D01*
X266075Y428295D01*
X266105Y428279D01*
X266142Y428248D01*
X268567Y426832D01*
X268600Y426821D01*
X268641Y426796D01*
X271266Y425799D01*
X271300Y425793D01*
X271345Y425776D01*
X274098Y425223D01*
X274133Y425224D01*
X274180Y425214D01*
X276987Y425122D01*
X277021Y425128D01*
G37*
G36*
X363231Y226509D02*
X363231Y226509D01*
X363260Y226506D01*
X363327Y226528D01*
X363397Y226542D01*
X363421Y226559D01*
X363449Y226568D01*
X363502Y226615D01*
X363561Y226655D01*
X363577Y226679D01*
X363599Y226699D01*
X363630Y226763D01*
X363668Y226822D01*
X363673Y226851D01*
X363685Y226877D01*
X363694Y226977D01*
X363701Y227019D01*
X363698Y227029D01*
X363700Y227043D01*
X363468Y229841D01*
X363458Y229875D01*
X363454Y229923D01*
X362765Y232644D01*
X362750Y232676D01*
X362738Y232722D01*
X361610Y235294D01*
X361590Y235322D01*
X361571Y235366D01*
X360035Y237717D01*
X360011Y237741D01*
X359985Y237782D01*
X358083Y239847D01*
X358055Y239868D01*
X358022Y239903D01*
X355807Y241628D01*
X355776Y241643D01*
X355738Y241673D01*
X353268Y243009D01*
X353235Y243019D01*
X353193Y243042D01*
X350553Y243949D01*
X350537Y243954D01*
X350503Y243959D01*
X350457Y243974D01*
X347688Y244436D01*
X347653Y244435D01*
X347606Y244443D01*
X344798Y244443D01*
X344764Y244436D01*
X344716Y244436D01*
X341947Y243974D01*
X341914Y243962D01*
X341867Y243954D01*
X339211Y243042D01*
X339181Y243025D01*
X339136Y243009D01*
X336666Y241673D01*
X336640Y241651D01*
X336597Y241628D01*
X334382Y239903D01*
X334359Y239877D01*
X334321Y239847D01*
X332419Y237782D01*
X332401Y237752D01*
X332369Y237717D01*
X330833Y235366D01*
X330820Y235334D01*
X330794Y235294D01*
X329666Y232722D01*
X329659Y232689D01*
X329656Y232682D01*
X329650Y232673D01*
X329649Y232667D01*
X329639Y232644D01*
X328950Y229923D01*
X328948Y229888D01*
X328936Y229841D01*
X328704Y227043D01*
X328708Y227014D01*
X328703Y226985D01*
X328720Y226916D01*
X328728Y226846D01*
X328742Y226820D01*
X328749Y226792D01*
X328791Y226735D01*
X328826Y226673D01*
X328850Y226655D01*
X328867Y226632D01*
X328928Y226596D01*
X328985Y226553D01*
X329013Y226545D01*
X329038Y226530D01*
X329136Y226514D01*
X329177Y226503D01*
X329188Y226505D01*
X329202Y226503D01*
X363202Y226503D01*
X363231Y226509D01*
G37*
G36*
X454333Y292709D02*
X454333Y292709D01*
X454362Y292706D01*
X454429Y292729D01*
X454499Y292743D01*
X454523Y292760D01*
X454550Y292769D01*
X454604Y292816D01*
X454662Y292856D01*
X454678Y292881D01*
X454700Y292900D01*
X454746Y292988D01*
X454769Y293024D01*
X454770Y293035D01*
X454777Y293048D01*
X465277Y325348D01*
X465280Y325377D01*
X465291Y325404D01*
X465291Y325475D01*
X465299Y325545D01*
X465291Y325573D01*
X465291Y325602D01*
X465263Y325668D01*
X465243Y325736D01*
X465225Y325758D01*
X465213Y325785D01*
X465162Y325835D01*
X465117Y325890D01*
X465091Y325903D01*
X465070Y325923D01*
X464978Y325962D01*
X464941Y325982D01*
X464929Y325983D01*
X464917Y325988D01*
X462187Y326632D01*
X462152Y326633D01*
X462105Y326644D01*
X459307Y326830D01*
X459272Y326825D01*
X459224Y326828D01*
X456433Y326551D01*
X456400Y326541D01*
X456352Y326536D01*
X453645Y325803D01*
X453614Y325788D01*
X453567Y325775D01*
X451018Y324607D01*
X450990Y324586D01*
X450946Y324566D01*
X448623Y322994D01*
X448599Y322969D01*
X448559Y322942D01*
X446527Y321009D01*
X446507Y320981D01*
X446472Y320947D01*
X444786Y318706D01*
X444771Y318675D01*
X444742Y318636D01*
X443448Y316148D01*
X443438Y316115D01*
X443416Y316072D01*
X442549Y313405D01*
X442545Y313370D01*
X442530Y313325D01*
X442114Y310551D01*
X442115Y310516D01*
X442108Y310469D01*
X442154Y307664D01*
X442155Y307662D01*
X442162Y307630D01*
X442162Y307582D01*
X442669Y304824D01*
X442682Y304791D01*
X442691Y304744D01*
X443645Y302107D01*
X443663Y302077D01*
X443679Y302032D01*
X445054Y299587D01*
X445077Y299561D01*
X445101Y299519D01*
X446859Y297334D01*
X446886Y297312D01*
X446916Y297274D01*
X449011Y295409D01*
X449040Y295391D01*
X449076Y295359D01*
X451449Y293864D01*
X451482Y293852D01*
X451522Y293826D01*
X454109Y292742D01*
X454138Y292736D01*
X454163Y292722D01*
X454234Y292717D01*
X454304Y292703D01*
X454333Y292709D01*
G37*
G36*
X238104Y292708D02*
X238104Y292708D01*
X238133Y292704D01*
X238230Y292726D01*
X238272Y292733D01*
X238282Y292738D01*
X238295Y292742D01*
X240882Y293826D01*
X240910Y293845D01*
X240955Y293864D01*
X243328Y295359D01*
X243353Y295383D01*
X243394Y295409D01*
X245488Y297274D01*
X245509Y297302D01*
X245545Y297334D01*
X247303Y299519D01*
X247319Y299550D01*
X247350Y299587D01*
X248725Y302032D01*
X248735Y302065D01*
X248759Y302107D01*
X249713Y304744D01*
X249718Y304778D01*
X249735Y304824D01*
X250242Y307582D01*
X250241Y307617D01*
X250250Y307664D01*
X250296Y310469D01*
X250289Y310503D01*
X250290Y310551D01*
X249874Y313325D01*
X249862Y313357D01*
X249855Y313405D01*
X248988Y316072D01*
X248971Y316102D01*
X248956Y316148D01*
X247662Y318636D01*
X247640Y318663D01*
X247618Y318706D01*
X245932Y320947D01*
X245906Y320970D01*
X245877Y321009D01*
X243845Y322942D01*
X243816Y322960D01*
X243781Y322994D01*
X241458Y324566D01*
X241426Y324579D01*
X241386Y324607D01*
X238837Y325775D01*
X238803Y325783D01*
X238759Y325803D01*
X236052Y326536D01*
X236017Y326538D01*
X235971Y326551D01*
X233180Y326828D01*
X233145Y326825D01*
X233097Y326830D01*
X230299Y326644D01*
X230265Y326635D01*
X230217Y326632D01*
X227487Y325988D01*
X227461Y325976D01*
X227432Y325971D01*
X227371Y325934D01*
X227307Y325905D01*
X227287Y325883D01*
X227262Y325868D01*
X227221Y325810D01*
X227173Y325758D01*
X227163Y325730D01*
X227146Y325706D01*
X227131Y325637D01*
X227107Y325570D01*
X227109Y325541D01*
X227103Y325512D01*
X227117Y325414D01*
X227120Y325371D01*
X227125Y325361D01*
X227127Y325348D01*
X237627Y293048D01*
X237642Y293022D01*
X237648Y292994D01*
X237690Y292936D01*
X237725Y292875D01*
X237748Y292857D01*
X237765Y292833D01*
X237826Y292797D01*
X237883Y292753D01*
X237911Y292746D01*
X237936Y292731D01*
X238006Y292721D01*
X238075Y292703D01*
X238104Y292708D01*
G37*
G36*
X278630Y226508D02*
X278630Y226508D01*
X278658Y226506D01*
X278726Y226528D01*
X278797Y226542D01*
X278820Y226558D01*
X278847Y226567D01*
X278901Y226614D01*
X278961Y226655D01*
X278976Y226679D01*
X278997Y226697D01*
X279029Y226762D01*
X279068Y226822D01*
X279073Y226850D01*
X279085Y226875D01*
X279094Y226978D01*
X279101Y227019D01*
X279099Y227029D01*
X279100Y227041D01*
X278866Y230017D01*
X278857Y230049D01*
X278854Y230095D01*
X278158Y232998D01*
X278144Y233028D01*
X278134Y233072D01*
X276992Y235831D01*
X276973Y235858D01*
X276956Y235901D01*
X275397Y238446D01*
X275374Y238471D01*
X275351Y238510D01*
X273413Y240780D01*
X273386Y240801D01*
X273357Y240836D01*
X271088Y242775D01*
X271059Y242791D01*
X271024Y242821D01*
X268479Y244382D01*
X268448Y244393D01*
X268409Y244417D01*
X265651Y245560D01*
X265619Y245567D01*
X265577Y245585D01*
X262674Y246282D01*
X262641Y246283D01*
X262597Y246295D01*
X259621Y246529D01*
X259588Y246525D01*
X259542Y246529D01*
X256566Y246296D01*
X256534Y246287D01*
X256489Y246284D01*
X253586Y245587D01*
X253560Y245575D01*
X253532Y245571D01*
X253470Y245534D01*
X253405Y245504D01*
X253386Y245482D01*
X253362Y245468D01*
X253320Y245409D01*
X253272Y245356D01*
X253263Y245329D01*
X253246Y245306D01*
X253231Y245236D01*
X253207Y245168D01*
X253209Y245140D01*
X253203Y245112D01*
X253218Y245012D01*
X253221Y244970D01*
X253225Y244960D01*
X253227Y244947D01*
X259127Y226847D01*
X259142Y226821D01*
X259149Y226792D01*
X259191Y226735D01*
X259225Y226674D01*
X259249Y226656D01*
X259267Y226632D01*
X259327Y226596D01*
X259383Y226553D01*
X259412Y226546D01*
X259438Y226530D01*
X259534Y226514D01*
X259576Y226503D01*
X259588Y226505D01*
X259602Y226503D01*
X278602Y226503D01*
X278630Y226508D01*
G37*
G36*
X432831Y226509D02*
X432831Y226509D01*
X432861Y226506D01*
X432928Y226528D01*
X432997Y226542D01*
X433022Y226559D01*
X433050Y226569D01*
X433103Y226615D01*
X433161Y226655D01*
X433177Y226680D01*
X433199Y226700D01*
X433245Y226786D01*
X433268Y226822D01*
X433270Y226834D01*
X433277Y226847D01*
X439177Y244947D01*
X439180Y244976D01*
X439191Y245002D01*
X439191Y245074D01*
X439199Y245145D01*
X439191Y245172D01*
X439191Y245201D01*
X439164Y245267D01*
X439143Y245336D01*
X439125Y245358D01*
X439114Y245384D01*
X439063Y245434D01*
X439017Y245489D01*
X438992Y245502D01*
X438972Y245522D01*
X438878Y245562D01*
X438841Y245582D01*
X438830Y245582D01*
X438818Y245587D01*
X435915Y246284D01*
X435882Y246285D01*
X435838Y246296D01*
X432862Y246529D01*
X432829Y246525D01*
X432783Y246529D01*
X429807Y246295D01*
X429775Y246285D01*
X429730Y246282D01*
X426827Y245585D01*
X426797Y245571D01*
X426753Y245560D01*
X424040Y244436D01*
X423995Y244417D01*
X423967Y244399D01*
X423925Y244382D01*
X421380Y242821D01*
X421356Y242799D01*
X421316Y242775D01*
X419047Y240836D01*
X419026Y240810D01*
X418991Y240780D01*
X417053Y238510D01*
X417037Y238481D01*
X417007Y238446D01*
X415448Y235901D01*
X415436Y235869D01*
X415412Y235831D01*
X414270Y233072D01*
X414264Y233040D01*
X414246Y232998D01*
X413550Y230095D01*
X413549Y230062D01*
X413538Y230017D01*
X413304Y227041D01*
X413308Y227013D01*
X413303Y226985D01*
X413320Y226915D01*
X413329Y226844D01*
X413343Y226819D01*
X413349Y226792D01*
X413392Y226734D01*
X413428Y226671D01*
X413450Y226655D01*
X413467Y226632D01*
X413529Y226595D01*
X413587Y226552D01*
X413614Y226545D01*
X413638Y226530D01*
X413739Y226513D01*
X413779Y226503D01*
X413790Y226505D01*
X413802Y226503D01*
X432802Y226503D01*
X432831Y226509D01*
G37*
G36*
X349219Y474292D02*
X349219Y474292D01*
X349251Y474301D01*
X349296Y474304D01*
X352201Y475002D01*
X352231Y475016D01*
X352275Y475026D01*
X355035Y476169D01*
X355063Y476187D01*
X355105Y476204D01*
X357652Y477765D01*
X357676Y477788D01*
X357715Y477811D01*
X359986Y479751D01*
X360007Y479777D01*
X360042Y479806D01*
X361982Y482078D01*
X361996Y482103D01*
X362016Y482124D01*
X362044Y482189D01*
X362078Y482252D01*
X362081Y482281D01*
X362092Y482307D01*
X362092Y482379D01*
X362099Y482449D01*
X362091Y482477D01*
X362090Y482506D01*
X362062Y482572D01*
X362041Y482640D01*
X362022Y482662D01*
X362011Y482689D01*
X361941Y482760D01*
X361914Y482792D01*
X361904Y482797D01*
X361894Y482807D01*
X346494Y493907D01*
X346468Y493919D01*
X346447Y493937D01*
X346378Y493959D01*
X346313Y493989D01*
X346284Y493989D01*
X346257Y493998D01*
X346186Y493992D01*
X346114Y493993D01*
X346088Y493983D01*
X346059Y493980D01*
X345968Y493936D01*
X345929Y493920D01*
X345922Y493913D01*
X345910Y493907D01*
X330510Y482807D01*
X330490Y482786D01*
X330465Y482771D01*
X330423Y482713D01*
X330375Y482661D01*
X330365Y482634D01*
X330348Y482610D01*
X330332Y482541D01*
X330308Y482474D01*
X330310Y482445D01*
X330303Y482416D01*
X330315Y482346D01*
X330319Y482275D01*
X330332Y482249D01*
X330337Y482221D01*
X330388Y482135D01*
X330407Y482097D01*
X330415Y482090D01*
X330422Y482078D01*
X332362Y479806D01*
X332388Y479786D01*
X332418Y479751D01*
X334689Y477811D01*
X334718Y477795D01*
X334752Y477765D01*
X337299Y476204D01*
X337330Y476193D01*
X337369Y476169D01*
X340129Y475026D01*
X340161Y475019D01*
X340203Y475002D01*
X343108Y474304D01*
X343141Y474303D01*
X343185Y474292D01*
X346163Y474058D01*
X346196Y474062D01*
X346241Y474058D01*
X349219Y474292D01*
G37*
G36*
X480534Y373209D02*
X480534Y373209D01*
X480563Y373206D01*
X480631Y373229D01*
X480701Y373244D01*
X480724Y373260D01*
X480752Y373270D01*
X480805Y373317D01*
X480864Y373358D01*
X480879Y373382D01*
X480901Y373401D01*
X480947Y373491D01*
X480969Y373527D01*
X480971Y373537D01*
X480977Y373549D01*
X486777Y391549D01*
X486780Y391577D01*
X486792Y391604D01*
X486791Y391675D01*
X486799Y391747D01*
X486791Y391774D01*
X486791Y391803D01*
X486763Y391869D01*
X486742Y391937D01*
X486724Y391959D01*
X486713Y391986D01*
X486643Y392058D01*
X486616Y392090D01*
X486606Y392095D01*
X486597Y392105D01*
X471297Y403305D01*
X471270Y403317D01*
X471248Y403336D01*
X471181Y403358D01*
X471116Y403388D01*
X471087Y403389D01*
X471059Y403398D01*
X470989Y403392D01*
X470918Y403394D01*
X470890Y403384D01*
X470861Y403381D01*
X470798Y403348D01*
X470732Y403322D01*
X470711Y403302D01*
X470686Y403288D01*
X470620Y403213D01*
X470590Y403183D01*
X470585Y403173D01*
X470576Y403163D01*
X469021Y400623D01*
X469010Y400592D01*
X468986Y400553D01*
X467847Y397801D01*
X467841Y397769D01*
X467823Y397727D01*
X467129Y394831D01*
X467128Y394798D01*
X467117Y394754D01*
X466884Y391785D01*
X466888Y391752D01*
X466884Y391706D01*
X467119Y388738D01*
X467128Y388706D01*
X467131Y388660D01*
X467828Y385765D01*
X467842Y385735D01*
X467852Y385691D01*
X468992Y382940D01*
X469011Y382912D01*
X469028Y382870D01*
X470585Y380331D01*
X470608Y380307D01*
X470631Y380268D01*
X472566Y378004D01*
X472592Y377984D01*
X472621Y377949D01*
X474887Y376016D01*
X474916Y376000D01*
X474950Y375970D01*
X477490Y374415D01*
X477521Y374403D01*
X477559Y374379D01*
X480311Y373241D01*
X480339Y373235D01*
X480365Y373222D01*
X480436Y373216D01*
X480506Y373203D01*
X480534Y373209D01*
G37*
G36*
X211902Y373208D02*
X211902Y373208D01*
X211931Y373204D01*
X212029Y373226D01*
X212071Y373232D01*
X212080Y373238D01*
X212093Y373241D01*
X214845Y374379D01*
X214872Y374398D01*
X214914Y374415D01*
X217454Y375970D01*
X217478Y375992D01*
X217518Y376016D01*
X219783Y377949D01*
X219803Y377975D01*
X219838Y378004D01*
X221773Y380268D01*
X221789Y380297D01*
X221819Y380331D01*
X223376Y382870D01*
X223387Y382901D01*
X223412Y382940D01*
X224552Y385691D01*
X224559Y385723D01*
X224576Y385765D01*
X225273Y388660D01*
X225274Y388694D01*
X225285Y388738D01*
X225520Y391706D01*
X225516Y391739D01*
X225520Y391785D01*
X225287Y394754D01*
X225278Y394786D01*
X225275Y394831D01*
X224581Y397727D01*
X224567Y397757D01*
X224557Y397801D01*
X223418Y400553D01*
X223400Y400581D01*
X223383Y400623D01*
X221828Y403163D01*
X221808Y403184D01*
X221795Y403210D01*
X221741Y403256D01*
X221692Y403308D01*
X221666Y403320D01*
X221643Y403339D01*
X221576Y403360D01*
X221511Y403389D01*
X221482Y403390D01*
X221454Y403399D01*
X221383Y403392D01*
X221312Y403393D01*
X221285Y403382D01*
X221256Y403379D01*
X221167Y403335D01*
X221127Y403319D01*
X221119Y403311D01*
X221107Y403305D01*
X205807Y392105D01*
X205788Y392084D01*
X205763Y392069D01*
X205722Y392011D01*
X205673Y391958D01*
X205664Y391931D01*
X205647Y391907D01*
X205631Y391838D01*
X205607Y391770D01*
X205609Y391742D01*
X205603Y391714D01*
X205617Y391614D01*
X205620Y391572D01*
X205625Y391562D01*
X205627Y391549D01*
X211427Y373549D01*
X211441Y373524D01*
X211447Y373496D01*
X211489Y373438D01*
X211524Y373376D01*
X211547Y373358D01*
X211564Y373335D01*
X211625Y373298D01*
X211682Y373254D01*
X211709Y373247D01*
X211734Y373232D01*
X211805Y373222D01*
X211874Y373204D01*
X211902Y373208D01*
G37*
D10*
X383528Y314207D03*
X402528Y314207D03*
D11*
X259271Y371718D03*
X259271Y356718D03*
D12*
X383555Y297556D03*
X383555Y280556D03*
D13*
X258947Y387044D03*
X275947Y387044D03*
D14*
X316593Y436057D02*
X327551Y436057D01*
X327551Y431099D01*
X316593Y431099D01*
X316593Y436057D01*
X316593Y456499D02*
X327551Y456499D01*
X316593Y456499D02*
X316593Y461457D01*
X327551Y461457D01*
X327551Y456499D01*
X360027Y449641D02*
X370985Y449641D01*
X360027Y449641D02*
X360027Y454599D01*
X370985Y454599D01*
X370985Y449641D01*
X435623Y359674D02*
X446581Y359674D01*
X435623Y359674D02*
X435623Y364632D01*
X446581Y364632D01*
X446581Y359674D01*
D15*
X346202Y486702D03*
X479802Y389602D03*
X428802Y232502D03*
X263602Y232502D03*
X212602Y389602D03*
X413002Y438202D03*
X454302Y311102D03*
X346202Y232502D03*
X238102Y311102D03*
X279402Y438202D03*
D16*
X330202Y354202D03*
X338202Y354202D03*
X346202Y354202D03*
X354202Y354202D03*
X362202Y354202D03*
X362202Y346202D03*
X362202Y338202D03*
X354202Y338202D03*
X346202Y338202D03*
X338202Y338202D03*
X330202Y338202D03*
X330202Y346202D03*
D12*
X322970Y372110D03*
X339970Y372110D03*
D10*
X321970Y393700D03*
X340970Y393700D03*
D13*
X378850Y341630D03*
X395850Y341630D03*
D12*
X308610Y317890D03*
X308610Y334890D03*
D13*
X287900Y341630D03*
X270900Y341630D03*
D12*
X330200Y295520D03*
X330200Y278520D03*
M02*
